G04*
G04 #@! TF.GenerationSoftware,Altium Limited,Altium Designer,25.4.2 (15)*
G04*
G04 Layer_Color=128*
%FSLAX44Y44*%
%MOMM*%
G71*
G04*
G04 #@! TF.SameCoordinates,C2DD7520-A2B9-4FCF-9691-AC0A9630E6EF*
G04*
G04*
G04 #@! TF.FilePolarity,Positive*
G04*
G01*
G75*
%ADD105R,1.7500X0.8128*%
%ADD106R,2.5500X2.5000*%
D105*
X500260Y104604D02*
D03*
Y89618D02*
D03*
X441332Y104604D02*
D03*
Y89618D02*
D03*
X304627Y104589D02*
D03*
Y89603D02*
D03*
X245699Y104589D02*
D03*
Y89603D02*
D03*
X108677Y104545D02*
D03*
Y89559D02*
D03*
X49749Y104545D02*
D03*
Y89559D02*
D03*
X109769Y312223D02*
D03*
Y297237D02*
D03*
X50841Y312223D02*
D03*
Y297237D02*
D03*
X304952Y312181D02*
D03*
Y297195D02*
D03*
X246024Y312181D02*
D03*
Y297195D02*
D03*
X504264Y311821D02*
D03*
Y296835D02*
D03*
X445336Y311821D02*
D03*
Y296835D02*
D03*
D106*
X530600Y430800D02*
D03*
X396100Y405400D02*
D03*
X335600Y430800D02*
D03*
X201100Y405400D02*
D03*
X140600Y430800D02*
D03*
X6100Y405400D02*
D03*
X530600Y223200D02*
D03*
X396100Y197800D02*
D03*
X335600Y223200D02*
D03*
X201100Y197800D02*
D03*
X140600Y223197D02*
D03*
X6100Y197796D02*
D03*
M02*
