G04*
G04 #@! TF.GenerationSoftware,Altium Limited,Altium Designer,25.4.2 (15)*
G04*
G04 Layer_Physical_Order=1*
G04 Layer_Color=255*
%FSLAX44Y44*%
%MOMM*%
G71*
G04*
G04 #@! TF.SameCoordinates,C2DD7520-A2B9-4FCF-9691-AC0A9630E6EF*
G04*
G04*
G04 #@! TF.FilePolarity,Positive*
G04*
G01*
G75*
%ADD10C,0.2500*%
%ADD11C,0.2000*%
%ADD15C,0.4000*%
%ADD16R,1.2084X1.0121*%
%ADD17R,1.5000X0.9000*%
%ADD18R,1.0000X0.5000*%
%ADD19R,0.8000X0.8000*%
%ADD20R,0.9000X1.5000*%
%ADD21R,1.0000X0.8000*%
%ADD22R,0.5000X1.0000*%
%ADD23R,0.8000X0.9500*%
%ADD24R,1.2549X1.4562*%
%ADD25R,1.0121X0.8621*%
%ADD26R,0.9000X0.8000*%
%ADD27R,0.8621X1.0121*%
%ADD28R,0.9000X0.3000*%
%ADD29R,0.8582X0.8563*%
%ADD30R,0.9000X0.7500*%
%ADD31R,0.9900X0.3000*%
%ADD32R,0.7500X0.9000*%
%ADD33R,0.3500X0.8500*%
%ADD34R,0.8500X0.3500*%
%ADD35R,2.1500X2.1500*%
%ADD36C,1.5000*%
%ADD37R,0.9565X0.9621*%
%ADD38R,0.8500X0.9500*%
%ADD39R,0.8000X0.8000*%
%ADD40R,1.1500X0.6000*%
%ADD41R,0.8000X0.9000*%
%ADD42R,1.0587X1.0121*%
%ADD43R,0.9000X0.8000*%
%ADD44R,0.8000X1.7000*%
%ADD45R,0.9500X0.8000*%
%ADD46R,1.0121X1.2084*%
%ADD47R,0.5000X0.4000*%
G04:AMPARAMS|DCode=75|XSize=1mm|YSize=2.55mm|CornerRadius=0.5mm|HoleSize=0mm|Usage=FLASHONLY|Rotation=90.000|XOffset=0mm|YOffset=0mm|HoleType=Round|Shape=RoundedRectangle|*
%AMROUNDEDRECTD75*
21,1,1.0000,1.5500,0,0,90.0*
21,1,0.0000,2.5500,0,0,90.0*
1,1,1.0000,0.7750,0.0000*
1,1,1.0000,0.7750,0.0000*
1,1,1.0000,-0.7750,0.0000*
1,1,1.0000,-0.7750,0.0000*
%
%ADD75ROUNDEDRECTD75*%
G04:AMPARAMS|DCode=76|XSize=1.1mm|YSize=2.4mm|CornerRadius=0.55mm|HoleSize=0mm|Usage=FLASHONLY|Rotation=90.000|XOffset=0mm|YOffset=0mm|HoleType=Round|Shape=RoundedRectangle|*
%AMROUNDEDRECTD76*
21,1,1.1000,1.3000,0,0,90.0*
21,1,0.0000,2.4000,0,0,90.0*
1,1,1.1000,0.6500,0.0000*
1,1,1.1000,0.6500,0.0000*
1,1,1.1000,-0.6500,0.0000*
1,1,1.1000,-0.6500,0.0000*
%
%ADD76ROUNDEDRECTD76*%
%AMCUSTOMSHAPE80*
4,1,6,-0.5080,0.6350,-0.5080,-0.6350,0.0000,-0.1270,0.5080,-0.6350,0.5080,0.6350,0.0000,0.1270,-0.5080,0.6350,0.0*%
%ADD80CUSTOMSHAPE80*%

%AMCUSTOMSHAPE81*
4,1,5,0.5080,-0.4445,-0.5080,-0.4445,-0.5080,-0.0635,0.0000,0.4445,0.5080,-0.0635,0.5080,-0.4445,0.0*%
%ADD81CUSTOMSHAPE81*%

%AMCUSTOMSHAPE82*
4,1,5,-0.5080,0.4445,0.5080,0.4445,0.5080,0.0635,0.0000,-0.4445,-0.5080,0.0635,-0.5080,0.4445,0.0*%
%ADD82CUSTOMSHAPE82*%

%ADD83C,0.5000*%
%ADD84C,0.2540*%
%ADD85C,0.7500*%
%ADD86C,0.1500*%
%ADD87C,0.5500*%
%ADD88C,0.6500*%
%ADD89C,0.3000*%
%ADD90C,1.0000*%
%ADD91C,3.4000*%
%ADD92C,1.7000*%
%ADD93C,3.9878*%
%ADD94C,1.5080*%
%ADD95C,1.4000*%
%ADD96R,1.4000X1.4000*%
%ADD97R,2.3000X3.1000*%
%ADD98R,1.5000X1.5000*%
%ADD99C,1.5240*%
%ADD100C,1.0000*%
%ADD101R,1.0000X1.0000*%
%ADD102C,0.6000*%
%ADD103C,0.8000*%
%ADD104C,0.4500*%
G36*
X938470Y862527D02*
X940927Y860886D01*
X943016Y858796D01*
X944658Y856340D01*
X945789Y853610D01*
X946365Y850712D01*
Y849235D01*
Y668789D01*
X942321D01*
X942154Y669128D01*
X941820Y670059D01*
X942583Y671901D01*
X942692Y672730D01*
X928250D01*
Y674000D01*
D01*
Y672730D01*
X913808D01*
X913917Y671901D01*
X914680Y670059D01*
X914346Y669128D01*
X914179Y668789D01*
X910641D01*
X910079Y669928D01*
X910286Y670198D01*
X911046Y672032D01*
X911138Y672730D01*
X895950D01*
X880762D01*
X880854Y672032D01*
X881614Y670198D01*
X882822Y668622D01*
X883881Y667810D01*
X883450Y666540D01*
X882710D01*
Y663770D01*
X889750D01*
Y661230D01*
X882710D01*
Y658770D01*
X889750D01*
Y656230D01*
X882710D01*
Y653770D01*
X889750D01*
Y651230D01*
X882710D01*
Y651038D01*
X867216Y651004D01*
X866827Y650926D01*
X866440Y650849D01*
X866438Y650847D01*
X866436Y650847D01*
X866109Y650628D01*
X865779Y650407D01*
X865777Y650405D01*
X865776Y650403D01*
X865557Y650075D01*
X865337Y649745D01*
X865336Y649743D01*
X865335Y649741D01*
X865258Y649350D01*
X865181Y648965D01*
Y647940D01*
X864008Y647454D01*
X863661Y647801D01*
X862669Y648464D01*
X861498Y648697D01*
X861498Y648697D01*
X858286D01*
Y652389D01*
X847056D01*
X846286Y652389D01*
X845016Y652389D01*
X833786D01*
Y648697D01*
X831079D01*
X830518Y649932D01*
X830669Y650084D01*
X831430Y651921D01*
Y653911D01*
X830669Y655748D01*
X829489Y656928D01*
Y657220D01*
X830929Y658660D01*
X833856D01*
Y654969D01*
X845086D01*
X845855Y654969D01*
X847125Y654969D01*
X858355D01*
Y658483D01*
X859625Y659009D01*
X860400Y658234D01*
X862238Y657473D01*
X864227D01*
X866065Y658234D01*
X867471Y659641D01*
X868233Y661479D01*
Y663468D01*
X867471Y665305D01*
X866065Y666712D01*
X864227Y667473D01*
X862238D01*
X860400Y666712D01*
X859625Y665937D01*
X858355Y666463D01*
Y668469D01*
X847125D01*
X846356Y668469D01*
X845086Y668469D01*
X833856D01*
Y664778D01*
X829662D01*
X829662Y664778D01*
X828492Y664545D01*
X827499Y663882D01*
X827499Y663882D01*
X824268Y660650D01*
X823604Y659657D01*
X823372Y658487D01*
X823372Y658487D01*
Y656928D01*
X822191Y655748D01*
X821430Y653911D01*
Y651921D01*
X822191Y650084D01*
X823428Y648848D01*
Y648487D01*
X823428Y648487D01*
X823661Y647316D01*
X824324Y646324D01*
X827172Y643476D01*
X827172Y643476D01*
X828164Y642813D01*
X829335Y642580D01*
X833786D01*
Y638889D01*
X845016D01*
X845786Y638889D01*
X847056Y638889D01*
X858286D01*
Y642580D01*
X860231D01*
X869482Y633328D01*
X868996Y632155D01*
X864110D01*
Y633010D01*
X850210D01*
Y628550D01*
X849670D01*
Y625780D01*
X857160D01*
Y623240D01*
X849670D01*
Y620470D01*
X850210D01*
Y616010D01*
X853736D01*
X853988Y614740D01*
X853033Y614344D01*
X851626Y612938D01*
X850865Y611100D01*
Y609111D01*
X851626Y607273D01*
X853033Y605867D01*
X853909Y605504D01*
X853656Y604234D01*
X834151D01*
Y600305D01*
X830711D01*
X828021Y602995D01*
X826284Y604156D01*
X824236Y604563D01*
X815530D01*
Y605210D01*
X813515D01*
Y608851D01*
X813824Y609597D01*
Y611586D01*
X813063Y613424D01*
X811657Y614831D01*
X810194Y615436D01*
X810447Y616706D01*
X827839D01*
X828040Y616666D01*
X832199D01*
X832400Y616706D01*
X834110D01*
Y616010D01*
X848010D01*
Y621010D01*
Y633010D01*
X834110D01*
Y632314D01*
X745575D01*
X744502Y632100D01*
X743592Y631493D01*
X734112Y622012D01*
X333432D01*
X332906Y623282D01*
X333119Y623495D01*
X333880Y625333D01*
Y627322D01*
X333119Y629160D01*
X331712Y630567D01*
X329875Y631328D01*
X327886D01*
X326048Y630567D01*
X324641Y629160D01*
X323880Y627322D01*
Y625333D01*
X324641Y623495D01*
X324855Y623282D01*
X324329Y622012D01*
X206003D01*
X204930Y621799D01*
X204020Y621191D01*
X200982Y618152D01*
X200374Y617242D01*
X200160Y616169D01*
Y612303D01*
X168567D01*
Y614002D01*
X169471Y614907D01*
X170233Y616745D01*
Y618734D01*
X169471Y620572D01*
X168065Y621978D01*
X166227Y622739D01*
X164238D01*
X162400Y621978D01*
X160994Y620572D01*
X160233Y618734D01*
Y616745D01*
X160994Y614907D01*
X161899Y614002D01*
Y612303D01*
X155478D01*
Y617735D01*
X156403Y618661D01*
X157164Y620498D01*
Y622487D01*
X156403Y624325D01*
X154997Y625732D01*
X153159Y626493D01*
X151170D01*
X149332Y625732D01*
X147925Y624325D01*
X147164Y622487D01*
Y620498D01*
X147925Y618661D01*
X148851Y617735D01*
Y612303D01*
X131211D01*
X130685Y613573D01*
X135023Y617912D01*
X136673D01*
X137569Y617016D01*
X139406Y616255D01*
X141396D01*
X143233Y617016D01*
X144640Y618423D01*
X145401Y620261D01*
Y622250D01*
X144640Y624087D01*
X143233Y625494D01*
X141396Y626255D01*
X139406D01*
X137569Y625494D01*
X136614Y624539D01*
X133651D01*
X132383Y624287D01*
X131308Y623568D01*
X124421Y616682D01*
X123703Y615607D01*
X123451Y614338D01*
Y612303D01*
X117378D01*
Y617310D01*
X118303Y618235D01*
X119064Y620073D01*
Y622062D01*
X118303Y623899D01*
X116896Y625306D01*
X115059Y626067D01*
X113070D01*
X111232Y625306D01*
X109825Y623899D01*
X109064Y622062D01*
Y620073D01*
X109825Y618235D01*
X110751Y617310D01*
Y612303D01*
X105792D01*
Y635630D01*
X106718Y636555D01*
X107479Y638393D01*
Y640382D01*
X106718Y642220D01*
X105311Y643626D01*
X103473Y644387D01*
X101484D01*
X99647Y643626D01*
X98240Y642220D01*
X97479Y640382D01*
Y638393D01*
X98240Y636555D01*
X99165Y635630D01*
Y612303D01*
X91779D01*
Y645390D01*
X92704Y646316D01*
X93465Y648153D01*
Y650143D01*
X92704Y651980D01*
X91298Y653387D01*
X89460Y654148D01*
X87471D01*
X85633Y653387D01*
X84227Y651980D01*
X83465Y650143D01*
Y648153D01*
X84227Y646316D01*
X85152Y645390D01*
Y612303D01*
X57604D01*
Y612843D01*
X50667D01*
X50415Y614113D01*
X50777Y614263D01*
X52183Y615670D01*
X52945Y617507D01*
Y619496D01*
X52183Y621334D01*
X50777Y622741D01*
X48939Y623502D01*
X46950D01*
X45112Y622741D01*
X43706Y621334D01*
X42945Y619496D01*
Y617507D01*
X43706Y615670D01*
X45112Y614263D01*
X45475Y614113D01*
X45222Y612843D01*
X43524D01*
Y604073D01*
X50564D01*
Y602803D01*
X51834D01*
Y592763D01*
X56722D01*
X57249Y591493D01*
X54777Y589021D01*
X53893Y587698D01*
X53582Y586137D01*
X53582Y586137D01*
Y583200D01*
X51350D01*
Y569078D01*
X53582D01*
Y559715D01*
X48389D01*
Y560255D01*
X41077D01*
Y552654D01*
Y545053D01*
X48389D01*
Y545593D01*
X51766D01*
Y543110D01*
X46101Y537445D01*
X45217Y536122D01*
X44906Y534561D01*
X44906Y534561D01*
Y532895D01*
X44746Y532734D01*
X43985Y530896D01*
Y528907D01*
X44746Y527070D01*
X46152Y525663D01*
X47990Y524902D01*
X49979D01*
X51817Y525663D01*
X53224Y527070D01*
X53985Y528907D01*
Y530896D01*
X53224Y532734D01*
X53075Y532883D01*
X58728Y538536D01*
X59612Y539859D01*
X59922Y541420D01*
X59922Y541420D01*
Y545593D01*
X63886D01*
Y559715D01*
X61739D01*
Y569078D01*
X63971D01*
Y583200D01*
X61791D01*
X61761Y584470D01*
X65923Y588633D01*
X65924Y588633D01*
X66808Y589956D01*
X67118Y591516D01*
Y593303D01*
X72404D01*
Y549073D01*
Y537686D01*
X71902Y536623D01*
X59902D01*
Y515623D01*
X62181D01*
Y509021D01*
X52274D01*
Y496021D01*
X64274D01*
Y499503D01*
X65239Y499695D01*
X66231Y500358D01*
X67403Y501529D01*
X67403Y501529D01*
X68066Y502522D01*
X68299Y503692D01*
X68298Y503692D01*
Y515623D01*
X71902D01*
Y521778D01*
X73172Y522305D01*
X80457Y515020D01*
X80457Y515020D01*
X81450Y514356D01*
X82620Y514124D01*
X82620Y514124D01*
X88564D01*
Y509804D01*
X91506D01*
Y502902D01*
X86821D01*
Y488780D01*
X102319D01*
Y488240D01*
X109630D01*
Y495841D01*
Y503442D01*
X102319D01*
Y502902D01*
X97623D01*
Y508906D01*
X98521Y509804D01*
X100564Y509804D01*
X101834Y509804D01*
X113064D01*
Y512476D01*
X115076D01*
X116821Y511753D01*
X118811D01*
X120648Y512514D01*
X122055Y513921D01*
X122816Y515758D01*
Y517747D01*
X122055Y519585D01*
X120648Y520992D01*
X118811Y521753D01*
X116821D01*
X114984Y520992D01*
X114625Y520633D01*
X113064D01*
Y523304D01*
X101834D01*
X101064Y523304D01*
X99794Y523304D01*
X88564D01*
Y520241D01*
X83887D01*
X78378Y525750D01*
X77625Y526735D01*
X78288Y527727D01*
X78521Y528898D01*
X78521Y528898D01*
Y546015D01*
X82064D01*
X82131Y545948D01*
X83123Y545285D01*
X84293Y545052D01*
X84294Y545052D01*
X86572D01*
Y544111D01*
X92587D01*
X93074Y542938D01*
X92472Y542336D01*
X91809Y541344D01*
X91576Y540173D01*
X90360Y539880D01*
X88518D01*
Y526381D01*
X100518D01*
Y526380D01*
X101018D01*
Y526381D01*
X113018D01*
Y529568D01*
X114989D01*
X116169Y528388D01*
X118007Y527626D01*
X119996D01*
X121834Y528388D01*
X123240Y529794D01*
X124002Y531632D01*
Y533621D01*
X123240Y535459D01*
X121834Y536865D01*
X119996Y537626D01*
X118007D01*
X116169Y536865D01*
X114989Y535685D01*
X113018D01*
Y539880D01*
X112083D01*
X111596Y541054D01*
X112662Y542120D01*
X113325Y543112D01*
X113524Y544111D01*
X114572D01*
Y550611D01*
Y558052D01*
X119116D01*
X119116Y558052D01*
X120287Y558285D01*
X121279Y558948D01*
X124569Y562238D01*
X125839Y561712D01*
Y558029D01*
X134839D01*
Y562490D01*
X150926D01*
Y557643D01*
X160966D01*
X171006D01*
Y562490D01*
X192414D01*
X193594Y561310D01*
X195431Y560549D01*
X197420D01*
X199258Y561310D01*
X199292Y561344D01*
X200466Y560858D01*
Y549873D01*
X219466D01*
Y562873D01*
X201872D01*
X201167Y563929D01*
X201426Y564554D01*
Y566543D01*
X200855Y567922D01*
X201513Y569192D01*
X229578D01*
X260577Y538194D01*
X261652Y537476D01*
X262920Y537223D01*
X388985D01*
X389911Y536298D01*
X391748Y535537D01*
X393737D01*
X395575Y536298D01*
X396982Y537705D01*
X397743Y539542D01*
Y541531D01*
X396982Y543369D01*
X395575Y544776D01*
X393737Y545537D01*
X391748D01*
X389911Y544776D01*
X388985Y543851D01*
X264292D01*
X233294Y574849D01*
X232219Y575567D01*
X230951Y575819D01*
X171007D01*
X170481Y577089D01*
X171066Y577674D01*
X171827Y579512D01*
Y581501D01*
X171066Y583339D01*
X169659Y584745D01*
X167822Y585506D01*
X165832D01*
X163995Y584745D01*
X162588Y583339D01*
X162453Y583011D01*
X151315D01*
X142778Y591548D01*
Y593303D01*
X174790D01*
Y591464D01*
X173885Y590559D01*
X173124Y588722D01*
Y586732D01*
X173885Y584895D01*
X175292Y583488D01*
X177129Y582727D01*
X179118D01*
X180956Y583488D01*
X182363Y584895D01*
X183124Y586732D01*
Y588722D01*
X182363Y590559D01*
X181458Y591464D01*
Y593303D01*
X187206D01*
Y589962D01*
X187205Y589962D01*
X187438Y588791D01*
X188101Y587799D01*
X189273Y586627D01*
X189273Y586627D01*
X190265Y585964D01*
X191436Y585731D01*
X191436Y585731D01*
X240046D01*
Y582040D01*
X251276D01*
X252045Y582040D01*
X253316Y582040D01*
X264545D01*
Y585476D01*
X270528D01*
X271190Y584814D01*
X273028Y584053D01*
X275017D01*
X276855Y584814D01*
X278261Y586221D01*
X279022Y588059D01*
Y590048D01*
X278261Y591886D01*
X276855Y593292D01*
X275017Y594053D01*
X273028D01*
X271190Y593292D01*
X270002Y592104D01*
X264545D01*
Y595540D01*
X253316D01*
X252546Y595540D01*
X251276Y595540D01*
X240046D01*
Y591849D01*
X193323D01*
Y593303D01*
X222164D01*
Y612303D01*
X218468D01*
Y613888D01*
X736655D01*
X737728Y614102D01*
X738637Y614710D01*
X740634Y616706D01*
X807202D01*
X807454Y615436D01*
X805992Y614831D01*
X804585Y613424D01*
X803824Y611586D01*
Y609597D01*
X804339Y608355D01*
Y605210D01*
X802530D01*
Y593210D01*
X815530D01*
Y593857D01*
X822019D01*
X824709Y591167D01*
X826445Y590007D01*
X828494Y589600D01*
X834151D01*
Y585672D01*
X867213D01*
Y589020D01*
X882710D01*
Y588770D01*
X889750D01*
Y586230D01*
X882710D01*
Y583770D01*
X889750D01*
Y581230D01*
X882710D01*
Y578770D01*
X889750D01*
Y576230D01*
X882710D01*
Y573460D01*
X883450D01*
X883881Y572190D01*
X882822Y571378D01*
X882758Y571294D01*
X881488Y571725D01*
Y572570D01*
X880645Y574607D01*
X879086Y576165D01*
X877218Y576939D01*
Y571469D01*
Y565998D01*
X879086Y566772D01*
X879466Y567151D01*
X880668Y566558D01*
X880595Y566000D01*
X880854Y564032D01*
X881614Y562197D01*
X882822Y560622D01*
X884398Y559414D01*
X886232Y558654D01*
X888200Y558395D01*
X894680D01*
Y566000D01*
X895950D01*
Y567270D01*
X911138D01*
X911046Y567968D01*
X910286Y569803D01*
X910079Y570072D01*
X910641Y571211D01*
X914179D01*
X914346Y570872D01*
X914680Y569941D01*
X913917Y568099D01*
X913808Y567270D01*
X928250D01*
X942692D01*
X942583Y568099D01*
X941820Y569941D01*
X942154Y570872D01*
X942321Y571211D01*
X946365D01*
Y518789D01*
X942321D01*
X942154Y519128D01*
X941820Y520059D01*
X942583Y521901D01*
X942692Y522730D01*
X928250D01*
Y524000D01*
D01*
Y522730D01*
X913808D01*
X913917Y521901D01*
X914680Y520059D01*
X914346Y519128D01*
X914179Y518789D01*
X910641D01*
X910079Y519928D01*
X910286Y520197D01*
X911046Y522032D01*
X911138Y522730D01*
X895950D01*
X880762D01*
X880854Y522032D01*
X881614Y520197D01*
X882822Y518622D01*
X883881Y517810D01*
X883450Y516540D01*
X882710D01*
Y513770D01*
X889750D01*
Y511230D01*
X882710D01*
Y508770D01*
X889750D01*
Y506230D01*
X882710D01*
Y503770D01*
X889750D01*
Y501230D01*
X882710D01*
Y501147D01*
X868838Y501116D01*
X868449Y501038D01*
X868062Y500961D01*
X868060Y500960D01*
X868058Y500960D01*
X867731Y500740D01*
X867401Y500519D01*
X867399Y500517D01*
X867398Y500516D01*
X867179Y500188D01*
X866959Y499858D01*
X866958Y499855D01*
X866957Y499854D01*
X866880Y499462D01*
X866804Y499077D01*
Y491250D01*
X866568Y490962D01*
X864633D01*
X859296Y496299D01*
X859782Y497472D01*
X860572D01*
Y510972D01*
X849342D01*
X848572Y510972D01*
X847302Y510972D01*
X845131D01*
Y513716D01*
X846029Y514614D01*
X848221Y514614D01*
X849491Y514614D01*
X860721D01*
Y518887D01*
X863662D01*
X864842Y517707D01*
X866680Y516946D01*
X868669D01*
X870507Y517707D01*
X871914Y519114D01*
X872675Y520952D01*
Y522941D01*
X871914Y524779D01*
X870507Y526185D01*
X868669Y526946D01*
X866680D01*
X864842Y526185D01*
X863662Y525005D01*
X860721D01*
Y528115D01*
X849491D01*
X848721Y528115D01*
X847451Y528115D01*
X836221D01*
Y514614D01*
X839013D01*
Y510972D01*
X836072D01*
Y497472D01*
X837467D01*
X838288Y496202D01*
X837832Y495102D01*
Y493113D01*
X838593Y491275D01*
X840000Y489869D01*
X841837Y489107D01*
X843826D01*
X845664Y489869D01*
X847071Y491275D01*
X847832Y493113D01*
Y495102D01*
X847376Y496202D01*
X848072Y497472D01*
X849342Y497472D01*
X850620D01*
X851513Y496698D01*
X851746Y495527D01*
X852409Y494535D01*
X859711Y487233D01*
X859225Y486060D01*
X849725D01*
Y481600D01*
X849185D01*
Y478830D01*
X856675D01*
Y476290D01*
X849185D01*
Y473520D01*
X849725D01*
Y469060D01*
X863625D01*
Y469060D01*
X864890Y469048D01*
Y465940D01*
X864957Y465603D01*
X863844Y464690D01*
X863087Y465003D01*
X861098D01*
X859261Y464242D01*
X857854Y462835D01*
X857093Y460998D01*
Y459008D01*
X857854Y457171D01*
X858925Y456100D01*
X858450Y454830D01*
X834151D01*
Y450902D01*
X829125D01*
X828934Y450981D01*
X826944D01*
X826753Y450902D01*
X822607D01*
X821958Y452172D01*
X822549Y453597D01*
X811608D01*
X812382Y451729D01*
X813940Y450170D01*
X815486Y449530D01*
X815906Y448153D01*
X811615Y443862D01*
X810454Y442126D01*
X810047Y440077D01*
Y434303D01*
X808900D01*
Y422303D01*
X821681D01*
X821900Y422303D01*
X823113Y422166D01*
X823249Y421837D01*
X824808Y420279D01*
X826676Y419505D01*
Y424975D01*
Y430446D01*
X824808Y429672D01*
X823249Y428113D01*
X823170Y427922D01*
X821900Y428175D01*
Y434303D01*
X820753D01*
Y437860D01*
X823089Y440196D01*
X834151D01*
Y436268D01*
X867213D01*
Y439002D01*
X882710D01*
Y438770D01*
X889750D01*
Y436230D01*
X882710D01*
Y433770D01*
X889750D01*
Y431230D01*
X882710D01*
Y428770D01*
X889750D01*
Y426230D01*
X882710D01*
Y423460D01*
X883450D01*
X883881Y422190D01*
X882822Y421378D01*
X881614Y419803D01*
X880854Y417968D01*
X880762Y417270D01*
X895950D01*
X911138D01*
X911046Y417968D01*
X910286Y419803D01*
X910079Y420072D01*
X910641Y421211D01*
X914179D01*
X914346Y420872D01*
X914680Y419941D01*
X913917Y418099D01*
X913808Y417270D01*
X928250D01*
X942692D01*
X942583Y418099D01*
X941820Y419941D01*
X942154Y420872D01*
X942321Y421211D01*
X946365D01*
Y408275D01*
X946365Y-12329D01*
Y-15455D01*
X945789Y-18353D01*
X944658Y-21083D01*
X943016Y-23540D01*
X940927Y-25629D01*
X940560Y-25874D01*
X939057Y-26173D01*
X-12181D01*
X-13458Y-26173D01*
X-15962Y-25675D01*
X-18321Y-24698D01*
X-20443Y-23280D01*
X-22249Y-21474D01*
X-23667Y-19352D01*
X-24644Y-16993D01*
X-25142Y-14489D01*
Y-13212D01*
X-25169Y597135D01*
X-24843Y597577D01*
X-23900Y598264D01*
X35664D01*
X36445Y598419D01*
X37106Y598861D01*
X37548Y599523D01*
X37703Y600303D01*
Y780303D01*
X37548Y781083D01*
X37106Y781745D01*
X36445Y782187D01*
X35664Y782342D01*
X-24336D01*
X-25178Y783470D01*
X-25181Y850000D01*
Y851277D01*
X-24683Y853781D01*
X-23706Y856139D01*
X-22287Y858262D01*
X-20482Y860068D01*
X-18359Y861486D01*
X-16000Y862463D01*
X-13496Y862961D01*
X193447D01*
X193700Y861691D01*
X192174Y861059D01*
X190616Y859501D01*
X189842Y857632D01*
X200783D01*
X200009Y859501D01*
X198451Y861059D01*
X196925Y861691D01*
X197178Y862961D01*
X937424D01*
X938470Y862527D01*
D02*
G37*
G36*
X883250Y649000D02*
Y649000D01*
X889924D01*
Y641141D01*
X870321D01*
X867221Y644242D01*
Y648965D01*
X883250Y649000D01*
X883250Y649000D01*
D02*
G37*
G36*
X825189Y625650D02*
X825120Y625485D01*
Y623495D01*
X825172Y623370D01*
X824466Y622314D01*
X744003D01*
X743517Y623487D01*
X746736Y626706D01*
X824483D01*
X825189Y625650D01*
D02*
G37*
G36*
X889701Y598034D02*
Y591059D01*
X850682D01*
Y598846D01*
X888802Y598931D01*
X889701Y598034D01*
D02*
G37*
G36*
X136151Y590176D02*
X136180Y590030D01*
X135988Y589655D01*
X135128Y588857D01*
X135119Y588854D01*
X96183D01*
X94915Y588602D01*
X93840Y587884D01*
X92507Y586550D01*
X91788Y585475D01*
X91536Y584207D01*
Y583571D01*
X88850D01*
Y570071D01*
X88850D01*
X89334Y568902D01*
X88729Y568297D01*
X88011Y567222D01*
X87759Y565954D01*
Y565111D01*
X86572D01*
Y557111D01*
Y551793D01*
X86311Y551658D01*
X85302Y551364D01*
X84501Y551899D01*
X83331Y552132D01*
X83331Y552132D01*
X78521D01*
Y593303D01*
X136151D01*
Y590176D01*
D02*
G37*
G36*
X146273Y570163D02*
X146700Y569878D01*
X146315Y568608D01*
X134839D01*
Y572029D01*
X126658D01*
X125803Y573285D01*
X126115Y574037D01*
Y576026D01*
X125354Y577864D01*
X123947Y579270D01*
X122110Y580032D01*
X120120D01*
X118283Y579270D01*
X116876Y577864D01*
X116115Y576026D01*
Y574037D01*
X116876Y572199D01*
X118283Y570793D01*
X120120Y570032D01*
X122110D01*
X122650Y568881D01*
X122380Y568700D01*
X122380Y568700D01*
X117849Y564170D01*
X114572D01*
Y565111D01*
X106813D01*
X106287Y566381D01*
X107986Y568079D01*
X108649Y569072D01*
X108848Y570071D01*
X113350D01*
Y582227D01*
X134209D01*
X146273Y570163D01*
D02*
G37*
G36*
X883250Y499000D02*
Y499000D01*
X889924D01*
Y491250D01*
X868843D01*
Y499077D01*
X883141Y499109D01*
X883250Y499000D01*
D02*
G37*
G36*
X889924Y448017D02*
Y441042D01*
X858938D01*
Y448847D01*
X889025Y448914D01*
X889924Y448017D01*
D02*
G37*
%LPC*%
G36*
X200783Y855092D02*
X196583D01*
Y850892D01*
X198451Y851666D01*
X200009Y853224D01*
X200783Y855092D01*
D02*
G37*
G36*
X194043D02*
X189842D01*
X190616Y853224D01*
X192174Y851666D01*
X194043Y850892D01*
Y855092D01*
D02*
G37*
G36*
X824940Y860630D02*
X792478D01*
Y845997D01*
X824940D01*
Y860630D01*
D02*
G37*
G36*
X182095Y845752D02*
Y841552D01*
X186296D01*
X185522Y843420D01*
X183964Y844978D01*
X182095Y845752D01*
D02*
G37*
G36*
X179555D02*
X177687Y844978D01*
X176129Y843420D01*
X175355Y841552D01*
X179555D01*
Y845752D01*
D02*
G37*
G36*
X209746Y845363D02*
Y841162D01*
X213946D01*
X213172Y843030D01*
X211614Y844589D01*
X209746Y845363D01*
D02*
G37*
G36*
X207206D02*
X205338Y844589D01*
X203779Y843030D01*
X203006Y841162D01*
X207206D01*
Y845363D01*
D02*
G37*
G36*
X201430Y845409D02*
X196160D01*
Y835639D01*
X201430D01*
Y845409D01*
D02*
G37*
G36*
X193620D02*
X188350D01*
Y835639D01*
X193620D01*
Y845409D01*
D02*
G37*
G36*
X186296Y839012D02*
X182095D01*
Y834811D01*
X183964Y835585D01*
X185522Y837144D01*
X186296Y839012D01*
D02*
G37*
G36*
X179555D02*
X175355D01*
X176129Y837144D01*
X177687Y835585D01*
X179555Y834811D01*
Y839012D01*
D02*
G37*
G36*
X213946Y838622D02*
X209746D01*
Y834422D01*
X211614Y835196D01*
X213172Y836754D01*
X213946Y838622D01*
D02*
G37*
G36*
X207206D02*
X203006D01*
X203779Y836754D01*
X205338Y835196D01*
X207206Y834422D01*
Y838622D01*
D02*
G37*
G36*
X182641Y828928D02*
Y824728D01*
X186841D01*
X186067Y826596D01*
X184509Y828154D01*
X182641Y828928D01*
D02*
G37*
G36*
X180101D02*
X178232Y828154D01*
X176674Y826596D01*
X175900Y824728D01*
X180101D01*
Y828928D01*
D02*
G37*
G36*
X142727Y851953D02*
X140737D01*
X138900Y851192D01*
X137493Y849785D01*
X136732Y847947D01*
Y845958D01*
X137493Y844121D01*
X138828Y842785D01*
Y835599D01*
X125829D01*
Y823598D01*
X139829D01*
Y825458D01*
X145985D01*
Y823475D01*
X159985D01*
Y835475D01*
X146985D01*
Y845778D01*
X146985Y845778D01*
X146732Y847051D01*
Y847947D01*
X145971Y849785D01*
X144564Y851192D01*
X142727Y851953D01*
D02*
G37*
G36*
X201430Y833099D02*
X196160D01*
Y823329D01*
X201430D01*
Y833099D01*
D02*
G37*
G36*
X193620D02*
X188350D01*
Y823329D01*
X193620D01*
Y833099D01*
D02*
G37*
G36*
X546270Y829536D02*
Y821270D01*
X554536D01*
X553890Y823682D01*
X552634Y825858D01*
X550858Y827634D01*
X548682Y828890D01*
X546270Y829536D01*
D02*
G37*
G36*
X543730D02*
X541318Y828890D01*
X539142Y827634D01*
X537366Y825858D01*
X536110Y823682D01*
X535464Y821270D01*
X543730D01*
Y829536D01*
D02*
G37*
G36*
X186841Y822188D02*
X182641D01*
Y817987D01*
X184509Y818761D01*
X186067Y820320D01*
X186841Y822188D01*
D02*
G37*
G36*
X180101D02*
X175900D01*
X176674Y820320D01*
X178232Y818761D01*
X180101Y817987D01*
Y822188D01*
D02*
G37*
G36*
X234890Y844869D02*
X222890D01*
Y836500D01*
X221866D01*
X220695Y836267D01*
X219703Y835604D01*
X219703Y835604D01*
X217927Y833829D01*
X217264Y832836D01*
X217031Y831666D01*
X217031Y831666D01*
Y816235D01*
X211698D01*
Y816775D01*
X204386D01*
Y809174D01*
Y801573D01*
X211698D01*
Y802113D01*
X216189D01*
Y799077D01*
X213501Y796389D01*
X212838Y795397D01*
X212605Y794227D01*
X212605Y794226D01*
Y787303D01*
X155223D01*
Y808475D01*
X159985D01*
Y811104D01*
X165016D01*
X166196Y809924D01*
X168034Y809162D01*
X170023D01*
X171860Y809924D01*
X173267Y811330D01*
X174028Y813168D01*
Y815157D01*
X173267Y816995D01*
X171860Y818401D01*
X170023Y819162D01*
X168034D01*
X166196Y818401D01*
X165016Y817221D01*
X159985D01*
Y820475D01*
X145985D01*
Y808475D01*
X149106D01*
Y787303D01*
X142523D01*
Y794195D01*
X142290Y795365D01*
X141627Y796358D01*
X141627Y796358D01*
X137372Y800613D01*
Y808598D01*
X139829D01*
Y820599D01*
X125829D01*
Y816315D01*
X119225D01*
X118045Y817495D01*
X116208Y818256D01*
X114219D01*
X112381Y817495D01*
X110974Y816089D01*
X110213Y814251D01*
Y812262D01*
X110974Y810424D01*
X112381Y809017D01*
X114219Y808256D01*
X116208D01*
X118045Y809017D01*
X119225Y810198D01*
X125829D01*
Y808598D01*
X131254D01*
Y799346D01*
X131254Y799346D01*
X131487Y798176D01*
X132150Y797183D01*
X136405Y792928D01*
Y787303D01*
X79278D01*
Y791057D01*
X81061Y791796D01*
X82467Y793202D01*
X83229Y795040D01*
Y797029D01*
X82467Y798867D01*
X81061Y800273D01*
X79223Y801034D01*
X77234D01*
X75396Y800273D01*
X73990Y798867D01*
X73229Y797029D01*
Y795040D01*
X73347Y794755D01*
X72903Y794091D01*
X72651Y792823D01*
Y787303D01*
X57604D01*
Y787843D01*
X51834D01*
Y777803D01*
Y767763D01*
X57604D01*
Y768303D01*
X59951D01*
Y762662D01*
X59056Y761767D01*
X58295Y759929D01*
Y757940D01*
X59056Y756102D01*
X60462Y754696D01*
X62300Y753935D01*
X64289D01*
X66127Y754696D01*
X67533Y756102D01*
X68295Y757940D01*
Y759929D01*
X67533Y761767D01*
X66578Y762722D01*
Y768303D01*
X85605D01*
Y757536D01*
X85605Y757536D01*
X85838Y756366D01*
X86501Y755373D01*
X136501Y705374D01*
X137493Y704711D01*
X138663Y704478D01*
X138664Y704478D01*
X359721D01*
X360901Y703298D01*
X362738Y702537D01*
X364728D01*
X366565Y703298D01*
X367972Y704705D01*
X368733Y706543D01*
Y708532D01*
X367972Y710369D01*
X366565Y711776D01*
X364728Y712537D01*
X362738D01*
X360901Y711776D01*
X359721Y710596D01*
X139930D01*
X91723Y758803D01*
Y768303D01*
X98306D01*
Y760629D01*
X98305Y760629D01*
X98538Y759458D01*
X99201Y758466D01*
X142124Y715543D01*
X143116Y714880D01*
X144287Y714647D01*
X144287Y714647D01*
X367120D01*
X368300Y713467D01*
X370138Y712706D01*
X372127D01*
X373965Y713467D01*
X375372Y714874D01*
X376133Y716712D01*
Y718701D01*
X375372Y720538D01*
X373965Y721945D01*
X372127Y722706D01*
X370138D01*
X368300Y721945D01*
X367120Y720765D01*
X145554D01*
X142982Y723336D01*
X143702Y724413D01*
X144793Y723961D01*
X146782D01*
X147369Y724204D01*
X148378Y724004D01*
X686065D01*
X686616Y722759D01*
X683846Y719988D01*
X660012D01*
X659342Y720658D01*
X657504Y721420D01*
X655515D01*
X653677Y720658D01*
X652271Y719252D01*
X651509Y717414D01*
Y715425D01*
X652271Y713587D01*
X653677Y712181D01*
X655515Y711420D01*
X657504D01*
X659342Y712181D01*
X660012Y712851D01*
X685324D01*
X686689Y713123D01*
X687847Y713896D01*
X756965Y783015D01*
X770196D01*
Y780233D01*
X770351Y779453D01*
X770793Y778791D01*
X770839Y777275D01*
X770793Y777230D01*
X770351Y776568D01*
X770196Y775788D01*
Y771978D01*
X770351Y771198D01*
X770793Y770536D01*
X771455Y770094D01*
X772235Y769939D01*
X772727D01*
Y760833D01*
X772206Y759574D01*
Y757585D01*
X772967Y755747D01*
X774373Y754341D01*
X776211Y753579D01*
X778200D01*
X780038Y754341D01*
X781444Y755747D01*
X782205Y757585D01*
Y759574D01*
X781903Y760303D01*
Y769939D01*
X782395D01*
X783176Y770094D01*
X783837Y770536D01*
X784279Y771198D01*
X784434Y771978D01*
Y775788D01*
X784434Y775788D01*
X784279Y776568D01*
X783837Y777230D01*
X783837Y777230D01*
X783792Y777275D01*
X783837Y778791D01*
X784279Y779453D01*
X784434Y780233D01*
X784434Y780233D01*
Y792933D01*
X784279Y793713D01*
X783837Y794375D01*
X783792Y795891D01*
X783837Y795936D01*
X784279Y796598D01*
X784434Y797378D01*
Y801188D01*
X784279Y801968D01*
X783837Y802630D01*
X783176Y803072D01*
X782395Y803227D01*
X779194D01*
Y809280D01*
X782880D01*
Y823280D01*
X768880D01*
Y822846D01*
X767610Y822429D01*
X766090Y823306D01*
X764450Y823746D01*
Y816280D01*
Y808814D01*
X766090Y809254D01*
X767610Y810131D01*
X768880Y809714D01*
Y809280D01*
X772566D01*
Y803227D01*
X772235D01*
X771455Y803072D01*
X770793Y802630D01*
X770351Y801968D01*
X770196Y801188D01*
Y797378D01*
X770196Y797378D01*
X770351Y796598D01*
X770793Y795936D01*
X770793Y795936D01*
X770839Y795891D01*
X770793Y794375D01*
X770351Y793713D01*
X770196Y792933D01*
X770196Y792933D01*
Y790152D01*
X755487D01*
X754846Y790024D01*
X753755Y791046D01*
X753794Y791242D01*
Y810110D01*
X754778Y810679D01*
X755706Y811606D01*
X756952Y811644D01*
X757280Y811517D01*
X758550Y810247D01*
X760270Y809254D01*
X761910Y808814D01*
Y816280D01*
Y823746D01*
X760270Y823306D01*
X758550Y822314D01*
X757280Y821043D01*
X756952Y820916D01*
X755706Y820954D01*
X754778Y821881D01*
X753182Y822803D01*
X751402Y823280D01*
X749558D01*
X747778Y822803D01*
X746182Y821881D01*
X744879Y820578D01*
X744765Y820381D01*
X743495D01*
X743381Y820578D01*
X742078Y821881D01*
X740482Y822803D01*
X738702Y823280D01*
X736858D01*
X735078Y822803D01*
X733482Y821881D01*
X732179Y820578D01*
X732065Y820381D01*
X730795D01*
X730681Y820578D01*
X729378Y821881D01*
X727782Y822803D01*
X726002Y823280D01*
X724158D01*
X722378Y822803D01*
X720782Y821881D01*
X719479Y820578D01*
X719365Y820381D01*
X718095D01*
X717981Y820578D01*
X716678Y821881D01*
X715082Y822803D01*
X713301Y823280D01*
X711458D01*
X709678Y822803D01*
X708082Y821881D01*
X706779Y820578D01*
X706665Y820381D01*
X705395D01*
X705281Y820578D01*
X703978Y821881D01*
X702382Y822803D01*
X700602Y823280D01*
X698758D01*
X696978Y822803D01*
X695382Y821881D01*
X694079Y820578D01*
X693965Y820381D01*
X692695D01*
X692581Y820578D01*
X691278Y821881D01*
X689682Y822803D01*
X687902Y823280D01*
X686059D01*
X684278Y822803D01*
X682682Y821881D01*
X681379Y820578D01*
X680457Y818982D01*
X679980Y817202D01*
Y815358D01*
X680457Y813578D01*
X681379Y811982D01*
X682682Y810679D01*
X684278Y809757D01*
X686059Y809280D01*
X687902D01*
X689682Y809757D01*
X691278Y810679D01*
X692581Y811982D01*
X692695Y812179D01*
X693965D01*
X694079Y811982D01*
X695382Y810679D01*
X696978Y809757D01*
X698758Y809280D01*
X700602D01*
X702382Y809757D01*
X703978Y810679D01*
X705281Y811982D01*
X705395Y812179D01*
X706665D01*
X706779Y811982D01*
X708082Y810679D01*
X709678Y809757D01*
X711458Y809280D01*
X713301D01*
X715082Y809757D01*
X716678Y810679D01*
X717981Y811982D01*
X718095Y812179D01*
X719365D01*
X719479Y811982D01*
X720782Y810679D01*
X722378Y809757D01*
X724158Y809280D01*
X726002D01*
X727782Y809757D01*
X729378Y810679D01*
X730681Y811982D01*
X730795Y812179D01*
X732065D01*
X732179Y811982D01*
X733482Y810679D01*
X734466Y810110D01*
Y790709D01*
X694980Y751223D01*
X391367D01*
X391336Y751296D01*
X389930Y752702D01*
X388092Y753463D01*
X386103D01*
X384265Y752702D01*
X382859Y751296D01*
X382098Y749458D01*
Y747469D01*
X382859Y745631D01*
X384265Y744225D01*
X386103Y743463D01*
X388092D01*
X389930Y744225D01*
X390301Y744595D01*
X696353D01*
X697621Y744848D01*
X698377Y743826D01*
X685182Y730631D01*
X604956D01*
X604108Y731901D01*
X604503Y732856D01*
Y734845D01*
X603742Y736683D01*
X602336Y738090D01*
X600498Y738851D01*
X598509D01*
X596671Y738090D01*
X595809Y737227D01*
X176055D01*
X167166Y746117D01*
Y768303D01*
X175807D01*
Y751169D01*
X174902Y750264D01*
X174141Y748427D01*
Y746437D01*
X174902Y744600D01*
X176308Y743193D01*
X178146Y742432D01*
X180135D01*
X181973Y743193D01*
X183379Y744600D01*
X183873Y745792D01*
X185143Y745539D01*
Y744488D01*
X185905Y742651D01*
X187311Y741244D01*
X189149Y740483D01*
X191138D01*
X192976Y741244D01*
X194382Y742651D01*
X195143Y744488D01*
Y746477D01*
X194382Y748315D01*
X193598Y749099D01*
Y768303D01*
X199651D01*
Y752096D01*
X198527Y750973D01*
X197766Y749135D01*
Y747146D01*
X198527Y745308D01*
X199934Y743901D01*
X201772Y743140D01*
X203761D01*
X205598Y743901D01*
X207005Y745308D01*
X207766Y747146D01*
Y749135D01*
X207005Y750973D01*
X206278Y751700D01*
Y768303D01*
X212605D01*
Y753897D01*
X211425Y752717D01*
X210664Y750879D01*
Y748890D01*
X211425Y747052D01*
X212832Y745646D01*
X214670Y744885D01*
X216659D01*
X218496Y745646D01*
X219903Y747052D01*
X220664Y748890D01*
Y750879D01*
X219903Y752717D01*
X218723Y753897D01*
Y768303D01*
X222164D01*
Y787303D01*
X218723D01*
Y792960D01*
X221411Y795647D01*
X221411Y795647D01*
X222074Y796640D01*
X222307Y797810D01*
X222307Y797810D01*
Y802113D01*
X227196D01*
Y816235D01*
X223149D01*
Y823869D01*
X234890D01*
Y844869D01*
D02*
G37*
G36*
X921773Y848000D02*
X918227D01*
X914750Y847308D01*
X911474Y845951D01*
X908526Y843981D01*
X906019Y841474D01*
X904049Y838526D01*
X902692Y835250D01*
X902000Y831773D01*
Y828227D01*
X902692Y824750D01*
X904049Y821474D01*
X906019Y818526D01*
X908526Y816019D01*
X911474Y814049D01*
X914750Y812692D01*
X918227Y812000D01*
X921773D01*
X925250Y812692D01*
X928526Y814049D01*
X931474Y816019D01*
X933981Y818526D01*
X935951Y821474D01*
X937308Y824750D01*
X938000Y828227D01*
Y831773D01*
X937308Y835250D01*
X935951Y838526D01*
X933981Y841474D01*
X931474Y843981D01*
X928526Y845951D01*
X925250Y847308D01*
X921773Y848000D01*
D02*
G37*
G36*
X1773D02*
X-1773D01*
X-5250Y847308D01*
X-8526Y845951D01*
X-11474Y843981D01*
X-13981Y841474D01*
X-15951Y838526D01*
X-17308Y835250D01*
X-18000Y831773D01*
Y828227D01*
X-17308Y824750D01*
X-15951Y821474D01*
X-13981Y818526D01*
X-11474Y816019D01*
X-8526Y814049D01*
X-5250Y812692D01*
X-1773Y812000D01*
X1773D01*
X5250Y812692D01*
X8526Y814049D01*
X11474Y816019D01*
X13981Y818526D01*
X15951Y821474D01*
X17308Y824750D01*
X18000Y828227D01*
Y831773D01*
X17308Y835250D01*
X15951Y838526D01*
X13981Y841474D01*
X11474Y843981D01*
X8526Y845951D01*
X5250Y847308D01*
X1773Y848000D01*
D02*
G37*
G36*
X183186Y815376D02*
Y811175D01*
X187386D01*
X186612Y813043D01*
X185054Y814602D01*
X183186Y815376D01*
D02*
G37*
G36*
X180646D02*
X178778Y814602D01*
X177219Y813043D01*
X176446Y811175D01*
X180646D01*
Y815376D01*
D02*
G37*
G36*
X629000Y829000D02*
X611000D01*
Y811000D01*
X629000D01*
Y829000D01*
D02*
G37*
G36*
X596185D02*
X593815D01*
X591526Y828387D01*
X589474Y827202D01*
X587798Y825526D01*
X586613Y823474D01*
X586000Y821185D01*
Y818815D01*
X586613Y816526D01*
X587798Y814474D01*
X589474Y812798D01*
X591526Y811613D01*
X593815Y811000D01*
X596185D01*
X598474Y811613D01*
X600526Y812798D01*
X602202Y814474D01*
X603387Y816526D01*
X604000Y818815D01*
Y821185D01*
X603387Y823474D01*
X602202Y825526D01*
X600526Y827202D01*
X598474Y828387D01*
X596185Y829000D01*
D02*
G37*
G36*
X571185D02*
X568815D01*
X566526Y828387D01*
X564474Y827202D01*
X562798Y825526D01*
X561613Y823474D01*
X561000Y821185D01*
Y818815D01*
X561613Y816526D01*
X562798Y814474D01*
X564474Y812798D01*
X566526Y811613D01*
X568815Y811000D01*
X571185D01*
X573474Y811613D01*
X575526Y812798D01*
X577202Y814474D01*
X578387Y816526D01*
X579000Y818815D01*
Y821185D01*
X578387Y823474D01*
X577202Y825526D01*
X575526Y827202D01*
X573474Y828387D01*
X571185Y829000D01*
D02*
G37*
G36*
X554536Y818730D02*
X546270D01*
Y810464D01*
X548682Y811110D01*
X550858Y812366D01*
X552634Y814142D01*
X553890Y816318D01*
X554536Y818730D01*
D02*
G37*
G36*
X543730D02*
X535464D01*
X536110Y816318D01*
X537366Y814142D01*
X539142Y812366D01*
X541318Y811110D01*
X543730Y810464D01*
Y818730D01*
D02*
G37*
G36*
X201846Y816775D02*
X194534D01*
Y810444D01*
X201846D01*
Y816775D01*
D02*
G37*
G36*
X187386Y808635D02*
X183186D01*
Y804435D01*
X185054Y805209D01*
X186612Y806767D01*
X187386Y808635D01*
D02*
G37*
G36*
X180646D02*
X176446D01*
X177219Y806767D01*
X178778Y805209D01*
X180646Y804435D01*
Y808635D01*
D02*
G37*
G36*
X201846Y807904D02*
X194534D01*
Y801573D01*
X201846D01*
Y807904D01*
D02*
G37*
G36*
X239061Y793915D02*
X237071D01*
X235234Y793154D01*
X233827Y791748D01*
X233066Y789910D01*
Y787921D01*
X233827Y786083D01*
X235234Y784677D01*
X237071Y783915D01*
X239061D01*
X240898Y784677D01*
X242305Y786083D01*
X243066Y787921D01*
Y789910D01*
X242305Y791748D01*
X240898Y793154D01*
X239061Y793915D01*
D02*
G37*
G36*
X49294Y787843D02*
X43524D01*
Y779073D01*
X49294D01*
Y787843D01*
D02*
G37*
G36*
X251468Y783769D02*
X249479D01*
X247641Y783007D01*
X246235Y781601D01*
X245473Y779763D01*
Y777774D01*
X246235Y775936D01*
X247641Y774530D01*
X249479Y773769D01*
X251468D01*
X253306Y774530D01*
X254712Y775936D01*
X255473Y777774D01*
Y779763D01*
X254712Y781601D01*
X253306Y783007D01*
X251468Y783769D01*
D02*
G37*
G36*
X700764Y780933D02*
X698775D01*
X696937Y780172D01*
X695531Y778766D01*
X694770Y776928D01*
Y774939D01*
X695531Y773101D01*
X696937Y771694D01*
X698775Y770933D01*
X700764D01*
X702602Y771694D01*
X704008Y773101D01*
X704770Y774939D01*
Y776928D01*
X704008Y778766D01*
X702602Y780172D01*
X700764Y780933D01*
D02*
G37*
G36*
X49294Y776533D02*
X43524D01*
Y767763D01*
X49294D01*
Y776533D01*
D02*
G37*
G36*
X81074Y753094D02*
X79085D01*
X77248Y752333D01*
X75841Y750926D01*
X75080Y749089D01*
Y747100D01*
X75841Y745262D01*
X77248Y743855D01*
X79085Y743094D01*
X81074D01*
X82912Y743855D01*
X84319Y745262D01*
X85080Y747100D01*
Y749089D01*
X84319Y750926D01*
X82912Y752333D01*
X81074Y753094D01*
D02*
G37*
G36*
X126804Y694293D02*
X121534D01*
Y689023D01*
X126804D01*
Y694293D01*
D02*
G37*
G36*
X93994D02*
X88724D01*
Y689023D01*
X93994D01*
Y694293D01*
D02*
G37*
G36*
X118994D02*
X109034D01*
Y687753D01*
X106494D01*
Y694293D01*
X96534D01*
Y687753D01*
X95264D01*
Y686483D01*
X88724D01*
Y681213D01*
Y676523D01*
X95264D01*
Y673983D01*
X88724D01*
Y668713D01*
Y664023D01*
X95264D01*
Y662753D01*
X96534D01*
Y656213D01*
X106494D01*
Y662753D01*
X109034D01*
Y656213D01*
X118994D01*
Y662753D01*
X120264D01*
Y664023D01*
X126804D01*
Y668713D01*
Y673983D01*
X120264D01*
Y676523D01*
X126804D01*
Y681213D01*
Y686483D01*
X120264D01*
Y687753D01*
X118994D01*
Y694293D01*
D02*
G37*
G36*
X934750Y682109D02*
X929520D01*
Y675270D01*
X942692D01*
X942583Y676099D01*
X941773Y678055D01*
X940484Y679734D01*
X938805Y681023D01*
X936849Y681833D01*
X934750Y682109D01*
D02*
G37*
G36*
X926980D02*
X921750D01*
X919651Y681833D01*
X917695Y681023D01*
X916016Y679734D01*
X914727Y678055D01*
X913917Y676099D01*
X913808Y675270D01*
X926980D01*
Y682109D01*
D02*
G37*
G36*
X903700Y681605D02*
X897220D01*
Y675270D01*
X911138D01*
X911046Y675968D01*
X910286Y677803D01*
X909078Y679378D01*
X907503Y680586D01*
X905668Y681346D01*
X903700Y681605D01*
D02*
G37*
G36*
X894680D02*
X888200D01*
X886232Y681346D01*
X884398Y680586D01*
X882822Y679378D01*
X881614Y677803D01*
X880854Y675968D01*
X880762Y675270D01*
X894680D01*
Y681605D01*
D02*
G37*
G36*
X202448Y672004D02*
X200459D01*
X198622Y671243D01*
X197215Y669836D01*
X196454Y667998D01*
Y666009D01*
X197215Y664172D01*
X198622Y662765D01*
X200459Y662004D01*
X202448D01*
X204286Y662765D01*
X205693Y664172D01*
X206454Y666009D01*
Y667998D01*
X205693Y669836D01*
X204286Y671243D01*
X202448Y672004D01*
D02*
G37*
G36*
X347038Y668697D02*
X345048D01*
X343211Y667935D01*
X341804Y666529D01*
X341043Y664691D01*
Y662702D01*
X341804Y660864D01*
X343211Y659458D01*
X345048Y658697D01*
X347038D01*
X348875Y659458D01*
X350282Y660864D01*
X351043Y662702D01*
Y664691D01*
X350282Y666529D01*
X348875Y667935D01*
X347038Y668697D01*
D02*
G37*
G36*
X126804Y661483D02*
X121534D01*
Y656213D01*
X126804D01*
Y661483D01*
D02*
G37*
G36*
X93994D02*
X88724D01*
Y656213D01*
X93994D01*
Y661483D01*
D02*
G37*
G36*
X239432Y653638D02*
X237443D01*
X235605Y652877D01*
X234199Y651470D01*
X233438Y649632D01*
Y647643D01*
X234199Y645806D01*
X235605Y644399D01*
X237443Y643638D01*
X239432D01*
X241270Y644399D01*
X242676Y645806D01*
X243437Y647643D01*
Y649632D01*
X242676Y651470D01*
X241270Y652877D01*
X239432Y653638D01*
D02*
G37*
G36*
X246716Y644249D02*
X244727D01*
X242890Y643488D01*
X241483Y642081D01*
X240722Y640244D01*
Y638254D01*
X241483Y636417D01*
X242890Y635010D01*
X244727Y634249D01*
X246716D01*
X248554Y635010D01*
X249961Y636417D01*
X250722Y638254D01*
Y640244D01*
X249961Y642081D01*
X248554Y643488D01*
X246716Y644249D01*
D02*
G37*
G36*
X324725Y645489D02*
X322736D01*
X320899Y644728D01*
X319492Y643321D01*
X318731Y641483D01*
Y639494D01*
X319492Y637657D01*
X320899Y636250D01*
X322736Y635489D01*
X324725D01*
X326563Y636250D01*
X327488Y637175D01*
X561185D01*
X563838Y634522D01*
Y633214D01*
X564599Y631376D01*
X566005Y629970D01*
X567843Y629208D01*
X569832D01*
X571670Y629970D01*
X573076Y631376D01*
X573838Y633214D01*
Y635203D01*
X573076Y637041D01*
X571670Y638447D01*
X569832Y639208D01*
X568524D01*
X564900Y642832D01*
X563825Y643550D01*
X562557Y643802D01*
X327488D01*
X326563Y644728D01*
X324725Y645489D01*
D02*
G37*
G36*
X387711Y634499D02*
X385722D01*
X383885Y633738D01*
X382478Y632331D01*
X381717Y630494D01*
Y628504D01*
X382478Y626667D01*
X383885Y625260D01*
X385722Y624499D01*
X387711D01*
X389549Y625260D01*
X390956Y626667D01*
X391717Y628504D01*
Y630494D01*
X390956Y632331D01*
X389549Y633738D01*
X387711Y634499D01*
D02*
G37*
G36*
X393208Y608875D02*
X391219D01*
X389381Y608114D01*
X387975Y606707D01*
X387213Y604870D01*
Y602881D01*
X387975Y601043D01*
X388773Y600245D01*
X388247Y598975D01*
X383349D01*
Y599055D01*
X382588Y600893D01*
X381181Y602300D01*
X379343Y603061D01*
X377354D01*
X375517Y602300D01*
X374110Y600893D01*
X373349Y599055D01*
Y597066D01*
X373686Y596253D01*
X372837Y594983D01*
X368483D01*
X367303Y596163D01*
X365465Y596924D01*
X363476D01*
X361638Y596163D01*
X360232Y594756D01*
X359470Y592919D01*
Y590929D01*
X360232Y589092D01*
X361638Y587685D01*
X362743Y587228D01*
X362491Y585957D01*
X345887D01*
X333691Y598153D01*
Y599461D01*
X332930Y601299D01*
X331524Y602706D01*
X329686Y603467D01*
X327697D01*
X325859Y602706D01*
X324453Y601299D01*
X323691Y599461D01*
Y597472D01*
X324453Y595634D01*
X325859Y594228D01*
X327697Y593467D01*
X329005D01*
X342171Y580301D01*
X343246Y579582D01*
X344514Y579330D01*
X445397D01*
X446322Y578405D01*
X448160Y577644D01*
X450149D01*
X451987Y578405D01*
X453393Y579812D01*
X454155Y581649D01*
Y583638D01*
X453689Y584761D01*
X454766Y585481D01*
X552185Y488062D01*
X551806Y486645D01*
X550556Y486127D01*
X549689Y485261D01*
X547969D01*
Y486465D01*
X533969D01*
Y477465D01*
X547969D01*
Y478593D01*
X549613D01*
X550556Y477650D01*
X552393Y476889D01*
X553673D01*
X562787Y467774D01*
Y255503D01*
X561621D01*
Y241503D01*
X570621D01*
Y255503D01*
X569455D01*
Y468996D01*
X569832Y469288D01*
X570665Y469582D01*
X576717Y463530D01*
X576717Y463530D01*
X577709Y462867D01*
X578880Y462634D01*
X578880Y462634D01*
X627403D01*
X651227Y438810D01*
X651227Y438810D01*
X652219Y438147D01*
X653390Y437914D01*
X692773D01*
X693064Y436644D01*
X691178Y435555D01*
X689409Y433787D01*
X688158Y431620D01*
X687511Y429204D01*
Y426703D01*
X688158Y424287D01*
X689409Y422120D01*
X691178Y420352D01*
X693344Y419101D01*
X695760Y418453D01*
X698262D01*
X700678Y419101D01*
X702844Y420352D01*
X704613Y422120D01*
X705864Y424287D01*
X706511Y426703D01*
Y429204D01*
X705864Y431620D01*
X704613Y433787D01*
X702844Y435555D01*
X701802Y436157D01*
X701637Y437416D01*
X703031Y438810D01*
X703031Y438810D01*
X707551Y443330D01*
X707551Y443330D01*
X708214Y444322D01*
X708447Y445493D01*
X708447Y445493D01*
Y451563D01*
X710618D01*
Y458353D01*
X713158D01*
Y451563D01*
X716178D01*
Y452103D01*
X722138D01*
Y464353D01*
X734388D01*
Y465044D01*
X738280D01*
X748899Y454425D01*
Y452699D01*
X748291Y452536D01*
X746125Y451285D01*
X744356Y449516D01*
X743105Y447350D01*
X742458Y444934D01*
Y442433D01*
X743105Y440016D01*
X744356Y437850D01*
X746125Y436081D01*
X748291Y434831D01*
X750707Y434183D01*
X753208D01*
X755625Y434831D01*
X757791Y436081D01*
X759560Y437850D01*
X760810Y440016D01*
X761458Y442433D01*
Y444934D01*
X760810Y447350D01*
X759560Y449516D01*
X757791Y451285D01*
X755625Y452536D01*
X755016Y452699D01*
Y455692D01*
X755016Y455692D01*
X754784Y456862D01*
X754121Y457855D01*
X754121Y457855D01*
X741710Y470266D01*
X741697Y470274D01*
X742083Y471544D01*
X747142D01*
X752678Y466008D01*
X752678Y466008D01*
X753670Y465345D01*
X754841Y465112D01*
X782508D01*
Y461360D01*
X786232D01*
Y457882D01*
X783531D01*
Y444381D01*
X795445Y444381D01*
X796491Y443842D01*
X797077Y443842D01*
X802011D01*
Y451132D01*
Y458422D01*
X796491D01*
X795445Y457882D01*
X792349Y457882D01*
Y461360D01*
X796073D01*
Y474982D01*
X782508D01*
Y471230D01*
X756108D01*
X750572Y476766D01*
X749917Y477203D01*
X749792Y478351D01*
X749862Y478651D01*
X750294Y478940D01*
X755621Y484267D01*
X782683D01*
Y480656D01*
X796248D01*
Y494277D01*
X792525D01*
Y497237D01*
X793423Y498135D01*
X794671Y498135D01*
X795717Y497595D01*
X796303Y497595D01*
X801237D01*
Y504885D01*
Y512175D01*
X795717D01*
X794671Y511635D01*
X794447Y511635D01*
X783825D01*
X783025Y511635D01*
X782955Y511676D01*
X782038Y512427D01*
X781919Y513606D01*
Y514489D01*
X781076Y516525D01*
X779517Y518083D01*
X777649Y518857D01*
Y513387D01*
Y507916D01*
X779517Y508690D01*
X781076Y510249D01*
X781487Y511242D01*
X782713Y510998D01*
X782757Y510835D01*
X782757Y510488D01*
X782757Y510488D01*
X782757Y510476D01*
Y498135D01*
X786407D01*
Y494277D01*
X782683D01*
Y490385D01*
X754354D01*
X754354Y490385D01*
X753183Y490152D01*
X752191Y489489D01*
X746864Y484162D01*
X734388D01*
Y491353D01*
X731706D01*
Y492464D01*
X731435Y493830D01*
X730661Y494988D01*
X730602Y495047D01*
X739679Y504124D01*
X740453Y505282D01*
X740724Y506648D01*
Y510187D01*
X746201D01*
Y506674D01*
X757661D01*
Y506134D01*
X762681D01*
Y513174D01*
X765221D01*
Y506134D01*
X770241D01*
Y510410D01*
X771511Y510663D01*
X771683Y510249D01*
X773241Y508690D01*
X775109Y507916D01*
Y513387D01*
Y518857D01*
X773241Y518083D01*
X771683Y516525D01*
X771511Y516110D01*
X770241Y516363D01*
Y520214D01*
X766778D01*
X766252Y521484D01*
X767333Y522565D01*
X768107Y524433D01*
X757166D01*
X757940Y522565D01*
X759021Y521484D01*
X758495Y520214D01*
X757661D01*
Y519674D01*
X746201D01*
Y517324D01*
X740658D01*
X739988Y517994D01*
X738150Y518755D01*
X737036D01*
X736621Y518755D01*
X736270Y519880D01*
X736270Y520855D01*
Y531359D01*
X736810D01*
Y536911D01*
X729979D01*
X723148D01*
Y531359D01*
X723688D01*
Y519880D01*
X724536D01*
X725022Y518707D01*
X722176Y515861D01*
X715884D01*
X715516Y516228D01*
X715394Y516279D01*
Y521130D01*
X718581D01*
Y532590D01*
X719121D01*
Y537610D01*
X712081D01*
X705041D01*
Y535715D01*
X703867Y535229D01*
X703725Y535372D01*
X701857Y536146D01*
Y530675D01*
X700587D01*
Y529405D01*
X694935D01*
X694553Y528835D01*
X684032D01*
Y516835D01*
X696032D01*
Y517850D01*
X697206Y518335D01*
X702329Y513212D01*
Y503603D01*
X695138D01*
Y491893D01*
X690408D01*
Y487603D01*
X689138D01*
Y486333D01*
X682348D01*
Y484417D01*
X680956D01*
X680281Y485687D01*
X680840Y487036D01*
Y489025D01*
X680079Y490863D01*
X678672Y492270D01*
X676835Y493031D01*
X674846D01*
X673008Y492270D01*
X672083Y491345D01*
X593402D01*
X578323Y506424D01*
Y506706D01*
X577562Y508544D01*
X576155Y509950D01*
X574318Y510711D01*
X572328D01*
X570491Y509950D01*
X569084Y508544D01*
X568323Y506706D01*
Y504717D01*
X569084Y502879D01*
X570491Y501473D01*
X572328Y500711D01*
X574318D01*
X574562Y500812D01*
X589687Y485688D01*
X589688Y485687D01*
X589303Y484417D01*
X584487D01*
X462685Y606218D01*
X461610Y606936D01*
X460342Y607189D01*
X395971D01*
X395046Y608114D01*
X393208Y608875D01*
D02*
G37*
G36*
X49294Y601533D02*
X43524D01*
Y592763D01*
X49294D01*
Y601533D01*
D02*
G37*
G36*
X529703Y597053D02*
X524433D01*
Y591283D01*
X529703D01*
Y597053D01*
D02*
G37*
G36*
X521893D02*
X516623D01*
Y591283D01*
X521893D01*
Y597053D01*
D02*
G37*
G36*
X529703Y588743D02*
X524433D01*
Y582973D01*
X529703D01*
Y588743D01*
D02*
G37*
G36*
X521893D02*
X516623D01*
Y582973D01*
X521893D01*
Y588743D01*
D02*
G37*
G36*
X591790Y587914D02*
X586020D01*
Y582644D01*
X591790D01*
Y587914D01*
D02*
G37*
G36*
X583480D02*
X577710D01*
Y582644D01*
X583480D01*
Y587914D01*
D02*
G37*
G36*
X20861Y582813D02*
Y578613D01*
X25062D01*
X24288Y580481D01*
X22729Y582039D01*
X20861Y582813D01*
D02*
G37*
G36*
X18321D02*
X16453Y582039D01*
X14895Y580481D01*
X14121Y578613D01*
X18321D01*
Y582813D01*
D02*
G37*
G36*
X45011Y583740D02*
X39431D01*
Y577409D01*
X45011D01*
Y583740D01*
D02*
G37*
G36*
X36891D02*
X31310D01*
Y577409D01*
X36891D01*
Y583740D01*
D02*
G37*
G36*
X638190Y580098D02*
X630878D01*
Y573768D01*
X638190D01*
Y580098D01*
D02*
G37*
G36*
X711396Y607118D02*
X564733D01*
X562490Y606671D01*
X560588Y605401D01*
X552975Y597788D01*
X551704Y595886D01*
X551257Y593642D01*
Y572952D01*
X551002Y572743D01*
X547316D01*
Y575215D01*
X542751D01*
Y583513D01*
X544163D01*
Y596513D01*
X532163D01*
Y583513D01*
X533575D01*
Y575215D01*
X531818D01*
Y575755D01*
X524506D01*
Y568155D01*
Y560554D01*
X531818D01*
Y561094D01*
X547316D01*
Y563566D01*
X549102D01*
X551413Y561255D01*
X551704Y559793D01*
X552975Y557891D01*
X553129Y557788D01*
X552744Y556518D01*
X551810D01*
Y547558D01*
X551270D01*
Y543288D01*
X559560D01*
Y540748D01*
X551270D01*
Y536478D01*
X551810D01*
Y527518D01*
X567310D01*
Y529459D01*
X571552D01*
X571552Y529459D01*
X572723Y529692D01*
X573715Y530355D01*
X574886Y531526D01*
X574887Y531526D01*
X575550Y532519D01*
X576810Y532345D01*
Y527518D01*
X592310D01*
Y537518D01*
X577052D01*
X576810Y537518D01*
X575782Y538103D01*
Y541424D01*
X577052Y541809D01*
X577088Y541755D01*
X577750Y541313D01*
X578530Y541158D01*
X603885D01*
X604425Y540715D01*
Y539087D01*
X627298D01*
Y528758D01*
X623063D01*
Y514637D01*
X637650D01*
Y528758D01*
X633416D01*
Y539087D01*
X637487D01*
Y541307D01*
X645345D01*
X647172Y541548D01*
X648875Y542253D01*
X650337Y543375D01*
X660958Y553996D01*
X662080Y555458D01*
X662785Y557161D01*
X663026Y558988D01*
Y569891D01*
X663568Y570433D01*
X664818Y572599D01*
X665466Y575015D01*
Y577516D01*
X664818Y579933D01*
X663568Y582099D01*
X661799Y583868D01*
X659633Y585118D01*
X657216Y585766D01*
X654715D01*
X652299Y585118D01*
X650133Y583868D01*
X648364Y582099D01*
X647113Y579933D01*
X646466Y577516D01*
Y575015D01*
X647113Y572599D01*
X648364Y570433D01*
X648905Y569891D01*
Y561913D01*
X642421Y555428D01*
X637487D01*
Y557649D01*
X618998D01*
X618555Y558189D01*
Y564897D01*
X618998Y565437D01*
X621026D01*
Y564897D01*
X628339D01*
Y572498D01*
Y580098D01*
X621026D01*
Y579558D01*
X605529D01*
Y578678D01*
X604989Y578234D01*
X591790D01*
X591250Y578678D01*
Y580184D01*
X578250D01*
Y569627D01*
X577750Y569528D01*
X577088Y569086D01*
X576646Y568424D01*
X576491Y567644D01*
Y557058D01*
X576646Y556277D01*
X576810Y556032D01*
Y549691D01*
X575550Y549517D01*
X574887Y550509D01*
X574886Y550509D01*
X573715Y551681D01*
X572723Y552344D01*
X571552Y552577D01*
X571552Y552576D01*
X567310D01*
Y556518D01*
X564656D01*
Y559089D01*
X564307Y560845D01*
X563312Y562333D01*
X562983Y562663D01*
Y591214D01*
X567161Y595392D01*
X577710D01*
Y590454D01*
X584750D01*
X591790D01*
Y595392D01*
X708968D01*
X741427Y562933D01*
X740861Y561703D01*
X739127D01*
X737091Y560859D01*
X735532Y559301D01*
X734759Y557433D01*
X745699D01*
X744926Y559301D01*
X744829Y559397D01*
X745455Y560568D01*
X746411Y560377D01*
X808289D01*
X810533Y560824D01*
X812435Y562094D01*
X812480Y562162D01*
X820725D01*
X820725Y562162D01*
X822286Y562472D01*
X823609Y563356D01*
X827310Y567058D01*
X836331D01*
Y564076D01*
X848952D01*
Y578197D01*
X836331D01*
Y575215D01*
X825621D01*
X825621Y575215D01*
X824060Y574904D01*
X822737Y574020D01*
X819035Y570318D01*
X815530D01*
Y582210D01*
X802530D01*
Y572103D01*
X748839D01*
X715542Y605400D01*
X713640Y606671D01*
X711396Y607118D01*
D02*
G37*
G36*
X874678Y576939D02*
X872810Y576165D01*
X871252Y574607D01*
X870478Y572738D01*
X874678D01*
Y576939D01*
D02*
G37*
G36*
X868992Y578737D02*
X863411D01*
Y572406D01*
X868992D01*
Y578737D01*
D02*
G37*
G36*
X860871D02*
X855291D01*
Y572406D01*
X860871D01*
Y578737D01*
D02*
G37*
G36*
X25062Y576073D02*
X20861D01*
Y571872D01*
X22729Y572646D01*
X24288Y574205D01*
X25062Y576073D01*
D02*
G37*
G36*
X18321D02*
X14121D01*
X14895Y574205D01*
X16453Y572646D01*
X18321Y571872D01*
Y576073D01*
D02*
G37*
G36*
X521967Y575755D02*
X514654D01*
Y569425D01*
X521967D01*
Y575755D01*
D02*
G37*
G36*
X45011Y574869D02*
X39431D01*
Y568538D01*
X45011D01*
Y574869D01*
D02*
G37*
G36*
X36891D02*
X31310D01*
Y568538D01*
X36891D01*
Y574869D01*
D02*
G37*
G36*
X874678Y570199D02*
X870478D01*
X871252Y568330D01*
X872810Y566772D01*
X874678Y565998D01*
Y570199D01*
D02*
G37*
G36*
X21085Y569514D02*
Y565313D01*
X25285D01*
X24511Y567182D01*
X22953Y568740D01*
X21085Y569514D01*
D02*
G37*
G36*
X18545D02*
X16677Y568740D01*
X15118Y567182D01*
X14345Y565313D01*
X18545D01*
Y569514D01*
D02*
G37*
G36*
X638190Y571228D02*
X630878D01*
Y564897D01*
X638190D01*
Y571228D01*
D02*
G37*
G36*
X868992Y569866D02*
X863411D01*
Y563536D01*
X868992D01*
Y569866D01*
D02*
G37*
G36*
X860871D02*
X855291D01*
Y563536D01*
X860871D01*
Y569866D01*
D02*
G37*
G36*
X228607Y565207D02*
Y561007D01*
X232808D01*
X232034Y562875D01*
X230476Y564434D01*
X228607Y565207D01*
D02*
G37*
G36*
X226067D02*
X224199Y564434D01*
X222641Y562875D01*
X221867Y561007D01*
X226067D01*
Y565207D01*
D02*
G37*
G36*
X521967Y566885D02*
X514654D01*
Y560554D01*
X521967D01*
Y566885D01*
D02*
G37*
G36*
X25285Y562773D02*
X21085D01*
Y558573D01*
X22953Y559347D01*
X24511Y560905D01*
X25285Y562773D01*
D02*
G37*
G36*
X18545D02*
X14345D01*
X15118Y560905D01*
X16677Y559347D01*
X18545Y558573D01*
Y562773D01*
D02*
G37*
G36*
X911138Y564730D02*
X897220D01*
Y558395D01*
X903700D01*
X905668Y558654D01*
X907503Y559414D01*
X909078Y560622D01*
X910286Y562197D01*
X911046Y564032D01*
X911138Y564730D01*
D02*
G37*
G36*
X942692Y564730D02*
X929520D01*
Y557891D01*
X934750D01*
X936849Y558167D01*
X938805Y558977D01*
X940484Y560266D01*
X941773Y561945D01*
X942583Y563901D01*
X942692Y564730D01*
D02*
G37*
G36*
X926980D02*
X913808D01*
X913917Y563901D01*
X914727Y561945D01*
X916016Y560266D01*
X917695Y558977D01*
X919651Y558167D01*
X921750Y557891D01*
X926980D01*
Y564730D01*
D02*
G37*
G36*
X232808Y558467D02*
X228607D01*
Y554267D01*
X230476Y555040D01*
X232034Y556599D01*
X232808Y558467D01*
D02*
G37*
G36*
X226067D02*
X221867D01*
X222641Y556599D01*
X224199Y555040D01*
X226067Y554267D01*
Y558467D01*
D02*
G37*
G36*
X38537Y560255D02*
X31225D01*
Y553924D01*
X38537D01*
Y560255D01*
D02*
G37*
G36*
X848826Y557751D02*
Y553551D01*
X853026D01*
X852252Y555419D01*
X850694Y556977D01*
X848826Y557751D01*
D02*
G37*
G36*
X846286D02*
X844417Y556977D01*
X842859Y555419D01*
X842085Y553551D01*
X846286D01*
Y557751D01*
D02*
G37*
G36*
X863994Y557103D02*
Y552902D01*
X868195D01*
X867421Y554771D01*
X865862Y556329D01*
X863994Y557103D01*
D02*
G37*
G36*
X861454D02*
X859586Y556329D01*
X858027Y554771D01*
X857254Y552902D01*
X861454D01*
Y557103D01*
D02*
G37*
G36*
X19520Y554985D02*
Y550785D01*
X23721D01*
X22947Y552653D01*
X21388Y554211D01*
X19520Y554985D01*
D02*
G37*
G36*
X16980D02*
X15112Y554211D01*
X13554Y552653D01*
X12780Y550785D01*
X16980D01*
Y554985D01*
D02*
G37*
G36*
X738959Y554893D02*
X734759D01*
X735532Y553025D01*
X737091Y551466D01*
X738959Y550692D01*
Y554893D01*
D02*
G37*
G36*
X748755Y552881D02*
Y548680D01*
X752956D01*
X752182Y550548D01*
X750624Y552107D01*
X748755Y552881D01*
D02*
G37*
G36*
X745699Y554893D02*
X741499D01*
Y550650D01*
X742441Y549708D01*
X742015Y548680D01*
X746215D01*
Y552923D01*
X745274Y553865D01*
X745699Y554893D01*
D02*
G37*
G36*
X853026Y551011D02*
X848826D01*
Y546810D01*
X850694Y547584D01*
X852252Y549143D01*
X853026Y551011D01*
D02*
G37*
G36*
X846286D02*
X842085D01*
X842859Y549143D01*
X844417Y547584D01*
X846286Y546810D01*
Y551011D01*
D02*
G37*
G36*
X689790Y565241D02*
X687801D01*
X685963Y564479D01*
X684557Y563073D01*
X683795Y561235D01*
Y559246D01*
X684016Y558714D01*
Y547288D01*
X683118Y546390D01*
X681823Y546390D01*
X680553Y546390D01*
X669323D01*
Y532890D01*
X671973D01*
Y528835D01*
X669032D01*
Y516835D01*
X681032D01*
Y528835D01*
X678091D01*
Y531992D01*
X678989Y532890D01*
X681323Y532890D01*
X682593Y532890D01*
X693823D01*
Y546390D01*
X693192D01*
Y557790D01*
X693795Y559246D01*
Y561235D01*
X693034Y563073D01*
X691628Y564479D01*
X689790Y565241D01*
D02*
G37*
G36*
X868195Y550363D02*
X863994D01*
Y546162D01*
X865862Y546936D01*
X867421Y548494D01*
X868195Y550363D01*
D02*
G37*
G36*
X861454D02*
X857254D01*
X858027Y548494D01*
X859586Y546936D01*
X861454Y546162D01*
Y550363D01*
D02*
G37*
G36*
X38537Y551384D02*
X31225D01*
Y545053D01*
X38537D01*
Y551384D01*
D02*
G37*
G36*
X171006Y555103D02*
X160966D01*
X150926D01*
Y549333D01*
X157828D01*
X158080Y548063D01*
X157953Y548010D01*
X156395Y546452D01*
X155621Y544584D01*
X166562D01*
X165788Y546452D01*
X164230Y548010D01*
X164103Y548063D01*
X164355Y549333D01*
X171006D01*
Y555103D01*
D02*
G37*
G36*
X23721Y548245D02*
X19520D01*
Y544044D01*
X21388Y544818D01*
X22947Y546377D01*
X23721Y548245D01*
D02*
G37*
G36*
X16980D02*
X12780D01*
X13554Y546377D01*
X15112Y544818D01*
X16980Y544044D01*
Y548245D01*
D02*
G37*
G36*
X241884Y550726D02*
X235553D01*
Y543414D01*
X241884D01*
Y550726D01*
D02*
G37*
G36*
X233013D02*
X226683D01*
Y543414D01*
X233013D01*
Y550726D01*
D02*
G37*
G36*
X752956Y546140D02*
X748755D01*
Y541940D01*
X750624Y542714D01*
X752182Y544272D01*
X752956Y546140D01*
D02*
G37*
G36*
X746215D02*
X742015D01*
X742789Y544272D01*
X744347Y542714D01*
X746215Y541940D01*
Y546140D01*
D02*
G37*
G36*
X719121Y545170D02*
X713351D01*
Y540150D01*
X719121D01*
Y545170D01*
D02*
G37*
G36*
X710811D02*
X705041D01*
Y540150D01*
X710811D01*
Y545170D01*
D02*
G37*
G36*
X736810Y545002D02*
X731249D01*
Y539451D01*
X736810D01*
Y545002D01*
D02*
G37*
G36*
X728709D02*
X723148D01*
Y539451D01*
X728709D01*
Y545002D01*
D02*
G37*
G36*
X166562Y542044D02*
X162362D01*
Y537843D01*
X164230Y538617D01*
X165788Y540176D01*
X166562Y542044D01*
D02*
G37*
G36*
X159822D02*
X155621D01*
X156395Y540176D01*
X157953Y538617D01*
X159822Y537843D01*
Y542044D01*
D02*
G37*
G36*
X699317Y536146D02*
X697449Y535372D01*
X695890Y533813D01*
X695117Y531945D01*
X699317D01*
Y536146D01*
D02*
G37*
G36*
X241884Y540873D02*
X234283D01*
X226683D01*
Y533562D01*
X227223D01*
Y528428D01*
X219466D01*
Y529873D01*
X200466D01*
Y516873D01*
X219466D01*
Y521800D01*
X227223D01*
Y518064D01*
X241344D01*
Y522793D01*
X247927D01*
X247976Y522744D01*
Y522383D01*
X248737Y520545D01*
X250144Y519139D01*
X251981Y518377D01*
X253970D01*
X255808Y519139D01*
X257215Y520545D01*
X257976Y522383D01*
Y524372D01*
X257215Y526210D01*
X255808Y527616D01*
X253970Y528377D01*
X251981D01*
X251793Y528299D01*
X251643Y528449D01*
X250568Y529168D01*
X249300Y529420D01*
X241344D01*
Y533562D01*
X241884D01*
Y540873D01*
D02*
G37*
G36*
X18987Y532093D02*
Y527892D01*
X23188D01*
X22414Y529761D01*
X20855Y531319D01*
X18987Y532093D01*
D02*
G37*
G36*
X16447D02*
X14579Y531319D01*
X13021Y529761D01*
X12247Y527892D01*
X16447D01*
Y532093D01*
D02*
G37*
G36*
X38442Y537163D02*
X33172D01*
Y527393D01*
X38442D01*
Y537163D01*
D02*
G37*
G36*
X30632D02*
X25362D01*
Y527393D01*
X30632D01*
Y537163D01*
D02*
G37*
G36*
X763906Y531174D02*
Y526973D01*
X768107D01*
X767333Y528841D01*
X765775Y530400D01*
X763906Y531174D01*
D02*
G37*
G36*
X761367D02*
X759498Y530400D01*
X757940Y528841D01*
X757166Y526973D01*
X761367D01*
Y531174D01*
D02*
G37*
G36*
X934750Y532109D02*
X929520D01*
Y525270D01*
X942692D01*
X942583Y526099D01*
X941773Y528055D01*
X940484Y529734D01*
X938805Y531023D01*
X936849Y531833D01*
X934750Y532109D01*
D02*
G37*
G36*
X926980D02*
X921750D01*
X919651Y531833D01*
X917695Y531023D01*
X916016Y529734D01*
X914727Y528055D01*
X913917Y526099D01*
X913808Y525270D01*
X926980D01*
Y532109D01*
D02*
G37*
G36*
X903700Y531605D02*
X897220D01*
Y525270D01*
X911138D01*
X911046Y525968D01*
X910286Y527803D01*
X909078Y529378D01*
X907503Y530586D01*
X905668Y531346D01*
X903700Y531605D01*
D02*
G37*
G36*
X894680D02*
X888200D01*
X886232Y531346D01*
X884398Y530586D01*
X882822Y529378D01*
X881614Y527803D01*
X880854Y525968D01*
X880762Y525270D01*
X894680D01*
Y531605D01*
D02*
G37*
G36*
X802541Y526377D02*
Y522176D01*
X806742D01*
X805968Y524044D01*
X804409Y525603D01*
X802541Y526377D01*
D02*
G37*
G36*
X800001D02*
X798133Y525603D01*
X796575Y524044D01*
X795801Y522176D01*
X800001D01*
Y526377D01*
D02*
G37*
G36*
X23188Y525353D02*
X18987D01*
Y521152D01*
X20855Y521926D01*
X22414Y523484D01*
X23188Y525353D01*
D02*
G37*
G36*
X16447D02*
X12247D01*
X13021Y523484D01*
X14579Y521926D01*
X16447Y521152D01*
Y525353D01*
D02*
G37*
G36*
X134839Y548029D02*
X125839D01*
Y534029D01*
X127280D01*
Y526655D01*
X127280Y526655D01*
X127513Y525484D01*
X128176Y524492D01*
X130997Y521671D01*
X130997Y521671D01*
X131990Y521008D01*
X133160Y520775D01*
X135797D01*
X136695Y519877D01*
X136695Y516992D01*
X136695Y515722D01*
Y504492D01*
X138132D01*
X138892Y503222D01*
X138393Y502016D01*
Y500027D01*
X139154Y498189D01*
X140560Y496783D01*
X142398Y496022D01*
X144387D01*
X146225Y496783D01*
X147632Y498189D01*
X148393Y500027D01*
Y502016D01*
X147893Y503222D01*
X148653Y504492D01*
X150195D01*
Y515722D01*
X150195Y516492D01*
X150195Y517762D01*
Y520314D01*
X151466D01*
Y516873D01*
X170466D01*
Y529873D01*
X151466D01*
Y526432D01*
X150195D01*
Y528992D01*
X136695D01*
Y526892D01*
X134427D01*
X133398Y527922D01*
Y534029D01*
X134839D01*
Y548029D01*
D02*
G37*
G36*
X806742Y519636D02*
X802541D01*
Y515436D01*
X804409Y516210D01*
X805968Y517768D01*
X806742Y519636D01*
D02*
G37*
G36*
X800001D02*
X795801D01*
X796575Y517768D01*
X798133Y516210D01*
X800001Y515436D01*
Y519636D01*
D02*
G37*
G36*
X38442Y524853D02*
X33172D01*
Y515083D01*
X38442D01*
Y524853D01*
D02*
G37*
G36*
X30632D02*
X25362D01*
Y515083D01*
X30632D01*
Y524853D01*
D02*
G37*
G36*
X821127Y515304D02*
Y511104D01*
X825327D01*
X824554Y512972D01*
X822995Y514530D01*
X821127Y515304D01*
D02*
G37*
G36*
X818587D02*
X816719Y514530D01*
X815160Y512972D01*
X814387Y511104D01*
X818587D01*
Y515304D01*
D02*
G37*
G36*
X803777Y512175D02*
Y506155D01*
X809297D01*
Y512175D01*
X803777D01*
D02*
G37*
G36*
X22167Y508606D02*
Y504406D01*
X26367D01*
X25594Y506274D01*
X24035Y507833D01*
X22167Y508606D01*
D02*
G37*
G36*
X19627D02*
X17759Y507833D01*
X16200Y506274D01*
X15427Y504406D01*
X19627D01*
Y508606D01*
D02*
G37*
G36*
X825327Y508564D02*
X821127D01*
Y504364D01*
X822995Y505137D01*
X824554Y506696D01*
X825327Y508564D01*
D02*
G37*
G36*
X818587D02*
X814387D01*
X815160Y506696D01*
X816719Y505137D01*
X818587Y504364D01*
Y508564D01*
D02*
G37*
G36*
X681312Y508180D02*
Y503980D01*
X685512D01*
X684738Y505848D01*
X683180Y507406D01*
X681312Y508180D01*
D02*
G37*
G36*
X678772D02*
X676904Y507406D01*
X675345Y505848D01*
X674571Y503980D01*
X678772D01*
Y508180D01*
D02*
G37*
G36*
X49814Y509561D02*
X44544D01*
Y503791D01*
X49814D01*
Y509561D01*
D02*
G37*
G36*
X42004D02*
X36734D01*
Y503791D01*
X42004D01*
Y509561D01*
D02*
G37*
G36*
X635148Y506119D02*
X629878D01*
Y500849D01*
X635148D01*
Y506119D01*
D02*
G37*
G36*
X627338D02*
X622068D01*
Y500849D01*
X627338D01*
Y506119D01*
D02*
G37*
G36*
X26367Y501866D02*
X22167D01*
Y497666D01*
X24035Y498439D01*
X25594Y499998D01*
X26367Y501866D01*
D02*
G37*
G36*
X19627D02*
X15427D01*
X16200Y499998D01*
X17759Y498439D01*
X19627Y497666D01*
Y501866D01*
D02*
G37*
G36*
X809297Y503615D02*
X803777D01*
Y497595D01*
X809297D01*
Y503615D01*
D02*
G37*
G36*
X685512Y501440D02*
X681312D01*
Y497239D01*
X683180Y498013D01*
X684738Y499572D01*
X685512Y501440D01*
D02*
G37*
G36*
X678772D02*
X674571D01*
X675345Y499572D01*
X676904Y498013D01*
X678772Y497239D01*
Y501440D01*
D02*
G37*
G36*
X119482Y503442D02*
X112170D01*
Y497111D01*
X119482D01*
Y503442D01*
D02*
G37*
G36*
X49814Y501251D02*
X44544D01*
Y495481D01*
X49814D01*
Y501251D01*
D02*
G37*
G36*
X42004D02*
X36734D01*
Y495481D01*
X42004D01*
Y501251D01*
D02*
G37*
G36*
X620116Y528758D02*
X605529D01*
Y514637D01*
X610549D01*
Y505579D01*
X607608D01*
Y493579D01*
X619608D01*
Y505579D01*
X616667D01*
Y514637D01*
X620116D01*
Y528758D01*
D02*
G37*
G36*
X635148Y498309D02*
X629878D01*
Y493039D01*
X635148D01*
Y498309D01*
D02*
G37*
G36*
X627338D02*
X622068D01*
Y493039D01*
X627338D01*
Y498309D01*
D02*
G37*
G36*
X197211Y498984D02*
X195222D01*
X193384Y498222D01*
X191977Y496816D01*
X191216Y494978D01*
Y492989D01*
X191977Y491151D01*
X193384Y489745D01*
X195222Y488984D01*
X197211D01*
X199048Y489745D01*
X200455Y491151D01*
X201216Y492989D01*
Y494978D01*
X200455Y496816D01*
X199048Y498222D01*
X197211Y498984D01*
D02*
G37*
G36*
X687868Y491893D02*
X682348D01*
Y488873D01*
X687868D01*
Y491893D01*
D02*
G37*
G36*
X127792Y498302D02*
X125803D01*
X123965Y497541D01*
X122559Y496135D01*
X121798Y494297D01*
Y492308D01*
X122559Y490470D01*
X123965Y489063D01*
X125803Y488302D01*
X127792D01*
X129630Y489063D01*
X131036Y490470D01*
X131798Y492308D01*
Y494297D01*
X131036Y496135D01*
X129630Y497541D01*
X127792Y498302D01*
D02*
G37*
G36*
X119482Y494571D02*
X112170D01*
Y488240D01*
X119482D01*
Y494571D01*
D02*
G37*
G36*
X176326Y539248D02*
X174337D01*
X172499Y538487D01*
X171092Y537080D01*
X170331Y535243D01*
Y533254D01*
X171092Y531416D01*
X172499Y530009D01*
X174337Y529248D01*
X175616D01*
X181767Y523098D01*
Y496728D01*
X169013Y483974D01*
X168281Y484463D01*
X167005Y484717D01*
X163103D01*
Y485883D01*
X149103D01*
Y476883D01*
X163103D01*
Y478049D01*
X165624D01*
X165737Y477936D01*
Y281245D01*
X163733Y279241D01*
X162818Y278499D01*
Y278499D01*
X162818Y278499D01*
X148819D01*
Y269499D01*
X162818D01*
Y270665D01*
X163206D01*
X164482Y270919D01*
X165564Y271642D01*
X171428Y277506D01*
X172151Y278588D01*
X172405Y279864D01*
Y477936D01*
X187458Y492990D01*
X188181Y494071D01*
X188435Y495347D01*
Y524479D01*
X188181Y525754D01*
X187458Y526836D01*
X180331Y533963D01*
Y535243D01*
X179570Y537080D01*
X178163Y538487D01*
X176326Y539248D01*
D02*
G37*
G36*
X111318Y484833D02*
Y480633D01*
X115518D01*
X114745Y482501D01*
X113186Y484060D01*
X111318Y484833D01*
D02*
G37*
G36*
X108778D02*
X106910Y484060D01*
X105351Y482501D01*
X104578Y480633D01*
X108778D01*
Y484833D01*
D02*
G37*
G36*
X115518Y478093D02*
X111318D01*
Y473893D01*
X113186Y474666D01*
X114745Y476225D01*
X115518Y478093D01*
D02*
G37*
G36*
X108778D02*
X104578D01*
X105351Y476225D01*
X106910Y474666D01*
X108778Y473893D01*
Y478093D01*
D02*
G37*
G36*
X811266Y494277D02*
X797701D01*
Y480656D01*
X811266D01*
Y484663D01*
X822814D01*
X824652Y482825D01*
X824404Y481580D01*
X823889Y481366D01*
X822482Y479960D01*
X821721Y478122D01*
Y476133D01*
X822482Y474295D01*
X823889Y472889D01*
X824111Y471422D01*
X823733Y470975D01*
X811090D01*
Y474982D01*
X797525D01*
Y461360D01*
X811090D01*
Y465367D01*
X825727D01*
X826800Y465581D01*
X827709Y466188D01*
X831277Y469756D01*
X833625D01*
Y469060D01*
X847525D01*
Y474060D01*
Y486060D01*
X833625D01*
Y485364D01*
X830044D01*
X825958Y489450D01*
X825048Y490057D01*
X823975Y490271D01*
X811266D01*
Y494277D01*
D02*
G37*
G36*
X818348Y460337D02*
Y456137D01*
X822549D01*
X821775Y458005D01*
X820216Y459563D01*
X818348Y460337D01*
D02*
G37*
G36*
X815808D02*
X813940Y459563D01*
X812382Y458005D01*
X811608Y456137D01*
X815808D01*
Y460337D01*
D02*
G37*
G36*
X804551Y458422D02*
Y452402D01*
X810071D01*
Y458422D01*
X804551D01*
D02*
G37*
G36*
X810071Y449861D02*
X804551D01*
Y443842D01*
X810071D01*
Y449861D01*
D02*
G37*
G36*
X797264Y440556D02*
Y436356D01*
X801464D01*
X800690Y438224D01*
X799132Y439782D01*
X797264Y440556D01*
D02*
G37*
G36*
X794724D02*
X792856Y439782D01*
X791297Y438224D01*
X790523Y436356D01*
X794724D01*
Y440556D01*
D02*
G37*
G36*
X31422Y442960D02*
X29433D01*
X27595Y442199D01*
X26189Y440792D01*
X25427Y438955D01*
Y436965D01*
X26189Y435128D01*
X27595Y433721D01*
X29433Y432960D01*
X31422D01*
X33260Y433721D01*
X34666Y435128D01*
X35427Y436965D01*
Y438955D01*
X34666Y440792D01*
X33260Y442199D01*
X31422Y442960D01*
D02*
G37*
G36*
X801464Y433815D02*
X797264D01*
Y429615D01*
X799132Y430389D01*
X800690Y431947D01*
X801464Y433815D01*
D02*
G37*
G36*
X794724D02*
X790523D01*
X791297Y431947D01*
X792856Y430389D01*
X794724Y429615D01*
Y433815D01*
D02*
G37*
G36*
X523969Y486465D02*
X509969D01*
Y485136D01*
X508938D01*
X507662Y484882D01*
X506580Y484160D01*
X505092Y482672D01*
X504370Y481590D01*
X504116Y480314D01*
Y467497D01*
X504370Y466221D01*
X505092Y465139D01*
X535448Y434784D01*
Y433504D01*
X536209Y431667D01*
X537616Y430260D01*
X539453Y429499D01*
X541442D01*
X543280Y430260D01*
X544687Y431667D01*
X545448Y433504D01*
Y435493D01*
X544687Y437331D01*
X543280Y438738D01*
X541442Y439499D01*
X540163D01*
X510784Y468878D01*
Y477465D01*
X523969D01*
Y486465D01*
D02*
G37*
G36*
X829216Y430446D02*
Y426245D01*
X833416D01*
X832642Y428113D01*
X831084Y429672D01*
X829216Y430446D01*
D02*
G37*
G36*
X862600Y430064D02*
Y425864D01*
X866800D01*
X866027Y427732D01*
X864468Y429290D01*
X862600Y430064D01*
D02*
G37*
G36*
X860060D02*
X858192Y429290D01*
X856633Y427732D01*
X855860Y425864D01*
X860060D01*
Y430064D01*
D02*
G37*
G36*
X333558Y486497D02*
X319558D01*
Y477497D01*
X323224D01*
Y460067D01*
X323478Y458791D01*
X324201Y457709D01*
X340898Y441012D01*
Y434537D01*
X339993Y433632D01*
X339232Y431795D01*
Y429805D01*
X339993Y427968D01*
X341400Y426561D01*
X343237Y425800D01*
X345227D01*
X347064Y426561D01*
X348471Y427968D01*
X349232Y429805D01*
Y431795D01*
X348471Y433632D01*
X347566Y434537D01*
Y442393D01*
X347312Y443669D01*
X346590Y444750D01*
X329892Y461448D01*
Y477497D01*
X333558D01*
Y486497D01*
D02*
G37*
G36*
X139103Y485883D02*
X125103D01*
Y476883D01*
X128769D01*
Y467272D01*
X129023Y465996D01*
X129745Y464914D01*
X146861Y447798D01*
Y434347D01*
X145956Y433442D01*
X145195Y431605D01*
Y429616D01*
X145956Y427778D01*
X147363Y426371D01*
X149201Y425610D01*
X151190D01*
X153027Y426371D01*
X154434Y427778D01*
X155195Y429616D01*
Y431605D01*
X154434Y433442D01*
X153529Y434347D01*
Y449179D01*
X153275Y450455D01*
X152553Y451537D01*
X135437Y468653D01*
Y476883D01*
X139103D01*
Y485883D01*
D02*
G37*
G36*
X851098Y431110D02*
X844768D01*
Y425530D01*
X851098D01*
Y431110D01*
D02*
G37*
G36*
X842228D02*
X835897D01*
Y425530D01*
X842228D01*
Y431110D01*
D02*
G37*
G36*
X833416Y423705D02*
X829216D01*
Y419505D01*
X831084Y420279D01*
X832642Y421837D01*
X833416Y423705D01*
D02*
G37*
G36*
X866800Y423324D02*
X862600D01*
Y419123D01*
X864468Y419897D01*
X866027Y421455D01*
X866800Y423324D01*
D02*
G37*
G36*
X860060D02*
X855860D01*
X856633Y421455D01*
X858192Y419897D01*
X860060Y419123D01*
Y423324D01*
D02*
G37*
G36*
X851098Y422990D02*
X844768D01*
Y417409D01*
X851098D01*
Y422990D01*
D02*
G37*
G36*
X842228D02*
X835897D01*
Y417409D01*
X842228D01*
Y422990D01*
D02*
G37*
G36*
X496971Y449800D02*
X493229D01*
X489558Y449070D01*
X486100Y447637D01*
X482988Y445558D01*
X480342Y442912D01*
X478262Y439800D01*
X476830Y436342D01*
X476100Y432671D01*
Y428929D01*
X476830Y425258D01*
X478262Y421800D01*
X480342Y418688D01*
X482988Y416042D01*
X486100Y413962D01*
X489558Y412530D01*
X493229Y411800D01*
X496971D01*
X500642Y412530D01*
X504100Y413962D01*
X507212Y416042D01*
X509858Y418688D01*
X511938Y421800D01*
X513370Y425258D01*
X514100Y428929D01*
Y432671D01*
X513370Y436342D01*
X511938Y439800D01*
X509858Y442912D01*
X507212Y445558D01*
X504100Y447637D01*
X500642Y449070D01*
X496971Y449800D01*
D02*
G37*
G36*
X301971D02*
X298229D01*
X294558Y449070D01*
X291100Y447637D01*
X287988Y445558D01*
X285342Y442912D01*
X283263Y439800D01*
X281830Y436342D01*
X281100Y432671D01*
Y428929D01*
X281830Y425258D01*
X283263Y421800D01*
X285342Y418688D01*
X287988Y416042D01*
X291100Y413962D01*
X294558Y412530D01*
X298229Y411800D01*
X301971D01*
X305642Y412530D01*
X309100Y413962D01*
X312212Y416042D01*
X314858Y418688D01*
X316938Y421800D01*
X318370Y425258D01*
X319100Y428929D01*
Y432671D01*
X318370Y436342D01*
X316938Y439800D01*
X314858Y442912D01*
X312212Y445558D01*
X309100Y447637D01*
X305642Y449070D01*
X301971Y449800D01*
D02*
G37*
G36*
X106971D02*
X103229D01*
X99558Y449070D01*
X96100Y447637D01*
X92988Y445558D01*
X90342Y442912D01*
X88262Y439800D01*
X86830Y436342D01*
X86100Y432671D01*
Y428929D01*
X86830Y425258D01*
X88262Y421800D01*
X90342Y418688D01*
X92988Y416042D01*
X96100Y413962D01*
X99558Y412530D01*
X103229Y411800D01*
X106971D01*
X110642Y412530D01*
X114100Y413962D01*
X117212Y416042D01*
X119858Y418688D01*
X121938Y421800D01*
X123370Y425258D01*
X124100Y428929D01*
Y432671D01*
X123370Y436342D01*
X121938Y439800D01*
X119858Y442912D01*
X117212Y445558D01*
X114100Y447637D01*
X110642Y449070D01*
X106971Y449800D01*
D02*
G37*
G36*
X462829Y421613D02*
X460840D01*
X459002Y420852D01*
X457596Y419446D01*
X456834Y417608D01*
Y415619D01*
X457596Y413781D01*
X459002Y412374D01*
X460840Y411613D01*
X462829D01*
X464667Y412374D01*
X466073Y413781D01*
X466834Y415619D01*
Y417608D01*
X466073Y419446D01*
X464667Y420852D01*
X462829Y421613D01*
D02*
G37*
G36*
X911138Y414730D02*
X897220D01*
Y408395D01*
X903700D01*
X905668Y408654D01*
X907503Y409414D01*
X909078Y410622D01*
X910286Y412197D01*
X911046Y414032D01*
X911138Y414730D01*
D02*
G37*
G36*
X894680D02*
X880762D01*
X880854Y414032D01*
X881614Y412197D01*
X882822Y410622D01*
X884398Y409414D01*
X886232Y408654D01*
X888200Y408395D01*
X894680D01*
Y414730D01*
D02*
G37*
G36*
X942692Y414730D02*
X929520D01*
Y407891D01*
X934750D01*
X936849Y408167D01*
X938805Y408977D01*
X940484Y410266D01*
X941773Y411945D01*
X942583Y413901D01*
X942692Y414730D01*
D02*
G37*
G36*
X926980D02*
X913808D01*
X913917Y413901D01*
X914727Y411945D01*
X916016Y410266D01*
X917695Y408977D01*
X919651Y408167D01*
X921750Y407891D01*
X926980D01*
Y414730D01*
D02*
G37*
G36*
X821900Y411303D02*
X808900D01*
Y399303D01*
X821900D01*
Y400188D01*
X836437D01*
Y398449D01*
X850558D01*
Y411070D01*
X836437D01*
Y409874D01*
X831276D01*
X831273Y409877D01*
X829436Y410638D01*
X827446D01*
X825609Y409877D01*
X825606Y409874D01*
X821900D01*
Y411303D01*
D02*
G37*
G36*
X433471Y424400D02*
X429729D01*
X426058Y423670D01*
X422600Y422238D01*
X419488Y420158D01*
X416842Y417512D01*
X414762Y414400D01*
X413330Y410942D01*
X412600Y407271D01*
Y403529D01*
X413330Y399858D01*
X414762Y396400D01*
X416842Y393288D01*
X419360Y390770D01*
X419211Y389729D01*
X419142Y389500D01*
X418749D01*
X416333Y388853D01*
X414167Y387602D01*
X412398Y385833D01*
X411147Y383667D01*
X410500Y381251D01*
Y378749D01*
X411147Y376333D01*
X412398Y374167D01*
X414167Y372398D01*
X416333Y371147D01*
X418749Y370500D01*
X421251D01*
X423667Y371147D01*
X425833Y372398D01*
X427602Y374167D01*
X428853Y376333D01*
X429500Y378749D01*
Y381251D01*
X428853Y383667D01*
X427801Y385489D01*
X428462Y386652D01*
X429729Y386400D01*
X433471D01*
X437142Y387130D01*
X440600Y388562D01*
X443712Y390642D01*
X446358Y393288D01*
X448438Y396400D01*
X449870Y399858D01*
X450600Y403529D01*
Y407271D01*
X449870Y410942D01*
X448438Y414400D01*
X446358Y417512D01*
X443712Y420158D01*
X440600Y422238D01*
X437142Y423670D01*
X433471Y424400D01*
D02*
G37*
G36*
X238471D02*
X234729D01*
X231058Y423670D01*
X227600Y422238D01*
X224488Y420158D01*
X221842Y417512D01*
X219762Y414400D01*
X218330Y410942D01*
X217600Y407271D01*
Y403529D01*
X218330Y399858D01*
X219762Y396400D01*
X221842Y393288D01*
X224360Y390770D01*
X224211Y389729D01*
X224142Y389500D01*
X223749D01*
X221333Y388853D01*
X219167Y387602D01*
X217398Y385833D01*
X216147Y383667D01*
X215500Y381251D01*
Y378749D01*
X216147Y376333D01*
X217398Y374167D01*
X219167Y372398D01*
X221333Y371147D01*
X223749Y370500D01*
X226251D01*
X228667Y371147D01*
X230833Y372398D01*
X232602Y374167D01*
X233853Y376333D01*
X234500Y378749D01*
Y381251D01*
X233853Y383667D01*
X232801Y385489D01*
X233462Y386652D01*
X234729Y386400D01*
X238471D01*
X242142Y387130D01*
X245600Y388562D01*
X248712Y390642D01*
X251358Y393288D01*
X253438Y396400D01*
X254870Y399858D01*
X255600Y403529D01*
Y407271D01*
X254870Y410942D01*
X253438Y414400D01*
X251358Y417512D01*
X248712Y420158D01*
X245600Y422238D01*
X242142Y423670D01*
X238471Y424400D01*
D02*
G37*
G36*
X43471D02*
X39729D01*
X36058Y423670D01*
X32600Y422238D01*
X29488Y420158D01*
X26842Y417512D01*
X24762Y414400D01*
X23330Y410942D01*
X22600Y407271D01*
Y403529D01*
X23330Y399858D01*
X24762Y396400D01*
X26842Y393288D01*
X29360Y390770D01*
X29211Y389729D01*
X29142Y389500D01*
X28749D01*
X26333Y388853D01*
X24167Y387602D01*
X22398Y385833D01*
X21147Y383667D01*
X20500Y381251D01*
Y378749D01*
X21147Y376333D01*
X22398Y374167D01*
X24167Y372398D01*
X26333Y371147D01*
X28749Y370500D01*
X31251D01*
X33667Y371147D01*
X35833Y372398D01*
X37602Y374167D01*
X38853Y376333D01*
X39500Y378749D01*
Y381251D01*
X38853Y383667D01*
X37801Y385489D01*
X38462Y386652D01*
X39729Y386400D01*
X43471D01*
X47142Y387130D01*
X50600Y388562D01*
X53712Y390642D01*
X56358Y393288D01*
X58438Y396400D01*
X59870Y399858D01*
X60600Y403529D01*
Y407271D01*
X59870Y410942D01*
X58438Y414400D01*
X56358Y417512D01*
X53712Y420158D01*
X50600Y422238D01*
X47142Y423670D01*
X43471Y424400D01*
D02*
G37*
G36*
X521251Y389500D02*
X518749D01*
X516333Y388853D01*
X514167Y387602D01*
X512398Y385833D01*
X511147Y383667D01*
X510500Y381251D01*
Y378749D01*
X511147Y376333D01*
X512398Y374167D01*
X514167Y372398D01*
X516333Y371147D01*
X518749Y370500D01*
X521251D01*
X523667Y371147D01*
X525833Y372398D01*
X527602Y374167D01*
X528853Y376333D01*
X529500Y378749D01*
Y381251D01*
X528853Y383667D01*
X527602Y385833D01*
X525833Y387602D01*
X523667Y388853D01*
X521251Y389500D01*
D02*
G37*
G36*
X326251D02*
X323749D01*
X321333Y388853D01*
X319167Y387602D01*
X317398Y385833D01*
X316147Y383667D01*
X315500Y381251D01*
Y378749D01*
X316147Y376333D01*
X317398Y374167D01*
X319167Y372398D01*
X321333Y371147D01*
X323749Y370500D01*
X326251D01*
X328667Y371147D01*
X330833Y372398D01*
X332602Y374167D01*
X333853Y376333D01*
X334500Y378749D01*
Y381251D01*
X333853Y383667D01*
X332602Y385833D01*
X330833Y387602D01*
X328667Y388853D01*
X326251Y389500D01*
D02*
G37*
G36*
X131251D02*
X128749D01*
X126333Y388853D01*
X124167Y387602D01*
X122398Y385833D01*
X121147Y383667D01*
X120500Y381251D01*
Y378749D01*
X121147Y376333D01*
X122398Y374167D01*
X124167Y372398D01*
X126333Y371147D01*
X128749Y370500D01*
X131251D01*
X133667Y371147D01*
X135833Y372398D01*
X137602Y374167D01*
X138853Y376333D01*
X139500Y378749D01*
Y381251D01*
X138853Y383667D01*
X137602Y385833D01*
X135833Y387602D01*
X133667Y388853D01*
X131251Y389500D01*
D02*
G37*
G36*
X472062Y400939D02*
X467938D01*
X463892Y400134D01*
X460082Y398556D01*
X456652Y396264D01*
X453736Y393348D01*
X451444Y389918D01*
X449866Y386108D01*
X449061Y382062D01*
Y377938D01*
X449866Y373892D01*
X451444Y370082D01*
X453736Y366652D01*
X456652Y363736D01*
X460082Y361444D01*
X463892Y359866D01*
X467938Y359061D01*
X472062D01*
X476108Y359866D01*
X479918Y361444D01*
X483348Y363736D01*
X486264Y366652D01*
X488556Y370082D01*
X490134Y373892D01*
X490939Y377938D01*
Y382062D01*
X490134Y386108D01*
X488556Y389918D01*
X486264Y393348D01*
X483348Y396264D01*
X479918Y398556D01*
X476108Y400134D01*
X472062Y400939D01*
D02*
G37*
G36*
X277062D02*
X272938D01*
X268892Y400134D01*
X265082Y398556D01*
X261652Y396264D01*
X258736Y393348D01*
X256444Y389918D01*
X254866Y386108D01*
X254061Y382062D01*
Y377938D01*
X254866Y373892D01*
X256444Y370082D01*
X258736Y366652D01*
X261652Y363736D01*
X265082Y361444D01*
X268892Y359866D01*
X272938Y359061D01*
X277062D01*
X281108Y359866D01*
X284918Y361444D01*
X288348Y363736D01*
X291264Y366652D01*
X293556Y370082D01*
X295134Y373892D01*
X295939Y377938D01*
Y382062D01*
X295134Y386108D01*
X293556Y389918D01*
X291264Y393348D01*
X288348Y396264D01*
X284918Y398556D01*
X281108Y400134D01*
X277062Y400939D01*
D02*
G37*
G36*
X82062D02*
X77938D01*
X73892Y400134D01*
X70082Y398556D01*
X66652Y396264D01*
X63736Y393348D01*
X61444Y389918D01*
X59866Y386108D01*
X59061Y382062D01*
Y377938D01*
X59866Y373892D01*
X61444Y370082D01*
X63736Y366652D01*
X66652Y363736D01*
X70082Y361444D01*
X73892Y359866D01*
X77938Y359061D01*
X82062D01*
X86108Y359866D01*
X89918Y361444D01*
X93348Y363736D01*
X96264Y366652D01*
X98556Y370082D01*
X100134Y373892D01*
X100939Y377938D01*
Y382062D01*
X100134Y386108D01*
X98556Y389918D01*
X96264Y393348D01*
X93348Y396264D01*
X89918Y398556D01*
X86108Y400134D01*
X82062Y400939D01*
D02*
G37*
G36*
X697965Y409569D02*
X695975D01*
X694138Y408808D01*
X692731Y407402D01*
X691970Y405564D01*
Y403575D01*
X692731Y401737D01*
X694138Y400331D01*
X695975Y399569D01*
X697284D01*
X698187Y398666D01*
Y363336D01*
X697834Y363241D01*
X695668Y361991D01*
X693899Y360222D01*
X692648Y358056D01*
X692001Y355639D01*
Y353138D01*
X692648Y350722D01*
X693899Y348556D01*
X695668Y346787D01*
X697834Y345536D01*
X700250Y344889D01*
X702752D01*
X705168Y345536D01*
X707334Y346787D01*
X709103Y348556D01*
X710354Y350722D01*
X711001Y353138D01*
Y355639D01*
X710354Y358056D01*
X709103Y360222D01*
X707334Y361991D01*
X705168Y363241D01*
X704815Y363336D01*
Y400038D01*
X704562Y401306D01*
X703844Y402382D01*
X701970Y404256D01*
Y405564D01*
X701209Y407402D01*
X699802Y408808D01*
X697965Y409569D01*
D02*
G37*
G36*
X651598Y404213D02*
X649609D01*
X647772Y403452D01*
X646365Y402046D01*
X645604Y400208D01*
Y398219D01*
X645976Y397321D01*
X645127Y396051D01*
X643426D01*
Y384821D01*
X643426Y384051D01*
X643426Y382781D01*
Y371551D01*
X646438D01*
Y363889D01*
X642001D01*
Y344889D01*
X661001D01*
Y363889D01*
X653107D01*
Y371551D01*
X656926D01*
Y382781D01*
X656926Y383551D01*
X656926Y384821D01*
Y396051D01*
X656080D01*
X655232Y397321D01*
X655604Y398219D01*
Y400208D01*
X654843Y402046D01*
X653436Y403452D01*
X651598Y404213D01*
D02*
G37*
G36*
X103526Y338684D02*
X101537D01*
X99699Y337922D01*
X98293Y336516D01*
X97531Y334678D01*
Y332689D01*
X98293Y330851D01*
X99699Y329445D01*
X101537Y328684D01*
X103526D01*
X105364Y329445D01*
X106770Y330851D01*
X107531Y332689D01*
Y334678D01*
X106770Y336516D01*
X105364Y337922D01*
X103526Y338684D01*
D02*
G37*
G36*
X433156Y338740D02*
X430644D01*
X428218Y338090D01*
X426042Y336834D01*
X424266Y335058D01*
X423010Y332882D01*
X422360Y330456D01*
Y327944D01*
X423010Y325518D01*
X424266Y323342D01*
X426042Y321566D01*
X428218Y320310D01*
X430644Y319660D01*
X433156D01*
X435582Y320310D01*
X437758Y321566D01*
X439534Y323342D01*
X440790Y325518D01*
X441440Y327944D01*
Y330456D01*
X440790Y332882D01*
X439534Y335058D01*
X437758Y336834D01*
X435582Y338090D01*
X433156Y338740D01*
D02*
G37*
G36*
X238156D02*
X235644D01*
X233218Y338090D01*
X231042Y336834D01*
X229266Y335058D01*
X228010Y332882D01*
X227360Y330456D01*
Y327944D01*
X228010Y325518D01*
X229266Y323342D01*
X231042Y321566D01*
X233218Y320310D01*
X235644Y319660D01*
X238156D01*
X240582Y320310D01*
X242758Y321566D01*
X244534Y323342D01*
X245790Y325518D01*
X246440Y327944D01*
Y330456D01*
X245790Y332882D01*
X244534Y335058D01*
X242758Y336834D01*
X240582Y338090D01*
X238156Y338740D01*
D02*
G37*
G36*
X43156D02*
X40644D01*
X38218Y338090D01*
X36042Y336834D01*
X34266Y335058D01*
X33010Y332882D01*
X32360Y330456D01*
Y327944D01*
X33010Y325518D01*
X34266Y323342D01*
X36042Y321566D01*
X38218Y320310D01*
X40644Y319660D01*
X43156D01*
X45582Y320310D01*
X47758Y321566D01*
X49534Y323342D01*
X50790Y325518D01*
X51440Y327944D01*
Y330456D01*
X50790Y332882D01*
X49534Y335058D01*
X47758Y336834D01*
X45582Y338090D01*
X43156Y338740D01*
D02*
G37*
G36*
X509356Y338740D02*
X506844D01*
X504418Y338090D01*
X502242Y336834D01*
X500466Y335058D01*
X499210Y332882D01*
X498560Y330456D01*
Y327944D01*
X499210Y325518D01*
X500466Y323342D01*
X502242Y321566D01*
X504418Y320310D01*
X506844Y319660D01*
X509356D01*
X511782Y320310D01*
X513958Y321566D01*
X515734Y323342D01*
X516990Y325518D01*
X517640Y327944D01*
Y330456D01*
X516990Y332882D01*
X515734Y335058D01*
X513958Y336834D01*
X511782Y338090D01*
X509356Y338740D01*
D02*
G37*
G36*
X314356D02*
X311844D01*
X309418Y338090D01*
X307242Y336834D01*
X305466Y335058D01*
X304210Y332882D01*
X303560Y330456D01*
Y327944D01*
X304210Y325518D01*
X305466Y323342D01*
X307242Y321566D01*
X309418Y320310D01*
X311844Y319660D01*
X314356D01*
X316782Y320310D01*
X318958Y321566D01*
X320734Y323342D01*
X321990Y325518D01*
X322640Y327944D01*
Y330456D01*
X321990Y332882D01*
X320734Y335058D01*
X318958Y336834D01*
X316782Y338090D01*
X314356Y338740D01*
D02*
G37*
G36*
X119356D02*
X116844D01*
X114418Y338090D01*
X112242Y336834D01*
X110466Y335058D01*
X109210Y332882D01*
X108560Y330456D01*
Y327944D01*
X109210Y325518D01*
X110466Y323342D01*
X112242Y321566D01*
X114418Y320310D01*
X116844Y319660D01*
X119356D01*
X121782Y320310D01*
X123958Y321566D01*
X125734Y323342D01*
X126990Y325518D01*
X127640Y327944D01*
Y330456D01*
X126990Y332882D01*
X125734Y335058D01*
X123958Y336834D01*
X121782Y338090D01*
X119356Y338740D01*
D02*
G37*
G36*
X138977Y300265D02*
Y296065D01*
X143177D01*
X142403Y297933D01*
X140845Y299491D01*
X138977Y300265D01*
D02*
G37*
G36*
X136437D02*
X134568Y299491D01*
X133010Y297933D01*
X132236Y296065D01*
X136437D01*
Y300265D01*
D02*
G37*
G36*
X143177Y293525D02*
X138977D01*
Y289324D01*
X140845Y290098D01*
X142403Y291656D01*
X143177Y293525D01*
D02*
G37*
G36*
X136437D02*
X132236D01*
X133010Y291656D01*
X134568Y290098D01*
X136437Y289324D01*
Y293525D01*
D02*
G37*
G36*
X747541Y302429D02*
X734771D01*
Y285659D01*
X747541D01*
Y302429D01*
D02*
G37*
G36*
X633541D02*
X620771D01*
Y285659D01*
X633541D01*
Y302429D01*
D02*
G37*
G36*
X618231D02*
X605461D01*
Y285659D01*
X618231D01*
Y302429D01*
D02*
G37*
G36*
X732231D02*
X719461D01*
Y285659D01*
X732231D01*
Y302429D01*
D02*
G37*
G36*
X357558Y486497D02*
X343558D01*
Y477497D01*
X357558D01*
Y478663D01*
X359448D01*
X366065Y472046D01*
Y470954D01*
X366826Y469116D01*
X367744Y468199D01*
Y288878D01*
X364371Y285505D01*
X363101Y285830D01*
Y285830D01*
X349101D01*
X349101Y276830D01*
X348046Y276309D01*
X340155D01*
X339101Y276830D01*
Y285830D01*
X325101D01*
Y284664D01*
X323030D01*
X321754Y284410D01*
X320673Y283687D01*
X317581Y280595D01*
X316301D01*
X314464Y279834D01*
X313057Y278428D01*
X312296Y276590D01*
Y276486D01*
X312081Y276309D01*
X256157D01*
X251780Y280686D01*
Y281966D01*
X251019Y283804D01*
X249613Y285210D01*
X247775Y285971D01*
X245786D01*
X243948Y285210D01*
X242541Y283804D01*
X241780Y281966D01*
Y279977D01*
X242541Y278139D01*
X243948Y276733D01*
X245786Y275971D01*
X247065D01*
X252419Y270618D01*
X253500Y269895D01*
X254776Y269641D01*
X310700D01*
X312644Y267698D01*
X313725Y266975D01*
X315001Y266721D01*
X319590D01*
X320866Y266975D01*
X321948Y267698D01*
X323891Y269641D01*
X504299D01*
X505575Y269895D01*
X506656Y270618D01*
X523920Y287882D01*
X524643Y288964D01*
X524897Y290239D01*
Y308967D01*
X525802Y309872D01*
X526563Y311709D01*
Y313699D01*
X525802Y315536D01*
X524395Y316943D01*
X522557Y317704D01*
X520568D01*
X518731Y316943D01*
X517324Y315536D01*
X516563Y313699D01*
Y311709D01*
X517324Y309872D01*
X518229Y308967D01*
Y291620D01*
X502918Y276309D01*
X364155D01*
X364086Y276344D01*
X363901Y277638D01*
X364247Y277996D01*
X364911D01*
X366187Y278249D01*
X367268Y278972D01*
X373436Y285139D01*
X374158Y286221D01*
X374412Y287497D01*
Y468224D01*
X375304Y469116D01*
X376065Y470954D01*
Y472943D01*
X375304Y474781D01*
X373898Y476187D01*
X372060Y476949D01*
X370592D01*
X363187Y484354D01*
X362105Y485077D01*
X360829Y485331D01*
X357558D01*
Y486497D01*
D02*
G37*
G36*
X304359Y289624D02*
Y285423D01*
X308559D01*
X307785Y287291D01*
X306227Y288850D01*
X304359Y289624D01*
D02*
G37*
G36*
X301819D02*
X299951Y288850D01*
X298392Y287291D01*
X297618Y285423D01*
X301819D01*
Y289624D01*
D02*
G37*
G36*
X97364Y325785D02*
X62934D01*
X62153Y325630D01*
X62153Y325630D01*
X61220Y325243D01*
X60558Y324801D01*
X59844Y324086D01*
X59402Y323425D01*
X59015Y322491D01*
X58860Y321711D01*
Y287280D01*
X59015Y286500D01*
X59402Y285566D01*
X59844Y284905D01*
X60558Y284190D01*
X61220Y283748D01*
X62153Y283362D01*
X62934Y283206D01*
X97364D01*
X98145Y283362D01*
X99078Y283748D01*
X99740Y284190D01*
X100454Y284905D01*
X100896Y285566D01*
X101283Y286500D01*
X101438Y287280D01*
Y321711D01*
X101283Y322491D01*
X101283Y322491D01*
X100896Y323425D01*
X100454Y324086D01*
X99740Y324801D01*
X99078Y325243D01*
X98145Y325630D01*
X97364Y325785D01*
D02*
G37*
G36*
X292547Y325743D02*
X258117D01*
X257336Y325588D01*
X257336Y325588D01*
X256403Y325201D01*
X255741Y324759D01*
X255027Y324044D01*
X254585Y323383D01*
X254198Y322449D01*
X254043Y321669D01*
Y287238D01*
X254198Y286458D01*
X254585Y285525D01*
X255027Y284863D01*
X255741Y284148D01*
X256403Y283706D01*
X257336Y283320D01*
X258117Y283165D01*
X292547D01*
X293328Y283320D01*
X294261Y283706D01*
X294923Y284148D01*
X295637Y284863D01*
X296079Y285524D01*
X296466Y286458D01*
X296621Y287238D01*
Y321669D01*
X296466Y322449D01*
X296466Y322449D01*
X296079Y323383D01*
X295637Y324044D01*
X294923Y324759D01*
X294261Y325201D01*
X293328Y325588D01*
X292547Y325743D01*
D02*
G37*
G36*
X491859Y325383D02*
X457429D01*
X456648Y325227D01*
X456648Y325227D01*
X455715Y324841D01*
X455053Y324399D01*
X454339Y323684D01*
X453897Y323023D01*
X453510Y322089D01*
X453355Y321309D01*
Y286878D01*
X453510Y286098D01*
X453897Y285164D01*
X454339Y284503D01*
X455053Y283788D01*
X455715Y283346D01*
X456648Y282959D01*
X457429Y282804D01*
X491859D01*
X492640Y282959D01*
X493573Y283346D01*
X494235Y283788D01*
X494949Y284503D01*
X495391Y285164D01*
X495778Y286098D01*
X495933Y286878D01*
Y321309D01*
X495778Y322089D01*
X495778Y322089D01*
X495391Y323023D01*
X494949Y323684D01*
X494235Y324399D01*
X493573Y324841D01*
X492640Y325227D01*
X491859Y325383D01*
D02*
G37*
G36*
X308559Y282883D02*
X304359D01*
Y278683D01*
X306227Y279457D01*
X307785Y281015D01*
X308559Y282883D01*
D02*
G37*
G36*
X301819D02*
X297618D01*
X298392Y281015D01*
X299951Y279457D01*
X301819Y278683D01*
Y282883D01*
D02*
G37*
G36*
X215642Y276897D02*
X213652D01*
X211815Y276136D01*
X210408Y274729D01*
X209647Y272891D01*
Y270902D01*
X210408Y269064D01*
X211815Y267658D01*
X213652Y266897D01*
X215642D01*
X217479Y267658D01*
X218886Y269064D01*
X219647Y270902D01*
Y272891D01*
X218886Y274729D01*
X217479Y276136D01*
X215642Y276897D01*
D02*
G37*
G36*
X26363Y276678D02*
X24374D01*
X22536Y275916D01*
X21129Y274510D01*
X20368Y272672D01*
Y270683D01*
X21129Y268845D01*
X22536Y267439D01*
X24374Y266678D01*
X26363D01*
X28200Y267439D01*
X29607Y268845D01*
X30368Y270683D01*
Y272672D01*
X29607Y274510D01*
X28200Y275916D01*
X26363Y276678D01*
D02*
G37*
G36*
X747541Y283119D02*
X734771D01*
Y266349D01*
X747541D01*
Y283119D01*
D02*
G37*
G36*
X732231D02*
X719461D01*
Y266349D01*
X732231D01*
Y283119D01*
D02*
G37*
G36*
X633541D02*
X620771D01*
Y266349D01*
X633541D01*
Y283119D01*
D02*
G37*
G36*
X618231D02*
X605461D01*
Y266349D01*
X618231D01*
Y283119D01*
D02*
G37*
G36*
X401852Y267745D02*
X399863D01*
X398025Y266984D01*
X396619Y265577D01*
X395858Y263739D01*
Y261750D01*
X396619Y259913D01*
X398025Y258506D01*
X399863Y257745D01*
X401852D01*
X403690Y258506D01*
X405097Y259913D01*
X405858Y261750D01*
Y263739D01*
X405097Y265577D01*
X403690Y266984D01*
X401852Y267745D01*
D02*
G37*
G36*
X570621Y231503D02*
X561621D01*
Y226642D01*
X542853D01*
X541948Y227547D01*
X540110Y228308D01*
X538121D01*
X536283Y227547D01*
X534877Y226140D01*
X534116Y224302D01*
Y222313D01*
X534877Y220476D01*
X536283Y219069D01*
X538121Y218308D01*
X540110D01*
X541948Y219069D01*
X542853Y219974D01*
X561621D01*
Y217503D01*
X570621D01*
Y231503D01*
D02*
G37*
G36*
X138819Y278499D02*
X124818D01*
Y269499D01*
X128484D01*
Y252425D01*
X128738Y251149D01*
X129461Y250067D01*
X146771Y232757D01*
Y226953D01*
X145866Y226048D01*
X145105Y224210D01*
Y222221D01*
X145866Y220383D01*
X147273Y218977D01*
X149111Y218216D01*
X151100D01*
X152937Y218977D01*
X154344Y220383D01*
X155105Y222221D01*
Y224210D01*
X154344Y226048D01*
X153439Y226953D01*
Y234138D01*
X153185Y235414D01*
X152463Y236495D01*
X135153Y253806D01*
Y269499D01*
X138819D01*
Y278499D01*
D02*
G37*
G36*
X677823Y219429D02*
X677771D01*
Y210659D01*
X686541D01*
Y210711D01*
X685857Y213264D01*
X684535Y215553D01*
X682666Y217423D01*
X680376Y218745D01*
X677823Y219429D01*
D02*
G37*
G36*
X675231D02*
X675179D01*
X672626Y218745D01*
X670336Y217423D01*
X668467Y215553D01*
X667145Y213264D01*
X666461Y210711D01*
Y210659D01*
X675231D01*
Y219429D01*
D02*
G37*
G36*
X301971Y242200D02*
X298229D01*
X294558Y241470D01*
X291100Y240038D01*
X287988Y237959D01*
X285342Y235312D01*
X283263Y232200D01*
X281830Y228743D01*
X281100Y225072D01*
Y221329D01*
X281830Y217658D01*
X283263Y214201D01*
X285342Y211089D01*
X287988Y208442D01*
X291100Y206363D01*
X294558Y204931D01*
X298229Y204200D01*
X301971D01*
X305642Y204931D01*
X309100Y206363D01*
X312212Y208442D01*
X314858Y211089D01*
X316938Y214201D01*
X318370Y217658D01*
X319100Y221329D01*
Y225072D01*
X318370Y228743D01*
X316938Y232200D01*
X314858Y235312D01*
X312212Y237959D01*
X309100Y240038D01*
X305642Y241470D01*
X301971Y242200D01*
D02*
G37*
G36*
X496971Y242200D02*
X493229D01*
X489558Y241470D01*
X486100Y240037D01*
X482988Y237958D01*
X480342Y235312D01*
X478262Y232200D01*
X476830Y228742D01*
X476100Y225071D01*
Y221329D01*
X476830Y217658D01*
X478262Y214200D01*
X480342Y211088D01*
X482988Y208442D01*
X486100Y206362D01*
X489558Y204930D01*
X493229Y204200D01*
X496971D01*
X500642Y204930D01*
X504100Y206362D01*
X507212Y208442D01*
X509858Y211088D01*
X511938Y214200D01*
X513370Y217658D01*
X514100Y221329D01*
Y225071D01*
X513370Y228742D01*
X511938Y232200D01*
X509858Y235312D01*
X507212Y237958D01*
X504100Y240037D01*
X500642Y241470D01*
X496971Y242200D01*
D02*
G37*
G36*
X106971Y242196D02*
X103229D01*
X99558Y241466D01*
X96100Y240034D01*
X92988Y237955D01*
X90342Y235308D01*
X88262Y232196D01*
X86830Y228738D01*
X86100Y225068D01*
Y221325D01*
X86830Y217654D01*
X88262Y214197D01*
X90342Y211085D01*
X92988Y208438D01*
X96100Y206359D01*
X99558Y204927D01*
X103229Y204196D01*
X106971D01*
X110642Y204927D01*
X114100Y206359D01*
X117212Y208438D01*
X119858Y211085D01*
X121938Y214197D01*
X123370Y217654D01*
X124100Y221325D01*
Y225068D01*
X123370Y228738D01*
X121938Y232196D01*
X119858Y235308D01*
X117212Y237955D01*
X114100Y240034D01*
X110642Y241466D01*
X106971Y242196D01*
D02*
G37*
G36*
X652752Y218889D02*
X650250D01*
X647834Y218241D01*
X645668Y216991D01*
X643899Y215222D01*
X642648Y213056D01*
X642001Y210639D01*
Y208138D01*
X642648Y205722D01*
X643899Y203556D01*
X645668Y201787D01*
X647834Y200536D01*
X650250Y199889D01*
X652752D01*
X655168Y200536D01*
X657334Y201787D01*
X659103Y203556D01*
X660354Y205722D01*
X661001Y208138D01*
Y210639D01*
X660354Y213056D01*
X659103Y215222D01*
X657334Y216991D01*
X655168Y218241D01*
X652752Y218889D01*
D02*
G37*
G36*
X686541Y208119D02*
X677771D01*
Y199349D01*
X677823D01*
X680376Y200033D01*
X682666Y201355D01*
X684535Y203224D01*
X685857Y205513D01*
X686541Y208067D01*
Y208119D01*
D02*
G37*
G36*
X675231D02*
X666461D01*
Y208067D01*
X667145Y205513D01*
X668467Y203224D01*
X670336Y201355D01*
X672626Y200033D01*
X675179Y199349D01*
X675231D01*
Y208119D01*
D02*
G37*
G36*
X-2559Y203338D02*
X-4548D01*
X-6386Y202577D01*
X-7792Y201171D01*
X-8553Y199333D01*
Y197344D01*
X-7792Y195506D01*
X-6386Y194099D01*
X-4548Y193338D01*
X-2559D01*
X-721Y194099D01*
X685Y195506D01*
X1447Y197344D01*
Y199333D01*
X685Y201171D01*
X-721Y202577D01*
X-2559Y203338D01*
D02*
G37*
G36*
X192259Y202763D02*
X190270D01*
X188433Y202002D01*
X187026Y200596D01*
X186265Y198758D01*
Y196769D01*
X187026Y194931D01*
X188433Y193524D01*
X190270Y192763D01*
X192259D01*
X194097Y193524D01*
X195504Y194931D01*
X196265Y196769D01*
Y198758D01*
X195504Y200596D01*
X194097Y202002D01*
X192259Y202763D01*
D02*
G37*
G36*
X388141Y202198D02*
X386152D01*
X384314Y201437D01*
X382907Y200030D01*
X382146Y198193D01*
Y196204D01*
X382907Y194366D01*
X384314Y192959D01*
X386152Y192198D01*
X388141D01*
X389978Y192959D01*
X391385Y194366D01*
X392146Y196204D01*
Y198193D01*
X391385Y200030D01*
X389978Y201437D01*
X388141Y202198D01*
D02*
G37*
G36*
X702752Y218889D02*
X700250D01*
X697834Y218241D01*
X695668Y216991D01*
X693899Y215222D01*
X692648Y213056D01*
X692001Y210639D01*
Y208138D01*
X692648Y205722D01*
X693899Y203556D01*
X695668Y201787D01*
X697834Y200536D01*
X698187Y200442D01*
Y193869D01*
X692020Y187702D01*
X597832D01*
X590247Y195286D01*
Y196594D01*
X589486Y198432D01*
X588080Y199839D01*
X586242Y200600D01*
X584253D01*
X582415Y199839D01*
X581008Y198432D01*
X580247Y196594D01*
Y194605D01*
X581008Y192768D01*
X582415Y191361D01*
X584253Y190600D01*
X585561D01*
X594116Y182045D01*
X595191Y181327D01*
X596459Y181074D01*
X693392D01*
X694660Y181327D01*
X695735Y182045D01*
X703844Y190154D01*
X704562Y191229D01*
X704815Y192497D01*
Y200442D01*
X705168Y200536D01*
X707334Y201787D01*
X709103Y203556D01*
X710354Y205722D01*
X711001Y208138D01*
Y210639D01*
X710354Y213056D01*
X709103Y215222D01*
X707334Y216991D01*
X705168Y218241D01*
X702752Y218889D01*
D02*
G37*
G36*
X238471Y216800D02*
X234729D01*
X231058Y216070D01*
X227600Y214638D01*
X224488Y212559D01*
X221842Y209912D01*
X219762Y206800D01*
X218330Y203342D01*
X217600Y199672D01*
Y195929D01*
X218330Y192258D01*
X219762Y188801D01*
X221842Y185689D01*
X224360Y183170D01*
X224211Y182129D01*
X224142Y181900D01*
X223749D01*
X221333Y181253D01*
X219167Y180002D01*
X217398Y178234D01*
X216147Y176067D01*
X215500Y173651D01*
Y171150D01*
X216147Y168734D01*
X217398Y166567D01*
X219167Y164799D01*
X221333Y163548D01*
X223749Y162901D01*
X226251D01*
X228667Y163548D01*
X230833Y164799D01*
X232602Y166567D01*
X233853Y168734D01*
X234500Y171150D01*
Y173651D01*
X233853Y176067D01*
X232801Y177889D01*
X233462Y179052D01*
X234729Y178800D01*
X238471D01*
X242142Y179531D01*
X245600Y180963D01*
X248712Y183042D01*
X251358Y185689D01*
X253438Y188801D01*
X254870Y192258D01*
X255600Y195929D01*
Y199672D01*
X254870Y203342D01*
X253438Y206800D01*
X251358Y209912D01*
X248712Y212559D01*
X245600Y214638D01*
X242142Y216070D01*
X238471Y216800D01*
D02*
G37*
G36*
X433471Y216800D02*
X429729D01*
X426058Y216070D01*
X422600Y214638D01*
X419488Y212558D01*
X416842Y209912D01*
X414762Y206800D01*
X413330Y203342D01*
X412600Y199671D01*
Y195929D01*
X413330Y192258D01*
X414762Y188800D01*
X416842Y185688D01*
X419360Y183170D01*
X419211Y182129D01*
X419142Y181900D01*
X418749D01*
X416333Y181253D01*
X414167Y180002D01*
X412398Y178233D01*
X411147Y176067D01*
X410500Y173651D01*
Y171149D01*
X411147Y168733D01*
X412398Y166567D01*
X414167Y164798D01*
X416333Y163547D01*
X418749Y162900D01*
X421251D01*
X423667Y163547D01*
X425833Y164798D01*
X427602Y166567D01*
X428853Y168733D01*
X429500Y171149D01*
Y173651D01*
X428853Y176067D01*
X427801Y177889D01*
X428462Y179052D01*
X429729Y178800D01*
X433471D01*
X437142Y179530D01*
X440600Y180962D01*
X443712Y183042D01*
X446358Y185688D01*
X448438Y188800D01*
X449870Y192258D01*
X450600Y195929D01*
Y199671D01*
X449870Y203342D01*
X448438Y206800D01*
X446358Y209912D01*
X443712Y212558D01*
X440600Y214638D01*
X437142Y216070D01*
X433471Y216800D01*
D02*
G37*
G36*
X43471Y216796D02*
X39729D01*
X36058Y216066D01*
X32600Y214634D01*
X29488Y212555D01*
X26842Y209908D01*
X24762Y206796D01*
X23330Y203339D01*
X22600Y199668D01*
Y195925D01*
X23330Y192254D01*
X24762Y188797D01*
X26842Y185685D01*
X29360Y183167D01*
X29211Y182125D01*
X29142Y181896D01*
X28749D01*
X26333Y181249D01*
X24167Y179998D01*
X22398Y178230D01*
X21147Y176063D01*
X20500Y173647D01*
Y171146D01*
X21147Y168730D01*
X22398Y166563D01*
X24167Y164795D01*
X26333Y163544D01*
X28749Y162896D01*
X31251D01*
X33667Y163544D01*
X35833Y164795D01*
X37602Y166563D01*
X38853Y168730D01*
X39500Y171146D01*
Y173647D01*
X38853Y176063D01*
X37801Y177885D01*
X38462Y179048D01*
X39729Y178797D01*
X43471D01*
X47142Y179527D01*
X50600Y180959D01*
X53712Y183038D01*
X56358Y185685D01*
X58438Y188797D01*
X59870Y192254D01*
X60600Y195925D01*
Y199668D01*
X59870Y203339D01*
X58438Y206796D01*
X56358Y209908D01*
X53712Y212555D01*
X50600Y214634D01*
X47142Y216066D01*
X43471Y216796D01*
D02*
G37*
G36*
X326251Y181900D02*
X323749D01*
X321333Y181253D01*
X319167Y180002D01*
X317398Y178234D01*
X316147Y176067D01*
X315500Y173651D01*
Y171150D01*
X316147Y168734D01*
X317398Y166567D01*
X319167Y164799D01*
X321333Y163548D01*
X323749Y162901D01*
X326251D01*
X328667Y163548D01*
X330833Y164799D01*
X332602Y166567D01*
X333853Y168734D01*
X334500Y171150D01*
Y173651D01*
X333853Y176067D01*
X332602Y178234D01*
X330833Y180002D01*
X328667Y181253D01*
X326251Y181900D01*
D02*
G37*
G36*
X521251Y181900D02*
X518749D01*
X516333Y181253D01*
X514167Y180002D01*
X512398Y178233D01*
X511147Y176067D01*
X510500Y173651D01*
Y171149D01*
X511147Y168733D01*
X512398Y166567D01*
X514167Y164798D01*
X516333Y163547D01*
X518749Y162900D01*
X521251D01*
X523667Y163547D01*
X525833Y164798D01*
X527602Y166567D01*
X528853Y168733D01*
X529500Y171149D01*
Y173651D01*
X528853Y176067D01*
X527602Y178233D01*
X525833Y180002D01*
X523667Y181253D01*
X521251Y181900D01*
D02*
G37*
G36*
X131251Y181896D02*
X128749D01*
X126333Y181249D01*
X124167Y179998D01*
X122398Y178230D01*
X121147Y176063D01*
X120500Y173647D01*
Y171146D01*
X121147Y168730D01*
X122398Y166563D01*
X124167Y164795D01*
X126333Y163544D01*
X128749Y162896D01*
X131251D01*
X133667Y163544D01*
X135833Y164795D01*
X137602Y166563D01*
X138853Y168730D01*
X139500Y171146D01*
Y173647D01*
X138853Y176063D01*
X137602Y178230D01*
X135833Y179998D01*
X133667Y181249D01*
X131251Y181896D01*
D02*
G37*
G36*
X277062Y193339D02*
X272938D01*
X268892Y192535D01*
X265082Y190956D01*
X261652Y188665D01*
X258736Y185748D01*
X256444Y182319D01*
X254866Y178508D01*
X254061Y174463D01*
Y170338D01*
X254866Y166293D01*
X256444Y162482D01*
X258736Y159053D01*
X261652Y156136D01*
X265082Y153844D01*
X268892Y152266D01*
X272938Y151461D01*
X277062D01*
X281108Y152266D01*
X284918Y153844D01*
X288348Y156136D01*
X291264Y159053D01*
X293556Y162482D01*
X295134Y166293D01*
X295939Y170338D01*
Y174463D01*
X295134Y178508D01*
X293556Y182319D01*
X291264Y185748D01*
X288348Y188665D01*
X284918Y190956D01*
X281108Y192535D01*
X277062Y193339D01*
D02*
G37*
G36*
X472062Y193339D02*
X467938D01*
X463892Y192534D01*
X460082Y190956D01*
X456652Y188664D01*
X453736Y185748D01*
X451444Y182318D01*
X449866Y178508D01*
X449061Y174462D01*
Y170338D01*
X449866Y166292D01*
X451444Y162482D01*
X453736Y159052D01*
X456652Y156136D01*
X460082Y153844D01*
X463892Y152266D01*
X467938Y151461D01*
X472062D01*
X476108Y152266D01*
X479918Y153844D01*
X483348Y156136D01*
X486264Y159052D01*
X488556Y162482D01*
X490134Y166292D01*
X490939Y170338D01*
Y174462D01*
X490134Y178508D01*
X488556Y182318D01*
X486264Y185748D01*
X483348Y188664D01*
X479918Y190956D01*
X476108Y192534D01*
X472062Y193339D01*
D02*
G37*
G36*
X82062Y193335D02*
X77938D01*
X73892Y192531D01*
X70082Y190952D01*
X66652Y188661D01*
X63736Y185744D01*
X61444Y182315D01*
X59866Y178504D01*
X59061Y174459D01*
Y170334D01*
X59866Y166289D01*
X61444Y162478D01*
X63736Y159049D01*
X66652Y156132D01*
X70082Y153841D01*
X73892Y152262D01*
X77938Y151458D01*
X82062D01*
X86108Y152262D01*
X89918Y153841D01*
X93348Y156132D01*
X96264Y159049D01*
X98556Y162478D01*
X100134Y166289D01*
X100939Y170334D01*
Y174459D01*
X100134Y178504D01*
X98556Y182315D01*
X96264Y185744D01*
X93348Y188661D01*
X89918Y190952D01*
X86108Y192531D01*
X82062Y193335D01*
D02*
G37*
G36*
X238156Y131140D02*
X235644D01*
X233218Y130490D01*
X231042Y129234D01*
X229266Y127458D01*
X228010Y125283D01*
X227360Y122856D01*
Y120344D01*
X228010Y117918D01*
X229266Y115743D01*
X231042Y113967D01*
X233218Y112711D01*
X235644Y112060D01*
X238156D01*
X240582Y112711D01*
X242758Y113967D01*
X244534Y115743D01*
X245790Y117918D01*
X246440Y120344D01*
Y122856D01*
X245790Y125283D01*
X244534Y127458D01*
X242758Y129234D01*
X240582Y130490D01*
X238156Y131140D01*
D02*
G37*
G36*
X314356Y131140D02*
X311844D01*
X309418Y130490D01*
X307242Y129234D01*
X305466Y127458D01*
X304210Y125283D01*
X303560Y122856D01*
Y120344D01*
X304210Y117918D01*
X305466Y115743D01*
X307242Y113967D01*
X309418Y112711D01*
X311844Y112060D01*
X314356D01*
X316782Y112711D01*
X318958Y113967D01*
X320734Y115743D01*
X321990Y117918D01*
X322640Y120344D01*
Y122856D01*
X321990Y125283D01*
X320734Y127458D01*
X318958Y129234D01*
X316782Y130490D01*
X314356Y131140D01*
D02*
G37*
G36*
X433156Y131140D02*
X430644D01*
X428218Y130490D01*
X426042Y129234D01*
X424266Y127458D01*
X423010Y125282D01*
X422360Y122856D01*
Y120344D01*
X423010Y117918D01*
X424266Y115742D01*
X426042Y113966D01*
X428218Y112710D01*
X430644Y112060D01*
X433156D01*
X435582Y112710D01*
X437758Y113966D01*
X439534Y115742D01*
X440790Y117918D01*
X441440Y120344D01*
Y122856D01*
X440790Y125282D01*
X439534Y127458D01*
X437758Y129234D01*
X435582Y130490D01*
X433156Y131140D01*
D02*
G37*
G36*
X509356Y131140D02*
X506844D01*
X504418Y130490D01*
X502242Y129234D01*
X500466Y127458D01*
X499210Y125282D01*
X498560Y122856D01*
Y120344D01*
X499210Y117918D01*
X500466Y115742D01*
X502242Y113966D01*
X504418Y112710D01*
X506844Y112060D01*
X509356D01*
X511782Y112710D01*
X513958Y113966D01*
X515734Y115742D01*
X516990Y117918D01*
X517640Y120344D01*
Y122856D01*
X516990Y125282D01*
X515734Y127458D01*
X513958Y129234D01*
X511782Y130490D01*
X509356Y131140D01*
D02*
G37*
G36*
X43156Y131137D02*
X40644D01*
X38218Y130486D01*
X36042Y129230D01*
X34266Y127454D01*
X33010Y125279D01*
X32360Y122852D01*
Y120341D01*
X33010Y117914D01*
X34266Y115739D01*
X36042Y113963D01*
X38218Y112707D01*
X40644Y112057D01*
X43156D01*
X45582Y112707D01*
X47758Y113963D01*
X49534Y115739D01*
X50790Y117914D01*
X51440Y120341D01*
Y122852D01*
X50790Y125279D01*
X49534Y127454D01*
X47758Y129230D01*
X45582Y130486D01*
X43156Y131137D01*
D02*
G37*
G36*
X119356Y131137D02*
X116844D01*
X114418Y130486D01*
X112242Y129230D01*
X110466Y127454D01*
X109210Y125279D01*
X108560Y122852D01*
Y120340D01*
X109210Y117914D01*
X110466Y115739D01*
X112242Y113963D01*
X114418Y112707D01*
X116844Y112057D01*
X119356D01*
X121782Y112707D01*
X123958Y113963D01*
X125734Y115739D01*
X126990Y117914D01*
X127640Y120340D01*
Y122852D01*
X126990Y125279D01*
X125734Y127454D01*
X123958Y129230D01*
X121782Y130486D01*
X119356Y131137D01*
D02*
G37*
G36*
X217743Y110229D02*
X215753D01*
X213916Y109468D01*
X212509Y108061D01*
X211748Y106224D01*
Y104235D01*
X212509Y102397D01*
X213916Y100990D01*
X215753Y100229D01*
X217743D01*
X219580Y100990D01*
X220987Y102397D01*
X221748Y104235D01*
Y106224D01*
X220987Y108061D01*
X219580Y109468D01*
X217743Y110229D01*
D02*
G37*
G36*
X404799Y109492D02*
X402810D01*
X400972Y108730D01*
X399566Y107324D01*
X398805Y105486D01*
Y103497D01*
X399566Y101659D01*
X400972Y100253D01*
X402810Y99492D01*
X404799D01*
X406637Y100253D01*
X408043Y101659D01*
X408805Y103497D01*
Y105486D01*
X408043Y107324D01*
X406637Y108730D01*
X404799Y109492D01*
D02*
G37*
G36*
X487855Y118166D02*
X453425D01*
X452645Y118011D01*
X452645Y118011D01*
X451711Y117624D01*
X451049Y117182D01*
X450335Y116467D01*
X449893Y115806D01*
X449506Y114872D01*
X449351Y114092D01*
Y79661D01*
X449506Y78881D01*
X449893Y77947D01*
X450335Y77286D01*
X451049Y76571D01*
X451711Y76129D01*
X452645Y75743D01*
X453425Y75587D01*
X487855D01*
X488636Y75743D01*
X489569Y76129D01*
X490231Y76571D01*
X490945Y77286D01*
X491387Y77947D01*
X491774Y78881D01*
X491929Y79661D01*
Y114092D01*
X491774Y114872D01*
X491774Y114872D01*
X491387Y115806D01*
X490945Y116467D01*
X490231Y117182D01*
X489569Y117624D01*
X488636Y118011D01*
X487855Y118166D01*
D02*
G37*
G36*
X292223Y118151D02*
X257792D01*
X257012Y117996D01*
X257012Y117996D01*
X256078Y117609D01*
X255417Y117167D01*
X254702Y116452D01*
X254260Y115791D01*
X253874Y114857D01*
X253718Y114077D01*
Y79646D01*
X253874Y78866D01*
X254260Y77932D01*
X254702Y77271D01*
X255417Y76556D01*
X256078Y76114D01*
X257012Y75728D01*
X257792Y75572D01*
X292223D01*
X293003Y75728D01*
X293937Y76114D01*
X294598Y76556D01*
X295313Y77271D01*
X295755Y77932D01*
X296141Y78866D01*
X296297Y79646D01*
Y114077D01*
X296141Y114857D01*
X296141Y114857D01*
X295755Y115791D01*
X295313Y116452D01*
X294598Y117167D01*
X293937Y117609D01*
X293003Y117996D01*
X292223Y118151D01*
D02*
G37*
G36*
X96272Y118107D02*
X61842D01*
X61061Y117952D01*
X61061Y117952D01*
X60128Y117565D01*
X59466Y117123D01*
X58752Y116409D01*
X58310Y115747D01*
X57923Y114814D01*
X57768Y114033D01*
Y79603D01*
X57923Y78822D01*
X58310Y77889D01*
X58752Y77227D01*
X59466Y76513D01*
X60128Y76071D01*
X61061Y75684D01*
X61842Y75529D01*
X96272D01*
X97053Y75684D01*
X97986Y76071D01*
X98648Y76513D01*
X99362Y77227D01*
X99804Y77889D01*
X100191Y78822D01*
X100346Y79603D01*
Y114033D01*
X100191Y114814D01*
X100191Y114814D01*
X99804Y115747D01*
X99362Y116409D01*
X98648Y117123D01*
X97986Y117565D01*
X97053Y117952D01*
X96272Y118107D01*
D02*
G37*
G36*
X113399Y79423D02*
Y75222D01*
X117599D01*
X116825Y77090D01*
X115267Y78649D01*
X113399Y79423D01*
D02*
G37*
G36*
X110859D02*
X108990Y78649D01*
X107432Y77090D01*
X106658Y75222D01*
X110859D01*
Y79423D01*
D02*
G37*
G36*
X501313Y78330D02*
Y74130D01*
X505513D01*
X504739Y75998D01*
X503181Y77557D01*
X501313Y78330D01*
D02*
G37*
G36*
X498773D02*
X496904Y77557D01*
X495346Y75998D01*
X494572Y74130D01*
X498773D01*
Y78330D01*
D02*
G37*
G36*
X307370Y76955D02*
Y72754D01*
X311570D01*
X310797Y74623D01*
X309238Y76181D01*
X307370Y76955D01*
D02*
G37*
G36*
X304830D02*
X302962Y76181D01*
X301404Y74623D01*
X300630Y72754D01*
X304830D01*
Y76955D01*
D02*
G37*
G36*
X117599Y72682D02*
X113399D01*
Y68482D01*
X115267Y69256D01*
X116825Y70814D01*
X117599Y72682D01*
D02*
G37*
G36*
X110859D02*
X106658D01*
X107432Y70814D01*
X108990Y69256D01*
X110859Y68482D01*
Y72682D01*
D02*
G37*
G36*
X505513Y71590D02*
X501313D01*
Y67389D01*
X503181Y68163D01*
X504739Y69722D01*
X505513Y71590D01*
D02*
G37*
G36*
X498773D02*
X494572D01*
X495346Y69722D01*
X496904Y68163D01*
X498773Y67389D01*
Y71590D01*
D02*
G37*
G36*
X311570Y70214D02*
X307370D01*
Y66014D01*
X309238Y66788D01*
X310797Y68346D01*
X311570Y70214D01*
D02*
G37*
G36*
X304830D02*
X300630D01*
X301404Y68346D01*
X302962Y66788D01*
X304830Y66014D01*
Y70214D01*
D02*
G37*
G36*
X921773Y19692D02*
X918227D01*
X914750Y19001D01*
X911474Y17644D01*
X908526Y15674D01*
X906019Y13167D01*
X904049Y10218D01*
X902692Y6943D01*
X902000Y3465D01*
Y-81D01*
X902692Y-3558D01*
X904049Y-6834D01*
X906019Y-9782D01*
X908526Y-12289D01*
X911474Y-14259D01*
X914750Y-15616D01*
X918227Y-16308D01*
X921773D01*
X925250Y-15616D01*
X928526Y-14259D01*
X931474Y-12289D01*
X933981Y-9782D01*
X935951Y-6834D01*
X937308Y-3558D01*
X938000Y-81D01*
Y3465D01*
X937308Y6943D01*
X935951Y10218D01*
X933981Y13167D01*
X931474Y15674D01*
X928526Y17644D01*
X925250Y19001D01*
X921773Y19692D01*
D02*
G37*
G36*
X1773Y18000D02*
X-1773D01*
X-5250Y17308D01*
X-8526Y15951D01*
X-11474Y13981D01*
X-13981Y11474D01*
X-15951Y8526D01*
X-17308Y5250D01*
X-18000Y1773D01*
Y-1773D01*
X-17308Y-5250D01*
X-15951Y-8526D01*
X-13981Y-11474D01*
X-11474Y-13981D01*
X-8526Y-15951D01*
X-5250Y-17308D01*
X-1773Y-18000D01*
X1773D01*
X5250Y-17308D01*
X8526Y-15951D01*
X11474Y-13981D01*
X13981Y-11474D01*
X15951Y-8526D01*
X17308Y-5250D01*
X18000Y-1773D01*
Y1773D01*
X17308Y5250D01*
X15951Y8526D01*
X13981Y11474D01*
X11474Y13981D01*
X8526Y15951D01*
X5250Y17308D01*
X1773Y18000D01*
D02*
G37*
%LPD*%
G36*
X819031Y858422D02*
X819416D01*
X819830Y858393D01*
X820245Y858363D01*
X820422Y858348D01*
X820600Y858334D01*
X820748Y858304D01*
X820867Y858274D01*
X820882D01*
X820911Y858260D01*
X820956Y858245D01*
X821015Y858230D01*
X821178Y858156D01*
X821385Y858067D01*
X821607Y857934D01*
X821859Y857756D01*
X822096Y857534D01*
X822333Y857267D01*
Y857253D01*
X822362Y857238D01*
X822392Y857193D01*
X822421Y857134D01*
X822481Y857045D01*
X822525Y856956D01*
X822584Y856853D01*
X822644Y856734D01*
X822747Y856438D01*
X822851Y856112D01*
X822910Y855713D01*
X822940Y855283D01*
Y855268D01*
Y855239D01*
Y855194D01*
Y855120D01*
X822925Y855046D01*
Y854942D01*
X822895Y854735D01*
X822851Y854483D01*
X822792Y854202D01*
X822703Y853936D01*
X822584Y853684D01*
X822570Y853654D01*
X822525Y853580D01*
X822451Y853462D01*
X822347Y853314D01*
X822229Y853166D01*
X822066Y852988D01*
X821903Y852825D01*
X821711Y852677D01*
X821681Y852662D01*
X821622Y852618D01*
X821518Y852558D01*
X821385Y852484D01*
X821222Y852395D01*
X821044Y852321D01*
X820852Y852247D01*
X820645Y852188D01*
X820615D01*
X820571Y852173D01*
X820511D01*
X820437Y852159D01*
X820334Y852144D01*
X820230Y852129D01*
X820097D01*
X819963Y852114D01*
X819800Y852099D01*
X819623Y852085D01*
X819430Y852070D01*
X819223D01*
X819001Y852055D01*
X817165D01*
Y848190D01*
X815091D01*
Y858437D01*
X818868D01*
X819031Y858422D01*
D02*
G37*
G36*
X802608Y856705D02*
X799587D01*
Y848190D01*
X797514D01*
Y856705D01*
X794479D01*
Y858437D01*
X802608D01*
Y856705D01*
D02*
G37*
G36*
X808694Y858615D02*
X808842D01*
X809035Y858585D01*
X809257Y858556D01*
X809509Y858511D01*
X809775Y858452D01*
X810057Y858378D01*
X810353Y858289D01*
X810649Y858171D01*
X810960Y858037D01*
X811256Y857875D01*
X811552Y857682D01*
X811834Y857460D01*
X812100Y857208D01*
X812115Y857193D01*
X812160Y857149D01*
X812234Y857060D01*
X812308Y856956D01*
X812411Y856808D01*
X812530Y856631D01*
X812648Y856423D01*
X812781Y856186D01*
X812915Y855935D01*
X813033Y855639D01*
X813152Y855313D01*
X813255Y854972D01*
X813344Y854587D01*
X813403Y854187D01*
X813448Y853758D01*
X813463Y853299D01*
Y853269D01*
Y853195D01*
X813448Y853062D01*
Y852884D01*
X813418Y852677D01*
X813389Y852440D01*
X813344Y852159D01*
X813300Y851877D01*
X813226Y851566D01*
X813137Y851240D01*
X813018Y850915D01*
X812885Y850589D01*
X812737Y850278D01*
X812544Y849967D01*
X812337Y849671D01*
X812100Y849389D01*
X812085Y849375D01*
X812041Y849330D01*
X811967Y849256D01*
X811849Y849167D01*
X811715Y849064D01*
X811552Y848945D01*
X811360Y848827D01*
X811152Y848693D01*
X810901Y848560D01*
X810634Y848442D01*
X810338Y848323D01*
X810012Y848220D01*
X809672Y848131D01*
X809302Y848057D01*
X808916Y848012D01*
X808502Y847998D01*
X808398D01*
X808280Y848012D01*
X808132Y848027D01*
X807939Y848042D01*
X807717Y848072D01*
X807465Y848116D01*
X807199Y848175D01*
X806903Y848249D01*
X806621Y848338D01*
X806310Y848456D01*
X806014Y848590D01*
X805703Y848738D01*
X805422Y848930D01*
X805140Y849138D01*
X804874Y849389D01*
X804859Y849404D01*
X804815Y849449D01*
X804755Y849538D01*
X804667Y849641D01*
X804563Y849789D01*
X804444Y849967D01*
X804326Y850160D01*
X804208Y850396D01*
X804074Y850648D01*
X803956Y850944D01*
X803837Y851255D01*
X803734Y851596D01*
X803645Y851966D01*
X803586Y852366D01*
X803541Y852795D01*
X803526Y853240D01*
Y853254D01*
Y853314D01*
Y853388D01*
X803541Y853506D01*
Y853639D01*
X803556Y853788D01*
X803571Y853965D01*
X803586Y854158D01*
X803645Y854572D01*
X803719Y855017D01*
X803837Y855461D01*
X803985Y855875D01*
Y855890D01*
X804000Y855905D01*
X804030Y855949D01*
X804045Y856009D01*
X804133Y856157D01*
X804237Y856349D01*
X804370Y856571D01*
X804533Y856794D01*
X804726Y857045D01*
X804933Y857282D01*
X804948Y857297D01*
X804963Y857312D01*
X805037Y857386D01*
X805170Y857504D01*
X805333Y857638D01*
X805525Y857786D01*
X805748Y857949D01*
X805999Y858097D01*
X806266Y858215D01*
X806281D01*
X806310Y858230D01*
X806369Y858260D01*
X806443Y858274D01*
X806532Y858319D01*
X806636Y858348D01*
X806769Y858378D01*
X806903Y858422D01*
X807228Y858496D01*
X807598Y858570D01*
X808028Y858615D01*
X808472Y858630D01*
X808576D01*
X808694Y858615D01*
D02*
G37*
%LPC*%
G36*
X818705Y856705D02*
X817165D01*
Y853788D01*
X818586D01*
X818690Y853802D01*
X818956D01*
X819223Y853817D01*
X819490Y853847D01*
X819726Y853891D01*
X819830Y853906D01*
X819919Y853936D01*
X819934Y853950D01*
X819993Y853965D01*
X820067Y854010D01*
X820156Y854054D01*
X820259Y854128D01*
X820363Y854217D01*
X820482Y854321D01*
X820571Y854439D01*
X820585Y854454D01*
X820615Y854498D01*
X820645Y854572D01*
X820689Y854676D01*
X820733Y854794D01*
X820778Y854928D01*
X820793Y855076D01*
X820807Y855239D01*
Y855268D01*
Y855328D01*
X820793Y855431D01*
X820763Y855564D01*
X820719Y855713D01*
X820659Y855875D01*
X820585Y856023D01*
X820467Y856172D01*
X820452Y856186D01*
X820408Y856231D01*
X820334Y856290D01*
X820245Y856364D01*
X820126Y856453D01*
X819978Y856527D01*
X819815Y856586D01*
X819638Y856631D01*
X819623D01*
X819564Y856646D01*
X819460Y856660D01*
X819312Y856675D01*
X819119D01*
X818986Y856690D01*
X818853D01*
X818705Y856705D01*
D02*
G37*
G36*
X808502Y856868D02*
X808383D01*
X808295Y856853D01*
X808176Y856838D01*
X808058Y856823D01*
X807761Y856764D01*
X807436Y856646D01*
X807258Y856586D01*
X807080Y856497D01*
X806917Y856394D01*
X806740Y856275D01*
X806577Y856142D01*
X806429Y855979D01*
X806414Y855964D01*
X806399Y855935D01*
X806355Y855890D01*
X806310Y855816D01*
X806251Y855713D01*
X806192Y855609D01*
X806118Y855476D01*
X806044Y855313D01*
X805970Y855135D01*
X805896Y854942D01*
X805836Y854720D01*
X805777Y854483D01*
X805733Y854217D01*
X805688Y853936D01*
X805674Y853639D01*
X805659Y853314D01*
Y853299D01*
Y853240D01*
Y853151D01*
X805674Y853032D01*
X805688Y852884D01*
X805703Y852707D01*
X805733Y852529D01*
X805762Y852321D01*
X805851Y851892D01*
X805999Y851463D01*
X806088Y851240D01*
X806192Y851033D01*
X806325Y850841D01*
X806458Y850663D01*
X806473Y850648D01*
X806503Y850619D01*
X806547Y850574D01*
X806606Y850530D01*
X806680Y850456D01*
X806784Y850382D01*
X806888Y850293D01*
X807021Y850219D01*
X807302Y850041D01*
X807658Y849908D01*
X807850Y849848D01*
X808058Y849804D01*
X808280Y849774D01*
X808502Y849760D01*
X808620D01*
X808709Y849774D01*
X808813Y849789D01*
X808931Y849804D01*
X809213Y849878D01*
X809538Y849982D01*
X809701Y850056D01*
X809879Y850130D01*
X810042Y850234D01*
X810220Y850352D01*
X810383Y850485D01*
X810531Y850648D01*
X810545Y850663D01*
X810560Y850693D01*
X810605Y850737D01*
X810649Y850811D01*
X810723Y850915D01*
X810782Y851033D01*
X810856Y851166D01*
X810930Y851329D01*
X811004Y851507D01*
X811078Y851700D01*
X811152Y851922D01*
X811212Y852173D01*
X811256Y852425D01*
X811301Y852707D01*
X811315Y853018D01*
X811330Y853343D01*
Y853358D01*
Y853417D01*
Y853506D01*
X811315Y853639D01*
X811301Y853788D01*
X811286Y853950D01*
X811271Y854143D01*
X811227Y854335D01*
X811138Y854765D01*
X811004Y855209D01*
X810916Y855431D01*
X810812Y855624D01*
X810679Y855816D01*
X810545Y855994D01*
X810531Y856009D01*
X810516Y856038D01*
X810471Y856068D01*
X810412Y856127D01*
X810323Y856201D01*
X810234Y856275D01*
X810131Y856349D01*
X809997Y856438D01*
X809864Y856512D01*
X809701Y856586D01*
X809361Y856734D01*
X809168Y856794D01*
X808961Y856823D01*
X808739Y856853D01*
X808502Y856868D01*
D02*
G37*
%LPD*%
G36*
X160538Y744744D02*
X160791Y743476D01*
X161509Y742401D01*
X172009Y731901D01*
X171542Y730631D01*
X150508D01*
X150026Y731793D01*
X148619Y733200D01*
X146782Y733961D01*
X144793D01*
X142955Y733200D01*
X141549Y731793D01*
X140787Y729956D01*
Y727967D01*
X141239Y726876D01*
X140162Y726156D01*
X132783Y733535D01*
X133503Y734612D01*
X134140Y734348D01*
X136129D01*
X137967Y735109D01*
X139374Y736516D01*
X140135Y738353D01*
Y740342D01*
X139374Y742180D01*
X137967Y743587D01*
X136129Y744348D01*
X134821D01*
X117378Y761791D01*
Y768303D01*
X160538D01*
Y744744D01*
D02*
G37*
G36*
X448160Y587644D02*
X446322Y586883D01*
X445397Y585957D01*
X366450D01*
X366198Y587228D01*
X367303Y587685D01*
X368483Y588865D01*
X448043D01*
X448160Y587644D01*
D02*
G37*
G36*
X579204Y471777D02*
X580375Y471544D01*
X580375Y471544D01*
X649849D01*
X650016Y470274D01*
X649992Y470268D01*
X647825Y469017D01*
X646057Y467248D01*
X644806Y465082D01*
X644158Y462666D01*
Y460164D01*
X644806Y457748D01*
X646057Y455582D01*
X647825Y453813D01*
X649992Y452562D01*
X652408Y451915D01*
X654909D01*
X657325Y452562D01*
X659492Y453813D01*
X661260Y455582D01*
X662511Y457748D01*
X663158Y460164D01*
Y462666D01*
X662511Y465082D01*
X661260Y467248D01*
X659492Y469017D01*
X658829Y469399D01*
X658680Y470662D01*
X659516Y471544D01*
X670658D01*
X671193Y470274D01*
X670649Y468961D01*
Y467270D01*
X671296Y465708D01*
X672492Y464513D01*
X674054Y463866D01*
X675745D01*
X677307Y464513D01*
X677583Y464789D01*
X682888D01*
Y464353D01*
X695138D01*
Y452308D01*
X691290D01*
X690110Y453488D01*
X688273Y454249D01*
X686283D01*
X684446Y453488D01*
X683039Y452081D01*
X682278Y450243D01*
Y448254D01*
X683039Y446417D01*
X684154Y445302D01*
X683741Y444032D01*
X654657D01*
X630833Y467856D01*
X629841Y468519D01*
X628670Y468751D01*
X628670Y468751D01*
X580147D01*
X577531Y471367D01*
X578340Y472354D01*
X579204Y471777D01*
D02*
G37*
G36*
X604989Y573768D02*
X613571D01*
Y572498D01*
X614841D01*
Y564897D01*
X616516D01*
Y558189D01*
X613970D01*
Y548368D01*
X612700D01*
Y547098D01*
X603885D01*
Y543197D01*
X578530D01*
Y545978D01*
X583290D01*
Y551518D01*
Y557058D01*
X578530D01*
Y567644D01*
X583480D01*
Y574184D01*
X584750D01*
Y575454D01*
X591790D01*
Y576195D01*
X604989D01*
Y573768D01*
D02*
G37*
%LPC*%
G36*
X591790Y572914D02*
X586020D01*
Y567644D01*
X591790D01*
Y572914D01*
D02*
G37*
G36*
X612301Y571228D02*
X604989D01*
Y564897D01*
X612301D01*
Y571228D01*
D02*
G37*
G36*
X592850Y557058D02*
X585830D01*
Y552788D01*
X592850D01*
Y557058D01*
D02*
G37*
G36*
X611430Y558189D02*
X603885D01*
Y549638D01*
X611430D01*
Y558189D01*
D02*
G37*
G36*
X592850Y550248D02*
X585830D01*
Y545978D01*
X592850D01*
Y550248D01*
D02*
G37*
%LPD*%
D10*
X273759Y588790D02*
G03*
X274022Y589053I0J263D01*
G01*
X258546Y588790D02*
X273759D01*
X249300Y526106D02*
X252029Y523377D01*
X234283Y526106D02*
X249300D01*
X252029Y523377D02*
X252976D01*
X712081Y511990D02*
Y526880D01*
X233160Y526106D02*
X234283D01*
X232168Y525114D02*
X233160Y526106D01*
X211707Y525114D02*
X232168D01*
X209966Y523373D02*
X211707Y525114D01*
X328691Y598467D02*
X344514Y582644D01*
X449155D01*
X114064Y602803D02*
Y621067D01*
X149943Y579697D02*
X166827D01*
X323731Y640489D02*
X562557D01*
X568838Y634208D01*
X585247Y195600D02*
X596459Y184388D01*
X693392D01*
X701501Y192497D01*
Y209389D01*
X174683Y733914D02*
X599440D01*
X599503Y733851D01*
X145787Y728961D02*
X146734D01*
X148378Y727317D02*
X686555D01*
X750480Y791242D01*
X146734Y728961D02*
X148378Y727317D01*
X202964Y748770D02*
Y777803D01*
X202643Y748448D02*
X202964Y748770D01*
X163852Y744744D02*
Y776791D01*
Y744744D02*
X174683Y733914D01*
X163852Y776791D02*
X164864Y777803D01*
X750480Y791242D02*
Y816280D01*
X133651Y621225D02*
X140371D01*
X140401Y621255D01*
X126764Y614338D02*
X133651Y621225D01*
X126764Y602803D02*
Y614338D01*
X775880Y798178D02*
X777315Y796743D01*
X775880Y798178D02*
Y816280D01*
X152164Y602803D02*
Y621493D01*
X139464Y590176D02*
Y602803D01*
X114064Y760418D02*
Y777803D01*
X88465Y603002D02*
Y649148D01*
X88679Y648934D02*
X89001Y648613D01*
X63264Y758965D02*
Y777803D01*
X75964D02*
Y792823D01*
X102479Y603918D02*
Y639387D01*
X88465Y603002D02*
X88664Y602803D01*
X101364D02*
X102479Y603918D01*
X78229Y795087D02*
Y796034D01*
X75964Y792823D02*
X78229Y795087D01*
X63264Y758965D02*
X63295Y758935D01*
X114064Y760418D02*
X135135Y739348D01*
X139464Y590176D02*
X149943Y579697D01*
X262920Y540537D02*
X392743D01*
X230951Y572506D02*
X262920Y540537D01*
X148616Y572506D02*
X230951D01*
X135581Y585541D02*
X148616Y572506D01*
X701501Y354389D02*
Y400038D01*
X696970Y404569D02*
X701501Y400038D01*
X96183Y585541D02*
X135581D01*
X387652Y747909D02*
X696353D01*
X387098Y748463D02*
X387652Y747909D01*
X696353D02*
X737780Y789336D01*
Y816280D01*
X574070Y505990D02*
X592030Y488031D01*
X675840D01*
X674899Y468116D02*
X674912Y468103D01*
X689138D01*
X583114Y481103D02*
X689138D01*
X460342Y603875D02*
X583114Y481103D01*
X392213Y603875D02*
X460342D01*
X94850Y576821D02*
Y584207D01*
X96183Y585541D01*
X94850Y576821D02*
X95001Y576669D01*
Y569762D02*
Y576669D01*
X93708Y568591D02*
X93829D01*
X95001Y569762D01*
X91072Y565954D02*
X93708Y568591D01*
X91072Y561111D02*
Y565954D01*
X711888Y497353D02*
Y510246D01*
X713241Y512547D02*
X723549D01*
X711888Y510246D02*
X712684Y511043D01*
Y511990D02*
X713241Y512547D01*
X712684Y511043D02*
Y511990D01*
X723549Y512547D02*
X729979Y518978D01*
Y526161D01*
D11*
X107764Y675253D02*
X120264D01*
X95264D02*
X107764D01*
X687823Y539640D02*
X688296Y540113D01*
X143826Y523373D02*
X160966D01*
X143445Y522992D02*
X143826Y523373D01*
X83331Y549073D02*
X84293Y548111D01*
X91072D01*
X75462Y549073D02*
Y602301D01*
Y528898D02*
Y549073D01*
X83331D01*
X842072Y504222D02*
X842832Y503462D01*
Y494107D02*
Y503462D01*
X842072Y504222D02*
Y521216D01*
X842221Y521365D01*
X190264Y589962D02*
Y602803D01*
X215664Y777803D02*
Y794227D01*
X139464Y777803D02*
Y794195D01*
X215193Y749414D02*
X215664Y749885D01*
Y777803D01*
X152164D02*
Y813654D01*
X88664Y757536D02*
Y777803D01*
X101364Y760629D02*
Y777803D01*
X75462Y602301D02*
X75964Y602803D01*
X220090Y809174D02*
Y831666D01*
X72688Y526123D02*
X75462Y528898D01*
X101364Y760629D02*
X144287Y717706D01*
X371133D01*
X88664Y757536D02*
X138663Y707537D01*
X363733D01*
X152164Y813654D02*
X152985Y814475D01*
X134313Y799346D02*
X139464Y794195D01*
X134313Y799346D02*
Y813115D01*
X132829Y814598D02*
X134313Y813115D01*
X219154Y809174D02*
X219248Y809080D01*
Y797810D02*
Y809080D01*
X215664Y794227D02*
X219248Y797810D01*
X190264Y589962D02*
X191436Y588790D01*
X246046D01*
X130850Y565549D02*
X196426D01*
X130339Y565037D02*
X130850Y565549D01*
X130339Y565029D02*
Y565037D01*
X128839Y566538D02*
X130339Y565037D01*
X153297Y814162D02*
X169028D01*
X152985Y814475D02*
X153297Y814162D01*
X131487Y813256D02*
X132829Y814598D01*
X115213Y813256D02*
X131487D01*
X107018Y533130D02*
X107522Y532626D01*
X119002D01*
X72688Y526123D02*
X73679D01*
X82620Y517183D02*
X93936D01*
X94564Y516554D01*
X73679Y526123D02*
X82620Y517183D01*
X364470Y591924D02*
X452649D01*
X578880Y465693D01*
X628670D01*
X459062Y595916D02*
X580375Y474603D01*
X378349Y598061D02*
X379375D01*
X381521Y595916D01*
X459062D01*
X580375Y474603D02*
X658085D01*
X107135Y533248D02*
Y540918D01*
X107018Y533130D02*
X107135Y533248D01*
X110072Y548111D02*
X110499Y547684D01*
Y544282D02*
Y547684D01*
X107135Y540918D02*
X110499Y544282D01*
X94635Y533248D02*
Y540173D01*
X94518Y533130D02*
X94635Y533248D01*
Y540173D02*
X99164Y544702D01*
Y552384D01*
X96937Y554611D02*
X99164Y552384D01*
X91072Y554611D02*
X96937D01*
X65240Y503692D02*
Y525461D01*
X64068Y502521D02*
X65240Y503692D01*
X58274Y502521D02*
X64068D01*
X65240Y525461D02*
X65902Y526123D01*
X94564Y496140D02*
X94863Y495841D01*
X94564Y496140D02*
Y516554D01*
X65902Y526123D02*
X72688D01*
X133160Y523834D02*
X142603D01*
X143445Y522992D01*
X130339Y526655D02*
Y541029D01*
Y526655D02*
X133160Y523834D01*
X628670Y465693D02*
X653390Y440973D01*
X700868D01*
X124543Y566538D02*
X128839D01*
X119116Y561111D02*
X124543Y566538D01*
X110072Y561111D02*
X119116D01*
X105823Y570242D02*
Y575294D01*
X107350Y576821D01*
X102295Y566715D02*
X105823Y570242D01*
X102295Y557232D02*
Y566715D01*
X104917Y554611D02*
X110072D01*
X102295Y557232D02*
X104917Y554611D01*
X219154Y809174D02*
X220090D01*
X227963Y833441D02*
X228890Y834369D01*
X221866Y833441D02*
X227963D01*
X220090Y831666D02*
X221866Y833441D01*
X561560Y549518D02*
X571552D01*
X572724Y548346D01*
Y533689D02*
Y548346D01*
X559560Y532518D02*
X571552D01*
X572724Y533689D01*
X696780Y436885D02*
X700868Y440973D01*
X696780Y429772D02*
Y436885D01*
Y429772D02*
X697011Y429541D01*
Y427953D02*
Y429541D01*
X629213Y548368D02*
X630357Y547224D01*
Y521698D02*
Y547224D01*
X612823Y521698D02*
X613608Y520912D01*
Y499579D02*
Y520912D01*
X700868Y440973D02*
X705388Y445493D01*
Y458353D01*
X675032Y522835D02*
Y539349D01*
X675323Y539640D01*
X690032Y522835D02*
X697032D01*
X705388Y514479D01*
Y497353D02*
Y514479D01*
X830130Y624500D02*
X841050D01*
X841060Y624510D01*
X830120Y624490D02*
X830130Y624500D01*
X855302Y521946D02*
X867675D01*
X854721Y521365D02*
X855302Y521946D01*
X868083Y460003D02*
X875586Y452500D01*
X889750D01*
X862093Y460003D02*
X868083D01*
X854572Y496698D02*
Y504222D01*
X863366Y487904D02*
X877252D01*
X854572Y496698D02*
X863366Y487904D01*
X877252D02*
X882250Y482906D01*
X889344D01*
X889750Y482500D01*
X687278Y449249D02*
X696568D01*
X698888Y451568D01*
Y458353D01*
X658085Y474603D02*
X689138D01*
X655397Y471915D02*
X658085Y474603D01*
X655397Y463154D02*
Y471915D01*
X653659Y461415D02*
X655397Y463154D01*
X728138Y468103D02*
X739547D01*
X751958Y443683D02*
Y455692D01*
X739547Y468103D02*
X751958Y455692D01*
X728138Y474603D02*
X748409D01*
X754841Y468171D02*
X789290D01*
X748409Y474603D02*
X754841Y468171D01*
X728138Y481103D02*
X748131D01*
X754354Y487326D02*
X789325D01*
X748131Y481103D02*
X754354Y487326D01*
X789325D02*
X789466Y487467D01*
X789290Y451622D02*
Y468171D01*
Y451622D02*
X789781Y451132D01*
X789466Y487467D02*
Y504426D01*
X789007Y504885D02*
X789466Y504426D01*
X826487Y648487D02*
Y652860D01*
X826430Y652916D02*
X826487Y652860D01*
Y648487D02*
X829335Y645639D01*
X829662Y661719D02*
X839855D01*
X826430Y652916D02*
Y658487D01*
X829662Y661719D01*
X829335Y645639D02*
X839786D01*
X852355Y661719D02*
X853110Y662473D01*
X863233D01*
X855867Y610103D02*
X864576D01*
X855865Y610105D02*
X855867Y610103D01*
X864576D02*
X872179Y602500D01*
X889750D01*
X874636Y632500D02*
X889750D01*
X861498Y645639D02*
X874636Y632500D01*
X852286Y645639D02*
X861498D01*
X826721Y477127D02*
X826937Y477344D01*
X840359D01*
X840575Y477560D01*
D15*
X650604Y390479D02*
Y399213D01*
X650176Y390051D02*
X650604Y390479D01*
X63040Y591516D02*
Y602578D01*
X63264Y602803D01*
X57661Y586137D02*
X63040Y591516D01*
X57661Y576139D02*
Y586137D01*
Y554471D02*
Y576139D01*
X142907Y829537D02*
X152923D01*
X132891D02*
X142907D01*
X141732Y846953D02*
X141732D01*
X142907Y829537D02*
Y845778D01*
X141732Y846953D02*
X142907Y845778D01*
X132829Y829598D02*
X132891Y829537D01*
X152923D02*
X152985Y829475D01*
X143445Y501074D02*
Y510492D01*
X143393Y501022D02*
X143445Y501074D01*
X117602Y516753D02*
X117816D01*
X107064Y516554D02*
X117403D01*
X117602Y516753D01*
X48985Y529902D02*
Y534561D01*
X55844Y541420D01*
Y552654D01*
X57661Y554471D01*
X825621Y571136D02*
X842641D01*
X820725Y566240D02*
X825621Y571136D01*
X808289Y566240D02*
X820725D01*
X808289Y566781D02*
X809030Y567522D01*
Y576210D01*
X808289Y566240D02*
Y566781D01*
D16*
X629608Y572498D02*
D03*
X613571D02*
D03*
X523236Y568155D02*
D03*
X539274D02*
D03*
X55844Y552654D02*
D03*
X39807D02*
D03*
X110900Y495841D02*
D03*
X94863D02*
D03*
X203116Y809174D02*
D03*
X219154D02*
D03*
D17*
X160966Y523373D02*
D03*
X160966Y556373D02*
D03*
X209966Y556373D02*
D03*
X209966Y523373D02*
D03*
D18*
X540969Y481965D02*
D03*
X516969D02*
D03*
X332101Y281330D02*
D03*
X356101D02*
D03*
X326558Y481997D02*
D03*
X350558D02*
D03*
X132103Y481383D02*
D03*
X156103D02*
D03*
X131819Y273999D02*
D03*
X155819D02*
D03*
D19*
X120264Y687753D02*
D03*
Y675253D02*
D03*
Y662753D02*
D03*
X107764Y687753D02*
D03*
Y662753D02*
D03*
X95264Y687753D02*
D03*
Y675253D02*
D03*
Y662753D02*
D03*
X107764Y675253D02*
D03*
D20*
X50564Y777803D02*
D03*
X63264D02*
D03*
X75964D02*
D03*
X88664D02*
D03*
X101364D02*
D03*
X114064D02*
D03*
X126764D02*
D03*
X139464D02*
D03*
X152164D02*
D03*
X164864D02*
D03*
X177564D02*
D03*
X190264D02*
D03*
X202964D02*
D03*
X215664D02*
D03*
Y602803D02*
D03*
X202964D02*
D03*
X190264D02*
D03*
X177564D02*
D03*
X164864D02*
D03*
X152164D02*
D03*
X139464D02*
D03*
X126764D02*
D03*
X114064D02*
D03*
X101364D02*
D03*
X88664D02*
D03*
X75964D02*
D03*
X63264D02*
D03*
X50564D02*
D03*
D21*
X132829Y814598D02*
D03*
Y829598D02*
D03*
X152985Y814475D02*
D03*
Y829475D02*
D03*
D22*
X566121Y224503D02*
D03*
Y248503D02*
D03*
X130339Y565029D02*
D03*
Y541029D02*
D03*
D23*
X246046Y588790D02*
D03*
X258546D02*
D03*
X842221Y521365D02*
D03*
X854721D02*
D03*
X854572Y504222D02*
D03*
X842072D02*
D03*
X839855Y661719D02*
D03*
X852355D02*
D03*
X852286Y645639D02*
D03*
X839786D02*
D03*
X675323Y539640D02*
D03*
X687823D02*
D03*
X107064Y516554D02*
D03*
X94564D02*
D03*
X107018Y533130D02*
D03*
X94518D02*
D03*
X94850Y576821D02*
D03*
X107350D02*
D03*
D24*
X858938Y445549D02*
D03*
X842425D02*
D03*
X842425Y594953D02*
D03*
X858938D02*
D03*
X629213Y548368D02*
D03*
X612700D02*
D03*
D25*
X843498Y424260D02*
D03*
Y404760D02*
D03*
D26*
X815400Y405303D02*
D03*
X815400Y428303D02*
D03*
X809030Y576210D02*
D03*
Y599210D02*
D03*
D27*
X862141Y571136D02*
D03*
X842641D02*
D03*
X57661Y576139D02*
D03*
X38161D02*
D03*
D28*
X889750Y577500D02*
D03*
Y662500D02*
D03*
Y582500D02*
D03*
Y592500D02*
D03*
Y602500D02*
D03*
Y612500D02*
D03*
Y622500D02*
D03*
Y632500D02*
D03*
Y642500D02*
D03*
Y652500D02*
D03*
Y657500D02*
D03*
Y647500D02*
D03*
Y637500D02*
D03*
Y627500D02*
D03*
Y617500D02*
D03*
Y607500D02*
D03*
Y597500D02*
D03*
Y587500D02*
D03*
Y427500D02*
D03*
Y512500D02*
D03*
Y432500D02*
D03*
Y442500D02*
D03*
Y452500D02*
D03*
Y462500D02*
D03*
Y472500D02*
D03*
Y482500D02*
D03*
Y492500D02*
D03*
Y502500D02*
D03*
Y507500D02*
D03*
Y497500D02*
D03*
Y487500D02*
D03*
Y477500D02*
D03*
Y467500D02*
D03*
Y457500D02*
D03*
Y447500D02*
D03*
Y437500D02*
D03*
D29*
X729979Y538181D02*
D03*
Y526161D02*
D03*
D30*
X712081Y538880D02*
D03*
Y526880D02*
D03*
D31*
X840575Y472560D02*
D03*
Y477560D02*
D03*
Y482560D02*
D03*
X856675D02*
D03*
Y477560D02*
D03*
Y472560D02*
D03*
X841060Y619510D02*
D03*
Y624510D02*
D03*
Y629510D02*
D03*
X857160D02*
D03*
Y624510D02*
D03*
Y619510D02*
D03*
D32*
X751951Y513174D02*
D03*
X763951D02*
D03*
D33*
X698888Y458353D02*
D03*
X705388D02*
D03*
X711888D02*
D03*
X718388D02*
D03*
Y497353D02*
D03*
X711888D02*
D03*
X705388D02*
D03*
X698888D02*
D03*
D34*
X728138Y468103D02*
D03*
Y474603D02*
D03*
Y481103D02*
D03*
Y487603D02*
D03*
X689138D02*
D03*
Y481103D02*
D03*
Y474603D02*
D03*
Y468103D02*
D03*
D35*
X708638Y477853D02*
D03*
D36*
X653659Y461415D02*
D03*
X751958Y443683D02*
D03*
X697011Y427953D02*
D03*
X655966Y576266D02*
D03*
X701501Y209389D02*
D03*
X676501D02*
D03*
X651501D02*
D03*
X701501Y354389D02*
D03*
D37*
X804483Y487467D02*
D03*
X789466D02*
D03*
X804307Y468171D02*
D03*
X789290D02*
D03*
D38*
X789781Y451132D02*
D03*
X803281D02*
D03*
X789007Y504885D02*
D03*
X802507D02*
D03*
D39*
X675032Y522835D02*
D03*
X690032D02*
D03*
X613608Y499579D02*
D03*
X628608D02*
D03*
D40*
X559560Y551518D02*
D03*
Y542018D02*
D03*
Y532518D02*
D03*
X584560D02*
D03*
Y551518D02*
D03*
D41*
X523163Y590013D02*
D03*
X538163D02*
D03*
X43274Y502521D02*
D03*
X58274D02*
D03*
D42*
X630357Y521698D02*
D03*
X612823D02*
D03*
D43*
X584750Y589184D02*
D03*
Y574184D02*
D03*
D44*
X31902Y526123D02*
D03*
X65902D02*
D03*
X194890Y834369D02*
D03*
X228890D02*
D03*
D45*
X143445Y510492D02*
D03*
Y522992D02*
D03*
X650176Y390051D02*
D03*
Y377551D02*
D03*
D46*
X234283Y542144D02*
D03*
X234283Y526106D02*
D03*
D47*
X91072Y561111D02*
D03*
Y554611D02*
D03*
Y548111D02*
D03*
X110072D02*
D03*
Y554611D02*
D03*
Y561111D02*
D03*
D75*
X895950Y566000D02*
D03*
Y674000D02*
D03*
Y416000D02*
D03*
Y524000D02*
D03*
D76*
X928250Y566000D02*
D03*
Y674000D02*
D03*
Y416000D02*
D03*
Y524000D02*
D03*
D80*
X777315Y786583D02*
D03*
D81*
Y776423D02*
D03*
D82*
Y796743D02*
D03*
D83*
X777206Y758579D02*
X777315Y758689D01*
Y776423D01*
X688604Y560049D02*
X688795Y560241D01*
X688604Y540421D02*
Y560049D01*
X688296Y540113D02*
X688604Y540421D01*
X557120Y562037D02*
X560068Y559089D01*
X551002Y568155D02*
X557120Y562037D01*
X538163Y569265D02*
X539274Y568155D01*
X538163Y569265D02*
Y590013D01*
X539274Y568155D02*
X551002D01*
X559560Y551518D02*
X560568D01*
X560068Y552018D02*
X560568Y551518D01*
X560068Y552018D02*
Y559089D01*
X808927Y599313D02*
Y610489D01*
Y599313D02*
X809030Y599210D01*
X808824Y610592D02*
X808927Y610489D01*
D84*
X504299Y272975D02*
X521563Y290239D01*
X254776Y272975D02*
X312081D01*
X315001Y270055D01*
X319590D02*
X322510Y272975D01*
X504299D01*
X246780Y280971D02*
X254776Y272975D01*
X315001Y270055D02*
X319590D01*
X177564Y602803D02*
X178124Y602243D01*
Y587727D02*
Y602243D01*
X185101Y495347D02*
Y524479D01*
X175331Y534248D02*
X185101Y524479D01*
X164864Y602803D02*
X165233Y603172D01*
Y617739D01*
X189973Y745381D02*
X190264Y745673D01*
X541007Y481927D02*
X553350D01*
X540969Y481965D02*
X541007Y481927D01*
X553350D02*
X553388Y481888D01*
X508938Y481802D02*
X516806D01*
X516969Y481965D01*
X507450Y480314D02*
X508938Y481802D01*
X507450Y467497D02*
Y480314D01*
Y467497D02*
X540448Y434499D01*
X552463Y481802D02*
X552507Y481845D01*
X553345D01*
X566121Y248503D02*
Y469155D01*
X553345Y481845D02*
X553388Y481888D01*
X566121Y469155D01*
X360829Y481997D02*
X371078Y471748D01*
X190264Y745673D02*
Y777803D01*
X179141Y747432D02*
Y776227D01*
X177564Y777803D02*
X179141Y776227D01*
X169071Y479317D02*
X185101Y495347D01*
X521563Y290239D02*
Y312704D01*
X539116Y223308D02*
X564926D01*
X566121Y224503D01*
X323030Y281330D02*
X332101D01*
X317296Y275595D02*
X323030Y281330D01*
X371078Y287497D02*
Y471748D01*
X364911Y281330D02*
X371078Y287497D01*
X356101Y281330D02*
X364911D01*
X350558Y481997D02*
X360829D01*
X649772Y356117D02*
X651501Y354389D01*
X649772Y356117D02*
Y377147D01*
X650176Y377551D01*
X132103Y467272D02*
Y481383D01*
Y467272D02*
X150195Y449179D01*
X326558Y460067D02*
X344232Y442393D01*
X326558Y460067D02*
Y481997D01*
X344232Y430800D02*
Y442393D01*
X131819Y252425D02*
X150105Y234138D01*
X131819Y252425D02*
Y273999D01*
X167005Y481383D02*
X169071Y479317D01*
X156103Y481383D02*
X167005D01*
X169071Y279864D02*
Y479317D01*
X155819Y273999D02*
X163206D01*
X169071Y279864D01*
X150105Y223216D02*
Y234138D01*
X150195Y430610D02*
Y449179D01*
D85*
X746411Y566240D02*
X808289D01*
X711396Y601255D02*
X746411Y566240D01*
X564733Y601255D02*
X711396D01*
X557120Y593642D02*
X564733Y601255D01*
X557120Y562037D02*
Y593642D01*
D86*
X745575Y629510D02*
X841060D01*
X735273Y619208D02*
X745575Y629510D01*
X206003Y619208D02*
X735273D01*
X739473Y619510D02*
X828000D01*
X828040Y619470D01*
X832199D02*
X832239Y619510D01*
X828040Y619470D02*
X832199D01*
X736655Y616692D02*
X739473Y619510D01*
X832239D02*
X841060D01*
X202964Y602803D02*
Y616169D01*
X215664Y602803D02*
Y615813D01*
X216543Y616692D02*
X736655D01*
X215664Y615813D02*
X216543Y616692D01*
X202964Y616169D02*
X206003Y619208D01*
X874771Y480788D02*
X875620D01*
X873553D02*
X874771D01*
X875620D02*
X878907Y477500D01*
X889750D01*
X871781Y482560D02*
X873553Y480788D01*
X856675Y482560D02*
X871781D01*
X857319Y629351D02*
X871963D01*
X881851D01*
X871963Y620323D02*
X874786Y617500D01*
X871963Y620323D02*
Y629351D01*
X874786Y617500D02*
X889750D01*
X865596Y619510D02*
X874869Y610237D01*
X857160Y619510D02*
X865596D01*
X876860Y610237D02*
X877720Y609376D01*
X874869Y610237D02*
X876860D01*
X877720Y609376D02*
X878897D01*
X882021Y612500D01*
X889750D01*
X876568Y462480D02*
X880727D01*
X874772Y467510D02*
X889740D01*
X889750Y467500D01*
X874762Y467520D02*
X874772Y467510D01*
X876548Y462500D02*
X876568Y462480D01*
X880747Y462500D02*
X889750D01*
X867694Y465940D02*
Y472190D01*
X880727Y462480D02*
X880747Y462500D01*
X867694Y465940D02*
X871134Y462500D01*
X856675Y472560D02*
X889690D01*
X871134Y462500D02*
X876548D01*
X830116Y472560D02*
X840575D01*
X825727Y468171D02*
X830116Y472560D01*
X828882Y482560D02*
X840575D01*
X823975Y487467D02*
X828882Y482560D01*
X804483Y487467D02*
X823975D01*
X804307Y468171D02*
X825727D01*
X878871Y622701D02*
X889549D01*
X889750Y622500D01*
X878670Y622902D02*
X878871Y622701D01*
X883702Y627500D02*
X889750D01*
X881851Y629351D02*
X883702Y627500D01*
X857160Y629510D02*
X857319Y629351D01*
D87*
X815671Y405032D02*
X843226D01*
X815400Y405303D02*
X815671Y405032D01*
X843226D02*
X843498Y404760D01*
D88*
X820872Y445549D02*
X842425D01*
X815400Y440077D02*
X820872Y445549D01*
X815400Y428303D02*
Y440077D01*
X828494Y594953D02*
X842425D01*
X824236Y599210D02*
X828494Y594953D01*
X809030Y599210D02*
X824236D01*
D89*
X685324Y716420D02*
X755487Y786583D01*
X656509Y716420D02*
X685324D01*
X755487Y786583D02*
X777315D01*
X723249Y497353D02*
X725555Y495047D01*
X737156Y506648D02*
Y513755D01*
X725555Y495047D02*
X737156Y506648D01*
X725555Y495047D02*
X728138Y492464D01*
X718388Y497353D02*
X723249D01*
X737156Y513755D02*
X751370D01*
X751951Y513174D01*
X728138Y487603D02*
Y492464D01*
D90*
X645345Y548368D02*
X655966Y558988D01*
X629213Y548368D02*
X645345D01*
X655966Y558988D02*
Y576266D01*
D91*
X431600Y405400D02*
D03*
X495100Y430800D02*
D03*
X236600Y405400D02*
D03*
X300100Y430800D02*
D03*
X41600Y405400D02*
D03*
X105100Y430800D02*
D03*
X431600Y197800D02*
D03*
X495100Y223200D02*
D03*
X236600Y197800D02*
D03*
X300100Y223200D02*
D03*
X41600Y197796D02*
D03*
X105100Y223197D02*
D03*
D92*
X420000Y380000D02*
D03*
X520000D02*
D03*
X225000D02*
D03*
X325000D02*
D03*
X30000D02*
D03*
X130000D02*
D03*
X420000Y172400D02*
D03*
X520000D02*
D03*
X225000Y172400D02*
D03*
X325000D02*
D03*
X30000Y172397D02*
D03*
X130000D02*
D03*
D93*
X470000Y380000D02*
D03*
X275000D02*
D03*
X80000D02*
D03*
X470000Y172400D02*
D03*
X275000Y172400D02*
D03*
X80000Y172397D02*
D03*
D94*
X508100Y329200D02*
D03*
X431900Y329200D02*
D03*
X313100Y329200D02*
D03*
X236900Y329200D02*
D03*
X118100Y329200D02*
D03*
X41900Y329200D02*
D03*
X508100Y121600D02*
D03*
X431900Y121600D02*
D03*
X313100Y121600D02*
D03*
X236900Y121601D02*
D03*
X118100Y121596D02*
D03*
X41900Y121596D02*
D03*
D95*
X545000Y820000D02*
D03*
X570000D02*
D03*
X595000D02*
D03*
D96*
X620000D02*
D03*
D97*
X733501Y284389D02*
D03*
X619501D02*
D03*
D98*
X651501Y354389D02*
D03*
D99*
X920000Y1692D02*
D03*
X0Y0D02*
D03*
X920000Y830000D02*
D03*
X0D02*
D03*
D100*
X686980Y816280D02*
D03*
X699680D02*
D03*
X712380D02*
D03*
X725080D02*
D03*
X737780D02*
D03*
X750480D02*
D03*
X763180D02*
D03*
D101*
X775880D02*
D03*
D102*
X227337Y559737D02*
D03*
X161091Y543314D02*
D03*
X110048Y479363D02*
D03*
X20897Y503136D02*
D03*
X17717Y526623D02*
D03*
X19815Y564043D02*
D03*
X18250Y549515D02*
D03*
X19591Y577343D02*
D03*
X252976Y523377D02*
D03*
X777206Y758579D02*
D03*
X715211Y471766D02*
D03*
X714764Y483836D02*
D03*
X702426Y484015D02*
D03*
X702158Y471855D02*
D03*
X680042Y502710D02*
D03*
X688795Y560241D02*
D03*
X700587Y530675D02*
D03*
X740229Y556163D02*
D03*
X747485Y547410D02*
D03*
X819857Y509834D02*
D03*
X827946Y424975D02*
D03*
X861330Y424594D02*
D03*
X817078Y454867D02*
D03*
X795994Y435085D02*
D03*
X762636Y525703D02*
D03*
X776379Y513387D02*
D03*
X801271Y520906D02*
D03*
X847556Y552281D02*
D03*
X875948Y571469D02*
D03*
X862724Y551632D02*
D03*
X208476Y839892D02*
D03*
X180825Y840282D02*
D03*
X181371Y823458D02*
D03*
X181916Y809905D02*
D03*
X195313Y856362D02*
D03*
X500043Y72860D02*
D03*
X306100Y71484D02*
D03*
X112129Y73952D02*
D03*
X137707Y294795D02*
D03*
X303089Y284153D02*
D03*
X403805Y104492D02*
D03*
X216748Y105229D02*
D03*
X25368Y271678D02*
D03*
X214647Y271897D02*
D03*
X400858Y262745D02*
D03*
X178124Y587727D02*
D03*
X175331Y534248D02*
D03*
X30427Y437960D02*
D03*
X47945Y618502D02*
D03*
X165233Y617739D02*
D03*
X553388Y481888D02*
D03*
X371065Y471949D02*
D03*
X346043Y663697D02*
D03*
X201454Y667004D02*
D03*
X196216Y493984D02*
D03*
X202766Y748140D02*
D03*
X190143Y745483D02*
D03*
X328691Y598467D02*
D03*
X328880Y626328D02*
D03*
X114064Y621067D02*
D03*
X152164Y621493D02*
D03*
X323731Y640489D02*
D03*
X568838Y634208D02*
D03*
X585247Y195600D02*
D03*
X599503Y733851D02*
D03*
X650604Y399213D02*
D03*
X145787Y728961D02*
D03*
X140401Y621255D02*
D03*
X828441Y405638D02*
D03*
X827939Y445981D02*
D03*
X842832Y494107D02*
D03*
X449155Y582644D02*
D03*
X392743Y540537D02*
D03*
X461834Y416613D02*
D03*
X696970Y404569D02*
D03*
X166827Y580506D02*
D03*
X121115Y575032D02*
D03*
X135135Y739348D02*
D03*
X196426Y565549D02*
D03*
X215664Y749885D02*
D03*
X238437Y648638D02*
D03*
X245722Y639249D02*
D03*
X387098Y748463D02*
D03*
X386717Y629499D02*
D03*
X102479Y639387D02*
D03*
X656509Y716420D02*
D03*
X63295Y758935D02*
D03*
X699770Y775933D02*
D03*
X250473Y778769D02*
D03*
X88465Y649148D02*
D03*
X238066Y788915D02*
D03*
X78229Y796034D02*
D03*
X169028Y814162D02*
D03*
X115213Y813256D02*
D03*
X80080Y748094D02*
D03*
X179141Y747432D02*
D03*
X102531Y333684D02*
D03*
X274022Y589053D02*
D03*
X119002Y532626D02*
D03*
X126798Y493302D02*
D03*
X573323Y505711D02*
D03*
X675840Y488031D02*
D03*
X141732Y846953D02*
D03*
X143393Y501022D02*
D03*
X117816Y516753D02*
D03*
X48985Y529902D02*
D03*
X317296Y275595D02*
D03*
X539116Y223308D02*
D03*
X521563Y312704D02*
D03*
X246780Y280971D02*
D03*
X364470Y591924D02*
D03*
X378349Y598061D02*
D03*
X540448Y434499D02*
D03*
X344232Y430800D02*
D03*
X387146Y197198D02*
D03*
X191265Y197763D02*
D03*
X-3553Y198338D02*
D03*
X150105Y223216D02*
D03*
X150195Y430610D02*
D03*
X392213Y603875D02*
D03*
X371133Y717706D02*
D03*
X363733Y707537D02*
D03*
X645345Y548368D02*
D03*
X712684Y511990D02*
D03*
X737156Y513755D02*
D03*
X830120Y624490D02*
D03*
X867675Y521946D02*
D03*
X862093Y460003D02*
D03*
X874771Y480788D02*
D03*
X877720Y609376D02*
D03*
X687278Y449249D02*
D03*
X826430Y652916D02*
D03*
X808824Y610592D02*
D03*
X863233Y662473D02*
D03*
X855865Y610105D02*
D03*
X808289Y566240D02*
D03*
X875333Y595051D02*
D03*
X875891Y444797D02*
D03*
X875502Y494936D02*
D03*
X874762Y467520D02*
D03*
X826721Y477127D02*
D03*
X878670Y622902D02*
D03*
X875387Y644987D02*
D03*
D103*
X101518Y668962D02*
D03*
Y681530D02*
D03*
X114128D02*
D03*
Y668962D02*
D03*
D104*
X674899Y468116D02*
D03*
M02*
