G04*
G04 #@! TF.GenerationSoftware,Altium Limited,Altium Designer,25.4.2 (15)*
G04*
G04 Layer_Physical_Order=2*
G04 Layer_Color=36540*
%FSLAX44Y44*%
%MOMM*%
G71*
G04*
G04 #@! TF.SameCoordinates,C2DD7520-A2B9-4FCF-9691-AC0A9630E6EF*
G04*
G04*
G04 #@! TF.FilePolarity,Positive*
G04*
G01*
G75*
%ADD10C,0.2500*%
%ADD15C,0.4000*%
%ADD36C,1.5000*%
G04:AMPARAMS|DCode=75|XSize=1mm|YSize=2.55mm|CornerRadius=0.5mm|HoleSize=0mm|Usage=FLASHONLY|Rotation=90.000|XOffset=0mm|YOffset=0mm|HoleType=Round|Shape=RoundedRectangle|*
%AMROUNDEDRECTD75*
21,1,1.0000,1.5500,0,0,90.0*
21,1,0.0000,2.5500,0,0,90.0*
1,1,1.0000,0.7750,0.0000*
1,1,1.0000,0.7750,0.0000*
1,1,1.0000,-0.7750,0.0000*
1,1,1.0000,-0.7750,0.0000*
%
%ADD75ROUNDEDRECTD75*%
G04:AMPARAMS|DCode=76|XSize=1.1mm|YSize=2.4mm|CornerRadius=0.55mm|HoleSize=0mm|Usage=FLASHONLY|Rotation=90.000|XOffset=0mm|YOffset=0mm|HoleType=Round|Shape=RoundedRectangle|*
%AMROUNDEDRECTD76*
21,1,1.1000,1.3000,0,0,90.0*
21,1,0.0000,2.4000,0,0,90.0*
1,1,1.1000,0.6500,0.0000*
1,1,1.1000,0.6500,0.0000*
1,1,1.1000,-0.6500,0.0000*
1,1,1.1000,-0.6500,0.0000*
%
%ADD76ROUNDEDRECTD76*%
%ADD83C,0.5000*%
%ADD90C,1.0000*%
%ADD91C,3.4000*%
%ADD92C,1.7000*%
%ADD93C,3.9878*%
%ADD94C,1.5080*%
%ADD95C,1.4000*%
%ADD96R,1.4000X1.4000*%
%ADD97R,2.3000X3.1000*%
%ADD98R,1.5000X1.5000*%
%ADD99C,1.5240*%
%ADD100C,1.0000*%
%ADD101R,1.0000X1.0000*%
%ADD102C,0.6000*%
%ADD103C,0.8000*%
%ADD104C,0.4500*%
G36*
X652589Y840610D02*
X657211Y838695D01*
X661372Y835915D01*
X664909Y832377D01*
X667689Y828217D01*
X669604Y823595D01*
X670580Y818688D01*
Y816186D01*
Y530438D01*
X251631D01*
X249804Y530197D01*
X248101Y529492D01*
X246638Y528370D01*
X245516Y526907D01*
X244811Y525205D01*
X244571Y523377D01*
X244811Y521550D01*
X245516Y519847D01*
X246638Y518385D01*
X248101Y517263D01*
X249804Y516557D01*
X251631Y516317D01*
X670580D01*
Y497261D01*
Y494759D01*
X669604Y489852D01*
X667689Y485229D01*
X664909Y481069D01*
X661372Y477531D01*
X657211Y474751D01*
X652589Y472837D01*
X647682Y471861D01*
X645180D01*
X375335D01*
Y472798D01*
X374685Y474367D01*
X373484Y475569D01*
X371915Y476219D01*
X370216D01*
X368647Y475569D01*
X367445Y474367D01*
X366795Y472798D01*
Y471861D01*
X40060Y471861D01*
X40060Y586112D01*
X174171D01*
X174504Y585308D01*
X175705Y584107D01*
X177274Y583457D01*
X178973D01*
X180543Y584107D01*
X181744Y585308D01*
X182077Y586112D01*
X232673D01*
X232836Y586128D01*
X233136Y586252D01*
X233366Y586482D01*
X233490Y586782D01*
X233506Y586944D01*
X233506Y588561D01*
Y590331D01*
X234196Y593803D01*
X235551Y597074D01*
X237518Y600018D01*
X240021Y602521D01*
X242965Y604488D01*
X246236Y605843D01*
X249708Y606534D01*
X387318D01*
X388167Y605263D01*
X387943Y604724D01*
Y603026D01*
X388593Y601456D01*
X389795Y600255D01*
X391364Y599605D01*
X393063D01*
X394632Y600255D01*
X395833Y601456D01*
X396483Y603026D01*
Y604724D01*
X396260Y605263D01*
X397109Y606534D01*
X421014D01*
X423504Y606656D01*
X428388Y607627D01*
X432988Y609533D01*
X437128Y612299D01*
X440649Y615820D01*
X443415Y619960D01*
X445321Y624560D01*
X446292Y629444D01*
X446414Y631933D01*
X446414Y769510D01*
Y772011D01*
X447390Y776919D01*
X449305Y781541D01*
X452085Y785701D01*
X455623Y789239D01*
X459783Y792019D01*
X464405Y793933D01*
X469313Y794910D01*
X589939D01*
X591601Y794991D01*
X594862Y795640D01*
X597934Y796912D01*
X600699Y798760D01*
X603050Y801111D01*
X604897Y803875D01*
X606170Y806947D01*
X606819Y810209D01*
X606900Y811871D01*
X606900Y830509D01*
X607372Y832883D01*
X608298Y835119D01*
X609643Y837132D01*
X611354Y838843D01*
X613367Y840188D01*
X615603Y841114D01*
X617976Y841586D01*
X647682D01*
X652589Y840610D01*
D02*
G37*
G36*
X837815Y847696D02*
X835906D01*
X835895Y855754D01*
X833875Y847696D01*
X831877D01*
X829857Y855754D01*
Y847696D01*
X827948D01*
Y857941D01*
X831045D01*
X832887Y850948D01*
X834707Y857941D01*
X837815D01*
Y847696D01*
D02*
G37*
G36*
X844475D02*
X842511D01*
Y855077D01*
X842500Y855066D01*
X842466Y855033D01*
X842400Y854977D01*
X842322Y854911D01*
X842222Y854833D01*
X842089Y854733D01*
X841956Y854622D01*
X841789Y854511D01*
X841612Y854389D01*
X841423Y854267D01*
X841212Y854145D01*
X840990Y854023D01*
X840757Y853901D01*
X840502Y853790D01*
X840246Y853690D01*
X839980Y853590D01*
Y855377D01*
X839991D01*
X840013Y855388D01*
X840058Y855399D01*
X840113Y855422D01*
X840191Y855455D01*
X840268Y855488D01*
X840368Y855533D01*
X840479Y855588D01*
X840724Y855710D01*
X841001Y855877D01*
X841312Y856076D01*
X841645Y856321D01*
X841656Y856332D01*
X841689Y856354D01*
X841734Y856387D01*
X841789Y856443D01*
X841867Y856509D01*
X841945Y856598D01*
X842033Y856687D01*
X842133Y856798D01*
X842344Y857042D01*
X842544Y857320D01*
X842733Y857630D01*
X842810Y857797D01*
X842877Y857974D01*
X844475D01*
Y847696D01*
D02*
G37*
%LPC*%
G36*
X629540Y829540D02*
X621270D01*
Y821270D01*
X629540D01*
Y829540D01*
D02*
G37*
G36*
X618730D02*
X610460D01*
Y821270D01*
X618730D01*
Y829540D01*
D02*
G37*
G36*
X629540Y818730D02*
X621270D01*
Y810460D01*
X629540D01*
Y818730D01*
D02*
G37*
G36*
X618730D02*
X610460D01*
Y810460D01*
X618730D01*
Y818730D01*
D02*
G37*
G36*
X600353Y738121D02*
X598654D01*
X597085Y737471D01*
X595883Y736270D01*
X595233Y734700D01*
Y733001D01*
X595883Y731432D01*
X597085Y730231D01*
X598654Y729581D01*
X600353D01*
X601922Y730231D01*
X603123Y731432D01*
X603773Y733001D01*
Y734700D01*
X603123Y736270D01*
X601922Y737471D01*
X600353Y738121D01*
D02*
G37*
G36*
X657779Y721890D02*
Y717690D01*
X661980D01*
X661206Y719558D01*
X659648Y721116D01*
X657779Y721890D01*
D02*
G37*
G36*
X655239D02*
X653371Y721116D01*
X651813Y719558D01*
X651039Y717690D01*
X655239D01*
Y721890D01*
D02*
G37*
G36*
X661980Y715150D02*
X657779D01*
Y710949D01*
X659648Y711723D01*
X661206Y713281D01*
X661980Y715150D01*
D02*
G37*
G36*
X655239D02*
X651039D01*
X651813Y713281D01*
X653371Y711723D01*
X655239Y710949D01*
Y715150D01*
D02*
G37*
G36*
X569687Y638478D02*
X567988D01*
X566419Y637828D01*
X565218Y636627D01*
X564568Y635058D01*
Y633359D01*
X565218Y631790D01*
X566419Y630588D01*
X567988Y629938D01*
X569687D01*
X571256Y630588D01*
X572458Y631790D01*
X573108Y633359D01*
Y635058D01*
X572458Y636627D01*
X571256Y637828D01*
X569687Y638478D01*
D02*
G37*
G36*
X329541Y602737D02*
X327842D01*
X326273Y602087D01*
X325071Y600886D01*
X324421Y599316D01*
Y597617D01*
X325071Y596048D01*
X326273Y594847D01*
X327842Y594197D01*
X329541D01*
X331110Y594847D01*
X332311Y596048D01*
X332961Y597617D01*
Y599316D01*
X332311Y600886D01*
X331110Y602087D01*
X329541Y602737D01*
D02*
G37*
G36*
X379198Y602331D02*
X377500D01*
X375930Y601681D01*
X374729Y600480D01*
X374079Y598910D01*
Y597212D01*
X374729Y595642D01*
X375930Y594441D01*
X377500Y593791D01*
X379198D01*
X380768Y594441D01*
X381969Y595642D01*
X382619Y597212D01*
Y598910D01*
X381969Y600480D01*
X380768Y601681D01*
X379198Y602331D01*
D02*
G37*
G36*
X275292Y594524D02*
Y590323D01*
X279493D01*
X278719Y592192D01*
X277160Y593750D01*
X275292Y594524D01*
D02*
G37*
G36*
X272752D02*
X270884Y593750D01*
X269326Y592192D01*
X268552Y590323D01*
X272752D01*
Y594524D01*
D02*
G37*
G36*
X365320Y596194D02*
X363621D01*
X362052Y595544D01*
X360851Y594343D01*
X360201Y592773D01*
Y591075D01*
X360851Y589505D01*
X362052Y588304D01*
X363621Y587654D01*
X365320D01*
X366889Y588304D01*
X368090Y589505D01*
X368741Y591075D01*
Y592773D01*
X368090Y594343D01*
X366889Y595544D01*
X365320Y596194D01*
D02*
G37*
G36*
X279493Y587783D02*
X275292D01*
Y583583D01*
X277160Y584357D01*
X278719Y585915D01*
X279493Y587783D01*
D02*
G37*
G36*
X272752D02*
X268552D01*
X269326Y585915D01*
X270884Y584357D01*
X272752Y583583D01*
Y587783D01*
D02*
G37*
G36*
X450004Y586914D02*
X448305D01*
X446736Y586264D01*
X445535Y585063D01*
X444885Y583493D01*
Y581795D01*
X445535Y580225D01*
X446736Y579024D01*
X448305Y578374D01*
X450004D01*
X451573Y579024D01*
X452775Y580225D01*
X453425Y581795D01*
Y583493D01*
X452775Y585063D01*
X451573Y586264D01*
X450004Y586914D01*
D02*
G37*
G36*
X167676Y584776D02*
X165978D01*
X164408Y584126D01*
X163207Y582925D01*
X162557Y581356D01*
Y579657D01*
X163207Y578088D01*
X164408Y576886D01*
X165978Y576236D01*
X167676D01*
X169246Y576886D01*
X170447Y578088D01*
X171097Y579657D01*
Y581356D01*
X170447Y582925D01*
X169246Y584126D01*
X167676Y584776D01*
D02*
G37*
G36*
X121964Y579301D02*
X120266D01*
X118696Y578651D01*
X117495Y577450D01*
X116845Y575881D01*
Y574182D01*
X117495Y572613D01*
X118696Y571412D01*
X120266Y570761D01*
X121964D01*
X123534Y571412D01*
X124735Y572613D01*
X125385Y574182D01*
Y575881D01*
X124735Y577450D01*
X123534Y578651D01*
X121964Y579301D01*
D02*
G37*
G36*
X197275Y569819D02*
X195576D01*
X194007Y569169D01*
X192806Y567968D01*
X192156Y566398D01*
Y564700D01*
X192806Y563130D01*
X194007Y561929D01*
X195576Y561279D01*
X197275D01*
X198845Y561929D01*
X200046Y563130D01*
X200696Y564700D01*
Y566398D01*
X200046Y567968D01*
X198845Y569169D01*
X197275Y569819D01*
D02*
G37*
G36*
X228332Y564737D02*
X226343D01*
X224505Y563976D01*
X223099Y562569D01*
X222337Y560732D01*
Y558742D01*
X223099Y556905D01*
X224505Y555498D01*
X226343Y554737D01*
X228332D01*
X230170Y555498D01*
X231576Y556905D01*
X232337Y558742D01*
Y560732D01*
X231576Y562569D01*
X230170Y563976D01*
X228332Y564737D01*
D02*
G37*
G36*
X646615Y553838D02*
Y549638D01*
X650815D01*
X650042Y551506D01*
X648483Y553064D01*
X646615Y553838D01*
D02*
G37*
G36*
X644075D02*
X642207Y553064D01*
X640648Y551506D01*
X639875Y549638D01*
X644075D01*
Y553838D01*
D02*
G37*
G36*
X650815Y547098D02*
X646615D01*
Y542897D01*
X648483Y543671D01*
X650042Y545230D01*
X650815Y547098D01*
D02*
G37*
G36*
X644075D02*
X639875D01*
X640648Y545230D01*
X642207Y543671D01*
X644075Y542897D01*
Y547098D01*
D02*
G37*
G36*
X162086Y548314D02*
X160097D01*
X158259Y547552D01*
X156853Y546146D01*
X156091Y544308D01*
Y542319D01*
X156853Y540481D01*
X158259Y539075D01*
X160097Y538314D01*
X162086D01*
X163924Y539075D01*
X165330Y540481D01*
X166091Y542319D01*
Y544308D01*
X165330Y546146D01*
X163924Y547552D01*
X162086Y548314D01*
D02*
G37*
G36*
X393592Y544807D02*
X391894D01*
X390324Y544157D01*
X389123Y542956D01*
X388473Y541386D01*
Y539688D01*
X389123Y538118D01*
X390324Y536917D01*
X391894Y536267D01*
X393592D01*
X395162Y536917D01*
X396363Y538118D01*
X397013Y539688D01*
Y541386D01*
X396363Y542956D01*
X395162Y544157D01*
X393592Y544807D01*
D02*
G37*
G36*
X50255Y535372D02*
Y531172D01*
X54455D01*
X53681Y533040D01*
X52123Y534599D01*
X50255Y535372D01*
D02*
G37*
G36*
X47715D02*
X45847Y534599D01*
X44288Y533040D01*
X43514Y531172D01*
X47715D01*
Y535372D01*
D02*
G37*
G36*
X176180Y538518D02*
X174482D01*
X172912Y537868D01*
X171711Y536667D01*
X171061Y535098D01*
Y533399D01*
X171711Y531829D01*
X172912Y530628D01*
X174482Y529978D01*
X176180D01*
X177750Y530628D01*
X178951Y531829D01*
X179601Y533399D01*
Y535098D01*
X178951Y536667D01*
X177750Y537868D01*
X176180Y538518D01*
D02*
G37*
G36*
X119851Y536897D02*
X118152D01*
X116583Y536246D01*
X115382Y535045D01*
X114732Y533476D01*
Y531777D01*
X115382Y530208D01*
X116583Y529007D01*
X118152Y528357D01*
X119851D01*
X121420Y529007D01*
X122621Y530208D01*
X123272Y531777D01*
Y533476D01*
X122621Y535045D01*
X121420Y536246D01*
X119851Y536897D01*
D02*
G37*
G36*
X54455Y528632D02*
X50255D01*
Y524432D01*
X52123Y525205D01*
X53681Y526764D01*
X54455Y528632D01*
D02*
G37*
G36*
X47715D02*
X43514D01*
X44288Y526764D01*
X45847Y525205D01*
X47715Y524432D01*
Y528632D01*
D02*
G37*
G36*
X119086Y522223D02*
Y518023D01*
X123286D01*
X122513Y519891D01*
X120954Y521449D01*
X119086Y522223D01*
D02*
G37*
G36*
X116546D02*
X114678Y521449D01*
X113119Y519891D01*
X112346Y518023D01*
X116546D01*
Y522223D01*
D02*
G37*
G36*
X123286Y515483D02*
X119086D01*
Y511282D01*
X120954Y512056D01*
X122513Y513615D01*
X123286Y515483D01*
D02*
G37*
G36*
X116546D02*
X112346D01*
X113119Y513615D01*
X114678Y512056D01*
X116546Y511282D01*
Y515483D01*
D02*
G37*
G36*
X144663Y506492D02*
Y502292D01*
X148863D01*
X148089Y504160D01*
X146531Y505718D01*
X144663Y506492D01*
D02*
G37*
G36*
X142123D02*
X140254Y505718D01*
X138696Y504160D01*
X137922Y502292D01*
X142123D01*
Y506492D01*
D02*
G37*
G36*
X574173Y509981D02*
X572474D01*
X570904Y509331D01*
X569703Y508130D01*
X569053Y506561D01*
Y504862D01*
X569703Y503293D01*
X570904Y502091D01*
X572474Y501441D01*
X574173D01*
X575742Y502091D01*
X576943Y503293D01*
X577593Y504862D01*
Y506561D01*
X576943Y508130D01*
X575742Y509331D01*
X574173Y509981D01*
D02*
G37*
G36*
X148863Y499752D02*
X144663D01*
Y495551D01*
X146531Y496325D01*
X148089Y497883D01*
X148863Y499752D01*
D02*
G37*
G36*
X142123D02*
X137922D01*
X138696Y497883D01*
X140254Y496325D01*
X142123Y495551D01*
Y499752D01*
D02*
G37*
G36*
X197066Y498254D02*
X195367D01*
X193797Y497603D01*
X192596Y496402D01*
X191946Y494833D01*
Y493134D01*
X192596Y491565D01*
X193797Y490364D01*
X195367Y489714D01*
X197066D01*
X198635Y490364D01*
X199836Y491565D01*
X200486Y493134D01*
Y494833D01*
X199836Y496402D01*
X198635Y497603D01*
X197066Y498254D01*
D02*
G37*
G36*
X127647Y497572D02*
X125948D01*
X124379Y496922D01*
X123178Y495721D01*
X122528Y494152D01*
Y492453D01*
X123178Y490883D01*
X124379Y489682D01*
X125948Y489032D01*
X127647D01*
X129216Y489682D01*
X130417Y490883D01*
X131068Y492453D01*
Y494152D01*
X130417Y495721D01*
X129216Y496922D01*
X127647Y497572D01*
D02*
G37*
G36*
X554237Y486158D02*
X552539D01*
X550969Y485508D01*
X549768Y484307D01*
X549118Y482738D01*
Y481039D01*
X549768Y479470D01*
X550969Y478269D01*
X552539Y477618D01*
X554237D01*
X555807Y478269D01*
X557008Y479470D01*
X557658Y481039D01*
Y482738D01*
X557008Y484307D01*
X555807Y485508D01*
X554237Y486158D01*
D02*
G37*
G36*
X111043Y484363D02*
X109053D01*
X107216Y483602D01*
X105809Y482195D01*
X105048Y480358D01*
Y478368D01*
X105809Y476531D01*
X107216Y475124D01*
X109053Y474363D01*
X111043D01*
X112880Y475124D01*
X114287Y476531D01*
X115048Y478368D01*
Y480358D01*
X114287Y482195D01*
X112880Y483602D01*
X111043Y484363D01*
D02*
G37*
%LPD*%
D10*
X777206Y580332D02*
Y758579D01*
Y580332D02*
X791297Y566240D01*
X808289D01*
X156999Y626328D02*
X328880D01*
X152164Y621493D02*
X156999Y626328D01*
X114064Y621067D02*
Y630666D01*
X116474Y633075D01*
X383141D01*
X386717Y629499D01*
X89001Y648613D02*
X89281Y648893D01*
X238182D02*
X238437Y648638D01*
X89281Y648893D02*
X238182D01*
X102479Y639387D02*
X102548Y639318D01*
X245653D02*
X245722Y639249D01*
X102548Y639318D02*
X245653D01*
D15*
X808289Y566240D02*
X830120Y588071D01*
Y624490D01*
X143469Y848149D02*
X609393D01*
X622490Y835051D01*
X141732Y846953D02*
X142273D01*
X143469Y848149D01*
X808289Y510607D02*
Y566240D01*
X826721Y477127D02*
Y492175D01*
X808289Y510607D02*
X826721Y492175D01*
X808289Y425790D02*
Y510607D01*
Y425790D02*
X828441Y405638D01*
D36*
X701501Y209389D02*
D03*
X676501D02*
D03*
X651501D02*
D03*
X701501Y354389D02*
D03*
D75*
X895950Y566000D02*
D03*
Y674000D02*
D03*
Y416000D02*
D03*
Y524000D02*
D03*
D76*
X928250Y566000D02*
D03*
Y674000D02*
D03*
Y416000D02*
D03*
Y524000D02*
D03*
D83*
X372331Y129892D02*
G03*
X397731Y104492I25400J0D01*
G01*
X175683Y119935D02*
G03*
X190388Y105229I14705J0D01*
G01*
X176676Y271894D02*
G03*
X175683Y270901I0J-993D01*
G01*
X678871Y559443D02*
X680879D01*
X372331Y129892D02*
Y264320D01*
X397731Y104492D02*
X403805D01*
X190388Y105229D02*
X216748D01*
X175683Y119935D02*
Y270901D01*
D90*
X737156Y534043D02*
G03*
X711756Y559443I-25400J0D01*
G01*
X678034Y440005D02*
G03*
X687278Y449249I0J9244D01*
G01*
X622846Y459833D02*
G03*
X642674Y440005I19828J0D01*
G01*
X694610Y372755D02*
G03*
X737491Y415636I0J42881D01*
G01*
X310852Y268931D02*
G03*
X322253Y264320I11401J11791D01*
G01*
X246352Y271711D02*
G03*
X245944Y271721I-430J-9991D01*
G01*
X247616D02*
G03*
X247209Y271711I23J-10000D01*
G01*
X310852Y268931D02*
G03*
X303946Y271721I-6929J-7211D01*
G01*
X574416Y372755D02*
G03*
X549016Y347355I0J-25400D01*
G01*
X246352Y271711D02*
G03*
X247209Y271711I428J9260D01*
G01*
X689593Y559443D02*
X711756D01*
X737156Y513755D02*
Y534043D01*
X642674Y407143D02*
Y440005D01*
X678034D01*
X622846Y459833D02*
Y481480D01*
X251631Y523377D02*
X673516D01*
X684904Y511990D01*
X712684D01*
X737491Y487182D01*
Y415636D02*
Y487182D01*
X680879Y559443D02*
X687998D01*
X688795Y560241D01*
X689593Y559443D01*
X657965D02*
X678871D01*
X372331Y264320D02*
X543158D01*
X322253D02*
X372331D01*
X176676Y271894D02*
X214645D01*
X25585D02*
X176676D01*
X25368Y271678D02*
X25585Y271894D01*
X214645D02*
X214647Y271897D01*
X214823Y271721D01*
X245944D01*
X549016Y270178D02*
Y347355D01*
X543158Y264320D02*
X549016Y270178D01*
X247616Y271721D02*
X303946D01*
X247616D02*
X247616D01*
X574416Y372755D02*
X694610D01*
X642674Y407143D02*
X650604Y399213D01*
D91*
X431600Y405400D02*
D03*
X495100Y430800D02*
D03*
X236600Y405400D02*
D03*
X300100Y430800D02*
D03*
X41600Y405400D02*
D03*
X105100Y430800D02*
D03*
X431600Y197800D02*
D03*
X495100Y223200D02*
D03*
X236600Y197800D02*
D03*
X300100Y223200D02*
D03*
X41600Y197796D02*
D03*
X105100Y223197D02*
D03*
D92*
X420000Y380000D02*
D03*
X520000D02*
D03*
X225000D02*
D03*
X325000D02*
D03*
X30000D02*
D03*
X130000D02*
D03*
X420000Y172400D02*
D03*
X520000D02*
D03*
X225000Y172400D02*
D03*
X325000D02*
D03*
X30000Y172397D02*
D03*
X130000D02*
D03*
D93*
X470000Y380000D02*
D03*
X275000D02*
D03*
X80000D02*
D03*
X470000Y172400D02*
D03*
X275000Y172400D02*
D03*
X80000Y172397D02*
D03*
D94*
X508100Y329200D02*
D03*
X431900Y329200D02*
D03*
X313100Y329200D02*
D03*
X236900Y329200D02*
D03*
X118100Y329200D02*
D03*
X41900Y329200D02*
D03*
X508100Y121600D02*
D03*
X431900Y121600D02*
D03*
X313100Y121600D02*
D03*
X236900Y121601D02*
D03*
X118100Y121596D02*
D03*
X41900Y121596D02*
D03*
D95*
X545000Y820000D02*
D03*
X570000D02*
D03*
X595000D02*
D03*
D96*
X620000D02*
D03*
D97*
X733501Y284389D02*
D03*
X619501D02*
D03*
D98*
X651501Y354389D02*
D03*
D99*
X920000Y1692D02*
D03*
X0Y0D02*
D03*
X920000Y830000D02*
D03*
X0D02*
D03*
D100*
X686980Y816280D02*
D03*
X699680D02*
D03*
X712380D02*
D03*
X725080D02*
D03*
X737780D02*
D03*
X750480D02*
D03*
X763180D02*
D03*
D101*
X775880D02*
D03*
D102*
X227337Y559737D02*
D03*
X161091Y543314D02*
D03*
X110048Y479363D02*
D03*
X20897Y503136D02*
D03*
X17717Y526623D02*
D03*
X19815Y564043D02*
D03*
X18250Y549515D02*
D03*
X19591Y577343D02*
D03*
X252976Y523377D02*
D03*
X777206Y758579D02*
D03*
X715211Y471766D02*
D03*
X714764Y483836D02*
D03*
X702426Y484015D02*
D03*
X702158Y471855D02*
D03*
X680042Y502710D02*
D03*
X688795Y560241D02*
D03*
X700587Y530675D02*
D03*
X740229Y556163D02*
D03*
X747485Y547410D02*
D03*
X819857Y509834D02*
D03*
X827946Y424975D02*
D03*
X861330Y424594D02*
D03*
X817078Y454867D02*
D03*
X795994Y435085D02*
D03*
X762636Y525703D02*
D03*
X776379Y513387D02*
D03*
X801271Y520906D02*
D03*
X847556Y552281D02*
D03*
X875948Y571469D02*
D03*
X862724Y551632D02*
D03*
X208476Y839892D02*
D03*
X180825Y840282D02*
D03*
X181371Y823458D02*
D03*
X181916Y809905D02*
D03*
X195313Y856362D02*
D03*
X500043Y72860D02*
D03*
X306100Y71484D02*
D03*
X112129Y73952D02*
D03*
X137707Y294795D02*
D03*
X303089Y284153D02*
D03*
X403805Y104492D02*
D03*
X216748Y105229D02*
D03*
X25368Y271678D02*
D03*
X214647Y271897D02*
D03*
X400858Y262745D02*
D03*
X178124Y587727D02*
D03*
X175331Y534248D02*
D03*
X30427Y437960D02*
D03*
X47945Y618502D02*
D03*
X165233Y617739D02*
D03*
X553388Y481888D02*
D03*
X371065Y471949D02*
D03*
X346043Y663697D02*
D03*
X201454Y667004D02*
D03*
X196216Y493984D02*
D03*
X202766Y748140D02*
D03*
X190143Y745483D02*
D03*
X328691Y598467D02*
D03*
X328880Y626328D02*
D03*
X114064Y621067D02*
D03*
X152164Y621493D02*
D03*
X323731Y640489D02*
D03*
X568838Y634208D02*
D03*
X585247Y195600D02*
D03*
X599503Y733851D02*
D03*
X650604Y399213D02*
D03*
X145787Y728961D02*
D03*
X140401Y621255D02*
D03*
X828441Y405638D02*
D03*
X827939Y445981D02*
D03*
X842832Y494107D02*
D03*
X449155Y582644D02*
D03*
X392743Y540537D02*
D03*
X461834Y416613D02*
D03*
X696970Y404569D02*
D03*
X166827Y580506D02*
D03*
X121115Y575032D02*
D03*
X135135Y739348D02*
D03*
X196426Y565549D02*
D03*
X215664Y749885D02*
D03*
X238437Y648638D02*
D03*
X245722Y639249D02*
D03*
X387098Y748463D02*
D03*
X386717Y629499D02*
D03*
X102479Y639387D02*
D03*
X656509Y716420D02*
D03*
X63295Y758935D02*
D03*
X699770Y775933D02*
D03*
X250473Y778769D02*
D03*
X88465Y649148D02*
D03*
X238066Y788915D02*
D03*
X78229Y796034D02*
D03*
X169028Y814162D02*
D03*
X115213Y813256D02*
D03*
X80080Y748094D02*
D03*
X179141Y747432D02*
D03*
X102531Y333684D02*
D03*
X274022Y589053D02*
D03*
X119002Y532626D02*
D03*
X126798Y493302D02*
D03*
X573323Y505711D02*
D03*
X675840Y488031D02*
D03*
X141732Y846953D02*
D03*
X143393Y501022D02*
D03*
X117816Y516753D02*
D03*
X48985Y529902D02*
D03*
X317296Y275595D02*
D03*
X539116Y223308D02*
D03*
X521563Y312704D02*
D03*
X246780Y280971D02*
D03*
X364470Y591924D02*
D03*
X378349Y598061D02*
D03*
X540448Y434499D02*
D03*
X344232Y430800D02*
D03*
X387146Y197198D02*
D03*
X191265Y197763D02*
D03*
X-3553Y198338D02*
D03*
X150105Y223216D02*
D03*
X150195Y430610D02*
D03*
X392213Y603875D02*
D03*
X371133Y717706D02*
D03*
X363733Y707537D02*
D03*
X645345Y548368D02*
D03*
X712684Y511990D02*
D03*
X737156Y513755D02*
D03*
X830120Y624490D02*
D03*
X867675Y521946D02*
D03*
X862093Y460003D02*
D03*
X874771Y480788D02*
D03*
X877720Y609376D02*
D03*
X687278Y449249D02*
D03*
X826430Y652916D02*
D03*
X808824Y610592D02*
D03*
X863233Y662473D02*
D03*
X855865Y610105D02*
D03*
X808289Y566240D02*
D03*
X875333Y595051D02*
D03*
X875891Y444797D02*
D03*
X875502Y494936D02*
D03*
X874762Y467520D02*
D03*
X826721Y477127D02*
D03*
X878670Y622902D02*
D03*
X875387Y644987D02*
D03*
D103*
X101518Y668962D02*
D03*
Y681530D02*
D03*
X114128D02*
D03*
Y668962D02*
D03*
D104*
X674899Y468116D02*
D03*
M02*
