G04*
G04 #@! TF.GenerationSoftware,Altium Limited,Altium Designer,25.4.2 (15)*
G04*
G04 Layer_Color=8421504*
%FSLAX44Y44*%
%MOMM*%
G71*
G04*
G04 #@! TF.SameCoordinates,C2DD7520-A2B9-4FCF-9691-AC0A9630E6EF*
G04*
G04*
G04 #@! TF.FilePolarity,Positive*
G04*
G01*
G75*
%ADD16R,1.2084X1.0121*%
%ADD17R,1.5000X0.9000*%
%ADD18R,1.0000X0.5000*%
%ADD19R,0.8000X0.8000*%
%ADD20R,0.9000X1.5000*%
%ADD21R,1.0000X0.8000*%
%ADD22R,0.5000X1.0000*%
%ADD23R,0.8000X0.9500*%
%ADD24R,1.2549X1.4562*%
%ADD25R,1.0121X0.8621*%
%ADD26R,0.9000X0.8000*%
%ADD27R,0.8621X1.0121*%
%ADD28R,0.9000X0.3000*%
%ADD29R,0.8582X0.8563*%
%ADD30R,0.9000X0.7500*%
%ADD31R,0.9900X0.3000*%
%ADD32R,0.7500X0.9000*%
%ADD33R,0.3500X0.8500*%
%ADD34R,0.8500X0.3500*%
%ADD35R,2.1500X2.1500*%
%ADD36C,1.5000*%
%ADD37R,0.9565X0.9621*%
%ADD38R,0.8500X0.9500*%
%ADD39R,0.8000X0.8000*%
%ADD40R,1.1500X0.6000*%
%ADD41R,0.8000X0.9000*%
%ADD42R,1.0587X1.0121*%
%ADD43R,0.9000X0.8000*%
%ADD44R,0.8000X1.7000*%
%ADD45R,0.9500X0.8000*%
%ADD46R,1.0121X1.2084*%
%ADD47R,0.5000X0.4000*%
G36*
X782395Y797378D02*
X777315Y792298D01*
X772235Y797378D01*
Y801188D01*
X782395D01*
Y797378D01*
D02*
G37*
G36*
Y780233D02*
X777315Y785313D01*
X772235Y780233D01*
Y792933D01*
X777315Y787853D01*
X782395Y792933D01*
Y780233D01*
D02*
G37*
G36*
Y775788D02*
Y771978D01*
X772235D01*
Y775788D01*
X777315Y780868D01*
X782395Y775788D01*
D02*
G37*
D16*
X629608Y572498D02*
D03*
X613571D02*
D03*
X523236Y568155D02*
D03*
X539274D02*
D03*
X55844Y552654D02*
D03*
X39807D02*
D03*
X110900Y495841D02*
D03*
X94863D02*
D03*
X203116Y809174D02*
D03*
X219154D02*
D03*
D17*
X160966Y523373D02*
D03*
X160966Y556373D02*
D03*
X209966Y556373D02*
D03*
X209966Y523373D02*
D03*
D18*
X540969Y481965D02*
D03*
X516969D02*
D03*
X332101Y281330D02*
D03*
X356101D02*
D03*
X326558Y481997D02*
D03*
X350558D02*
D03*
X132103Y481383D02*
D03*
X156103D02*
D03*
X131819Y273999D02*
D03*
X155819D02*
D03*
D19*
X120264Y687753D02*
D03*
Y675253D02*
D03*
Y662753D02*
D03*
X107764Y687753D02*
D03*
Y662753D02*
D03*
X95264Y687753D02*
D03*
Y675253D02*
D03*
Y662753D02*
D03*
X107764Y675253D02*
D03*
D20*
X50564Y777803D02*
D03*
X63264D02*
D03*
X75964D02*
D03*
X88664D02*
D03*
X101364D02*
D03*
X114064D02*
D03*
X126764D02*
D03*
X139464D02*
D03*
X152164D02*
D03*
X164864D02*
D03*
X177564D02*
D03*
X190264D02*
D03*
X202964D02*
D03*
X215664D02*
D03*
Y602803D02*
D03*
X202964D02*
D03*
X190264D02*
D03*
X177564D02*
D03*
X164864D02*
D03*
X152164D02*
D03*
X139464D02*
D03*
X126764D02*
D03*
X114064D02*
D03*
X101364D02*
D03*
X88664D02*
D03*
X75964D02*
D03*
X63264D02*
D03*
X50564D02*
D03*
D21*
X132829Y814598D02*
D03*
Y829598D02*
D03*
X152985Y814475D02*
D03*
Y829475D02*
D03*
D22*
X566121Y224503D02*
D03*
Y248503D02*
D03*
X130339Y565029D02*
D03*
Y541029D02*
D03*
D23*
X246046Y588790D02*
D03*
X258546D02*
D03*
X842221Y521365D02*
D03*
X854721D02*
D03*
X854572Y504222D02*
D03*
X842072D02*
D03*
X839855Y661719D02*
D03*
X852355D02*
D03*
X852286Y645639D02*
D03*
X839786D02*
D03*
X675323Y539640D02*
D03*
X687823D02*
D03*
X107064Y516554D02*
D03*
X94564D02*
D03*
X107018Y533130D02*
D03*
X94518D02*
D03*
X94850Y576821D02*
D03*
X107350D02*
D03*
D24*
X858938Y445549D02*
D03*
X842425D02*
D03*
X842425Y594953D02*
D03*
X858938D02*
D03*
X629213Y548368D02*
D03*
X612700D02*
D03*
D25*
X843498Y424260D02*
D03*
Y404760D02*
D03*
D26*
X815400Y405303D02*
D03*
X815400Y428303D02*
D03*
X809030Y576210D02*
D03*
Y599210D02*
D03*
D27*
X862141Y571136D02*
D03*
X842641D02*
D03*
X57661Y576139D02*
D03*
X38161D02*
D03*
D28*
X889750Y577500D02*
D03*
Y662500D02*
D03*
Y582500D02*
D03*
Y592500D02*
D03*
Y602500D02*
D03*
Y612500D02*
D03*
Y622500D02*
D03*
Y632500D02*
D03*
Y642500D02*
D03*
Y652500D02*
D03*
Y657500D02*
D03*
Y647500D02*
D03*
Y637500D02*
D03*
Y627500D02*
D03*
Y617500D02*
D03*
Y607500D02*
D03*
Y597500D02*
D03*
Y587500D02*
D03*
Y427500D02*
D03*
Y512500D02*
D03*
Y432500D02*
D03*
Y442500D02*
D03*
Y452500D02*
D03*
Y462500D02*
D03*
Y472500D02*
D03*
Y482500D02*
D03*
Y492500D02*
D03*
Y502500D02*
D03*
Y507500D02*
D03*
Y497500D02*
D03*
Y487500D02*
D03*
Y477500D02*
D03*
Y467500D02*
D03*
Y457500D02*
D03*
Y447500D02*
D03*
Y437500D02*
D03*
D29*
X729979Y538181D02*
D03*
Y526161D02*
D03*
D30*
X712081Y538880D02*
D03*
Y526880D02*
D03*
D31*
X840575Y472560D02*
D03*
Y477560D02*
D03*
Y482560D02*
D03*
X856675D02*
D03*
Y477560D02*
D03*
Y472560D02*
D03*
X841060Y619510D02*
D03*
Y624510D02*
D03*
Y629510D02*
D03*
X857160D02*
D03*
Y624510D02*
D03*
Y619510D02*
D03*
D32*
X751951Y513174D02*
D03*
X763951D02*
D03*
D33*
X698888Y458353D02*
D03*
X705388D02*
D03*
X711888D02*
D03*
X718388D02*
D03*
Y497353D02*
D03*
X711888D02*
D03*
X705388D02*
D03*
X698888D02*
D03*
D34*
X728138Y468103D02*
D03*
Y474603D02*
D03*
Y481103D02*
D03*
Y487603D02*
D03*
X689138D02*
D03*
Y481103D02*
D03*
Y474603D02*
D03*
Y468103D02*
D03*
D35*
X708638Y477853D02*
D03*
D36*
X653659Y461415D02*
D03*
X751958Y443683D02*
D03*
X697011Y427953D02*
D03*
X655966Y576266D02*
D03*
D37*
X804483Y487467D02*
D03*
X789466D02*
D03*
X804307Y468171D02*
D03*
X789290D02*
D03*
D38*
X789781Y451132D02*
D03*
X803281D02*
D03*
X789007Y504885D02*
D03*
X802507D02*
D03*
D39*
X675032Y522835D02*
D03*
X690032D02*
D03*
X613608Y499579D02*
D03*
X628608D02*
D03*
D40*
X559560Y551518D02*
D03*
Y542018D02*
D03*
Y532518D02*
D03*
X584560D02*
D03*
Y551518D02*
D03*
D41*
X523163Y590013D02*
D03*
X538163D02*
D03*
X43274Y502521D02*
D03*
X58274D02*
D03*
D42*
X630357Y521698D02*
D03*
X612823D02*
D03*
D43*
X584750Y589184D02*
D03*
Y574184D02*
D03*
D44*
X31902Y526123D02*
D03*
X65902D02*
D03*
X194890Y834369D02*
D03*
X228890D02*
D03*
D45*
X143445Y510492D02*
D03*
Y522992D02*
D03*
X650176Y390051D02*
D03*
Y377551D02*
D03*
D46*
X234283Y542144D02*
D03*
X234283Y526106D02*
D03*
D47*
X91072Y561111D02*
D03*
Y554611D02*
D03*
Y548111D02*
D03*
X110072D02*
D03*
Y554611D02*
D03*
Y561111D02*
D03*
M02*
