G04*
G04 #@! TF.GenerationSoftware,Altium Limited,Altium Designer,25.4.2 (15)*
G04*
G04 Layer_Color=2752767*
%FSLAX44Y44*%
%MOMM*%
G71*
G04*
G04 #@! TF.SameCoordinates,C2DD7520-A2B9-4FCF-9691-AC0A9630E6EF*
G04*
G04*
G04 #@! TF.FilePolarity,Positive*
G04*
G01*
G75*
%ADD14C,0.1270*%
%ADD114C,0.1693*%
D14*
X431600Y400320D02*
X426520Y410480D01*
X436680D01*
X431600Y400320D01*
Y402352D02*
X428552Y408448D01*
X434648D01*
X431600Y402352D01*
X495100Y425720D02*
X490020Y435880D01*
X500180D01*
X495100Y425720D01*
Y427752D02*
X492052Y433848D01*
X498148D01*
X495100Y427752D01*
X420000Y374920D02*
X422540Y377460D01*
X425080D01*
X422540Y380000D01*
X425080Y382540D01*
X422540D01*
X420000Y385080D01*
X417460Y382540D01*
X414920D01*
X417460Y380000D01*
X414920Y377460D01*
X417460D01*
X420000Y374920D01*
Y376952D02*
X421524Y378476D01*
X423048D01*
X421524Y380000D01*
X423048Y381524D01*
X421524D01*
X420000Y383048D01*
X418476Y381524D01*
X416952D01*
X418476Y380000D01*
X416952Y378476D01*
X418476D01*
X420000Y376952D01*
X520000Y374920D02*
X522540Y377460D01*
X525080D01*
X522540Y380000D01*
X525080Y382540D01*
X522540D01*
X520000Y385080D01*
X517460Y382540D01*
X514920D01*
X517460Y380000D01*
X514920Y377460D01*
X517460D01*
X520000Y374920D01*
Y376952D02*
X521524Y378476D01*
X523048D01*
X521524Y380000D01*
X523048Y381524D01*
X521524D01*
X520000Y383048D01*
X518476Y381524D01*
X516952D01*
X518476Y380000D01*
X516952Y378476D01*
X518476D01*
X520000Y376952D01*
X464920Y374920D02*
X467460Y380000D01*
X464920Y385080D01*
X470000Y382540D01*
X475080Y385080D01*
X472540Y380000D01*
X475080Y374920D01*
X470000Y377460D01*
X464920Y374920D01*
X466952Y376952D02*
X468476Y380000D01*
X466952Y383048D01*
X470000Y381524D01*
X473048Y383048D01*
X471524Y380000D01*
X473048Y376952D01*
X470000Y378476D01*
X466952Y376952D01*
X503020Y329200D02*
X508100Y334280D01*
X513180Y329200D01*
X508100Y324120D01*
X503020Y329200D01*
X426820Y329200D02*
X431900Y334280D01*
X436980Y329200D01*
X431900Y324120D01*
X426820Y329200D01*
X236600Y400320D02*
X231520Y410480D01*
X241680D01*
X236600Y400320D01*
Y402352D02*
X233552Y408448D01*
X239648D01*
X236600Y402352D01*
X300100Y425720D02*
X295020Y435880D01*
X305180D01*
X300100Y425720D01*
Y427752D02*
X297052Y433848D01*
X303148D01*
X300100Y427752D01*
X225000Y374920D02*
X227540Y377460D01*
X230080D01*
X227540Y380000D01*
X230080Y382540D01*
X227540D01*
X225000Y385080D01*
X222460Y382540D01*
X219920D01*
X222460Y380000D01*
X219920Y377460D01*
X222460D01*
X225000Y374920D01*
Y376952D02*
X226524Y378476D01*
X228048D01*
X226524Y380000D01*
X228048Y381524D01*
X226524D01*
X225000Y383048D01*
X223476Y381524D01*
X221952D01*
X223476Y380000D01*
X221952Y378476D01*
X223476D01*
X225000Y376952D01*
X325000Y374920D02*
X327540Y377460D01*
X330080D01*
X327540Y380000D01*
X330080Y382540D01*
X327540D01*
X325000Y385080D01*
X322460Y382540D01*
X319920D01*
X322460Y380000D01*
X319920Y377460D01*
X322460D01*
X325000Y374920D01*
Y376952D02*
X326524Y378476D01*
X328048D01*
X326524Y380000D01*
X328048Y381524D01*
X326524D01*
X325000Y383048D01*
X323476Y381524D01*
X321952D01*
X323476Y380000D01*
X321952Y378476D01*
X323476D01*
X325000Y376952D01*
X269920Y374920D02*
X272460Y380000D01*
X269920Y385080D01*
X275000Y382540D01*
X280080Y385080D01*
X277540Y380000D01*
X280080Y374920D01*
X275000Y377460D01*
X269920Y374920D01*
X271952Y376952D02*
X273476Y380000D01*
X271952Y383048D01*
X275000Y381524D01*
X278048Y383048D01*
X276524Y380000D01*
X278048Y376952D01*
X275000Y378476D01*
X271952Y376952D01*
X308020Y329200D02*
X313100Y334280D01*
X318180Y329200D01*
X313100Y324120D01*
X308020Y329200D01*
X231820Y329200D02*
X236900Y334280D01*
X241980Y329200D01*
X236900Y324120D01*
X231820Y329200D01*
X41600Y400320D02*
X36520Y410480D01*
X46680D01*
X41600Y400320D01*
Y402352D02*
X38552Y408448D01*
X44648D01*
X41600Y402352D01*
X105100Y425720D02*
X100020Y435880D01*
X110180D01*
X105100Y425720D01*
Y427752D02*
X102052Y433848D01*
X108148D01*
X105100Y427752D01*
X30000Y374920D02*
X32540Y377460D01*
X35080D01*
X32540Y380000D01*
X35080Y382540D01*
X32540D01*
X30000Y385080D01*
X27460Y382540D01*
X24920D01*
X27460Y380000D01*
X24920Y377460D01*
X27460D01*
X30000Y374920D01*
Y376952D02*
X31524Y378476D01*
X33048D01*
X31524Y380000D01*
X33048Y381524D01*
X31524D01*
X30000Y383048D01*
X28476Y381524D01*
X26952D01*
X28476Y380000D01*
X26952Y378476D01*
X28476D01*
X30000Y376952D01*
X130000Y374920D02*
X132540Y377460D01*
X135080D01*
X132540Y380000D01*
X135080Y382540D01*
X132540D01*
X130000Y385080D01*
X127460Y382540D01*
X124920D01*
X127460Y380000D01*
X124920Y377460D01*
X127460D01*
X130000Y374920D01*
Y376952D02*
X131524Y378476D01*
X133048D01*
X131524Y380000D01*
X133048Y381524D01*
X131524D01*
X130000Y383048D01*
X128476Y381524D01*
X126952D01*
X128476Y380000D01*
X126952Y378476D01*
X128476D01*
X130000Y376952D01*
X74920Y374920D02*
X77460Y380000D01*
X74920Y385080D01*
X80000Y382540D01*
X85080Y385080D01*
X82540Y380000D01*
X85080Y374920D01*
X80000Y377460D01*
X74920Y374920D01*
X76952Y376952D02*
X78476Y380000D01*
X76952Y383048D01*
X80000Y381524D01*
X83048Y383048D01*
X81524Y380000D01*
X83048Y376952D01*
X80000Y378476D01*
X76952Y376952D01*
X113020Y329200D02*
X118100Y334280D01*
X123180Y329200D01*
X118100Y324120D01*
X113020Y329200D01*
X36820Y329200D02*
X41900Y334280D01*
X46980Y329200D01*
X41900Y324120D01*
X36820Y329200D01*
X431600Y192720D02*
X426520Y202880D01*
X436680D01*
X431600Y192720D01*
Y194752D02*
X428552Y200848D01*
X434648D01*
X431600Y194752D01*
X495100Y218120D02*
X490020Y228280D01*
X500180D01*
X495100Y218120D01*
Y220152D02*
X492052Y226248D01*
X498148D01*
X495100Y220152D01*
X420000Y167320D02*
X422540Y169860D01*
X425080D01*
X422540Y172400D01*
X425080Y174940D01*
X422540D01*
X420000Y177480D01*
X417460Y174940D01*
X414920D01*
X417460Y172400D01*
X414920Y169860D01*
X417460D01*
X420000Y167320D01*
Y169352D02*
X421524Y170876D01*
X423048D01*
X421524Y172400D01*
X423048Y173924D01*
X421524D01*
X420000Y175448D01*
X418476Y173924D01*
X416952D01*
X418476Y172400D01*
X416952Y170876D01*
X418476D01*
X420000Y169352D01*
X520000Y167320D02*
X522540Y169860D01*
X525080D01*
X522540Y172400D01*
X525080Y174940D01*
X522540D01*
X520000Y177480D01*
X517460Y174940D01*
X514920D01*
X517460Y172400D01*
X514920Y169860D01*
X517460D01*
X520000Y167320D01*
Y169352D02*
X521524Y170876D01*
X523048D01*
X521524Y172400D01*
X523048Y173924D01*
X521524D01*
X520000Y175448D01*
X518476Y173924D01*
X516952D01*
X518476Y172400D01*
X516952Y170876D01*
X518476D01*
X520000Y169352D01*
X464920Y167320D02*
X467460Y172400D01*
X464920Y177480D01*
X470000Y174940D01*
X475080Y177480D01*
X472540Y172400D01*
X475080Y167320D01*
X470000Y169860D01*
X464920Y167320D01*
X466952Y169352D02*
X468476Y172400D01*
X466952Y175448D01*
X470000Y173924D01*
X473048Y175448D01*
X471524Y172400D01*
X473048Y169352D01*
X470000Y170876D01*
X466952Y169352D01*
X503020Y121600D02*
X508100Y126680D01*
X513180Y121600D01*
X508100Y116520D01*
X503020Y121600D01*
X426820Y121600D02*
X431900Y126680D01*
X436980Y121600D01*
X431900Y116520D01*
X426820Y121600D01*
X236600Y192720D02*
X231520Y202880D01*
X241680D01*
X236600Y192720D01*
Y194752D02*
X233552Y200848D01*
X239648D01*
X236600Y194752D01*
X300100Y218120D02*
X295020Y228280D01*
X305180D01*
X300100Y218120D01*
Y220152D02*
X297052Y226248D01*
X303148D01*
X300100Y220152D01*
X225000Y167320D02*
X227540Y169860D01*
X230080D01*
X227540Y172400D01*
X230080Y174940D01*
X227540D01*
X225000Y177480D01*
X222460Y174940D01*
X219920D01*
X222460Y172400D01*
X219920Y169860D01*
X222460D01*
X225000Y167320D01*
Y169352D02*
X226524Y170876D01*
X228048D01*
X226524Y172400D01*
X228048Y173924D01*
X226524D01*
X225000Y175448D01*
X223476Y173924D01*
X221952D01*
X223476Y172400D01*
X221952Y170876D01*
X223476D01*
X225000Y169352D01*
X325000Y167320D02*
X327540Y169860D01*
X330080D01*
X327540Y172400D01*
X330080Y174940D01*
X327540D01*
X325000Y177480D01*
X322460Y174940D01*
X319920D01*
X322460Y172400D01*
X319920Y169860D01*
X322460D01*
X325000Y167320D01*
Y169352D02*
X326524Y170876D01*
X328048D01*
X326524Y172400D01*
X328048Y173924D01*
X326524D01*
X325000Y175448D01*
X323476Y173924D01*
X321952D01*
X323476Y172400D01*
X321952Y170876D01*
X323476D01*
X325000Y169352D01*
X269920Y167320D02*
X272460Y172400D01*
X269920Y177480D01*
X275000Y174940D01*
X280080Y177480D01*
X277540Y172400D01*
X280080Y167320D01*
X275000Y169860D01*
X269920Y167320D01*
X271952Y169352D02*
X273476Y172400D01*
X271952Y175448D01*
X275000Y173924D01*
X278048Y175448D01*
X276524Y172400D01*
X278048Y169352D01*
X275000Y170876D01*
X271952Y169352D01*
X308020Y121600D02*
X313100Y126680D01*
X318180Y121600D01*
X313100Y116520D01*
X308020Y121600D01*
X231820Y121601D02*
X236900Y126680D01*
X241980Y121601D01*
X236900Y116521D01*
X231820Y121601D01*
X41600Y192717D02*
X36520Y202876D01*
X46680D01*
X41600Y192717D01*
Y194748D02*
X38552Y200844D01*
X44648D01*
X41600Y194748D01*
X105100Y218116D02*
X100020Y228277D01*
X110180D01*
X105100Y218116D01*
Y220149D02*
X102052Y226245D01*
X108148D01*
X105100Y220149D01*
X30000Y167316D02*
X32540Y169856D01*
X35080D01*
X32540Y172397D01*
X35080Y174937D01*
X32540D01*
X30000Y177477D01*
X27460Y174937D01*
X24920D01*
X27460Y172397D01*
X24920Y169856D01*
X27460D01*
X30000Y167316D01*
Y169349D02*
X31524Y170872D01*
X33048D01*
X31524Y172397D01*
X33048Y173920D01*
X31524D01*
X30000Y175445D01*
X28476Y173920D01*
X26952D01*
X28476Y172397D01*
X26952Y170872D01*
X28476D01*
X30000Y169349D01*
X130000Y167316D02*
X132540Y169856D01*
X135080D01*
X132540Y172397D01*
X135080Y174937D01*
X132540D01*
X130000Y177477D01*
X127460Y174937D01*
X124920D01*
X127460Y172397D01*
X124920Y169856D01*
X127460D01*
X130000Y167316D01*
Y169349D02*
X131524Y170872D01*
X133048D01*
X131524Y172397D01*
X133048Y173920D01*
X131524D01*
X130000Y175445D01*
X128476Y173920D01*
X126952D01*
X128476Y172397D01*
X126952Y170872D01*
X128476D01*
X130000Y169349D01*
X74920Y167316D02*
X77460Y172397D01*
X74920Y177477D01*
X80000Y174937D01*
X85080Y177477D01*
X82540Y172397D01*
X85080Y167316D01*
X80000Y169856D01*
X74920Y167316D01*
X76952Y169349D02*
X78476Y172397D01*
X76952Y175445D01*
X80000Y173920D01*
X83048Y175445D01*
X81524Y172397D01*
X83048Y169349D01*
X80000Y170872D01*
X76952Y169349D01*
X113020Y121596D02*
X118100Y126677D01*
X123180Y121596D01*
X118100Y116517D01*
X113020Y121596D01*
X36820Y121596D02*
X41900Y126677D01*
X46980Y121596D01*
X41900Y116517D01*
X36820Y121596D01*
X542460Y817460D02*
Y814920D01*
X547540D01*
Y817460D01*
X550080D01*
Y822540D01*
X547540D01*
Y825080D01*
X542460D01*
Y822540D01*
X539920D01*
Y817460D01*
X542460D01*
X567460D02*
Y814920D01*
X572540D01*
Y817460D01*
X575080D01*
Y822540D01*
X572540D01*
Y825080D01*
X567460D01*
Y822540D01*
X564920D01*
Y817460D01*
X567460D01*
X592460D02*
Y814920D01*
X597540D01*
Y817460D01*
X600080D01*
Y822540D01*
X597540D01*
Y825080D01*
X592460D01*
Y822540D01*
X589920D01*
Y817460D01*
X592460D01*
X617460D02*
Y814920D01*
X622540D01*
Y817460D01*
X625080D01*
Y822540D01*
X622540D01*
Y825080D01*
X617460D01*
Y822540D01*
X614920D01*
Y817460D01*
X617460D01*
X728421Y279309D02*
X730961D01*
X733501Y281849D01*
X736041Y279309D01*
X738581D01*
Y281849D01*
X736041Y284389D01*
X738581Y286929D01*
Y289469D01*
X736041D01*
X733501Y286929D01*
X730961Y289469D01*
X728421D01*
Y286929D01*
X730961Y284389D01*
X728421Y281849D01*
Y279309D01*
X696421Y209389D02*
X701501Y214469D01*
X706581Y209389D01*
X701501Y204309D01*
X696421Y209389D01*
X671421D02*
X676501Y214469D01*
X681581Y209389D01*
X676501Y204309D01*
X671421Y209389D01*
X646421D02*
X651501Y214469D01*
X656581Y209389D01*
X651501Y204309D01*
X646421Y209389D01*
X696421Y354389D02*
X701501Y359469D01*
X706581Y354389D01*
X701501Y349309D01*
X696421Y354389D01*
X646421D02*
X651501Y359469D01*
X656581Y354389D01*
X651501Y349309D01*
X646421Y354389D01*
X614421Y279309D02*
X616961D01*
X619501Y281849D01*
X622041Y279309D01*
X624581D01*
Y281849D01*
X622041Y284389D01*
X624581Y286929D01*
Y289469D01*
X622041D01*
X619501Y286929D01*
X616961Y289469D01*
X614421D01*
Y286929D01*
X616961Y284389D01*
X614421Y281849D01*
Y279309D01*
X920000Y-3388D02*
X922540Y-848D01*
X925080D01*
X922540Y1692D01*
X925080Y4232D01*
X922540D01*
X920000Y6772D01*
X917460Y4232D01*
X914920D01*
X917460Y1692D01*
X914920Y-848D01*
X917460D01*
X920000Y-3388D01*
X890870Y560920D02*
Y571080D01*
X901030D01*
Y560920D01*
X890870D01*
Y668920D02*
Y679080D01*
X901030D01*
Y668920D01*
X890870D01*
Y410920D02*
Y421080D01*
X901030D01*
Y410920D01*
X890870D01*
Y518920D02*
Y529080D01*
X901030D01*
Y518920D01*
X890870D01*
X0Y-5080D02*
X2540Y-2540D01*
X5080D01*
X2540Y0D01*
X5080Y2540D01*
X2540D01*
X0Y5080D01*
X-2540Y2540D01*
X-5080D01*
X-2540Y0D01*
X-5080Y-2540D01*
X-2540D01*
X0Y-5080D01*
X920000Y824920D02*
X922540Y827460D01*
X925080D01*
X922540Y830000D01*
X925080Y832540D01*
X922540D01*
X920000Y835080D01*
X917460Y832540D01*
X914920D01*
X917460Y830000D01*
X914920Y827460D01*
X917460D01*
X920000Y824920D01*
X0D02*
X2540Y827460D01*
X5080D01*
X2540Y830000D01*
X5080Y832540D01*
X2540D01*
X0Y835080D01*
X-2540Y832540D01*
X-5080D01*
X-2540Y830000D01*
X-5080Y827460D01*
X-2540D01*
X0Y824920D01*
X681900Y811200D02*
X684440Y816280D01*
X681900Y821360D01*
X686980Y818820D01*
X692060Y821360D01*
X689520Y816280D01*
X692060Y811200D01*
X686980Y813740D01*
X681900Y811200D01*
X694600D02*
X697140Y816280D01*
X694600Y821360D01*
X699680Y818820D01*
X704760Y821360D01*
X702220Y816280D01*
X704760Y811200D01*
X699680Y813740D01*
X694600Y811200D01*
X707300D02*
X709840Y816280D01*
X707300Y821360D01*
X712380Y818820D01*
X717460Y821360D01*
X714920Y816280D01*
X717460Y811200D01*
X712380Y813740D01*
X707300Y811200D01*
X720000D02*
X722540Y816280D01*
X720000Y821360D01*
X725080Y818820D01*
X730160Y821360D01*
X727620Y816280D01*
X730160Y811200D01*
X725080Y813740D01*
X720000Y811200D01*
X732700D02*
X735240Y816280D01*
X732700Y821360D01*
X737780Y818820D01*
X742860Y821360D01*
X740320Y816280D01*
X742860Y811200D01*
X737780Y813740D01*
X732700Y811200D01*
X745400D02*
X747940Y816280D01*
X745400Y821360D01*
X750480Y818820D01*
X755560Y821360D01*
X753020Y816280D01*
X755560Y811200D01*
X750480Y813740D01*
X745400Y811200D01*
X758100D02*
X760640Y816280D01*
X758100Y821360D01*
X763180Y818820D01*
X768260Y821360D01*
X765720Y816280D01*
X768260Y811200D01*
X763180Y813740D01*
X758100Y811200D01*
X770800D02*
X773340Y816280D01*
X770800Y821360D01*
X775880Y818820D01*
X780960Y821360D01*
X778420Y816280D01*
X780960Y811200D01*
X775880Y813740D01*
X770800Y811200D01*
X222257Y554657D02*
Y564817D01*
X232417D01*
Y554657D01*
X222257D01*
X224289Y556689D02*
Y562785D01*
X230385D01*
Y556689D01*
X224289D01*
X156011Y538234D02*
Y548394D01*
X166171D01*
Y538234D01*
X156011D01*
X158043Y540266D02*
Y546362D01*
X164139D01*
Y540266D01*
X158043D01*
X104968Y474283D02*
Y484443D01*
X115128D01*
Y474283D01*
X104968D01*
X107000Y476315D02*
Y482411D01*
X113096D01*
Y476315D01*
X107000D01*
X15817Y498056D02*
Y508216D01*
X25977D01*
Y498056D01*
X15817D01*
X17849Y500088D02*
Y506184D01*
X23945D01*
Y500088D01*
X17849D01*
X12637Y521543D02*
Y531702D01*
X22797D01*
Y521543D01*
X12637D01*
X14669Y523574D02*
Y529670D01*
X20765D01*
Y523574D01*
X14669D01*
X14735Y558963D02*
Y569123D01*
X24895D01*
Y558963D01*
X14735D01*
X16767Y560995D02*
Y567091D01*
X22863D01*
Y560995D01*
X16767D01*
X13170Y544435D02*
Y554595D01*
X23330D01*
Y544435D01*
X13170D01*
X15202Y546467D02*
Y552563D01*
X21298D01*
Y546467D01*
X15202D01*
X14511Y572263D02*
Y582423D01*
X24671D01*
Y572263D01*
X14511D01*
X16543Y574295D02*
Y580391D01*
X22639D01*
Y574295D01*
X16543D01*
X247896Y518297D02*
Y528457D01*
X258056D01*
Y518297D01*
X247896D01*
X249928Y520329D02*
Y526425D01*
X256024D01*
Y520329D01*
X249928D01*
X772125Y753499D02*
Y763659D01*
X782286D01*
Y753499D01*
X772125D01*
X774157Y755531D02*
Y761627D01*
X780254D01*
Y755531D01*
X774157D01*
X710131Y466686D02*
Y476846D01*
X720291D01*
Y466686D01*
X710131D01*
X712163Y468718D02*
Y474814D01*
X718259D01*
Y468718D01*
X712163D01*
X709684Y478756D02*
Y488916D01*
X719844D01*
Y478756D01*
X709684D01*
X711716Y480788D02*
Y486884D01*
X717812D01*
Y480788D01*
X711716D01*
X697346Y478935D02*
Y489095D01*
X707506D01*
Y478935D01*
X697346D01*
X699378Y480967D02*
Y487063D01*
X705474D01*
Y480967D01*
X699378D01*
X697078Y466775D02*
Y476935D01*
X707238D01*
Y466775D01*
X697078D01*
X699110Y468807D02*
Y474903D01*
X705206D01*
Y468807D01*
X699110D01*
X674962Y497630D02*
Y507790D01*
X685122D01*
Y497630D01*
X674962D01*
X676994Y499662D02*
Y505758D01*
X683090D01*
Y499662D01*
X676994D01*
X683715Y555161D02*
Y565321D01*
X693875D01*
Y555161D01*
X683715D01*
X685747Y557193D02*
Y563289D01*
X691843D01*
Y557193D01*
X685747D01*
X695507Y525595D02*
Y535755D01*
X705667D01*
Y525595D01*
X695507D01*
X697539Y527627D02*
Y533723D01*
X703635D01*
Y527627D01*
X697539D01*
X735149Y551083D02*
Y561243D01*
X745309D01*
Y551083D01*
X735149D01*
X737181Y553115D02*
Y559211D01*
X743277D01*
Y553115D01*
X737181D01*
X742405Y542330D02*
Y552490D01*
X752565D01*
Y542330D01*
X742405D01*
X744437Y544362D02*
Y550458D01*
X750533D01*
Y544362D01*
X744437D01*
X814777Y504754D02*
Y514914D01*
X824937D01*
Y504754D01*
X814777D01*
X816809Y506786D02*
Y512882D01*
X822905D01*
Y506786D01*
X816809D01*
X822866Y419895D02*
Y430055D01*
X833026D01*
Y419895D01*
X822866D01*
X824898Y421927D02*
Y428023D01*
X830994D01*
Y421927D01*
X824898D01*
X856250Y419514D02*
Y429674D01*
X866410D01*
Y419514D01*
X856250D01*
X858282Y421546D02*
Y427642D01*
X864378D01*
Y421546D01*
X858282D01*
X811998Y449787D02*
Y459947D01*
X822158D01*
Y449787D01*
X811998D01*
X814030Y451819D02*
Y457915D01*
X820126D01*
Y451819D01*
X814030D01*
X790914Y430005D02*
Y440165D01*
X801074D01*
Y430005D01*
X790914D01*
X792946Y432038D02*
Y438134D01*
X799042D01*
Y432038D01*
X792946D01*
X757557Y520623D02*
Y530783D01*
X767717D01*
Y520623D01*
X757557D01*
X759588Y522655D02*
Y528751D01*
X765685D01*
Y522655D01*
X759588D01*
X771299Y508307D02*
Y518467D01*
X781459D01*
Y508307D01*
X771299D01*
X773331Y510339D02*
Y516435D01*
X779427D01*
Y510339D01*
X773331D01*
X796191Y515826D02*
Y525986D01*
X806351D01*
Y515826D01*
X796191D01*
X798223Y517858D02*
Y523954D01*
X804319D01*
Y517858D01*
X798223D01*
X842476Y547201D02*
Y557361D01*
X852636D01*
Y547201D01*
X842476D01*
X844508Y549233D02*
Y555329D01*
X850604D01*
Y549233D01*
X844508D01*
X870868Y566389D02*
Y576549D01*
X881028D01*
Y566389D01*
X870868D01*
X872900Y568420D02*
Y574516D01*
X878996D01*
Y568420D01*
X872900D01*
X857644Y546553D02*
Y556712D01*
X867804D01*
Y546553D01*
X857644D01*
X859676Y548585D02*
Y554680D01*
X865772D01*
Y548585D01*
X859676D01*
X203396Y834812D02*
Y844972D01*
X213556D01*
Y834812D01*
X203396D01*
X205428Y836844D02*
Y842940D01*
X211524D01*
Y836844D01*
X205428D01*
X175745Y835202D02*
Y845362D01*
X185905D01*
Y835202D01*
X175745D01*
X177777Y837234D02*
Y843330D01*
X183873D01*
Y837234D01*
X177777D01*
X176291Y818378D02*
Y828538D01*
X186451D01*
Y818378D01*
X176291D01*
X178323Y820410D02*
Y826506D01*
X184419D01*
Y820410D01*
X178323D01*
X176836Y804825D02*
Y814985D01*
X186996D01*
Y804825D01*
X176836D01*
X178868Y806857D02*
Y812953D01*
X184964D01*
Y806857D01*
X178868D01*
X190233Y851282D02*
Y861442D01*
X200393D01*
Y851282D01*
X190233D01*
X192265Y853314D02*
Y859410D01*
X198361D01*
Y853314D01*
X192265D01*
X494963Y67780D02*
Y77940D01*
X505123D01*
Y67780D01*
X494963D01*
X496995Y69812D02*
Y75908D01*
X503091D01*
Y69812D01*
X496995D01*
X301020Y66404D02*
Y76564D01*
X311180D01*
Y66404D01*
X301020D01*
X303052Y68436D02*
Y74532D01*
X309148D01*
Y68436D01*
X303052D01*
X107049Y68872D02*
Y79032D01*
X117209D01*
Y68872D01*
X107049D01*
X109081Y70904D02*
Y77000D01*
X115177D01*
Y70904D01*
X109081D01*
X132627Y289715D02*
Y299875D01*
X142787D01*
Y289715D01*
X132627D01*
X134659Y291747D02*
Y297843D01*
X140755D01*
Y291747D01*
X134659D01*
X298009Y279073D02*
Y289233D01*
X308169D01*
Y279073D01*
X298009D01*
X300041Y281105D02*
Y287201D01*
X306137D01*
Y281105D01*
X300041D01*
X398725Y99411D02*
Y109572D01*
X408885D01*
Y99411D01*
X398725D01*
X400757Y101444D02*
Y107540D01*
X406853D01*
Y101444D01*
X400757D01*
X211668Y100149D02*
Y110309D01*
X221828D01*
Y100149D01*
X211668D01*
X213700Y102181D02*
Y108277D01*
X219796D01*
Y102181D01*
X213700D01*
X20288Y266598D02*
Y276758D01*
X30448D01*
Y266598D01*
X20288D01*
X22320Y268630D02*
Y274726D01*
X28416D01*
Y268630D01*
X22320D01*
X209567Y266817D02*
Y276977D01*
X219727D01*
Y266817D01*
X209567D01*
X211599Y268849D02*
Y274945D01*
X217695D01*
Y268849D01*
X211599D01*
X395778Y257665D02*
Y267825D01*
X405938D01*
Y257665D01*
X395778D01*
X397810Y259697D02*
Y265793D01*
X403906D01*
Y259697D01*
X397810D01*
X173044Y582647D02*
Y592807D01*
X183204D01*
Y582647D01*
X173044D01*
X175076Y584679D02*
Y590775D01*
X181172D01*
Y584679D01*
X175076D01*
X170251Y529168D02*
Y539328D01*
X180411D01*
Y529168D01*
X170251D01*
X172283Y531200D02*
Y537296D01*
X178379D01*
Y531200D01*
X172283D01*
X25347Y432880D02*
Y443040D01*
X35508D01*
Y432880D01*
X25347D01*
X27380Y434912D02*
Y441008D01*
X33475D01*
Y434912D01*
X27380D01*
X42865Y613422D02*
Y623582D01*
X53025D01*
Y613422D01*
X42865D01*
X44897Y615454D02*
Y621550D01*
X50993D01*
Y615454D01*
X44897D01*
X160153Y612659D02*
Y622819D01*
X170313D01*
Y612659D01*
X160153D01*
X162185Y614691D02*
Y620787D01*
X168281D01*
Y614691D01*
X162185D01*
X548308Y476808D02*
Y486968D01*
X558468D01*
Y476808D01*
X548308D01*
X550340Y478840D02*
Y484936D01*
X556436D01*
Y478840D01*
X550340D01*
X365985Y466869D02*
Y477029D01*
X376145D01*
Y466869D01*
X365985D01*
X368017Y468901D02*
Y474997D01*
X374113D01*
Y468901D01*
X368017D01*
X340963Y658616D02*
Y668776D01*
X351123D01*
Y658616D01*
X340963D01*
X342995Y660648D02*
Y666745D01*
X349091D01*
Y660648D01*
X342995D01*
X196374Y661924D02*
Y672084D01*
X206534D01*
Y661924D01*
X196374D01*
X198406Y663956D02*
Y670052D01*
X204502D01*
Y663956D01*
X198406D01*
X191136Y488904D02*
Y499064D01*
X201296D01*
Y488904D01*
X191136D01*
X193168Y490936D02*
Y497032D01*
X199264D01*
Y490936D01*
X193168D01*
X197686Y743060D02*
Y753220D01*
X207846D01*
Y743060D01*
X197686D01*
X199718Y745092D02*
Y751188D01*
X205814D01*
Y745092D01*
X199718D01*
X185063Y740403D02*
Y750563D01*
X195223D01*
Y740403D01*
X185063D01*
X187095Y742435D02*
Y748531D01*
X193191D01*
Y742435D01*
X187095D01*
X323611Y593387D02*
Y603547D01*
X333771D01*
Y593387D01*
X323611D01*
X325643Y595419D02*
Y601515D01*
X331739D01*
Y595419D01*
X325643D01*
X323800Y621248D02*
Y631408D01*
X333960D01*
Y621248D01*
X323800D01*
X325832Y623280D02*
Y629376D01*
X331928D01*
Y623280D01*
X325832D01*
X108984Y615987D02*
Y626147D01*
X119144D01*
Y615987D01*
X108984D01*
X111016Y618019D02*
Y624115D01*
X117112D01*
Y618019D01*
X111016D01*
X147084Y616413D02*
Y626573D01*
X157244D01*
Y616413D01*
X147084D01*
X149116Y618445D02*
Y624541D01*
X155212D01*
Y618445D01*
X149116D01*
X318651Y635409D02*
Y645569D01*
X328811D01*
Y635409D01*
X318651D01*
X320683Y637441D02*
Y643537D01*
X326779D01*
Y637441D01*
X320683D01*
X563758Y629128D02*
Y639288D01*
X573918D01*
Y629128D01*
X563758D01*
X565790Y631160D02*
Y637256D01*
X571886D01*
Y631160D01*
X565790D01*
X580167Y190520D02*
Y200680D01*
X590327D01*
Y190520D01*
X580167D01*
X582199Y192552D02*
Y198648D01*
X588295D01*
Y192552D01*
X582199D01*
X594423Y728771D02*
Y738931D01*
X604583D01*
Y728771D01*
X594423D01*
X596455Y730803D02*
Y736899D01*
X602551D01*
Y730803D01*
X596455D01*
X645524Y394133D02*
Y404293D01*
X655684D01*
Y394133D01*
X645524D01*
X647556Y396165D02*
Y402261D01*
X653652D01*
Y396165D01*
X647556D01*
X140707Y723881D02*
Y734041D01*
X150867D01*
Y723881D01*
X140707D01*
X142739Y725913D02*
Y732009D01*
X148835D01*
Y725913D01*
X142739D01*
X135321Y616175D02*
Y626335D01*
X145481D01*
Y616175D01*
X135321D01*
X137353Y618207D02*
Y624303D01*
X143449D01*
Y618207D01*
X137353D01*
X823361Y400558D02*
Y410718D01*
X833521D01*
Y400558D01*
X823361D01*
X825393Y402590D02*
Y408686D01*
X831489D01*
Y402590D01*
X825393D01*
X822859Y440901D02*
Y451061D01*
X833019D01*
Y440901D01*
X822859D01*
X824891Y442933D02*
Y449029D01*
X830987D01*
Y442933D01*
X824891D01*
X837752Y489027D02*
Y499187D01*
X847912D01*
Y489027D01*
X837752D01*
X839784Y491059D02*
Y497155D01*
X845880D01*
Y491059D01*
X839784D01*
X96438Y663882D02*
Y674042D01*
X106598D01*
Y663882D01*
X96438D01*
X98470Y665914D02*
Y672010D01*
X104566D01*
Y665914D01*
X98470D01*
X96438Y676450D02*
Y686610D01*
X106598D01*
Y676450D01*
X96438D01*
X98470Y678482D02*
Y684578D01*
X104566D01*
Y678482D01*
X98470D01*
X109048Y676450D02*
Y686610D01*
X119208D01*
Y676450D01*
X109048D01*
X111080Y678482D02*
Y684578D01*
X117176D01*
Y678482D01*
X111080D01*
X109048Y663882D02*
Y674042D01*
X119208D01*
Y663882D01*
X109048D01*
X111080Y665914D02*
Y672010D01*
X117176D01*
Y665914D01*
X111080D01*
X444075Y577564D02*
Y587724D01*
X454235D01*
Y577564D01*
X444075D01*
X446107Y579596D02*
Y585692D01*
X452203D01*
Y579596D01*
X446107D01*
X387663Y535457D02*
Y545617D01*
X397823D01*
Y535457D01*
X387663D01*
X389695Y537489D02*
Y543585D01*
X395791D01*
Y537489D01*
X389695D01*
X456754Y411533D02*
Y421693D01*
X466914D01*
Y411533D01*
X456754D01*
X458786Y413565D02*
Y419661D01*
X464882D01*
Y413565D01*
X458786D01*
X691890Y399489D02*
Y409649D01*
X702050D01*
Y399489D01*
X691890D01*
X693922Y401521D02*
Y407617D01*
X700018D01*
Y401521D01*
X693922D01*
X161747Y575426D02*
Y585586D01*
X171907D01*
Y575426D01*
X161747D01*
X163779Y577458D02*
Y583554D01*
X169875D01*
Y577458D01*
X163779D01*
X116035Y569952D02*
Y580112D01*
X126195D01*
Y569952D01*
X116035D01*
X118067Y571983D02*
Y578079D01*
X124163D01*
Y571983D01*
X118067D01*
X130055Y734268D02*
Y744428D01*
X140215D01*
Y734268D01*
X130055D01*
X132087Y736300D02*
Y742396D01*
X138183D01*
Y736300D01*
X132087D01*
X191346Y560469D02*
Y570629D01*
X201506D01*
Y560469D01*
X191346D01*
X193378Y562501D02*
Y568597D01*
X199474D01*
Y562501D01*
X193378D01*
X210584Y744805D02*
Y754965D01*
X220744D01*
Y744805D01*
X210584D01*
X212616Y746837D02*
Y752933D01*
X218712D01*
Y746837D01*
X212616D01*
X233357Y643558D02*
Y653718D01*
X243517D01*
Y643558D01*
X233357D01*
X235389Y645590D02*
Y651686D01*
X241485D01*
Y645590D01*
X235389D01*
X240642Y634169D02*
Y644329D01*
X250802D01*
Y634169D01*
X240642D01*
X242674Y636201D02*
Y642297D01*
X248770D01*
Y636201D01*
X242674D01*
X382018Y743383D02*
Y753543D01*
X392178D01*
Y743383D01*
X382018D01*
X384049Y745415D02*
Y751511D01*
X390145D01*
Y745415D01*
X384049D01*
X381637Y624419D02*
Y634579D01*
X391797D01*
Y624419D01*
X381637D01*
X383669Y626451D02*
Y632547D01*
X389765D01*
Y626451D01*
X383669D01*
X97399Y634307D02*
Y644467D01*
X107559D01*
Y634307D01*
X97399D01*
X99431Y636339D02*
Y642435D01*
X105527D01*
Y636339D01*
X99431D01*
X651430Y711340D02*
Y721500D01*
X661590D01*
Y711340D01*
X651430D01*
X653462Y713372D02*
Y719468D01*
X659557D01*
Y713372D01*
X653462D01*
X58215Y753855D02*
Y764015D01*
X68375D01*
Y753855D01*
X58215D01*
X60247Y755887D02*
Y761983D01*
X66343D01*
Y755887D01*
X60247D01*
X694689Y770853D02*
Y781013D01*
X704849D01*
Y770853D01*
X694689D01*
X696721Y772885D02*
Y778981D01*
X702818D01*
Y772885D01*
X696721D01*
X245393Y773689D02*
Y783849D01*
X255553D01*
Y773689D01*
X245393D01*
X247425Y775721D02*
Y781817D01*
X253521D01*
Y775721D01*
X247425D01*
X83385Y644068D02*
Y654228D01*
X93545D01*
Y644068D01*
X83385D01*
X85417Y646100D02*
Y652196D01*
X91513D01*
Y646100D01*
X85417D01*
X232986Y783835D02*
Y793995D01*
X243146D01*
Y783835D01*
X232986D01*
X235018Y785867D02*
Y791963D01*
X241114D01*
Y785867D01*
X235018D01*
X73149Y790954D02*
Y801114D01*
X83309D01*
Y790954D01*
X73149D01*
X75181Y792986D02*
Y799082D01*
X81277D01*
Y792986D01*
X75181D01*
X163948Y809082D02*
Y819242D01*
X174108D01*
Y809082D01*
X163948D01*
X165980Y811114D02*
Y817210D01*
X172076D01*
Y811114D01*
X165980D01*
X110133Y808176D02*
Y818336D01*
X120293D01*
Y808176D01*
X110133D01*
X112165Y810208D02*
Y816304D01*
X118261D01*
Y810208D01*
X112165D01*
X75000Y743014D02*
Y753174D01*
X85160D01*
Y743014D01*
X75000D01*
X77032Y745046D02*
Y751142D01*
X83128D01*
Y745046D01*
X77032D01*
X174061Y742352D02*
Y752512D01*
X184221D01*
Y742352D01*
X174061D01*
X176093Y744384D02*
Y750480D01*
X182189D01*
Y744384D01*
X176093D01*
X97451Y328604D02*
Y338764D01*
X107612D01*
Y328604D01*
X97451D01*
X99483Y330635D02*
Y336731D01*
X105580D01*
Y330635D01*
X99483D01*
X268942Y583973D02*
Y594133D01*
X279102D01*
Y583973D01*
X268942D01*
X270974Y586005D02*
Y592101D01*
X277070D01*
Y586005D01*
X270974D01*
X113921Y527547D02*
Y537706D01*
X124081D01*
Y527547D01*
X113921D01*
X115954Y529579D02*
Y535675D01*
X122050D01*
Y529579D01*
X115954D01*
X121718Y488222D02*
Y498382D01*
X131878D01*
Y488222D01*
X121718D01*
X123750Y490254D02*
Y496350D01*
X129846D01*
Y490254D01*
X123750D01*
X568243Y500631D02*
Y510791D01*
X578403D01*
Y500631D01*
X568243D01*
X570275Y502663D02*
Y508759D01*
X576371D01*
Y502663D01*
X570275D01*
X670760Y482951D02*
Y493111D01*
X680920D01*
Y482951D01*
X670760D01*
X672792Y484983D02*
Y491079D01*
X678888D01*
Y484983D01*
X672792D01*
X674899Y463036D02*
X669819Y473196D01*
X679979D01*
X674899Y463036D01*
X136652Y841873D02*
Y852033D01*
X146812D01*
Y841873D01*
X136652D01*
X138684Y843905D02*
Y850001D01*
X144780D01*
Y843905D01*
X138684D01*
X138313Y495942D02*
Y506102D01*
X148473D01*
Y495942D01*
X138313D01*
X140345Y497974D02*
Y504070D01*
X146441D01*
Y497974D01*
X140345D01*
X112736Y511673D02*
Y521833D01*
X122896D01*
Y511673D01*
X112736D01*
X114768Y513705D02*
Y519801D01*
X120864D01*
Y513705D01*
X114768D01*
X43905Y524822D02*
Y534982D01*
X54065D01*
Y524822D01*
X43905D01*
X45937Y526854D02*
Y532950D01*
X52033D01*
Y526854D01*
X45937D01*
X312216Y270515D02*
Y280675D01*
X322376D01*
Y270515D01*
X312216D01*
X314248Y272547D02*
Y278643D01*
X320344D01*
Y272547D01*
X314248D01*
X534036Y218228D02*
Y228388D01*
X544196D01*
Y218228D01*
X534036D01*
X536068Y220260D02*
Y226356D01*
X542164D01*
Y220260D01*
X536068D01*
X516483Y307624D02*
Y317784D01*
X526643D01*
Y307624D01*
X516483D01*
X518515Y309656D02*
Y315752D01*
X524611D01*
Y309656D01*
X518515D01*
X241700Y275891D02*
Y286051D01*
X251860D01*
Y275891D01*
X241700D01*
X243732Y277923D02*
Y284019D01*
X249828D01*
Y277923D01*
X243732D01*
X359390Y586844D02*
Y597004D01*
X369551D01*
Y586844D01*
X359390D01*
X361423Y588876D02*
Y594972D01*
X367519D01*
Y588876D01*
X361423D01*
X373269Y592981D02*
Y603141D01*
X383429D01*
Y592981D01*
X373269D01*
X375301Y595013D02*
Y601109D01*
X381397D01*
Y595013D01*
X375301D01*
X535368Y429419D02*
Y439579D01*
X545528D01*
Y429419D01*
X535368D01*
X537400Y431451D02*
Y437547D01*
X543496D01*
Y431451D01*
X537400D01*
X339152Y425720D02*
Y435880D01*
X349312D01*
Y425720D01*
X339152D01*
X341184Y427752D02*
Y433848D01*
X347280D01*
Y427752D01*
X341184D01*
X382066Y192118D02*
Y202278D01*
X392226D01*
Y192118D01*
X382066D01*
X384098Y194150D02*
Y200246D01*
X390194D01*
Y194150D01*
X384098D01*
X186185Y192683D02*
Y202843D01*
X196345D01*
Y192683D01*
X186185D01*
X188217Y194715D02*
Y200811D01*
X194313D01*
Y194715D01*
X188217D01*
X-8633Y193258D02*
Y203418D01*
X1527D01*
Y193258D01*
X-8633D01*
X-6601Y195290D02*
Y201386D01*
X-505D01*
Y195290D01*
X-6601D01*
X145025Y218136D02*
Y228296D01*
X155185D01*
Y218136D01*
X145025D01*
X147057Y220168D02*
Y226264D01*
X153153D01*
Y220168D01*
X147057D01*
X145115Y425530D02*
Y435690D01*
X155275D01*
Y425530D01*
X145115D01*
X147147Y427562D02*
Y433658D01*
X153243D01*
Y427562D01*
X147147D01*
X387133Y598795D02*
Y608955D01*
X397293D01*
Y598795D01*
X387133D01*
X389165Y600827D02*
Y606923D01*
X395261D01*
Y600827D01*
X389165D01*
X366053Y712626D02*
Y722786D01*
X376213D01*
Y712626D01*
X366053D01*
X368085Y714658D02*
Y720754D01*
X374181D01*
Y714658D01*
X368085D01*
X358653Y702457D02*
Y712617D01*
X368813D01*
Y702457D01*
X358653D01*
X360685Y704489D02*
Y710585D01*
X366781D01*
Y704489D01*
X360685D01*
X640265Y543288D02*
Y553448D01*
X650425D01*
Y543288D01*
X640265D01*
X642297Y545320D02*
Y551416D01*
X648393D01*
Y545320D01*
X642297D01*
X707604Y506910D02*
Y517070D01*
X717764D01*
Y506910D01*
X707604D01*
X709636Y508942D02*
Y515038D01*
X715732D01*
Y508942D01*
X709636D01*
X732076Y508675D02*
Y518835D01*
X742236D01*
Y508675D01*
X732076D01*
X734108Y510707D02*
Y516803D01*
X740204D01*
Y510707D01*
X734108D01*
X825040Y619410D02*
Y629570D01*
X835200D01*
Y619410D01*
X825040D01*
X827072Y621442D02*
Y627538D01*
X833168D01*
Y621442D01*
X827072D01*
X862595Y516866D02*
Y527026D01*
X872755D01*
Y516866D01*
X862595D01*
X864627Y518898D02*
Y524994D01*
X870723D01*
Y518898D01*
X864627D01*
X857013Y454923D02*
Y465083D01*
X867173D01*
Y454923D01*
X857013D01*
X859045Y456955D02*
Y463051D01*
X865141D01*
Y456955D01*
X859045D01*
X869691Y475708D02*
Y485868D01*
X879851D01*
Y475708D01*
X869691D01*
X871723Y477740D02*
Y483836D01*
X877819D01*
Y477740D01*
X871723D01*
X872641Y604296D02*
Y614456D01*
X882801D01*
Y604296D01*
X872641D01*
X874672Y606328D02*
Y612424D01*
X880769D01*
Y606328D01*
X874672D01*
X682198Y444169D02*
Y454329D01*
X692358D01*
Y444169D01*
X682198D01*
X684230Y446201D02*
Y452297D01*
X690326D01*
Y446201D01*
X684230D01*
X821350Y647836D02*
Y657996D01*
X831510D01*
Y647836D01*
X821350D01*
X823382Y649868D02*
Y655964D01*
X829478D01*
Y649868D01*
X823382D01*
X803744Y605512D02*
Y615672D01*
X813904D01*
Y605512D01*
X803744D01*
X805776Y607544D02*
Y613640D01*
X811872D01*
Y607544D01*
X805776D01*
X858153Y657393D02*
Y667553D01*
X868313D01*
Y657393D01*
X858153D01*
X860185Y659425D02*
Y665521D01*
X866281D01*
Y659425D01*
X860185D01*
X850785Y605025D02*
Y615185D01*
X860945D01*
Y605025D01*
X850785D01*
X852817Y607057D02*
Y613153D01*
X858913D01*
Y607057D01*
X852817D01*
X803209Y561160D02*
Y571320D01*
X813369D01*
Y561160D01*
X803209D01*
X805241Y563192D02*
Y569288D01*
X811337D01*
Y563192D01*
X805241D01*
X870253Y589971D02*
Y600131D01*
X880413D01*
Y589971D01*
X870253D01*
X872285Y592003D02*
Y598099D01*
X878381D01*
Y592003D01*
X872285D01*
X870811Y439717D02*
Y449877D01*
X880971D01*
Y439717D01*
X870811D01*
X872843Y441749D02*
Y447845D01*
X878939D01*
Y441749D01*
X872843D01*
X870423Y489856D02*
Y500016D01*
X880583D01*
Y489856D01*
X870423D01*
X872455Y491888D02*
Y497984D01*
X878550D01*
Y491888D01*
X872455D01*
X869682Y462440D02*
Y472600D01*
X879843D01*
Y462440D01*
X869682D01*
X871714Y464472D02*
Y470568D01*
X877811D01*
Y464472D01*
X871714D01*
X821641Y472048D02*
Y482207D01*
X831801D01*
Y472048D01*
X821641D01*
X823673Y474080D02*
Y480176D01*
X829769D01*
Y474080D01*
X823673D01*
X873590Y617822D02*
Y627982D01*
X883750D01*
Y617822D01*
X873590D01*
X875622Y619854D02*
Y625950D01*
X881718D01*
Y619854D01*
X875622D01*
X870307Y639907D02*
Y650067D01*
X880467D01*
Y639907D01*
X870307D01*
X872339Y641939D02*
Y648035D01*
X878435D01*
Y641939D01*
X872339D01*
D114*
X933330Y566000D02*
G03*
X933330Y566000I-5080J0D01*
G01*
Y674000D02*
G03*
X933330Y674000I-5080J0D01*
G01*
Y416000D02*
G03*
X933330Y416000I-5080J0D01*
G01*
Y524000D02*
G03*
X933330Y524000I-5080J0D01*
G01*
M02*
