G04*
G04 #@! TF.GenerationSoftware,Altium Limited,Altium Designer,25.4.2 (15)*
G04*
G04 Layer_Color=32896*
%FSLAX44Y44*%
%MOMM*%
G71*
G04*
G04 #@! TF.SameCoordinates,C2DD7520-A2B9-4FCF-9691-AC0A9630E6EF*
G04*
G04*
G04 #@! TF.FilePolarity,Positive*
G04*
G01*
G75*
%ADD14C,0.1270*%
D14*
X425600Y447550D02*
G03*
X408850Y430800I0J-16750D01*
G01*
X512850Y407550D02*
G03*
X517850Y412550I0J5000D01*
G01*
X230600Y447550D02*
G03*
X213850Y430800I0J-16750D01*
G01*
X317850Y407550D02*
G03*
X322850Y412550I0J5000D01*
G01*
X35600Y447550D02*
G03*
X18850Y430800I0J-16750D01*
G01*
X122850Y407550D02*
G03*
X127850Y412550I0J5000D01*
G01*
X425600Y239950D02*
G03*
X408850Y223200I0J-16750D01*
G01*
X512850Y199950D02*
G03*
X517850Y204950I0J5000D01*
G01*
X230600Y239950D02*
G03*
X213850Y223200I0J-16750D01*
G01*
X317850Y199950D02*
G03*
X322850Y204950I0J5000D01*
G01*
X35600Y239946D02*
G03*
X18850Y223197I0J-16750D01*
G01*
X122850Y199946D02*
G03*
X127850Y204946I0J5000D01*
G01*
X517850Y412550D02*
Y447550D01*
X425600D02*
X517850D01*
X408850Y388650D02*
Y430800D01*
Y388650D02*
X441600D01*
X460500Y407550D02*
X512850D01*
X322850Y412550D02*
Y447550D01*
X230600D02*
X322850D01*
X213850Y388650D02*
Y430800D01*
Y388650D02*
X246600D01*
X265500Y407550D02*
X317850D01*
X127850Y412550D02*
Y447550D01*
X35600D02*
X127850D01*
X18850Y388650D02*
Y430800D01*
Y388650D02*
X51600D01*
X70500Y407550D02*
X122850D01*
X517850Y204950D02*
Y239950D01*
X425600D02*
X517850D01*
X408850Y181050D02*
Y223200D01*
Y181050D02*
X441600D01*
X460500Y199950D02*
X512850D01*
X322850Y204950D02*
Y239950D01*
X230600D02*
X322850D01*
X213850Y181050D02*
Y223200D01*
Y181050D02*
X246600D01*
X265500Y199950D02*
X317850D01*
X127850Y204946D02*
Y239946D01*
X35600D02*
X127850D01*
X18850Y181047D02*
Y223197D01*
Y181047D02*
X51600D01*
X70500Y199946D02*
X122850D01*
M02*
