G04*
G04 #@! TF.GenerationSoftware,Altium Limited,Altium Designer,25.4.2 (15)*
G04*
G04 Layer_Color=8388736*
%FSLAX44Y44*%
%MOMM*%
G71*
G04*
G04 #@! TF.SameCoordinates,C2DD7520-A2B9-4FCF-9691-AC0A9630E6EF*
G04*
G04*
G04 #@! TF.FilePolarity,Positive*
G04*
G01*
G75*
%ADD11C,0.2000*%
D11*
X613590Y568498D02*
Y576498D01*
Y568498D02*
X629590D01*
Y576498D01*
X613590D02*
X629590D01*
X840682Y439299D02*
Y451799D01*
Y439299D02*
X860682D01*
Y451799D01*
X840682D02*
X860682D01*
X839498Y406510D02*
X847498D01*
Y422510D01*
X839498D02*
X847498D01*
X839498Y406510D02*
Y422510D01*
X844391Y567136D02*
Y575136D01*
Y567136D02*
X860391D01*
Y575136D01*
X844391D02*
X860391D01*
X840682Y601203D02*
X860682D01*
Y588703D02*
Y601203D01*
X840682Y588703D02*
X860682D01*
X840682D02*
Y601203D01*
X725979Y524171D02*
X733979D01*
Y540171D01*
X725979D02*
X733979D01*
X725979Y524171D02*
Y540171D01*
X707331Y524130D02*
X716831D01*
Y541630D01*
X707331D02*
X716831D01*
X707331Y524130D02*
Y541630D01*
X855125Y469060D02*
Y486060D01*
X842125D02*
X855125D01*
X842125Y469060D02*
Y486060D01*
Y469060D02*
X855125D01*
X766701Y508424D02*
Y517924D01*
X749201D02*
X766701D01*
X749201Y508424D02*
Y517924D01*
Y508424D02*
X766701D01*
X788975Y483467D02*
Y491467D01*
Y483467D02*
X804975D01*
Y491467D01*
X788975D02*
X804975D01*
X788799Y464171D02*
Y472171D01*
Y464171D02*
X804799D01*
Y472171D01*
X788799D02*
X804799D01*
X855610Y616010D02*
Y633010D01*
X842610D02*
X855610D01*
X842610Y616010D02*
Y633010D01*
Y616010D02*
X855610D01*
X610956Y542118D02*
Y554618D01*
Y542118D02*
X630956D01*
Y554618D01*
X610956D02*
X630956D01*
X539163Y585513D02*
Y594513D01*
X522163D02*
X539163D01*
X522163Y585513D02*
Y594513D01*
Y585513D02*
X539163D01*
X539255Y564155D02*
Y572155D01*
X523255D02*
X539255D01*
X523255Y564155D02*
Y572155D01*
Y564155D02*
X539255D01*
X613590Y517698D02*
Y525698D01*
Y517698D02*
X629590D01*
Y525698D01*
X613590D02*
X629590D01*
X580250Y573184D02*
X589250D01*
Y590184D01*
X580250D02*
X589250D01*
X580250Y573184D02*
Y590184D01*
X39825Y548654D02*
Y556654D01*
Y548654D02*
X55825D01*
Y556654D01*
X39825D02*
X55825D01*
X39911Y572139D02*
Y580139D01*
Y572139D02*
X55911D01*
Y580139D01*
X39911D02*
X55911D01*
X59274Y498021D02*
Y507021D01*
X42274D02*
X59274D01*
X42274Y498021D02*
Y507021D01*
Y498021D02*
X59274D01*
X94882Y491841D02*
Y499841D01*
Y491841D02*
X110882D01*
Y499841D01*
X94882D02*
X110882D01*
X219135Y805174D02*
Y813174D01*
X203135D02*
X219135D01*
X203135Y805174D02*
Y813174D01*
Y805174D02*
X219135D01*
X230283Y526125D02*
X238283D01*
X238283Y542125D01*
X230283D02*
X238283D01*
X230283Y526125D02*
Y542125D01*
M02*
