G04*
G04 #@! TF.GenerationSoftware,Altium Limited,Altium Designer,25.4.2 (15)*
G04*
G04 Layer_Color=32896*
%FSLAX44Y44*%
%MOMM*%
G71*
G04*
G04 #@! TF.SameCoordinates,C2DD7520-A2B9-4FCF-9691-AC0A9630E6EF*
G04*
G04*
G04 #@! TF.FilePolarity,Positive*
G04*
G01*
G75*
%ADD108C,0.1524*%
%ADD113C,0.0254*%
D108*
X433377Y96222D02*
X452254D01*
X433377Y83014D02*
Y96222D01*
X489338D02*
X508197D01*
Y83014D02*
Y96222D01*
X489338Y83014D02*
X508197D01*
X489338Y80601D02*
Y83014D01*
X452254Y80601D02*
X489338D01*
X452254D02*
Y83014D01*
X433377D02*
X452254D01*
Y96222D02*
Y98000D01*
X433377D02*
X452254D01*
X433377D02*
Y111208D01*
X452254D01*
Y113621D01*
X489338D01*
Y111208D02*
Y113621D01*
Y111208D02*
X508197D01*
Y98000D02*
Y111208D01*
X489338Y98000D02*
X508197D01*
X489338Y96222D02*
Y98000D01*
X237744Y96207D02*
X256621D01*
X237744Y82999D02*
Y96207D01*
X293705D02*
X312564D01*
Y82999D02*
Y96207D01*
X293705Y82999D02*
X312564D01*
X293705Y80586D02*
Y82999D01*
X256621Y80586D02*
X293705D01*
X256621D02*
Y82999D01*
X237744D02*
X256621D01*
Y96207D02*
Y97985D01*
X237744D02*
X256621D01*
X237744D02*
Y111193D01*
X256621D01*
Y113606D01*
X293705D01*
Y111193D02*
Y113606D01*
Y111193D02*
X312564D01*
Y97985D02*
Y111193D01*
X293705Y97985D02*
X312564D01*
X293705Y96207D02*
Y97985D01*
X41794Y96164D02*
X60671D01*
X41794Y82956D02*
Y96164D01*
X97755D02*
X116614D01*
Y82956D02*
Y96164D01*
X97755Y82956D02*
X116614D01*
X97755Y80542D02*
Y82956D01*
X60671Y80542D02*
X97755D01*
X60671D02*
Y82956D01*
X41794D02*
X60671D01*
Y96164D02*
Y97942D01*
X41794D02*
X60671D01*
X41794D02*
Y111150D01*
X60671D01*
Y113562D01*
X97755D01*
Y111150D02*
Y113562D01*
Y111150D02*
X116614D01*
Y97942D02*
Y111150D01*
X97755Y97942D02*
X116614D01*
X97755Y96164D02*
Y97942D01*
X42886Y303841D02*
X61763D01*
X42886Y290633D02*
Y303841D01*
X98847D02*
X117706D01*
Y290633D02*
Y303841D01*
X98847Y290633D02*
X117706D01*
X98847Y288220D02*
Y290633D01*
X61763Y288220D02*
X98847D01*
X61763D02*
Y290633D01*
X42886D02*
X61763D01*
Y303841D02*
Y305619D01*
X42886D02*
X61763D01*
X42886D02*
Y318827D01*
X61763D01*
Y321240D01*
X98847D01*
Y318827D02*
Y321240D01*
Y318827D02*
X117706D01*
Y305619D02*
Y318827D01*
X98847Y305619D02*
X117706D01*
X98847Y303841D02*
Y305619D01*
X238069Y303799D02*
X256946D01*
X238069Y290591D02*
Y303799D01*
X294030D02*
X312889D01*
Y290591D02*
Y303799D01*
X294030Y290591D02*
X312889D01*
X294030Y288178D02*
Y290591D01*
X256946Y288178D02*
X294030D01*
X256946D02*
Y290591D01*
X238069D02*
X256946D01*
Y303799D02*
Y305577D01*
X238069D02*
X256946D01*
X238069D02*
Y318785D01*
X256946D01*
Y321198D01*
X294030D01*
Y318785D02*
Y321198D01*
Y318785D02*
X312889D01*
Y305577D02*
Y318785D01*
X294030Y305577D02*
X312889D01*
X294030Y303799D02*
Y305577D01*
X437381Y303439D02*
X456258D01*
X437381Y290231D02*
Y303439D01*
X493342D02*
X512201D01*
Y290231D02*
Y303439D01*
X493342Y290231D02*
X512201D01*
X493342Y287818D02*
Y290231D01*
X456258Y287818D02*
X493342D01*
X456258D02*
Y290231D01*
X437381D02*
X456258D01*
Y303439D02*
Y305217D01*
X437381D02*
X456258D01*
X437381D02*
Y318425D01*
X456258D01*
Y320838D01*
X493342D01*
Y318425D02*
Y320838D01*
Y318425D02*
X512201D01*
Y305217D02*
Y318425D01*
X493342Y305217D02*
X512201D01*
X493342Y303439D02*
Y305217D01*
D113*
X441332Y93047D02*
X454794D01*
X486798D02*
X500260D01*
X486798Y83141D02*
Y111081D01*
X441332Y101175D02*
X454794D01*
X500260Y86189D02*
Y93047D01*
X441332Y101175D02*
Y108033D01*
X486798Y86189D02*
X500260D01*
X441332Y108033D02*
X454794D01*
X486798D02*
X500260D01*
X454794Y83141D02*
X486798D01*
X441332Y86189D02*
X454794D01*
X500260Y101175D02*
Y108033D01*
X454794Y83141D02*
Y111081D01*
X441332Y86189D02*
Y93047D01*
X486798Y101175D02*
X500260D01*
X454794Y111081D02*
X486798D01*
X245699Y93032D02*
X259161D01*
X291165D02*
X304627D01*
X291165Y83126D02*
Y111066D01*
X245699Y101160D02*
X259161D01*
X304627Y86174D02*
Y93032D01*
X245699Y101160D02*
Y108018D01*
X291165Y86174D02*
X304627D01*
X245699Y108018D02*
X259161D01*
X291165D02*
X304627D01*
X259161Y83126D02*
X291165D01*
X245699Y86174D02*
X259161D01*
X304627Y101160D02*
Y108018D01*
X259161Y83126D02*
Y111066D01*
X245699Y86174D02*
Y93032D01*
X291165Y101160D02*
X304627D01*
X259161Y111066D02*
X291165D01*
X49749Y92989D02*
X63211D01*
X95215D02*
X108677D01*
X95215Y83083D02*
Y111023D01*
X49749Y101117D02*
X63211D01*
X108677Y86131D02*
Y92989D01*
X49749Y101117D02*
Y107975D01*
X95215Y86131D02*
X108677D01*
X49749Y107975D02*
X63211D01*
X95215D02*
X108677D01*
X63211Y83083D02*
X95215D01*
X49749Y86131D02*
X63211D01*
X108677Y101117D02*
Y107975D01*
X63211Y83083D02*
Y111023D01*
X49749Y86131D02*
Y92989D01*
X95215Y101117D02*
X108677D01*
X63211Y111023D02*
X95215D01*
X50841Y300666D02*
X64303D01*
X96307D02*
X109769D01*
X96307Y290760D02*
Y318700D01*
X50841Y308794D02*
X64303D01*
X109769Y293808D02*
Y300666D01*
X50841Y308794D02*
Y315652D01*
X96307Y293808D02*
X109769D01*
X50841Y315652D02*
X64303D01*
X96307D02*
X109769D01*
X64303Y290760D02*
X96307D01*
X50841Y293808D02*
X64303D01*
X109769Y308794D02*
Y315652D01*
X64303Y290760D02*
Y318700D01*
X50841Y293808D02*
Y300666D01*
X96307Y308794D02*
X109769D01*
X64303Y318700D02*
X96307D01*
X246024Y300624D02*
X259486D01*
X291490D02*
X304952D01*
X291490Y290718D02*
Y318658D01*
X246024Y308752D02*
X259486D01*
X304952Y293766D02*
Y300624D01*
X246024Y308752D02*
Y315610D01*
X291490Y293766D02*
X304952D01*
X246024Y315610D02*
X259486D01*
X291490D02*
X304952D01*
X259486Y290718D02*
X291490D01*
X246024Y293766D02*
X259486D01*
X304952Y308752D02*
Y315610D01*
X259486Y290718D02*
Y318658D01*
X246024Y293766D02*
Y300624D01*
X291490Y308752D02*
X304952D01*
X259486Y318658D02*
X291490D01*
X445336Y300264D02*
X458798D01*
X490802D02*
X504264D01*
X490802Y290358D02*
Y318298D01*
X445336Y308392D02*
X458798D01*
X504264Y293406D02*
Y300264D01*
X445336Y308392D02*
Y315250D01*
X490802Y293406D02*
X504264D01*
X445336Y315250D02*
X458798D01*
X490802D02*
X504264D01*
X458798Y290358D02*
X490802D01*
X445336Y293406D02*
X458798D01*
X504264Y308392D02*
Y315250D01*
X458798Y290358D02*
Y318298D01*
X445336Y293406D02*
Y300264D01*
X490802Y308392D02*
X504264D01*
X458798Y318298D02*
X490802D01*
M02*
