**ABCDEFGHIJKLMNOPQRSTUVWXYZabcdefghijklmnopqrstuvwxyz**************************
**PARASOLID !"#$%&'()*+,-./:;<=>?@[\]^_`{|}~0123456789**************************
**PART1;
MC=AMD64;
MC_MODEL=AMD64 Family 25 Model 33 Stepping 2, AuthenticAMD;
MC_ID=unknown;
OS=Windows_NT;
OS_RELEASE=unknown;
FRU=CAD Exchanger 3.23.0 (cadexchanger.com);
APPL=unknown;
SITE=unknown;
USER=unknown;
FORMAT=text;
GUISE=transmit;
KEY=1SS357TPH3F_CMP-020-000009-1;
FILE=1SS357TPH3F_CMP-020-000009-1.x_t;
DATE=Sat Mar  8 15:45:43 2025;
**PART2;
SCH=SCH_1200000_12103;
USFLD_SIZE=0;
**PART3;
**END_OF_HEADER*****************************************************************
T51 : TRANSMIT FILE created by modeller version 120000017 SCH_1200000_121030 74
 3 1 3 0 2 294 584 12 2 194 0 3 0 0 0 0 1000.0 1.0e-08 0 0 0 1 0 1 1 12 14 20 18
 9 19 17 70 3 0 2 0 0 4 1 20 0 4 4 1 T74 20 4 1 0 5 0 0 0 0 0 0 0 0 0 0 0 0 0 0
 0 0 0 0 0 81 1 5 7 6 13 0 0 42 0 8 80 1 6 0 7 8001 0 0 0 0 3 5 0 0 0 FFFFTFTFFF
FFFF2 79 15 7 SDL/TYSA_COLOUR83 3 8 1.0 1.0 1.0 19 9 1 0 2 11 0 10 V13 10 2 0 2
 0 0 0 0 9 13 19 11 3 0 2 0 9 12 S13 12 4 0 2 0 13 0 0 11 0 14 13 5 5 1.0e-08 40
 0 15 12 14 -0 0 40 0 10 50 14 6 0 13 41 0 0 +1.5e-04 8.750000000000002e-04 5.98
3399113279861e-04 0.0 0.147554773791374 0.989053885656073 0.0 -0.989053885656073
 0.147554773791374 15 15 8 0 16 13 0 17 16 0 15 24 36 17 21 19 0 29 +18 17 9 0 1
6 0 22 18 ?2 29 18 10 0 17 23 0 -1.5e-04 8.844562036894082e-04 5.969291610983458
e-04 16 19 11 0 ?16 0 27 20 0 0 2 30 20 12 0 19 28 0 0 +-1.5e-04 8.7500000000000
02e-04 5.98339911327986e-04 0.0 0.989053885656073 -0.147554773791374 17 21 0 269
 270 50 22 16 19 0 36 -18 22 13 0 21 17 25 23 ?2 29 23 14 0 22 26 18 -1.5e-04 8.
750000000000002e-04 5.98339911327986e-04 17 24 0 15 30 16 25 29 27 0 57 -18 25 1
5 0 24 22 31 26 ?2 29 26 16 0 25 32 23 1.5e-04 8.844562036894082e-04 5.969291610
983458e-04 16 27 17 0 ?29 19 33 28 0 0 2 30 28 18 0 27 34 20 0 +1.5e-04 8.844562
036894082e-04 5.969291610983458e-04 -1.0 0.0 0.0 17 29 0 44 45 57 17 24 27 0 50
 +17 30 0 15 36 24 31 35 33 0 261 -18 31 19 0 30 25 46 32 ?2 29 32 20 0 31 47 26
 1.5e-04 8.750000000000002e-04 5.98339911327986e-04 16 33 21 0 ?35 27 37 34 0 0
 2 30 34 22 0 33 38 28 0 +1.5e-04 8.750000000000002e-04 5.98339911327986e-04 0.0
 0.989053885656073 -0.147554773791374 17 35 0 254 60 261 25 30 33 0 0 +17 36 0 1
5 16 30 22 39 37 0 275 +16 37 23 0 ?36 33 48 38 0 0 2 30 38 24 0 37 49 34 0 +1.5
e-04 8.750000000000002e-04 5.98339911327986e-04 -1.0 0.0 0.0 17 39 0 284 264 275
 31 36 37 0 0 -14 40 25 42 1.0e-08 61 13 44 12 41 -0 0 61 13 10 51 41 26 0 40 62
 14 0 +1.5e-04 8.829806559514944e-04 5.870386222417851e-04 -1.0 0.0 0.0 9.999999
99999992e-06 0.0 -1.0 6.123233995736766e-17 81 1 42 27 6 40 0 0 63 5 43 83 3 43
 1.0 1.0 1.0 15 44 28 0 45 40 0 17 45 0 44 51 29 46 50 48 0 71 +18 46 29 0 56 31
 52 47 ?2 29 47 30 0 46 53 32 -1.5e-04 8.928028889627036e-04 5.889157846411288e-
04 16 48 31 0 ?45 37 54 49 0 0 2 31 49 32 0 48 55 38 0 +-1.5e-04 8.8298065595149
44e-04 5.870386222417851e-04 -1.0 0.0 0.0 0.0 1.0 -6.123233995736766e-17 9.99999
999999992e-06 17 50 0 269 21 71 17 45 48 0 0 -17 51 0 44 57 45 52 56 54 0 0 -18
 52 33 0 78 46 67 53 ?2 29 53 34 0 52 68 47 1.5e-04 8.928028889627036e-04 5.8891
57846411288e-04 16 54 35 0 ?56 48 58 55 0 0 2 30 55 36 0 54 59 49 0 +1.5e-04 8.9
28028889627036e-04 5.889157846411288e-04 -1.0 0.0 0.0 17 56 0 65 66 78 46 51 54
 0 45 +17 57 0 44 29 51 25 60 58 0 35 -16 58 37 0 ?60 54 69 59 0 0 2 31 59 38 0
 58 70 55 0 +1.5e-04 8.829806559514944e-04 5.870386222417851e-04 -1.0 0.0 0.0 0.
0 1.0 -6.123233995736766e-17 9.99999999999992e-06 17 60 0 254 81 35 52 57 58 0 5
1 +14 61 39 63 1.0e-08 82 40 65 12 62 -0 0 82 40 10 50 62 40 0 61 83 41 0 +1.5e-
04 8.928028889627036e-04 5.889157846411288e-04 0.0 0.982223301120935 0.187716239
934356 0.0 -0.187716239934356 0.982223301120935 81 1 63 41 6 61 0 0 84 42 64 83
 3 64 1.0 1.0 1.0 15 65 42 0 66 61 0 17 66 0 65 72 56 67 71 69 0 77 +18 67 43 0
 92 52 73 68 ?2 29 68 44 0 67 74 53 -1.5e-04 9.760987701888528e-04 1.53070940016
4112e-04 16 69 45 0 ?66 58 75 70 0 0 2 30 70 46 0 69 76 59 0 +-1.5e-04 8.9280288
89627036e-04 5.889157846411288e-04 0.0 0.187716239934356 -0.982223301120935 17 7
1 0 269 50 92 46 66 69 0 0 -17 72 0 65 78 66 73 77 75 0 0 -18 73 47 0 81 67 88 7
4 ?2 29 74 48 0 73 89 68 1.5e-04 9.760987701888528e-04 1.530709400164112e-04 16
 75 49 0 ?77 69 79 76 0 0 2 30 76 50 0 75 80 70 0 +1.5e-04 9.760987701888528e-04
 1.530709400164112e-04 -1.0 0.0 0.0 17 77 0 86 87 99 67 72 75 0 0 +17 78 0 65 56
 72 52 81 79 0 60 -16 79 51 0 ?81 75 90 80 0 0 2 30 80 52 0 79 91 76 0 +1.5e-04
 8.928028889627036e-04 5.889157846411288e-04 0.0 0.187716239934356 -0.9822233011
20935 17 81 0 254 102 60 73 78 79 0 99 +14 82 53 84 1.0e-08 103 61 86 12 83 +0 0
 103 61 10 51 83 54 0 82 104 62 0 +1.5e-04 0.001221654595469 1.999999999999999e-
04 -1.0 0.0 0.0 2.500000000000001e-04 0.0 -1.0 6.123233995736766e-17 81 1 84 55
 6 82 0 0 105 63 85 83 3 85 1.0 1.0 1.0 15 86 56 0 87 82 0 17 87 0 86 93 77 88 9
2 90 0 113 +18 88 57 0 98 73 94 89 ?2 29 89 58 0 88 95 74 -1.5e-04 0.00122165459
5469 -5.000000000000003e-05 16 90 59 0 ?87 79 96 91 0 0 2 31 91 60 0 90 97 80 0
 +-1.5e-04 0.001221654595469 1.999999999999999e-04 1.0 0.0 0.0 0.0 1.0 -6.123233
995736766e-17 2.500000000000002e-04 17 92 0 269 71 113 67 87 90 0 66 -17 93 0 86
 99 87 94 98 96 0 102 -18 94 61 0 93 88 109 95 ?2 29 95 62 0 94 110 89 1.5e-04 0
.001221654595469 -5.000000000000003e-05 16 96 63 0 ?98 90 100 97 0 0 2 30 97 64
 0 96 101 91 0 +1.5e-04 0.001221654595469 -5.000000000000003e-05 -1.0 0.0 0.0 17
 98 0 107 108 120 88 93 96 0 87 +17 99 0 86 77 93 73 102 100 0 72 -16 100 65 0 ?
102 96 111 101 0 0 2 31 101 66 0 100 112 97 0 +1.5e-04 0.001221654595469 1.99999
9999999999e-04 1.0 0.0 0.0 0.0 1.0 -6.123233995736766e-17 2.500000000000002e-04
 17 102 0 254 123 81 94 99 100 0 120 +14 103 67 105 1.0e-08 124 82 107 12 104 -0
 0 124 82 10 50 104 68 0 103 125 83 0 +1.5e-04 0.001221654595469 -5.000000000000
003e-05 0.0 5.393531281538574e-16 1.0 0.0 -1.0 5.393531281538574e-16 81 1 105 69
 6 103 0 0 126 84 106 83 3 106 1.0 1.0 1.0 15 107 70 0 108 103 0 17 108 0 107 11
4 98 109 113 111 0 0 +18 109 71 0 119 94 115 110 ?2 29 110 72 0 109 116 95 -1.5e
-04 0.00125 -5.000000000000004e-05 16 111 73 0 ?108 100 117 112 0 0 2 30 112 74
 0 111 118 101 0 +-1.5e-04 0.001221654595469 -5.000000000000003e-05 0.0 1.0 -5.3
93531281538574e-16 17 113 0 269 92 134 88 108 111 0 0 -17 114 0 107 120 108 115
 119 117 0 123 -18 115 75 0 114 109 130 116 ?2 29 116 76 0 115 131 110 1.5e-04 0
.00125 -5.000000000000004e-05 16 117 77 0 ?119 111 121 118 0 0 2 30 118 78 0 117
 122 112 0 +1.5e-04 0.00125 -5.000000000000004e-05 -1.0 0.0 0.0 17 119 0 128 129
 141 109 114 117 0 134 +17 120 0 107 98 114 94 123 121 0 0 -16 121 79 0 ?123 117
 132 122 0 0 2 30 122 80 0 121 133 118 0 +1.5e-04 0.001221654595469 -5.000000000
000003e-05 0.0 1.0 -5.393531281538574e-16 17 123 0 254 144 102 115 120 121 0 141
 +14 124 81 126 1.0e-08 145 103 128 12 125 -0 0 145 103 10 50 125 82 0 124 146 1
04 0 +1.5e-04 0.00125 0.999999999999999e-04 0.0 -1.0 6.123233995736766e-17 1.0 0
.0 0.0 81 1 126 83 6 124 0 0 147 105 127 83 3 127 1.0 1.0 1.0 15 128 84 0 129 12
4 0 17 129 0 128 135 119 130 134 132 0 140 +18 130 85 0 155 115 136 131 ?2 29 13
1 86 0 130 137 116 -1.5e-04 0.00125 0.999999999999999e-04 16 132 87 0 ?129 121 1
38 133 0 0 2 30 133 88 0 132 139 122 0 +-1.5e-04 0.00125 0.999999999999999e-04 0
.0 6.123233995736766e-17 1.0 17 134 0 269 113 155 109 129 132 0 108 -17 135 0 12
8 141 129 136 140 138 0 162 -18 136 89 0 135 130 151 137 ?2 29 137 90 0 136 152
 131 1.5e-04 0.00125 0.999999999999999e-04 16 138 91 0 ?140 132 142 139 0 0 2 30
 139 92 0 138 143 133 0 +1.5e-04 0.00125 0.999999999999999e-04 -1.0 0.0 0.0 17 1
40 0 149 150 162 130 135 138 0 0 +17 141 0 128 119 135 115 144 142 0 0 -16 142 9
3 0 ?144 138 153 143 0 0 2 30 143 94 0 142 154 139 0 +1.5e-04 0.00125 0.99999999
9999999e-04 0.0 6.123233995736766e-17 1.0 17 144 0 254 165 123 136 141 142 0 0 +
14 145 95 147 1.0e-08 166 124 149 12 146 -0 0 166 124 10 50 146 96 0 145 167 125
 0 +1.5e-04 0.001221654595469 1.0e-04 0.0 -5.393531281538574e-16 -1.0 0.0 1.0 -5
.393531281538574e-16 81 1 147 97 6 145 0 0 168 126 148 83 3 148 1.0 1.0 1.0 15 1
49 98 0 150 145 0 17 150 0 149 156 140 151 155 153 0 161 +18 151 99 0 150 136 15
7 152 ?2 29 152 100 0 151 158 137 -1.5e-04 0.001221654595469 9.999999999999973e-
05 16 153 101 0 ?150 142 159 154 0 0 2 30 154 102 0 153 160 143 0 +-1.5e-04 0.00
1221654595469 1.0e-04 0.0 -1.0 5.393531281538574e-16 17 155 0 269 134 176 130 15
0 153 0 129 -17 156 0 149 162 150 157 161 159 0 165 -18 157 103 0 156 151 172 15
8 ?2 29 158 104 0 157 173 152 1.5e-04 0.001221654595469 9.999999999999973e-05 16
 159 105 0 ?161 153 163 160 0 0 2 30 160 106 0 159 164 154 0 +1.5e-04 0.00122165
4595469 9.999999999999973e-05 -1.0 0.0 0.0 17 161 0 170 171 183 151 156 159 0 17
6 +17 162 0 149 140 156 136 165 163 0 144 -16 163 107 0 ?165 159 174 164 0 0 2 3
0 164 108 0 163 175 160 0 +1.5e-04 0.001221654595469 1.0e-04 0.0 -1.0 5.39353128
1538574e-16 17 165 0 254 186 144 157 162 163 0 183 +14 166 109 168 1.0e-08 187 1
45 170 12 167 -0 0 187 145 10 51 167 110 0 166 188 146 0 +1.5e-04 0.001221654595
469 1.999999999999999e-04 -1.0 0.0 0.0 1.000000000000003e-04 0.0 -1.0 6.12323399
5736766e-17 81 1 168 111 6 166 0 0 189 147 169 83 3 169 1.0 1.0 1.0 15 170 112 0
 171 166 0 17 171 0 170 177 161 172 176 174 0 182 +18 172 113 0 171 157 178 173
 ?2 29 173 114 0 172 179 158 -1.5e-04 0.001123432265357 1.812283760065643e-04 16
 174 115 0 ?171 163 180 175 0 0 2 31 175 116 0 174 181 164 0 +-1.5e-04 0.0012216
54595469 1.999999999999999e-04 -1.0 0.0 0.0 0.0 1.0 -6.123233995736766e-17 1.000
000000000003e-04 17 176 0 269 155 197 151 171 174 0 0 -17 177 0 170 183 171 178
 182 180 0 204 -18 178 117 0 186 172 193 179 ?2 29 179 118 0 178 194 173 1.5e-04
 0.001123432265357 1.812283760065643e-04 16 180 119 0 ?182 174 184 181 0 0 2 30
 181 120 0 180 185 175 0 +1.5e-04 0.001123432265357 1.812283760065643e-04 -1.0 0
.0 0.0 17 182 0 191 192 204 172 177 180 0 197 +17 183 0 170 161 177 157 186 184
 0 0 -16 184 121 0 ?186 180 195 185 0 0 2 31 185 122 0 184 196 181 0 +1.5e-04 0.
001221654595469 1.999999999999999e-04 -1.0 0.0 0.0 0.0 1.0 -6.123233995736766e-1
7 1.000000000000003e-04 17 186 0 254 207 165 178 183 184 0 177 +14 187 123 189 1
.0e-08 208 166 191 12 188 -0 0 208 166 10 50 188 124 0 187 209 167 0 +1.5e-04 0.
001040136384131 6.170732206312819e-04 0.0 -0.982223301120936 -0.187716239934355
 0.0 0.187716239934355 -0.982223301120936 81 1 189 125 6 187 0 0 210 168 190 83
 3 190 1.0 1.0 1.0 15 191 126 0 192 187 0 17 192 0 191 198 182 193 197 195 0 218
 +18 193 127 0 203 178 199 194 ?2 29 194 128 0 193 200 179 -1.5e-04 0.0010401363
84131 6.170732206312819e-04 16 195 129 0 ?192 184 201 196 0 0 2 30 196 130 0 195
 202 185 0 +-1.5e-04 0.001040136384131 6.170732206312819e-04 0.0 -0.187716239934
355 0.982223301120936 17 197 0 269 176 218 172 192 195 0 0 -17 198 0 191 204 192
 199 203 201 0 207 -18 199 131 0 225 193 214 200 ?2 29 200 132 0 199 215 194 1.5
e-04 0.001040136384131 6.170732206312819e-04 16 201 133 0 ?203 195 205 202 0 0 2
 30 202 134 0 201 206 196 0 +1.5e-04 0.001040136384131 6.170732206312819e-04 -1.
0 0.0 0.0 17 203 0 212 213 225 193 198 201 0 192 +17 204 0 191 182 198 178 207 2
05 0 0 -16 205 135 0 ?207 201 216 206 0 0 2 30 206 136 0 205 217 202 0 +1.5e-04
 0.001040136384131 6.170732206312819e-04 0.0 -0.187716239934355 0.98222330112093
6 17 207 0 254 228 186 199 204 205 0 0 +14 208 137 210 1.0e-08 229 187 212 12 20
9 +0 0 229 187 10 51 209 138 0 208 230 188 0 +1.5e-04 8.829806559514944e-04 5.87
0386222417851e-04 -1.0 0.0 0.0 1.600000000000001e-04 0.0 -1.0 6.123233995736766e
-17 81 1 210 139 6 208 0 0 231 189 211 83 3 211 1.0 1.0 1.0 15 212 140 0 213 208
 0 17 213 0 212 219 203 214 218 216 0 0 +18 214 141 0 224 199 220 215 ?2 29 215
 142 0 214 221 200 -1.5e-04 9.065894197581144e-04 7.452872439467567e-04 16 216 1
43 0 ?213 205 222 217 0 0 2 31 217 144 0 216 223 206 0 +-1.5e-04 8.8298065595149
44e-04 5.870386222417851e-04 1.0 0.0 0.0 0.0 1.0 -6.123233995736766e-17 1.600000
000000001e-04 17 218 0 269 197 239 193 213 216 0 0 -17 219 0 212 225 213 220 224
 222 0 228 -18 220 145 0 219 214 235 221 ?2 29 221 146 0 220 236 215 1.5e-04 9.0
65894197581144e-04 7.452872439467567e-04 16 222 147 0 ?224 216 226 223 0 0 2 30
 223 148 0 222 227 217 0 +1.5e-04 9.065894197581144e-04 7.452872439467567e-04 -1
.0 0.0 0.0 17 224 0 233 234 246 214 219 222 0 239 +17 225 0 212 203 219 199 228
 226 0 198 -16 226 149 0 ?228 222 237 227 0 0 2 31 227 150 0 226 238 223 0 +1.5e
-04 8.829806559514944e-04 5.870386222417851e-04 1.0 0.0 0.0 0.0 1.0 -6.123233995
736766e-17 1.600000000000001e-04 17 228 0 254 249 207 220 225 226 0 246 +14 229
 151 231 1.0e-08 250 208 233 12 230 -0 0 250 208 10 50 230 152 0 229 251 209 0 +
1.5e-04 8.750000000000004e-04 7.5e-04 0.0 -0.147554773791378 -0.989053885656073
 0.0 0.989053885656073 -0.147554773791378 81 1 231 153 6 229 0 0 252 210 232 83
 3 232 1.0 1.0 1.0 15 233 154 0 234 229 0 17 234 0 233 240 224 235 239 237 0 245
 +18 235 155 0 234 220 241 236 ?2 29 236 156 0 235 242 221 -1.5e-04 8.7499999999
99998e-04 7.500000000000175e-04 16 237 157 0 ?234 226 243 238 0 0 2 30 238 158 0
 237 244 227 0 +-1.5e-04 8.750000000000004e-04 7.5e-04 0.0 -0.989053885656073 0.
147554773791378 17 239 0 269 218 276 214 234 237 0 213 -17 240 0 233 246 234 241
 245 243 0 249 -18 241 159 0 260 235 256 242 ?2 29 242 160 0 241 257 236 1.5e-04
 8.750000000000004e-04 7.5e-04 16 243 161 0 ?245 237 247 244 0 0 2 30 244 162 0
 243 248 238 0 +1.5e-04 8.750000000000004e-04 7.5e-04 -1.0 0.0 0.0 17 245 0 293
 279 260 235 240 243 0 276 +17 246 0 233 224 240 220 249 247 0 0 -16 247 163 0 ?
249 243 258 248 0 0 2 30 248 164 0 247 259 244 0 +1.5e-04 8.750000000000004e-04
 7.5e-04 0.0 -0.989053885656073 0.147554773791378 17 249 0 254 255 228 241 246 2
47 0 0 +14 250 165 252 1.0e-08 265 229 254 12 251 +0 0 265 229 10 50 251 166 0 2
50 266 230 0 +1.5e-04 8.829806559514944e-04 5.870386222417851e-04 1.0 0.0 0.0 0.
0 1.0 -6.123233995736766e-17 81 1 252 167 6 250 0 0 267 231 253 83 3 253 1.0 1.0
 1.0 15 254 168 0 249 250 0 17 255 0 254 261 249 256 260 258 0 264 +18 256 169 0
 255 241 271 257 ?2 29 257 170 0 256 272 242 1.5e-04 8.547786548437296e-04 5.983
39911327986e-04 16 258 171 0 ?255 247 262 259 0 0 2 30 259 172 0 258 263 248 0 +
1.5e-04 8.490575603104622e-04 5.554317023284797e-04 4.772588739091961e-33 -0.132
163720091015 -0.991227900682635 17 260 0 293 245 288 241 255 258 0 240 -17 261 0
 254 35 255 31 264 262 0 39 +16 262 173 0 ?261 258 273 263 0 0 2 30 263 174 0 26
2 274 259 0 +1.5e-04 5.272459928141564e-04 5.98339911327986e-04 0.0 1.0 -6.12323
3995736766e-17 17 264 0 284 285 39 256 261 262 0 288 -14 265 175 267 1.0e-08 280
 250 269 12 266 -0 0 280 250 10 50 266 176 0 265 281 251 0 +-1.5e-04 8.829806559
514944e-04 5.870386222417851e-04 1.0 0.0 0.0 0.0 1.0 -6.123233995736766e-17 81 1
 267 177 6 265 0 0 282 252 268 83 3 268 1.0 1.0 1.0 15 269 178 0 21 265 0 17 270
 0 269 276 21 271 275 273 0 279 -18 271 179 0 270 256 0 272 ?2 29 272 180 0 271
 0 257 -1.5e-04 8.547786548437294e-04 5.98339911327986e-04 16 273 181 0 ?275 262
 277 274 0 0 2 30 274 182 0 273 278 263 0 +-1.5e-04 5.272459928141564e-04 5.9833
9911327986e-04 0.0 1.0 -6.123233995736766e-17 17 275 0 284 39 285 22 270 273 0 0
 +17 276 0 269 239 270 235 279 277 0 0 +16 277 183 0 ?276 273 286 278 0 0 2 30 2
78 184 0 277 287 274 0 +-1.5e-04 8.68925694197625e-04 7.044427064822044e-04 -4.7
72588739091961e-33 0.132163720091015 0.991227900682635 17 279 0 293 288 245 271
 276 277 0 285 -14 280 185 282 1.0e-08 289 265 284 12 281 -0 0 289 265 10 50 281
 186 0 280 290 266 0 +-1.5e-04 5.272459928141564e-04 5.983399113279861e-04 0.0 6
.123233995736766e-17 1.0 0.0 -1.0 6.123233995736766e-17 81 1 282 187 6 280 0 0 2
91 267 283 83 3 283 1.0 1.0 1.0 15 284 188 0 264 280 0 17 285 0 284 275 264 271
 288 286 0 0 +16 286 189 0 ?285 277 0 287 0 0 2 30 287 190 0 286 0 278 0 +-1.5e-
04 8.547786548437294e-04 5.98339911327986e-04 -1.0 -1.734723475976808e-16 1.3909
03819972464e-32 17 288 0 293 260 279 256 285 286 0 0 -14 289 191 291 1.0e-08 0 2
80 293 12 290 +0 0 0 280 10 50 290 192 0 289 0 281 0 +6.250000000000001e-04 8.75
0000000000002e-04 7.500000000000197e-04 1.719506309357374e-16 -0.991227900682635
 0.132163720091015 -1.0 -1.734723475976807e-16 1.062211776130384e-32 81 1 291 19
3 6 289 0 0 0 282 292 83 3 292 1.0 1.0 1.0 15 293 194 0 288 289 0 12 294 194 0 2
95 0 0 0 0 1000.0 1.0e-08 0 0 0 1 0 1 1 302 304 310 308 299 309 307 70 295 0 294
 0 0 4 1 20 0 296 296 1 T74 20 296 1 0 297 0 0 0 0 0 0 0 0 0 0 0 0 0 0 0 0 0 0 0
 81 1 297 7 6 303 0 0 332 0 298 83 3 298 1.0 1.0 1.0 19 299 1 0 294 301 0 300 V1
3 300 2 0 294 0 0 0 0 299 303 19 301 3 0 294 0 299 302 S13 302 4 0 294 0 303 0 0
 301 0 14 303 5 297 1.0e-08 330 0 305 302 304 -0 0 330 0 300 50 304 6 0 303 331
 0 0 +1.5e-04 -8.750000000000002e-04 5.983399113279861e-04 0.0 -0.14755477379137
4 0.989053885656073 0.0 0.989053885656073 0.147554773791374 15 305 8 0 306 303 0
 17 306 0 305 314 326 307 311 309 0 319 -18 307 9 0 306 0 312 308 ?294 29 308 10
 0 307 313 0 -1.5e-04 -8.750000000000002e-04 5.98339911327986e-04 16 309 11 0 ?3
11 0 317 310 0 0 294 30 310 12 0 309 318 0 0 +-1.5e-04 -8.750000000000002e-04 5.
98339911327986e-04 0.0 -0.989053885656073 -0.147554773791374 17 311 0 559 338 56
6 312 306 309 0 326 +18 312 13 0 311 307 315 313 ?294 29 313 14 0 312 316 308 -1
.5e-04 -8.844562036894082e-04 5.969291610983458e-04 17 314 0 305 320 306 315 319
 317 0 325 -18 315 15 0 314 312 321 316 ?294 29 316 16 0 315 322 313 1.5e-04 -8.
750000000000002e-04 5.98339911327986e-04 16 317 17 0 ?319 309 323 318 0 0 294 30
 318 18 0 317 324 310 0 +1.5e-04 -8.750000000000002e-04 5.98339911327986e-04 -1.
0 0.0 0.0 17 319 0 574 569 550 307 314 317 0 566 +17 320 0 305 326 314 321 325 3
23 0 329 +18 321 19 0 320 315 339 322 ?294 29 322 20 0 321 340 316 1.5e-04 -8.84
4562036894082e-04 5.969291610983458e-04 16 323 21 0 ?320 317 327 324 0 0 294 30
 324 22 0 323 328 318 0 +1.5e-04 -8.750000000000002e-04 5.98339911327986e-04 0.0
 -0.989053885656073 -0.147554773791374 17 325 0 544 545 346 315 320 323 0 550 -1
7 326 0 305 306 320 312 329 327 0 335 +16 327 23 0 ?326 323 336 328 0 0 294 30 3
28 24 0 327 337 324 0 +1.5e-04 -8.844562036894082e-04 5.969291610983458e-04 -1.0
 0.0 0.0 17 329 0 334 341 335 321 326 327 0 346 -14 330 25 332 1.0e-08 351 303 3
34 302 331 -0 0 351 303 300 51 331 26 0 330 352 304 0 +1.5e-04 -8.82980655951494
4e-04 5.870386222417851e-04 -1.0 0.0 0.0 9.99999999999992e-06 0.0 1.0 -6.1232339
95736766e-17 81 1 332 27 6 330 0 0 353 297 333 83 3 333 1.0 1.0 1.0 15 334 28 0
 335 330 0 17 335 0 334 329 347 312 338 336 0 0 -16 336 29 0 ?338 327 344 337 0
 0 294 31 337 30 0 336 345 328 0 +-1.5e-04 -8.829806559514944e-04 5.870386222417
851e-04 1.0 0.0 0.0 0.0 -1.0 6.123233995736766e-17 9.99999999999992e-06 17 338 0
 559 359 311 339 335 336 0 356 +18 339 31 0 347 321 342 340 ?294 29 340 32 0 339
 343 322 -1.5e-04 -8.928028889627036e-04 5.889157846411288e-04 17 341 0 334 347
 329 342 346 344 0 367 +18 342 33 0 350 339 360 343 ?294 29 343 34 0 342 361 340
 1.5e-04 -8.928028889627036e-04 5.889157846411288e-04 16 344 35 0 ?341 336 348 3
45 0 0 294 31 345 36 0 344 349 337 0 +1.5e-04 -8.829806559514944e-04 5.870386222
417851e-04 1.0 0.0 0.0 0.0 -1.0 6.123233995736766e-17 9.99999999999992e-06 17 34
6 0 544 325 367 321 341 344 0 0 -17 347 0 334 335 341 339 350 348 0 338 +16 348
 37 0 ?347 344 357 349 0 0 294 30 349 38 0 348 358 345 0 +1.5e-04 -8.92802888962
7036e-04 5.889157846411288e-04 -1.0 0.0 0.0 17 350 0 355 362 356 342 347 348 0 3
41 -14 351 39 353 1.0e-08 372 330 355 302 352 -0 0 372 330 300 50 352 40 0 351 3
73 331 0 +1.5e-04 -8.928028889627036e-04 5.889157846411288e-04 0.0 -0.9822233011
20935 0.187716239934356 0.0 0.187716239934356 0.982223301120935 81 1 353 41 6 35
1 0 0 374 332 354 83 3 354 1.0 1.0 1.0 15 355 42 0 356 351 0 17 356 0 355 350 36
8 339 359 357 0 0 -16 357 43 0 ?359 348 365 358 0 0 294 30 358 44 0 357 366 349
 0 +-1.5e-04 -8.928028889627036e-04 5.889157846411288e-04 0.0 -0.187716239934356
 -0.982223301120935 17 359 0 559 380 338 360 356 357 0 0 +18 360 45 0 368 342 36
3 361 ?294 29 361 46 0 360 364 343 -1.5e-04 -9.760987701888528e-04 1.53070940016
4113e-04 17 362 0 355 368 350 363 367 365 0 0 +18 363 47 0 371 360 381 364 ?294
 29 364 48 0 363 382 361 1.5e-04 -9.760987701888528e-04 1.530709400164113e-04 16
 365 49 0 ?362 357 369 366 0 0 294 30 366 50 0 365 370 358 0 +1.5e-04 -8.9280288
89627036e-04 5.889157846411288e-04 0.0 -0.187716239934356 -0.982223301120935 17
 367 0 544 346 388 342 362 365 0 0 -17 368 0 355 356 362 360 371 369 0 377 +16 3
69 51 0 ?368 365 378 370 0 0 294 30 370 52 0 369 379 366 0 +1.5e-04 -9.760987701
888528e-04 1.530709400164113e-04 -1.0 0.0 0.0 17 371 0 376 383 377 363 368 369 0
 388 -14 372 53 374 1.0e-08 393 351 376 302 373 +0 0 393 351 300 51 373 54 0 372
 394 352 0 +1.5e-04 -0.001221654595469 2.0e-04 -1.0 0.0 0.0 2.500000000000001e-0
4 0.0 1.0 -6.123233995736766e-17 81 1 374 55 6 372 0 0 395 353 375 83 3 375 1.0
 1.0 1.0 15 376 56 0 377 372 0 17 377 0 376 371 389 360 380 378 0 359 -16 378 57
 0 ?380 369 386 379 0 0 294 31 379 58 0 378 387 370 0 +-1.5e-04 -0.0012216545954
69 2.0e-04 -1.0 0.0 0.0 0.0 -1.0 6.123233995736766e-17 2.500000000000002e-04 17
 380 0 559 401 359 381 377 378 0 389 +18 381 59 0 380 363 384 382 ?294 29 382 60
 0 381 385 364 -1.5e-04 -0.001221654595469 -4.999999999999989e-05 17 383 0 376 3
89 371 384 388 386 0 392 +18 384 61 0 409 381 402 385 ?294 29 385 62 0 384 403 3
82 1.5e-04 -0.001221654595469 -4.999999999999989e-05 16 386 63 0 ?383 378 390 38
7 0 0 294 31 387 64 0 386 391 379 0 +1.5e-04 -0.001221654595469 2.0e-04 -1.0 0.0
 0.0 0.0 -1.0 6.123233995736766e-17 2.500000000000002e-04 17 388 0 544 367 409 3
63 383 386 0 362 -17 389 0 376 377 383 381 392 390 0 398 +16 390 65 0 ?389 386 3
99 391 0 0 294 30 391 66 0 390 400 387 0 +1.5e-04 -0.001221654595469 -4.99999999
9999989e-05 -1.0 0.0 0.0 17 392 0 397 404 398 384 389 390 0 0 -14 393 67 395 1.0
e-08 414 372 397 302 394 -0 0 414 372 300 50 394 68 0 393 415 373 0 +1.5e-04 -0.
001221654595469 -4.999999999999989e-05 0.0 -4.168884482391221e-16 1.0 0.0 1.0 4.
168884482391221e-16 81 1 395 69 6 393 0 0 416 374 396 83 3 396 1.0 1.0 1.0 15 39
7 70 0 398 393 0 17 398 0 397 392 410 381 401 399 0 0 -16 399 71 0 ?401 390 407
 400 0 0 294 30 400 72 0 399 408 391 0 +-1.5e-04 -0.001221654595469 -4.999999999
999989e-05 0.0 -1.0 -4.168884482391221e-16 17 401 0 559 422 380 402 398 399 0 0
 +18 402 73 0 419 384 405 403 ?294 29 403 74 0 402 406 385 -1.5e-04 -0.00125 -4.
999999999999989e-05 17 404 0 397 410 392 405 409 407 0 413 +18 405 75 0 404 402
 423 406 ?294 29 406 76 0 405 424 403 1.5e-04 -0.00125 -4.999999999999989e-05 16
 407 77 0 ?404 399 411 408 0 0 294 30 408 78 0 407 412 400 0 +1.5e-04 -0.0012216
54595469 -4.999999999999989e-05 0.0 -1.0 -4.168884482391221e-16 17 409 0 544 388
 430 384 404 407 0 383 -17 410 0 397 398 404 402 413 411 0 401 +16 411 79 0 ?410
 407 420 412 0 0 294 30 412 80 0 411 421 408 0 +1.5e-04 -0.00125 -4.999999999999
989e-05 -1.0 0.0 0.0 17 413 0 418 425 419 405 410 411 0 430 -14 414 81 416 1.0e-
08 435 393 418 302 415 -0 0 435 393 300 50 415 82 0 414 436 394 0 +1.5e-04 -0.00
125 1.000000000000001e-04 0.0 1.0 -6.123233995736766e-17 1.0 0.0 0.0 81 1 416 83
 6 414 0 0 437 395 417 83 3 417 1.0 1.0 1.0 15 418 84 0 419 414 0 17 419 0 418 4
13 431 402 422 420 0 410 -16 420 85 0 ?422 411 428 421 0 0 294 30 421 86 0 420 4
29 412 0 +-1.5e-04 -0.00125 1.000000000000001e-04 0.0 6.123233995736766e-17 1.0
 17 422 0 559 443 401 423 419 420 0 431 +18 423 87 0 440 405 426 424 ?294 29 424
 88 0 423 427 406 -1.5e-04 -0.00125 1.000000000000001e-04 17 425 0 418 431 413 4
26 430 428 0 434 +18 426 89 0 451 423 444 427 ?294 29 427 90 0 426 445 424 1.5e-
04 -0.00125 1.000000000000001e-04 16 428 91 0 ?425 420 432 429 0 0 294 30 429 92
 0 428 433 421 0 +1.5e-04 -0.00125 1.000000000000001e-04 0.0 6.123233995736766e-
17 1.0 17 430 0 544 409 451 405 425 428 0 0 -17 431 0 418 419 425 423 434 432 0
 0 +16 432 93 0 ?431 428 441 433 0 0 294 30 433 94 0 432 442 429 0 +1.5e-04 -0.0
0125 1.000000000000001e-04 -1.0 0.0 0.0 17 434 0 439 446 440 426 431 432 0 0 -14
 435 95 437 1.0e-08 456 414 439 302 436 -0 0 456 414 300 50 436 96 0 435 457 415
 0 +1.5e-04 -0.001221654595469 1.000000000000001e-04 0.0 4.168884482391221e-16 -
1.0 0.0 -1.0 -4.168884482391221e-16 81 1 437 97 6 435 0 0 458 416 438 83 3 438 1
.0 1.0 1.0 15 439 98 0 440 435 0 17 440 0 439 434 452 423 443 441 0 422 -16 441
 99 0 ?443 432 449 442 0 0 294 30 442 100 0 441 450 433 0 +-1.5e-04 -0.001221654
595469 1.000000000000001e-04 0.0 1.0 4.168884482391221e-16 17 443 0 559 464 422
 444 440 441 0 461 +18 444 101 0 443 426 447 445 ?294 29 445 102 0 444 448 427 -
1.5e-04 -0.001221654595469 9.999999999999988e-05 17 446 0 439 452 434 447 451 44
9 0 455 +18 447 103 0 446 444 465 448 ?294 29 448 104 0 447 466 445 1.5e-04 -0.0
01221654595469 9.999999999999988e-05 16 449 105 0 ?446 441 453 450 0 0 294 30 45
0 106 0 449 454 442 0 +1.5e-04 -0.001221654595469 1.000000000000001e-04 0.0 1.0
 4.168884482391221e-16 17 451 0 544 430 472 426 446 449 0 425 -17 452 0 439 440
 446 444 455 453 0 0 +16 453 107 0 ?452 449 462 454 0 0 294 30 454 108 0 453 463
 450 0 +1.5e-04 -0.001221654595469 9.999999999999988e-05 -1.0 0.0 0.0 17 455 0 4
60 467 461 447 452 453 0 472 -14 456 109 458 1.0e-08 477 435 460 302 457 -0 0 47
7 435 300 51 457 110 0 456 478 436 0 +1.5e-04 -0.001221654595469 2.0e-04 -1.0 0.
0 0.0 1.000000000000003e-04 0.0 1.0 -6.123233995736766e-17 81 1 458 111 6 456 0
 0 479 437 459 83 3 459 1.0 1.0 1.0 15 460 112 0 461 456 0 17 461 0 460 455 473
 444 464 462 0 452 -16 462 113 0 ?464 453 470 463 0 0 294 31 463 114 0 462 471 4
54 0 +-1.5e-04 -0.001221654595469 2.0e-04 1.0 0.0 0.0 0.0 -1.0 6.123233995736766
e-17 1.000000000000003e-04 17 464 0 559 485 443 465 461 462 0 482 +18 465 115 0
 464 447 468 466 ?294 29 466 116 0 465 469 448 -1.5e-04 -0.001123432265357 1.812
283760065645e-04 17 467 0 460 473 455 468 472 470 0 493 +18 468 117 0 476 465 48
6 469 ?294 29 469 118 0 468 487 466 1.5e-04 -0.001123432265357 1.812283760065645
e-04 16 470 119 0 ?467 462 474 471 0 0 294 31 471 120 0 470 475 463 0 +1.5e-04 -
0.001221654595469 2.0e-04 1.0 0.0 0.0 0.0 -1.0 6.123233995736766e-17 1.000000000
000003e-04 17 472 0 544 451 493 447 467 470 0 0 -17 473 0 460 461 467 465 476 47
4 0 0 +16 474 121 0 ?473 470 483 475 0 0 294 30 475 122 0 474 484 471 0 +1.5e-04
 -0.001123432265357 1.812283760065645e-04 -1.0 0.0 0.0 17 476 0 481 488 482 468
 473 474 0 467 -14 477 123 479 1.0e-08 498 456 481 302 478 -0 0 498 456 300 50 4
78 124 0 477 499 457 0 +1.5e-04 -0.001040136384131 6.170732206312821e-04 0.0 0.9
82223301120936 -0.187716239934355 0.0 -0.187716239934355 -0.982223301120936 81 1
 479 125 6 477 0 0 500 458 480 83 3 480 1.0 1.0 1.0 15 481 126 0 482 477 0 17 48
2 0 481 476 494 465 485 483 0 473 -16 483 127 0 ?485 474 491 484 0 0 294 30 484
 128 0 483 492 475 0 +-1.5e-04 -0.001040136384131 6.170732206312821e-04 0.0 0.18
7716239934355 0.982223301120936 17 485 0 559 506 464 486 482 483 0 494 +18 486 1
29 0 485 468 489 487 ?294 29 487 130 0 486 490 469 -1.5e-04 -0.001040136384131 6
.170732206312821e-04 17 488 0 481 494 476 489 493 491 0 497 +18 489 131 0 514 48
6 507 490 ?294 29 490 132 0 489 508 487 1.5e-04 -0.001040136384131 6.17073220631
2821e-04 16 491 133 0 ?488 483 495 492 0 0 294 30 492 134 0 491 496 484 0 +1.5e-
04 -0.001040136384131 6.170732206312821e-04 0.0 0.187716239934355 0.982223301120
936 17 493 0 544 472 514 468 488 491 0 0 -17 494 0 481 482 488 486 497 495 0 503
 +16 495 135 0 ?494 491 504 496 0 0 294 30 496 136 0 495 505 492 0 +1.5e-04 -0.0
01040136384131 6.170732206312821e-04 -1.0 0.0 0.0 17 497 0 502 509 503 489 494 4
95 0 0 -14 498 137 500 1.0e-08 519 477 502 302 499 +0 0 519 477 300 51 499 138 0
 498 520 478 0 +1.5e-04 -8.829806559514944e-04 5.870386222417851e-04 -1.0 0.0 0.
0 1.600000000000001e-04 0.0 1.0 -6.123233995736766e-17 81 1 500 139 6 498 0 0 52
1 479 501 83 3 501 1.0 1.0 1.0 15 502 140 0 503 498 0 17 503 0 502 497 515 486 5
06 504 0 0 -16 504 141 0 ?506 495 512 505 0 0 294 31 505 142 0 504 513 496 0 +-1
.5e-04 -8.829806559514944e-04 5.870386222417851e-04 -1.0 0.0 0.0 0.0 -1.0 6.1232
33995736766e-17 1.600000000000001e-04 17 506 0 559 527 485 507 503 504 0 0 +18 5
07 143 0 515 489 510 508 ?294 29 508 144 0 507 511 490 -1.5e-04 -9.0658941975811
44e-04 7.452872439467568e-04 17 509 0 502 515 497 510 514 512 0 518 +18 510 145
 0 509 507 528 511 ?294 29 511 146 0 510 529 508 1.5e-04 -9.065894197581144e-04
 7.452872439467568e-04 16 512 147 0 ?509 504 516 513 0 0 294 31 513 148 0 512 51
7 505 0 +1.5e-04 -8.829806559514944e-04 5.870386222417851e-04 -1.0 0.0 0.0 0.0 -
1.0 6.123233995736766e-17 1.600000000000001e-04 17 514 0 544 493 535 489 509 512
 0 488 -17 515 0 502 503 509 507 518 516 0 524 +16 516 149 0 ?515 512 525 517 0
 0 294 30 517 150 0 516 526 513 0 +1.5e-04 -9.065894197581144e-04 7.452872439467
568e-04 -1.0 0.0 0.0 17 518 0 523 530 524 510 515 516 0 535 -14 519 151 521 1.0e
-08 540 498 523 302 520 -0 0 540 498 300 50 520 152 0 519 541 499 0 +1.5e-04 -8.
750000000000004e-04 7.5e-04 0.0 0.147554773791378 -0.989053885656073 0.0 -0.9890
53885656073 -0.147554773791378 81 1 521 153 6 519 0 0 542 500 522 83 3 522 1.0 1
.0 1.0 15 523 154 0 524 519 0 17 524 0 523 518 536 507 527 525 0 506 -16 525 155
 0 ?527 516 533 526 0 0 294 30 526 156 0 525 534 517 0 +-1.5e-04 -8.750000000000
004e-04 7.5e-04 0.0 0.989053885656073 0.147554773791378 17 527 0 559 560 506 528
 524 525 0 536 +18 528 157 0 527 510 531 529 ?294 29 529 158 0 528 532 511 -1.5e
-04 -8.749999999999998e-04 7.500000000000175e-04 17 530 0 523 536 518 531 535 53
3 0 539 +18 531 159 0 530 528 546 532 ?294 29 532 160 0 531 547 529 1.5e-04 -8.7
50000000000004e-04 7.5e-04 16 533 161 0 ?530 525 537 534 0 0 294 30 534 162 0 53
3 538 526 0 +1.5e-04 -8.750000000000004e-04 7.5e-04 0.0 0.989053885656073 0.1475
54773791378 17 535 0 544 514 551 510 530 533 0 0 -17 536 0 523 524 530 528 539 5
37 0 565 +16 537 163 0 ?536 533 548 538 0 0 294 30 538 164 0 537 549 534 0 +1.5e
-04 -8.750000000000004e-04 7.5e-04 -1.0 0.0 0.0 17 539 0 583 554 565 531 536 537
 0 551 -14 540 165 542 1.0e-08 555 519 544 302 541 +0 0 555 519 300 50 541 166 0
 540 556 520 0 +1.5e-04 -8.829806559514944e-04 5.870386222417851e-04 1.0 0.0 0.0
 0.0 -1.0 6.123233995736766e-17 81 1 542 167 6 540 0 0 557 521 543 83 3 543 1.0
 1.0 1.0 15 544 168 0 535 540 0 17 545 0 544 551 325 546 550 548 0 554 -18 546 1
69 0 545 531 561 547 ?294 29 547 170 0 546 562 532 1.5e-04 -8.547786548437296e-0
4 5.98339911327986e-04 16 548 171 0 ?550 537 552 549 0 0 294 30 549 172 0 548 55
3 538 0 +1.5e-04 -5.272459928141564e-04 5.98339911327986e-04 0.0 -1.0 6.12323399
5736766e-17 17 550 0 574 319 575 315 545 548 0 0 +17 551 0 544 535 545 531 554 5
52 0 0 -16 552 173 0 ?554 548 563 553 0 0 294 30 553 174 0 552 564 549 0 +1.5e-0
4 -8.490575603104622e-04 5.554317023284797e-04 4.772588739091961e-33 0.132163720
091015 -0.991227900682635 17 554 0 583 578 539 546 551 552 0 575 +14 555 175 557
 1.0e-08 570 540 559 302 556 -0 0 570 540 300 50 556 176 0 555 571 541 0 +-1.5e-
04 -8.829806559514944e-04 5.870386222417851e-04 1.0 0.0 0.0 0.0 -1.0 6.123233995
736766e-17 81 1 557 177 6 555 0 0 572 542 558 83 3 558 1.0 1.0 1.0 15 559 178 0
 311 555 0 17 560 0 559 566 527 561 565 563 0 569 -18 561 179 0 560 546 0 562 ?2
94 29 562 180 0 561 0 547 -1.5e-04 -8.547786548437294e-04 5.98339911327986e-04 1
6 563 181 0 ?565 552 567 564 0 0 294 30 564 182 0 563 568 553 0 +-1.5e-04 -8.689
25694197625e-04 7.044427064822044e-04 -4.772588739091961e-33 -0.132163720091015
 0.991227900682635 17 565 0 583 539 578 528 560 563 0 0 +17 566 0 559 311 560 30
7 569 567 0 0 +16 567 183 0 ?566 563 576 568 0 0 294 30 568 184 0 567 577 564 0
 +-1.5e-04 -5.272459928141564e-04 5.98339911327986e-04 0.0 -1.0 6.12323399573676
6e-17 17 569 0 574 575 319 561 566 567 0 578 -14 570 185 572 1.0e-08 579 555 574
 302 571 -0 0 579 555 300 50 571 186 0 570 580 556 0 +-1.5e-04 -5.27245992814156
4e-04 5.983399113279861e-04 0.0 6.123233995736766e-17 1.0 0.0 1.0 -6.12323399573
6766e-17 81 1 572 187 6 570 0 0 581 557 573 83 3 573 1.0 1.0 1.0 15 574 188 0 55
0 570 0 17 575 0 574 550 569 546 578 576 0 0 -16 576 189 0 ?578 567 0 577 0 0 29
4 30 577 190 0 576 0 568 0 +-1.5e-04 -8.547786548437294e-04 5.98339911327986e-04
 -1.0 1.734723475976808e-16 -7.33519732288304e-33 17 578 0 583 565 554 561 575 5
76 0 0 +14 579 191 581 1.0e-08 0 570 583 302 580 +0 0 0 570 300 50 580 192 0 579
 0 571 0 +6.250000000000001e-04 -8.750000000000002e-04 7.500000000000197e-04 1.7
19506309357374e-16 0.991227900682635 0.132163720091015 -1.0 1.734723475976807e-1
6 -1.062211776130384e-32 81 1 581 193 6 579 0 0 0 572 582 83 3 582 1.0 1.0 1.0 1
5 583 194 0 578 579 0 12 584 169 0 585 0 0 0 0 1000.0 1.0e-08 0 0 0 1 0 1 1 592
 594 600 598 589 599 597 70 585 0 584 0 0 4 1 20 0 586 586 1 T74 20 586 1 0 587
 0 0 0 0 0 0 0 0 0 0 0 0 0 0 0 0 0 0 0 81 1 587 7 6 593 0 0 622 0 588 83 3 588 0
.250980377197266 0.250980377197266 0.250980377197266 19 589 1 0 584 591 0 590 V1
3 590 2 0 584 0 0 0 0 589 593 19 591 3 0 584 0 589 592 S13 592 4 0 584 0 593 0 0
 591 0 14 593 5 587 1.0e-08 620 0 595 592 594 -0 0 620 0 590 50 594 6 0 593 621
 0 0 +-6.249999999999999e-04 -8.75e-04 9.0e-04 1.0 0.0 0.0 0.0 1.0 -6.1232339957
36766e-17 15 595 8 0 596 593 0 17 596 0 595 604 616 597 601 599 0 667 +18 597 9
 0 596 0 602 598 ?584 29 598 10 0 597 603 0 -6.249999999999999e-04 8.75e-04 7.50
0000000000197e-04 16 599 11 0 ?596 0 607 600 0 0 584 30 600 12 0 599 608 0 0 +-6
.249999999999999e-04 8.75e-04 9.0e-04 0.0 -6.123233995736766e-17 -1.0 17 601 0 6
66 671 667 602 596 599 0 674 -18 602 13 0 601 597 605 603 ?584 29 603 14 0 602 6
06 598 -6.249999999999999e-04 8.75e-04 9.0e-04 17 604 0 595 610 596 605 609 607
 0 615 +18 605 15 0 630 602 611 606 ?584 29 606 16 0 605 612 603 -6.249999999999
999e-04 -8.75e-04 7.500000000000197e-04 16 607 17 0 ?604 599 613 608 0 0 584 30
 608 18 0 607 614 600 0 +-6.249999999999999e-04 -8.75e-04 7.500000000000197e-04
 0.0 -1.0 6.123233995736766e-17 17 609 0 751 746 752 597 604 607 0 743 -17 610 0
 595 616 604 611 615 613 0 0 -18 611 19 0 637 605 626 612 ?584 29 612 20 0 611 6
27 606 -6.249999999999999e-04 -8.75e-04 9.0e-04 16 613 21 0 ?615 607 617 614 0 0
 584 30 614 22 0 613 618 608 0 +-6.249999999999999e-04 -8.75e-04 9.0e-04 0.0 -6.
123233995736766e-17 -1.0 17 615 0 624 625 637 605 610 613 0 0 +17 616 0 595 596
 610 602 619 617 0 0 -16 617 23 0 ?619 613 628 618 0 0 584 30 618 24 0 617 629 6
14 0 +-6.249999999999999e-04 -8.75e-04 9.0e-04 0.0 -1.0 6.123233995736766e-17 17
 619 0 704 640 674 611 616 617 0 610 +14 620 25 622 1.0e-08 641 593 624 592 621
 -0 0 641 593 590 50 621 26 0 620 642 594 0 +6.250000000000001e-04 -8.7499999999
99995e-04 9.0e-04 -4.336808689942018e-16 1.0 -6.123233995736766e-17 -1.0 -4.3368
08689942018e-16 2.655529440325959e-32 81 1 622 27 6 620 0 0 643 587 623 83 3 623
 0.250980377197266 0.250980377197266 0.250980377197266 15 624 28 0 615 620 0 17
 625 0 624 631 615 626 630 628 0 636 +18 626 29 0 625 611 632 627 ?584 29 627 30
 0 626 633 612 6.250000000000001e-04 -8.749999999999995e-04 7.500000000000197e-0
4 16 628 31 0 ?625 617 634 629 0 0 584 30 629 32 0 628 635 618 0 +6.250000000000
001e-04 -8.749999999999995e-04 7.500000000000197e-04 1.0 4.336808689942018e-16 -
2.655529440325959e-32 17 630 0 769 755 764 605 625 628 0 752 -17 631 0 624 637 6
25 632 636 634 0 640 -18 632 33 0 658 626 647 633 ?584 29 633 34 0 632 648 627 6
.250000000000001e-04 -8.749999999999995e-04 9.0e-04 16 634 35 0 ?636 628 638 635
 0 0 584 30 635 36 0 634 639 629 0 +6.250000000000001e-04 -8.749999999999995e-04
 9.0e-04 0.0 -6.123233995736766e-17 -1.0 17 636 0 645 646 658 626 631 634 0 764
 +17 637 0 624 615 631 611 640 638 0 619 -16 638 37 0 ?640 634 649 639 0 0 584 3
0 639 38 0 638 650 635 0 +6.250000000000001e-04 -8.749999999999995e-04 9.0e-04 1
.0 4.336808689942018e-16 -2.655529440325959e-32 17 640 0 704 661 619 632 637 638
 0 0 +14 641 39 643 1.0e-08 662 620 645 592 642 -0 0 662 620 590 50 642 40 0 641
 663 621 0 +6.250000000000001e-04 -8.749999999999995e-04 9.0e-04 -1.0 0.0 0.0 0.
0 -1.0 6.123233995736766e-17 81 1 643 41 6 641 0 0 664 622 644 83 3 644 0.250980
377197266 0.250980377197266 0.250980377197266 15 645 42 0 636 641 0 17 646 0 645
 652 636 647 651 649 0 0 +18 647 43 0 657 632 653 648 ?584 29 648 44 0 647 654 6
33 6.250000000000001e-04 8.750000000000002e-04 7.500000000000197e-04 16 649 45 0
 ?646 638 655 650 0 0 584 30 650 46 0 649 656 639 0 +6.250000000000001e-04 -8.74
9999999999995e-04 7.500000000000197e-04 0.0 1.0 -6.123233995736766e-17 17 651 0
 760 761 742 626 646 649 0 0 -17 652 0 645 658 646 653 657 655 0 661 -18 653 47
 0 652 647 681 654 ?584 29 654 48 0 653 682 648 6.250000000000001e-04 8.75000000
0000002e-04 9.0e-04 16 655 49 0 ?657 649 659 656 0 0 584 30 656 50 0 655 660 650
 0 +6.250000000000001e-04 8.750000000000002e-04 9.0e-04 0.0 -6.123233995736766e-
17 -1.0 17 657 0 666 667 671 647 652 655 0 742 +17 658 0 645 636 652 632 661 659
 0 631 -16 659 51 0 ?661 655 668 660 0 0 584 30 660 52 0 659 669 656 0 +6.250000
000000001e-04 -8.749999999999995e-04 9.0e-04 0.0 1.0 -6.123233995736766e-17 17 6
61 0 704 674 640 653 658 659 0 671 +14 662 53 664 1.0e-08 675 641 666 592 663 -0
 0 675 641 590 50 663 54 0 662 676 642 0 +6.250000000000001e-04 8.75000000000000
2e-04 9.0e-04 1.734723475976807e-16 -1.0 6.123233995736766e-17 1.0 1.73472347597
6807e-16 -1.062211776130384e-32 81 1 664 55 6 662 0 0 677 643 665 83 3 665 0.250
980377197266 0.250980377197266 0.250980377197266 15 666 56 0 657 662 0 17 667 0
 666 601 657 597 670 668 0 609 +16 668 57 0 ?667 659 672 669 0 0 584 30 669 58 0
 668 673 660 0 +6.250000000000001e-04 8.750000000000002e-04 7.500000000000197e-0
4 -1.0 -1.734723475976807e-16 1.062211776130384e-32 17 670 0 738 739 743 647 667
 668 0 646 -17 671 0 666 657 601 653 674 672 0 0 -16 672 59 0 ?674 668 683 673 0
 0 584 30 673 60 0 672 684 669 0 +6.250000000000001e-04 8.750000000000002e-04 9.
0e-04 -1.0 -1.734723475976807e-16 1.062211776130384e-32 17 674 0 704 619 661 602
 671 672 0 616 +14 675 61 677 1.0e-08 705 662 679 592 676 +0 0 705 662 590 50 67
6 62 0 675 706 663 0 +0.0 5.51091059616309e-20 9.0e-04 0.0 6.123233995736766e-17
 1.0 0.0 -1.0 6.123233995736766e-17 81 1 677 63 6 675 0 0 707 664 678 83 3 678 0
.250980377197266 0.250980377197266 0.250980377197266 15 679 64 0 680 675 704 17
 680 0 679 688 700 681 685 683 0 693 -18 681 65 0 680 653 686 682 ?584 29 682 66
 0 681 687 654 -5.703606138141339e-04 -6.511245957491746e-04 9.0e-04 16 683 67 0
 ?685 672 691 684 0 0 584 30 684 68 0 683 692 673 0 +-5.703606138141339e-04 -8.4
5666200460972e-04 9.0e-04 0.0 -1.0 6.123233995736766e-17 17 685 0 774 775 787 68
6 680 683 0 700 +18 686 69 0 780 681 689 687 ?584 29 687 70 0 686 690 682 -5.703
606138141339e-04 -8.45666200460972e-04 9.0e-04 17 688 0 679 694 680 689 693 691
 0 802 -18 689 71 0 699 686 695 690 ?584 29 690 72 0 689 696 687 5.7036061381413
39e-04 -6.511245957491746e-04 9.0e-04 16 691 73 0 ?693 683 697 692 0 0 584 30 69
2 74 0 691 698 684 0 +5.703606138141339e-04 -6.511245957491746e-04 9.0e-04 -1.0
 0.0 0.0 17 693 0 795 790 802 681 688 691 0 787 +17 694 0 679 700 688 695 699 69
7 0 703 -18 695 75 0 694 689 711 696 ?584 29 696 76 0 695 712 690 5.703606138141
339e-04 -8.45666200460972e-04 9.0e-04 16 697 77 0 ?699 691 701 698 0 0 584 30 69
8 78 0 697 702 692 0 +5.703606138141339e-04 -8.45666200460972e-04 9.0e-04 0.0 1.
0 -6.123233995736766e-17 17 699 0 810 805 817 689 694 697 0 688 +17 700 0 679 68
0 694 686 703 701 0 0 -16 701 79 0 ?703 697 713 702 0 0 584 30 702 80 0 701 714
 698 0 +5.703606138141339e-04 -8.45666200460972e-04 9.0e-04 1.0 0.0 0.0 17 703 0
 825 820 780 695 700 701 0 817 +15 704 81 0 619 675 0 14 705 82 707 1.0e-08 734
 675 709 592 706 -0 0 734 675 590 50 706 83 0 705 735 676 0 +0.0 0.0 0.0 0.0 6.1
23233995736766e-17 1.0 0.0 -1.0 6.123233995736766e-17 81 1 707 84 6 705 0 0 736
 677 708 83 3 708 0.250980377197266 0.250980377197266 0.250980377197266 15 709 8
5 0 710 705 0 17 710 0 709 718 730 711 715 713 0 723 +18 711 86 0 710 695 716 71
2 ?584 29 712 87 0 711 717 696 5.250000000000001e-04 -7.749999999999996e-04 4.74
5506346695991e-20 16 713 88 0 ?710 701 721 714 0 0 584 30 714 89 0 713 722 702 0
 +5.250000000000001e-04 0.0 0.0 0.0 -1.0 6.123233995736766e-17 17 715 0 760 742
 761 716 710 713 0 739 -18 716 90 0 715 711 719 717 ?584 29 717 91 0 716 720 712
 5.250000000000001e-04 7.750000000000003e-04 -4.745506346695994e-20 17 718 0 709
 724 710 719 723 721 0 729 +18 719 92 0 755 716 725 720 ?584 29 720 93 0 719 726
 717 -5.249999999999998e-04 -7.750000000000001e-04 4.745506346695994e-20 16 721
 94 0 ?718 713 727 722 0 0 584 30 722 95 0 721 728 714 0 +3.361026734705063e-19
 -7.749999999999998e-04 4.745506346695993e-20 -1.0 -4.336808689942018e-16 2.6555
29440325959e-32 17 723 0 769 764 755 711 718 721 0 761 -17 724 0 709 730 718 725
 729 727 0 733 +18 725 96 0 746 719 776 726 ?584 29 726 97 0 725 777 720 -5.2499
99999999998e-04 7.75e-04 -4.745506346695994e-20 16 727 98 0 ?724 721 731 728 0 0
 584 30 728 99 0 727 732 722 0 +-5.249999999999998e-04 0.0 0.0 0.0 1.0 -6.123233
995736766e-17 17 729 0 751 752 746 719 724 727 0 0 -17 730 0 709 710 724 716 733
 731 0 0 +16 731 100 0 ?730 727 740 732 0 0 584 30 732 101 0 731 741 728 0 +-1.3
44410693882026e-19 7.750000000000001e-04 -4.745506346695994e-20 1.0 1.7347234759
76807e-16 -1.062211776130384e-32 17 733 0 738 743 739 725 730 731 0 0 -14 734 10
2 736 1.0e-08 747 705 738 592 735 -0 0 747 705 590 50 735 103 0 734 748 706 0 +6
.250000000000001e-04 8.750000000000002e-04 7.500000000000197e-04 1.7195063093573
74e-16 -0.991227900682635 0.132163720091015 -1.0 -1.734723475976807e-16 1.062211
776130384e-32 81 1 736 104 6 734 0 0 749 707 737 83 3 737 0.250980377197266 0.25
0980377197266 0.250980377197266 15 738 105 0 739 734 0 17 739 0 738 733 670 716
 742 740 0 730 -16 740 106 0 ?742 731 744 741 0 0 584 30 741 107 0 740 745 732 0
 +6.250000000000001e-04 8.750000000000002e-04 7.500000000000197e-04 0.1310243564
1608 0.13102435641608 0.982682673120628 17 742 0 760 651 715 647 739 740 0 670 +
17 743 0 738 670 733 597 746 744 0 0 -16 744 108 0 ?746 740 753 745 0 0 584 30 7
45 109 0 744 754 741 0 +-5.949570815450658e-04 8.449570815450659e-04 5.246781115
880081e-04 0.13102435641608 -0.13102435641608 -0.982682673120629 17 746 0 751 72
9 609 725 743 744 0 724 +14 747 110 749 1.0e-08 756 734 751 592 748 -0 0 756 734
 590 50 748 111 0 747 757 735 0 +-6.249999999999999e-04 -8.75e-04 7.500000000000
197e-04 0.991227900682635 8.092693838643388e-18 0.132163720091015 0.0 -1.0 6.123
233995736766e-17 81 1 749 112 6 747 0 0 758 736 750 83 3 750 0.250980377197266 0
.250980377197266 0.250980377197266 15 751 113 0 746 747 0 17 752 0 751 609 729 6
05 755 753 0 604 -16 753 114 0 ?755 744 762 754 0 0 584 30 754 115 0 753 763 745
 0 +-6.249999999999999e-04 -8.75e-04 7.500000000000197e-04 0.13102435641608 0.13
102435641608 -0.982682673120629 17 755 0 769 723 630 719 752 753 0 718 +14 756 1
16 758 1.0e-08 765 747 760 592 757 -0 0 765 747 590 50 757 117 0 756 766 748 0 +
6.250000000000001e-04 -8.749999999999995e-04 7.500000000000197e-04 -0.9912279006
82635 8.092693838643388e-18 0.132163720091015 0.0 1.0 -6.123233995736766e-17 81
 1 758 118 6 756 0 0 767 749 759 83 3 759 0.250980377197266 0.250980377197266 0.
250980377197266 15 760 119 0 742 756 0 17 761 0 760 715 651 711 764 762 0 0 -16
 762 120 0 ?764 753 778 763 0 0 584 30 763 121 0 762 779 754 0 +6.25000000000000
1e-04 -8.749999999999995e-04 7.500000000000197e-04 0.13102435641608 -0.131024356
41608 0.982682673120629 17 764 0 769 630 723 626 761 762 0 651 +14 765 122 767 1
.0e-08 770 756 769 592 766 -0 0 770 756 590 50 766 123 0 765 771 757 0 +6.250000
000000001e-04 -8.749999999999995e-04 7.500000000000197e-04 -4.298765773393436e-1
6 0.991227900682635 0.132163720091014 1.0 4.336808689942017e-16 -2.6555294403259
59e-32 81 1 767 124 6 765 0 0 772 758 768 83 3 768 0.250980377197266 0.250980377
197266 0.250980377197266 15 769 125 0 755 765 0 14 770 126 772 1.0e-08 791 765 7
74 592 771 -0 0 791 765 590 50 771 127 0 770 792 766 0 +-5.703606138141339e-04 -
8.45666200460972e-04 8.9e-04 -1.0 0.0 0.0 0.0 -1.0 6.123233995736766e-17 81 1 77
2 128 6 770 0 0 793 767 773 83 3 773 0.250980377197266 0.250980377197266 0.25098
0377197266 15 774 129 0 685 770 0 17 775 0 774 781 685 776 780 778 0 786 -18 776
 130 0 775 725 782 777 ?584 29 777 131 0 776 783 726 -5.703606138141339e-04 -8.4
5666200460972e-04 8.9e-04 16 778 132 0 ?780 762 784 779 0 0 584 30 779 133 0 778
 785 763 0 +-5.703606138141339e-04 -8.45666200460972e-04 8.9e-04 0.0 6.123233995
736766e-17 1.0 17 780 0 825 703 826 686 775 778 0 685 +17 781 0 774 787 775 782
 786 784 0 790 -18 782 134 0 781 776 797 783 ?584 29 783 135 0 782 798 777 -5.70
3606138141339e-04 -6.511245957491746e-04 8.9e-04 16 784 136 0 ?786 778 788 785 0
 0 584 30 785 137 0 784 789 779 0 +-5.703606138141339e-04 -8.45666200460972e-04
 8.9e-04 0.0 -1.0 6.123233995736766e-17 17 786 0 834 829 801 776 781 784 0 826 +
17 787 0 774 685 781 681 790 788 0 0 +16 788 138 0 ?787 784 799 789 0 0 584 30 7
89 139 0 788 800 785 0 +-5.703606138141339e-04 -6.511245957491746e-04 8.9e-04 0.
0 6.123233995736766e-17 1.0 17 790 0 795 796 693 782 787 788 0 801 -14 791 140 7
93 1.0e-08 806 770 795 592 792 -0 0 806 770 590 50 792 141 0 791 807 771 0 +5.70
3606138141339e-04 -6.511245957491746e-04 8.9e-04 0.0 1.0 -6.123233995736766e-17
 -1.0 0.0 0.0 81 1 793 142 6 791 0 0 808 772 794 83 3 794 0.250980377197266 0.25
0980377197266 0.250980377197266 15 795 143 0 693 791 0 17 796 0 795 802 790 797
 801 799 0 816 -18 797 144 0 805 782 812 798 ?584 29 798 145 0 797 813 783 5.703
606138141339e-04 -6.511245957491746e-04 8.9e-04 16 799 146 0 ?801 788 803 800 0
 0 584 30 800 147 0 799 804 789 0 +5.703606138141339e-04 -6.511245957491746e-04
 8.9e-04 -1.0 0.0 0.0 17 801 0 834 786 816 782 796 799 0 0 +17 802 0 795 693 796
 689 805 803 0 0 +16 803 148 0 ?802 799 814 804 0 0 584 30 804 149 0 803 815 800
 0 +5.703606138141339e-04 -6.511245957491746e-04 8.9e-04 0.0 6.123233995736766e-
17 1.0 17 805 0 810 811 699 797 802 803 0 796 -14 806 150 808 1.0e-08 821 791 81
0 592 807 -0 0 821 791 590 50 807 151 0 806 822 792 0 +5.703606138141339e-04 -8.
45666200460972e-04 8.9e-04 1.0 0.0 0.0 0.0 1.0 -6.123233995736766e-17 81 1 808 1
52 6 806 0 0 823 793 809 83 3 809 0.250980377197266 0.250980377197266 0.25098037
7197266 15 810 153 0 699 806 0 17 811 0 810 817 805 812 816 814 0 820 -18 812 15
4 0 811 797 0 813 ?584 29 813 155 0 812 0 798 5.703606138141339e-04 -8.456662004
60972e-04 8.9e-04 16 814 156 0 ?816 803 818 815 0 0 584 30 815 157 0 814 819 804
 0 +5.703606138141339e-04 -8.45666200460972e-04 8.9e-04 0.0 1.0 -6.1232339957367
66e-17 17 816 0 834 801 829 797 811 814 0 0 +17 817 0 810 699 811 695 820 818 0
 0 +16 818 158 0 ?817 814 827 819 0 0 584 30 819 159 0 818 828 815 0 +5.70360613
8141339e-04 -8.45666200460972e-04 8.9e-04 0.0 6.123233995736766e-17 1.0 17 820 0
 825 826 703 812 817 818 0 829 -14 821 160 823 1.0e-08 830 806 825 592 822 -0 0
 830 806 590 50 822 161 0 821 831 807 0 +5.703606138141339e-04 -8.45666200460972
e-04 8.9e-04 0.0 -1.0 6.123233995736766e-17 1.0 0.0 0.0 81 1 823 162 6 821 0 0 8
32 808 824 83 3 824 0.250980377197266 0.250980377197266 0.250980377197266 15 825
 163 0 703 821 0 17 826 0 825 780 820 776 829 827 0 0 -16 827 164 0 ?829 818 0 8
28 0 0 584 30 828 165 0 827 0 819 0 +5.703606138141339e-04 -8.45666200460972e-04
 8.9e-04 1.0 0.0 0.0 17 829 0 834 816 786 812 826 827 0 0 +14 830 166 832 1.0e-0
8 0 821 834 592 831 +0 0 0 821 590 50 831 167 0 830 0 822 0 +0.0 5.4496782562057
21e-20 8.9e-04 0.0 6.123233995736766e-17 1.0 0.0 -1.0 6.123233995736766e-17 81 1
 832 168 6 830 0 0 0 823 833 83 3 833 0.250980377197266 0.250980377197266 0.2509
80377197266 15 834 169 0 786 830 0 1 0 
