**ABCDEFGHIJKLMNOPQRSTUVWXYZabcdefghijklmnopqrstuvwxyz**************************
**PARASOLID !"#$%&'()*+,-./:;<=>?@[\]^_`{|}~0123456789**************************
**PART1;
MC=AMD64;
MC_MODEL=AMD64 Family 25 Model 33 Stepping 2, AuthenticAMD;
MC_ID=unknown;
OS=Windows_NT;
OS_RELEASE=unknown;
FRU=CAD Exchanger 3.23.0 (cadexchanger.com);
APPL=unknown;
SITE=unknown;
USER=unknown;
FORMAT=text;
GUISE=transmit;
KEY=B4BXHA_CMP-019-000017-1;
FILE=B4BXHA_CMP-019-000017-1.x_t;
DATE=Sat Mar  8 15:45:43 2025;
**PART2;
SCH=SCH_1200000_12103;
USFLD_SIZE=0;
**PART3;
**END_OF_HEADER*****************************************************************
T51 : TRANSMIT FILE created by modeller version 120000017 SCH_1200000_121030 74
 5 1 5 0 2 105 143 181 219 12 2 68 0 3 0 0 0 0 1000.0 1.0e-08 0 0 0 1 0 1 1 12 1
4 20 18 9 19 17 70 3 0 2 0 0 4 1 20 0 4 4 1 T74 20 4 1 0 5 0 0 0 0 0 0 0 0 0 0 0
 0 0 0 0 0 0 0 0 81 1 5 7 6 13 0 0 42 0 8 80 1 6 0 7 8001 0 0 0 0 3 5 0 0 0 FFFF
TFTFFFFFFF2 79 15 7 SDL/TYSA_COLOUR83 3 8 0.300000011920929 0.300000011920929 0.
300000011920929 19 9 1 0 2 11 0 10 V13 10 2 0 2 0 0 0 0 9 13 19 11 3 0 2 0 9 12
 S13 12 4 0 2 0 13 0 0 11 0 14 13 5 5 1.0e-08 40 0 15 12 14 -0 0 40 0 10 50 14 6
 0 13 41 0 0 +-0.00245 -0.00235 1.0e-04 2.449293598294707e-16 1.0 0.0 1.0 -2.449
293598294707e-16 0.0 15 15 8 0 16 13 0 17 16 0 15 24 36 17 21 19 0 29 +18 17 9 0
 16 0 22 18 ?2 29 18 10 0 17 23 0 0.00995 -0.00235 1.0e-04 16 19 11 0 ?16 0 27 2
0 0 0 2 30 20 12 0 19 28 0 0 +-0.00245 -0.00235 1.0e-04 1.0 -2.449293598294707e-
16 0.0 17 21 0 99 90 50 22 16 19 0 87 -18 22 13 0 36 17 25 23 ?2 29 23 14 0 22 2
6 18 -0.00245 -0.00235 1.0e-04 17 24 0 15 30 16 25 29 27 0 57 +18 25 15 0 35 22
 31 26 ?2 29 26 16 0 25 32 23 0.00995 -0.00235 0.0071 16 27 17 0 ?24 19 33 28 0
 0 2 30 28 18 0 27 34 20 0 +0.00995 -0.00235 1.0e-04 0.0 0.0 1.0 17 29 0 44 45 5
7 17 24 27 0 50 -17 30 0 15 36 24 31 35 33 0 94 -18 31 19 0 39 25 46 32 ?2 29 32
 20 0 31 47 26 -0.00245 -0.00235 0.0071 16 33 21 0 ?35 27 37 34 0 0 2 30 34 22 0
 33 38 28 0 +-0.00245 -0.00235 0.0071 1.0 -2.449293598294707e-16 0.0 17 35 0 104
 60 94 25 30 33 0 24 +17 36 0 15 16 30 22 39 37 0 21 -16 37 23 0 ?39 33 48 38 0
 0 2 30 38 24 0 37 49 34 0 +-0.00245 -0.00235 1.0e-04 0.0 0.0 1.0 17 39 0 86 91
 87 31 36 37 0 30 +14 40 25 42 1.0e-08 61 13 44 12 41 -0 0 61 13 10 50 41 26 0 4
0 62 14 0 +0.00995 -0.00235 1.0e-04 -1.0 2.449293598294707e-16 0.0 2.44929359829
4707e-16 1.0 0.0 81 1 42 27 6 40 0 0 63 5 43 83 3 43 0.300000011920929 0.3000000
11920929 0.300000011920929 15 44 28 0 45 40 0 17 45 0 44 51 29 46 50 48 0 0 +18
 46 29 0 56 31 52 47 ?2 29 47 30 0 46 53 32 0.00995 0.0034 1.0e-04 16 48 31 0 ?4
5 37 54 49 0 0 2 30 49 32 0 48 55 38 0 +0.00995 -0.00235 1.0e-04 2.4492935982947
07e-16 1.0 0.0 17 50 0 99 21 71 17 45 48 0 0 -17 51 0 44 57 45 52 56 54 0 78 +18
 52 33 0 60 46 67 53 ?2 29 53 34 0 52 68 47 0.00995 0.0034 0.0071 16 54 35 0 ?51
 48 58 55 0 0 2 30 55 36 0 54 59 49 0 +0.00995 0.0034 1.0e-04 0.0 0.0 1.0 17 56
 0 65 66 78 46 51 54 0 71 -17 57 0 44 29 51 25 60 58 0 0 -16 58 37 0 ?60 54 69 5
9 0 0 2 30 59 38 0 58 70 55 0 +0.00995 -0.00235 0.0071 2.449293598294707e-16 1.0
 0.0 17 60 0 104 81 35 52 57 58 0 51 +14 61 39 63 1.0e-08 82 40 65 12 62 -0 0 82
 40 10 50 62 40 0 61 83 41 0 +0.00995 0.0034 1.0e-04 -2.449293598294707e-16 -1.0
 0.0 -1.0 2.449293598294707e-16 0.0 81 1 63 41 6 61 0 0 84 42 64 83 3 64 0.30000
0011920929 0.300000011920929 0.300000011920929 15 65 42 0 66 61 0 17 66 0 65 72
 56 67 71 69 0 77 +18 67 43 0 66 52 73 68 ?2 29 68 44 0 67 74 53 -0.00245 0.0034
 1.0e-04 16 69 45 0 ?66 58 75 70 0 0 2 30 70 46 0 69 76 59 0 +0.00995 0.0034 1.0
e-04 -1.0 2.449293598294707e-16 0.0 17 71 0 99 50 90 46 66 69 0 45 -17 72 0 65 7
8 66 73 77 75 0 91 +18 73 47 0 81 67 0 74 ?2 29 74 48 0 73 0 68 -0.00245 0.0034
 0.0071 16 75 49 0 ?72 69 79 76 0 0 2 30 76 50 0 75 80 70 0 +-0.00245 0.0034 1.0
e-04 0.0 0.0 1.0 17 77 0 86 87 91 67 72 75 0 90 -17 78 0 65 56 72 52 81 79 0 0 -
16 79 51 0 ?81 75 88 80 0 0 2 30 80 52 0 79 89 76 0 +0.00995 0.0034 0.0071 -1.0
 2.449293598294707e-16 0.0 17 81 0 104 94 60 73 78 79 0 72 +14 82 53 84 1.0e-08
 95 61 86 12 83 -0 0 95 61 10 50 83 54 0 82 96 62 0 +-0.00245 0.0034 1.0e-04 1.0
 -2.449293598294707e-16 0.0 -2.449293598294707e-16 -1.0 0.0 81 1 84 55 6 82 0 0
 97 63 85 83 3 85 0.300000011920929 0.300000011920929 0.300000011920929 15 86 56
 0 87 82 0 17 87 0 86 39 77 22 90 88 0 0 +16 88 57 0 ?87 79 92 89 0 0 2 30 89 58
 0 88 93 80 0 +-0.00245 0.0034 1.0e-04 -2.449293598294707e-16 -1.0 0.0 17 90 0 9
9 71 21 67 87 88 0 0 -17 91 0 86 77 39 73 94 92 0 0 -16 92 59 0 ?94 88 0 93 0 0
 2 30 93 60 0 92 0 89 0 +-0.00245 0.0034 0.0071 -2.449293598294707e-16 -1.0 0.0
 17 94 0 104 35 81 31 91 92 0 0 +14 95 61 97 1.0e-08 100 82 99 12 96 -0 0 100 82
 10 50 96 62 0 95 101 83 0 +0.00375 5.249999999999991e-04 1.0e-04 -2.19069610665
2e-34 6.973901102305883e-50 1.0 1.0 -2.449293598294707e-16 2.190696106652e-34 81
 1 97 63 6 95 0 0 102 84 98 83 3 98 0.300000011920929 0.300000011920929 0.300000
011920929 15 99 64 0 90 95 0 14 100 65 102 1.0e-08 0 95 104 12 101 +0 0 0 95 10
 50 101 66 0 100 0 96 0 +0.00375 5.249999999999991e-04 0.0071 -2.190696106652e-3
4 6.973901102305883e-50 1.0 1.0 -2.449293598294707e-16 2.190696106652e-34 81 1 1
02 67 6 100 0 0 0 97 103 83 3 103 0.300000011920929 0.300000011920929 0.30000001
1920929 15 104 68 0 35 100 0 12 105 26 0 106 0 0 0 0 1000.0 1.0e-08 0 0 0 1 0 1
 1 113 115 121 119 110 120 118 70 106 0 105 0 0 4 1 20 0 107 107 1 T74 20 107 1
 0 108 0 0 0 0 0 0 0 0 0 0 0 0 0 0 0 0 0 0 0 81 1 108 7 6 114 0 0 135 0 109 83 3
 109 0.734000027179718 0.773000001907349 0.796999990940094 19 110 1 0 105 112 0
 111 V13 111 2 0 105 0 0 0 0 110 114 19 112 3 0 105 0 110 113 S13 113 4 0 105 0
 114 0 0 112 0 14 114 5 108 1.0e-08 133 0 116 113 115 +0 0 133 0 111 51 115 6 0
 114 134 0 0 +0.0 0.0 -0.005 0.0 0.0 1.0 3.5e-04 1.0 -2.449293598294707e-16 0.0
 15 116 8 0 117 114 0 17 117 0 116 123 128 118 122 120 0 128 -18 118 9 0 122 0 1
24 119 ?105 29 119 10 0 118 125 0 3.5e-04 -1.714505518806247e-19 1.0e-04 16 120
 11 0 ?122 0 126 121 0 0 105 31 121 12 0 120 127 0 0 +0.0 0.0 1.0e-04 0.0 0.0 1.
0 1.0 -2.449293598294707e-16 0.0 3.5e-04 17 122 0 137 122 122 118 117 120 0 117
 +17 123 0 116 129 117 124 128 126 0 132 -18 124 13 0 129 118 0 125 ?105 29 125
 14 0 124 0 119 3.5e-04 -1.714505518806247e-19 -0.005 16 126 15 0 ?128 120 130 1
27 0 0 105 30 127 16 0 126 131 121 0 +3.5e-04 -1.714505518806247e-19 -0.005 0.0
 0.0 1.0 17 128 0 116 117 129 118 123 126 0 0 +17 129 0 116 128 123 124 132 130
 0 123 +16 130 17 0 ?129 126 0 131 0 0 105 31 131 18 0 130 0 127 0 +0.0 0.0 -0.0
05 0.0 0.0 1.0 1.0 -2.449293598294707e-16 0.0 3.5e-04 17 132 0 142 132 132 124 1
29 130 0 0 -14 133 19 135 1.0e-08 138 114 137 113 134 +0 0 138 114 111 50 134 20
 0 133 139 115 0 +0.0 0.0 1.0e-04 0.0 0.0 1.0 1.0 -2.449293598294707e-16 0.0 81
 1 135 21 6 133 0 0 140 108 136 83 3 136 0.734000027179718 0.773000001907349 0.7
96999990940094 15 137 22 0 122 133 0 14 138 23 140 1.0e-08 0 133 142 113 139 -0
 0 0 133 111 50 139 24 0 138 0 134 0 +0.0 0.0 -0.005 0.0 0.0 1.0 1.0 -2.44929359
8294707e-16 0.0 81 1 140 25 6 138 0 0 0 135 141 83 3 141 0.734000027179718 0.773
000001907349 0.796999990940094 15 142 26 0 132 138 0 12 143 26 0 144 0 0 0 0 100
0.0 1.0e-08 0 0 0 1 0 1 1 151 153 159 157 148 158 156 70 144 0 143 0 0 4 1 20 0
 145 145 1 T74 20 145 1 0 146 0 0 0 0 0 0 0 0 0 0 0 0 0 0 0 0 0 0 0 81 1 146 7 6
 152 0 0 173 0 147 83 3 147 0.734000027179718 0.773000001907349 0.79699999094009
4 19 148 1 0 143 150 0 149 V13 149 2 0 143 0 0 0 0 148 152 19 150 3 0 143 0 148
 151 S13 151 4 0 143 0 152 0 0 150 0 14 152 5 146 1.0e-08 171 0 154 151 153 +0 0
 171 0 149 51 153 6 0 152 172 0 0 +0.0025 -6.123233995736766e-19 -0.005 0.0 0.0
 1.0 3.5e-04 1.0 -2.449293598294707e-16 0.0 15 154 8 0 155 152 0 17 155 0 154 16
1 166 156 160 158 0 0 -18 156 9 0 166 0 162 157 ?143 29 157 10 0 156 163 0 0.002
85 -7.837739514543014e-19 1.0e-04 16 158 11 0 ?160 0 164 159 0 0 143 31 159 12 0
 158 165 0 0 +0.0025 -6.123233995736766e-19 1.0e-04 0.0 0.0 1.0 1.0 -2.449293598
294707e-16 0.0 3.5e-04 17 160 0 175 160 160 156 155 158 0 155 +17 161 0 154 167
 155 162 166 164 0 170 -18 162 13 0 167 156 0 163 ?143 29 163 14 0 162 0 157 0.0
0285 -7.837739514543014e-19 -0.005 16 164 15 0 ?166 158 168 165 0 0 143 30 165 1
6 0 164 169 159 0 +0.00285 -7.837739514543014e-19 -0.005 0.0 0.0 1.0 17 166 0 15
4 155 167 156 161 164 0 160 +17 167 0 154 166 161 162 170 168 0 161 +16 168 17 0
 ?167 164 0 169 0 0 143 31 169 18 0 168 0 165 0 +0.0025 -6.123233995736766e-19 -
0.005 0.0 0.0 1.0 1.0 -2.449293598294707e-16 0.0 3.5e-04 17 170 0 180 170 170 16
2 167 168 0 0 -14 171 19 173 1.0e-08 176 152 175 151 172 +0 0 176 152 149 50 172
 20 0 171 177 153 0 +0.0025 -6.123233995736766e-19 1.0e-04 0.0 0.0 1.0 1.0 -2.44
9293598294707e-16 0.0 81 1 173 21 6 171 0 0 178 146 174 83 3 174 0.7340000271797
18 0.773000001907349 0.796999990940094 15 175 22 0 160 171 0 14 176 23 178 1.0e-
08 0 171 180 151 177 -0 0 0 171 149 50 177 24 0 176 0 172 0 +0.0025 -6.123233995
736766e-19 -0.005 0.0 0.0 1.0 1.0 -2.449293598294707e-16 0.0 81 1 178 25 6 176 0
 0 0 173 179 83 3 179 0.734000027179718 0.773000001907349 0.796999990940094 15 1
80 26 0 170 176 0 12 181 26 0 182 0 0 0 0 1000.0 1.0e-08 0 0 0 1 0 1 1 189 191 1
97 195 186 196 194 70 182 0 181 0 0 4 1 20 0 183 183 1 T74 20 183 1 0 184 0 0 0
 0 0 0 0 0 0 0 0 0 0 0 0 0 0 0 0 81 1 184 7 6 190 0 0 211 0 185 83 3 185 0.73400
0027179718 0.773000001907349 0.796999990940094 19 186 1 0 181 188 0 187 V13 187
 2 0 181 0 0 0 0 186 190 19 188 3 0 181 0 186 189 S13 189 4 0 181 0 190 0 0 188
 0 14 190 5 184 1.0e-08 209 0 192 189 191 +0 0 209 0 187 51 191 6 0 190 210 0 0
 +0.005 -1.224646799147353e-18 -0.005 0.0 0.0 1.0 3.5e-04 1.0 -2.449293598294707
e-16 0.0 15 192 8 0 193 190 0 17 193 0 192 199 204 194 198 196 0 204 -18 194 9 0
 198 0 200 195 ?181 29 195 10 0 194 201 0 0.00535 -1.396097351027978e-18 1.0e-04
 16 196 11 0 ?198 0 202 197 0 0 181 31 197 12 0 196 203 0 0 +0.005 -1.2246467991
47353e-18 1.0e-04 0.0 0.0 1.0 1.0 -2.449293598294707e-16 0.0 3.5e-04 17 198 0 21
3 198 198 194 193 196 0 193 +17 199 0 192 205 193 200 204 202 0 208 -18 200 13 0
 205 194 0 201 ?181 29 201 14 0 200 0 195 0.00535 -1.396097351027978e-18 -0.005
 16 202 15 0 ?204 196 206 203 0 0 181 30 203 16 0 202 207 197 0 +0.00535 -1.3960
97351027978e-18 -0.005 0.0 0.0 1.0 17 204 0 192 193 205 194 199 202 0 0 +17 205
 0 192 204 199 200 208 206 0 199 +16 206 17 0 ?205 202 0 207 0 0 181 31 207 18 0
 206 0 203 0 +0.005 -1.224646799147353e-18 -0.005 0.0 0.0 1.0 1.0 -2.44929359829
4707e-16 0.0 3.5e-04 17 208 0 218 208 208 200 205 206 0 0 -14 209 19 211 1.0e-08
 214 190 213 189 210 +0 0 214 190 187 50 210 20 0 209 215 191 0 +0.005 -1.224646
799147353e-18 1.0e-04 0.0 0.0 1.0 1.0 -2.449293598294707e-16 0.0 81 1 211 21 6 2
09 0 0 216 184 212 83 3 212 0.734000027179718 0.773000001907349 0.79699999094009
4 15 213 22 0 198 209 0 14 214 23 216 1.0e-08 0 209 218 189 215 -0 0 0 209 187 5
0 215 24 0 214 0 210 0 +0.005 -1.224646799147353e-18 -0.005 0.0 0.0 1.0 1.0 -2.4
49293598294707e-16 0.0 81 1 216 25 6 214 0 0 0 211 217 83 3 217 0.73400002717971
8 0.773000001907349 0.796999990940094 15 218 26 0 208 214 0 12 219 26 0 220 0 0
 0 0 1000.0 1.0e-08 0 0 0 1 0 1 1 227 229 235 233 224 234 232 70 220 0 219 0 0 4
 1 20 0 221 221 1 T74 20 221 1 0 222 0 0 0 0 0 0 0 0 0 0 0 0 0 0 0 0 0 0 0 81 1
 222 7 6 228 0 0 249 0 223 83 3 223 0.734000027179718 0.773000001907349 0.796999
990940094 19 224 1 0 219 226 0 225 V13 225 2 0 219 0 0 0 0 224 228 19 226 3 0 21
9 0 224 227 S13 227 4 0 219 0 228 0 0 226 0 14 228 5 222 1.0e-08 247 0 230 227 2
29 +0 0 247 0 225 51 229 6 0 228 248 0 0 +0.0075 -1.83697019872103e-18 -0.005 0.
0 0.0 1.0 3.5e-04 1.0 -2.449293598294707e-16 0.0 15 230 8 0 231 228 0 17 231 0 2
30 237 242 232 236 234 0 242 -18 232 9 0 236 0 238 233 ?219 29 233 10 0 232 239
 0 0.00785 -2.008420750601654e-18 1.0e-04 16 234 11 0 ?236 0 240 235 0 0 219 31
 235 12 0 234 241 0 0 +0.0075 -1.83697019872103e-18 1.0e-04 0.0 0.0 1.0 1.0 -2.4
49293598294707e-16 0.0 3.5e-04 17 236 0 251 236 236 232 231 234 0 231 +17 237 0
 230 243 231 238 242 240 0 243 -18 238 13 0 237 232 0 239 ?219 29 239 14 0 238 0
 233 0.00785 -2.008420750601654e-18 -0.005 16 240 15 0 ?242 234 244 241 0 0 219
 30 241 16 0 240 245 235 0 +0.00785 -2.008420750601654e-18 -0.005 0.0 0.0 1.0 17
 242 0 230 231 243 232 237 240 0 0 +17 243 0 230 242 237 238 246 244 0 246 +16 2
44 17 0 ?243 240 0 245 0 0 219 31 245 18 0 244 0 241 0 +0.0075 -1.83697019872103
e-18 -0.005 0.0 0.0 1.0 1.0 -2.449293598294707e-16 0.0 3.5e-04 17 246 0 256 246
 246 238 243 244 0 0 -14 247 19 249 1.0e-08 252 228 251 227 248 +0 0 252 228 225
 50 248 20 0 247 253 229 0 +0.0075 -1.83697019872103e-18 1.0e-04 0.0 0.0 1.0 1.0
 -2.449293598294707e-16 0.0 81 1 249 21 6 247 0 0 254 222 250 83 3 250 0.7340000
27179718 0.773000001907349 0.796999990940094 15 251 22 0 236 247 0 14 252 23 254
 1.0e-08 0 247 256 227 253 -0 0 0 247 225 50 253 24 0 252 0 248 0 +0.0075 -1.836
97019872103e-18 -0.005 0.0 0.0 1.0 1.0 -2.449293598294707e-16 0.0 81 1 254 25 6
 252 0 0 0 249 255 83 3 255 0.734000027179718 0.773000001907349 0.79699999094009
4 15 256 26 0 246 252 0 1 0 
