**ABCDEFGHIJKLMNOPQRSTUVWXYZabcdefghijklmnopqrstuvwxyz**************************
**PARASOLID !"#$%&'()*+,-./:;<=>?@[\]^_`{|}~0123456789**************************
**PART1;
MC=AMD64;
MC_MODEL=AMD64 Family 25 Model 33 Stepping 2, AuthenticAMD;
MC_ID=unknown;
OS=Windows_NT;
OS_RELEASE=unknown;
FRU=CAD Exchanger 3.23.0 (cadexchanger.com);
APPL=unknown;
SITE=unknown;
USER=unknown;
FORMAT=text;
GUISE=transmit;
KEY=OMRON-B3U-1000_V_CMP-011-00000-2;
FILE=OMRON-B3U-1000_V_CMP-011-00000-2.x_t;
DATE=Sat Mar  8 15:45:41 2025;
**PART2;
SCH=SCH_1200000_12103;
USFLD_SIZE=0;
**PART3;
**END_OF_HEADER*****************************************************************
T51 : TRANSMIT FILE created by modeller version 120000017 SCH_1200000_121030 74
 2 1 2 0 2 42 12 2 26 0 3 0 0 0 0 1000.0 1.0e-08 0 0 0 1 0 1 1 12 14 20 18 9 19
 17 70 3 0 2 0 0 4 1 20 0 4 4 1 T74 20 4 1 0 5 0 0 0 0 0 0 0 0 0 0 0 0 0 0 0 0 0
 0 0 81 1 5 7 6 13 0 0 34 0 8 80 1 6 0 7 8001 0 0 0 0 3 5 0 0 0 FFFFTFTFFFFFFF2
 79 15 7 SDL/TYSA_COLOUR83 3 8 0.090196080505848 0.152941167354584 0.12941177189
3501 19 9 1 0 2 11 0 10 V13 10 2 0 2 0 0 0 0 9 13 19 11 3 0 2 0 9 12 S13 12 4 0
 2 0 13 0 0 11 0 14 13 5 5 1.0e-08 32 0 15 12 14 +0 0 32 0 10 51 14 6 0 13 33 0
 0 +-8.128e-08 -4.064e-08 0.00134999984 0.0 0.0 -1.0 7.5000104e-04 1.0 0.0 0.0 1
5 15 8 0 16 13 0 17 16 0 15 22 27 17 21 19 0 21 +18 17 9 0 16 0 23 18 ?2 29 18 1
0 0 17 24 0 7.4991976e-04 -4.064e-08 0.00134999984 16 19 11 0 ?16 0 25 20 0 0 2
 31 20 12 0 19 26 0 0 +-8.128e-08 -4.064e-08 0.00134999984 0.0 0.0 1.0 1.0 0.0 0
.0 7.5000104e-04 17 21 0 36 21 21 17 16 19 0 27 -17 22 0 15 28 16 23 27 25 0 31
 +18 23 13 0 22 17 0 24 ?2 29 24 14 0 23 0 18 7.4991976e-04 -4.064e-08 0.0017499
9904 16 25 15 0 ?22 19 29 26 0 0 2 30 26 16 0 25 30 20 0 +7.4991976e-04 -4.064e-
08 0.00134999984 0.0 0.0 1.0 17 27 0 15 16 28 17 22 25 0 0 -17 28 0 15 27 22 23
 31 29 0 0 -16 29 17 0 ?31 25 0 30 0 0 2 31 30 18 0 29 0 26 0 +-8.128e-08 -4.064
e-08 0.00174999904 0.0 0.0 1.0 1.0 0.0 0.0 7.5000104e-04 17 31 0 41 31 31 23 28
 29 0 28 +14 32 19 34 1.0e-08 37 13 36 12 33 -0 0 37 13 10 50 33 20 0 32 38 14 0
 +-8.128000000004274e-08 -4.063999999994516e-08 0.00134999984 0.0 0.0 1.0 1.0 0.
0 0.0 81 1 34 21 6 32 0 0 39 5 35 83 3 35 0.090196080505848 0.152941167354584 0.
129411771893501 15 36 22 0 21 32 0 14 37 23 39 1.0e-08 0 32 41 12 38 +0 0 0 32 1
0 50 38 24 0 37 0 33 0 +-8.128000000004274e-08 -4.063999999994516e-08 0.00174999
904 0.0 0.0 1.0 1.0 0.0 0.0 81 1 39 25 6 37 0 0 0 34 40 83 3 40 0.09019608050584
8 0.152941167354584 0.129411771893501 15 41 26 0 31 37 0 12 42 68 0 43 0 0 0 0 1
000.0 1.0e-08 0 0 0 1 0 1 1 50 52 58 56 47 57 55 70 43 0 42 0 0 4 1 20 0 44 44 1
 T74 20 44 1 0 45 0 0 0 0 0 0 0 0 0 0 0 0 0 0 0 0 0 0 0 81 1 45 7 6 51 0 0 80 0
 46 83 3 46 0.501960813999176 0.501960813999176 0.501960813999176 19 47 1 0 42 4
9 0 48 V13 48 2 0 42 0 0 0 0 47 51 19 49 3 0 42 0 47 50 S13 50 4 0 42 0 51 0 0 4
9 0 14 51 5 45 1.0e-08 78 0 53 50 52 -0 0 78 0 48 50 52 6 0 51 79 0 0 +-0.001499
99954 0.00125000004 0.0 1.0 0.0 0.0 0.0 -1.0 0.0 15 53 8 0 54 51 0 17 54 0 53 62
 74 55 59 57 0 88 +18 55 9 0 54 0 60 56 ?42 29 56 10 0 55 61 0 -0.00149999954 -0
.00125000004 0.0 16 57 11 0 ?54 0 65 58 0 0 42 30 58 12 0 57 66 0 0 +-0.00149999
954 0.00125000004 0.0 0.0 -1.0 0.0 17 59 0 137 128 88 60 54 57 0 0 -18 60 13 0 7
4 55 63 61 ?42 29 61 14 0 60 64 56 -0.00149999954 0.00125000004 0.0 17 62 0 53 6
8 54 63 67 65 0 0 +18 63 15 0 73 60 69 64 ?42 29 64 16 0 63 70 61 -0.00149999954
 -0.00125000004 0.00134999984 16 65 17 0 ?62 57 71 66 0 0 42 30 66 18 0 65 72 58
 0 +-0.00149999954 -0.00125000004 0.0 0.0 0.0 1.0 17 67 0 82 83 95 55 62 65 0 0
 -17 68 0 53 74 62 69 73 71 0 132 -18 69 19 0 77 63 84 70 ?42 29 70 20 0 69 85 6
4 -0.00149999954 0.00125000004 0.00134999984 16 71 21 0 ?73 65 75 72 0 0 42 30 7
2 22 0 71 76 66 0 +-0.00149999954 0.00125000004 0.00134999984 0.0 -1.0 0.0 17 73
 0 142 98 132 63 68 71 0 95 +17 74 0 53 54 68 60 77 75 0 125 -16 75 23 0 ?77 71
 86 76 0 0 42 30 76 24 0 75 87 72 0 +-0.00149999954 0.00125000004 0.0 0.0 0.0 1.
0 17 77 0 124 129 125 69 74 75 0 68 +14 78 25 80 1.0e-08 99 51 82 50 79 -0 0 99
 51 48 50 79 26 0 78 100 52 0 +-0.00149999954 -0.00125000004 0.0 0.0 1.0 0.0 1.0
 0.0 0.0 81 1 80 27 6 78 0 0 101 45 81 83 3 81 0.501960813999176 0.5019608139991
76 0.501960813999176 15 82 28 0 83 78 0 17 83 0 82 89 67 84 88 86 0 109 +18 84 2
9 0 94 69 90 85 ?42 29 85 30 0 84 91 70 0.00149999954 -0.00125000004 0.0 16 86 3
1 0 ?83 75 92 87 0 0 42 30 87 32 0 86 93 76 0 +-0.00149999954 -0.00125000004 0.0
 1.0 0.0 0.0 17 88 0 137 59 109 55 83 86 0 67 -17 89 0 82 95 83 90 94 92 0 116 +
18 90 33 0 98 84 105 91 ?42 29 91 34 0 90 106 85 0.00149999954 -0.00125000004 0.
00134999984 16 92 35 0 ?89 86 96 93 0 0 42 30 93 36 0 92 97 87 0 +0.00149999954
 -0.00125000004 0.0 0.0 0.0 1.0 17 94 0 103 104 116 84 89 92 0 83 -17 95 0 82 67
 89 63 98 96 0 62 -16 96 37 0 ?98 92 107 97 0 0 42 30 97 38 0 96 108 93 0 +-0.00
149999954 -0.00125000004 0.00134999984 1.0 0.0 0.0 17 98 0 142 119 73 90 95 96 0
 89 +14 99 39 101 1.0e-08 120 78 103 50 100 -0 0 120 78 48 50 100 40 0 99 121 79
 0 +0.00149999954 -0.00125000004 0.0 -1.0 0.0 0.0 0.0 1.0 0.0 81 1 101 41 6 99 0
 0 122 80 102 83 3 102 0.501960813999176 0.501960813999176 0.501960813999176 15
 103 42 0 104 99 0 17 104 0 103 110 94 105 109 107 0 128 +18 105 43 0 104 90 111
 106 ?42 29 106 44 0 105 112 91 0.00149999954 0.00125000004 0.0 16 107 45 0 ?104
 96 113 108 0 0 42 30 108 46 0 107 114 97 0 +0.00149999954 -0.00125000004 0.0 0.
0 1.0 0.0 17 109 0 137 88 128 84 104 107 0 0 -17 110 0 103 116 104 111 115 113 0
 0 +18 111 47 0 129 105 0 112 ?42 29 112 48 0 111 0 106 0.00149999954 0.00125000
004 0.00134999984 16 113 49 0 ?110 107 117 114 0 0 42 30 114 50 0 113 118 108 0
 +0.00149999954 0.00125000004 0.0 0.0 0.0 1.0 17 115 0 124 125 129 105 110 113 0
 0 -17 116 0 103 94 110 90 119 117 0 0 -16 117 51 0 ?119 113 126 118 0 0 42 30 1
18 52 0 117 127 114 0 +0.00149999954 -0.00125000004 0.00134999984 0.0 1.0 0.0 17
 119 0 142 132 98 111 116 117 0 110 +14 120 53 122 1.0e-08 133 99 124 50 121 -0
 0 133 99 48 50 121 54 0 120 134 100 0 +0.00149999954 0.00125000004 0.0 0.0 -1.0
 0.0 -1.0 0.0 0.0 81 1 122 55 6 120 0 0 135 101 123 83 3 123 0.501960813999176 0
.501960813999176 0.501960813999176 15 124 56 0 125 120 0 17 125 0 124 77 115 60
 128 126 0 59 +16 126 57 0 ?125 117 130 127 0 0 42 30 127 58 0 126 131 118 0 +0.
00149999954 0.00125000004 0.0 -1.0 0.0 0.0 17 128 0 137 109 59 105 125 126 0 115
 -17 129 0 124 115 77 111 132 130 0 119 -16 130 59 0 ?132 126 0 131 0 0 42 30 13
1 60 0 130 0 127 0 +0.00149999954 0.00125000004 0.00134999984 -1.0 0.0 0.0 17 13
2 0 142 73 119 69 129 130 0 0 +14 133 61 135 1.0e-08 138 120 137 50 134 -0 0 138
 120 48 50 134 62 0 133 139 121 0 +4.037175251587e-20 4.037175251587e-20 0.0 0.0
 0.0 1.0 1.0 0.0 0.0 81 1 135 63 6 133 0 0 140 122 136 83 3 136 0.50196081399917
6 0.501960813999176 0.501960813999176 15 137 64 0 128 133 0 14 138 65 140 1.0e-0
8 0 133 142 50 139 +0 0 0 133 48 50 139 66 0 138 0 134 0 +4.037175251587e-20 4.0
37175251587e-20 0.00134999984 0.0 0.0 1.0 1.0 0.0 0.0 81 1 140 67 6 138 0 0 0 13
5 141 83 3 141 0.501960813999176 0.501960813999176 0.501960813999176 15 142 68 0
 73 138 0 1 0 
