**ABCDEFGHIJKLMNOPQRSTUVWXYZabcdefghijklmnopqrstuvwxyz**************************
**PARASOLID !"#$%&'()*+,-./:;<=>?@[\]^_`{|}~0123456789**************************
**PART1;
MC=AMD64;
MC_MODEL=AMD64 Family 25 Model 33 Stepping 2, AuthenticAMD;
MC_ID=unknown;
OS=Windows_NT;
OS_RELEASE=unknown;
FRU=CAD Exchanger 3.23.0 (cadexchanger.com);
APPL=unknown;
SITE=unknown;
USER=unknown;
FORMAT=text;
GUISE=transmit;
KEY=SOD2512X110N_CMP-020-000003-1;
FILE=SOD2512X110N_CMP-020-000003-1.x_t;
DATE=Sat Mar  8 15:45:43 2025;
**PART2;
SCH=SCH_1200000_12103;
USFLD_SIZE=0;
**PART3;
**END_OF_HEADER*****************************************************************
T51 : TRANSMIT FILE created by modeller version 120000017 SCH_1200000_121030 74
 3 1 3 0 2 246 494 12 2 162 0 3 0 0 0 0 1000.0 1.0e-08 0 0 0 1 0 1 1 12 14 20 18
 9 19 17 70 3 0 2 0 0 4 1 20 0 4 4 1 T74 20 4 1 0 5 0 0 0 0 0 0 0 0 0 0 0 0 0 0
 0 0 0 0 0 81 1 5 7 6 13 0 0 42 0 8 80 1 6 0 7 8001 0 0 0 0 3 5 0 0 0 FFFFTFTFFF
FFFF2 79 15 7 SDL/TYSA_COLOUR83 3 8 0.300000011920929 0.300000011920929 0.300000
011920929 19 9 1 0 2 11 0 10 V13 10 2 0 2 0 0 0 0 9 13 19 11 3 0 2 0 9 12 S13 12
 4 0 2 0 13 0 0 11 0 14 13 5 5 1.0e-08 40 0 15 12 14 -0 0 40 0 10 50 14 6 0 13 4
1 0 0 +-8.2875e-04 -6.25e-04 8.454300516189999e-04 0.996534138361309 8.684930360
178695e-19 -0.083184800778046 -8.654829593208671e-19 1.0 7.224542017824232e-20 1
5 15 8 0 16 13 0 17 16 0 15 24 36 17 21 19 0 78 +18 17 9 0 29 0 22 18 ?2 29 18 1
0 0 17 23 0 -8.23703705985e-04 5.98703705985e-04 9.05883454298e-04 16 19 11 0 ?1
6 0 27 20 0 0 2 30 20 12 0 19 28 0 0 +-8.23703705985e-04 -5.825e-04 9.0588345429
8e-04 0.0 1.0 0.0 17 21 0 71 66 78 22 16 19 0 63 -18 22 13 0 36 17 25 23 ?2 29 2
3 14 0 22 26 18 -8.23703705985e-04 -5.98703705985e-04 9.05883454298e-04 17 24 0
 15 30 16 25 29 27 0 92 -18 25 15 0 35 22 31 26 ?2 29 26 16 0 25 32 23 -8.5e-04
 6.25e-04 5.90860103237e-04 16 27 17 0 ?29 19 33 28 0 0 2 30 28 18 0 27 34 20 0
 +-8.246009347679999e-04 5.99600934768e-04 8.951348667709999e-04 0.0828984784809
42 -0.082898478480942 0.993104065307906 17 29 0 107 81 120 17 24 27 0 16 +17 30
 0 15 36 24 31 35 33 0 50 -18 31 19 0 39 25 46 32 ?2 29 32 20 0 31 47 26 -8.5e-0
4 -6.25e-04 5.90860103237e-04 16 33 21 0 ?35 27 37 34 0 0 2 30 34 22 0 33 38 28
 0 +-8.5e-04 -6.25e-04 5.90860103237e-04 0.0 1.0 0.0 17 35 0 86 87 99 25 30 33 0
 24 +17 36 0 15 16 30 22 39 37 0 21 +16 37 23 0 ?36 33 48 38 0 0 2 30 38 24 0 37
 49 34 0 +-8.28896033352e-04 -6.03896033352e-04 8.43680606779e-04 0.082898478480
942 0.082898478480942 0.993104065307906 17 39 0 44 45 63 31 36 37 0 30 -14 40 25
 42 1.0e-08 67 13 44 12 41 -0 0 67 13 10 50 41 26 0 40 68 14 0 +-8.5e-04 -6.0375
00000000001e-04 8.454300516189999e-04 -8.684930360178695e-19 0.996534138361309 -
0.083184800778046 -1.0 -8.654829593208671e-19 7.224542017824232e-20 81 1 42 27 6
 40 0 0 69 5 43 83 3 43 0.300000011920929 0.300000011920929 0.300000011920929 15
 44 28 0 39 40 0 17 45 0 44 51 39 46 50 48 0 56 +18 46 29 0 45 31 52 47 ?2 29 47
 30 0 46 53 32 8.5e-04 -6.25e-04 5.90860103237e-04 16 48 31 0 ?45 37 54 49 0 0 2
 30 49 32 0 48 55 38 0 +-8.5e-04 -6.25e-04 5.90860103237e-04 1.0 0.0 0.0 17 50 0
 128 102 135 31 45 48 0 99 -17 51 0 44 57 45 52 56 54 0 62 +18 52 33 0 51 46 58
 53 ?2 29 53 34 0 52 59 47 8.074999999999999e-04 -5.825e-04 0.0011 16 54 35 0 ?5
1 48 60 55 0 0 2 30 55 36 0 54 61 49 0 +8.230546992780001e-04 -5.980546992780001
e-04 9.136584003679999e-04 -0.082898478480942 0.082898478480942 0.99310406530790
6 17 56 0 152 153 147 46 51 54 0 135 -17 57 0 44 63 51 58 62 60 0 66 -18 58 37 0
 57 52 73 59 ?2 29 59 38 0 58 74 53 -6.12708333333e-04 -5.825e-04 0.0011 16 60 3
9 0 ?62 54 64 61 0 0 2 30 61 40 0 60 65 55 0 +-8.5e-04 -5.825e-04 0.0011 1.0 0.0
 0.0 17 62 0 143 144 77 52 57 60 0 147 +17 63 0 44 39 57 22 66 64 0 0 -16 64 41
 0 ?66 60 75 65 0 0 2 30 65 42 0 64 76 61 0 +-7.93002800755e-04 -5.96345983938e-
04 9.341284039310001e-04 0.734757089571103 0.056426772303618 0.675979318243094 1
7 66 0 71 72 21 58 63 64 0 77 +14 67 43 69 1.0e-08 82 40 71 12 68 -0 0 82 40 10
 50 68 44 0 67 83 41 0 +-7.18206019659e-04 -5.825e-04 0.001002941727149 0.677058
047445919 -1.735436303302792e-18 -0.735929616463912 1.174991114980565e-18 1.0 -1
.277158973087528e-18 81 1 69 45 6 67 0 0 84 42 70 83 3 70 0.300000011920929 0.30
0000011920929 0.300000011920929 15 71 46 0 72 67 0 17 72 0 71 78 66 73 77 75 0 0
 +18 73 47 0 113 58 88 74 ?2 29 74 48 0 73 89 59 -6.12708333333e-04 5.825e-04 0.
0011 16 75 49 0 ?72 64 79 76 0 0 2 30 76 50 0 75 80 65 0 +-6.12708333333e-04 -5.
825e-04 0.0011 0.0 1.0 0.0 17 77 0 143 62 113 58 72 75 0 0 -17 78 0 71 21 72 17
 81 79 0 0 -16 79 51 0 ?81 75 90 80 0 0 2 30 80 52 0 79 91 76 0 +-7.688523676520
001e-04 5.9449131522e-04 9.563468942809999e-04 0.734757089571103 -0.056426772303
618 0.675979318243094 17 81 0 107 108 29 73 78 79 0 72 +14 82 53 84 1.0e-08 103
 67 86 12 83 -0 0 103 67 10 50 83 54 0 82 104 68 0 +-8.5e-04 -6.25e-04 5.0e-05 1
.0 0.0 0.0 0.0 0.0 1.0 81 1 84 55 6 82 0 0 105 69 85 83 3 85 0.300000011920929 0
.300000011920929 0.300000011920929 15 86 56 0 35 82 0 17 87 0 86 93 35 88 92 90
 0 173 -18 88 57 0 98 73 94 89 ?2 29 89 58 0 88 95 74 -8.5e-04 6.25e-04 5.096101
03237e-04 16 90 59 0 ?92 79 96 91 0 0 2 30 91 60 0 90 97 80 0 +-8.5e-04 6.25e-04
 5.0e-05 0.0 0.0 1.0 17 92 0 182 123 189 25 87 90 0 120 +17 93 0 86 99 87 94 98
 96 0 162 -18 94 61 0 134 88 109 95 ?2 29 95 62 0 94 110 89 -8.5e-04 -6.25e-04 5
.09610103237e-04 16 96 63 0 ?98 90 100 97 0 0 2 30 97 64 0 96 101 91 0 +-8.5e-04
 -6.25e-04 5.09610103237e-04 0.0 1.0 0.0 17 98 0 161 168 162 88 93 96 0 87 +17 9
9 0 86 35 93 31 102 100 0 0 +16 100 65 0 ?99 96 111 101 0 0 2 30 101 66 0 100 11
2 97 0 +-8.5e-04 -6.25e-04 5.0e-05 0.0 0.0 1.0 17 102 0 128 129 50 94 99 100 0 9
3 -14 103 67 105 1.0e-08 124 82 107 12 104 +0 0 124 82 10 50 104 68 0 103 125 83
 0 +-8.5e-04 6.037500000000001e-04 8.454300516189999e-04 8.684930360178695e-19 0
.996534138361309 0.083184800778046 -1.0 8.654829593208671e-19 7.224542017824232e
-20 81 1 105 69 6 103 0 0 126 84 106 83 3 106 0.300000011920929 0.30000001192092
9 0.300000011920929 15 107 70 0 81 103 0 17 108 0 107 114 81 109 113 111 0 144 +
18 109 71 0 108 94 115 110 ?2 29 110 72 0 109 116 95 8.074999999999999e-04 5.825
e-04 0.0011 16 111 73 0 ?108 100 117 112 0 0 2 30 112 74 0 111 118 101 0 +-8.5e-
04 5.825e-04 0.0011 1.0 0.0 0.0 17 113 0 143 77 144 73 108 111 0 81 -17 114 0 10
7 120 108 115 119 117 0 188 -18 115 75 0 153 109 130 116 ?2 29 116 76 0 115 131
 110 8.5e-04 6.25e-04 5.90860103237e-04 16 117 77 0 ?119 111 121 118 0 0 2 30 11
8 78 0 117 122 112 0 +8.18759600694e-04 5.93759600694e-04 9.6511266036e-04 -0.08
2898478480942 -0.082898478480942 0.993104065307906 17 119 0 152 147 153 109 114
 117 0 0 +17 120 0 107 29 114 25 123 121 0 0 -16 121 79 0 ?123 117 132 122 0 0 2
 30 122 80 0 121 133 118 0 +-8.5e-04 6.25e-04 5.90860103237e-04 1.0 0.0 0.0 17 1
23 0 182 183 92 115 120 121 0 114 +14 124 81 126 1.0e-08 139 103 128 12 125 -0 0
 139 103 10 50 125 82 0 124 140 104 0 +-8.5e-04 -6.25e-04 5.0e-05 0.0 1.0 0.0 0.
0 0.0 1.0 81 1 126 83 6 124 0 0 141 105 127 83 3 127 0.300000011920929 0.3000000
11920929 0.300000011920929 15 128 84 0 50 124 0 17 129 0 128 135 102 130 134 132
 0 201 +18 130 85 0 138 115 166 131 ?2 29 131 86 0 130 167 116 8.5e-04 -6.25e-04
 5.09610103237e-04 16 132 87 0 ?129 121 136 133 0 0 2 30 133 88 0 132 137 122 0
 +-8.5e-04 -6.25e-04 5.09610103237e-04 1.0 0.0 0.0 17 134 0 206 165 213 94 129 1
32 0 102 -17 135 0 128 50 129 46 138 136 0 156 +16 136 89 0 ?135 132 145 137 0 0
 2 30 137 90 0 136 146 133 0 +8.5e-04 -6.25e-04 5.0e-05 0.0 0.0 1.0 17 138 0 197
 198 156 130 135 136 0 129 -14 139 91 141 1.0e-08 148 124 143 12 140 +0 0 148 12
4 10 50 140 92 0 139 149 125 0 +-8.5e-04 -6.25e-04 0.0011 0.0 0.0 1.0 1.0 0.0 0.
0 81 1 141 93 6 139 0 0 150 126 142 83 3 142 0.300000011920929 0.300000011920929
 0.300000011920929 15 143 94 0 62 139 0 17 144 0 143 113 62 109 147 145 0 119 +1
6 145 95 0 ?144 136 154 146 0 0 2 30 146 96 0 145 155 137 0 +8.074999999999999e-
04 -6.25e-04 0.0011 0.0 1.0 0.0 17 147 0 152 56 119 52 144 145 0 0 -14 148 97 15
0 1.0e-08 157 139 152 12 149 +0 0 157 139 10 50 149 98 0 148 158 140 0 +8.2875e-
04 -6.25e-04 8.454300516189999e-04 0.996534138361309 -8.684930360178695e-19 0.08
3184800778046 8.654829593208671e-19 1.0 7.224542017824232e-20 81 1 150 99 6 148
 0 0 159 141 151 83 3 151 0.300000011920929 0.300000011920929 0.300000011920929
 15 152 100 0 56 148 0 17 153 0 152 119 56 115 156 154 0 123 +16 154 101 0 ?153
 145 163 155 0 0 2 30 155 102 0 154 164 146 0 +8.5e-04 -6.25e-04 5.90860103237e-
04 0.0 1.0 0.0 17 156 0 197 138 188 46 153 154 0 0 -14 157 103 159 1.0e-08 178 1
48 161 12 158 +0 0 178 148 10 50 158 104 0 157 179 149 0 +-8.2875e-04 -6.25e-04
 2.79805051619e-04 -0.995751902614173 -8.68285193503751e-19 -0.092076861589946 -
8.645966334430773e-19 1.0 -7.994897558282712e-20 81 1 159 105 6 157 0 0 180 150
 160 83 3 160 0.300000011920929 0.300000011920929 0.300000011920929 15 161 106 0
 162 157 0 17 162 0 161 98 174 94 165 163 0 0 -16 163 107 0 ?165 154 171 164 0 0
 2 30 164 108 0 163 172 155 0 +-8.28928646066e-04 -6.039286460660001e-04 2.81736
993667e-04 0.091689005431188 0.091689005431188 -0.991557488280977 17 165 0 206 2
07 134 166 162 163 0 174 +18 166 109 0 165 130 169 167 ?2 29 167 110 0 166 170 1
31 -8.074999999999999e-04 -5.825e-04 5.0e-05 17 168 0 161 174 98 169 173 171 0 1
77 +18 169 111 0 168 166 184 170 ?2 29 170 112 0 169 185 167 -8.074999999999999e
-04 5.825e-04 5.0e-05 16 171 113 0 ?168 163 175 172 0 0 2 30 172 114 0 171 176 1
64 0 +-8.23674349993e-04 5.986743499929999e-04 2.24915168712e-04 0.0916890054311
88 -0.091689005431188 -0.991557488280977 17 173 0 236 192 227 88 168 171 0 189 -
17 174 0 161 162 168 166 177 175 0 212 -16 175 115 0 ?177 171 186 176 0 0 2 30 1
76 116 0 175 187 172 0 +-8.074999999999999e-04 -6.25e-04 5.0e-05 0.0 1.0 0.0 17
 177 0 221 222 212 169 174 175 0 227 +14 178 117 180 1.0e-08 193 157 182 12 179
 +0 0 193 157 10 50 179 118 0 178 194 158 0 +-8.5e-04 6.25e-04 5.0e-05 0.0 1.0 0
.0 0.0 0.0 1.0 81 1 180 119 6 178 0 0 195 159 181 83 3 181 0.300000011920929 0.3
00000011920929 0.300000011920929 15 182 120 0 183 178 0 17 183 0 182 189 123 184
 188 186 0 192 -18 184 121 0 183 169 208 185 ?2 29 185 122 0 184 209 170 8.5e-04
 6.25e-04 5.09610103237e-04 16 186 123 0 ?188 175 190 187 0 0 2 30 187 124 0 186
 191 176 0 +8.5e-04 6.25e-04 5.0e-05 0.0 0.0 1.0 17 188 0 197 156 198 115 183 18
6 0 0 +17 189 0 182 92 183 88 192 190 0 0 -16 190 125 0 ?192 186 199 191 0 0 2 3
0 191 126 0 190 200 187 0 +-8.5e-04 6.25e-04 5.09610103237e-04 1.0 0.0 0.0 17 19
2 0 236 237 173 184 189 190 0 198 +14 193 127 195 1.0e-08 202 178 197 12 194 +0
 0 202 178 10 50 194 128 0 193 203 179 0 +8.5e-04 -6.25e-04 5.0e-05 1.0 0.0 0.0
 0.0 0.0 1.0 81 1 195 129 6 193 0 0 204 180 196 83 3 196 0.300000011920929 0.300
000011920929 0.300000011920929 15 197 130 0 138 193 0 17 198 0 197 188 138 184 2
01 199 0 240 +16 199 131 0 ?198 190 210 200 0 0 2 30 200 132 0 199 211 191 0 +8.
5e-04 -6.25e-04 5.09610103237e-04 0.0 1.0 0.0 17 201 0 245 216 240 130 198 199 0
 213 -14 202 133 204 1.0e-08 217 193 206 12 203 +0 0 217 193 10 50 203 134 0 202
 218 194 0 +-8.5e-04 -6.037500000000001e-04 2.79805051619e-04 8.68285193503751e-
19 -0.995751902614173 -0.092076861589946 -1.0 -8.645966334430773e-19 -7.99489755
8282712e-20 81 1 204 135 6 202 0 0 219 195 205 83 3 205 0.300000011920929 0.3000
00011920929 0.300000011920929 15 206 136 0 207 202 0 17 207 0 206 213 165 208 21
2 210 0 228 +18 208 137 0 216 184 223 209 ?2 29 209 138 0 208 224 185 8.07499999
9999999e-04 -5.825e-04 5.0e-05 16 210 139 0 ?207 199 214 211 0 0 2 30 211 140 0
 210 215 200 0 +-8.5e-04 -5.825e-04 5.0e-05 1.0 0.0 0.0 17 212 0 221 177 228 166
 207 210 0 0 -17 213 0 206 134 207 130 216 214 0 0 -16 214 141 0 ?216 210 225 21
5 0 0 2 30 215 142 0 214 226 211 0 +8.217828034070001e-04 -5.967828034069999e-04
 2.04459311728e-04 -0.091689005431188 0.091689005431188 -0.991557488280977 17 21
6 0 245 231 201 208 213 214 0 207 +14 217 143 219 1.0e-08 232 202 221 12 218 -0
 0 232 202 10 50 218 144 0 217 233 203 0 +-8.5e-04 -6.25e-04 5.0e-05 0.0 0.0 1.0
 1.0 0.0 0.0 81 1 219 145 6 217 0 0 234 204 220 83 3 220 0.300000011920929 0.300
000011920929 0.300000011920929 15 221 146 0 222 217 0 17 222 0 221 228 177 223 2
27 225 0 237 +18 223 147 0 231 208 0 224 ?2 29 224 148 0 223 0 209 8.07499999999
9999e-04 5.825e-04 5.0e-05 16 225 149 0 ?222 214 229 226 0 0 2 30 226 150 0 225
 230 215 0 +-8.5e-04 5.825e-04 5.0e-05 1.0 0.0 0.0 17 227 0 236 173 237 169 222
 225 0 0 -17 228 0 221 212 222 208 231 229 0 0 -16 229 151 0 ?231 225 238 230 0
 0 2 30 230 152 0 229 239 226 0 +8.074999999999999e-04 -6.25e-04 5.0e-05 0.0 1.0
 0.0 17 231 0 245 240 216 223 228 229 0 222 +14 232 153 234 1.0e-08 241 217 236
 12 233 -0 0 241 217 10 50 233 154 0 232 242 218 0 +-8.5e-04 6.037500000000001e-
04 2.79805051619e-04 -8.68285193503751e-19 -0.995751902614173 0.092076861589946
 -1.0 8.645966334430773e-19 -7.994897558282712e-20 81 1 234 155 6 232 0 0 243 21
9 235 83 3 235 0.300000011920929 0.300000011920929 0.300000011920929 15 236 156
 0 173 232 0 17 237 0 236 227 192 223 240 238 0 0 +16 238 157 0 ?237 229 0 239 0
 0 2 30 239 158 0 238 0 230 0 +8.16528507334e-04 5.915285073340001e-04 1.4763748
6773e-04 -0.091689005431188 -0.091689005431188 -0.991557488280977 17 240 0 245 2
01 231 184 237 238 0 0 -14 241 159 243 1.0e-08 0 232 245 12 242 -0 0 0 232 10 50
 242 160 0 241 0 233 0 +8.2875e-04 -6.25e-04 2.79805051619e-04 -0.99575190261417
3 8.68285193503751e-19 0.092076861589946 8.645966334430773e-19 1.0 -7.9948975582
82712e-20 81 1 243 161 6 241 0 0 0 234 244 83 3 244 0.300000011920929 0.30000001
1920929 0.300000011920929 15 245 162 0 231 241 0 12 246 166 0 247 0 0 0 0 1000.0
 1.0e-08 0 0 0 1 0 1 1 254 256 262 260 251 261 259 70 247 0 246 0 0 4 1 20 0 248
 248 1 T74 20 248 1 0 249 0 0 0 0 0 0 0 0 0 0 0 0 0 0 0 0 0 0 0 81 1 249 7 6 255
 0 0 284 0 250 83 3 250 0.734000027179718 0.773000001907349 0.796999990940094 19
 251 1 0 246 253 0 252 V13 252 2 0 246 0 0 0 0 251 255 19 253 3 0 246 0 251 254
 S13 254 4 0 246 0 255 0 0 253 0 14 255 5 249 1.0e-08 282 0 257 254 256 +0 0 282
 0 252 50 256 6 0 255 283 0 0 +-0.00125 -1.625e-04 8.125000000000002e-05 0.0 0.0
 1.0 1.0 0.0 0.0 15 257 8 0 258 255 0 17 258 0 257 266 278 259 263 261 0 271 -18
 259 9 0 258 0 264 260 ?246 29 260 10 0 259 265 0 -0.00125 1.625e-04 8.125e-05 1
6 261 11 0 ?263 0 269 262 0 0 246 30 262 12 0 261 270 0 0 +-0.00125 1.625e-04 8.
125e-05 1.0 0.0 0.0 17 263 0 286 299 295 264 258 261 0 304 +18 264 13 0 263 259
 267 265 ?246 29 265 14 0 264 268 260 -0.001240093089211 1.625e-04 8.125e-05 17
 266 0 257 272 258 267 271 269 0 277 -18 267 15 0 371 264 273 268 ?246 29 268 16
 0 267 274 265 -0.00125 -1.625e-04 8.125e-05 16 269 17 0 ?271 261 275 270 0 0 24
6 30 270 18 0 269 276 262 0 +-0.00125 -1.625e-04 8.125e-05 0.0 1.0 0.0 17 271 0
 364 298 371 259 266 269 0 295 +17 272 0 257 278 266 273 277 275 0 355 +18 273 1
9 0 272 267 288 274 ?246 29 274 20 0 273 289 268 -0.001240093089211 -1.625e-04 8
.125e-05 16 275 21 0 ?272 269 279 276 0 0 246 30 276 22 0 275 280 270 0 +-0.0012
5 -1.625e-04 8.125e-05 1.0 0.0 0.0 17 277 0 379 374 355 267 272 275 0 0 -17 278
 0 257 258 272 264 281 279 0 0 +16 279 23 0 ?278 275 290 280 0 0 246 30 280 24 0
 279 291 276 0 +-0.001240093089211 -1.625e-04 8.125e-05 0.0 1.0 0.0 17 281 0 349
 350 304 273 278 279 0 0 -14 282 25 284 1.0e-08 345 255 286 254 283 +0 0 345 255
 252 50 283 26 0 282 346 256 0 +-0.00104815069801 1.625e-04 2.92214560868e-04 1.
899319385253e-30 1.0 -1.128605029723e-30 1.0 -1.899319385253e-30 0.0 81 1 284 27
 6 282 0 0 347 249 285 83 3 285 0.734000027179718 0.773000001907349 0.7969999909
40094 15 286 28 0 287 282 0 17 287 0 286 295 341 288 292 290 0 370 -18 288 29 0
 287 273 293 289 ?246 29 289 30 0 288 294 274 -0.00125 1.625e-04 0.0 16 290 31 0
 ?292 279 296 291 0 0 246 30 291 32 0 290 297 280 0 +-0.00125 1.625e-04 0.0 1.0
 0.0 0.0 17 292 0 430 431 370 293 287 290 0 341 +18 293 33 0 292 288 300 294 ?24
6 29 294 34 0 293 301 289 -0.00119336436307 1.625e-04 0.0 17 295 0 286 263 287 2
59 298 296 0 0 +16 296 35 0 ?295 290 302 297 0 0 246 30 297 36 0 296 303 291 0 +
-0.00125 1.625e-04 0.0 0.0 0.0 1.0 17 298 0 364 365 271 288 295 296 0 0 -17 299
 0 286 305 263 300 304 302 0 310 +18 300 37 0 356 293 306 301 ?246 29 301 38 0 3
00 307 294 -0.001204978937991 1.625e-04 1.01444948381e-04 16 302 39 0 ?299 296 3
08 303 0 0 246 31 303 40 0 302 309 297 0 +-0.001240093089211 1.625e-04 1.21875e-
04 0.0 -1.0 0.0 0.0 0.0 1.0 4.062500000000001e-05 17 304 0 349 281 356 264 299 3
02 0 278 -17 305 0 286 311 299 306 310 308 0 0 +18 306 41 0 316 300 312 307 ?246
 29 307 42 0 306 313 301 -9.31978090588e-04 1.625e-04 5.70665154856e-04 16 308 4
3 0 ?305 302 314 309 0 0 246 30 309 44 0 308 315 303 0 +-0.001240228302439 1.625
e-04 4.086010323717e-05 0.502893578304072 0.0 0.864348337709124 17 310 0 475 359
 476 300 305 308 0 0 -17 311 0 286 317 305 312 316 314 0 322 +18 312 45 0 311 30
6 318 313 ?246 29 313 46 0 312 319 307 -8.968639393690001e-04 1.625e-04 5.908601
03237e-04 16 314 47 0 ?311 308 320 315 0 0 246 31 315 48 0 314 321 309 0 +-8.968
639393690001e-04 1.625e-04 5.502351032369999e-04 0.0 1.0 0.0 0.0 0.0 1.0 4.06250
0000000001e-05 17 316 0 493 479 488 306 311 314 0 476 -17 317 0 286 323 311 318
 322 320 0 0 +18 318 49 0 328 312 324 319 ?246 29 319 50 0 318 325 313 -8.5e-04
 1.625e-04 5.90860103237e-04 16 320 51 0 ?317 314 326 321 0 0 246 30 321 52 0 32
0 327 315 0 +-9.202283024390001e-04 1.625e-04 5.90860103237e-04 1.0 0.0 0.0 17 3
22 0 484 485 470 312 317 320 0 488 -17 323 0 286 329 317 324 328 326 0 334 -18 3
24 53 0 323 318 330 325 ?246 29 325 54 0 324 331 319 -8.5e-04 1.625e-04 5.096101
03237e-04 16 326 55 0 ?328 320 332 327 0 0 246 30 327 56 0 326 333 321 0 +-8.5e-
04 1.625e-04 5.09610103237e-04 0.0 0.0 1.0 17 328 0 466 467 461 318 323 326 0 47
0 +17 329 0 286 335 323 330 334 332 0 0 -18 330 57 0 452 324 336 331 ?246 29 331
 58 0 330 337 325 -8.734995762980001e-04 1.625e-04 5.09610103237e-04 16 332 59 0
 ?334 326 338 333 0 0 246 30 333 60 0 332 339 327 0 +-9.202283024390001e-04 1.62
5e-04 5.09610103237e-04 1.0 0.0 0.0 17 334 0 457 458 452 324 329 332 0 461 +17 3
35 0 286 341 329 336 340 338 0 344 -18 336 61 0 335 330 351 337 ?246 29 337 62 0
 336 352 331 -0.001158250211851 1.625e-04 2.019494838141e-05 16 338 63 0 ?340 33
2 342 339 0 0 246 30 339 64 0 338 343 333 0 +-0.00117 1.625e-04 0.0 0.5028935783
04072 0.0 0.864348337709124 17 340 0 448 449 443 330 335 338 0 329 +17 341 0 286
 287 335 293 344 342 0 434 -16 342 65 0 ?344 338 353 343 0 0 246 31 343 66 0 342
 354 339 0 +-0.00119336436307 1.625e-04 4.062500000000001e-05 0.0 -1.0 0.0 0.0 0
.0 1.0 4.062500000000001e-05 17 344 0 439 440 434 336 341 342 0 443 +14 345 67 3
47 1.0e-08 360 282 349 254 346 -0 0 360 282 252 51 346 68 0 345 361 283 0 +-0.00
1240093089211 -1.625e-04 1.21875e-04 0.0 1.0 0.0 4.062500000000001e-05 0.0 0.0 -
1.0 81 1 347 69 6 345 0 0 362 284 348 83 3 348 0.734000027179718 0.7730000019073
49 0.796999990940094 15 349 70 0 350 345 0 17 350 0 349 356 281 351 355 353 0 0
 +18 351 71 0 422 336 366 352 ?246 29 352 72 0 351 367 337 -0.001204978937991 -1
.625e-04 1.01444948381e-04 16 353 73 0 ?350 342 357 354 0 0 246 31 354 74 0 353
 358 343 0 +-0.001240093089211 -1.625e-04 1.21875e-04 0.0 -1.0 0.0 0.0 0.0 1.0 4
.062500000000001e-05 17 355 0 379 277 422 273 350 353 0 281 -17 356 0 349 304 35
0 300 359 357 0 299 +16 357 75 0 ?356 353 368 358 0 0 246 30 358 76 0 357 369 35
4 0 +-0.001204978937991 -1.625e-04 1.01444948381e-04 0.0 1.0 0.0 17 359 0 475 42
5 310 351 356 357 0 350 -14 360 77 362 1.0e-08 375 345 364 254 361 -0 0 375 345
 252 50 361 78 0 360 376 346 0 +-0.00125 -1.625e-04 0.0 1.0 0.0 0.0 0.0 0.0 1.0
 81 1 362 79 6 360 0 0 377 347 363 83 3 363 0.734000027179718 0.773000001907349
 0.796999990940094 15 364 80 0 271 360 0 17 365 0 364 371 298 366 370 368 0 385
 -18 366 81 0 374 351 381 367 ?246 29 367 82 0 366 382 352 -0.00125 -1.625e-04 0
.0 16 368 83 0 ?370 357 372 369 0 0 246 30 369 84 0 368 373 358 0 +-0.00125 -1.6
25e-04 0.0 0.0 1.0 0.0 17 370 0 430 292 385 288 365 368 0 298 +17 371 0 364 271
 365 267 374 372 0 266 +16 372 85 0 ?371 368 383 373 0 0 246 30 373 86 0 372 384
 369 0 +-0.00125 -1.625e-04 0.0 0.0 0.0 1.0 17 374 0 379 380 277 366 371 372 0 3
65 -14 375 87 377 1.0e-08 426 360 379 254 376 +0 0 426 360 252 50 376 88 0 375 4
27 361 0 +-0.00104815069801 -1.625e-04 2.92214560868e-04 0.0 -1.0 0.0 0.0 0.0 -1
.0 81 1 377 89 6 375 0 0 428 362 378 83 3 378 0.734000027179718 0.77300000190734
9 0.796999990940094 15 379 90 0 380 375 0 17 380 0 379 386 374 381 385 383 0 431
 +18 381 91 0 380 366 387 382 ?246 29 382 92 0 381 388 367 -0.00119336436307 -1.
625e-04 0.0 16 383 93 0 ?380 372 389 384 0 0 246 30 384 94 0 383 390 373 0 +-0.0
0125 -1.625e-04 0.0 1.0 0.0 0.0 17 385 0 430 370 431 366 380 383 0 0 -17 386 0 3
79 392 380 387 391 389 0 440 +18 387 95 0 397 381 393 388 ?246 29 388 96 0 387 3
94 382 -0.001158250211851 -1.625e-04 2.019494838141e-05 16 389 97 0 ?386 383 395
 390 0 0 246 31 390 98 0 389 396 384 0 +-0.00119336436307 -1.625e-04 4.062500000
000001e-05 0.0 -1.0 0.0 0.0 0.0 1.0 4.062500000000001e-05 17 391 0 439 434 440 3
81 386 389 0 0 -17 392 0 379 398 386 393 397 395 0 403 +18 393 99 0 449 387 399
 394 ?246 29 394 100 0 393 400 388 -8.734995762980001e-04 -1.625e-04 5.096101032
37e-04 16 395 101 0 ?392 389 401 396 0 0 246 30 396 102 0 395 402 390 0 +-0.0011
7 -1.625e-04 0.0 0.502893578304072 0.0 0.864348337709124 17 397 0 448 443 449 38
7 392 395 0 386 -17 398 0 379 404 392 399 403 401 0 0 +18 399 103 0 458 393 405
 400 ?246 29 400 104 0 399 406 394 -8.5e-04 -1.625e-04 5.09610103237e-04 16 401
 105 0 ?398 395 407 402 0 0 246 30 402 106 0 401 408 396 0 +-9.202283024390001e-
04 -1.625e-04 5.09610103237e-04 1.0 0.0 0.0 17 403 0 457 452 458 393 398 401 0 0
 -17 404 0 379 410 398 405 409 407 0 415 +18 405 107 0 467 399 411 406 ?246 29 4
06 108 0 405 412 400 -8.5e-04 -1.625e-04 5.90860103237e-04 16 407 109 0 ?404 401
 413 408 0 0 246 30 408 110 0 407 414 402 0 +-8.5e-04 -1.625e-04 5.09610103237e-
04 0.0 0.0 1.0 17 409 0 466 461 467 399 404 407 0 398 -17 410 0 379 416 404 411
 415 413 0 0 -18 411 111 0 421 405 417 412 ?246 29 412 112 0 411 418 406 -8.9686
39393690001e-04 -1.625e-04 5.90860103237e-04 16 413 113 0 ?415 407 419 414 0 0 2
46 30 414 114 0 413 420 408 0 +-9.202283024390001e-04 -1.625e-04 5.90860103237e-
04 1.0 0.0 0.0 17 415 0 484 470 485 405 410 413 0 0 +17 416 0 379 422 410 417 42
1 419 0 425 -18 417 115 0 416 411 0 418 ?246 29 418 116 0 417 0 412 -9.319780905
88e-04 -1.625e-04 5.70665154856e-04 16 419 117 0 ?421 413 423 420 0 0 246 31 420
 118 0 419 424 414 0 +-8.968639393690001e-04 -1.625e-04 5.502351032369999e-04 0.
0 1.0 0.0 0.0 0.0 1.0 4.062500000000001e-05 17 421 0 493 488 479 411 416 419 0 4
85 +17 422 0 379 355 416 351 425 423 0 359 -16 423 119 0 ?425 419 432 424 0 0 24
6 30 424 120 0 423 433 420 0 +-0.001240228302439 -1.625e-04 4.086010323717e-05 0
.502893578304072 0.0 0.864348337709124 17 425 0 475 476 359 417 422 423 0 479 +1
4 426 121 428 1.0e-08 435 375 430 254 427 -0 0 435 375 252 50 427 122 0 426 436
 376 0 +-0.00125 -1.625e-04 0.0 0.0 0.0 1.0 1.0 0.0 0.0 81 1 428 123 6 426 0 0 4
37 377 429 83 3 429 0.734000027179718 0.773000001907349 0.796999990940094 15 430
 124 0 431 426 0 17 431 0 430 385 292 381 434 432 0 391 -16 432 125 0 ?434 423 4
41 433 0 0 246 30 433 126 0 432 442 424 0 +-0.00119336436307 -1.625e-04 0.0 0.0
 1.0 0.0 17 434 0 439 344 391 293 431 432 0 0 +14 435 127 437 1.0e-08 444 426 43
9 254 436 +0 0 444 426 252 51 436 128 0 435 445 427 0 +-0.00119336436307 -1.625e
-04 4.062500000000001e-05 0.0 1.0 0.0 4.062500000000001e-05 0.0 0.0 -1.0 81 1 43
7 129 6 435 0 0 446 428 438 83 3 438 0.734000027179718 0.773000001907349 0.79699
9990940094 15 439 130 0 434 435 0 17 440 0 439 391 344 387 443 441 0 0 -16 441 1
31 0 ?443 432 450 442 0 0 246 30 442 132 0 441 451 433 0 +-0.001158250211851 -1.
625e-04 2.019494838141e-05 0.0 1.0 0.0 17 443 0 448 340 397 336 440 441 0 0 +14
 444 133 446 1.0e-08 453 435 448 254 445 +0 0 453 435 252 50 445 134 0 444 454 4
36 0 +-0.00117 -1.625e-04 0.0 0.864348337709124 0.0 -0.502893578304072 0.5028935
78304072 0.0 0.864348337709124 81 1 446 135 6 444 0 0 455 437 447 83 3 447 0.734
000027179718 0.773000001907349 0.796999990940094 15 448 136 0 397 444 0 17 449 0
 448 397 340 393 452 450 0 392 -16 450 137 0 ?452 441 459 451 0 0 246 30 451 138
 0 450 460 442 0 +-8.734995762980001e-04 -1.625e-04 5.09610103237e-04 0.0 1.0 0.
0 17 452 0 457 334 403 330 449 450 0 340 +14 453 139 455 1.0e-08 462 444 457 254
 454 -0 0 462 444 252 50 454 140 0 453 463 445 0 +-9.202283024390001e-04 -1.625e
-04 5.09610103237e-04 0.0 0.0 1.0 1.0 0.0 0.0 81 1 455 141 6 453 0 0 464 446 456
 83 3 456 0.734000027179718 0.773000001907349 0.796999990940094 15 457 142 0 458
 453 0 17 458 0 457 403 334 399 461 459 0 409 -16 459 143 0 ?461 450 468 460 0 0
 246 30 460 144 0 459 469 451 0 +-8.5e-04 -1.625e-04 5.09610103237e-04 0.0 1.0 0
.0 17 461 0 466 328 409 324 458 459 0 0 +14 462 145 464 1.0e-08 471 453 466 254
 463 +0 0 471 453 252 50 463 146 0 462 472 454 0 +-8.5e-04 -1.625e-04 5.09610103
237e-04 1.0 0.0 0.0 0.0 0.0 1.0 81 1 464 147 6 462 0 0 473 455 465 83 3 465 0.73
4000027179718 0.773000001907349 0.796999990940094 15 466 148 0 409 462 0 17 467
 0 466 409 328 405 470 468 0 404 -16 468 149 0 ?470 459 477 469 0 0 246 30 469 1
50 0 468 478 460 0 +-8.5e-04 -1.625e-04 5.90860103237e-04 0.0 1.0 0.0 17 470 0 4
84 322 415 318 467 468 0 317 +14 471 151 473 1.0e-08 480 462 475 254 472 -0 0 48
0 462 252 50 472 152 0 471 481 463 0 +-0.001240228302439 -1.625e-04 4.0860103237
17001e-05 0.864348337709124 0.0 -0.502893578304072 0.502893578304072 0.0 0.86434
8337709124 81 1 473 153 6 471 0 0 482 464 474 83 3 474 0.734000027179718 0.77300
0001907349 0.796999990940094 15 475 154 0 476 471 0 17 476 0 475 310 425 306 479
 477 0 305 +16 477 155 0 ?476 468 486 478 0 0 246 30 478 156 0 477 487 469 0 +-9
.31978090588e-04 -1.625e-04 5.70665154856e-04 0.0 1.0 0.0 17 479 0 493 421 316 4
17 476 477 0 0 -14 480 157 482 1.0e-08 489 471 484 254 481 +0 0 489 471 252 50 4
81 158 0 480 490 472 0 +-9.202283024390001e-04 -1.625e-04 5.90860103237e-04 0.0
 0.0 1.0 1.0 0.0 0.0 81 1 482 159 6 480 0 0 491 473 483 83 3 483 0.7340000271797
18 0.773000001907349 0.796999990940094 15 484 160 0 415 480 0 17 485 0 484 415 3
22 411 488 486 0 410 -16 486 161 0 ?488 477 0 487 0 0 246 30 487 162 0 486 0 478
 0 +-8.968639393690001e-04 -1.625e-04 5.90860103237e-04 0.0 1.0 0.0 17 488 0 493
 316 421 312 485 486 0 0 +14 489 163 491 1.0e-08 0 480 493 254 490 +0 0 0 480 25
2 51 490 164 0 489 0 481 0 +-8.968639393690001e-04 -1.625e-04 5.502351032369999e
-04 0.0 1.0 0.0 4.062500000000001e-05 -0.864348337709124 0.0 0.502893578304072 8
1 1 491 165 6 489 0 0 0 482 492 83 3 492 0.734000027179718 0.773000001907349 0.7
96999990940094 15 493 166 0 421 489 0 12 494 166 0 495 0 0 0 0 1000.0 1.0e-08 0
 0 0 1 0 1 1 502 504 510 508 499 509 507 70 495 0 494 0 0 4 1 20 0 496 496 1 T74
 20 496 1 0 497 0 0 0 0 0 0 0 0 0 0 0 0 0 0 0 0 0 0 0 81 1 497 7 6 503 0 0 532 0
 498 83 3 498 0.734000027179718 0.773000001907349 0.796999990940094 19 499 1 0 4
94 501 0 500 V13 500 2 0 494 0 0 0 0 499 503 19 501 3 0 494 0 499 502 S13 502 4
 0 494 0 503 0 0 501 0 14 503 5 497 1.0e-08 530 0 505 502 504 +0 0 530 0 500 50
 504 6 0 503 531 0 0 +0.00117 -1.625e-04 8.125000000000002e-05 0.0 0.0 1.0 1.0 0
.0 0.0 15 505 8 0 506 503 0 17 506 0 505 514 526 507 511 509 0 0 -18 507 9 0 585
 0 512 508 ?494 29 508 10 0 507 513 0 0.001240093089211 1.625e-04 8.125e-05 16 5
09 11 0 ?511 0 517 510 0 0 494 30 510 12 0 509 518 0 0 +0.00117 1.625e-04 8.125e
-05 1.0 0.0 0.0 17 511 0 534 589 585 512 506 509 0 592 +18 512 13 0 511 507 515
 513 ?494 29 513 14 0 512 516 508 0.00125 1.625e-04 8.125e-05 17 514 0 505 520 5
06 515 519 517 0 604 -18 515 15 0 525 512 521 516 ?494 29 516 16 0 515 522 513 0
.001240093089211 -1.625e-04 8.125e-05 16 517 17 0 ?519 509 523 518 0 0 494 30 51
8 18 0 517 524 510 0 +0.001240093089211 -1.625e-04 8.125e-05 0.0 1.0 0.0 17 519
 0 597 588 604 507 514 517 0 506 +17 520 0 505 526 514 521 525 523 0 529 +18 521
 19 0 618 515 536 522 ?494 29 522 20 0 521 537 516 0.00125 -1.625e-04 8.125e-05
 16 523 21 0 ?520 517 527 524 0 0 494 30 524 22 0 523 528 518 0 +0.00117 -1.625e
-04 8.125e-05 1.0 0.0 0.0 17 525 0 627 607 618 515 520 523 0 514 -17 526 0 505 5
06 520 512 529 527 0 0 +16 527 23 0 ?526 523 538 528 0 0 494 30 528 24 0 527 539
 524 0 +0.00125 -1.625e-04 8.125e-05 0.0 1.0 0.0 17 529 0 612 613 592 521 526 52
7 0 0 -14 530 25 532 1.0e-08 593 503 534 502 531 +0 0 593 503 500 50 531 26 0 53
0 594 504 0 +0.00104815069801 1.625e-04 2.92214560868e-04 -4.801083616026e-30 1.
0 -2.826582258137e-30 1.0 4.801083616026e-30 0.0 81 1 532 27 6 530 0 0 595 497 5
33 83 3 533 0.734000027179718 0.773000001907349 0.796999990940094 15 534 28 0 53
5 530 0 17 535 0 534 543 589 536 540 538 0 548 -18 536 29 0 679 521 541 537 ?494
 29 537 30 0 536 542 522 0.00119336436307 1.625e-04 0.0 16 538 31 0 ?540 527 546
 539 0 0 494 30 539 32 0 538 547 528 0 +0.00117 1.625e-04 0.0 1.0 0.0 0.0 17 540
 0 678 622 679 541 535 538 0 619 +18 541 33 0 540 536 544 542 ?494 29 542 34 0 5
41 545 537 0.00125 1.625e-04 0.0 17 543 0 534 549 535 544 548 546 0 688 +18 544
 35 0 543 541 550 545 ?494 29 545 36 0 544 551 542 0.001158250211851 1.625e-04 2
.019494838141e-05 16 546 37 0 ?543 538 552 547 0 0 494 31 547 38 0 546 553 539 0
 +0.00119336436307 1.625e-04 4.062500000000001e-05 0.0 1.0 0.0 0.0 0.0 1.0 4.062
500000000001e-05 17 548 0 687 682 688 536 543 546 0 0 -17 549 0 534 555 543 550
 554 552 0 560 +18 550 39 0 697 544 556 551 ?494 29 551 40 0 550 557 545 8.73499
5762980001e-04 1.625e-04 5.09610103237e-04 16 552 41 0 ?549 546 558 553 0 0 494
 30 553 42 0 552 559 547 0 +0.00117 1.625e-04 0.0 -0.502893578304072 0.0 0.86434
8337709124 17 554 0 696 691 697 544 549 552 0 0 -17 555 0 534 561 549 556 560 55
8 0 0 -18 556 43 0 566 550 562 557 ?494 29 557 44 0 556 563 551 8.5e-04 1.625e-0
4 5.09610103237e-04 16 558 45 0 ?560 552 564 559 0 0 494 30 559 46 0 558 565 553
 0 +8.5e-04 1.625e-04 5.09610103237e-04 1.0 0.0 0.0 17 560 0 705 700 706 550 555
 558 0 0 +17 561 0 534 567 555 562 566 564 0 572 +18 562 47 0 715 556 568 563 ?4
94 29 563 48 0 562 569 557 8.5e-04 1.625e-04 5.90860103237e-04 16 564 49 0 ?561
 558 570 565 0 0 494 30 565 50 0 564 571 559 0 +8.5e-04 1.625e-04 5.09610103237e
-04 0.0 0.0 1.0 17 566 0 714 709 715 556 561 564 0 706 -17 567 0 534 573 561 568
 572 570 0 0 +18 568 51 0 733 562 574 569 ?494 29 569 52 0 568 575 563 8.9686393
93690001e-04 1.625e-04 5.90860103237e-04 16 570 53 0 ?567 564 576 571 0 0 494 30
 571 54 0 570 577 565 0 +8.5e-04 1.625e-04 5.90860103237e-04 1.0 0.0 0.0 17 572
 0 732 718 733 562 567 570 0 0 -17 573 0 534 579 567 574 578 576 0 584 -18 574 5
5 0 727 568 580 575 ?494 29 575 56 0 574 581 569 9.31978090588e-04 1.625e-04 5.7
0665154856e-04 16 576 57 0 ?578 570 582 577 0 0 494 31 577 58 0 576 583 571 0 +8
.968639393690001e-04 1.625e-04 5.502351032369999e-04 0.0 -1.0 0.0 0.0 0.0 1.0 4.
062500000000001e-05 17 578 0 741 736 727 568 573 576 0 567 +17 579 0 534 585 573
 580 584 582 0 0 -18 580 59 0 588 574 599 581 ?494 29 581 60 0 580 600 575 0.001
204978937991 1.625e-04 1.01444948381e-04 16 582 61 0 ?584 576 586 583 0 0 494 30
 583 62 0 582 587 577 0 +0.001240228302439 1.625e-04 4.086010323717e-05 -0.50289
3578304072 0.0 0.864348337709124 17 584 0 723 724 603 574 579 582 0 0 +17 585 0
 534 511 579 507 588 586 0 519 -16 586 63 0 ?588 582 590 587 0 0 494 31 587 64 0
 586 591 583 0 +0.001240093089211 1.625e-04 1.21875e-04 0.0 1.0 0.0 0.0 0.0 1.0
 4.062500000000001e-05 17 588 0 597 598 519 580 585 586 0 603 +17 589 0 534 535
 511 541 592 590 0 0 -16 590 65 0 ?592 586 601 591 0 0 494 30 591 66 0 590 602 5
87 0 +0.00125 1.625e-04 0.0 0.0 0.0 1.0 17 592 0 612 529 619 512 589 590 0 526 +
14 593 67 595 1.0e-08 608 530 597 502 594 -0 0 608 530 500 51 594 68 0 593 609 5
31 0 +0.001240093089211 -1.625e-04 1.21875e-04 0.0 1.0 0.0 4.062500000000001e-05
 0.0 0.0 -1.0 81 1 595 69 6 593 0 0 610 532 596 83 3 596 0.734000027179718 0.773
000001907349 0.796999990940094 15 597 70 0 519 593 0 17 598 0 597 604 588 599 60
3 601 0 639 -18 599 71 0 607 580 614 600 ?494 29 600 72 0 599 615 581 0.00120497
8937991 -1.625e-04 1.01444948381e-04 16 601 73 0 ?603 590 605 602 0 0 494 30 602
 74 0 601 606 591 0 +0.001204978937991 -1.625e-04 1.01444948381e-04 0.0 1.0 0.0
 17 603 0 723 584 639 580 598 601 0 579 +17 604 0 597 519 598 515 607 605 0 0 -1
6 605 75 0 ?607 601 616 606 0 0 494 31 606 76 0 605 617 602 0 +0.001240093089211
 -1.625e-04 1.21875e-04 0.0 1.0 0.0 0.0 0.0 1.0 4.062500000000001e-05 17 607 0 6
27 634 525 599 604 605 0 598 +14 608 77 610 1.0e-08 623 593 612 502 609 +0 0 623
 593 500 50 609 78 0 608 624 594 0 +0.00125 -1.625e-04 0.0 1.0 0.0 0.0 0.0 0.0 1
.0 81 1 610 79 6 608 0 0 625 595 611 83 3 611 0.734000027179718 0.77300000190734
9 0.796999990940094 15 612 80 0 613 608 0 17 613 0 612 619 529 614 618 616 0 622
 -18 614 81 0 613 599 632 615 ?494 29 615 82 0 614 633 600 0.00125 -1.625e-04 0.
0 16 616 83 0 ?618 605 620 617 0 0 494 30 617 84 0 616 621 606 0 +0.00125 -1.625
e-04 0.0 0.0 0.0 1.0 17 618 0 627 525 628 521 613 616 0 520 +17 619 0 612 592 61
3 541 622 620 0 589 +16 620 85 0 ?619 616 629 621 0 0 494 30 621 86 0 620 630 61
7 0 +0.00125 -1.625e-04 0.0 0.0 1.0 0.0 17 622 0 678 631 540 614 619 620 0 628 -
14 623 87 625 1.0e-08 674 608 627 502 624 +0 0 674 608 500 50 624 88 0 623 675 6
09 0 +0.00104815069801 -1.625e-04 2.92214560868e-04 -7.980108512007001e-30 -1.0
 -4.685612487671e-30 -1.0 7.980108512007001e-30 0.0 81 1 625 89 6 623 0 0 676 61
0 626 83 3 626 0.734000027179718 0.773000001907349 0.796999990940094 15 627 90 0
 628 623 0 17 628 0 627 618 670 614 631 629 0 0 +16 629 91 0 ?628 620 637 630 0
 0 494 30 630 92 0 629 638 621 0 +0.00117 -1.625e-04 0.0 1.0 0.0 0.0 17 631 0 67
8 679 622 632 628 629 0 0 -18 632 93 0 682 614 635 633 ?494 29 633 94 0 632 636
 615 0.00119336436307 -1.625e-04 0.0 17 634 0 627 640 607 635 639 637 0 0 +18 63
5 95 0 724 632 641 636 ?494 29 636 96 0 635 642 633 9.31978090588e-04 -1.625e-04
 5.70665154856e-04 16 637 97 0 ?634 629 643 638 0 0 494 30 638 98 0 637 644 630
 0 +0.001240228302439 -1.625e-04 4.086010323717e-05 -0.502893578304072 0.0 0.864
348337709124 17 639 0 723 603 724 599 634 637 0 0 -17 640 0 627 646 634 641 645
 643 0 651 +18 641 99 0 736 635 647 642 ?494 29 642 100 0 641 648 636 8.96863939
3690001e-04 -1.625e-04 5.90860103237e-04 16 643 101 0 ?640 637 649 644 0 0 494 3
1 644 102 0 643 650 638 0 +8.968639393690001e-04 -1.625e-04 5.502351032369999e-0
4 0.0 -1.0 0.0 0.0 0.0 1.0 4.062500000000001e-05 17 645 0 741 727 736 635 640 64
3 0 634 -17 646 0 627 652 640 647 651 649 0 0 -18 647 103 0 718 641 653 648 ?494
 29 648 104 0 647 654 642 8.5e-04 -1.625e-04 5.90860103237e-04 16 649 105 0 ?651
 643 655 650 0 0 494 30 650 106 0 649 656 644 0 +8.5e-04 -1.625e-04 5.9086010323
7e-04 1.0 0.0 0.0 17 651 0 732 733 718 641 646 649 0 0 +17 652 0 627 658 646 653
 657 655 0 663 -18 653 107 0 709 647 659 654 ?494 29 654 108 0 653 660 648 8.5e-
04 -1.625e-04 5.09610103237e-04 16 655 109 0 ?657 649 661 656 0 0 494 30 656 110
 0 655 662 650 0 +8.5e-04 -1.625e-04 5.09610103237e-04 0.0 0.0 1.0 17 657 0 714
 715 709 647 652 655 0 646 +17 658 0 627 664 652 659 663 661 0 0 +18 659 111 0 6
69 653 665 660 ?494 29 660 112 0 659 666 654 8.734995762980001e-04 -1.625e-04 5.
09610103237e-04 16 661 113 0 ?658 655 667 662 0 0 494 30 662 114 0 661 668 656 0
 +8.5e-04 -1.625e-04 5.09610103237e-04 1.0 0.0 0.0 17 663 0 705 706 700 653 658
 661 0 0 -17 664 0 627 670 658 665 669 667 0 673 -18 665 115 0 664 659 0 666 ?49
4 29 666 116 0 665 0 660 0.001158250211851 -1.625e-04 2.019494838141e-05 16 667
 117 0 ?669 661 671 668 0 0 494 30 668 118 0 667 672 662 0 +0.00117 -1.625e-04 0
.0 -0.502893578304072 0.0 0.864348337709124 17 669 0 696 697 691 659 664 667 0 7
00 +17 670 0 627 628 664 632 673 671 0 631 -16 671 119 0 ?673 667 680 672 0 0 49
4 31 672 120 0 671 681 668 0 +0.00119336436307 -1.625e-04 4.062500000000001e-05
 0.0 1.0 0.0 0.0 0.0 1.0 4.062500000000001e-05 17 673 0 687 688 682 665 670 671
 0 691 +14 674 121 676 1.0e-08 683 623 678 502 675 -0 0 683 623 500 50 675 122 0
 674 684 624 0 +0.00117 -1.625e-04 0.0 0.0 0.0 1.0 1.0 0.0 0.0 81 1 676 123 6 67
4 0 0 685 625 677 83 3 677 0.734000027179718 0.773000001907349 0.796999990940094
 15 678 124 0 679 674 0 17 679 0 678 540 631 536 682 680 0 535 +16 680 125 0 ?67
9 671 689 681 0 0 494 30 681 126 0 680 690 672 0 +0.00119336436307 -1.625e-04 0.
0 0.0 1.0 0.0 17 682 0 687 673 548 632 679 680 0 670 -14 683 127 685 1.0e-08 692
 674 687 502 684 +0 0 692 674 500 51 684 128 0 683 693 675 0 +0.00119336436307 -
1.625e-04 4.062500000000001e-05 0.0 1.0 0.0 4.062500000000001e-05 0.0 0.0 -1.0 8
1 1 685 129 6 683 0 0 694 676 686 83 3 686 0.734000027179718 0.773000001907349 0
.796999990940094 15 687 130 0 673 683 0 17 688 0 687 548 673 544 691 689 0 554 +
16 689 131 0 ?688 680 698 690 0 0 494 30 690 132 0 689 699 681 0 +0.001158250211
851 -1.625e-04 2.019494838141e-05 0.0 1.0 0.0 17 691 0 696 669 554 665 688 689 0
 0 -14 692 133 694 1.0e-08 701 683 696 502 693 -0 0 701 683 500 50 693 134 0 692
 702 684 0 +0.00117 -1.625e-04 0.0 0.864348337709124 0.0 0.502893578304072 -0.50
2893578304072 0.0 0.864348337709124 81 1 694 135 6 692 0 0 703 685 695 83 3 695
 0.734000027179718 0.773000001907349 0.796999990940094 15 696 136 0 697 692 0 17
 697 0 696 554 669 550 700 698 0 549 +16 698 137 0 ?697 689 707 699 0 0 494 30 6
99 138 0 698 708 690 0 +8.734995762980001e-04 -1.625e-04 5.09610103237e-04 0.0 1
.0 0.0 17 700 0 705 663 560 659 697 698 0 658 -14 701 139 703 1.0e-08 710 692 70
5 502 702 -0 0 710 692 500 50 702 140 0 701 711 693 0 +8.5e-04 -1.625e-04 5.0961
0103237e-04 0.0 0.0 1.0 1.0 0.0 0.0 81 1 703 141 6 701 0 0 712 694 704 83 3 704
 0.734000027179718 0.773000001907349 0.796999990940094 15 705 142 0 700 701 0 17
 706 0 705 560 663 556 709 707 0 555 +16 707 143 0 ?706 698 716 708 0 0 494 30 7
08 144 0 707 717 699 0 +8.5e-04 -1.625e-04 5.09610103237e-04 0.0 1.0 0.0 17 709
 0 714 657 566 653 706 707 0 652 -14 710 145 712 1.0e-08 719 701 714 502 711 -0
 0 719 701 500 50 711 146 0 710 720 702 0 +8.5e-04 -1.625e-04 5.09610103237e-04
 1.0 0.0 0.0 0.0 0.0 1.0 81 1 712 147 6 710 0 0 721 703 713 83 3 713 0.734000027
179718 0.773000001907349 0.796999990940094 15 714 148 0 657 710 0 17 715 0 714 5
66 657 562 718 716 0 561 +16 716 149 0 ?715 707 725 717 0 0 494 30 717 150 0 716
 726 708 0 +8.5e-04 -1.625e-04 5.90860103237e-04 0.0 1.0 0.0 17 718 0 732 651 57
2 647 715 716 0 657 -14 719 151 721 1.0e-08 728 710 723 502 720 +0 0 728 710 500
 50 720 152 0 719 729 711 0 +0.001240228302439 -1.625e-04 4.086010323717001e-05
 0.864348337709124 0.0 0.502893578304072 -0.502893578304072 0.0 0.86434833770912
4 81 1 721 153 6 719 0 0 730 712 722 83 3 722 0.734000027179718 0.77300000190734
9 0.796999990940094 15 723 154 0 639 719 0 17 724 0 723 639 584 635 727 725 0 64
5 -16 725 155 0 ?727 716 734 726 0 0 494 30 726 156 0 725 735 717 0 +9.319780905
88e-04 -1.625e-04 5.70665154856e-04 0.0 1.0 0.0 17 727 0 741 578 645 574 724 725
 0 573 +14 728 157 730 1.0e-08 737 719 732 502 729 +0 0 737 719 500 50 729 158 0
 728 738 720 0 +8.5e-04 -1.625e-04 5.90860103237e-04 0.0 0.0 1.0 1.0 0.0 0.0 81
 1 730 159 6 728 0 0 739 721 731 83 3 731 0.734000027179718 0.773000001907349 0.
796999990940094 15 732 160 0 572 728 0 17 733 0 732 572 651 568 736 734 0 578 +1
6 734 161 0 ?733 725 0 735 0 0 494 30 735 162 0 734 0 726 0 +8.968639393690001e-
04 -1.625e-04 5.90860103237e-04 0.0 1.0 0.0 17 736 0 741 645 578 641 733 734 0 6
40 -14 737 163 739 1.0e-08 0 728 741 502 738 +0 0 0 728 500 51 738 164 0 737 0 7
29 0 +8.968639393690001e-04 -1.625e-04 5.502351032369999e-04 0.0 1.0 0.0 4.06250
0000000001e-05 0.864348337709124 0.0 0.502893578304072 81 1 739 165 6 737 0 0 0
 730 740 83 3 740 0.734000027179718 0.773000001907349 0.796999990940094 15 741 1
66 0 727 737 0 1 0 
