G04*
G04 #@! TF.GenerationSoftware,Altium Limited,Altium Designer,25.4.2 (15)*
G04*
G04 Layer_Color=16711935*
%FSLAX44Y44*%
%MOMM*%
G71*
G04*
G04 #@! TF.SameCoordinates,99B82A19-3900-4842-934D-00B4288F025C*
G04*
G04*
G04 #@! TF.FilePolarity,Positive*
G04*
G01*
G75*
%ADD12C,0.1000*%
%ADD84C,0.2540*%
D12*
X488994Y89478D02*
X491534Y89442D01*
X293361Y89463D02*
X295901Y89427D01*
X97411Y89420D02*
X99951Y89384D01*
X98503Y297097D02*
X101042Y297061D01*
X293686Y297055D02*
X296225Y297019D01*
X492998Y296695D02*
X495537Y296659D01*
X380850Y386150D02*
X545850D01*
Y450050D01*
X380850D02*
X545850D01*
X380850Y386150D02*
Y450050D01*
X185850Y386150D02*
X350850D01*
Y450050D01*
X185850D02*
X350850D01*
X185850Y386150D02*
Y450050D01*
X-9150Y386150D02*
X155850D01*
Y450050D01*
X-9150D02*
X155850D01*
X-9150Y386150D02*
Y450050D01*
X380850Y178550D02*
X545850D01*
Y242450D01*
X380850D02*
X545850D01*
X380850Y178550D02*
Y242450D01*
X185850Y178550D02*
X350850D01*
Y242450D01*
X185850D02*
X350850D01*
X185850Y178550D02*
Y242450D01*
X-9150Y178547D02*
X155850D01*
Y242446D01*
X-9150D02*
X155850D01*
X-9150Y178547D02*
Y242446D01*
D84*
X547470Y299990D02*
Y461280D01*
X391260Y299990D02*
Y461280D01*
X547470D01*
X391260Y299990D02*
X547470D01*
X352470D02*
Y461280D01*
X196260Y299990D02*
Y461280D01*
X352470D01*
X196260Y299990D02*
X352470D01*
X157470D02*
Y461280D01*
X1260Y299990D02*
Y461280D01*
X157470D01*
X1260Y299990D02*
X157470D01*
X547470Y92390D02*
Y253680D01*
X391260Y92390D02*
Y253680D01*
X547470D01*
X391260Y92390D02*
X547470D01*
X352470Y92390D02*
Y253680D01*
X196260Y92390D02*
Y253680D01*
X352470D01*
X196260Y92390D02*
X352470D01*
X157470Y92387D02*
Y253676D01*
X1260Y92387D02*
Y253676D01*
X157470D01*
X1260Y92387D02*
X157470D01*
M02*
