M48
;Layer_Color=9474304
;FILE_FORMAT=4:4
METRIC,LZ
;TYPE=PLATED
T01F00S00C0.2000
T02F00S00C0.3000
T04F00S00C0.6000
T05F00S00C0.9000
T06F00S00C1.0000
T08F00S00C3.0000
;TYPE=NON_PLATED
T09F00S00C1.7000
T10F00S00C3.4000
T11F00S00C3.9878
%
T01
X00674899Y00468116
T02
X00112129Y00073952
X00216748Y00105229
X00191265Y00197763
X00150105Y00223216
X-00003553Y00198338
X00387146Y00197198
X00400858Y00262745
X00403805Y00104492
X00500043Y0007286
X00539116Y00223308
X00585247Y001956
X003061Y00071484
X00650604Y00399213
X0069697Y00404569
X00687278Y00449249
X00702158Y00471855
X00702426Y00484015
X00714764Y00483836
X00715211Y00471766
X00712684Y0051199
X00737156Y00513755
X00762636Y00525703
X00776379Y00513387
X00801271Y00520906
X00819857Y00509834
X00842832Y00494107
X00826721Y00477127
X00817078Y00454867
X00827939Y00445981
X00827946Y00424975
X00828441Y00405638
X0086133Y00424594
X00875891Y00444797
X00874762Y0046752
X00874771Y00480788
X00875502Y00494936
X00867675Y00521946
X00862724Y00551632
X00847556Y00552281
X00875948Y00571469
X00875333Y00595051
X0087772Y00609376
X0087867Y00622902
X00875387Y00644987
X00863233Y00662473
X0082643Y00652916
X0083012Y0062449
X00808824Y00610592
X00808289Y0056624
X00740229Y00556163
X00747485Y0054741
X00700587Y00530675
X00688795Y00560241
X00680042Y0050271
X0067584Y00488031
X00795994Y00435085
X00862093Y00460003
X00855865Y00610105
X00645345Y00548368
X00573323Y00505711
X00553388Y00481888
X00540448Y00434499
X00461834Y00416613
X00344232Y004308
X00371065Y00471949
X00392743Y00540537
X00392213Y00603875
X00378349Y00598061
X0036447Y00591924
X00328691Y00598467
X0032888Y00626328
X00323731Y00640489
X00346043Y00663697
X00386717Y00629499
X00449155Y00582644
X00568838Y00634208
X00274022Y00589053
X00303089Y00284153
X00317296Y00275595
X00521563Y00312704
X0024678Y00280971
X00214647Y00271897
X00137707Y00294795
X00102531Y00333684
X00025368Y00271678
X00030427Y0043796
X00020897Y00503136
X00017717Y00526623
X0001825Y00549515
X00019815Y00564043
X00019591Y00577343
X00047945Y00618502
X00114064Y00621067
X00140401Y00621255
X00152164Y00621493
X00165233Y00617739
X00166827Y00580506
X00178124Y00587727
X00196426Y00565549
X00227337Y00559737
X00252976Y00523377
X00196216Y00493984
X00143393Y00501022
X00126798Y00493302
X00110048Y00479363
X00117816Y00516753
X00119002Y00532626
X00121115Y00575032
X00161091Y00543314
X00175331Y00534248
X00150195Y0043061
X00048985Y00529902
X00088465Y00649148
X00102479Y00639387
X00245722Y00639249
X00238437Y00648638
X00201454Y00667004
X00202766Y0074814
X00215664Y00749885
X00190143Y00745483
X00179141Y00747432
X00145787Y00728961
X00135135Y00739348
X0008008Y00748094
X00063295Y00758935
X00078229Y00796034
X00115213Y00813256
X00169028Y00814162
X00181916Y00809905
X00181371Y00823458
X00180825Y00840282
X00208476Y00839892
X00195313Y00856362
X00141732Y00846953
X00238066Y00788915
X00250473Y00778769
X00114128Y0068153
Y00668962
X00101518
Y0068153
X00363733Y00707537
X00371133Y00717706
X00387098Y00748463
X00599503Y00733851
X00656509Y0071642
X0069977Y00775933
X00777206Y00758579
T04
X0068698Y0081628
X0069968
X0071238
X0072508
X0073778
X0075048
X0076318
X0077588
T05
X00545Y0082
X0057
X00595
X0062
T06
X000419Y00121596
X001181Y00121596
X002369Y00121601
X003131Y001216
X004319Y001216
X005081Y001216
X00651501Y00209389
X00676501
X00701501
Y00354389
X00651501
X005081Y003292
X004319Y003292
X003131Y003292
X002369Y003292
X001181Y003292
X000419Y003292
T08
X000416Y00197796
X001051Y00223197
X002366Y001978
X003001Y002232
X004316Y001978
X004951Y002232
Y004308
X004316Y004054
X003001Y004308
X002366Y004054
X001051Y004308
X000416Y004054
T09
X0003Y00172397
X0013
X00225Y001724
X00325
X0042Y001724
X0052
Y0038
X0042
X00325
X00225
X0013
X0003
T10
X0Y0
X0092Y00001692
X0Y0083
X0092
T11
X0008Y00172397
X00275Y001724
X0047Y001724
Y0038
X00275
X0008
M30
