G04*
G04 #@! TF.GenerationSoftware,Altium Limited,Altium Designer,25.4.2 (15)*
G04*
G04 Layer_Physical_Order=4*
G04 Layer_Color=16711680*
%FSLAX44Y44*%
%MOMM*%
G71*
G04*
G04 #@! TF.SameCoordinates,99B82A19-3900-4842-934D-00B4288F025C*
G04*
G04*
G04 #@! TF.FilePolarity,Positive*
G04*
G01*
G75*
%ADD10C,0.2500*%
%ADD11C,0.2000*%
%ADD15C,0.4000*%
%ADD36C,1.5000*%
G04:AMPARAMS|DCode=75|XSize=1mm|YSize=2.55mm|CornerRadius=0.5mm|HoleSize=0mm|Usage=FLASHONLY|Rotation=90.000|XOffset=0mm|YOffset=0mm|HoleType=Round|Shape=RoundedRectangle|*
%AMROUNDEDRECTD75*
21,1,1.0000,1.5500,0,0,90.0*
21,1,0.0000,2.5500,0,0,90.0*
1,1,1.0000,0.7750,0.0000*
1,1,1.0000,0.7750,0.0000*
1,1,1.0000,-0.7750,0.0000*
1,1,1.0000,-0.7750,0.0000*
%
%ADD75ROUNDEDRECTD75*%
G04:AMPARAMS|DCode=76|XSize=1.1mm|YSize=2.4mm|CornerRadius=0.55mm|HoleSize=0mm|Usage=FLASHONLY|Rotation=90.000|XOffset=0mm|YOffset=0mm|HoleType=Round|Shape=RoundedRectangle|*
%AMROUNDEDRECTD76*
21,1,1.1000,1.3000,0,0,90.0*
21,1,0.0000,2.4000,0,0,90.0*
1,1,1.1000,0.6500,0.0000*
1,1,1.1000,0.6500,0.0000*
1,1,1.1000,-0.6500,0.0000*
1,1,1.1000,-0.6500,0.0000*
%
%ADD76ROUNDEDRECTD76*%
%ADD83C,0.5000*%
%ADD84C,0.2540*%
%ADD86C,0.1500*%
%ADD91C,3.4000*%
%ADD92C,1.7000*%
%ADD93C,3.9878*%
%ADD94C,1.5080*%
%ADD95C,1.4000*%
%ADD96R,1.4000X1.4000*%
%ADD97R,2.3000X3.1000*%
%ADD98R,1.5000X1.5000*%
%ADD99C,1.5240*%
%ADD100C,1.0000*%
%ADD101R,1.0000X1.0000*%
%ADD102C,0.6000*%
%ADD103C,0.8000*%
%ADD104C,0.4500*%
%ADD105R,1.7500X0.8128*%
%ADD106R,2.5500X2.5000*%
G36*
X941561Y862463D02*
X943920Y861486D01*
X946042Y860067D01*
X947848Y858262D01*
X949266Y856139D01*
X950243Y853781D01*
X950741Y851277D01*
Y850000D01*
Y668789D01*
X942321D01*
X942154Y669128D01*
X941820Y670059D01*
X942583Y671901D01*
X942692Y672730D01*
X928250D01*
X913808D01*
X913917Y671901D01*
X914680Y670059D01*
X914346Y669128D01*
X914179Y668789D01*
X910641D01*
X910079Y669928D01*
X910286Y670198D01*
X911046Y672032D01*
X911138Y672730D01*
X895950D01*
X880762D01*
X880854Y672032D01*
X881614Y670198D01*
X882822Y668622D01*
X884398Y667414D01*
X886232Y666654D01*
X888200Y666395D01*
X895211D01*
Y641242D01*
X893941Y640716D01*
X886786Y647871D01*
X885463Y648755D01*
X883903Y649065D01*
X883902Y649065D01*
X878380D01*
X878219Y649226D01*
X876382Y649987D01*
X874392D01*
X872555Y649226D01*
X871148Y647819D01*
X870387Y645982D01*
Y643992D01*
X871148Y642155D01*
X872555Y640748D01*
X874392Y639987D01*
X876382D01*
X878219Y640748D01*
X878380Y640909D01*
X882213D01*
X887387Y635735D01*
Y602357D01*
X884159Y599129D01*
X878326D01*
X878166Y599289D01*
X876328Y600051D01*
X874339D01*
X872501Y599289D01*
X871095Y597883D01*
X870333Y596045D01*
Y594056D01*
X871095Y592218D01*
X872501Y590812D01*
X874339Y590051D01*
X876328D01*
X878166Y590812D01*
X878326Y590972D01*
X885848D01*
X885848Y590972D01*
X887409Y591283D01*
X888732Y592167D01*
X893941Y597376D01*
X895211Y596850D01*
Y573605D01*
X888200D01*
X886232Y573346D01*
X884398Y572586D01*
X882822Y571378D01*
X882758Y571294D01*
X881488Y571725D01*
Y572570D01*
X880645Y574607D01*
X879086Y576165D01*
X877218Y576939D01*
Y571469D01*
Y565998D01*
X879086Y566772D01*
X879466Y567151D01*
X880668Y566558D01*
X880595Y566000D01*
X880854Y564032D01*
X881614Y562197D01*
X882822Y560622D01*
X884398Y559414D01*
X886232Y558654D01*
X888200Y558395D01*
X894680D01*
Y566000D01*
X895950D01*
Y567270D01*
X911138D01*
X911046Y567968D01*
X910286Y569803D01*
X910079Y570072D01*
X910641Y571211D01*
X914179D01*
X914346Y570872D01*
X914680Y569941D01*
X913917Y568099D01*
X913808Y567270D01*
X928250D01*
X942692D01*
X942583Y568099D01*
X941820Y569941D01*
X942154Y570872D01*
X942321Y571211D01*
X950741D01*
Y518789D01*
X942321D01*
X942154Y519128D01*
X941820Y520059D01*
X942583Y521901D01*
X942692Y522730D01*
X928250D01*
Y524000D01*
D01*
Y522730D01*
X913808D01*
X913917Y521901D01*
X914680Y520059D01*
X914346Y519128D01*
X914179Y518789D01*
X910641D01*
X910079Y519928D01*
X910286Y520197D01*
X911046Y522032D01*
X911138Y522730D01*
X895950D01*
X880762D01*
X880854Y522032D01*
X881614Y520197D01*
X882822Y518622D01*
X884398Y517414D01*
X886232Y516654D01*
X888200Y516395D01*
X895211D01*
Y495782D01*
X894038Y495296D01*
X891513Y497820D01*
X890190Y498704D01*
X888630Y499015D01*
X888629Y499015D01*
X878495D01*
X878335Y499175D01*
X876497Y499936D01*
X874508D01*
X872670Y499175D01*
X871264Y497769D01*
X870503Y495931D01*
Y493942D01*
X871264Y492104D01*
X872670Y490698D01*
X874508Y489936D01*
X876497D01*
X878335Y490698D01*
X878495Y490858D01*
X886940D01*
X889172Y488627D01*
Y448876D01*
X878884D01*
X878723Y449036D01*
X876886Y449797D01*
X874896D01*
X873059Y449036D01*
X871652Y447630D01*
X870891Y445792D01*
Y443803D01*
X871652Y441965D01*
X873059Y440559D01*
X874896Y439797D01*
X876886D01*
X878723Y440559D01*
X878884Y440719D01*
X890907D01*
X890907Y440719D01*
X892468Y441029D01*
X893791Y441913D01*
X894038Y442160D01*
X895211Y441674D01*
Y423605D01*
X888200D01*
X886232Y423346D01*
X884398Y422586D01*
X882822Y421378D01*
X881614Y419803D01*
X880854Y417968D01*
X880762Y417270D01*
X895950D01*
X911138D01*
X911046Y417968D01*
X910286Y419803D01*
X910079Y420072D01*
X910641Y421211D01*
X914179D01*
X914346Y420872D01*
X914680Y419941D01*
X913917Y418099D01*
X913808Y417270D01*
X928250D01*
X942692D01*
X942583Y418099D01*
X941820Y419941D01*
X942154Y420872D01*
X942321Y421211D01*
X950741D01*
Y409040D01*
X950741Y-11564D01*
Y-14489D01*
X950243Y-16993D01*
X949266Y-19352D01*
X947848Y-21474D01*
X946042Y-23280D01*
X943919Y-24698D01*
X941561Y-25675D01*
X939057Y-26173D01*
X-12181D01*
X-13458Y-26173D01*
X-15962Y-25675D01*
X-18321Y-24698D01*
X-20443Y-23280D01*
X-22249Y-21474D01*
X-23667Y-19352D01*
X-24644Y-16993D01*
X-25142Y-14489D01*
Y-13212D01*
X-25169Y597135D01*
X-24843Y597577D01*
X-23900Y598264D01*
X35664D01*
X36445Y598419D01*
X37106Y598861D01*
X37548Y599523D01*
X37703Y600303D01*
Y780303D01*
X37548Y781083D01*
X37106Y781745D01*
X36445Y782187D01*
X35664Y782342D01*
X-24336D01*
X-25178Y783470D01*
X-25181Y850000D01*
Y851277D01*
X-24683Y853781D01*
X-23706Y856139D01*
X-22287Y858262D01*
X-20482Y860068D01*
X-18359Y861486D01*
X-16000Y862463D01*
X-13496Y862961D01*
X193447D01*
X193700Y861691D01*
X192174Y861059D01*
X190616Y859501D01*
X189842Y857632D01*
X200783D01*
X200009Y859501D01*
X198451Y861059D01*
X196925Y861691D01*
X197178Y862961D01*
X939057D01*
X941561Y862463D01*
D02*
G37*
%LPC*%
G36*
X200783Y855092D02*
X196583D01*
Y850892D01*
X198451Y851666D01*
X200009Y853224D01*
X200783Y855092D01*
D02*
G37*
G36*
X194043D02*
X189842D01*
X190616Y853224D01*
X192174Y851666D01*
X194043Y850892D01*
Y855092D01*
D02*
G37*
G36*
X902464Y860479D02*
X869588D01*
Y845847D01*
X902464D01*
Y860479D01*
D02*
G37*
G36*
X142727Y851953D02*
X140737D01*
X138900Y851192D01*
X137493Y849785D01*
X136732Y847947D01*
Y845958D01*
X137493Y844121D01*
X138900Y842714D01*
X140737Y841953D01*
X142727D01*
X144564Y842714D01*
X145971Y844121D01*
X146732Y845958D01*
Y847947D01*
X145971Y849785D01*
X144564Y851192D01*
X142727Y851953D01*
D02*
G37*
G36*
X182095Y845752D02*
Y841552D01*
X186296D01*
X185522Y843420D01*
X183964Y844978D01*
X182095Y845752D01*
D02*
G37*
G36*
X179555D02*
X177687Y844978D01*
X176129Y843420D01*
X175355Y841552D01*
X179555D01*
Y845752D01*
D02*
G37*
G36*
X209746Y845363D02*
Y841162D01*
X213946D01*
X213172Y843030D01*
X211614Y844589D01*
X209746Y845363D01*
D02*
G37*
G36*
X207206D02*
X205338Y844589D01*
X203779Y843030D01*
X203006Y841162D01*
X207206D01*
Y845363D01*
D02*
G37*
G36*
X186841Y822188D02*
X182641D01*
Y817987D01*
X184509Y818761D01*
X186067Y820320D01*
X186841Y822188D01*
D02*
G37*
G36*
X180101D02*
X175900D01*
X176674Y820320D01*
X178232Y818761D01*
X180101Y817987D01*
Y822188D01*
D02*
G37*
G36*
X921773Y848000D02*
X918227D01*
X914750Y847308D01*
X911474Y845951D01*
X908526Y843981D01*
X906019Y841474D01*
X904049Y838526D01*
X902692Y835250D01*
X902000Y831773D01*
Y828227D01*
X902692Y824750D01*
X904049Y821474D01*
X906019Y818526D01*
X908526Y816019D01*
X911474Y814049D01*
X914750Y812692D01*
X918227Y812000D01*
X921773D01*
X925250Y812692D01*
X928526Y814049D01*
X931474Y816019D01*
X933981Y818526D01*
X935951Y821474D01*
X937308Y824750D01*
X938000Y828227D01*
Y831773D01*
X937308Y835250D01*
X935951Y838526D01*
X933981Y841474D01*
X931474Y843981D01*
X928526Y845951D01*
X925250Y847308D01*
X921773Y848000D01*
D02*
G37*
G36*
X1773D02*
X-1773D01*
X-5250Y847308D01*
X-8526Y845951D01*
X-11474Y843981D01*
X-13981Y841474D01*
X-15951Y838526D01*
X-17308Y835250D01*
X-18000Y831773D01*
Y828227D01*
X-17308Y824750D01*
X-15951Y821474D01*
X-13981Y818526D01*
X-11474Y816019D01*
X-8526Y814049D01*
X-5250Y812692D01*
X-1773Y812000D01*
X1773D01*
X5250Y812692D01*
X8526Y814049D01*
X11474Y816019D01*
X13981Y818526D01*
X15951Y821474D01*
X17308Y824750D01*
X18000Y828227D01*
Y831773D01*
X17308Y835250D01*
X15951Y838526D01*
X13981Y841474D01*
X11474Y843981D01*
X8526Y845951D01*
X5250Y847308D01*
X1773Y848000D01*
D02*
G37*
G36*
X183186Y815376D02*
Y811175D01*
X187386D01*
X186612Y813043D01*
X185054Y814602D01*
X183186Y815376D01*
D02*
G37*
G36*
X180646D02*
X178778Y814602D01*
X177219Y813043D01*
X176446Y811175D01*
X180646D01*
Y815376D01*
D02*
G37*
G36*
X629000Y829000D02*
X611000D01*
Y811000D01*
X629000D01*
Y829000D01*
D02*
G37*
G36*
X186296Y839012D02*
X175355D01*
X175834Y837856D01*
X175028Y836586D01*
X170492D01*
X169224Y836333D01*
X168149Y835615D01*
X166685Y834150D01*
X165967Y833075D01*
X165714Y831807D01*
Y817920D01*
X164789Y816995D01*
X164028Y815157D01*
Y813168D01*
X164789Y811330D01*
X166196Y809924D01*
X168034Y809162D01*
X170023D01*
X171860Y809924D01*
X173267Y811330D01*
X174028Y813168D01*
Y815157D01*
X173267Y816995D01*
X172342Y817920D01*
Y829958D01*
X179269D01*
X179521Y828688D01*
X178232Y828154D01*
X176674Y826596D01*
X175900Y824728D01*
X186841D01*
X186067Y826596D01*
X184509Y828154D01*
X183220Y828688D01*
X183472Y829958D01*
X540628D01*
X540968Y828688D01*
X539142Y827634D01*
X537366Y825858D01*
X536110Y823682D01*
X535464Y821270D01*
X545000D01*
X554536D01*
X553890Y823682D01*
X552634Y825858D01*
X550858Y827634D01*
X549031Y828688D01*
X549372Y829958D01*
X567484D01*
X567652Y828688D01*
X566526Y828387D01*
X564474Y827202D01*
X562798Y825526D01*
X561613Y823474D01*
X561000Y821185D01*
Y818815D01*
X561613Y816526D01*
X562798Y814474D01*
X564474Y812798D01*
X566526Y811613D01*
X566686Y811570D01*
Y808734D01*
X564055Y806103D01*
X187608D01*
X186863Y807373D01*
X187386Y808635D01*
X176446D01*
X176968Y807373D01*
X176224Y806103D01*
X143239D01*
X133743Y815599D01*
X132668Y816318D01*
X131400Y816570D01*
X118970D01*
X118045Y817495D01*
X116208Y818256D01*
X114219D01*
X112381Y817495D01*
X110974Y816089D01*
X110213Y814251D01*
Y812262D01*
X110974Y810424D01*
X112381Y809017D01*
X114219Y808256D01*
X116208D01*
X118045Y809017D01*
X118970Y809943D01*
X130027D01*
X139352Y800618D01*
X139220Y799927D01*
X138881Y799348D01*
X81986D01*
X81061Y800273D01*
X79223Y801034D01*
X77234D01*
X75396Y800273D01*
X73990Y798867D01*
X73229Y797029D01*
Y795040D01*
X73990Y793202D01*
X75396Y791796D01*
X77234Y791034D01*
X79223D01*
X81061Y791796D01*
X81986Y792721D01*
X233141D01*
X233704Y791451D01*
X233066Y789910D01*
Y787921D01*
X233827Y786083D01*
X235234Y784677D01*
X237071Y783915D01*
X239061D01*
X240898Y784677D01*
X241824Y785602D01*
X621818D01*
X623086Y785854D01*
X624161Y786572D01*
X629435Y791846D01*
X631226D01*
X631401Y791339D01*
X631437Y790576D01*
X630546Y789980D01*
X622648Y782082D01*
X254231D01*
X253306Y783007D01*
X251468Y783769D01*
X249479D01*
X247641Y783007D01*
X246235Y781601D01*
X245473Y779763D01*
Y777774D01*
X246235Y775936D01*
X247641Y774530D01*
X249479Y773769D01*
X251468D01*
X253306Y774530D01*
X254231Y775455D01*
X624020D01*
X625288Y775707D01*
X626363Y776425D01*
X634261Y784324D01*
X704827D01*
X706095Y784576D01*
X707170Y785294D01*
X727063Y805187D01*
X727782Y806262D01*
X728034Y807530D01*
Y809902D01*
X729378Y810679D01*
X730681Y811982D01*
X730795Y812179D01*
X732065D01*
X732179Y811982D01*
X733482Y810679D01*
X735078Y809757D01*
X736858Y809280D01*
X738702D01*
X740482Y809757D01*
X742078Y810679D01*
X743381Y811982D01*
X743495Y812179D01*
X744765D01*
X744879Y811982D01*
X746182Y810679D01*
X747778Y809757D01*
X749558Y809280D01*
X751402D01*
X753182Y809757D01*
X754778Y810679D01*
X755706Y811606D01*
X756952Y811644D01*
X757280Y811517D01*
X758550Y810247D01*
X760270Y809254D01*
X761910Y808814D01*
Y816280D01*
Y823746D01*
X760270Y823306D01*
X758550Y822314D01*
X757280Y821043D01*
X756952Y820916D01*
X755706Y820954D01*
X754778Y821881D01*
X753182Y822803D01*
X751402Y823280D01*
X749558D01*
X747778Y822803D01*
X746182Y821881D01*
X744879Y820578D01*
X744765Y820381D01*
X743495D01*
X743381Y820578D01*
X742078Y821881D01*
X740482Y822803D01*
X738702Y823280D01*
X736858D01*
X735078Y822803D01*
X733482Y821881D01*
X732179Y820578D01*
X732065Y820381D01*
X730795D01*
X730681Y820578D01*
X729378Y821881D01*
X727782Y822803D01*
X726002Y823280D01*
X724158D01*
X722378Y822803D01*
X720782Y821881D01*
X719479Y820578D01*
X719365Y820381D01*
X718095D01*
X717981Y820578D01*
X716678Y821881D01*
X715082Y822803D01*
X713301Y823280D01*
X711458D01*
X709678Y822803D01*
X708082Y821881D01*
X706779Y820578D01*
X706665Y820381D01*
X705395D01*
X705281Y820578D01*
X703978Y821881D01*
X702382Y822803D01*
X700602Y823280D01*
X698758D01*
X696978Y822803D01*
X695382Y821881D01*
X694079Y820578D01*
X693965Y820381D01*
X692695D01*
X692581Y820578D01*
X691278Y821881D01*
X689682Y822803D01*
X687902Y823280D01*
X686059D01*
X684278Y822803D01*
X682682Y821881D01*
X681379Y820578D01*
X680457Y818982D01*
X679980Y817202D01*
Y815358D01*
X680274Y814260D01*
X669275Y803261D01*
X626296D01*
X625028Y803009D01*
X623953Y802291D01*
X621010Y799348D01*
X568413D01*
X568075Y799927D01*
X567943Y800618D01*
X572343Y805018D01*
X573061Y806093D01*
X573314Y807362D01*
Y811570D01*
X573474Y811613D01*
X575526Y812798D01*
X577202Y814474D01*
X578387Y816526D01*
X579000Y818815D01*
Y821185D01*
X578387Y823474D01*
X577202Y825526D01*
X575526Y827202D01*
X573474Y828387D01*
X572348Y828688D01*
X572516Y829958D01*
X588310D01*
X589746Y828522D01*
X589580Y827263D01*
X589474Y827202D01*
X587798Y825526D01*
X586613Y823474D01*
X586000Y821185D01*
Y818815D01*
X586613Y816526D01*
X587798Y814474D01*
X589474Y812798D01*
X591526Y811613D01*
X593815Y811000D01*
X596185D01*
X598474Y811613D01*
X600526Y812798D01*
X602202Y814474D01*
X603387Y816526D01*
X604000Y818815D01*
Y821185D01*
X603387Y823474D01*
X602202Y825526D01*
X600526Y827202D01*
X598474Y828387D01*
X597190Y828731D01*
Y829079D01*
X596937Y830347D01*
X596219Y831422D01*
X592026Y835615D01*
X590951Y836333D01*
X589683Y836586D01*
X214477D01*
X213629Y837856D01*
X213946Y838622D01*
X203006D01*
X203323Y837856D01*
X202474Y836586D01*
X186623D01*
X185817Y837856D01*
X186296Y839012D01*
D02*
G37*
G36*
X554536Y818730D02*
X546270D01*
Y810464D01*
X548682Y811110D01*
X550858Y812366D01*
X552634Y814142D01*
X553890Y816318D01*
X554536Y818730D01*
D02*
G37*
G36*
X543730D02*
X535464D01*
X536110Y816318D01*
X537366Y814142D01*
X539142Y812366D01*
X541318Y811110D01*
X543730Y810464D01*
Y818730D01*
D02*
G37*
G36*
X764450Y823746D02*
Y816280D01*
Y808814D01*
X766090Y809254D01*
X767610Y810131D01*
X768880Y809714D01*
Y809280D01*
X782880D01*
Y823280D01*
X768880D01*
Y822846D01*
X767610Y822429D01*
X766090Y823306D01*
X764450Y823746D01*
D02*
G37*
G36*
X700764Y780933D02*
X698775D01*
X696937Y780172D01*
X696012Y779247D01*
X633634D01*
X632366Y778995D01*
X631291Y778276D01*
X615624Y762609D01*
X66691D01*
X66127Y763173D01*
X64289Y763935D01*
X62300D01*
X60462Y763173D01*
X59056Y761767D01*
X58295Y759929D01*
Y757940D01*
X59056Y756102D01*
X60462Y754696D01*
X62300Y753935D01*
X64289D01*
X66127Y754696D01*
X67413Y755982D01*
X214001D01*
X214254Y754712D01*
X212832Y754123D01*
X211425Y752717D01*
X210664Y750879D01*
Y748890D01*
X211425Y747052D01*
X212832Y745646D01*
X214670Y744885D01*
X216659D01*
X218496Y745646D01*
X219903Y747052D01*
X220664Y748890D01*
Y750879D01*
X219903Y752717D01*
X218496Y754123D01*
X217075Y754712D01*
X217328Y755982D01*
X616997D01*
X618265Y756234D01*
X619340Y756953D01*
X635007Y772620D01*
X696012D01*
X696937Y771694D01*
X698775Y770933D01*
X700764D01*
X702602Y771694D01*
X704008Y773101D01*
X704770Y774939D01*
Y776928D01*
X704008Y778766D01*
X702602Y780172D01*
X700764Y780933D01*
D02*
G37*
G36*
X778200Y763579D02*
X776211D01*
X774373Y762818D01*
X772967Y761412D01*
X772206Y759574D01*
Y757585D01*
X772967Y755747D01*
X774373Y754341D01*
X776211Y753579D01*
X778200D01*
X780038Y754341D01*
X781444Y755747D01*
X782205Y757585D01*
Y759574D01*
X781444Y761412D01*
X780038Y762818D01*
X778200Y763579D01*
D02*
G37*
G36*
X388092Y753463D02*
X386103D01*
X384265Y752702D01*
X382859Y751296D01*
X382098Y749458D01*
Y747469D01*
X382859Y745631D01*
X384265Y744225D01*
X386103Y743463D01*
X388092D01*
X389930Y744225D01*
X391336Y745631D01*
X392098Y747469D01*
Y749458D01*
X391336Y751296D01*
X389930Y752702D01*
X388092Y753463D01*
D02*
G37*
G36*
X203761Y753140D02*
X201772D01*
X199934Y752379D01*
X198527Y750973D01*
X197766Y749135D01*
Y747146D01*
X198527Y745308D01*
X199934Y743901D01*
X201772Y743140D01*
X203761D01*
X205598Y743901D01*
X207005Y745308D01*
X207766Y747146D01*
Y749135D01*
X207005Y750973D01*
X205598Y752379D01*
X203761Y753140D01*
D02*
G37*
G36*
X81074Y753094D02*
X79085D01*
X77248Y752333D01*
X75841Y750926D01*
X75080Y749089D01*
Y747100D01*
X75841Y745262D01*
X77248Y743855D01*
X79085Y743094D01*
X81074D01*
X82912Y743855D01*
X83486Y744429D01*
X131349D01*
X131875Y743159D01*
X130896Y742180D01*
X130135Y740342D01*
Y738353D01*
X130896Y736516D01*
X132303Y735109D01*
X134140Y734348D01*
X136129D01*
X137967Y735109D01*
X139374Y736516D01*
X140135Y738353D01*
Y740342D01*
X139374Y742180D01*
X138395Y743159D01*
X138921Y744429D01*
X175072D01*
X176308Y743193D01*
X178146Y742432D01*
X180135D01*
X181973Y743193D01*
X183379Y744600D01*
X183873Y745792D01*
X185143Y745539D01*
Y744488D01*
X185905Y742651D01*
X187311Y741244D01*
X189149Y740483D01*
X191138D01*
X192976Y741244D01*
X194382Y742651D01*
X195143Y744488D01*
Y746477D01*
X194382Y748315D01*
X192976Y749722D01*
X191138Y750483D01*
X189149D01*
X187311Y749722D01*
X185905Y748315D01*
X185411Y747123D01*
X184141Y747375D01*
Y748427D01*
X183379Y750264D01*
X181973Y751671D01*
X180135Y752432D01*
X178146D01*
X176308Y751671D01*
X175735Y751097D01*
X84148D01*
X82912Y752333D01*
X81074Y753094D01*
D02*
G37*
G36*
X600498Y738851D02*
X598509D01*
X596671Y738090D01*
X595265Y736683D01*
X594503Y734845D01*
Y732856D01*
X595265Y731019D01*
X596671Y729612D01*
X598509Y728851D01*
X600498D01*
X602336Y729612D01*
X603742Y731019D01*
X604503Y732856D01*
Y734845D01*
X603742Y736683D01*
X602336Y738090D01*
X600498Y738851D01*
D02*
G37*
G36*
X146782Y733961D02*
X144793D01*
X142955Y733200D01*
X141549Y731793D01*
X140787Y729956D01*
Y727967D01*
X141549Y726129D01*
X142955Y724722D01*
X144793Y723961D01*
X146782D01*
X148619Y724722D01*
X150026Y726129D01*
X150787Y727967D01*
Y729956D01*
X150026Y731793D01*
X148619Y733200D01*
X146782Y733961D01*
D02*
G37*
G36*
X372127Y722706D02*
X370138D01*
X368300Y721945D01*
X366894Y720538D01*
X366133Y718701D01*
Y716712D01*
X366894Y714874D01*
X368074Y713694D01*
Y712063D01*
X366804Y711537D01*
X366565Y711776D01*
X364728Y712537D01*
X362738D01*
X360901Y711776D01*
X359494Y710369D01*
X358733Y708532D01*
Y706543D01*
X359494Y704705D01*
X360901Y703298D01*
X361043Y703239D01*
Y595568D01*
X360232Y594756D01*
X359470Y592919D01*
Y590929D01*
X360232Y589092D01*
X361638Y587685D01*
X363476Y586924D01*
X365465D01*
X367303Y587685D01*
X368709Y589092D01*
X369470Y590929D01*
Y592919D01*
X368709Y594756D01*
X367303Y596163D01*
X367161Y596222D01*
Y603710D01*
X367653Y603881D01*
X368431Y603921D01*
X368970Y603114D01*
X373349Y598735D01*
Y597066D01*
X374110Y595229D01*
X375517Y593822D01*
X377354Y593061D01*
X379343D01*
X381181Y593822D01*
X382588Y595229D01*
X383349Y597066D01*
Y599055D01*
X382588Y600893D01*
X381181Y602300D01*
X379343Y603061D01*
X377675D01*
X374191Y606544D01*
Y713694D01*
X375372Y714874D01*
X376133Y716712D01*
Y718701D01*
X375372Y720538D01*
X373965Y721945D01*
X372127Y722706D01*
D02*
G37*
G36*
X657504Y721420D02*
X655515D01*
X653677Y720658D01*
X652271Y719252D01*
X651509Y717414D01*
Y715425D01*
X652271Y713587D01*
X653677Y712181D01*
X655515Y711420D01*
X657504D01*
X659342Y712181D01*
X660748Y713587D01*
X661509Y715425D01*
Y717414D01*
X660748Y719252D01*
X659342Y720658D01*
X657504Y721420D01*
D02*
G37*
G36*
X112858Y687961D02*
X111604Y687625D01*
X110112Y686764D01*
X108895Y685546D01*
X108556Y684960D01*
X107090D01*
X106752Y685546D01*
X105534Y686764D01*
X104043Y687625D01*
X102788Y687961D01*
Y681530D01*
X101518D01*
Y680260D01*
X95088D01*
X95424Y679006D01*
X96285Y677515D01*
X97503Y676297D01*
X98053Y675980D01*
Y674513D01*
X97503Y674195D01*
X96285Y672978D01*
X95424Y671486D01*
X95088Y670232D01*
X101518D01*
Y668962D01*
X102788D01*
Y662532D01*
X104043Y662868D01*
X105534Y663729D01*
X106752Y664946D01*
X107090Y665533D01*
X108556D01*
X108895Y664946D01*
X110112Y663729D01*
X111604Y662868D01*
X112858Y662532D01*
Y668962D01*
X114128D01*
Y670232D01*
X120559D01*
X120222Y671486D01*
X119361Y672978D01*
X118144Y674195D01*
X117594Y674513D01*
Y675980D01*
X118144Y676297D01*
X119361Y677515D01*
X120222Y679006D01*
X120559Y680260D01*
X114128D01*
Y681530D01*
X112858D01*
Y687961D01*
D02*
G37*
G36*
X115398D02*
Y682800D01*
X120559D01*
X120222Y684055D01*
X119361Y685546D01*
X118144Y686764D01*
X116652Y687625D01*
X115398Y687961D01*
D02*
G37*
G36*
X100248D02*
X98994Y687625D01*
X97503Y686764D01*
X96285Y685546D01*
X95424Y684055D01*
X95088Y682800D01*
X100248D01*
Y687961D01*
D02*
G37*
G36*
X934750Y682109D02*
X929520D01*
Y675270D01*
X942692D01*
X942583Y676099D01*
X941773Y678055D01*
X940484Y679734D01*
X938805Y681023D01*
X936849Y681833D01*
X934750Y682109D01*
D02*
G37*
G36*
X926980D02*
X921750D01*
X919651Y681833D01*
X917695Y681023D01*
X916016Y679734D01*
X914727Y678055D01*
X913917Y676099D01*
X913808Y675270D01*
X926980D01*
Y682109D01*
D02*
G37*
G36*
X903700Y681605D02*
X897220D01*
Y675270D01*
X911138D01*
X911046Y675968D01*
X910286Y677803D01*
X909078Y679378D01*
X907503Y680586D01*
X905668Y681346D01*
X903700Y681605D01*
D02*
G37*
G36*
X894680D02*
X888200D01*
X886232Y681346D01*
X884398Y680586D01*
X882822Y679378D01*
X881614Y677803D01*
X880854Y675968D01*
X880762Y675270D01*
X894680D01*
Y681605D01*
D02*
G37*
G36*
X120559Y667692D02*
X115398D01*
Y662532D01*
X116652Y662868D01*
X118144Y663729D01*
X119361Y664946D01*
X120222Y666438D01*
X120559Y667692D01*
D02*
G37*
G36*
X100248D02*
X95088D01*
X95424Y666438D01*
X96285Y664946D01*
X97503Y663729D01*
X98994Y662868D01*
X100248Y662532D01*
Y667692D01*
D02*
G37*
G36*
X202448Y672004D02*
X200459D01*
X198622Y671243D01*
X197215Y669836D01*
X196454Y667998D01*
Y666009D01*
X197215Y664172D01*
X198622Y662765D01*
X200459Y662004D01*
X202448D01*
X204286Y662765D01*
X205211Y663690D01*
X341043D01*
Y662702D01*
X341804Y660864D01*
X343211Y659458D01*
X345048Y658697D01*
X347038D01*
X348875Y659458D01*
X350282Y660864D01*
X351043Y662702D01*
Y664691D01*
X350282Y666529D01*
X348875Y667935D01*
X347038Y668697D01*
X345729D01*
X345079Y669347D01*
X344004Y670065D01*
X342736Y670318D01*
X205211D01*
X204286Y671243D01*
X202448Y672004D01*
D02*
G37*
G36*
X864227Y667473D02*
X862238D01*
X860400Y666712D01*
X858994Y665305D01*
X858746Y664708D01*
X857870Y664534D01*
X856878Y663871D01*
X856878Y663871D01*
X853702Y660695D01*
X853039Y659703D01*
X852806Y658532D01*
X852806Y658532D01*
Y614118D01*
X851626Y612938D01*
X850865Y611100D01*
Y609111D01*
X851626Y607273D01*
X853033Y605867D01*
X854870Y605105D01*
X856859D01*
X858697Y605867D01*
X860104Y607273D01*
X860865Y609111D01*
Y611100D01*
X860104Y612938D01*
X858924Y614118D01*
Y657265D01*
X860147Y658488D01*
X860400Y658234D01*
X862238Y657473D01*
X864227D01*
X866065Y658234D01*
X867471Y659641D01*
X868233Y661479D01*
Y663468D01*
X867471Y665305D01*
X866065Y666712D01*
X864227Y667473D01*
D02*
G37*
G36*
X827425Y657916D02*
X825436D01*
X823598Y657155D01*
X822418Y655975D01*
X817448D01*
X817448Y655975D01*
X816277Y655742D01*
X815285Y655079D01*
X806661Y646455D01*
X805998Y645463D01*
X805766Y644292D01*
X805766Y644292D01*
Y614604D01*
X804585Y613424D01*
X803824Y611586D01*
Y609597D01*
X804585Y607759D01*
X805992Y606353D01*
X807830Y605592D01*
X809819D01*
X811657Y606353D01*
X813063Y607759D01*
X813824Y609597D01*
Y611586D01*
X813063Y613424D01*
X811883Y614604D01*
Y643025D01*
X818715Y649857D01*
X822418D01*
X823598Y648677D01*
X825436Y647916D01*
X827425D01*
X829263Y648677D01*
X830669Y650084D01*
X831430Y651921D01*
Y653911D01*
X830669Y655748D01*
X829263Y657155D01*
X827425Y657916D01*
D02*
G37*
G36*
X89460Y654148D02*
X87471D01*
X85633Y653387D01*
X84227Y651980D01*
X83465Y650143D01*
Y648153D01*
X84227Y646316D01*
X85633Y644909D01*
X87471Y644148D01*
X89460D01*
X91298Y644909D01*
X92704Y646316D01*
X93465Y648153D01*
Y650143D01*
X92704Y651980D01*
X91298Y653387D01*
X89460Y654148D01*
D02*
G37*
G36*
X239432Y653638D02*
X237443D01*
X235605Y652877D01*
X234199Y651470D01*
X233438Y649632D01*
Y647643D01*
X234199Y645806D01*
X235605Y644399D01*
X237443Y643638D01*
X239432D01*
X241270Y644399D01*
X242676Y645806D01*
X243437Y647643D01*
Y649632D01*
X242676Y651470D01*
X241270Y652877D01*
X239432Y653638D01*
D02*
G37*
G36*
X324725Y645489D02*
X322736D01*
X320899Y644728D01*
X319973Y643802D01*
X275270D01*
X274002Y643550D01*
X272927Y642832D01*
X213915Y583820D01*
X182947D01*
X182444Y585090D01*
X183124Y586732D01*
Y588722D01*
X182363Y590559D01*
X180956Y591966D01*
X179118Y592727D01*
X177129D01*
X175292Y591966D01*
X173885Y590559D01*
X173124Y588722D01*
Y586732D01*
X173804Y585090D01*
X173301Y583820D01*
X170584D01*
X169659Y584745D01*
X167822Y585506D01*
X165832D01*
X163995Y584745D01*
X162588Y583339D01*
X161827Y581501D01*
Y579512D01*
X162588Y577674D01*
X163995Y576267D01*
X165832Y575506D01*
X167822D01*
X169659Y576267D01*
X170584Y577193D01*
X215288D01*
X216556Y577445D01*
X217631Y578163D01*
X276643Y637175D01*
X319973D01*
X320899Y636250D01*
X322736Y635489D01*
X324725D01*
X326563Y636250D01*
X327970Y637657D01*
X328731Y639494D01*
Y641483D01*
X327970Y643321D01*
X326563Y644728D01*
X324725Y645489D01*
D02*
G37*
G36*
X103473Y644387D02*
X101484D01*
X99647Y643626D01*
X98240Y642220D01*
X97479Y640382D01*
Y638393D01*
X98240Y636555D01*
X99647Y635149D01*
X101484Y634387D01*
X103473D01*
X105311Y635149D01*
X106718Y636555D01*
X107479Y638393D01*
Y640382D01*
X106718Y642220D01*
X105311Y643626D01*
X103473Y644387D01*
D02*
G37*
G36*
X246716Y644249D02*
X244727D01*
X242890Y643488D01*
X241483Y642081D01*
X240722Y640244D01*
Y638254D01*
X241483Y636417D01*
X242890Y635010D01*
X244727Y634249D01*
X246716D01*
X248554Y635010D01*
X249961Y636417D01*
X250722Y638254D01*
Y640244D01*
X249961Y642081D01*
X248554Y643488D01*
X246716Y644249D01*
D02*
G37*
G36*
X569832Y639208D02*
X567843D01*
X566005Y638447D01*
X564599Y637041D01*
X563838Y635203D01*
Y633214D01*
X564599Y631376D01*
X566005Y629970D01*
X567843Y629208D01*
X569832D01*
X571670Y629970D01*
X573076Y631376D01*
X573838Y633214D01*
Y635203D01*
X573076Y637041D01*
X571670Y638447D01*
X569832Y639208D01*
D02*
G37*
G36*
X387711Y634499D02*
X385722D01*
X383885Y633738D01*
X382478Y632331D01*
X381717Y630494D01*
Y628504D01*
X382478Y626667D01*
X383885Y625260D01*
X385722Y624499D01*
X387711D01*
X389549Y625260D01*
X390956Y626667D01*
X391717Y628504D01*
Y630494D01*
X390956Y632331D01*
X389549Y633738D01*
X387711Y634499D01*
D02*
G37*
G36*
X329875Y631328D02*
X327886D01*
X326048Y630567D01*
X324641Y629160D01*
X323880Y627322D01*
Y625333D01*
X324641Y623495D01*
X326048Y622089D01*
X327886Y621328D01*
X329875D01*
X331712Y622089D01*
X333119Y623495D01*
X333880Y625333D01*
Y627322D01*
X333119Y629160D01*
X331712Y630567D01*
X329875Y631328D01*
D02*
G37*
G36*
X831114Y629490D02*
X829125D01*
X827288Y628729D01*
X825881Y627322D01*
X825120Y625485D01*
Y623495D01*
X825881Y621658D01*
X827288Y620251D01*
X829125Y619490D01*
X831114D01*
X832952Y620251D01*
X834359Y621658D01*
X835120Y623495D01*
Y625485D01*
X834359Y627322D01*
X832952Y628729D01*
X831114Y629490D01*
D02*
G37*
G36*
X153159Y626493D02*
X151170D01*
X149332Y625732D01*
X147925Y624325D01*
X147164Y622487D01*
Y620498D01*
X146321Y619457D01*
X146143Y619612D01*
X145401Y620577D01*
Y622250D01*
X144640Y624087D01*
X143233Y625494D01*
X141396Y626255D01*
X139406D01*
X137569Y625494D01*
X136162Y624087D01*
X135401Y622250D01*
Y620261D01*
X135543Y619917D01*
X134838Y618861D01*
X119705D01*
X119000Y619917D01*
X119064Y620073D01*
Y622062D01*
X118303Y623899D01*
X116896Y625306D01*
X115059Y626067D01*
X113070D01*
X111232Y625306D01*
X109825Y623899D01*
X109064Y622062D01*
Y620073D01*
X109129Y619917D01*
X108423Y618861D01*
X104587D01*
X102589Y620859D01*
X101507Y621582D01*
X100231Y621836D01*
X51682D01*
X50777Y622741D01*
X48939Y623502D01*
X46950D01*
X45112Y622741D01*
X43706Y621334D01*
X42945Y619496D01*
Y617507D01*
X43706Y615670D01*
X45112Y614263D01*
X46950Y613502D01*
X48939D01*
X50777Y614263D01*
X51682Y615168D01*
X98850D01*
X100849Y613170D01*
X101930Y612447D01*
X103206Y612193D01*
X162084D01*
X163360Y612447D01*
X163966Y612852D01*
X164238Y612739D01*
X166227D01*
X168065Y613501D01*
X169471Y614907D01*
X170233Y616745D01*
Y618734D01*
X169471Y620572D01*
X168065Y621978D01*
X166227Y622739D01*
X164238D01*
X162400Y621978D01*
X160994Y620572D01*
X160285Y618861D01*
X157629D01*
X156924Y619917D01*
X157164Y620498D01*
Y622487D01*
X156403Y624325D01*
X154997Y625732D01*
X153159Y626493D01*
D02*
G37*
G36*
X879664Y627902D02*
X877675D01*
X875837Y627141D01*
X874431Y625734D01*
X873670Y623896D01*
Y621907D01*
X874431Y620070D01*
X875391Y619109D01*
Y613823D01*
X874888Y613615D01*
X873482Y612208D01*
X872720Y610371D01*
Y608382D01*
X873482Y606544D01*
X874888Y605137D01*
X876726Y604376D01*
X878715D01*
X880553Y605137D01*
X881959Y606544D01*
X882720Y608382D01*
Y610371D01*
X881959Y612208D01*
X880999Y613169D01*
Y618455D01*
X881502Y618663D01*
X882908Y620070D01*
X883670Y621907D01*
Y623896D01*
X882908Y625734D01*
X881502Y627141D01*
X879664Y627902D01*
D02*
G37*
G36*
X329686Y603467D02*
X327697D01*
X325859Y602706D01*
X324453Y601299D01*
X323691Y599461D01*
Y597472D01*
X324453Y595634D01*
X325859Y594228D01*
X327697Y593467D01*
X329686D01*
X331524Y594228D01*
X332930Y595634D01*
X333691Y597472D01*
Y599461D01*
X332930Y601299D01*
X331524Y602706D01*
X329686Y603467D01*
D02*
G37*
G36*
X275017Y594053D02*
X273028D01*
X271190Y593292D01*
X269783Y591886D01*
X269022Y590048D01*
Y588059D01*
X269783Y586221D01*
X271190Y584814D01*
X273028Y584053D01*
X275017D01*
X276855Y584814D01*
X278261Y586221D01*
X279022Y588059D01*
Y590048D01*
X278261Y591886D01*
X276855Y593292D01*
X275017Y594053D01*
D02*
G37*
G36*
X20861Y582813D02*
Y578613D01*
X25062D01*
X24288Y580481D01*
X22729Y582039D01*
X20861Y582813D01*
D02*
G37*
G36*
X18321D02*
X16453Y582039D01*
X14895Y580481D01*
X14121Y578613D01*
X18321D01*
Y582813D01*
D02*
G37*
G36*
X450149Y587644D02*
X448160D01*
X446322Y586883D01*
X444916Y585476D01*
X444155Y583638D01*
Y581649D01*
X444916Y579812D01*
X446322Y578405D01*
X448160Y577644D01*
X450149D01*
X451987Y578405D01*
X453393Y579812D01*
X454155Y581649D01*
Y583638D01*
X453393Y585476D01*
X451987Y586883D01*
X450149Y587644D01*
D02*
G37*
G36*
X874678Y576939D02*
X872810Y576165D01*
X871252Y574607D01*
X870478Y572738D01*
X874678D01*
Y576939D01*
D02*
G37*
G36*
X25062Y576073D02*
X20861D01*
Y571872D01*
X22729Y572646D01*
X24288Y574205D01*
X25062Y576073D01*
D02*
G37*
G36*
X18321D02*
X14121D01*
X14895Y574205D01*
X16453Y572646D01*
X18321Y571872D01*
Y576073D01*
D02*
G37*
G36*
X874678Y570199D02*
X870478D01*
X871252Y568330D01*
X872810Y566772D01*
X874678Y565998D01*
Y570199D01*
D02*
G37*
G36*
X21085Y569514D02*
Y565313D01*
X25285D01*
X24511Y567182D01*
X22953Y568740D01*
X21085Y569514D01*
D02*
G37*
G36*
X18545D02*
X16677Y568740D01*
X15118Y567182D01*
X14345Y565313D01*
X18545D01*
Y569514D01*
D02*
G37*
G36*
X809284Y571240D02*
X807295D01*
X806300Y570828D01*
X726675D01*
X724920Y570479D01*
X723431Y569484D01*
X709440Y555493D01*
X708445Y554004D01*
X708096Y552248D01*
Y513979D01*
X707684Y512984D01*
Y510995D01*
X708445Y509157D01*
X709852Y507751D01*
X711689Y506990D01*
X713678D01*
X715516Y507751D01*
X716923Y509157D01*
X717684Y510995D01*
Y512984D01*
X717272Y513979D01*
Y550348D01*
X728576Y561652D01*
X736087D01*
X736613Y560382D01*
X735532Y559301D01*
X734759Y557433D01*
X745699D01*
X744926Y559301D01*
X743845Y560382D01*
X744371Y561652D01*
X806300D01*
X807295Y561240D01*
X809284D01*
X811121Y562001D01*
X812528Y563408D01*
X813289Y565246D01*
Y567235D01*
X812528Y569072D01*
X811121Y570479D01*
X809284Y571240D01*
D02*
G37*
G36*
X228607Y565207D02*
Y561007D01*
X232808D01*
X232034Y562875D01*
X230476Y564434D01*
X228607Y565207D01*
D02*
G37*
G36*
X226067D02*
X224199Y564434D01*
X222641Y562875D01*
X221867Y561007D01*
X226067D01*
Y565207D01*
D02*
G37*
G36*
X197420Y570549D02*
X195431D01*
X193594Y569788D01*
X192187Y568381D01*
X191426Y566543D01*
Y564554D01*
X192187Y562717D01*
X193594Y561310D01*
X195431Y560549D01*
X197420D01*
X199258Y561310D01*
X200665Y562717D01*
X201426Y564554D01*
Y566543D01*
X200665Y568381D01*
X199258Y569788D01*
X197420Y570549D01*
D02*
G37*
G36*
X25285Y562773D02*
X21085D01*
Y558573D01*
X22953Y559347D01*
X24511Y560905D01*
X25285Y562773D01*
D02*
G37*
G36*
X18545D02*
X14345D01*
X15118Y560905D01*
X16677Y559347D01*
X18545Y558573D01*
Y562773D01*
D02*
G37*
G36*
X911138Y564730D02*
X897220D01*
Y558395D01*
X903700D01*
X905668Y558654D01*
X907503Y559414D01*
X909078Y560622D01*
X910286Y562197D01*
X911046Y564032D01*
X911138Y564730D01*
D02*
G37*
G36*
X942692Y564730D02*
X929520D01*
Y557891D01*
X934750D01*
X936849Y558167D01*
X938805Y558977D01*
X940484Y560266D01*
X941773Y561945D01*
X942583Y563901D01*
X942692Y564730D01*
D02*
G37*
G36*
X926980D02*
X913808D01*
X913917Y563901D01*
X914727Y561945D01*
X916016Y560266D01*
X917695Y558977D01*
X919651Y558167D01*
X921750Y557891D01*
X926980D01*
Y564730D01*
D02*
G37*
G36*
X689790Y565241D02*
X687801D01*
X685963Y564479D01*
X684557Y563073D01*
X683795Y561235D01*
Y559246D01*
X684557Y557408D01*
X685963Y556002D01*
X687801Y555241D01*
X689790D01*
X691628Y556002D01*
X693034Y557408D01*
X693795Y559246D01*
Y561235D01*
X693034Y563073D01*
X691628Y564479D01*
X689790Y565241D01*
D02*
G37*
G36*
X232808Y558467D02*
X228607D01*
Y554267D01*
X230476Y555040D01*
X232034Y556599D01*
X232808Y558467D01*
D02*
G37*
G36*
X226067D02*
X221867D01*
X222641Y556599D01*
X224199Y555040D01*
X226067Y554267D01*
Y558467D01*
D02*
G37*
G36*
X848826Y557751D02*
Y553551D01*
X853026D01*
X852252Y555419D01*
X850694Y556977D01*
X848826Y557751D01*
D02*
G37*
G36*
X846286D02*
X844417Y556977D01*
X842859Y555419D01*
X842085Y553551D01*
X846286D01*
Y557751D01*
D02*
G37*
G36*
X863994Y557103D02*
Y552902D01*
X868195D01*
X867421Y554771D01*
X865862Y556329D01*
X863994Y557103D01*
D02*
G37*
G36*
X861454D02*
X859586Y556329D01*
X858027Y554771D01*
X857254Y552902D01*
X861454D01*
Y557103D01*
D02*
G37*
G36*
X19520Y554985D02*
Y550785D01*
X23721D01*
X22947Y552653D01*
X21388Y554211D01*
X19520Y554985D01*
D02*
G37*
G36*
X16980D02*
X15112Y554211D01*
X13554Y552653D01*
X12780Y550785D01*
X16980D01*
Y554985D01*
D02*
G37*
G36*
X738959Y554893D02*
X734759D01*
X735532Y553025D01*
X737091Y551466D01*
X738959Y550692D01*
Y554893D01*
D02*
G37*
G36*
X748755Y552881D02*
Y548680D01*
X752956D01*
X752182Y550548D01*
X750624Y552107D01*
X748755Y552881D01*
D02*
G37*
G36*
X745699Y554893D02*
X741499D01*
Y550650D01*
X742441Y549708D01*
X742015Y548680D01*
X746215D01*
Y552923D01*
X745274Y553865D01*
X745699Y554893D01*
D02*
G37*
G36*
X853026Y551011D02*
X848826D01*
Y546810D01*
X850694Y547584D01*
X852252Y549143D01*
X853026Y551011D01*
D02*
G37*
G36*
X846286D02*
X842085D01*
X842859Y549143D01*
X844417Y547584D01*
X846286Y546810D01*
Y551011D01*
D02*
G37*
G36*
X868195Y550363D02*
X863994D01*
Y546162D01*
X865862Y546936D01*
X867421Y548494D01*
X868195Y550363D01*
D02*
G37*
G36*
X861454D02*
X857254D01*
X858027Y548494D01*
X859586Y546936D01*
X861454Y546162D01*
Y550363D01*
D02*
G37*
G36*
X162362Y548784D02*
Y544584D01*
X166562D01*
X165788Y546452D01*
X164230Y548010D01*
X162362Y548784D01*
D02*
G37*
G36*
X159822D02*
X157953Y548010D01*
X156395Y546452D01*
X155621Y544584D01*
X159822D01*
Y548784D01*
D02*
G37*
G36*
X23721Y548245D02*
X19520D01*
Y544044D01*
X21388Y544818D01*
X22947Y546377D01*
X23721Y548245D01*
D02*
G37*
G36*
X16980D02*
X12780D01*
X13554Y546377D01*
X15112Y544818D01*
X16980Y544044D01*
Y548245D01*
D02*
G37*
G36*
X646339Y553368D02*
X644350D01*
X642513Y552607D01*
X641106Y551200D01*
X640345Y549362D01*
Y547373D01*
X641106Y545536D01*
X642513Y544129D01*
X644350Y543368D01*
X646339D01*
X648177Y544129D01*
X649584Y545536D01*
X650345Y547373D01*
Y549362D01*
X649584Y551200D01*
X648177Y552607D01*
X646339Y553368D01*
D02*
G37*
G36*
X752956Y546140D02*
X748755D01*
Y541940D01*
X750624Y542714D01*
X752182Y544272D01*
X752956Y546140D01*
D02*
G37*
G36*
X746215D02*
X742015D01*
X742789Y544272D01*
X744347Y542714D01*
X746215Y541940D01*
Y546140D01*
D02*
G37*
G36*
X166562Y542044D02*
X162362D01*
Y537843D01*
X164230Y538617D01*
X165788Y540176D01*
X166562Y542044D01*
D02*
G37*
G36*
X159822D02*
X155621D01*
X156395Y540176D01*
X157953Y538617D01*
X159822Y537843D01*
Y542044D01*
D02*
G37*
G36*
X393208Y608875D02*
X391219D01*
X389381Y608114D01*
X387975Y606707D01*
X387213Y604870D01*
Y602881D01*
X387975Y601043D01*
X389164Y599853D01*
Y544030D01*
X388504Y543369D01*
X387743Y541531D01*
Y539542D01*
X388504Y537705D01*
X389911Y536298D01*
X391748Y535537D01*
X393737D01*
X395575Y536298D01*
X396982Y537705D01*
X397743Y539542D01*
Y541531D01*
X396982Y543369D01*
X395792Y544559D01*
Y600382D01*
X396452Y601043D01*
X397213Y602881D01*
Y604870D01*
X396452Y606707D01*
X395046Y608114D01*
X393208Y608875D01*
D02*
G37*
G36*
X701857Y536146D02*
Y531945D01*
X706057D01*
X705284Y533813D01*
X703725Y535372D01*
X701857Y536146D01*
D02*
G37*
G36*
X699317D02*
X697449Y535372D01*
X695890Y533813D01*
X695117Y531945D01*
X699317D01*
Y536146D01*
D02*
G37*
G36*
X122110Y580032D02*
X120120D01*
X118283Y579270D01*
X116876Y577864D01*
X116115Y576026D01*
Y574037D01*
X116876Y572199D01*
X118283Y570793D01*
X120120Y570032D01*
X121429D01*
X124516Y566944D01*
X125591Y566226D01*
X126860Y565973D01*
X165369D01*
X172017Y559325D01*
Y538005D01*
X171092Y537080D01*
X170331Y535243D01*
Y533254D01*
X171092Y531416D01*
X172499Y530009D01*
X174337Y529248D01*
X176326D01*
X178163Y530009D01*
X179570Y531416D01*
X180331Y533254D01*
Y535243D01*
X179570Y537080D01*
X178645Y538005D01*
Y560697D01*
X178393Y561965D01*
X177674Y563041D01*
X169085Y571630D01*
X168010Y572348D01*
X166742Y572601D01*
X128232D01*
X126115Y574718D01*
Y576026D01*
X125354Y577864D01*
X123947Y579270D01*
X122110Y580032D01*
D02*
G37*
G36*
X18987Y532093D02*
Y527892D01*
X23188D01*
X22414Y529761D01*
X20855Y531319D01*
X18987Y532093D01*
D02*
G37*
G36*
X16447D02*
X14579Y531319D01*
X13021Y529761D01*
X12247Y527892D01*
X16447D01*
Y532093D01*
D02*
G37*
G36*
X119996Y537626D02*
X118007D01*
X116169Y536865D01*
X114763Y535459D01*
X114002Y533621D01*
Y531632D01*
X114763Y529794D01*
X116169Y528388D01*
X118007Y527626D01*
X119996D01*
X121834Y528388D01*
X123240Y529794D01*
X124002Y531632D01*
Y533621D01*
X123240Y535459D01*
X121834Y536865D01*
X119996Y537626D01*
D02*
G37*
G36*
X763906Y531174D02*
Y526973D01*
X768107D01*
X767333Y528841D01*
X765775Y530400D01*
X763906Y531174D01*
D02*
G37*
G36*
X761367D02*
X759498Y530400D01*
X757940Y528841D01*
X757166Y526973D01*
X761367D01*
Y531174D01*
D02*
G37*
G36*
X934750Y532109D02*
X929520D01*
Y525270D01*
X942692D01*
X942583Y526099D01*
X941773Y528055D01*
X940484Y529734D01*
X938805Y531023D01*
X936849Y531833D01*
X934750Y532109D01*
D02*
G37*
G36*
X926980D02*
X921750D01*
X919651Y531833D01*
X917695Y531023D01*
X916016Y529734D01*
X914727Y528055D01*
X913917Y526099D01*
X913808Y525270D01*
X926980D01*
Y532109D01*
D02*
G37*
G36*
X903700Y531605D02*
X897220D01*
Y525270D01*
X911138D01*
X911046Y525968D01*
X910286Y527803D01*
X909078Y529378D01*
X907503Y530586D01*
X905668Y531346D01*
X903700Y531605D01*
D02*
G37*
G36*
X894680D02*
X888200D01*
X886232Y531346D01*
X884398Y530586D01*
X882822Y529378D01*
X881614Y527803D01*
X880854Y525968D01*
X880762Y525270D01*
X894680D01*
Y531605D01*
D02*
G37*
G36*
X706057Y529405D02*
X701857D01*
Y525205D01*
X703725Y525979D01*
X705284Y527537D01*
X706057Y529405D01*
D02*
G37*
G36*
X699317D02*
X695117D01*
X695890Y527537D01*
X697449Y525979D01*
X699317Y525205D01*
Y529405D01*
D02*
G37*
G36*
X49979Y534902D02*
X47990D01*
X46152Y534141D01*
X44746Y532734D01*
X43985Y530896D01*
Y528907D01*
X44746Y527070D01*
X46152Y525663D01*
X47990Y524902D01*
X49979D01*
X51817Y525663D01*
X53224Y527070D01*
X53985Y528907D01*
Y530896D01*
X53224Y532734D01*
X51817Y534141D01*
X49979Y534902D01*
D02*
G37*
G36*
X802541Y526377D02*
Y522176D01*
X806742D01*
X805968Y524044D01*
X804409Y525603D01*
X802541Y526377D01*
D02*
G37*
G36*
X800001D02*
X798133Y525603D01*
X796575Y524044D01*
X795801Y522176D01*
X800001D01*
Y526377D01*
D02*
G37*
G36*
X23188Y525353D02*
X18987D01*
Y521152D01*
X20855Y521926D01*
X22414Y523484D01*
X23188Y525353D01*
D02*
G37*
G36*
X16447D02*
X12247D01*
X13021Y523484D01*
X14579Y521926D01*
X16447Y521152D01*
Y525353D01*
D02*
G37*
G36*
X768107Y524433D02*
X763906D01*
Y520233D01*
X765775Y521007D01*
X767333Y522565D01*
X768107Y524433D01*
D02*
G37*
G36*
X761367D02*
X757166D01*
X757940Y522565D01*
X759498Y521007D01*
X761367Y520233D01*
Y524433D01*
D02*
G37*
G36*
X253970Y528377D02*
X251981D01*
X250144Y527616D01*
X248737Y526210D01*
X247976Y524372D01*
Y522383D01*
X248737Y520545D01*
X250144Y519139D01*
X251981Y518377D01*
X253970D01*
X255808Y519139D01*
X257215Y520545D01*
X257976Y522383D01*
Y524372D01*
X257215Y526210D01*
X255808Y527616D01*
X253970Y528377D01*
D02*
G37*
G36*
X806742Y519636D02*
X802541D01*
Y515436D01*
X804409Y516210D01*
X805968Y517768D01*
X806742Y519636D01*
D02*
G37*
G36*
X800001D02*
X795801D01*
X796575Y517768D01*
X798133Y516210D01*
X800001Y515436D01*
Y519636D01*
D02*
G37*
G36*
X777649Y518857D02*
Y514657D01*
X781850D01*
X781076Y516525D01*
X779517Y518083D01*
X777649Y518857D01*
D02*
G37*
G36*
X775109D02*
X773241Y518083D01*
X771683Y516525D01*
X770909Y514657D01*
X775109D01*
Y518857D01*
D02*
G37*
G36*
X118811Y521753D02*
X116821D01*
X114984Y520992D01*
X113577Y519585D01*
X112816Y517747D01*
Y515758D01*
X113577Y513921D01*
X114984Y512514D01*
X116821Y511753D01*
X118811D01*
X120648Y512514D01*
X122055Y513921D01*
X122816Y515758D01*
Y517747D01*
X122055Y519585D01*
X120648Y520992D01*
X118811Y521753D01*
D02*
G37*
G36*
X821127Y515304D02*
Y511104D01*
X825327D01*
X824554Y512972D01*
X822995Y514530D01*
X821127Y515304D01*
D02*
G37*
G36*
X818587D02*
X816719Y514530D01*
X815160Y512972D01*
X814387Y511104D01*
X818587D01*
Y515304D01*
D02*
G37*
G36*
X738150Y518755D02*
X736161D01*
X734324Y517994D01*
X732917Y516588D01*
X732156Y514750D01*
Y512761D01*
X732917Y510923D01*
X734324Y509517D01*
X736161Y508755D01*
X738150D01*
X739988Y509517D01*
X741395Y510923D01*
X742156Y512761D01*
Y514750D01*
X741395Y516588D01*
X739988Y517994D01*
X738150Y518755D01*
D02*
G37*
G36*
X781850Y512117D02*
X777649D01*
Y507916D01*
X779517Y508690D01*
X781076Y510249D01*
X781850Y512117D01*
D02*
G37*
G36*
X775109D02*
X770909D01*
X771683Y510249D01*
X773241Y508690D01*
X775109Y507916D01*
Y512117D01*
D02*
G37*
G36*
X22167Y508606D02*
Y504406D01*
X26367D01*
X25594Y506274D01*
X24035Y507833D01*
X22167Y508606D01*
D02*
G37*
G36*
X19627D02*
X17759Y507833D01*
X16200Y506274D01*
X15427Y504406D01*
X19627D01*
Y508606D01*
D02*
G37*
G36*
X825327Y508564D02*
X821127D01*
Y504364D01*
X822995Y505137D01*
X824554Y506696D01*
X825327Y508564D01*
D02*
G37*
G36*
X818587D02*
X814387D01*
X815160Y506696D01*
X816719Y505137D01*
X818587Y504364D01*
Y508564D01*
D02*
G37*
G36*
X681312Y508180D02*
Y503980D01*
X685512D01*
X684738Y505848D01*
X683180Y507406D01*
X681312Y508180D01*
D02*
G37*
G36*
X678772D02*
X676904Y507406D01*
X675345Y505848D01*
X674571Y503980D01*
X678772D01*
Y508180D01*
D02*
G37*
G36*
X26367Y501866D02*
X22167D01*
Y497666D01*
X24035Y498439D01*
X25594Y499998D01*
X26367Y501866D01*
D02*
G37*
G36*
X19627D02*
X15427D01*
X16200Y499998D01*
X17759Y498439D01*
X19627Y497666D01*
Y501866D01*
D02*
G37*
G36*
X685512Y501440D02*
X681312D01*
Y497239D01*
X683180Y498013D01*
X684738Y499572D01*
X685512Y501440D01*
D02*
G37*
G36*
X678772D02*
X674571D01*
X675345Y499572D01*
X676904Y498013D01*
X678772Y497239D01*
Y501440D01*
D02*
G37*
G36*
X574318Y510711D02*
X572328D01*
X570491Y509950D01*
X569566Y509025D01*
X171561D01*
X170293Y508773D01*
X169218Y508055D01*
X157779Y496616D01*
X147854D01*
X147328Y497886D01*
X147632Y498189D01*
X148393Y500027D01*
Y502016D01*
X147632Y503854D01*
X146225Y505261D01*
X144387Y506022D01*
X142398D01*
X140560Y505261D01*
X139154Y503854D01*
X138393Y502016D01*
Y500027D01*
X139154Y498189D01*
X139457Y497886D01*
X138931Y496616D01*
X130555D01*
X129630Y497541D01*
X127792Y498302D01*
X125803D01*
X123965Y497541D01*
X122559Y496135D01*
X121798Y494297D01*
Y492308D01*
X122559Y490470D01*
X123965Y489063D01*
X125803Y488302D01*
X127792D01*
X129630Y489063D01*
X130555Y489989D01*
X159152D01*
X160420Y490241D01*
X161495Y490959D01*
X172933Y502398D01*
X569566D01*
X570491Y501473D01*
X572328Y500711D01*
X574318D01*
X576155Y501473D01*
X577562Y502879D01*
X578323Y504717D01*
Y506706D01*
X577562Y508544D01*
X576155Y509950D01*
X574318Y510711D01*
D02*
G37*
G36*
X843826Y499107D02*
X841837D01*
X840000Y498346D01*
X838593Y496940D01*
X837832Y495102D01*
Y493113D01*
X838593Y491275D01*
X840000Y489869D01*
X841837Y489107D01*
X843826D01*
X845664Y489869D01*
X847071Y491275D01*
X847832Y493113D01*
Y495102D01*
X847071Y496940D01*
X845664Y498346D01*
X843826Y499107D01*
D02*
G37*
G36*
X701156Y489485D02*
X699288Y488711D01*
X697729Y487153D01*
X696955Y485285D01*
X701156D01*
Y489485D01*
D02*
G37*
G36*
X716034Y489306D02*
Y485106D01*
X720235D01*
X719461Y486974D01*
X717902Y488532D01*
X716034Y489306D01*
D02*
G37*
G36*
X676835Y493031D02*
X674846D01*
X673008Y492270D01*
X671601Y490863D01*
X670840Y489025D01*
Y487036D01*
X671601Y485199D01*
X673008Y483792D01*
X674846Y483031D01*
X676835D01*
X678672Y483792D01*
X680079Y485199D01*
X680840Y487036D01*
Y489025D01*
X680079Y490863D01*
X678672Y492270D01*
X676835Y493031D01*
D02*
G37*
G36*
X111318Y484833D02*
Y480633D01*
X115518D01*
X114745Y482501D01*
X113186Y484060D01*
X111318Y484833D01*
D02*
G37*
G36*
X108778D02*
X106910Y484060D01*
X105351Y482501D01*
X104578Y480633D01*
X108778D01*
Y484833D01*
D02*
G37*
G36*
X197211Y498984D02*
X195222D01*
X193384Y498222D01*
X191977Y496816D01*
X191216Y494978D01*
Y492989D01*
X191977Y491151D01*
X193384Y489745D01*
X195222Y488984D01*
X197211D01*
X199048Y489745D01*
X199953Y490650D01*
X539912D01*
X548388Y482173D01*
Y480894D01*
X549149Y479056D01*
X550556Y477650D01*
X552393Y476889D01*
X554383D01*
X556220Y477650D01*
X557627Y479056D01*
X558388Y480894D01*
Y482883D01*
X557627Y484721D01*
X556220Y486127D01*
X554383Y486888D01*
X553103D01*
X543650Y496341D01*
X542569Y497064D01*
X541293Y497318D01*
X199953D01*
X199048Y498222D01*
X197211Y498984D01*
D02*
G37*
G36*
X115518Y478093D02*
X111318D01*
Y473893D01*
X113186Y474666D01*
X114745Y476225D01*
X115518Y478093D01*
D02*
G37*
G36*
X108778D02*
X104578D01*
X105351Y476225D01*
X106910Y474666D01*
X108778Y473893D01*
Y478093D01*
D02*
G37*
G36*
X703696Y489485D02*
Y484015D01*
X702426D01*
Y482745D01*
X696955D01*
X697729Y480877D01*
X699288Y479318D01*
X700960Y478625D01*
X701001Y478103D01*
X700834Y477303D01*
X699019Y476552D01*
X697461Y474993D01*
X696687Y473125D01*
X707628D01*
X706854Y474993D01*
X705296Y476552D01*
X703624Y477244D01*
X703583Y477766D01*
X703750Y478567D01*
X705564Y479318D01*
X707122Y480877D01*
X707966Y482913D01*
X709224Y482885D01*
Y482734D01*
X710068Y480698D01*
X711626Y479139D01*
X713422Y478396D01*
X713590Y477522D01*
X713548Y477073D01*
X712073Y476462D01*
X710515Y474904D01*
X709741Y473036D01*
X720682D01*
X719908Y474904D01*
X718349Y476462D01*
X716554Y477206D01*
X716386Y478079D01*
X716428Y478528D01*
X717902Y479139D01*
X719461Y480698D01*
X720235Y482566D01*
X714764D01*
Y483836D01*
X713494D01*
Y489306D01*
X711626Y488532D01*
X710068Y486974D01*
X709224Y484938D01*
X707966Y484966D01*
Y485117D01*
X707122Y487153D01*
X705564Y488711D01*
X703696Y489485D01*
D02*
G37*
G36*
X827716Y482127D02*
X825727D01*
X823889Y481366D01*
X822482Y479960D01*
X821721Y478122D01*
Y476133D01*
X822482Y474295D01*
X823889Y472889D01*
X825727Y472127D01*
X827716D01*
X829554Y472889D01*
X830960Y474295D01*
X831721Y476133D01*
Y478122D01*
X830960Y479960D01*
X829554Y481366D01*
X827716Y482127D01*
D02*
G37*
G36*
X372060Y476949D02*
X370071D01*
X368233Y476187D01*
X366826Y474781D01*
X366065Y472943D01*
Y470954D01*
X366826Y469116D01*
X368233Y467710D01*
X370071Y466949D01*
X372060D01*
X373898Y467710D01*
X375304Y469116D01*
X376065Y470954D01*
Y472943D01*
X375304Y474781D01*
X373898Y476187D01*
X372060Y476949D01*
D02*
G37*
G36*
X707628Y470585D02*
X703428D01*
Y466385D01*
X705296Y467159D01*
X706854Y468717D01*
X707628Y470585D01*
D02*
G37*
G36*
X700888D02*
X696687D01*
X697461Y468717D01*
X699019Y467159D01*
X700888Y466385D01*
Y470585D01*
D02*
G37*
G36*
X720682Y470496D02*
X716481D01*
Y466295D01*
X718349Y467069D01*
X719908Y468628D01*
X720682Y470496D01*
D02*
G37*
G36*
X713941D02*
X709741D01*
X710515Y468628D01*
X712073Y467069D01*
X713941Y466295D01*
Y470496D01*
D02*
G37*
G36*
X675745Y472366D02*
X674054D01*
X672492Y471719D01*
X671296Y470523D01*
X670649Y468961D01*
Y467270D01*
X671296Y465708D01*
X672492Y464513D01*
X674054Y463866D01*
X675745D01*
X677307Y464513D01*
X678502Y465708D01*
X679149Y467270D01*
Y468961D01*
X678502Y470523D01*
X677307Y471719D01*
X675745Y472366D01*
D02*
G37*
G36*
X875765Y485788D02*
X873776D01*
X871938Y485027D01*
X870532Y483620D01*
X869771Y481782D01*
Y479793D01*
X870532Y477956D01*
X871938Y476549D01*
X871963Y476539D01*
Y471772D01*
X871930Y471759D01*
X870524Y470352D01*
X869762Y468515D01*
Y466525D01*
X870524Y464688D01*
X871930Y463281D01*
X873768Y462520D01*
X875757D01*
X877595Y463281D01*
X879001Y464688D01*
X879762Y466525D01*
Y468515D01*
X879001Y470352D01*
X877595Y471759D01*
X877570Y471769D01*
Y476535D01*
X877603Y476549D01*
X879009Y477956D01*
X879771Y479793D01*
Y481782D01*
X879009Y483620D01*
X877603Y485027D01*
X875765Y485788D01*
D02*
G37*
G36*
X818348Y460337D02*
Y456137D01*
X822549D01*
X821775Y458005D01*
X820216Y459563D01*
X818348Y460337D01*
D02*
G37*
G36*
X815808D02*
X813940Y459563D01*
X812382Y458005D01*
X811608Y456137D01*
X815808D01*
Y460337D01*
D02*
G37*
G36*
X868669Y526946D02*
X866680D01*
X864842Y526185D01*
X863436Y524779D01*
X862675Y522941D01*
Y521272D01*
X859930Y518527D01*
X859267Y517535D01*
X859034Y516365D01*
X859034Y516364D01*
Y464015D01*
X857854Y462835D01*
X857093Y460998D01*
Y459008D01*
X857854Y457171D01*
X859261Y455764D01*
X861098Y455003D01*
X863087D01*
X864925Y455764D01*
X866332Y457171D01*
X867093Y459008D01*
Y460998D01*
X866332Y462835D01*
X865152Y464015D01*
Y515098D01*
X867001Y516946D01*
X868669D01*
X870507Y517707D01*
X871914Y519114D01*
X872675Y520952D01*
Y522941D01*
X871914Y524779D01*
X870507Y526185D01*
X868669Y526946D01*
D02*
G37*
G36*
X822549Y453597D02*
X818348D01*
Y449397D01*
X820216Y450170D01*
X821775Y451729D01*
X822549Y453597D01*
D02*
G37*
G36*
X815808D02*
X811608D01*
X812382Y451729D01*
X813940Y450170D01*
X815808Y449397D01*
Y453597D01*
D02*
G37*
G36*
X688273Y454249D02*
X686283D01*
X684446Y453488D01*
X683039Y452081D01*
X682278Y450243D01*
Y448254D01*
X683039Y446417D01*
X684446Y445010D01*
X686283Y444249D01*
X688273D01*
X690110Y445010D01*
X691517Y446417D01*
X692278Y448254D01*
Y450243D01*
X691517Y452081D01*
X690110Y453488D01*
X688273Y454249D01*
D02*
G37*
G36*
X828934Y450981D02*
X826944D01*
X825107Y450220D01*
X823700Y448814D01*
X822939Y446976D01*
Y444987D01*
X823700Y443149D01*
X825107Y441743D01*
X826944Y440981D01*
X828934D01*
X830771Y441743D01*
X832178Y443149D01*
X832939Y444987D01*
Y446976D01*
X832178Y448814D01*
X830771Y450220D01*
X828934Y450981D01*
D02*
G37*
G36*
X797264Y440556D02*
Y436356D01*
X801464D01*
X800690Y438224D01*
X799132Y439782D01*
X797264Y440556D01*
D02*
G37*
G36*
X794724D02*
X792856Y439782D01*
X791297Y438224D01*
X790523Y436356D01*
X794724D01*
Y440556D01*
D02*
G37*
G36*
X31422Y442960D02*
X29433D01*
X27595Y442199D01*
X26690Y441294D01*
X5839D01*
X4563Y441040D01*
X3481Y440317D01*
X455Y437291D01*
X-268Y436209D01*
X-522Y434934D01*
Y419900D01*
X-8650D01*
Y390900D01*
X2766D01*
Y373487D01*
X3020Y372211D01*
X3742Y371129D01*
X21941Y352930D01*
X23023Y352207D01*
X24299Y351953D01*
X376903D01*
X378179Y352207D01*
X379261Y352930D01*
X401801Y375470D01*
X402523Y376551D01*
X402777Y377827D01*
Y390900D01*
X410850D01*
Y402066D01*
X412891D01*
X413330Y399858D01*
X414762Y396400D01*
X416842Y393288D01*
X419360Y390770D01*
X419211Y389729D01*
X419142Y389500D01*
X418749D01*
X416333Y388853D01*
X414167Y387602D01*
X412398Y385833D01*
X411147Y383667D01*
X410500Y381251D01*
Y378749D01*
X411147Y376333D01*
X412398Y374167D01*
X414167Y372398D01*
X416333Y371147D01*
X418749Y370500D01*
X421251D01*
X423667Y371147D01*
X425833Y372398D01*
X427602Y374167D01*
X428853Y376333D01*
X429500Y378749D01*
Y381251D01*
X428853Y383667D01*
X427801Y385489D01*
X428462Y386652D01*
X429729Y386400D01*
X433471D01*
X437142Y387130D01*
X440600Y388562D01*
X443712Y390642D01*
X446358Y393288D01*
X448438Y396400D01*
X449870Y399858D01*
X450600Y403529D01*
Y407271D01*
X449870Y410942D01*
X448438Y414400D01*
X446358Y417512D01*
X443712Y420158D01*
X440600Y422238D01*
X437142Y423670D01*
X433471Y424400D01*
X429729D01*
X426058Y423670D01*
X422600Y422238D01*
X419488Y420158D01*
X416842Y417512D01*
X414762Y414400D01*
X413330Y410942D01*
X412891Y408734D01*
X410850D01*
Y419900D01*
X381350D01*
Y390900D01*
X396109D01*
Y379208D01*
X375522Y358621D01*
X281358D01*
X281108Y359866D01*
X284918Y361444D01*
X288348Y363736D01*
X291264Y366652D01*
X293556Y370082D01*
X295134Y373892D01*
X295939Y377938D01*
Y382062D01*
X295134Y386108D01*
X293556Y389918D01*
X291264Y393348D01*
X288348Y396264D01*
X284918Y398556D01*
X281108Y400134D01*
X277062Y400939D01*
X272938D01*
X268892Y400134D01*
X265082Y398556D01*
X261652Y396264D01*
X258736Y393348D01*
X256444Y389918D01*
X254866Y386108D01*
X254061Y382062D01*
Y377938D01*
X254866Y373892D01*
X256444Y370082D01*
X258736Y366652D01*
X261652Y363736D01*
X265082Y361444D01*
X268892Y359866D01*
X268642Y358621D01*
X195861D01*
X195375Y359795D01*
X203458Y367877D01*
X204180Y368959D01*
X204434Y370235D01*
Y390900D01*
X215850D01*
Y402066D01*
X217891D01*
X218330Y399858D01*
X219762Y396400D01*
X221842Y393288D01*
X224360Y390770D01*
X224211Y389729D01*
X224142Y389500D01*
X223749D01*
X221333Y388853D01*
X219167Y387602D01*
X217398Y385833D01*
X216147Y383667D01*
X215500Y381251D01*
Y378749D01*
X216147Y376333D01*
X217398Y374167D01*
X219167Y372398D01*
X221333Y371147D01*
X223749Y370500D01*
X226251D01*
X228667Y371147D01*
X230833Y372398D01*
X232602Y374167D01*
X233853Y376333D01*
X234500Y378749D01*
Y381251D01*
X233853Y383667D01*
X232801Y385489D01*
X233462Y386652D01*
X234729Y386400D01*
X238471D01*
X242142Y387130D01*
X245600Y388562D01*
X248712Y390642D01*
X251358Y393288D01*
X253438Y396400D01*
X254870Y399858D01*
X255600Y403529D01*
Y407271D01*
X254870Y410942D01*
X253438Y414400D01*
X251358Y417512D01*
X248712Y420158D01*
X245600Y422238D01*
X242142Y423670D01*
X238471Y424400D01*
X234729D01*
X231058Y423670D01*
X227600Y422238D01*
X224488Y420158D01*
X221842Y417512D01*
X219762Y414400D01*
X218330Y410942D01*
X217891Y408734D01*
X215850D01*
Y419900D01*
X186350D01*
Y390900D01*
X197766D01*
Y371616D01*
X184772Y358621D01*
X86358D01*
X86108Y359866D01*
X89918Y361444D01*
X93348Y363736D01*
X96264Y366652D01*
X98556Y370082D01*
X100134Y373892D01*
X100939Y377938D01*
Y382062D01*
X100134Y386108D01*
X98556Y389918D01*
X96264Y393348D01*
X93348Y396264D01*
X89918Y398556D01*
X86108Y400134D01*
X82062Y400939D01*
X77938D01*
X73892Y400134D01*
X70082Y398556D01*
X66652Y396264D01*
X63736Y393348D01*
X61444Y389918D01*
X59866Y386108D01*
X59061Y382062D01*
Y377938D01*
X59866Y373892D01*
X61444Y370082D01*
X63736Y366652D01*
X66652Y363736D01*
X70082Y361444D01*
X73892Y359866D01*
X73642Y358621D01*
X25680D01*
X9434Y374868D01*
Y390900D01*
X20850D01*
Y402066D01*
X22891D01*
X23330Y399858D01*
X24762Y396400D01*
X26842Y393288D01*
X29360Y390770D01*
X29211Y389729D01*
X29142Y389500D01*
X28749D01*
X26333Y388853D01*
X24167Y387602D01*
X22398Y385833D01*
X21147Y383667D01*
X20500Y381251D01*
Y378749D01*
X21147Y376333D01*
X22398Y374167D01*
X24167Y372398D01*
X26333Y371147D01*
X28749Y370500D01*
X31251D01*
X33667Y371147D01*
X35833Y372398D01*
X37602Y374167D01*
X38853Y376333D01*
X39500Y378749D01*
Y381251D01*
X38853Y383667D01*
X37801Y385489D01*
X38462Y386652D01*
X39729Y386400D01*
X43471D01*
X47142Y387130D01*
X50600Y388562D01*
X53712Y390642D01*
X56358Y393288D01*
X58438Y396400D01*
X59870Y399858D01*
X60600Y403529D01*
Y407271D01*
X59870Y410942D01*
X58438Y414400D01*
X56358Y417512D01*
X53712Y420158D01*
X50600Y422238D01*
X47142Y423670D01*
X43471Y424400D01*
X39729D01*
X36058Y423670D01*
X32600Y422238D01*
X29488Y420158D01*
X26842Y417512D01*
X24762Y414400D01*
X23330Y410942D01*
X22891Y408734D01*
X20850D01*
Y419900D01*
X6146D01*
Y433553D01*
X7220Y434626D01*
X26690D01*
X27595Y433721D01*
X29433Y432960D01*
X31422D01*
X33260Y433721D01*
X34666Y435128D01*
X35427Y436965D01*
Y438955D01*
X34666Y440792D01*
X33260Y442199D01*
X31422Y442960D01*
D02*
G37*
G36*
X801464Y433815D02*
X797264D01*
Y429615D01*
X799132Y430389D01*
X800690Y431947D01*
X801464Y433815D01*
D02*
G37*
G36*
X794724D02*
X790523D01*
X791297Y431947D01*
X792856Y430389D01*
X794724Y429615D01*
Y433815D01*
D02*
G37*
G36*
X829216Y430446D02*
Y426245D01*
X833416D01*
X832642Y428113D01*
X831084Y429672D01*
X829216Y430446D01*
D02*
G37*
G36*
X826676D02*
X824808Y429672D01*
X823249Y428113D01*
X822475Y426245D01*
X826676D01*
Y430446D01*
D02*
G37*
G36*
X862600Y430064D02*
Y425864D01*
X866800D01*
X866027Y427732D01*
X864468Y429290D01*
X862600Y430064D01*
D02*
G37*
G36*
X860060D02*
X858192Y429290D01*
X856633Y427732D01*
X855860Y425864D01*
X860060D01*
Y430064D01*
D02*
G37*
G36*
X833416Y423705D02*
X829216D01*
Y419505D01*
X831084Y420279D01*
X832642Y421837D01*
X833416Y423705D01*
D02*
G37*
G36*
X826676D02*
X822475D01*
X823249Y421837D01*
X824808Y420279D01*
X826676Y419505D01*
Y423705D01*
D02*
G37*
G36*
X866800Y423324D02*
X862600D01*
Y419123D01*
X864468Y419897D01*
X866027Y421455D01*
X866800Y423324D01*
D02*
G37*
G36*
X860060D02*
X855860D01*
X856633Y421455D01*
X858192Y419897D01*
X860060Y419123D01*
Y423324D01*
D02*
G37*
G36*
X496971Y449800D02*
X493229D01*
X489558Y449070D01*
X486100Y447637D01*
X482988Y445558D01*
X480342Y442912D01*
X478262Y439800D01*
X476830Y436342D01*
X476100Y432671D01*
Y428929D01*
X476830Y425258D01*
X478262Y421800D01*
X480342Y418688D01*
X482988Y416042D01*
X484238Y415207D01*
X483853Y413937D01*
X469197D01*
X466834Y416300D01*
Y417608D01*
X466073Y419446D01*
X464667Y420852D01*
X462829Y421613D01*
X460840D01*
X459002Y420852D01*
X457596Y419446D01*
X456834Y417608D01*
Y415619D01*
X457596Y413781D01*
X459002Y412374D01*
X460840Y411613D01*
X462148D01*
X465482Y408280D01*
X466557Y407561D01*
X467825Y407309D01*
X689544D01*
X691970Y404883D01*
Y403575D01*
X692731Y401737D01*
X694138Y400331D01*
X695975Y399569D01*
X697965D01*
X699802Y400331D01*
X701209Y401737D01*
X701970Y403575D01*
Y405564D01*
X701209Y407402D01*
X699802Y408808D01*
X697965Y409569D01*
X696656D01*
X693260Y412966D01*
X692185Y413684D01*
X690916Y413937D01*
X506347D01*
X505962Y415207D01*
X507212Y416042D01*
X509858Y418688D01*
X511938Y421800D01*
X513370Y425258D01*
X513809Y427466D01*
X515850D01*
Y416300D01*
X545350D01*
Y433268D01*
X545448Y433504D01*
Y435493D01*
X545350Y435729D01*
Y445300D01*
X515850D01*
Y434134D01*
X513809D01*
X513370Y436342D01*
X511938Y439800D01*
X509858Y442912D01*
X507212Y445558D01*
X504100Y447637D01*
X500642Y449070D01*
X496971Y449800D01*
D02*
G37*
G36*
X301971D02*
X298229D01*
X294558Y449070D01*
X291100Y447637D01*
X287988Y445558D01*
X285342Y442912D01*
X283263Y439800D01*
X281830Y436342D01*
X281100Y432671D01*
Y428929D01*
X281830Y425258D01*
X283263Y421800D01*
X285342Y418688D01*
X287988Y416042D01*
X291100Y413962D01*
X294558Y412530D01*
X298229Y411800D01*
X301971D01*
X305642Y412530D01*
X309100Y413962D01*
X312212Y416042D01*
X314858Y418688D01*
X316938Y421800D01*
X318370Y425258D01*
X318809Y427466D01*
X320850D01*
Y416300D01*
X350350D01*
Y445300D01*
X320850D01*
Y434134D01*
X318809D01*
X318370Y436342D01*
X316938Y439800D01*
X314858Y442912D01*
X312212Y445558D01*
X309100Y447637D01*
X305642Y449070D01*
X301971Y449800D01*
D02*
G37*
G36*
X106971D02*
X103229D01*
X99558Y449070D01*
X96100Y447637D01*
X92988Y445558D01*
X90342Y442912D01*
X88262Y439800D01*
X86830Y436342D01*
X86100Y432671D01*
Y428929D01*
X86830Y425258D01*
X88262Y421800D01*
X90342Y418688D01*
X92988Y416042D01*
X96100Y413962D01*
X99558Y412530D01*
X103229Y411800D01*
X106971D01*
X110642Y412530D01*
X114100Y413962D01*
X117212Y416042D01*
X119858Y418688D01*
X121938Y421800D01*
X123370Y425258D01*
X123809Y427466D01*
X125850D01*
Y416300D01*
X155350D01*
Y445300D01*
X125850D01*
Y434134D01*
X123809D01*
X123370Y436342D01*
X121938Y439800D01*
X119858Y442912D01*
X117212Y445558D01*
X114100Y447637D01*
X110642Y449070D01*
X106971Y449800D01*
D02*
G37*
G36*
X911138Y414730D02*
X897220D01*
Y408395D01*
X903700D01*
X905668Y408654D01*
X907503Y409414D01*
X909078Y410622D01*
X910286Y412197D01*
X911046Y414032D01*
X911138Y414730D01*
D02*
G37*
G36*
X894680D02*
X880762D01*
X880854Y414032D01*
X881614Y412197D01*
X882822Y410622D01*
X884398Y409414D01*
X886232Y408654D01*
X888200Y408395D01*
X894680D01*
Y414730D01*
D02*
G37*
G36*
X942692Y414730D02*
X929520D01*
Y407891D01*
X934750D01*
X936849Y408167D01*
X938805Y408977D01*
X940484Y410266D01*
X941773Y411945D01*
X942583Y413901D01*
X942692Y414730D01*
D02*
G37*
G36*
X926980D02*
X913808D01*
X913917Y413901D01*
X914727Y411945D01*
X916016Y410266D01*
X917695Y408977D01*
X919651Y408167D01*
X921750Y407891D01*
X926980D01*
Y414730D01*
D02*
G37*
G36*
X829436Y410638D02*
X827446D01*
X825609Y409877D01*
X824202Y408471D01*
X823441Y406633D01*
Y404644D01*
X824202Y402806D01*
X825609Y401399D01*
X827446Y400638D01*
X829436D01*
X831273Y401399D01*
X832680Y402806D01*
X833441Y404644D01*
Y406633D01*
X832680Y408471D01*
X831273Y409877D01*
X829436Y410638D01*
D02*
G37*
G36*
X651598Y404213D02*
X649609D01*
X647772Y403452D01*
X646365Y402046D01*
X645604Y400208D01*
Y398219D01*
X646365Y396381D01*
X647772Y394975D01*
X649609Y394213D01*
X651598D01*
X653436Y394975D01*
X654843Y396381D01*
X655604Y398219D01*
Y400208D01*
X654843Y402046D01*
X653436Y403452D01*
X651598Y404213D01*
D02*
G37*
G36*
X521251Y389500D02*
X518749D01*
X516333Y388853D01*
X514167Y387602D01*
X512398Y385833D01*
X511147Y383667D01*
X510500Y381251D01*
Y378749D01*
X511147Y376333D01*
X512398Y374167D01*
X514167Y372398D01*
X516333Y371147D01*
X518749Y370500D01*
X521251D01*
X523667Y371147D01*
X525833Y372398D01*
X527602Y374167D01*
X528853Y376333D01*
X529500Y378749D01*
Y381251D01*
X528853Y383667D01*
X527602Y385833D01*
X525833Y387602D01*
X523667Y388853D01*
X521251Y389500D01*
D02*
G37*
G36*
X326251D02*
X323749D01*
X321333Y388853D01*
X319167Y387602D01*
X317398Y385833D01*
X316147Y383667D01*
X315500Y381251D01*
Y378749D01*
X316147Y376333D01*
X317398Y374167D01*
X319167Y372398D01*
X321333Y371147D01*
X323749Y370500D01*
X326251D01*
X328667Y371147D01*
X330833Y372398D01*
X332602Y374167D01*
X333853Y376333D01*
X334500Y378749D01*
Y381251D01*
X333853Y383667D01*
X332602Y385833D01*
X330833Y387602D01*
X328667Y388853D01*
X326251Y389500D01*
D02*
G37*
G36*
X131251D02*
X128749D01*
X126333Y388853D01*
X124167Y387602D01*
X122398Y385833D01*
X121147Y383667D01*
X120500Y381251D01*
Y378749D01*
X121147Y376333D01*
X122398Y374167D01*
X124167Y372398D01*
X126333Y371147D01*
X128749Y370500D01*
X131251D01*
X133667Y371147D01*
X135833Y372398D01*
X137602Y374167D01*
X138853Y376333D01*
X139500Y378749D01*
Y381251D01*
X138853Y383667D01*
X137602Y385833D01*
X135833Y387602D01*
X133667Y388853D01*
X131251Y389500D01*
D02*
G37*
G36*
X472062Y400939D02*
X467938D01*
X463892Y400134D01*
X460082Y398556D01*
X456652Y396264D01*
X453736Y393348D01*
X451444Y389918D01*
X449866Y386108D01*
X449061Y382062D01*
Y377938D01*
X449866Y373892D01*
X451444Y370082D01*
X453736Y366652D01*
X456652Y363736D01*
X460082Y361444D01*
X463892Y359866D01*
X467938Y359061D01*
X472062D01*
X476108Y359866D01*
X479918Y361444D01*
X483348Y363736D01*
X486264Y366652D01*
X488556Y370082D01*
X490134Y373892D01*
X490939Y377938D01*
Y382062D01*
X490134Y386108D01*
X488556Y389918D01*
X486264Y393348D01*
X483348Y396264D01*
X479918Y398556D01*
X476108Y400134D01*
X472062Y400939D01*
D02*
G37*
G36*
X702752Y363889D02*
X700250D01*
X697834Y363241D01*
X695668Y361991D01*
X693899Y360222D01*
X692648Y358056D01*
X692001Y355639D01*
Y353138D01*
X692648Y350722D01*
X693899Y348556D01*
X695668Y346787D01*
X697834Y345536D01*
X700250Y344889D01*
X702752D01*
X705168Y345536D01*
X707334Y346787D01*
X709103Y348556D01*
X710354Y350722D01*
X711001Y353138D01*
Y355639D01*
X710354Y358056D01*
X709103Y360222D01*
X707334Y361991D01*
X705168Y363241D01*
X702752Y363889D01*
D02*
G37*
G36*
X661001D02*
X642001D01*
Y344889D01*
X661001D01*
Y363889D01*
D02*
G37*
G36*
X119356Y338740D02*
X116844D01*
X114418Y338090D01*
X112242Y336834D01*
X110466Y335058D01*
X109210Y332882D01*
X108560Y330456D01*
Y327983D01*
X108356Y327792D01*
X107468Y327279D01*
X106493Y328255D01*
Y330574D01*
X106770Y330851D01*
X107531Y332689D01*
Y334678D01*
X106770Y336516D01*
X105364Y337922D01*
X103526Y338684D01*
X101537D01*
X99699Y337922D01*
X98293Y336516D01*
X97531Y334678D01*
Y332689D01*
X98293Y330851D01*
X99699Y329445D01*
X99825Y329393D01*
Y326874D01*
X100078Y325598D01*
X100801Y324516D01*
X105760Y319557D01*
X105234Y318287D01*
X100542D01*
Y319988D01*
X100387Y320768D01*
X100387Y320768D01*
X100000Y321701D01*
X99558Y322363D01*
X98843Y323078D01*
X98182Y323520D01*
X97248Y323906D01*
X96468Y324062D01*
X64148D01*
X63368Y323906D01*
X63368Y323906D01*
X62434Y323520D01*
X61772Y323078D01*
X61058Y322363D01*
X60616Y321701D01*
X60229Y320768D01*
X60074Y319988D01*
Y318287D01*
X40091D01*
Y317554D01*
X39282Y316890D01*
X38036Y316708D01*
X37423Y316648D01*
X36807Y316461D01*
X33542Y315471D01*
X29964Y313558D01*
X26829Y310985D01*
X24256Y307850D01*
X22343Y304272D01*
X21166Y300391D01*
X20888Y297565D01*
X20768Y296354D01*
X20770Y296339D01*
X20780Y295069D01*
Y276266D01*
X4778D01*
Y276276D01*
X774Y275882D01*
X-3077Y274714D01*
X-6626Y272817D01*
X-9737Y270264D01*
X-12290Y267153D01*
X-14187Y263604D01*
X-15355Y259753D01*
X-15749Y255749D01*
X-15739D01*
Y129945D01*
X-15743D01*
X-15374Y125254D01*
X-14275Y120677D01*
X-12474Y116329D01*
X-10015Y112316D01*
X-6958Y108738D01*
X-3380Y105681D01*
X633Y103222D01*
X4981Y101421D01*
X9558Y100322D01*
X14250Y99953D01*
Y99957D01*
X38999D01*
Y98482D01*
X58982D01*
Y95624D01*
X38999D01*
Y83496D01*
X58982D01*
Y81851D01*
X59137Y81071D01*
X59524Y80137D01*
X59966Y79475D01*
X60680Y78761D01*
X61342Y78319D01*
X62276Y77932D01*
X63056Y77777D01*
X95376D01*
X96156Y77932D01*
X97090Y78319D01*
X97752Y78761D01*
X98466Y79475D01*
X98908Y80137D01*
X99295Y81071D01*
X99450Y81851D01*
X99911Y82956D01*
X107407D01*
Y89559D01*
Y96164D01*
X99450D01*
Y98482D01*
X119427D01*
Y98591D01*
X120600Y99077D01*
X133719Y85958D01*
X134800Y85235D01*
X136076Y84982D01*
X234949D01*
Y83539D01*
X254933D01*
Y81895D01*
X255088Y81114D01*
X255474Y80181D01*
X255917Y79519D01*
X256631Y78805D01*
X257293Y78362D01*
X258226Y77976D01*
X259007Y77821D01*
X291327D01*
X292107Y77976D01*
X293040Y78362D01*
X293702Y78805D01*
X294417Y79519D01*
X294858Y80181D01*
X295245Y81114D01*
X295401Y81895D01*
X295862Y82999D01*
X303357D01*
Y89603D01*
Y96207D01*
X295401D01*
Y98525D01*
X315377D01*
Y101255D01*
X364739D01*
X378734Y87261D01*
X379815Y86538D01*
X381091Y86284D01*
X430582D01*
Y83554D01*
X450565D01*
Y81910D01*
X450720Y81129D01*
X451107Y80196D01*
X451549Y79534D01*
X452264Y78820D01*
X452925Y78377D01*
X453859Y77991D01*
X454639Y77836D01*
X486959D01*
X487739Y77991D01*
X488673Y78377D01*
X489335Y78820D01*
X490049Y79534D01*
X490491Y80196D01*
X490878Y81129D01*
X491033Y81910D01*
X491494Y83014D01*
X498990D01*
Y89618D01*
Y96222D01*
X491033D01*
Y98540D01*
X511010D01*
Y110668D01*
X499820D01*
Y114592D01*
X501090Y115118D01*
X502242Y113966D01*
X504418Y112710D01*
X506844Y112060D01*
X509356D01*
X511782Y112710D01*
X513958Y113966D01*
X515734Y115742D01*
X516990Y117918D01*
X517640Y120344D01*
Y122856D01*
X516990Y125282D01*
X515734Y127458D01*
X513958Y129234D01*
X511782Y130490D01*
X509356Y131140D01*
X506844D01*
X504418Y130490D01*
X502242Y129234D01*
X501090Y128082D01*
X499820Y128608D01*
Y185054D01*
X499566Y186330D01*
X498844Y187411D01*
X448670Y237585D01*
Y290771D01*
X454569D01*
Y289126D01*
X454724Y288346D01*
X455111Y287412D01*
X455553Y286751D01*
X456268Y286036D01*
X456929Y285594D01*
X457863Y285208D01*
X458643Y285053D01*
X490963D01*
X491743Y285208D01*
X492677Y285594D01*
X493339Y286036D01*
X494053Y286751D01*
X494495Y287412D01*
X494882Y288346D01*
X495037Y289126D01*
X495498Y290231D01*
X502994D01*
Y296835D01*
Y303439D01*
X495037D01*
Y305757D01*
X515014D01*
Y308487D01*
X518709D01*
X518731Y308465D01*
X520568Y307704D01*
X522557D01*
X524395Y308465D01*
X525802Y309872D01*
X526563Y311709D01*
Y313699D01*
X525802Y315536D01*
X524395Y316943D01*
X522557Y317704D01*
X520568D01*
X518731Y316943D01*
X517324Y315536D01*
X517166Y315155D01*
X515014D01*
Y317885D01*
X495037D01*
Y319585D01*
X494882Y320366D01*
X494882Y320366D01*
X494495Y321299D01*
X494053Y321961D01*
X493339Y322675D01*
X492677Y323117D01*
X491743Y323504D01*
X490963Y323659D01*
X458643D01*
X457863Y323504D01*
X457863Y323504D01*
X456929Y323117D01*
X456268Y322675D01*
X455553Y321961D01*
X455111Y321299D01*
X454724Y320366D01*
X454569Y319585D01*
Y317885D01*
X434586D01*
Y316409D01*
X425305D01*
Y316410D01*
X420763Y316053D01*
X416332Y314989D01*
X412123Y313246D01*
X408238Y310865D01*
X404773Y307906D01*
X401814Y304441D01*
X399433Y300556D01*
X397689Y296346D01*
X396626Y291916D01*
X396268Y287374D01*
X396270D01*
Y265523D01*
X396257D01*
X396367Y264970D01*
X395858Y263739D01*
Y261750D01*
X396619Y259913D01*
X398025Y258506D01*
X399863Y257745D01*
X401852D01*
X403690Y258506D01*
X405097Y259913D01*
X405858Y261750D01*
Y262210D01*
X406090Y263376D01*
X406077D01*
Y264892D01*
X405728Y266648D01*
X405446Y267070D01*
Y287374D01*
X405408Y287565D01*
X405771Y291259D01*
X406905Y294995D01*
X408745Y298438D01*
X411222Y301457D01*
X414240Y303933D01*
X417683Y305774D01*
X421420Y306907D01*
X425113Y307271D01*
X425305Y307233D01*
X434586D01*
Y305757D01*
X454569D01*
Y302899D01*
X434586D01*
Y290771D01*
X442002D01*
Y236204D01*
X442256Y234928D01*
X442978Y233846D01*
X493152Y183673D01*
Y110668D01*
X491033D01*
Y112369D01*
X490878Y113149D01*
X490878Y113149D01*
X490491Y114082D01*
X490049Y114744D01*
X489335Y115458D01*
X488673Y115901D01*
X487739Y116287D01*
X486959Y116442D01*
X454639D01*
X453859Y116287D01*
X453859Y116287D01*
X452925Y115901D01*
X452264Y115458D01*
X451549Y114744D01*
X451107Y114082D01*
X450720Y113149D01*
X450565Y112369D01*
Y110668D01*
X430582D01*
Y109136D01*
X405658D01*
X404799Y109492D01*
X402810D01*
X400972Y108730D01*
X399566Y107324D01*
X398805Y105486D01*
Y103497D01*
X399566Y101659D01*
X400972Y100253D01*
X402810Y99492D01*
X404799D01*
X405929Y99960D01*
X430582D01*
Y98540D01*
X450565D01*
Y95682D01*
X430582D01*
Y92952D01*
X382472D01*
X368478Y106947D01*
X367396Y107669D01*
X366120Y107923D01*
X315377D01*
Y110653D01*
X295401D01*
Y112353D01*
X295245Y113134D01*
X295245Y113134D01*
X294858Y114067D01*
X294417Y114729D01*
X293702Y115443D01*
X293041Y115885D01*
X292107Y116272D01*
X291327Y116427D01*
X259007D01*
X258226Y116272D01*
X258226Y116272D01*
X257293Y115886D01*
X256631Y115443D01*
X255917Y114729D01*
X255474Y114067D01*
X255088Y113134D01*
X254933Y112353D01*
Y110653D01*
X234949D01*
Y109177D01*
X219871D01*
X219580Y109468D01*
X217743Y110229D01*
X215753D01*
X213916Y109468D01*
X212509Y108061D01*
X211748Y106224D01*
Y104235D01*
X212509Y102397D01*
X213916Y100990D01*
X215753Y100229D01*
X216178D01*
X217388Y99988D01*
Y100001D01*
X234949D01*
Y98525D01*
X254933D01*
Y95667D01*
X234949D01*
Y91650D01*
X137457D01*
X122204Y106903D01*
X121122Y107626D01*
X119846Y107879D01*
X119427D01*
Y110610D01*
X99450D01*
Y112310D01*
X99295Y113090D01*
X99295Y113090D01*
X98908Y114024D01*
X98466Y114685D01*
X97752Y115400D01*
X97090Y115842D01*
X96156Y116229D01*
X95376Y116384D01*
X63056D01*
X62276Y116229D01*
X62276Y116229D01*
X61342Y115842D01*
X60680Y115400D01*
X59966Y114685D01*
X59524Y114024D01*
X59137Y113090D01*
X58982Y112310D01*
Y110610D01*
X38999D01*
Y109134D01*
X14250D01*
X14042Y109092D01*
X10177Y109473D01*
X6262Y110661D01*
X2653Y112590D01*
X-510Y115186D01*
X-3106Y118349D01*
X-5035Y121958D01*
X-6223Y125873D01*
X-6604Y129738D01*
X-6562Y129945D01*
Y183297D01*
X2766D01*
Y162307D01*
X3020Y161031D01*
X3742Y159950D01*
X23451Y140241D01*
X24532Y139519D01*
X25808Y139265D01*
X27658D01*
X27785Y139290D01*
X27912Y139265D01*
X383039D01*
X384315Y139519D01*
X385397Y140241D01*
X398457Y153302D01*
X399180Y154384D01*
X399434Y155660D01*
Y183300D01*
X410850D01*
Y194466D01*
X412891D01*
X413330Y192258D01*
X414762Y188800D01*
X416842Y185688D01*
X419360Y183170D01*
X419211Y182129D01*
X419142Y181900D01*
X418749D01*
X416333Y181253D01*
X414167Y180002D01*
X412398Y178233D01*
X411147Y176067D01*
X410500Y173651D01*
Y171149D01*
X411147Y168733D01*
X412398Y166567D01*
X414167Y164798D01*
X416333Y163547D01*
X418749Y162900D01*
X421251D01*
X423667Y163547D01*
X425833Y164798D01*
X427602Y166567D01*
X428853Y168733D01*
X429500Y171149D01*
Y173651D01*
X428853Y176067D01*
X427801Y177889D01*
X428462Y179052D01*
X429729Y178800D01*
X433471D01*
X437142Y179530D01*
X440600Y180962D01*
X443712Y183042D01*
X446358Y185688D01*
X448438Y188800D01*
X449870Y192258D01*
X450600Y195929D01*
Y199671D01*
X449870Y203342D01*
X448438Y206800D01*
X446358Y209912D01*
X443712Y212558D01*
X440600Y214638D01*
X437142Y216070D01*
X433471Y216800D01*
X429729D01*
X426058Y216070D01*
X422600Y214638D01*
X419488Y212558D01*
X416842Y209912D01*
X414762Y206800D01*
X413330Y203342D01*
X412891Y201134D01*
X410850D01*
Y212300D01*
X381350D01*
Y183300D01*
X392766D01*
Y157041D01*
X381658Y145933D01*
X176143D01*
X175657Y147106D01*
X203458Y174907D01*
X204180Y175988D01*
X204434Y177264D01*
Y183300D01*
X215850D01*
Y194466D01*
X217891D01*
X218330Y192258D01*
X219762Y188801D01*
X221842Y185689D01*
X224360Y183170D01*
X224211Y182129D01*
X224142Y181900D01*
X223749D01*
X221333Y181253D01*
X219167Y180002D01*
X217398Y178234D01*
X216147Y176067D01*
X215500Y173651D01*
Y171150D01*
X216147Y168734D01*
X217398Y166567D01*
X219167Y164799D01*
X221333Y163548D01*
X223749Y162901D01*
X226251D01*
X228667Y163548D01*
X230833Y164799D01*
X232602Y166567D01*
X233853Y168734D01*
X234500Y171150D01*
Y173651D01*
X233853Y176067D01*
X232801Y177889D01*
X233462Y179052D01*
X234729Y178800D01*
X238471D01*
X242142Y179531D01*
X245600Y180963D01*
X248712Y183042D01*
X251358Y185689D01*
X253438Y188801D01*
X254870Y192258D01*
X255600Y195929D01*
Y199672D01*
X254870Y203342D01*
X253438Y206800D01*
X251358Y209912D01*
X248712Y212559D01*
X245600Y214638D01*
X242142Y216070D01*
X238471Y216800D01*
X234729D01*
X231058Y216070D01*
X227600Y214638D01*
X224488Y212559D01*
X221842Y209912D01*
X219762Y206800D01*
X218330Y203342D01*
X217891Y201134D01*
X215850D01*
Y212300D01*
X186350D01*
Y198964D01*
X186265Y198758D01*
Y196769D01*
X186350Y196563D01*
Y183300D01*
X197766D01*
Y178645D01*
X165054Y145933D01*
X27912D01*
X27785Y145908D01*
X27658Y145933D01*
X27189D01*
X9434Y163688D01*
Y183297D01*
X20850D01*
Y194462D01*
X22891D01*
X23330Y192254D01*
X24762Y188797D01*
X26842Y185685D01*
X29360Y183167D01*
X29211Y182125D01*
X29142Y181896D01*
X28749D01*
X26333Y181249D01*
X24167Y179998D01*
X22398Y178230D01*
X21147Y176063D01*
X20500Y173647D01*
Y171146D01*
X21147Y168730D01*
X22398Y166563D01*
X24167Y164795D01*
X26333Y163544D01*
X28749Y162896D01*
X31251D01*
X33667Y163544D01*
X35833Y164795D01*
X37602Y166563D01*
X38853Y168730D01*
X39500Y171146D01*
Y173647D01*
X38853Y176063D01*
X37801Y177885D01*
X38462Y179048D01*
X39729Y178797D01*
X43471D01*
X47142Y179527D01*
X50600Y180959D01*
X53712Y183038D01*
X56358Y185685D01*
X58438Y188797D01*
X59870Y192254D01*
X60600Y195925D01*
Y199668D01*
X59870Y203339D01*
X58438Y206796D01*
X56358Y209908D01*
X53712Y212555D01*
X50600Y214634D01*
X47142Y216066D01*
X43471Y216796D01*
X39729D01*
X36058Y216066D01*
X32600Y214634D01*
X29488Y212555D01*
X26842Y209908D01*
X24762Y206796D01*
X23330Y203339D01*
X22891Y201131D01*
X20850D01*
Y212297D01*
X-6562D01*
Y255749D01*
X-6598Y255926D01*
X-6233Y258699D01*
X-5094Y261448D01*
X-3282Y263809D01*
X-921Y265621D01*
X1828Y266760D01*
X4601Y267125D01*
X4778Y267089D01*
X23379D01*
X24374Y266678D01*
X26363D01*
X28200Y267439D01*
X29607Y268845D01*
X30368Y270683D01*
Y272672D01*
X29956Y273666D01*
Y296313D01*
X29956Y296315D01*
X29956Y296317D01*
X29956Y296346D01*
X29919Y296531D01*
X30290Y299347D01*
X31445Y302136D01*
X33283Y304531D01*
X35678Y306369D01*
X38467Y307524D01*
X38821Y307570D01*
X40088Y306623D01*
X40091Y306617D01*
Y306159D01*
X60074D01*
Y303301D01*
X40091D01*
Y291173D01*
X47507D01*
Y281608D01*
X47761Y280332D01*
X48483Y279250D01*
X69488Y258246D01*
X70570Y257523D01*
X71845Y257269D01*
X305678D01*
X306954Y257523D01*
X308036Y258246D01*
X309524Y259733D01*
X310246Y260815D01*
X310500Y262091D01*
Y271919D01*
X311747Y273166D01*
X312993Y272918D01*
X313057Y272763D01*
X314464Y271356D01*
X316301Y270595D01*
X317581D01*
X332266Y255910D01*
Y237700D01*
X320850D01*
Y226535D01*
X318809D01*
X318370Y228743D01*
X316938Y232200D01*
X314858Y235312D01*
X312212Y237959D01*
X309100Y240038D01*
X305642Y241470D01*
X301971Y242200D01*
X298229D01*
X294558Y241470D01*
X291100Y240038D01*
X287988Y237959D01*
X285342Y235312D01*
X283263Y232200D01*
X281830Y228743D01*
X281100Y225072D01*
Y221329D01*
X281830Y217658D01*
X283263Y214201D01*
X285342Y211089D01*
X287988Y208442D01*
X291100Y206363D01*
X294558Y204931D01*
X298229Y204200D01*
X301971D01*
X305642Y204931D01*
X309100Y206363D01*
X312212Y208442D01*
X314858Y211089D01*
X316938Y214201D01*
X318370Y217658D01*
X318809Y219866D01*
X320850D01*
Y208700D01*
X350350D01*
Y237700D01*
X338934D01*
Y257291D01*
X338680Y258567D01*
X337957Y259648D01*
X322296Y275310D01*
Y276590D01*
X321535Y278428D01*
X320128Y279834D01*
X319973Y279898D01*
X319725Y281144D01*
X331132Y292551D01*
X331854Y293632D01*
X332108Y294908D01*
Y310693D01*
X331854Y311969D01*
X331132Y313051D01*
X329644Y314539D01*
X328562Y315261D01*
X327286Y315515D01*
X315702D01*
Y318245D01*
X295725D01*
Y319946D01*
X295570Y320726D01*
X295570Y320726D01*
X295183Y321660D01*
X294741Y322321D01*
X294026Y323036D01*
X293365Y323478D01*
X292431Y323864D01*
X291651Y324020D01*
X259331D01*
X258551Y323864D01*
X258550Y323864D01*
X257617Y323478D01*
X256955Y323036D01*
X256241Y322321D01*
X255799Y321660D01*
X255412Y320726D01*
X255257Y319946D01*
Y318245D01*
X235274D01*
Y316409D01*
X235209Y316404D01*
X230633Y315306D01*
X226285Y313505D01*
X222272Y311045D01*
X218693Y307989D01*
X215637Y304410D01*
X213178Y300397D01*
X211377Y296049D01*
X210278Y291473D01*
X209909Y286781D01*
X209913D01*
Y273533D01*
X209647Y272891D01*
Y270902D01*
X210408Y269064D01*
X211815Y267658D01*
X213652Y266897D01*
X215642D01*
X217479Y267658D01*
X218886Y269064D01*
X219647Y270902D01*
Y272891D01*
X219089Y274238D01*
Y286781D01*
X219048Y286989D01*
X219429Y290853D01*
X220616Y294769D01*
X222545Y298378D01*
X225141Y301541D01*
X228304Y304137D01*
X231913Y306066D01*
X234347Y306804D01*
X235274Y306117D01*
Y306117D01*
X255257D01*
Y303259D01*
X235274D01*
Y291131D01*
X243446D01*
Y284708D01*
X242541Y283804D01*
X241780Y281966D01*
Y279977D01*
X242541Y278139D01*
X243948Y276733D01*
X245786Y275971D01*
X247775D01*
X249613Y276733D01*
X251019Y278139D01*
X251780Y279977D01*
Y281966D01*
X251019Y283804D01*
X250114Y284708D01*
Y291131D01*
X255257D01*
Y289487D01*
X255412Y288706D01*
X255799Y287773D01*
X256241Y287111D01*
X256955Y286397D01*
X257617Y285955D01*
X258551Y285568D01*
X259331Y285413D01*
X291651D01*
X292431Y285568D01*
X293365Y285955D01*
X294026Y286397D01*
X294741Y287111D01*
X295183Y287773D01*
X295570Y288706D01*
X295725Y289487D01*
X296186Y290591D01*
X300836D01*
X301089Y289321D01*
X299951Y288850D01*
X298392Y287291D01*
X297618Y285423D01*
X308559D01*
X307785Y287291D01*
X306227Y288850D01*
X305089Y289321D01*
X305341Y290591D01*
X316242D01*
Y295925D01*
X304952D01*
Y297195D01*
X303682D01*
Y303799D01*
X295725D01*
Y306117D01*
X315702D01*
Y308847D01*
X325440D01*
Y296289D01*
X312644Y283493D01*
X312644Y283493D01*
X304809Y275658D01*
X304086Y274576D01*
X303832Y273300D01*
Y263937D01*
X73226D01*
X54175Y282989D01*
Y291173D01*
X60074D01*
Y289529D01*
X60229Y288748D01*
X60616Y287815D01*
X61058Y287153D01*
X61772Y286439D01*
X62434Y285996D01*
X63368Y285610D01*
X64148Y285455D01*
X96468D01*
X97248Y285610D01*
X98182Y285996D01*
X98843Y286439D01*
X99558Y287153D01*
X100000Y287815D01*
X100387Y288748D01*
X100542Y289528D01*
X101003Y290633D01*
X108499D01*
Y297237D01*
Y303841D01*
X100542D01*
Y306159D01*
X120519D01*
Y318287D01*
X113103D01*
Y319603D01*
X114333Y320359D01*
X114418Y320310D01*
X116844Y319660D01*
X119356D01*
X121782Y320310D01*
X123958Y321566D01*
X125734Y323342D01*
X126990Y325518D01*
X127640Y327944D01*
Y330456D01*
X126990Y332882D01*
X125734Y335058D01*
X123958Y336834D01*
X121782Y338090D01*
X119356Y338740D01*
D02*
G37*
G36*
X433156Y338740D02*
X430644D01*
X428218Y338090D01*
X426042Y336834D01*
X424266Y335058D01*
X423010Y332882D01*
X422360Y330456D01*
Y327944D01*
X423010Y325518D01*
X424266Y323342D01*
X426042Y321566D01*
X428218Y320310D01*
X430644Y319660D01*
X433156D01*
X435582Y320310D01*
X437758Y321566D01*
X439534Y323342D01*
X440790Y325518D01*
X441440Y327944D01*
Y330456D01*
X440790Y332882D01*
X439534Y335058D01*
X437758Y336834D01*
X435582Y338090D01*
X433156Y338740D01*
D02*
G37*
G36*
X238156D02*
X235644D01*
X233218Y338090D01*
X231042Y336834D01*
X229266Y335058D01*
X228010Y332882D01*
X227360Y330456D01*
Y327944D01*
X228010Y325518D01*
X229266Y323342D01*
X231042Y321566D01*
X233218Y320310D01*
X235644Y319660D01*
X238156D01*
X240582Y320310D01*
X242758Y321566D01*
X244534Y323342D01*
X245790Y325518D01*
X246440Y327944D01*
Y330456D01*
X245790Y332882D01*
X244534Y335058D01*
X242758Y336834D01*
X240582Y338090D01*
X238156Y338740D01*
D02*
G37*
G36*
X43156D02*
X40644D01*
X38218Y338090D01*
X36042Y336834D01*
X34266Y335058D01*
X33010Y332882D01*
X32360Y330456D01*
Y327944D01*
X33010Y325518D01*
X34266Y323342D01*
X36042Y321566D01*
X38218Y320310D01*
X40644Y319660D01*
X43156D01*
X45582Y320310D01*
X47758Y321566D01*
X49534Y323342D01*
X50790Y325518D01*
X51440Y327944D01*
Y330456D01*
X50790Y332882D01*
X49534Y335058D01*
X47758Y336834D01*
X45582Y338090D01*
X43156Y338740D01*
D02*
G37*
G36*
X509356Y338740D02*
X506844D01*
X504418Y338090D01*
X502242Y336834D01*
X500466Y335058D01*
X499210Y332882D01*
X498560Y330456D01*
Y327944D01*
X499210Y325518D01*
X500466Y323342D01*
X502242Y321566D01*
X504418Y320310D01*
X506844Y319660D01*
X509356D01*
X511782Y320310D01*
X513958Y321566D01*
X515734Y323342D01*
X516990Y325518D01*
X517640Y327944D01*
Y330456D01*
X516990Y332882D01*
X515734Y335058D01*
X513958Y336834D01*
X511782Y338090D01*
X509356Y338740D01*
D02*
G37*
G36*
X314356D02*
X311844D01*
X309418Y338090D01*
X307242Y336834D01*
X305466Y335058D01*
X304210Y332882D01*
X303560Y330456D01*
Y327944D01*
X304210Y325518D01*
X305466Y323342D01*
X307242Y321566D01*
X309418Y320310D01*
X311844Y319660D01*
X314356D01*
X316782Y320310D01*
X318958Y321566D01*
X320734Y323342D01*
X321990Y325518D01*
X322640Y327944D01*
Y330456D01*
X321990Y332882D01*
X320734Y335058D01*
X318958Y336834D01*
X316782Y338090D01*
X314356Y338740D01*
D02*
G37*
G36*
X121059Y303841D02*
X111039D01*
Y298507D01*
X121059D01*
Y303841D01*
D02*
G37*
G36*
X316242Y303799D02*
X306222D01*
Y298465D01*
X316242D01*
Y303799D01*
D02*
G37*
G36*
X515554Y303439D02*
X505534D01*
Y298105D01*
X515554D01*
Y303439D01*
D02*
G37*
G36*
X138977Y300265D02*
Y296065D01*
X143177D01*
X142403Y297933D01*
X140845Y299491D01*
X138977Y300265D01*
D02*
G37*
G36*
X136437D02*
X134568Y299491D01*
X133010Y297933D01*
X132236Y296065D01*
X136437D01*
Y300265D01*
D02*
G37*
G36*
X121059Y295967D02*
X111039D01*
Y290633D01*
X121059D01*
Y295967D01*
D02*
G37*
G36*
X515554Y295565D02*
X505534D01*
Y290231D01*
X515554D01*
Y295565D01*
D02*
G37*
G36*
X143177Y293525D02*
X138977D01*
Y289324D01*
X140845Y290098D01*
X142403Y291656D01*
X143177Y293525D01*
D02*
G37*
G36*
X136437D02*
X132236D01*
X133010Y291656D01*
X134568Y290098D01*
X136437Y289324D01*
Y293525D01*
D02*
G37*
G36*
X747541Y302429D02*
X734771D01*
Y285659D01*
X747541D01*
Y302429D01*
D02*
G37*
G36*
X633541D02*
X620771D01*
Y285659D01*
X633541D01*
Y302429D01*
D02*
G37*
G36*
X618231D02*
X605461D01*
Y285659D01*
X618231D01*
Y302429D01*
D02*
G37*
G36*
X732231D02*
X719461D01*
Y285659D01*
X732231D01*
Y302429D01*
D02*
G37*
G36*
X308559Y282883D02*
X304359D01*
Y278683D01*
X306227Y279457D01*
X307785Y281015D01*
X308559Y282883D01*
D02*
G37*
G36*
X301819D02*
X297618D01*
X298392Y281015D01*
X299951Y279457D01*
X301819Y278683D01*
Y282883D01*
D02*
G37*
G36*
X747541Y283119D02*
X734771D01*
Y266349D01*
X747541D01*
Y283119D01*
D02*
G37*
G36*
X732231D02*
X719461D01*
Y266349D01*
X732231D01*
Y283119D01*
D02*
G37*
G36*
X633541D02*
X620771D01*
Y266349D01*
X633541D01*
Y283119D01*
D02*
G37*
G36*
X618231D02*
X605461D01*
Y266349D01*
X618231D01*
Y283119D01*
D02*
G37*
G36*
X677823Y219429D02*
X677771D01*
Y210659D01*
X686541D01*
Y210711D01*
X685857Y213264D01*
X684535Y215553D01*
X682666Y217423D01*
X680376Y218745D01*
X677823Y219429D01*
D02*
G37*
G36*
X675231D02*
X675179D01*
X672626Y218745D01*
X670336Y217423D01*
X668467Y215553D01*
X667145Y213264D01*
X666461Y210711D01*
Y210659D01*
X675231D01*
Y219429D01*
D02*
G37*
G36*
X496971Y242200D02*
X493229D01*
X489558Y241470D01*
X486100Y240037D01*
X482988Y237958D01*
X480342Y235312D01*
X478262Y232200D01*
X476830Y228742D01*
X476100Y225071D01*
Y221329D01*
X476830Y217658D01*
X478262Y214200D01*
X480342Y211088D01*
X482988Y208442D01*
X486100Y206362D01*
X489558Y204930D01*
X493229Y204200D01*
X496971D01*
X500642Y204930D01*
X504100Y206362D01*
X507212Y208442D01*
X509858Y211088D01*
X511938Y214200D01*
X513370Y217658D01*
X513809Y219866D01*
X515850D01*
Y208700D01*
X545350D01*
Y237700D01*
X515850D01*
Y226534D01*
X513809D01*
X513370Y228742D01*
X511938Y232200D01*
X509858Y235312D01*
X507212Y237958D01*
X504100Y240037D01*
X500642Y241470D01*
X496971Y242200D01*
D02*
G37*
G36*
X106971Y242196D02*
X103229D01*
X99558Y241466D01*
X96100Y240034D01*
X92988Y237955D01*
X90342Y235308D01*
X88262Y232196D01*
X86830Y228738D01*
X86100Y225068D01*
Y221325D01*
X86830Y217654D01*
X88262Y214197D01*
X90342Y211085D01*
X92988Y208438D01*
X96100Y206359D01*
X99558Y204927D01*
X103229Y204196D01*
X106971D01*
X110642Y204927D01*
X114100Y206359D01*
X117212Y208438D01*
X119858Y211085D01*
X121938Y214197D01*
X123370Y217654D01*
X123809Y219862D01*
X125850D01*
Y208696D01*
X155350D01*
Y237696D01*
X125850D01*
Y226530D01*
X123809D01*
X123370Y228738D01*
X121938Y232196D01*
X119858Y235308D01*
X117212Y237955D01*
X114100Y240034D01*
X110642Y241466D01*
X106971Y242196D01*
D02*
G37*
G36*
X702752Y218889D02*
X700250D01*
X697834Y218241D01*
X695668Y216991D01*
X693899Y215222D01*
X692648Y213056D01*
X692001Y210639D01*
Y208138D01*
X692648Y205722D01*
X693899Y203556D01*
X695668Y201787D01*
X697834Y200536D01*
X700250Y199889D01*
X702752D01*
X705168Y200536D01*
X707334Y201787D01*
X709103Y203556D01*
X710354Y205722D01*
X711001Y208138D01*
Y210639D01*
X710354Y213056D01*
X709103Y215222D01*
X707334Y216991D01*
X705168Y218241D01*
X702752Y218889D01*
D02*
G37*
G36*
X652752D02*
X650250D01*
X647834Y218241D01*
X645668Y216991D01*
X643899Y215222D01*
X642648Y213056D01*
X642001Y210639D01*
Y208138D01*
X642648Y205722D01*
X643899Y203556D01*
X645668Y201787D01*
X647834Y200536D01*
X650250Y199889D01*
X652752D01*
X655168Y200536D01*
X657334Y201787D01*
X659103Y203556D01*
X660354Y205722D01*
X661001Y208138D01*
Y210639D01*
X660354Y213056D01*
X659103Y215222D01*
X657334Y216991D01*
X655168Y218241D01*
X652752Y218889D01*
D02*
G37*
G36*
X686541Y208119D02*
X677771D01*
Y199349D01*
X677823D01*
X680376Y200033D01*
X682666Y201355D01*
X684535Y203224D01*
X685857Y205513D01*
X686541Y208067D01*
Y208119D01*
D02*
G37*
G36*
X675231D02*
X666461D01*
Y208067D01*
X667145Y205513D01*
X668467Y203224D01*
X670336Y201355D01*
X672626Y200033D01*
X675179Y199349D01*
X675231D01*
Y208119D01*
D02*
G37*
G36*
X586242Y200600D02*
X584253D01*
X582415Y199839D01*
X581008Y198432D01*
X580247Y196594D01*
Y194605D01*
X581008Y192768D01*
X582415Y191361D01*
X584253Y190600D01*
X586242D01*
X588080Y191361D01*
X589486Y192768D01*
X590247Y194605D01*
Y196594D01*
X589486Y198432D01*
X588080Y199839D01*
X586242Y200600D01*
D02*
G37*
G36*
X326251Y181900D02*
X323749D01*
X321333Y181253D01*
X319167Y180002D01*
X317398Y178234D01*
X316147Y176067D01*
X315500Y173651D01*
Y171150D01*
X316147Y168734D01*
X317398Y166567D01*
X319167Y164799D01*
X321333Y163548D01*
X323749Y162901D01*
X326251D01*
X328667Y163548D01*
X330833Y164799D01*
X332602Y166567D01*
X333853Y168734D01*
X334500Y171150D01*
Y173651D01*
X333853Y176067D01*
X332602Y178234D01*
X330833Y180002D01*
X328667Y181253D01*
X326251Y181900D01*
D02*
G37*
G36*
X521251Y181900D02*
X518749D01*
X516333Y181253D01*
X514167Y180002D01*
X512398Y178233D01*
X511147Y176067D01*
X510500Y173651D01*
Y171149D01*
X511147Y168733D01*
X512398Y166567D01*
X514167Y164798D01*
X516333Y163547D01*
X518749Y162900D01*
X521251D01*
X523667Y163547D01*
X525833Y164798D01*
X527602Y166567D01*
X528853Y168733D01*
X529500Y171149D01*
Y173651D01*
X528853Y176067D01*
X527602Y178233D01*
X525833Y180002D01*
X523667Y181253D01*
X521251Y181900D01*
D02*
G37*
G36*
X131251Y181896D02*
X128749D01*
X126333Y181249D01*
X124167Y179998D01*
X122398Y178230D01*
X121147Y176063D01*
X120500Y173647D01*
Y171146D01*
X121147Y168730D01*
X122398Y166563D01*
X124167Y164795D01*
X126333Y163544D01*
X128749Y162896D01*
X131251D01*
X133667Y163544D01*
X135833Y164795D01*
X137602Y166563D01*
X138853Y168730D01*
X139500Y171146D01*
Y173647D01*
X138853Y176063D01*
X137602Y178230D01*
X135833Y179998D01*
X133667Y181249D01*
X131251Y181896D01*
D02*
G37*
G36*
X277062Y193339D02*
X272938D01*
X268892Y192535D01*
X265082Y190956D01*
X261652Y188665D01*
X258736Y185748D01*
X256444Y182319D01*
X254866Y178508D01*
X254061Y174463D01*
Y170338D01*
X254866Y166293D01*
X256444Y162482D01*
X258736Y159053D01*
X261652Y156136D01*
X265082Y153844D01*
X268892Y152266D01*
X272938Y151461D01*
X277062D01*
X281108Y152266D01*
X284918Y153844D01*
X288348Y156136D01*
X291264Y159053D01*
X293556Y162482D01*
X295134Y166293D01*
X295939Y170338D01*
Y174463D01*
X295134Y178508D01*
X293556Y182319D01*
X291264Y185748D01*
X288348Y188665D01*
X284918Y190956D01*
X281108Y192535D01*
X277062Y193339D01*
D02*
G37*
G36*
X472062Y193339D02*
X467938D01*
X463892Y192534D01*
X460082Y190956D01*
X456652Y188664D01*
X453736Y185748D01*
X451444Y182318D01*
X449866Y178508D01*
X449061Y174462D01*
Y170338D01*
X449866Y166292D01*
X451444Y162482D01*
X453736Y159052D01*
X456652Y156136D01*
X460082Y153844D01*
X463892Y152266D01*
X467938Y151461D01*
X472062D01*
X476108Y152266D01*
X479918Y153844D01*
X483348Y156136D01*
X486264Y159052D01*
X488556Y162482D01*
X490134Y166292D01*
X490939Y170338D01*
Y174462D01*
X490134Y178508D01*
X488556Y182318D01*
X486264Y185748D01*
X483348Y188664D01*
X479918Y190956D01*
X476108Y192534D01*
X472062Y193339D01*
D02*
G37*
G36*
X82062Y193335D02*
X77938D01*
X73892Y192531D01*
X70082Y190952D01*
X66652Y188661D01*
X63736Y185744D01*
X61444Y182315D01*
X59866Y178504D01*
X59061Y174459D01*
Y170334D01*
X59866Y166289D01*
X61444Y162478D01*
X63736Y159049D01*
X66652Y156132D01*
X70082Y153841D01*
X73892Y152262D01*
X77938Y151458D01*
X82062D01*
X86108Y152262D01*
X89918Y153841D01*
X93348Y156132D01*
X96264Y159049D01*
X98556Y162478D01*
X100134Y166289D01*
X100939Y170334D01*
Y174459D01*
X100134Y178504D01*
X98556Y182315D01*
X96264Y185744D01*
X93348Y188661D01*
X89918Y190952D01*
X86108Y192531D01*
X82062Y193335D01*
D02*
G37*
G36*
X238156Y131140D02*
X235644D01*
X233218Y130490D01*
X231042Y129234D01*
X229266Y127458D01*
X228010Y125283D01*
X227360Y122856D01*
Y120344D01*
X228010Y117918D01*
X229266Y115743D01*
X231042Y113967D01*
X233218Y112711D01*
X235644Y112060D01*
X238156D01*
X240582Y112711D01*
X242758Y113967D01*
X244534Y115743D01*
X245790Y117918D01*
X246440Y120344D01*
Y122856D01*
X245790Y125283D01*
X244534Y127458D01*
X242758Y129234D01*
X240582Y130490D01*
X238156Y131140D01*
D02*
G37*
G36*
X314356Y131140D02*
X311844D01*
X309418Y130490D01*
X307242Y129234D01*
X305466Y127458D01*
X304210Y125283D01*
X303560Y122856D01*
Y120344D01*
X304210Y117918D01*
X305466Y115743D01*
X307242Y113967D01*
X309418Y112711D01*
X311844Y112060D01*
X314356D01*
X316782Y112711D01*
X318958Y113967D01*
X320734Y115743D01*
X321990Y117918D01*
X322640Y120344D01*
Y122856D01*
X321990Y125283D01*
X320734Y127458D01*
X318958Y129234D01*
X316782Y130490D01*
X314356Y131140D01*
D02*
G37*
G36*
X433156Y131140D02*
X430644D01*
X428218Y130490D01*
X426042Y129234D01*
X424266Y127458D01*
X423010Y125282D01*
X422360Y122856D01*
Y120344D01*
X423010Y117918D01*
X424266Y115742D01*
X426042Y113966D01*
X428218Y112710D01*
X430644Y112060D01*
X433156D01*
X435582Y112710D01*
X437758Y113966D01*
X439534Y115742D01*
X440790Y117918D01*
X441440Y120344D01*
Y122856D01*
X440790Y125282D01*
X439534Y127458D01*
X437758Y129234D01*
X435582Y130490D01*
X433156Y131140D01*
D02*
G37*
G36*
X43156Y131137D02*
X40644D01*
X38218Y130486D01*
X36042Y129230D01*
X34266Y127454D01*
X33010Y125279D01*
X32360Y122852D01*
Y120341D01*
X33010Y117914D01*
X34266Y115739D01*
X36042Y113963D01*
X38218Y112707D01*
X40644Y112057D01*
X43156D01*
X45582Y112707D01*
X47758Y113963D01*
X49534Y115739D01*
X50790Y117914D01*
X51440Y120341D01*
Y122852D01*
X50790Y125279D01*
X49534Y127454D01*
X47758Y129230D01*
X45582Y130486D01*
X43156Y131137D01*
D02*
G37*
G36*
X119356Y131137D02*
X116844D01*
X114418Y130486D01*
X112242Y129230D01*
X110466Y127454D01*
X109210Y125279D01*
X108560Y122852D01*
Y120340D01*
X109210Y117914D01*
X110466Y115739D01*
X112242Y113963D01*
X114418Y112707D01*
X116844Y112057D01*
X119356D01*
X121782Y112707D01*
X123958Y113963D01*
X125734Y115739D01*
X126990Y117914D01*
X127640Y120340D01*
Y122852D01*
X126990Y125279D01*
X125734Y127454D01*
X123958Y129230D01*
X121782Y130486D01*
X119356Y131137D01*
D02*
G37*
G36*
X511550Y96222D02*
X501530D01*
Y90888D01*
X511550D01*
Y96222D01*
D02*
G37*
G36*
X315917Y96207D02*
X305897D01*
Y90873D01*
X315917D01*
Y96207D01*
D02*
G37*
G36*
X119967Y96164D02*
X109947D01*
Y90829D01*
X119967D01*
Y96164D01*
D02*
G37*
G36*
X511550Y88348D02*
X501530D01*
Y83014D01*
X511550D01*
Y88348D01*
D02*
G37*
G36*
X315917Y88333D02*
X305897D01*
Y82999D01*
X315917D01*
Y88333D01*
D02*
G37*
G36*
X119967Y88289D02*
X109947D01*
Y82956D01*
X119967D01*
Y88289D01*
D02*
G37*
G36*
X113399Y79423D02*
Y75222D01*
X117599D01*
X116825Y77090D01*
X115267Y78649D01*
X113399Y79423D01*
D02*
G37*
G36*
X110859D02*
X108990Y78649D01*
X107432Y77090D01*
X106658Y75222D01*
X110859D01*
Y79423D01*
D02*
G37*
G36*
X501313Y78330D02*
Y74130D01*
X505513D01*
X504739Y75998D01*
X503181Y77557D01*
X501313Y78330D01*
D02*
G37*
G36*
X498773D02*
X496904Y77557D01*
X495346Y75998D01*
X494572Y74130D01*
X498773D01*
Y78330D01*
D02*
G37*
G36*
X307370Y76955D02*
Y72754D01*
X311570D01*
X310797Y74623D01*
X309238Y76181D01*
X307370Y76955D01*
D02*
G37*
G36*
X304830D02*
X302962Y76181D01*
X301404Y74623D01*
X300630Y72754D01*
X304830D01*
Y76955D01*
D02*
G37*
G36*
X117599Y72682D02*
X113399D01*
Y68482D01*
X115267Y69256D01*
X116825Y70814D01*
X117599Y72682D01*
D02*
G37*
G36*
X110859D02*
X106658D01*
X107432Y70814D01*
X108990Y69256D01*
X110859Y68482D01*
Y72682D01*
D02*
G37*
G36*
X505513Y71590D02*
X501313D01*
Y67389D01*
X503181Y68163D01*
X504739Y69722D01*
X505513Y71590D01*
D02*
G37*
G36*
X498773D02*
X494572D01*
X495346Y69722D01*
X496904Y68163D01*
X498773Y67389D01*
Y71590D01*
D02*
G37*
G36*
X311570Y70214D02*
X307370D01*
Y66014D01*
X309238Y66788D01*
X310797Y68346D01*
X311570Y70214D01*
D02*
G37*
G36*
X304830D02*
X300630D01*
X301404Y68346D01*
X302962Y66788D01*
X304830Y66014D01*
Y70214D01*
D02*
G37*
G36*
X921773Y19692D02*
X918227D01*
X914750Y19001D01*
X911474Y17644D01*
X908526Y15674D01*
X906019Y13167D01*
X904049Y10218D01*
X902692Y6943D01*
X902000Y3465D01*
Y-81D01*
X902692Y-3558D01*
X904049Y-6834D01*
X906019Y-9782D01*
X908526Y-12289D01*
X911474Y-14259D01*
X914750Y-15616D01*
X918227Y-16308D01*
X921773D01*
X925250Y-15616D01*
X928526Y-14259D01*
X931474Y-12289D01*
X933981Y-9782D01*
X935951Y-6834D01*
X937308Y-3558D01*
X938000Y-81D01*
Y3465D01*
X937308Y6943D01*
X935951Y10218D01*
X933981Y13167D01*
X931474Y15674D01*
X928526Y17644D01*
X925250Y19001D01*
X921773Y19692D01*
D02*
G37*
G36*
X1773Y18000D02*
X-1773D01*
X-5250Y17308D01*
X-8526Y15951D01*
X-11474Y13981D01*
X-13981Y11474D01*
X-15951Y8526D01*
X-17308Y5250D01*
X-18000Y1773D01*
Y-1773D01*
X-17308Y-5250D01*
X-15951Y-8526D01*
X-13981Y-11474D01*
X-11474Y-13981D01*
X-8526Y-15951D01*
X-5250Y-17308D01*
X-1773Y-18000D01*
X1773D01*
X5250Y-17308D01*
X8526Y-15951D01*
X11474Y-13981D01*
X13981Y-11474D01*
X15951Y-8526D01*
X17308Y-5250D01*
X18000Y-1773D01*
Y1773D01*
X17308Y5250D01*
X15951Y8526D01*
X13981Y11474D01*
X11474Y13981D01*
X8526Y15951D01*
X5250Y17308D01*
X1773Y18000D01*
D02*
G37*
%LPD*%
G36*
X900464Y848039D02*
X896022D01*
X895770Y848054D01*
X895326D01*
X895148Y848069D01*
X894867D01*
X894763Y848084D01*
X894615D01*
X894556Y848099D01*
X894497D01*
X894201Y848143D01*
X893934Y848217D01*
X893697Y848291D01*
X893490Y848380D01*
X893327Y848454D01*
X893208Y848528D01*
X893134Y848572D01*
X893105Y848587D01*
X892897Y848750D01*
X892735Y848928D01*
X892572Y849091D01*
X892453Y849268D01*
X892349Y849417D01*
X892275Y849535D01*
X892231Y849609D01*
X892216Y849639D01*
X892113Y849890D01*
X892024Y850127D01*
X891964Y850364D01*
X891935Y850572D01*
X891905Y850749D01*
X891890Y850882D01*
Y850971D01*
Y850986D01*
Y851001D01*
X891905Y851327D01*
X891964Y851623D01*
X892053Y851875D01*
X892142Y852112D01*
X892231Y852289D01*
X892320Y852423D01*
X892379Y852511D01*
X892394Y852541D01*
X892601Y852778D01*
X892823Y852971D01*
X893075Y853133D01*
X893297Y853252D01*
X893504Y853355D01*
X893682Y853429D01*
X893741Y853444D01*
X893786Y853459D01*
X893816Y853474D01*
X893830D01*
X893593Y853607D01*
X893386Y853740D01*
X893208Y853903D01*
X893060Y854037D01*
X892957Y854170D01*
X892868Y854274D01*
X892809Y854348D01*
X892794Y854377D01*
X892660Y854614D01*
X892557Y854836D01*
X892497Y855058D01*
X892438Y855266D01*
X892409Y855443D01*
X892394Y855577D01*
Y855666D01*
Y855680D01*
Y855695D01*
X892409Y855932D01*
X892438Y856169D01*
X892497Y856361D01*
X892557Y856539D01*
X892616Y856687D01*
X892675Y856806D01*
X892705Y856865D01*
X892720Y856895D01*
X892838Y857087D01*
X892971Y857250D01*
X893105Y857398D01*
X893223Y857531D01*
X893342Y857620D01*
X893430Y857694D01*
X893490Y857739D01*
X893504Y857754D01*
X893682Y857872D01*
X893875Y857961D01*
X894052Y858035D01*
X894215Y858094D01*
X894363Y858139D01*
X894467Y858168D01*
X894541Y858183D01*
X894571D01*
X894822Y858213D01*
X895104Y858242D01*
X895400Y858257D01*
X895696Y858272D01*
X895963Y858287D01*
X900464D01*
Y848039D01*
D02*
G37*
G36*
X879718Y856554D02*
X876682D01*
Y848039D01*
X874609D01*
Y856554D01*
X871588D01*
Y858287D01*
X879718D01*
Y856554D01*
D02*
G37*
G36*
X886056Y858464D02*
X886485Y858420D01*
X886856Y858346D01*
X887181Y858272D01*
X887315Y858227D01*
X887448Y858198D01*
X887552Y858168D01*
X887640Y858124D01*
X887714Y858109D01*
X887774Y858079D01*
X887803Y858064D01*
X887818D01*
X888085Y857946D01*
X888336Y857798D01*
X888559Y857635D01*
X888751Y857487D01*
X888914Y857354D01*
X889047Y857235D01*
X889121Y857161D01*
X889136Y857146D01*
X889151Y857132D01*
X889358Y856895D01*
X889551Y856643D01*
X889714Y856421D01*
X889847Y856199D01*
X889950Y856006D01*
X890039Y855858D01*
X890054Y855799D01*
X890084Y855754D01*
X890099Y855740D01*
Y855725D01*
X890247Y855310D01*
X890365Y854866D01*
X890439Y854422D01*
X890498Y854007D01*
X890513Y853814D01*
X890528Y853637D01*
X890543Y853489D01*
Y853355D01*
X890558Y853237D01*
Y853163D01*
Y853104D01*
Y853089D01*
X890543Y852645D01*
X890498Y852215D01*
X890439Y851815D01*
X890350Y851445D01*
X890247Y851105D01*
X890128Y850794D01*
X890010Y850498D01*
X889876Y850246D01*
X889758Y850009D01*
X889640Y849816D01*
X889521Y849639D01*
X889417Y849491D01*
X889329Y849387D01*
X889269Y849298D01*
X889225Y849254D01*
X889210Y849239D01*
X888944Y848987D01*
X888662Y848780D01*
X888381Y848587D01*
X888070Y848439D01*
X887774Y848306D01*
X887463Y848187D01*
X887181Y848099D01*
X886885Y848025D01*
X886619Y847965D01*
X886367Y847921D01*
X886145Y847891D01*
X885952Y847876D01*
X885804Y847862D01*
X885686Y847847D01*
X885582D01*
X885167Y847862D01*
X884782Y847906D01*
X884412Y847980D01*
X884072Y848069D01*
X883746Y848173D01*
X883450Y848291D01*
X883183Y848410D01*
X882931Y848543D01*
X882724Y848676D01*
X882532Y848794D01*
X882369Y848913D01*
X882235Y849017D01*
X882117Y849106D01*
X882043Y849180D01*
X881999Y849224D01*
X881984Y849239D01*
X881747Y849520D01*
X881540Y849816D01*
X881347Y850127D01*
X881199Y850438D01*
X881066Y850764D01*
X880947Y851090D01*
X880858Y851416D01*
X880784Y851727D01*
X880740Y852008D01*
X880695Y852289D01*
X880666Y852526D01*
X880636Y852734D01*
Y852911D01*
X880621Y853045D01*
Y853119D01*
Y853148D01*
X880636Y853607D01*
X880681Y854037D01*
X880740Y854436D01*
X880829Y854821D01*
X880932Y855162D01*
X881051Y855488D01*
X881169Y855784D01*
X881302Y856036D01*
X881436Y856273D01*
X881554Y856480D01*
X881673Y856658D01*
X881776Y856806D01*
X881850Y856909D01*
X881925Y856998D01*
X881969Y857043D01*
X881984Y857057D01*
X882250Y857309D01*
X882532Y857531D01*
X882828Y857724D01*
X883124Y857887D01*
X883435Y858020D01*
X883731Y858139D01*
X884027Y858227D01*
X884309Y858301D01*
X884575Y858361D01*
X884827Y858405D01*
X885049Y858435D01*
X885241Y858464D01*
X885390D01*
X885508Y858479D01*
X885612D01*
X886056Y858464D01*
D02*
G37*
%LPC*%
G36*
X898391Y856584D02*
X896333D01*
X896170Y856569D01*
X895785D01*
X895696Y856554D01*
X895533D01*
X895474Y856539D01*
X895459D01*
X895282Y856510D01*
X895119Y856465D01*
X894985Y856406D01*
X894867Y856347D01*
X894793Y856288D01*
X894719Y856228D01*
X894689Y856199D01*
X894674Y856184D01*
X894585Y856065D01*
X894526Y855932D01*
X894467Y855814D01*
X894437Y855695D01*
X894423Y855577D01*
X894408Y855488D01*
Y855429D01*
Y855414D01*
X894423Y855236D01*
X894452Y855073D01*
X894511Y854940D01*
X894556Y854821D01*
X894615Y854718D01*
X894674Y854659D01*
X894704Y854614D01*
X894719Y854599D01*
X894837Y854496D01*
X894970Y854422D01*
X895104Y854362D01*
X895237Y854318D01*
X895370Y854274D01*
X895459Y854259D01*
X895518Y854244D01*
X895607D01*
X895696Y854229D01*
X896155D01*
X896407Y854214D01*
X898391D01*
Y856584D01*
D02*
G37*
G36*
Y852511D02*
X896244D01*
X896037Y852497D01*
X895859Y852482D01*
X895681D01*
X895533Y852467D01*
X895400Y852452D01*
X895296Y852437D01*
X895193Y852423D01*
X895119Y852408D01*
X895000Y852393D01*
X894926Y852363D01*
X894911D01*
X894763Y852304D01*
X894630Y852230D01*
X894511Y852156D01*
X894423Y852067D01*
X894349Y852008D01*
X894304Y851949D01*
X894275Y851904D01*
X894260Y851889D01*
X894186Y851756D01*
X894126Y851623D01*
X894082Y851504D01*
X894052Y851371D01*
X894038Y851267D01*
X894023Y851179D01*
Y851119D01*
Y851105D01*
X894038Y850912D01*
X894067Y850734D01*
X894112Y850586D01*
X894171Y850468D01*
X894230Y850364D01*
X894275Y850290D01*
X894304Y850246D01*
X894319Y850231D01*
X894437Y850127D01*
X894556Y850038D01*
X894689Y849964D01*
X894808Y849905D01*
X894911Y849875D01*
X895000Y849846D01*
X895059Y849831D01*
X895074D01*
X895133Y849816D01*
X895222D01*
X895415Y849801D01*
X895652Y849787D01*
X895889D01*
X896111Y849772D01*
X898391D01*
Y852511D01*
D02*
G37*
G36*
X885701Y856717D02*
X885582D01*
X885345Y856702D01*
X885123Y856673D01*
X884916Y856643D01*
X884723Y856584D01*
X884383Y856436D01*
X884220Y856361D01*
X884087Y856288D01*
X883953Y856199D01*
X883849Y856125D01*
X883761Y856051D01*
X883672Y855976D01*
X883613Y855917D01*
X883568Y855888D01*
X883553Y855858D01*
X883539Y855843D01*
X883405Y855666D01*
X883272Y855473D01*
X883168Y855281D01*
X883080Y855058D01*
X882946Y854614D01*
X882857Y854185D01*
X882813Y853992D01*
X882798Y853800D01*
X882783Y853637D01*
X882768Y853489D01*
X882754Y853355D01*
Y853267D01*
Y853207D01*
Y853193D01*
X882768Y852867D01*
X882783Y852556D01*
X882828Y852274D01*
X882872Y852023D01*
X882931Y851771D01*
X883006Y851549D01*
X883080Y851356D01*
X883154Y851179D01*
X883228Y851016D01*
X883302Y850882D01*
X883361Y850764D01*
X883435Y850660D01*
X883479Y850586D01*
X883524Y850542D01*
X883539Y850512D01*
X883553Y850498D01*
X883701Y850335D01*
X883864Y850201D01*
X884042Y850083D01*
X884205Y849979D01*
X884383Y849905D01*
X884546Y849831D01*
X884871Y849727D01*
X885153Y849653D01*
X885271Y849639D01*
X885375Y849624D01*
X885464Y849609D01*
X885582D01*
X885804Y849624D01*
X886026Y849653D01*
X886234Y849698D01*
X886426Y849757D01*
X886782Y849890D01*
X887063Y850068D01*
X887196Y850142D01*
X887300Y850231D01*
X887403Y850305D01*
X887477Y850379D01*
X887537Y850423D01*
X887581Y850468D01*
X887611Y850498D01*
X887626Y850512D01*
X887759Y850690D01*
X887892Y850882D01*
X887996Y851090D01*
X888085Y851312D01*
X888233Y851741D01*
X888322Y852171D01*
X888351Y852378D01*
X888381Y852556D01*
X888396Y852734D01*
X888410Y852882D01*
X888425Y853000D01*
Y853089D01*
Y853148D01*
Y853163D01*
X888410Y853489D01*
X888396Y853785D01*
X888351Y854066D01*
X888307Y854333D01*
X888248Y854570D01*
X888188Y854792D01*
X888114Y854984D01*
X888040Y855162D01*
X887966Y855325D01*
X887892Y855458D01*
X887833Y855562D01*
X887774Y855666D01*
X887729Y855740D01*
X887685Y855784D01*
X887670Y855814D01*
X887655Y855828D01*
X887507Y855991D01*
X887344Y856125D01*
X887167Y856243D01*
X887004Y856347D01*
X886826Y856436D01*
X886648Y856495D01*
X886322Y856613D01*
X886026Y856673D01*
X885908Y856687D01*
X885789Y856702D01*
X885701Y856717D01*
D02*
G37*
%LPD*%
G36*
X719479Y811982D02*
X720782Y810679D01*
X721406Y810318D01*
Y808903D01*
X703455Y790951D01*
X680222D01*
X680048Y791459D01*
X680011Y792221D01*
X680903Y792817D01*
X697661Y809574D01*
X698758Y809280D01*
X700602D01*
X702382Y809757D01*
X703978Y810679D01*
X705281Y811982D01*
X705395Y812179D01*
X706665D01*
X706779Y811982D01*
X708082Y810679D01*
X709678Y809757D01*
X711458Y809280D01*
X713301D01*
X715082Y809757D01*
X716678Y810679D01*
X717981Y811982D01*
X718095Y812179D01*
X719365D01*
X719479Y811982D01*
D02*
G37*
D10*
X589683Y833272D02*
X593876Y829079D01*
X169028Y831807D02*
X170492Y833272D01*
X169028Y814162D02*
Y831807D01*
X170492Y833272D02*
X589683D01*
X175331Y534248D02*
Y560697D01*
X166742Y569287D02*
X175331Y560697D01*
X201454Y667004D02*
X342736D01*
X346043Y663697D01*
X215288Y580506D02*
X275270Y640489D01*
X166827Y580506D02*
X215288D01*
X275270Y640489D02*
X323731D01*
X690916Y410623D02*
X696970Y404569D01*
X461834Y416613D02*
X467825Y410623D01*
X690916D01*
X63258Y759296D02*
X616997D01*
X392213Y603875D02*
X392478Y603610D01*
Y540802D02*
X392743Y540537D01*
X392478Y540802D02*
Y603610D01*
X121115Y575032D02*
X126860Y569287D01*
X166742D01*
X616997Y759296D02*
X633634Y775933D01*
X699770D01*
X724720Y807530D02*
Y815920D01*
X725080Y816280D01*
X704827Y787637D02*
X724720Y807530D01*
X624020Y778769D02*
X632889Y787637D01*
X704827D01*
X250473Y778769D02*
X624020D01*
X238066Y788915D02*
X621818D01*
X628062Y795160D01*
X678560D01*
X699680Y816280D01*
X78229Y796034D02*
X622383D01*
X626296Y799948D01*
X670648D02*
X686980Y816280D01*
X626296Y799948D02*
X670648D01*
X593876Y821124D02*
Y829079D01*
Y821124D02*
X595000Y820000D01*
X570000Y807362D02*
Y820000D01*
X565428Y802790D02*
X570000Y807362D01*
X141867Y802790D02*
X565428D01*
X131400Y813256D02*
X141867Y802790D01*
X115213Y813256D02*
X131400D01*
X159152Y493302D02*
X171561Y505711D01*
X126798Y493302D02*
X159152D01*
X171561Y505711D02*
X573323D01*
D11*
X364102Y592293D02*
X364470Y591924D01*
X364102Y592293D02*
Y707168D01*
X363733Y707537D02*
X364102Y707168D01*
X371133Y605277D02*
Y717706D01*
Y605277D02*
X378349Y598061D01*
X862093Y516365D02*
X867675Y521946D01*
X862093Y460003D02*
Y516365D01*
X817448Y652916D02*
X826430D01*
X808824Y644292D02*
X817448Y652916D01*
X808824Y610592D02*
Y644292D01*
X855865Y658532D02*
X859041Y661708D01*
X862467D01*
X863233Y662473D01*
X855865Y610105D02*
Y658532D01*
D15*
X883903Y644987D02*
X891465Y637424D01*
Y600668D02*
Y637424D01*
X885848Y595051D02*
X891465Y600668D01*
X38791Y312223D02*
X50841D01*
X875891Y444797D02*
X890907D01*
X893250Y447141D01*
X888630Y494936D02*
X893250Y490316D01*
X875502Y494936D02*
X888630D01*
X893250Y447141D02*
Y490316D01*
X875387Y644987D02*
X883903D01*
X875333Y595051D02*
X885848D01*
D36*
X701501Y209389D02*
D03*
X676501D02*
D03*
X651501D02*
D03*
X701501Y354389D02*
D03*
D75*
X895950Y566000D02*
D03*
Y674000D02*
D03*
Y416000D02*
D03*
Y524000D02*
D03*
D76*
X928250Y566000D02*
D03*
Y674000D02*
D03*
Y416000D02*
D03*
Y524000D02*
D03*
D83*
X38791Y312223D02*
G03*
X25368Y296342I2669J-15869D01*
G01*
X216748Y105229D02*
G03*
X217388Y104589I640J0D01*
G01*
X4778Y271678D02*
G03*
X-11150Y255749I0J-15929D01*
G01*
Y129945D02*
G03*
X14250Y104545I25400J0D01*
G01*
X239901Y312181D02*
G03*
X214501Y286781I0J-25400D01*
G01*
X400858Y265523D02*
G03*
X401489Y264892I632J0D01*
G01*
X425305Y311821D02*
G03*
X400858Y287374I0J-24447D01*
G01*
Y262745D02*
G03*
X401489Y263376I0J632D01*
G01*
X25368Y271678D02*
Y296313D01*
X25368Y296342D02*
X25368Y296313D01*
X403861Y104548D02*
X441276D01*
X403805Y104492D02*
X403861Y104548D01*
X441276D02*
X441332Y104604D01*
X217388Y104589D02*
X245699D01*
X4778Y271678D02*
X25368D01*
X-11150Y129945D02*
Y255749D01*
X14250Y104545D02*
X49749D01*
X214501Y272043D02*
X214647Y271897D01*
X214501Y272043D02*
Y286781D01*
X239901Y312181D02*
X246024D01*
X401489Y263376D02*
Y264892D01*
X400858Y265523D02*
Y287374D01*
X425305Y311821D02*
X445336D01*
X726675Y566240D02*
X808289D01*
X712684Y552248D02*
X726675Y566240D01*
X712684Y511990D02*
Y552248D01*
D84*
X307166Y262091D02*
Y273300D01*
X315001Y281135D01*
X328774Y294908D02*
Y310693D01*
X315001Y281135D02*
X315001D01*
X328774Y294908D01*
X327286Y312181D02*
X328774Y310693D01*
X304952Y312181D02*
X327286D01*
X201100Y197800D02*
X236600D01*
X2812Y434934D02*
X5839Y437960D01*
X30427D01*
X2812Y408688D02*
Y434934D01*
Y408688D02*
X6100Y405400D01*
X47945Y618502D02*
X100231D01*
X103206Y615527D01*
X164296Y617739D02*
X165233D01*
X162084Y615527D02*
X164296Y617739D01*
X103206Y615527D02*
X162084D01*
X196216Y493984D02*
X541293D01*
X553388Y481888D01*
X80411Y747763D02*
X178810D01*
X179141Y747432D01*
X80080Y748094D02*
X80411Y747763D01*
X103159Y326874D02*
X109769Y320263D01*
X102531Y333684D02*
X103159Y333056D01*
X109769Y312223D02*
Y320263D01*
X103159Y326874D02*
Y333056D01*
X445336Y236204D02*
X496486Y185054D01*
X499280Y104604D02*
X500260D01*
X496486Y107398D02*
X499280Y104604D01*
X496486Y107398D02*
Y185054D01*
X445336Y236204D02*
Y296835D01*
X366120Y104589D02*
X381091Y89618D01*
X441332D01*
X304627Y104589D02*
X366120D01*
X136076Y88316D02*
X244412D01*
X245699Y89603D01*
X119846Y104545D02*
X136076Y88316D01*
X108677Y104545D02*
X119846D01*
X317296Y275595D02*
X335600Y257291D01*
Y223200D02*
Y257291D01*
X300100Y223200D02*
X335600D01*
X71845Y260603D02*
X305678D01*
X307166Y262091D01*
X50841Y281608D02*
X71845Y260603D01*
X504264Y311821D02*
X520680D01*
X521563Y312704D01*
X246024Y297195D02*
X246780Y296439D01*
Y280971D02*
Y296439D01*
X50841Y281608D02*
Y297237D01*
X396100Y405400D02*
X431600D01*
X495100Y430800D02*
X530600D01*
X396100Y405400D02*
X399443Y402057D01*
Y377827D02*
Y402057D01*
X376903Y355288D02*
X399443Y377827D01*
X186153Y355288D02*
X376903D01*
X300100Y430800D02*
X335600D01*
X186153Y355288D02*
X201100Y370235D01*
X24299Y355288D02*
X186153D01*
X201100Y370235D02*
Y405400D01*
X6100Y373487D02*
X24299Y355288D01*
X6100Y373487D02*
Y405400D01*
X201100D02*
X236600D01*
X495100Y223200D02*
X530600D01*
X396100Y197800D02*
X431600D01*
X383039Y142599D02*
X396100Y155660D01*
X25808Y142599D02*
X27658D01*
X166689Y142853D02*
X201100Y177264D01*
X27912Y142599D02*
X383039D01*
X5930Y197796D02*
X6100D01*
X201100Y177264D02*
Y197800D01*
X396100Y155660D02*
Y197800D01*
X6100Y162307D02*
X25808Y142599D01*
X6100Y162307D02*
Y197796D01*
Y405400D02*
X41600D01*
X105100Y430800D02*
X140600D01*
X105100Y223197D02*
X140430D01*
X104930D02*
X105100D01*
X6100Y197796D02*
X41430D01*
D86*
X874767Y467524D02*
Y480784D01*
X874771Y480788D01*
X874762Y467520D02*
X874767Y467524D01*
X877720Y609376D02*
X878195Y609851D01*
Y622427D01*
X878670Y622902D01*
D91*
X431600Y405400D02*
D03*
X495100Y430800D02*
D03*
X236600Y405400D02*
D03*
X300100Y430800D02*
D03*
X41600Y405400D02*
D03*
X105100Y430800D02*
D03*
X431600Y197800D02*
D03*
X495100Y223200D02*
D03*
X236600Y197800D02*
D03*
X300100Y223200D02*
D03*
X41600Y197796D02*
D03*
X105100Y223197D02*
D03*
D92*
X420000Y380000D02*
D03*
X520000D02*
D03*
X225000D02*
D03*
X325000D02*
D03*
X30000D02*
D03*
X130000D02*
D03*
X420000Y172400D02*
D03*
X520000D02*
D03*
X225000Y172400D02*
D03*
X325000D02*
D03*
X30000Y172397D02*
D03*
X130000D02*
D03*
D93*
X470000Y380000D02*
D03*
X275000D02*
D03*
X80000D02*
D03*
X470000Y172400D02*
D03*
X275000Y172400D02*
D03*
X80000Y172397D02*
D03*
D94*
X508100Y329200D02*
D03*
X431900Y329200D02*
D03*
X313100Y329200D02*
D03*
X236900Y329200D02*
D03*
X118100Y329200D02*
D03*
X41900Y329200D02*
D03*
X508100Y121600D02*
D03*
X431900Y121600D02*
D03*
X313100Y121600D02*
D03*
X236900Y121601D02*
D03*
X118100Y121596D02*
D03*
X41900Y121596D02*
D03*
D95*
X545000Y820000D02*
D03*
X570000D02*
D03*
X595000D02*
D03*
D96*
X620000D02*
D03*
D97*
X733501Y284389D02*
D03*
X619501D02*
D03*
D98*
X651501Y354389D02*
D03*
D99*
X920000Y1692D02*
D03*
X0Y0D02*
D03*
X920000Y830000D02*
D03*
X0D02*
D03*
D100*
X686980Y816280D02*
D03*
X699680D02*
D03*
X712380D02*
D03*
X725080D02*
D03*
X737780D02*
D03*
X750480D02*
D03*
X763180D02*
D03*
D101*
X775880D02*
D03*
D102*
X227337Y559737D02*
D03*
X161091Y543314D02*
D03*
X110048Y479363D02*
D03*
X20897Y503136D02*
D03*
X17717Y526623D02*
D03*
X19815Y564043D02*
D03*
X18250Y549515D02*
D03*
X19591Y577343D02*
D03*
X252976Y523377D02*
D03*
X777206Y758579D02*
D03*
X715211Y471766D02*
D03*
X714764Y483836D02*
D03*
X702426Y484015D02*
D03*
X702158Y471855D02*
D03*
X680042Y502710D02*
D03*
X688795Y560241D02*
D03*
X700587Y530675D02*
D03*
X740229Y556163D02*
D03*
X747485Y547410D02*
D03*
X819857Y509834D02*
D03*
X827946Y424975D02*
D03*
X861330Y424594D02*
D03*
X817078Y454867D02*
D03*
X795994Y435085D02*
D03*
X762636Y525703D02*
D03*
X776379Y513387D02*
D03*
X801271Y520906D02*
D03*
X847556Y552281D02*
D03*
X875948Y571469D02*
D03*
X862724Y551632D02*
D03*
X208476Y839892D02*
D03*
X180825Y840282D02*
D03*
X181371Y823458D02*
D03*
X181916Y809905D02*
D03*
X195313Y856362D02*
D03*
X500043Y72860D02*
D03*
X306100Y71484D02*
D03*
X112129Y73952D02*
D03*
X137707Y294795D02*
D03*
X303089Y284153D02*
D03*
X403805Y104492D02*
D03*
X216748Y105229D02*
D03*
X25368Y271678D02*
D03*
X214647Y271897D02*
D03*
X400858Y262745D02*
D03*
X178124Y587727D02*
D03*
X175331Y534248D02*
D03*
X30427Y437960D02*
D03*
X47945Y618502D02*
D03*
X165233Y617739D02*
D03*
X553388Y481888D02*
D03*
X371065Y471949D02*
D03*
X346043Y663697D02*
D03*
X201454Y667004D02*
D03*
X196216Y493984D02*
D03*
X202766Y748140D02*
D03*
X190143Y745483D02*
D03*
X328691Y598467D02*
D03*
X328880Y626328D02*
D03*
X114064Y621067D02*
D03*
X152164Y621493D02*
D03*
X323731Y640489D02*
D03*
X568838Y634208D02*
D03*
X585247Y195600D02*
D03*
X599503Y733851D02*
D03*
X650604Y399213D02*
D03*
X145787Y728961D02*
D03*
X140401Y621255D02*
D03*
X828441Y405638D02*
D03*
X827939Y445981D02*
D03*
X842832Y494107D02*
D03*
X449155Y582644D02*
D03*
X392743Y540537D02*
D03*
X461834Y416613D02*
D03*
X696970Y404569D02*
D03*
X166827Y580506D02*
D03*
X121115Y575032D02*
D03*
X135135Y739348D02*
D03*
X196426Y565549D02*
D03*
X215664Y749885D02*
D03*
X238437Y648638D02*
D03*
X245722Y639249D02*
D03*
X387098Y748463D02*
D03*
X386717Y629499D02*
D03*
X102479Y639387D02*
D03*
X656509Y716420D02*
D03*
X63295Y758935D02*
D03*
X699770Y775933D02*
D03*
X250473Y778769D02*
D03*
X88465Y649148D02*
D03*
X238066Y788915D02*
D03*
X78229Y796034D02*
D03*
X169028Y814162D02*
D03*
X115213Y813256D02*
D03*
X80080Y748094D02*
D03*
X179141Y747432D02*
D03*
X102531Y333684D02*
D03*
X274022Y589053D02*
D03*
X119002Y532626D02*
D03*
X126798Y493302D02*
D03*
X573323Y505711D02*
D03*
X675840Y488031D02*
D03*
X141732Y846953D02*
D03*
X143393Y501022D02*
D03*
X117816Y516753D02*
D03*
X48985Y529902D02*
D03*
X317296Y275595D02*
D03*
X539116Y223308D02*
D03*
X521563Y312704D02*
D03*
X246780Y280971D02*
D03*
X364470Y591924D02*
D03*
X378349Y598061D02*
D03*
X540448Y434499D02*
D03*
X344232Y430800D02*
D03*
X387146Y197198D02*
D03*
X191265Y197763D02*
D03*
X-3553Y198338D02*
D03*
X150105Y223216D02*
D03*
X150195Y430610D02*
D03*
X392213Y603875D02*
D03*
X371133Y717706D02*
D03*
X363733Y707537D02*
D03*
X645345Y548368D02*
D03*
X712684Y511990D02*
D03*
X737156Y513755D02*
D03*
X830120Y624490D02*
D03*
X867675Y521946D02*
D03*
X862093Y460003D02*
D03*
X874771Y480788D02*
D03*
X877720Y609376D02*
D03*
X687278Y449249D02*
D03*
X826430Y652916D02*
D03*
X808824Y610592D02*
D03*
X863233Y662473D02*
D03*
X855865Y610105D02*
D03*
X808289Y566240D02*
D03*
X875333Y595051D02*
D03*
X875891Y444797D02*
D03*
X875502Y494936D02*
D03*
X874762Y467520D02*
D03*
X826721Y477127D02*
D03*
X878670Y622902D02*
D03*
X875387Y644987D02*
D03*
D103*
X101518Y668962D02*
D03*
Y681530D02*
D03*
X114128D02*
D03*
Y668962D02*
D03*
D104*
X674899Y468116D02*
D03*
D105*
X500260Y104604D02*
D03*
Y89618D02*
D03*
X441332Y104604D02*
D03*
Y89618D02*
D03*
X304627Y104589D02*
D03*
Y89603D02*
D03*
X245699Y104589D02*
D03*
Y89603D02*
D03*
X108677Y104545D02*
D03*
Y89559D02*
D03*
X49749Y104545D02*
D03*
Y89559D02*
D03*
X109769Y312223D02*
D03*
Y297237D02*
D03*
X50841Y312223D02*
D03*
Y297237D02*
D03*
X304952Y312181D02*
D03*
Y297195D02*
D03*
X246024Y312181D02*
D03*
Y297195D02*
D03*
X504264Y311821D02*
D03*
Y296835D02*
D03*
X445336Y311821D02*
D03*
Y296835D02*
D03*
D106*
X530600Y430800D02*
D03*
X396100Y405400D02*
D03*
X335600Y430800D02*
D03*
X201100Y405400D02*
D03*
X140600Y430800D02*
D03*
X6100Y405400D02*
D03*
X530600Y223200D02*
D03*
X396100Y197800D02*
D03*
X335600Y223200D02*
D03*
X201100Y197800D02*
D03*
X140600Y223197D02*
D03*
X6100Y197796D02*
D03*
M02*
