G04*
G04 #@! TF.GenerationSoftware,Altium Limited,Altium Designer,25.4.2 (15)*
G04*
G04 Layer_Color=128*
%FSLAX44Y44*%
%MOMM*%
G71*
G04*
G04 #@! TF.SameCoordinates,99B82A19-3900-4842-934D-00B4288F025C*
G04*
G04*
G04 #@! TF.FilePolarity,Positive*
G04*
G01*
G75*
%ADD14C,0.1270*%
D14*
X416600Y405400D02*
X446600D01*
X431600Y390400D02*
Y420400D01*
X480100Y430800D02*
X510100D01*
X495100Y415800D02*
Y445800D01*
X411500Y380000D02*
X428500D01*
X420000Y371500D02*
Y388500D01*
X511500Y380000D02*
X528500D01*
X520000Y371500D02*
Y388500D01*
X450061Y380000D02*
X489939D01*
X470000Y360061D02*
Y399939D01*
X503100Y329200D02*
X513100D01*
X508100Y324200D02*
Y334200D01*
X426900Y329200D02*
X436900D01*
X431900Y324200D02*
Y334200D01*
X221600Y405400D02*
X251600D01*
X236600Y390400D02*
Y420400D01*
X285100Y430800D02*
X315100D01*
X300100Y415800D02*
Y445800D01*
X216500Y380000D02*
X233500D01*
X225000Y371500D02*
Y388500D01*
X316500Y380000D02*
X333500D01*
X325000Y371500D02*
Y388500D01*
X255061Y380000D02*
X294939D01*
X275000Y360061D02*
Y399939D01*
X308100Y329200D02*
X318100D01*
X313100Y324200D02*
Y334200D01*
X231900Y329200D02*
X241900D01*
X236900Y324200D02*
Y334200D01*
X26600Y405400D02*
X56600D01*
X41600Y390400D02*
Y420400D01*
X90100Y430800D02*
X120100D01*
X105100Y415800D02*
Y445800D01*
X21500Y380000D02*
X38500D01*
X30000Y371500D02*
Y388500D01*
X121500Y380000D02*
X138500D01*
X130000Y371500D02*
Y388500D01*
X60061Y380000D02*
X99939D01*
X80000Y360061D02*
Y399939D01*
X113100Y329200D02*
X123100D01*
X118100Y324200D02*
Y334200D01*
X36900Y329200D02*
X46900D01*
X41900Y324200D02*
Y334200D01*
X416600Y197800D02*
X446600D01*
X431600Y182800D02*
Y212800D01*
X480100Y223200D02*
X510100D01*
X495100Y208200D02*
Y238200D01*
X411500Y172400D02*
X428500D01*
X420000Y163900D02*
Y180900D01*
X511500Y172400D02*
X528500D01*
X520000Y163900D02*
Y180900D01*
X450061Y172400D02*
X489939D01*
X470000Y152461D02*
Y192339D01*
X503100Y121600D02*
X513100D01*
X508100Y116600D02*
Y126600D01*
X426900Y121600D02*
X436900D01*
X431900Y116600D02*
Y126600D01*
X221600Y197800D02*
X251600D01*
X236600Y182800D02*
Y212800D01*
X285100Y223200D02*
X315100D01*
X300100Y208200D02*
Y238200D01*
X216500Y172400D02*
X233500D01*
X225000Y163901D02*
Y180900D01*
X316500Y172400D02*
X333500D01*
X325000Y163901D02*
Y180900D01*
X255061Y172400D02*
X294939D01*
X275000Y152461D02*
Y192339D01*
X308100Y121600D02*
X318100D01*
X313100Y116601D02*
Y126600D01*
X231900Y121601D02*
X241900D01*
X236900Y116601D02*
Y126601D01*
X26600Y197796D02*
X56600D01*
X41600Y182796D02*
Y212796D01*
X90100Y223197D02*
X120100D01*
X105100Y208197D02*
Y238197D01*
X21500Y172397D02*
X38500D01*
X30000Y163897D02*
Y180896D01*
X121500Y172397D02*
X138500D01*
X130000Y163897D02*
Y180896D01*
X60061Y172397D02*
X99939D01*
X80000Y152458D02*
Y192335D01*
X113100Y121596D02*
X123100D01*
X118100Y116596D02*
Y126596D01*
X36900Y121596D02*
X46900D01*
X41900Y116596D02*
Y126596D01*
X540500Y820000D02*
X549500D01*
X545000Y815500D02*
Y824500D01*
X565500Y820000D02*
X574500D01*
X570000Y815500D02*
Y824500D01*
X590500Y820000D02*
X599500D01*
X595000Y815500D02*
Y824500D01*
X615500Y820000D02*
X624500D01*
X620000Y815500D02*
Y824500D01*
X724501Y284389D02*
X742501D01*
X733501Y275389D02*
Y293389D01*
X696501Y209389D02*
X706501D01*
X701501Y204389D02*
Y214389D01*
X671501Y209389D02*
X681501D01*
X676501Y204389D02*
Y214389D01*
X646501Y209389D02*
X656501D01*
X651501Y204389D02*
Y214389D01*
X696501Y354389D02*
X706501D01*
X701501Y349389D02*
Y359389D01*
X646501Y354389D02*
X656501D01*
X651501Y349389D02*
Y359389D01*
X610501Y284389D02*
X628501D01*
X619501Y275389D02*
Y293389D01*
X903000Y1692D02*
X937000D01*
X920000Y-15308D02*
Y18692D01*
X885700Y566000D02*
X906200D01*
X895950Y555750D02*
Y576250D01*
X885700Y674000D02*
X906200D01*
X895950Y663750D02*
Y684250D01*
X919250Y566000D02*
X937250D01*
X928250Y557000D02*
Y575000D01*
X919250Y674000D02*
X937250D01*
X928250Y665000D02*
Y683000D01*
X885700Y416000D02*
X906200D01*
X895950Y405750D02*
Y426250D01*
X885700Y524000D02*
X906200D01*
X895950Y513750D02*
Y534250D01*
X919250Y416000D02*
X937250D01*
X928250Y407000D02*
Y425000D01*
X919250Y524000D02*
X937250D01*
X928250Y515000D02*
Y533000D01*
X-17000Y0D02*
X17000D01*
X0Y-17000D02*
Y17000D01*
X903000Y830000D02*
X937000D01*
X920000Y813000D02*
Y847000D01*
X-17000Y830000D02*
X17000D01*
X0Y813000D02*
Y847000D01*
X683980Y816280D02*
X689980D01*
X686980Y813280D02*
Y819280D01*
X696680Y816280D02*
X702680D01*
X699680Y813280D02*
Y819280D01*
X709380Y816280D02*
X715380D01*
X712380Y813280D02*
Y819280D01*
X722080Y816280D02*
X728080D01*
X725080Y813280D02*
Y819280D01*
X734780Y816280D02*
X740780D01*
X737780Y813280D02*
Y819280D01*
X747480Y816280D02*
X753480D01*
X750480Y813280D02*
Y819280D01*
X760180Y816280D02*
X766180D01*
X763180Y813280D02*
Y819280D01*
X772880Y816280D02*
X778880D01*
X775880Y813280D02*
Y819280D01*
X225837Y559737D02*
X228837D01*
X227337Y558237D02*
Y561237D01*
X159592Y543314D02*
X162591D01*
X161091Y541814D02*
Y544814D01*
X108548Y479363D02*
X111548D01*
X110048Y477863D02*
Y480863D01*
X19397Y503136D02*
X22397D01*
X20897Y501636D02*
Y504636D01*
X16217Y526623D02*
X19217D01*
X17717Y525122D02*
Y528122D01*
X18315Y564043D02*
X21315D01*
X19815Y562543D02*
Y565543D01*
X16750Y549515D02*
X19750D01*
X18250Y548015D02*
Y551015D01*
X18091Y577343D02*
X21091D01*
X19591Y575843D02*
Y578843D01*
X251476Y523377D02*
X254476D01*
X252976Y521877D02*
Y524877D01*
X775705Y758579D02*
X778706D01*
X777206Y757079D02*
Y760079D01*
X713711Y471766D02*
X716711D01*
X715211Y470266D02*
Y473266D01*
X713264Y483836D02*
X716264D01*
X714764Y482336D02*
Y485336D01*
X700926Y484015D02*
X703926D01*
X702426Y482515D02*
Y485515D01*
X700658Y471855D02*
X703658D01*
X702158Y470355D02*
Y473355D01*
X678542Y502710D02*
X681542D01*
X680042Y501210D02*
Y504210D01*
X687295Y560241D02*
X690295D01*
X688795Y558741D02*
Y561741D01*
X699087Y530675D02*
X702087D01*
X700587Y529175D02*
Y532175D01*
X738729Y556163D02*
X741729D01*
X740229Y554663D02*
Y557663D01*
X745985Y547410D02*
X748985D01*
X747485Y545910D02*
Y548910D01*
X818357Y509834D02*
X821357D01*
X819857Y508334D02*
Y511334D01*
X826446Y424975D02*
X829446D01*
X827946Y423475D02*
Y426475D01*
X859830Y424594D02*
X862830D01*
X861330Y423094D02*
Y426094D01*
X815578Y454867D02*
X818578D01*
X817078Y453367D02*
Y456367D01*
X794494Y435085D02*
X797494D01*
X795994Y433586D02*
Y436586D01*
X761136Y525703D02*
X764137D01*
X762636Y524203D02*
Y527203D01*
X774879Y513387D02*
X777879D01*
X776379Y511887D02*
Y514887D01*
X799771Y520906D02*
X802771D01*
X801271Y519406D02*
Y522406D01*
X846056Y552281D02*
X849056D01*
X847556Y550781D02*
Y553781D01*
X874448Y571469D02*
X877448D01*
X875948Y569968D02*
Y572968D01*
X861224Y551632D02*
X864224D01*
X862724Y550132D02*
Y553133D01*
X206976Y839892D02*
X209976D01*
X208476Y838392D02*
Y841392D01*
X179325Y840282D02*
X182325D01*
X180825Y838782D02*
Y841782D01*
X179871Y823458D02*
X182871D01*
X181371Y821958D02*
Y824958D01*
X180416Y809905D02*
X183416D01*
X181916Y808405D02*
Y811405D01*
X193813Y856362D02*
X196813D01*
X195313Y854863D02*
Y857862D01*
X498543Y72860D02*
X501543D01*
X500043Y71360D02*
Y74360D01*
X304600Y71484D02*
X307600D01*
X306100Y69984D02*
Y72984D01*
X110629Y73952D02*
X113629D01*
X112129Y72452D02*
Y75452D01*
X136207Y294795D02*
X139207D01*
X137707Y293295D02*
Y296295D01*
X301589Y284153D02*
X304589D01*
X303089Y282653D02*
Y285653D01*
X402305Y104492D02*
X405305D01*
X403805Y102992D02*
Y105991D01*
X215248Y105229D02*
X218248D01*
X216748Y103729D02*
Y106729D01*
X23868Y271678D02*
X26868D01*
X25368Y270178D02*
Y273178D01*
X213147Y271897D02*
X216147D01*
X214647Y270397D02*
Y273397D01*
X399358Y262745D02*
X402358D01*
X400858Y261245D02*
Y264245D01*
X176624Y587727D02*
X179624D01*
X178124Y586227D02*
Y589227D01*
X173831Y534248D02*
X176831D01*
X175331Y532748D02*
Y535748D01*
X28928Y437960D02*
X31927D01*
X30427Y436460D02*
Y439460D01*
X46445Y618502D02*
X49445D01*
X47945Y617002D02*
Y620002D01*
X163733Y617739D02*
X166733D01*
X165233Y616239D02*
Y619239D01*
X551888Y481888D02*
X554888D01*
X553388Y480388D02*
Y483388D01*
X369565Y471949D02*
X372565D01*
X371065Y470449D02*
Y473449D01*
X344543Y663697D02*
X347543D01*
X346043Y662197D02*
Y665197D01*
X199954Y667004D02*
X202954D01*
X201454Y665504D02*
Y668504D01*
X194716Y493984D02*
X197716D01*
X196216Y492484D02*
Y495484D01*
X201266Y748140D02*
X204266D01*
X202766Y746640D02*
Y749640D01*
X188643Y745483D02*
X191643D01*
X190143Y743983D02*
Y746983D01*
X327191Y598467D02*
X330191D01*
X328691Y596967D02*
Y599967D01*
X327380Y626328D02*
X330380D01*
X328880Y624828D02*
Y627828D01*
X112564Y621067D02*
X115564D01*
X114064Y619567D02*
Y622567D01*
X150664Y621493D02*
X153664D01*
X152164Y619993D02*
Y622993D01*
X322231Y640489D02*
X325231D01*
X323731Y638989D02*
Y641989D01*
X567338Y634208D02*
X570338D01*
X568838Y632708D02*
Y635708D01*
X583747Y195600D02*
X586747D01*
X585247Y194100D02*
Y197100D01*
X598003Y733851D02*
X601003D01*
X599503Y732351D02*
Y735351D01*
X649104Y399213D02*
X652104D01*
X650604Y397713D02*
Y400713D01*
X144287Y728961D02*
X147287D01*
X145787Y727461D02*
Y730461D01*
X138901Y621255D02*
X141901D01*
X140401Y619755D02*
Y622755D01*
X826941Y405638D02*
X829941D01*
X828441Y404138D02*
Y407138D01*
X826439Y445981D02*
X829439D01*
X827939Y444481D02*
Y447481D01*
X841332Y494107D02*
X844332D01*
X842832Y492607D02*
Y495607D01*
X100018Y668962D02*
X103018D01*
X101518Y667462D02*
Y670462D01*
X100018Y681530D02*
X103018D01*
X101518Y680030D02*
Y683030D01*
X112628Y681530D02*
X115628D01*
X114128Y680030D02*
Y683030D01*
X112628Y668962D02*
X115628D01*
X114128Y667462D02*
Y670462D01*
X447655Y582644D02*
X450655D01*
X449155Y581144D02*
Y584144D01*
X391243Y540537D02*
X394243D01*
X392743Y539037D02*
Y542037D01*
X460334Y416613D02*
X463334D01*
X461834Y415113D02*
Y418113D01*
X695470Y404569D02*
X698470D01*
X696970Y403069D02*
Y406069D01*
X165327Y580506D02*
X168327D01*
X166827Y579006D02*
Y582006D01*
X119615Y575032D02*
X122615D01*
X121115Y573531D02*
Y576531D01*
X133635Y739348D02*
X136635D01*
X135135Y737848D02*
Y740848D01*
X194926Y565549D02*
X197926D01*
X196426Y564049D02*
Y567049D01*
X214164Y749885D02*
X217164D01*
X215664Y748385D02*
Y751385D01*
X236937Y648638D02*
X239937D01*
X238437Y647138D02*
Y650138D01*
X244222Y639249D02*
X247222D01*
X245722Y637749D02*
Y640749D01*
X385597Y748463D02*
X388597D01*
X387098Y746963D02*
Y749963D01*
X385217Y629499D02*
X388217D01*
X386717Y627999D02*
Y630999D01*
X100979Y639387D02*
X103979D01*
X102479Y637887D02*
Y640887D01*
X655010Y716420D02*
X658009D01*
X656509Y714920D02*
Y717920D01*
X61795Y758935D02*
X64795D01*
X63295Y757435D02*
Y760435D01*
X698270Y775933D02*
X701270D01*
X699770Y774433D02*
Y777433D01*
X248973Y778769D02*
X251973D01*
X250473Y777269D02*
Y780269D01*
X86965Y649148D02*
X89965D01*
X88465Y647648D02*
Y650648D01*
X236566Y788915D02*
X239566D01*
X238066Y787415D02*
Y790415D01*
X76729Y796034D02*
X79729D01*
X78229Y794534D02*
Y797534D01*
X167528Y814162D02*
X170528D01*
X169028Y812662D02*
Y815662D01*
X113713Y813256D02*
X116713D01*
X115213Y811756D02*
Y814756D01*
X78580Y748094D02*
X81580D01*
X80080Y746594D02*
Y749594D01*
X177641Y747432D02*
X180641D01*
X179141Y745932D02*
Y748932D01*
X101032Y333684D02*
X104031D01*
X102531Y332183D02*
Y335183D01*
X272522Y589053D02*
X275522D01*
X274022Y587553D02*
Y590553D01*
X117501Y532626D02*
X120501D01*
X119002Y531127D02*
Y534127D01*
X125298Y493302D02*
X128298D01*
X126798Y491802D02*
Y494802D01*
X571823Y505711D02*
X574823D01*
X573323Y504211D02*
Y507211D01*
X674340Y488031D02*
X677340D01*
X675840Y486531D02*
Y489531D01*
X673899Y468116D02*
X675899D01*
X674899Y467116D02*
Y469116D01*
X140232Y846953D02*
X143232D01*
X141732Y845453D02*
Y848453D01*
X141893Y501022D02*
X144893D01*
X143393Y499522D02*
Y502522D01*
X116316Y516753D02*
X119316D01*
X117816Y515253D02*
Y518253D01*
X47485Y529902D02*
X50485D01*
X48985Y528402D02*
Y531402D01*
X315796Y275595D02*
X318796D01*
X317296Y274095D02*
Y277095D01*
X537616Y223308D02*
X540616D01*
X539116Y221808D02*
Y224808D01*
X520063Y312704D02*
X523063D01*
X521563Y311204D02*
Y314204D01*
X245280Y280971D02*
X248280D01*
X246780Y279471D02*
Y282471D01*
X362971Y591924D02*
X365970D01*
X364470Y590424D02*
Y593424D01*
X376849Y598061D02*
X379849D01*
X378349Y596561D02*
Y599561D01*
X538948Y434499D02*
X541948D01*
X540448Y432999D02*
Y435999D01*
X342732Y430800D02*
X345732D01*
X344232Y429300D02*
Y432300D01*
X385646Y197198D02*
X388646D01*
X387146Y195698D02*
Y198698D01*
X189765Y197763D02*
X192765D01*
X191265Y196263D02*
Y199263D01*
X-5053Y198338D02*
X-2053D01*
X-3553Y196838D02*
Y199838D01*
X148605Y223216D02*
X151605D01*
X150105Y221716D02*
Y224716D01*
X148695Y430610D02*
X151695D01*
X150195Y429110D02*
Y432110D01*
X390713Y603875D02*
X393713D01*
X392213Y602375D02*
Y605375D01*
X369633Y717706D02*
X372633D01*
X371133Y716206D02*
Y719206D01*
X362233Y707537D02*
X365233D01*
X363733Y706037D02*
Y709037D01*
X643845Y548368D02*
X646845D01*
X645345Y546868D02*
Y549868D01*
X711184Y511990D02*
X714184D01*
X712684Y510490D02*
Y513490D01*
X735656Y513755D02*
X738656D01*
X737156Y512255D02*
Y515255D01*
X828620Y624490D02*
X831620D01*
X830120Y622990D02*
Y625990D01*
X866175Y521946D02*
X869175D01*
X867675Y520446D02*
Y523446D01*
X860593Y460003D02*
X863593D01*
X862093Y458503D02*
Y461503D01*
X873271Y480788D02*
X876271D01*
X874771Y479288D02*
Y482288D01*
X876220Y609376D02*
X879221D01*
X877720Y607876D02*
Y610876D01*
X685778Y449249D02*
X688778D01*
X687278Y447749D02*
Y450749D01*
X824930Y652916D02*
X827930D01*
X826430Y651416D02*
Y654416D01*
X807324Y610592D02*
X810324D01*
X808824Y609092D02*
Y612092D01*
X861733Y662473D02*
X864733D01*
X863233Y660973D02*
Y663973D01*
X854365Y610105D02*
X857365D01*
X855865Y608605D02*
Y611605D01*
X806789Y566240D02*
X809789D01*
X808289Y564740D02*
Y567740D01*
X873833Y595051D02*
X876833D01*
X875333Y593551D02*
Y596551D01*
X874391Y444797D02*
X877391D01*
X875891Y443297D02*
Y446297D01*
X874003Y494936D02*
X877002D01*
X875502Y493436D02*
Y496436D01*
X873262Y467520D02*
X876263D01*
X874762Y466020D02*
Y469020D01*
X825221Y477127D02*
X828221D01*
X826721Y475628D02*
Y478628D01*
X877170Y622902D02*
X880170D01*
X878670Y621402D02*
Y624402D01*
X873887Y644987D02*
X876887D01*
X875387Y643487D02*
Y646487D01*
M02*
