G04*
G04 #@! TF.GenerationSoftware,Altium Limited,Altium Designer,25.4.2 (15)*
G04*
G04 Layer_Color=32896*
%FSLAX44Y44*%
%MOMM*%
G71*
G04*
G04 #@! TF.SameCoordinates,99B82A19-3900-4842-934D-00B4288F025C*
G04*
G04*
G04 #@! TF.FilePolarity,Positive*
G04*
G01*
G75*
%ADD11C,0.2000*%
%ADD12C,0.1000*%
%ADD14C,0.1270*%
%ADD108C,0.1524*%
G36*
X502794Y137852D02*
X502782Y137373D01*
X502758Y136929D01*
X502710Y136522D01*
X502662Y136138D01*
X502590Y135802D01*
X502519Y135503D01*
X502435Y135227D01*
X502351Y134987D01*
X502279Y134771D01*
X502195Y134603D01*
X502123Y134447D01*
X502051Y134328D01*
X502003Y134244D01*
X501955Y134172D01*
X501931Y134136D01*
X501919Y134124D01*
X501739Y133944D01*
X501559Y133776D01*
X501344Y133632D01*
X501140Y133512D01*
X500912Y133417D01*
X500696Y133333D01*
X500480Y133261D01*
X500265Y133201D01*
X500061Y133153D01*
X499881Y133129D01*
X499713Y133105D01*
X499557Y133081D01*
X499437D01*
X499342Y133069D01*
X499270D01*
X499042Y133081D01*
X498826Y133093D01*
X498610Y133129D01*
X498418Y133165D01*
X498238Y133201D01*
X498071Y133261D01*
X497915Y133309D01*
X497771Y133369D01*
X497639Y133417D01*
X497531Y133476D01*
X497435Y133524D01*
X497351Y133560D01*
X497291Y133608D01*
X497243Y133632D01*
X497220Y133644D01*
X497207Y133656D01*
X496920Y133896D01*
X496692Y134148D01*
X496488Y134424D01*
X496332Y134675D01*
X496224Y134903D01*
X496176Y134999D01*
X496141Y135083D01*
X496116Y135155D01*
X496092Y135203D01*
X496081Y135239D01*
Y135251D01*
X496021Y135443D01*
X495973Y135658D01*
X495901Y136090D01*
X495841Y136522D01*
X495805Y136929D01*
X495793Y137121D01*
X495781Y137301D01*
Y137457D01*
X495769Y137589D01*
Y137697D01*
Y137780D01*
Y137840D01*
Y137852D01*
Y144170D01*
X496956D01*
Y137864D01*
X496968Y137493D01*
X496980Y137157D01*
X497004Y136845D01*
X497040Y136558D01*
X497088Y136306D01*
X497136Y136078D01*
X497183Y135874D01*
X497243Y135706D01*
X497291Y135550D01*
X497351Y135419D01*
X497399Y135311D01*
X497435Y135227D01*
X497483Y135167D01*
X497507Y135119D01*
X497519Y135095D01*
X497531Y135083D01*
X497639Y134963D01*
X497771Y134855D01*
X497903Y134759D01*
X498059Y134675D01*
X498203Y134603D01*
X498358Y134543D01*
X498658Y134459D01*
X498790Y134436D01*
X498922Y134411D01*
X499042Y134400D01*
X499150Y134388D01*
X499234Y134376D01*
X499353D01*
X499629Y134388D01*
X499869Y134424D01*
X500097Y134483D01*
X500277Y134543D01*
X500433Y134603D01*
X500540Y134663D01*
X500612Y134699D01*
X500624Y134711D01*
X500636D01*
X500816Y134855D01*
X500972Y135011D01*
X501092Y135179D01*
X501200Y135347D01*
X501284Y135491D01*
X501332Y135610D01*
X501356Y135658D01*
X501368Y135694D01*
X501380Y135706D01*
Y135718D01*
X501416Y135850D01*
X501451Y136006D01*
X501488Y136162D01*
X501511Y136342D01*
X501547Y136689D01*
X501583Y137049D01*
Y137205D01*
X501595Y137361D01*
Y137505D01*
X501607Y137625D01*
Y137720D01*
Y137804D01*
Y137852D01*
Y137864D01*
Y144170D01*
X502794D01*
Y137852D01*
D02*
G37*
G36*
X491501Y144194D02*
X491693Y144170D01*
X491884Y144135D01*
X492052Y144087D01*
X492220Y144027D01*
X492376Y143955D01*
X492508Y143883D01*
X492640Y143811D01*
X492748Y143739D01*
X492856Y143667D01*
X492939Y143595D01*
X493011Y143535D01*
X493071Y143487D01*
X493107Y143451D01*
X493131Y143427D01*
X493143Y143415D01*
X493275Y143259D01*
X493383Y143103D01*
X493479Y142936D01*
X493563Y142768D01*
X493635Y142600D01*
X493695Y142432D01*
X493779Y142120D01*
X493815Y141965D01*
X493839Y141833D01*
X493851Y141713D01*
X493863Y141605D01*
X493875Y141521D01*
Y141461D01*
Y141413D01*
Y141401D01*
X493863Y141101D01*
X493827Y140837D01*
X493767Y140598D01*
X493707Y140394D01*
X493659Y140238D01*
X493599Y140106D01*
X493575Y140070D01*
X493563Y140034D01*
X493551Y140022D01*
Y140010D01*
X493407Y139818D01*
X493251Y139651D01*
X493083Y139495D01*
X492928Y139375D01*
X492784Y139279D01*
X492664Y139219D01*
X492616Y139195D01*
X492580Y139171D01*
X492568Y139159D01*
X492556D01*
X492832Y139051D01*
X493083Y138907D01*
X493299Y138740D01*
X493467Y138584D01*
X493611Y138440D01*
X493707Y138320D01*
X493743Y138272D01*
X493767Y138236D01*
X493791Y138212D01*
Y138200D01*
X493935Y137924D01*
X494042Y137625D01*
X494126Y137313D01*
X494174Y137025D01*
X494198Y136893D01*
X494210Y136773D01*
X494222Y136665D01*
Y136569D01*
X494234Y136498D01*
Y136438D01*
Y136402D01*
Y136390D01*
X494222Y136114D01*
X494198Y135862D01*
X494162Y135610D01*
X494102Y135383D01*
X494042Y135167D01*
X493970Y134975D01*
X493887Y134795D01*
X493815Y134627D01*
X493731Y134483D01*
X493659Y134352D01*
X493587Y134244D01*
X493527Y134148D01*
X493467Y134076D01*
X493431Y134028D01*
X493407Y133992D01*
X493395Y133980D01*
X493227Y133824D01*
X493059Y133680D01*
X492879Y133560D01*
X492712Y133452D01*
X492532Y133369D01*
X492352Y133297D01*
X492184Y133237D01*
X492016Y133189D01*
X491872Y133141D01*
X491729Y133117D01*
X491597Y133093D01*
X491489Y133081D01*
X491405D01*
X491345Y133069D01*
X491285D01*
X491057Y133081D01*
X490841Y133105D01*
X490626Y133153D01*
X490434Y133213D01*
X490242Y133285D01*
X490074Y133357D01*
X489918Y133440D01*
X489762Y133524D01*
X489643Y133608D01*
X489523Y133692D01*
X489427Y133764D01*
X489343Y133836D01*
X489271Y133896D01*
X489223Y133944D01*
X489199Y133968D01*
X489187Y133980D01*
X489031Y134160D01*
X488911Y134352D01*
X488791Y134543D01*
X488695Y134735D01*
X488611Y134939D01*
X488540Y135143D01*
X488492Y135335D01*
X488444Y135514D01*
X488408Y135682D01*
X488384Y135850D01*
X488360Y135994D01*
X488348Y136114D01*
X488336Y136210D01*
Y136294D01*
Y136342D01*
Y136354D01*
X488360Y136737D01*
X488408Y137085D01*
X488480Y137385D01*
X488516Y137517D01*
X488552Y137636D01*
X488600Y137756D01*
X488635Y137852D01*
X488671Y137936D01*
X488707Y137996D01*
X488743Y138056D01*
X488755Y138092D01*
X488779Y138116D01*
Y138128D01*
X488959Y138380D01*
X489151Y138596D01*
X489355Y138776D01*
X489559Y138919D01*
X489739Y139027D01*
X489882Y139099D01*
X489942Y139123D01*
X489978Y139147D01*
X490002Y139159D01*
X490014D01*
X489786Y139291D01*
X489583Y139423D01*
X489415Y139567D01*
X489271Y139699D01*
X489163Y139818D01*
X489091Y139926D01*
X489043Y139986D01*
X489031Y140010D01*
X488923Y140226D01*
X488839Y140454D01*
X488779Y140682D01*
X488731Y140885D01*
X488707Y141077D01*
Y141149D01*
X488695Y141221D01*
Y141281D01*
Y141317D01*
Y141341D01*
Y141353D01*
X488707Y141581D01*
X488731Y141809D01*
X488767Y142012D01*
X488815Y142204D01*
X488863Y142384D01*
X488935Y142552D01*
X488995Y142708D01*
X489067Y142852D01*
X489139Y142971D01*
X489199Y143091D01*
X489271Y143187D01*
X489319Y143259D01*
X489367Y143319D01*
X489403Y143367D01*
X489427Y143391D01*
X489439Y143403D01*
X489583Y143547D01*
X489726Y143667D01*
X489882Y143775D01*
X490038Y143871D01*
X490194Y143943D01*
X490350Y144015D01*
X490650Y144110D01*
X490782Y144135D01*
X490901Y144158D01*
X491021Y144182D01*
X491105Y144194D01*
X491189Y144206D01*
X491297D01*
X491501Y144194D01*
D02*
G37*
G36*
X307144Y137855D02*
X307132Y137376D01*
X307108Y136932D01*
X307060Y136524D01*
X307012Y136141D01*
X306940Y135805D01*
X306868Y135506D01*
X306784Y135230D01*
X306700Y134990D01*
X306628Y134774D01*
X306544Y134606D01*
X306472Y134451D01*
X306400Y134331D01*
X306352Y134247D01*
X306304Y134175D01*
X306280Y134139D01*
X306269Y134127D01*
X306089Y133947D01*
X305909Y133779D01*
X305693Y133635D01*
X305489Y133515D01*
X305261Y133419D01*
X305046Y133336D01*
X304830Y133264D01*
X304614Y133204D01*
X304410Y133156D01*
X304230Y133132D01*
X304062Y133108D01*
X303907Y133084D01*
X303787D01*
X303691Y133072D01*
X303619D01*
X303391Y133084D01*
X303175Y133096D01*
X302960Y133132D01*
X302768Y133168D01*
X302588Y133204D01*
X302420Y133264D01*
X302264Y133312D01*
X302120Y133371D01*
X301989Y133419D01*
X301881Y133479D01*
X301785Y133527D01*
X301701Y133563D01*
X301641Y133611D01*
X301593Y133635D01*
X301569Y133647D01*
X301557Y133659D01*
X301269Y133899D01*
X301041Y134151D01*
X300837Y134426D01*
X300682Y134678D01*
X300574Y134906D01*
X300526Y135002D01*
X300490Y135086D01*
X300466Y135158D01*
X300442Y135206D01*
X300430Y135242D01*
Y135254D01*
X300370Y135446D01*
X300322Y135661D01*
X300250Y136093D01*
X300190Y136524D01*
X300154Y136932D01*
X300142Y137124D01*
X300130Y137304D01*
Y137460D01*
X300118Y137591D01*
Y137699D01*
Y137783D01*
Y137843D01*
Y137855D01*
Y144173D01*
X301305D01*
Y137867D01*
X301317Y137496D01*
X301329Y137160D01*
X301353Y136848D01*
X301389Y136560D01*
X301437Y136309D01*
X301485Y136081D01*
X301533Y135877D01*
X301593Y135709D01*
X301641Y135553D01*
X301701Y135422D01*
X301749Y135314D01*
X301785Y135230D01*
X301833Y135170D01*
X301857Y135122D01*
X301869Y135098D01*
X301881Y135086D01*
X301989Y134966D01*
X302120Y134858D01*
X302252Y134762D01*
X302408Y134678D01*
X302552Y134606D01*
X302708Y134546D01*
X303008Y134462D01*
X303139Y134438D01*
X303271Y134415D01*
X303391Y134403D01*
X303499Y134390D01*
X303583Y134378D01*
X303703D01*
X303979Y134390D01*
X304218Y134426D01*
X304446Y134486D01*
X304626Y134546D01*
X304782Y134606D01*
X304890Y134666D01*
X304962Y134702D01*
X304974Y134714D01*
X304986D01*
X305166Y134858D01*
X305321Y135014D01*
X305441Y135182D01*
X305549Y135350D01*
X305633Y135493D01*
X305681Y135613D01*
X305705Y135661D01*
X305717Y135697D01*
X305729Y135709D01*
Y135721D01*
X305765Y135853D01*
X305801Y136009D01*
X305837Y136165D01*
X305861Y136345D01*
X305897Y136692D01*
X305933Y137052D01*
Y137208D01*
X305945Y137364D01*
Y137508D01*
X305957Y137627D01*
Y137723D01*
Y137807D01*
Y137855D01*
Y137867D01*
Y144173D01*
X307144D01*
Y137855D01*
D02*
G37*
G36*
X298500Y142747D02*
X294136D01*
X294447Y142291D01*
X294735Y141812D01*
X294999Y141344D01*
X295119Y141116D01*
X295227Y140900D01*
X295335Y140697D01*
X295419Y140517D01*
X295502Y140349D01*
X295562Y140205D01*
X295622Y140085D01*
X295658Y140001D01*
X295682Y139953D01*
X295694Y139929D01*
X295946Y139306D01*
X296174Y138682D01*
X296282Y138383D01*
X296366Y138095D01*
X296462Y137819D01*
X296534Y137568D01*
X296605Y137328D01*
X296665Y137112D01*
X296713Y136920D01*
X296761Y136752D01*
X296785Y136621D01*
X296809Y136524D01*
X296833Y136465D01*
Y136441D01*
X296905Y136105D01*
X296965Y135781D01*
X297025Y135470D01*
X297073Y135170D01*
X297109Y134894D01*
X297145Y134630D01*
X297169Y134390D01*
X297193Y134163D01*
X297217Y133959D01*
X297229Y133779D01*
X297241Y133623D01*
Y133491D01*
X297253Y133396D01*
Y133312D01*
Y133264D01*
Y133252D01*
X296138D01*
X296102Y133743D01*
X296042Y134247D01*
X295982Y134726D01*
X295898Y135206D01*
X295814Y135661D01*
X295718Y136105D01*
X295622Y136524D01*
X295515Y136920D01*
X295419Y137280D01*
X295335Y137604D01*
X295239Y137891D01*
X295167Y138131D01*
X295131Y138239D01*
X295107Y138335D01*
X295071Y138407D01*
X295059Y138479D01*
X295035Y138527D01*
X295023Y138563D01*
X295011Y138587D01*
Y138599D01*
X294819Y139090D01*
X294627Y139558D01*
X294436Y140001D01*
X294244Y140421D01*
X294040Y140816D01*
X293848Y141176D01*
X293668Y141500D01*
X293500Y141800D01*
X293333Y142075D01*
X293189Y142315D01*
X293057Y142507D01*
X292937Y142675D01*
X292853Y142819D01*
X292781Y142915D01*
X292733Y142963D01*
X292721Y142986D01*
Y144030D01*
X298500D01*
Y142747D01*
D02*
G37*
G36*
X99744Y144136D02*
X99984Y144088D01*
X100223Y144028D01*
X100439Y143932D01*
X100643Y143836D01*
X100835Y143716D01*
X101003Y143596D01*
X101171Y143476D01*
X101314Y143345D01*
X101434Y143225D01*
X101542Y143105D01*
X101626Y143009D01*
X101698Y142913D01*
X101758Y142853D01*
X101782Y142805D01*
X101794Y142793D01*
X101950Y142517D01*
X102082Y142218D01*
X102201Y141882D01*
X102309Y141522D01*
X102393Y141151D01*
X102465Y140779D01*
X102525Y140407D01*
X102573Y140048D01*
X102609Y139688D01*
X102633Y139364D01*
X102657Y139065D01*
X102669Y138813D01*
Y138693D01*
Y138597D01*
X102681Y138513D01*
Y138441D01*
Y138381D01*
Y138333D01*
Y138309D01*
Y138297D01*
X102669Y137782D01*
X102645Y137302D01*
X102597Y136859D01*
X102549Y136463D01*
X102477Y136091D01*
X102405Y135756D01*
X102321Y135456D01*
X102238Y135192D01*
X102166Y134952D01*
X102082Y134761D01*
X102010Y134593D01*
X101938Y134461D01*
X101890Y134353D01*
X101842Y134281D01*
X101818Y134233D01*
X101806Y134221D01*
X101638Y134005D01*
X101458Y133826D01*
X101278Y133658D01*
X101087Y133526D01*
X100895Y133406D01*
X100715Y133310D01*
X100535Y133226D01*
X100367Y133166D01*
X100199Y133106D01*
X100056Y133070D01*
X99912Y133046D01*
X99804Y133034D01*
X99708Y133022D01*
X99636Y133010D01*
X99576D01*
X99300Y133034D01*
X99037Y133082D01*
X98809Y133142D01*
X98605Y133226D01*
X98437Y133298D01*
X98305Y133370D01*
X98257Y133394D01*
X98221Y133418D01*
X98209Y133430D01*
X98197D01*
X97970Y133610D01*
X97778Y133813D01*
X97598Y134029D01*
X97454Y134245D01*
X97334Y134437D01*
X97286Y134521D01*
X97250Y134593D01*
X97214Y134653D01*
X97190Y134701D01*
X97178Y134725D01*
Y134737D01*
X97046Y135084D01*
X96938Y135432D01*
X96867Y135768D01*
X96819Y136067D01*
X96807Y136211D01*
X96795Y136331D01*
X96783Y136451D01*
X96771Y136547D01*
Y136619D01*
Y136679D01*
Y136715D01*
Y136727D01*
X96783Y137027D01*
X96807Y137302D01*
X96842Y137566D01*
X96890Y137818D01*
X96962Y138046D01*
X97022Y138249D01*
X97094Y138453D01*
X97166Y138621D01*
X97250Y138777D01*
X97322Y138921D01*
X97382Y139029D01*
X97442Y139124D01*
X97502Y139208D01*
X97538Y139256D01*
X97562Y139292D01*
X97574Y139304D01*
X97730Y139472D01*
X97886Y139628D01*
X98041Y139760D01*
X98197Y139868D01*
X98353Y139964D01*
X98509Y140036D01*
X98653Y140108D01*
X98797Y140155D01*
X98929Y140191D01*
X99049Y140227D01*
X99156Y140252D01*
X99240Y140263D01*
X99312D01*
X99372Y140275D01*
X99420D01*
X99660Y140263D01*
X99888Y140216D01*
X100091Y140155D01*
X100271Y140096D01*
X100427Y140024D01*
X100547Y139964D01*
X100583Y139940D01*
X100619Y139916D01*
X100631Y139904D01*
X100643D01*
X100847Y139748D01*
X101027Y139580D01*
X101194Y139400D01*
X101326Y139220D01*
X101434Y139065D01*
X101518Y138933D01*
X101554Y138885D01*
X101578Y138849D01*
X101590Y138826D01*
X101590Y138813D01*
Y138825D01*
X101590Y138826D01*
X101578Y139185D01*
X101566Y139520D01*
X101542Y139844D01*
X101506Y140132D01*
X101470Y140407D01*
X101422Y140659D01*
X101374Y140887D01*
X101338Y141091D01*
X101290Y141258D01*
X101242Y141414D01*
X101207Y141546D01*
X101159Y141654D01*
X101135Y141738D01*
X101110Y141798D01*
X101087Y141834D01*
Y141846D01*
X100979Y142062D01*
X100859Y142242D01*
X100727Y142397D01*
X100607Y142541D01*
X100475Y142661D01*
X100343Y142757D01*
X100223Y142829D01*
X100104Y142901D01*
X99996Y142949D01*
X99888Y142985D01*
X99792Y143009D01*
X99708Y143021D01*
X99648Y143033D01*
X99588Y143045D01*
X99432D01*
X99324Y143021D01*
X99120Y142961D01*
X98941Y142877D01*
X98785Y142781D01*
X98665Y142685D01*
X98569Y142601D01*
X98521Y142541D01*
X98497Y142529D01*
Y142517D01*
X98389Y142361D01*
X98293Y142182D01*
X98209Y141990D01*
X98149Y141786D01*
X98089Y141606D01*
X98053Y141462D01*
X98041Y141414D01*
Y141366D01*
X98029Y141342D01*
Y141330D01*
X96938Y141438D01*
X96974Y141678D01*
X97022Y141906D01*
X97070Y142110D01*
X97142Y142313D01*
X97202Y142493D01*
X97274Y142661D01*
X97346Y142805D01*
X97418Y142937D01*
X97490Y143057D01*
X97562Y143165D01*
X97622Y143249D01*
X97682Y143321D01*
X97730Y143380D01*
X97754Y143417D01*
X97778Y143441D01*
X97790Y143453D01*
X97921Y143572D01*
X98053Y143680D01*
X98197Y143776D01*
X98341Y143860D01*
X98485Y143920D01*
X98629Y143980D01*
X98893Y144064D01*
X99120Y144112D01*
X99228Y144124D01*
X99312Y144136D01*
X99384Y144148D01*
X99480D01*
X99744Y144136D01*
D02*
G37*
G36*
X111193Y137794D02*
X111181Y137314D01*
X111157Y136871D01*
X111109Y136463D01*
X111061Y136079D01*
X110989Y135744D01*
X110917Y135444D01*
X110834Y135168D01*
X110750Y134928D01*
X110678Y134713D01*
X110594Y134545D01*
X110522Y134389D01*
X110450Y134269D01*
X110402Y134185D01*
X110354Y134113D01*
X110330Y134077D01*
X110318Y134065D01*
X110138Y133885D01*
X109958Y133718D01*
X109742Y133574D01*
X109539Y133454D01*
X109311Y133358D01*
X109095Y133274D01*
X108879Y133202D01*
X108664Y133142D01*
X108460Y133094D01*
X108280Y133070D01*
X108112Y133046D01*
X107956Y133022D01*
X107836D01*
X107740Y133010D01*
X107668D01*
X107441Y133022D01*
X107225Y133034D01*
X107009Y133070D01*
X106817Y133106D01*
X106637Y133142D01*
X106469Y133202D01*
X106314Y133250D01*
X106170Y133310D01*
X106038Y133358D01*
X105930Y133418D01*
X105834Y133466D01*
X105750Y133502D01*
X105690Y133550D01*
X105642Y133574D01*
X105618Y133586D01*
X105606Y133598D01*
X105319Y133837D01*
X105091Y134089D01*
X104887Y134365D01*
X104731Y134617D01*
X104623Y134845D01*
X104575Y134940D01*
X104539Y135024D01*
X104515Y135096D01*
X104491Y135144D01*
X104479Y135180D01*
Y135192D01*
X104419Y135384D01*
X104372Y135600D01*
X104300Y136031D01*
X104240Y136463D01*
X104204Y136871D01*
X104192Y137062D01*
X104180Y137242D01*
Y137398D01*
X104168Y137530D01*
Y137638D01*
Y137722D01*
Y137782D01*
Y137794D01*
Y144112D01*
X105355D01*
Y137806D01*
X105367Y137434D01*
X105379Y137098D01*
X105402Y136787D01*
X105438Y136499D01*
X105486Y136247D01*
X105534Y136019D01*
X105582Y135816D01*
X105642Y135648D01*
X105690Y135492D01*
X105750Y135360D01*
X105798Y135252D01*
X105834Y135168D01*
X105882Y135108D01*
X105906Y135060D01*
X105918Y135036D01*
X105930Y135024D01*
X106038Y134904D01*
X106170Y134797D01*
X106302Y134701D01*
X106458Y134617D01*
X106601Y134545D01*
X106757Y134485D01*
X107057Y134401D01*
X107189Y134377D01*
X107321Y134353D01*
X107441Y134341D01*
X107549Y134329D01*
X107632Y134317D01*
X107752D01*
X108028Y134329D01*
X108268Y134365D01*
X108496Y134425D01*
X108675Y134485D01*
X108831Y134545D01*
X108939Y134605D01*
X109011Y134641D01*
X109023Y134653D01*
X109035D01*
X109215Y134797D01*
X109371Y134952D01*
X109491Y135120D01*
X109599Y135288D01*
X109683Y135432D01*
X109731Y135552D01*
X109754Y135600D01*
X109767Y135636D01*
X109778Y135648D01*
Y135660D01*
X109814Y135792D01*
X109850Y135948D01*
X109886Y136103D01*
X109910Y136283D01*
X109946Y136631D01*
X109982Y136990D01*
Y137146D01*
X109994Y137302D01*
Y137446D01*
X110006Y137566D01*
Y137662D01*
Y137746D01*
Y137794D01*
Y137806D01*
Y144112D01*
X111193D01*
Y137794D01*
D02*
G37*
G36*
X77617Y273414D02*
X76586Y273259D01*
X76479Y273438D01*
X76371Y273582D01*
X76263Y273714D01*
X76155Y273822D01*
X76047Y273918D01*
X75975Y273978D01*
X75927Y274014D01*
X75903Y274026D01*
X75735Y274122D01*
X75567Y274194D01*
X75412Y274242D01*
X75268Y274278D01*
X75136Y274302D01*
X75040Y274314D01*
X74956D01*
X74800Y274302D01*
X74656Y274290D01*
X74392Y274218D01*
X74153Y274110D01*
X73961Y273990D01*
X73793Y273870D01*
X73673Y273762D01*
X73637Y273726D01*
X73601Y273690D01*
X73589Y273678D01*
X73577Y273666D01*
X73481Y273534D01*
X73397Y273403D01*
X73253Y273115D01*
X73158Y272815D01*
X73098Y272515D01*
X73074Y272383D01*
X73050Y272264D01*
X73038Y272144D01*
Y272048D01*
X73026Y271964D01*
Y271904D01*
Y271868D01*
Y271856D01*
X73038Y271628D01*
X73050Y271412D01*
X73074Y271208D01*
X73110Y271029D01*
X73158Y270849D01*
X73205Y270681D01*
X73253Y270537D01*
X73313Y270405D01*
X73361Y270285D01*
X73421Y270189D01*
X73469Y270094D01*
X73505Y270022D01*
X73553Y269962D01*
X73577Y269926D01*
X73589Y269902D01*
X73601Y269890D01*
X73709Y269770D01*
X73817Y269662D01*
X73937Y269566D01*
X74045Y269482D01*
X74165Y269410D01*
X74272Y269350D01*
X74488Y269266D01*
X74680Y269218D01*
X74752Y269206D01*
X74824Y269194D01*
X74884Y269182D01*
X74956D01*
X75184Y269206D01*
X75388Y269266D01*
X75579Y269338D01*
X75735Y269434D01*
X75879Y269530D01*
X75975Y269602D01*
X76035Y269662D01*
X76059Y269686D01*
X76143Y269782D01*
X76215Y269902D01*
X76347Y270142D01*
X76455Y270393D01*
X76538Y270645D01*
X76586Y270873D01*
X76610Y270981D01*
X76634Y271065D01*
X76646Y271137D01*
Y271185D01*
X76658Y271220D01*
Y271232D01*
X77809Y271125D01*
X77785Y270861D01*
X77737Y270621D01*
X77689Y270381D01*
X77617Y270166D01*
X77545Y269962D01*
X77474Y269782D01*
X77390Y269614D01*
X77318Y269470D01*
X77234Y269326D01*
X77162Y269218D01*
X77090Y269111D01*
X77030Y269027D01*
X76970Y268967D01*
X76934Y268919D01*
X76910Y268895D01*
X76898Y268883D01*
X76742Y268739D01*
X76586Y268619D01*
X76418Y268511D01*
X76251Y268415D01*
X76083Y268343D01*
X75927Y268271D01*
X75615Y268175D01*
X75471Y268151D01*
X75339Y268127D01*
X75232Y268103D01*
X75124Y268091D01*
X75040Y268079D01*
X74932D01*
X74680Y268091D01*
X74428Y268127D01*
X74201Y268187D01*
X73997Y268259D01*
X73793Y268343D01*
X73613Y268439D01*
X73445Y268547D01*
X73289Y268655D01*
X73158Y268751D01*
X73038Y268859D01*
X72942Y268955D01*
X72858Y269039D01*
X72786Y269111D01*
X72738Y269170D01*
X72714Y269206D01*
X72702Y269218D01*
X72558Y269434D01*
X72426Y269662D01*
X72318Y269890D01*
X72210Y270130D01*
X72139Y270357D01*
X72067Y270585D01*
X72007Y270813D01*
X71971Y271017D01*
X71935Y271220D01*
X71911Y271400D01*
X71887Y271556D01*
X71875Y271700D01*
X71863Y271808D01*
Y271892D01*
Y271952D01*
Y271964D01*
X71875Y272264D01*
X71899Y272539D01*
X71935Y272803D01*
X71995Y273055D01*
X72055Y273283D01*
X72127Y273486D01*
X72199Y273690D01*
X72282Y273858D01*
X72354Y274014D01*
X72438Y274158D01*
X72510Y274266D01*
X72570Y274362D01*
X72630Y274445D01*
X72666Y274494D01*
X72690Y274529D01*
X72702Y274541D01*
X72858Y274709D01*
X73026Y274853D01*
X73194Y274985D01*
X73361Y275093D01*
X73517Y275189D01*
X73685Y275273D01*
X73841Y275333D01*
X73985Y275381D01*
X74129Y275417D01*
X74261Y275453D01*
X74369Y275476D01*
X74464Y275488D01*
X74548Y275501D01*
X74656D01*
X74824Y275488D01*
X74992Y275476D01*
X75148Y275441D01*
X75304Y275393D01*
X75591Y275285D01*
X75843Y275153D01*
X75951Y275093D01*
X76059Y275021D01*
X76143Y274961D01*
X76215Y274913D01*
X76275Y274865D01*
X76323Y274841D01*
X76347Y274817D01*
X76359Y274805D01*
X75891Y277754D01*
X72282D01*
Y279037D01*
X76742D01*
X77617Y273414D01*
D02*
G37*
G36*
X86369Y272863D02*
X86357Y272383D01*
X86333Y271940D01*
X86285Y271532D01*
X86237Y271149D01*
X86165Y270813D01*
X86094Y270513D01*
X86010Y270237D01*
X85926Y269998D01*
X85854Y269782D01*
X85770Y269614D01*
X85698Y269458D01*
X85626Y269338D01*
X85578Y269254D01*
X85530Y269182D01*
X85506Y269146D01*
X85494Y269135D01*
X85314Y268955D01*
X85134Y268787D01*
X84919Y268643D01*
X84715Y268523D01*
X84487Y268427D01*
X84271Y268343D01*
X84055Y268271D01*
X83840Y268211D01*
X83636Y268163D01*
X83456Y268139D01*
X83288Y268115D01*
X83132Y268091D01*
X83012D01*
X82916Y268079D01*
X82844D01*
X82617Y268091D01*
X82401Y268103D01*
X82185Y268139D01*
X81993Y268175D01*
X81813Y268211D01*
X81646Y268271D01*
X81490Y268319D01*
X81346Y268379D01*
X81214Y268427D01*
X81106Y268487D01*
X81010Y268535D01*
X80926Y268571D01*
X80866Y268619D01*
X80818Y268643D01*
X80794Y268655D01*
X80782Y268667D01*
X80495Y268907D01*
X80267Y269158D01*
X80063Y269434D01*
X79907Y269686D01*
X79799Y269914D01*
X79751Y270010D01*
X79715Y270094D01*
X79692Y270166D01*
X79668Y270214D01*
X79655Y270249D01*
Y270261D01*
X79596Y270453D01*
X79548Y270669D01*
X79476Y271101D01*
X79416Y271532D01*
X79380Y271940D01*
X79368Y272132D01*
X79356Y272311D01*
Y272467D01*
X79344Y272599D01*
Y272707D01*
Y272791D01*
Y272851D01*
Y272863D01*
Y279181D01*
X80531D01*
Y272875D01*
X80543Y272503D01*
X80555Y272168D01*
X80579Y271856D01*
X80615Y271568D01*
X80663Y271316D01*
X80710Y271089D01*
X80758Y270885D01*
X80818Y270717D01*
X80866Y270561D01*
X80926Y270429D01*
X80974Y270321D01*
X81010Y270237D01*
X81058Y270177D01*
X81082Y270130D01*
X81094Y270106D01*
X81106Y270094D01*
X81214Y269974D01*
X81346Y269866D01*
X81478Y269770D01*
X81634Y269686D01*
X81777Y269614D01*
X81933Y269554D01*
X82233Y269470D01*
X82365Y269446D01*
X82497Y269422D01*
X82617Y269410D01*
X82725Y269398D01*
X82809Y269386D01*
X82928D01*
X83204Y269398D01*
X83444Y269434D01*
X83672Y269494D01*
X83852Y269554D01*
X84008Y269614D01*
X84115Y269674D01*
X84187Y269710D01*
X84199Y269722D01*
X84211D01*
X84391Y269866D01*
X84547Y270022D01*
X84667Y270189D01*
X84775Y270357D01*
X84859Y270501D01*
X84907Y270621D01*
X84931Y270669D01*
X84943Y270705D01*
X84955Y270717D01*
Y270729D01*
X84991Y270861D01*
X85027Y271017D01*
X85063Y271173D01*
X85086Y271352D01*
X85122Y271700D01*
X85158Y272060D01*
Y272216D01*
X85170Y272371D01*
Y272515D01*
X85182Y272635D01*
Y272731D01*
Y272815D01*
Y272863D01*
Y272875D01*
Y279181D01*
X86369D01*
Y272863D01*
D02*
G37*
G36*
X284273Y275963D02*
X284262Y275483D01*
X284238Y275040D01*
X284190Y274632D01*
X284142Y274248D01*
X284070Y273913D01*
X283998Y273613D01*
X283914Y273337D01*
X283830Y273097D01*
X283758Y272882D01*
X283674Y272714D01*
X283602Y272558D01*
X283530Y272438D01*
X283482Y272354D01*
X283434Y272282D01*
X283410Y272246D01*
X283398Y272234D01*
X283218Y272054D01*
X283039Y271886D01*
X282823Y271743D01*
X282619Y271623D01*
X282391Y271527D01*
X282176Y271443D01*
X281960Y271371D01*
X281744Y271311D01*
X281540Y271263D01*
X281360Y271239D01*
X281192Y271215D01*
X281037Y271191D01*
X280917D01*
X280821Y271179D01*
X280749D01*
X280521Y271191D01*
X280305Y271203D01*
X280089Y271239D01*
X279898Y271275D01*
X279718Y271311D01*
X279550Y271371D01*
X279394Y271419D01*
X279250Y271479D01*
X279118Y271527D01*
X279011Y271587D01*
X278915Y271635D01*
X278831Y271671D01*
X278771Y271719D01*
X278723Y271743D01*
X278699Y271754D01*
X278687Y271766D01*
X278399Y272006D01*
X278171Y272258D01*
X277967Y272534D01*
X277812Y272786D01*
X277704Y273013D01*
X277656Y273109D01*
X277620Y273193D01*
X277596Y273265D01*
X277572Y273313D01*
X277560Y273349D01*
Y273361D01*
X277500Y273553D01*
X277452Y273769D01*
X277380Y274200D01*
X277320Y274632D01*
X277284Y275040D01*
X277272Y275231D01*
X277260Y275411D01*
Y275567D01*
X277248Y275699D01*
Y275807D01*
Y275891D01*
Y275951D01*
Y275963D01*
Y282281D01*
X278435D01*
Y275975D01*
X278447Y275603D01*
X278459Y275267D01*
X278483Y274956D01*
X278519Y274668D01*
X278567Y274416D01*
X278615Y274188D01*
X278663Y273985D01*
X278723Y273817D01*
X278771Y273661D01*
X278831Y273529D01*
X278879Y273421D01*
X278915Y273337D01*
X278962Y273277D01*
X278986Y273229D01*
X278999Y273205D01*
X279011Y273193D01*
X279118Y273073D01*
X279250Y272965D01*
X279382Y272869D01*
X279538Y272786D01*
X279682Y272714D01*
X279838Y272654D01*
X280137Y272570D01*
X280269Y272546D01*
X280401Y272522D01*
X280521Y272510D01*
X280629Y272498D01*
X280713Y272486D01*
X280833D01*
X281108Y272498D01*
X281348Y272534D01*
X281576Y272594D01*
X281756Y272654D01*
X281912Y272714D01*
X282020Y272774D01*
X282092Y272810D01*
X282104Y272822D01*
X282116D01*
X282295Y272965D01*
X282451Y273121D01*
X282571Y273289D01*
X282679Y273457D01*
X282763Y273601D01*
X282811Y273721D01*
X282835Y273769D01*
X282847Y273805D01*
X282859Y273817D01*
Y273829D01*
X282895Y273960D01*
X282931Y274116D01*
X282967Y274272D01*
X282991Y274452D01*
X283027Y274800D01*
X283063Y275159D01*
Y275315D01*
X283075Y275471D01*
Y275615D01*
X283087Y275735D01*
Y275831D01*
Y275915D01*
Y275963D01*
Y275975D01*
Y282281D01*
X284273D01*
Y275963D01*
D02*
G37*
G36*
X276073Y275207D02*
Y273972D01*
X272189D01*
Y271359D01*
X271098D01*
Y273972D01*
X269887D01*
Y275207D01*
X271098D01*
Y282281D01*
X271985D01*
X276073Y275207D01*
D02*
G37*
G36*
X473635Y280854D02*
X473815Y280830D01*
X473994Y280794D01*
X474162Y280758D01*
X474462Y280639D01*
X474594Y280579D01*
X474726Y280507D01*
X474834Y280435D01*
X474930Y280375D01*
X475014Y280315D01*
X475085Y280255D01*
X475145Y280219D01*
X475181Y280183D01*
X475205Y280159D01*
X475217Y280147D01*
X475349Y280003D01*
X475469Y279847D01*
X475661Y279512D01*
X475829Y279164D01*
X475949Y278828D01*
X475997Y278660D01*
X476033Y278517D01*
X476069Y278385D01*
X476093Y278265D01*
X476116Y278169D01*
X476129Y278097D01*
X476141Y278049D01*
Y278037D01*
X475050Y277797D01*
X474990Y278145D01*
X474918Y278445D01*
X474834Y278696D01*
X474738Y278900D01*
X474654Y279068D01*
X474582Y279176D01*
X474534Y279248D01*
X474510Y279272D01*
X474330Y279440D01*
X474150Y279560D01*
X473971Y279643D01*
X473803Y279703D01*
X473659Y279739D01*
X473539Y279751D01*
X473491Y279763D01*
X473431D01*
X473215Y279739D01*
X473011Y279691D01*
X472832Y279620D01*
X472676Y279536D01*
X472556Y279440D01*
X472460Y279368D01*
X472412Y279320D01*
X472388Y279296D01*
X472244Y279104D01*
X472136Y278900D01*
X472064Y278696D01*
X472004Y278505D01*
X471980Y278325D01*
X471968Y278193D01*
X471956Y278133D01*
Y278097D01*
Y278073D01*
Y278061D01*
Y277905D01*
X471980Y277761D01*
X472040Y277509D01*
X472124Y277282D01*
X472208Y277090D01*
X472304Y276934D01*
X472388Y276826D01*
X472448Y276754D01*
X472460Y276742D01*
X472472Y276730D01*
X472676Y276562D01*
X472892Y276443D01*
X473107Y276359D01*
X473323Y276299D01*
X473503Y276263D01*
X473587Y276251D01*
X473659D01*
X473707Y276239D01*
X473791D01*
X473959Y276263D01*
X474090Y275076D01*
X473923Y275124D01*
X473779Y275172D01*
X473647Y275196D01*
X473539Y275208D01*
X473443Y275220D01*
X473383Y275232D01*
X473323D01*
X473191Y275220D01*
X473059Y275208D01*
X472820Y275136D01*
X472616Y275052D01*
X472436Y274944D01*
X472280Y274836D01*
X472172Y274740D01*
X472112Y274668D01*
X472088Y274656D01*
Y274644D01*
X471992Y274536D01*
X471921Y274416D01*
X471789Y274165D01*
X471693Y273901D01*
X471633Y273661D01*
X471597Y273445D01*
X471585Y273349D01*
Y273265D01*
X471573Y273206D01*
Y273158D01*
Y273122D01*
Y273110D01*
Y272930D01*
X471597Y272750D01*
X471657Y272426D01*
X471753Y272150D01*
X471848Y271911D01*
X471897Y271815D01*
X471944Y271719D01*
X471992Y271647D01*
X472040Y271587D01*
X472076Y271527D01*
X472100Y271491D01*
X472112Y271479D01*
X472124Y271467D01*
X472232Y271359D01*
X472340Y271263D01*
X472448Y271167D01*
X472556Y271096D01*
X472784Y270988D01*
X472988Y270916D01*
X473167Y270868D01*
X473239Y270856D01*
X473299Y270844D01*
X473359Y270832D01*
X473431D01*
X473563Y270844D01*
X473683Y270856D01*
X473899Y270928D01*
X474102Y271035D01*
X474282Y271167D01*
X474450Y271335D01*
X474594Y271515D01*
X474714Y271707D01*
X474810Y271911D01*
X474906Y272115D01*
X474978Y272306D01*
X475038Y272486D01*
X475085Y272654D01*
X475121Y272786D01*
X475145Y272894D01*
X475157Y272966D01*
Y272990D01*
X476248Y272810D01*
X476224Y272546D01*
X476176Y272306D01*
X476129Y272079D01*
X476057Y271863D01*
X475997Y271659D01*
X475913Y271479D01*
X475841Y271311D01*
X475757Y271155D01*
X475685Y271012D01*
X475601Y270892D01*
X475541Y270796D01*
X475469Y270712D01*
X475421Y270640D01*
X475385Y270592D01*
X475361Y270568D01*
X475349Y270556D01*
X475193Y270412D01*
X475038Y270280D01*
X474870Y270172D01*
X474702Y270076D01*
X474546Y269993D01*
X474378Y269933D01*
X474222Y269873D01*
X474078Y269837D01*
X473935Y269801D01*
X473815Y269777D01*
X473695Y269753D01*
X473599Y269741D01*
X473515Y269729D01*
X473407D01*
X473179Y269741D01*
X472963Y269765D01*
X472748Y269813D01*
X472556Y269873D01*
X472364Y269944D01*
X472196Y270028D01*
X472028Y270112D01*
X471884Y270208D01*
X471753Y270292D01*
X471633Y270376D01*
X471525Y270460D01*
X471441Y270532D01*
X471369Y270592D01*
X471321Y270640D01*
X471297Y270664D01*
X471285Y270676D01*
X471129Y270868D01*
X470997Y271059D01*
X470877Y271263D01*
X470770Y271467D01*
X470686Y271671D01*
X470614Y271875D01*
X470554Y272079D01*
X470506Y272270D01*
X470470Y272438D01*
X470446Y272606D01*
X470422Y272762D01*
X470410Y272882D01*
X470398Y272990D01*
Y273074D01*
Y273122D01*
Y273134D01*
X470410Y273397D01*
X470434Y273637D01*
X470470Y273853D01*
X470506Y274045D01*
X470542Y274201D01*
X470578Y274321D01*
X470590Y274356D01*
X470602Y274392D01*
X470614Y274404D01*
Y274416D01*
X470698Y274620D01*
X470793Y274800D01*
X470889Y274956D01*
X470973Y275088D01*
X471057Y275196D01*
X471117Y275268D01*
X471165Y275315D01*
X471177Y275327D01*
X471309Y275447D01*
X471465Y275555D01*
X471609Y275639D01*
X471753Y275699D01*
X471872Y275759D01*
X471968Y275795D01*
X472040Y275807D01*
X472052Y275819D01*
X472064D01*
X471861Y275951D01*
X471681Y276095D01*
X471525Y276251D01*
X471393Y276395D01*
X471297Y276514D01*
X471225Y276622D01*
X471177Y276694D01*
X471165Y276706D01*
Y276718D01*
X471057Y276946D01*
X470973Y277162D01*
X470925Y277390D01*
X470877Y277593D01*
X470854Y277773D01*
Y277845D01*
X470841Y277917D01*
Y277965D01*
Y278001D01*
Y278025D01*
Y278037D01*
X470854Y278265D01*
X470877Y278481D01*
X470913Y278684D01*
X470961Y278864D01*
X471021Y279044D01*
X471081Y279212D01*
X471153Y279368D01*
X471225Y279512D01*
X471297Y279632D01*
X471369Y279739D01*
X471429Y279835D01*
X471489Y279919D01*
X471537Y279979D01*
X471573Y280027D01*
X471597Y280051D01*
X471609Y280063D01*
X471753Y280207D01*
X471908Y280327D01*
X472052Y280435D01*
X472208Y280531D01*
X472364Y280603D01*
X472520Y280674D01*
X472808Y280770D01*
X472939Y280794D01*
X473059Y280818D01*
X473167Y280842D01*
X473263Y280854D01*
X473335Y280866D01*
X473443D01*
X473635Y280854D01*
D02*
G37*
G36*
X484820Y274512D02*
X484808Y274033D01*
X484785Y273589D01*
X484737Y273181D01*
X484688Y272798D01*
X484617Y272462D01*
X484545Y272162D01*
X484461Y271887D01*
X484377Y271647D01*
X484305Y271431D01*
X484221Y271263D01*
X484149Y271108D01*
X484077Y270988D01*
X484029Y270904D01*
X483981Y270832D01*
X483957Y270796D01*
X483945Y270784D01*
X483765Y270604D01*
X483586Y270436D01*
X483370Y270292D01*
X483166Y270172D01*
X482938Y270076D01*
X482722Y269993D01*
X482507Y269921D01*
X482291Y269861D01*
X482087Y269813D01*
X481907Y269789D01*
X481739Y269765D01*
X481583Y269741D01*
X481464D01*
X481368Y269729D01*
X481296D01*
X481068Y269741D01*
X480852Y269753D01*
X480636Y269789D01*
X480444Y269825D01*
X480265Y269861D01*
X480097Y269921D01*
X479941Y269968D01*
X479797Y270028D01*
X479665Y270076D01*
X479557Y270136D01*
X479461Y270184D01*
X479378Y270220D01*
X479318Y270268D01*
X479270Y270292D01*
X479246Y270304D01*
X479234Y270316D01*
X478946Y270556D01*
X478718Y270808D01*
X478514Y271084D01*
X478358Y271335D01*
X478251Y271563D01*
X478203Y271659D01*
X478167Y271743D01*
X478143Y271815D01*
X478119Y271863D01*
X478107Y271899D01*
Y271911D01*
X478047Y272103D01*
X477999Y272318D01*
X477927Y272750D01*
X477867Y273181D01*
X477831Y273589D01*
X477819Y273781D01*
X477807Y273961D01*
Y274117D01*
X477795Y274249D01*
Y274356D01*
Y274440D01*
Y274500D01*
Y274512D01*
Y280830D01*
X478982D01*
Y274524D01*
X478994Y274153D01*
X479006Y273817D01*
X479030Y273505D01*
X479066Y273218D01*
X479114Y272966D01*
X479162Y272738D01*
X479210Y272534D01*
X479270Y272366D01*
X479318Y272210D01*
X479378Y272079D01*
X479426Y271971D01*
X479461Y271887D01*
X479509Y271827D01*
X479533Y271779D01*
X479545Y271755D01*
X479557Y271743D01*
X479665Y271623D01*
X479797Y271515D01*
X479929Y271419D01*
X480085Y271335D01*
X480229Y271263D01*
X480385Y271203D01*
X480684Y271119D01*
X480816Y271096D01*
X480948Y271071D01*
X481068Y271059D01*
X481176Y271047D01*
X481260Y271035D01*
X481380D01*
X481655Y271047D01*
X481895Y271084D01*
X482123Y271143D01*
X482303Y271203D01*
X482459Y271263D01*
X482566Y271323D01*
X482639Y271359D01*
X482650Y271371D01*
X482662D01*
X482842Y271515D01*
X482998Y271671D01*
X483118Y271839D01*
X483226Y272007D01*
X483310Y272150D01*
X483358Y272270D01*
X483382Y272318D01*
X483394Y272354D01*
X483406Y272366D01*
Y272378D01*
X483442Y272510D01*
X483478Y272666D01*
X483514Y272822D01*
X483538Y273002D01*
X483574Y273349D01*
X483610Y273709D01*
Y273865D01*
X483621Y274021D01*
Y274165D01*
X483633Y274284D01*
Y274380D01*
Y274464D01*
Y274512D01*
Y274524D01*
Y280830D01*
X484820D01*
Y274512D01*
D02*
G37*
G36*
X402808Y293300D02*
X403048Y293252D01*
X403288Y293192D01*
X403504Y293096D01*
X403708Y293000D01*
X403899Y292880D01*
X404067Y292760D01*
X404235Y292640D01*
X404379Y292508D01*
X404499Y292388D01*
X404607Y292269D01*
X404691Y292173D01*
X404763Y292077D01*
X404823Y292017D01*
X404846Y291969D01*
X404859Y291957D01*
X405014Y291681D01*
X405146Y291381D01*
X405266Y291046D01*
X405374Y290686D01*
X405458Y290314D01*
X405530Y289943D01*
X405590Y289571D01*
X405638Y289211D01*
X405674Y288852D01*
X405698Y288528D01*
X405722Y288228D01*
X405734Y287976D01*
Y287857D01*
Y287761D01*
X405746Y287677D01*
Y287605D01*
Y287545D01*
Y287497D01*
Y287473D01*
Y287461D01*
X405734Y286945D01*
X405710Y286466D01*
X405662Y286022D01*
X405614Y285627D01*
X405542Y285255D01*
X405470Y284919D01*
X405386Y284620D01*
X405302Y284356D01*
X405230Y284116D01*
X405146Y283924D01*
X405074Y283757D01*
X405002Y283625D01*
X404954Y283517D01*
X404906Y283445D01*
X404883Y283397D01*
X404870Y283385D01*
X404703Y283169D01*
X404523Y282989D01*
X404343Y282821D01*
X404151Y282689D01*
X403959Y282570D01*
X403779Y282474D01*
X403600Y282390D01*
X403432Y282330D01*
X403264Y282270D01*
X403120Y282234D01*
X402976Y282210D01*
X402868Y282198D01*
X402772Y282186D01*
X402701Y282174D01*
X402640D01*
X402365Y282198D01*
X402101Y282246D01*
X401873Y282306D01*
X401670Y282390D01*
X401502Y282462D01*
X401370Y282534D01*
X401322Y282558D01*
X401286Y282582D01*
X401274Y282593D01*
X401262D01*
X401034Y282773D01*
X400842Y282977D01*
X400662Y283193D01*
X400518Y283409D01*
X400399Y283601D01*
X400351Y283685D01*
X400315Y283757D01*
X400279Y283816D01*
X400255Y283864D01*
X400243Y283888D01*
Y283900D01*
X400111Y284248D01*
X400003Y284596D01*
X399931Y284931D01*
X399883Y285231D01*
X399871Y285375D01*
X399859Y285495D01*
X399847Y285615D01*
X399835Y285711D01*
Y285783D01*
Y285842D01*
Y285879D01*
Y285891D01*
X399847Y286190D01*
X399871Y286466D01*
X399907Y286730D01*
X399955Y286981D01*
X400027Y287209D01*
X400087Y287413D01*
X400159Y287617D01*
X400231Y287785D01*
X400315Y287941D01*
X400387Y288084D01*
X400447Y288192D01*
X400507Y288288D01*
X400566Y288372D01*
X400602Y288420D01*
X400626Y288456D01*
X400638Y288468D01*
X400794Y288636D01*
X400950Y288792D01*
X401106Y288924D01*
X401262Y289032D01*
X401418Y289127D01*
X401573Y289199D01*
X401717Y289271D01*
X401861Y289319D01*
X401993Y289355D01*
X402113Y289391D01*
X402221Y289415D01*
X402305Y289427D01*
X402377D01*
X402437Y289439D01*
X402485D01*
X402724Y289427D01*
X402952Y289379D01*
X403156Y289319D01*
X403336Y289259D01*
X403492Y289187D01*
X403612Y289127D01*
X403648Y289104D01*
X403684Y289079D01*
X403696Y289067D01*
X403708D01*
X403911Y288912D01*
X404091Y288744D01*
X404259Y288564D01*
X404391Y288384D01*
X404499Y288228D01*
X404583Y288096D01*
X404619Y288048D01*
X404643Y288013D01*
X404654Y287989D01*
X404643Y288348D01*
X404631Y288684D01*
X404607Y289008D01*
X404571Y289295D01*
X404535Y289571D01*
X404487Y289823D01*
X404439Y290051D01*
X404403Y290254D01*
X404355Y290422D01*
X404307Y290578D01*
X404271Y290710D01*
X404223Y290818D01*
X404199Y290902D01*
X404175Y290962D01*
X404151Y290998D01*
Y291010D01*
X404043Y291225D01*
X403923Y291405D01*
X403792Y291561D01*
X403672Y291705D01*
X403540Y291825D01*
X403408Y291921D01*
X403288Y291993D01*
X403168Y292065D01*
X403060Y292113D01*
X402952Y292149D01*
X402856Y292173D01*
X402772Y292185D01*
X402713Y292197D01*
X402653Y292209D01*
X402497D01*
X402389Y292185D01*
X402185Y292125D01*
X402005Y292041D01*
X401849Y291945D01*
X401729Y291849D01*
X401633Y291765D01*
X401586Y291705D01*
X401562Y291693D01*
Y291681D01*
X401454Y291525D01*
X401358Y291345D01*
X401274Y291154D01*
X401214Y290950D01*
X401154Y290770D01*
X401118Y290626D01*
X401106Y290578D01*
Y290530D01*
X401094Y290506D01*
Y290494D01*
X400003Y290602D01*
X400039Y290842D01*
X400087Y291070D01*
X400135Y291273D01*
X400207Y291477D01*
X400267Y291657D01*
X400339Y291825D01*
X400411Y291969D01*
X400483Y292101D01*
X400555Y292220D01*
X400626Y292328D01*
X400686Y292412D01*
X400746Y292484D01*
X400794Y292544D01*
X400818Y292580D01*
X400842Y292604D01*
X400854Y292616D01*
X400986Y292736D01*
X401118Y292844D01*
X401262Y292940D01*
X401406Y293024D01*
X401550Y293084D01*
X401693Y293144D01*
X401957Y293228D01*
X402185Y293276D01*
X402293Y293288D01*
X402377Y293300D01*
X402449Y293312D01*
X402545D01*
X402808Y293300D01*
D02*
G37*
G36*
X410721Y293455D02*
X410973Y293431D01*
X411213Y293384D01*
X411428Y293335D01*
X411632Y293276D01*
X411824Y293204D01*
X412004Y293120D01*
X412160Y293048D01*
X412304Y292964D01*
X412423Y292880D01*
X412531Y292808D01*
X412615Y292748D01*
X412687Y292700D01*
X412735Y292652D01*
X412759Y292628D01*
X412771Y292616D01*
X412915Y292448D01*
X413047Y292281D01*
X413167Y292101D01*
X413263Y291921D01*
X413346Y291741D01*
X413419Y291561D01*
X413466Y291393D01*
X413514Y291225D01*
X413550Y291070D01*
X413574Y290926D01*
X413598Y290794D01*
X413610Y290674D01*
X413622Y290590D01*
Y290518D01*
Y290470D01*
Y290458D01*
X413610Y290182D01*
X413574Y289943D01*
X413526Y289715D01*
X413478Y289511D01*
X413430Y289355D01*
X413382Y289235D01*
X413358Y289187D01*
X413346Y289151D01*
X413335Y289139D01*
Y289127D01*
X413215Y288924D01*
X413071Y288732D01*
X412939Y288576D01*
X412807Y288432D01*
X412687Y288324D01*
X412579Y288240D01*
X412519Y288192D01*
X412495Y288168D01*
X412387Y288096D01*
X412268Y288025D01*
X411992Y287893D01*
X411692Y287761D01*
X411392Y287653D01*
X411249Y287605D01*
X411129Y287557D01*
X411009Y287509D01*
X410901Y287485D01*
X410817Y287449D01*
X410757Y287425D01*
X410709Y287413D01*
X410697D01*
X410445Y287341D01*
X410205Y287269D01*
X410002Y287197D01*
X409810Y287137D01*
X409642Y287077D01*
X409486Y287017D01*
X409354Y286970D01*
X409234Y286922D01*
X409138Y286886D01*
X409055Y286850D01*
X408995Y286826D01*
X408935Y286802D01*
X408899Y286778D01*
X408875Y286766D01*
X408851Y286754D01*
X408695Y286658D01*
X408563Y286562D01*
X408455Y286466D01*
X408359Y286370D01*
X408299Y286298D01*
X408239Y286226D01*
X408215Y286178D01*
X408203Y286166D01*
X408131Y286022D01*
X408083Y285879D01*
X408036Y285747D01*
X408012Y285615D01*
X407999Y285495D01*
X407988Y285411D01*
Y285351D01*
Y285327D01*
X407999Y285171D01*
X408012Y285027D01*
X408083Y284764D01*
X408167Y284536D01*
X408275Y284344D01*
X408383Y284188D01*
X408479Y284080D01*
X408551Y284008D01*
X408563Y283996D01*
X408575Y283984D01*
X408815Y283816D01*
X409078Y283696D01*
X409354Y283601D01*
X409618Y283541D01*
X409858Y283505D01*
X409954Y283493D01*
X410038D01*
X410122Y283481D01*
X410218D01*
X410493Y283493D01*
X410733Y283529D01*
X410961Y283577D01*
X411165Y283637D01*
X411320Y283685D01*
X411440Y283732D01*
X411488Y283757D01*
X411524Y283768D01*
X411536Y283780D01*
X411548D01*
X411752Y283900D01*
X411944Y284032D01*
X412100Y284164D01*
X412220Y284296D01*
X412327Y284404D01*
X412399Y284500D01*
X412447Y284560D01*
X412459Y284584D01*
X412567Y284788D01*
X412651Y285015D01*
X412723Y285255D01*
X412771Y285483D01*
X412807Y285687D01*
X412831Y285771D01*
Y285854D01*
X412843Y285914D01*
X412855Y285962D01*
Y285986D01*
Y285998D01*
X413970Y285891D01*
X413958Y285579D01*
X413910Y285279D01*
X413862Y285003D01*
X413790Y284739D01*
X413718Y284500D01*
X413634Y284272D01*
X413538Y284068D01*
X413442Y283888D01*
X413358Y283720D01*
X413263Y283577D01*
X413179Y283457D01*
X413107Y283349D01*
X413047Y283277D01*
X412987Y283217D01*
X412963Y283181D01*
X412951Y283169D01*
X412759Y282989D01*
X412555Y282845D01*
X412340Y282713D01*
X412124Y282593D01*
X411896Y282498D01*
X411680Y282414D01*
X411464Y282354D01*
X411260Y282294D01*
X411057Y282258D01*
X410877Y282222D01*
X410721Y282210D01*
X410577Y282186D01*
X410457D01*
X410373Y282174D01*
X410301D01*
X409918Y282186D01*
X409570Y282234D01*
X409258Y282294D01*
X409114Y282330D01*
X408995Y282378D01*
X408875Y282414D01*
X408779Y282450D01*
X408683Y282474D01*
X408611Y282510D01*
X408551Y282534D01*
X408515Y282558D01*
X408491Y282570D01*
X408479D01*
X408215Y282737D01*
X407976Y282929D01*
X407772Y283121D01*
X407592Y283313D01*
X407460Y283481D01*
X407364Y283625D01*
X407328Y283673D01*
X407304Y283708D01*
X407280Y283732D01*
Y283745D01*
X407136Y284044D01*
X407028Y284332D01*
X406945Y284620D01*
X406897Y284883D01*
X406873Y285003D01*
X406861Y285111D01*
X406849Y285207D01*
Y285291D01*
X406837Y285351D01*
Y285411D01*
Y285435D01*
Y285447D01*
X406861Y285795D01*
X406909Y286094D01*
X406968Y286370D01*
X407052Y286610D01*
X407088Y286718D01*
X407136Y286802D01*
X407172Y286886D01*
X407196Y286945D01*
X407232Y286993D01*
X407244Y287029D01*
X407268Y287053D01*
Y287065D01*
X407436Y287305D01*
X407640Y287521D01*
X407844Y287713D01*
X408047Y287869D01*
X408227Y288001D01*
X408299Y288048D01*
X408371Y288096D01*
X408419Y288120D01*
X408467Y288144D01*
X408491Y288168D01*
X408503D01*
X408611Y288216D01*
X408743Y288276D01*
X408875Y288336D01*
X409019Y288384D01*
X409330Y288492D01*
X409630Y288600D01*
X409774Y288636D01*
X409918Y288684D01*
X410038Y288720D01*
X410145Y288756D01*
X410241Y288780D01*
X410301Y288804D01*
X410349Y288816D01*
X410361D01*
X410601Y288888D01*
X410829Y288960D01*
X411021Y289020D01*
X411200Y289091D01*
X411368Y289151D01*
X411512Y289211D01*
X411632Y289271D01*
X411740Y289319D01*
X411824Y289367D01*
X411908Y289415D01*
X411968Y289451D01*
X412016Y289487D01*
X412052Y289511D01*
X412076Y289535D01*
X412100Y289547D01*
X412232Y289703D01*
X412315Y289871D01*
X412387Y290039D01*
X412435Y290206D01*
X412459Y290350D01*
X412471Y290470D01*
X412483Y290518D01*
Y290554D01*
Y290566D01*
Y290578D01*
X412471Y290710D01*
X412459Y290830D01*
X412399Y291058D01*
X412315Y291261D01*
X412220Y291429D01*
X412124Y291561D01*
X412040Y291657D01*
X411980Y291717D01*
X411956Y291741D01*
X411740Y291897D01*
X411488Y292005D01*
X411236Y292089D01*
X410985Y292137D01*
X410769Y292173D01*
X410673Y292185D01*
X410589D01*
X410517Y292197D01*
X410241D01*
X410074Y292173D01*
X409762Y292113D01*
X409498Y292029D01*
X409282Y291945D01*
X409114Y291849D01*
X409043Y291801D01*
X408983Y291765D01*
X408947Y291729D01*
X408911Y291705D01*
X408887Y291693D01*
Y291681D01*
X408791Y291573D01*
X408695Y291465D01*
X408551Y291213D01*
X408443Y290950D01*
X408359Y290698D01*
X408299Y290458D01*
X408275Y290362D01*
X408263Y290278D01*
X408251Y290206D01*
X408239Y290147D01*
Y290110D01*
Y290098D01*
X407100Y290206D01*
X407124Y290566D01*
X407184Y290902D01*
X407256Y291189D01*
X407340Y291441D01*
X407376Y291549D01*
X407424Y291645D01*
X407460Y291729D01*
X407484Y291801D01*
X407520Y291861D01*
X407532Y291897D01*
X407556Y291921D01*
Y291933D01*
X407724Y292197D01*
X407904Y292424D01*
X408107Y292616D01*
X408287Y292784D01*
X408455Y292904D01*
X408599Y293000D01*
X408647Y293036D01*
X408683Y293048D01*
X408707Y293072D01*
X408719D01*
X409007Y293204D01*
X409306Y293300D01*
X409594Y293372D01*
X409870Y293419D01*
X409990Y293431D01*
X410098Y293443D01*
X410205Y293455D01*
X410289Y293467D01*
X410457D01*
X410721Y293455D01*
D02*
G37*
G36*
X201498Y286939D02*
X200467Y286783D01*
X200359Y286963D01*
X200251Y287107D01*
X200143Y287239D01*
X200035Y287347D01*
X199927Y287442D01*
X199855Y287502D01*
X199807Y287538D01*
X199783Y287550D01*
X199615Y287646D01*
X199448Y287718D01*
X199292Y287766D01*
X199148Y287802D01*
X199016Y287826D01*
X198920Y287838D01*
X198836D01*
X198680Y287826D01*
X198536Y287814D01*
X198273Y287742D01*
X198033Y287634D01*
X197841Y287514D01*
X197673Y287395D01*
X197553Y287287D01*
X197517Y287251D01*
X197481Y287215D01*
X197469Y287203D01*
X197457Y287191D01*
X197362Y287059D01*
X197278Y286927D01*
X197134Y286639D01*
X197038Y286340D01*
X196978Y286040D01*
X196954Y285908D01*
X196930Y285788D01*
X196918Y285668D01*
Y285572D01*
X196906Y285488D01*
Y285428D01*
Y285392D01*
Y285380D01*
X196918Y285153D01*
X196930Y284937D01*
X196954Y284733D01*
X196990Y284553D01*
X197038Y284373D01*
X197086Y284206D01*
X197134Y284062D01*
X197194Y283930D01*
X197242Y283810D01*
X197302Y283714D01*
X197349Y283618D01*
X197386Y283546D01*
X197433Y283486D01*
X197457Y283450D01*
X197469Y283426D01*
X197481Y283414D01*
X197589Y283294D01*
X197697Y283186D01*
X197817Y283091D01*
X197925Y283007D01*
X198045Y282935D01*
X198153Y282875D01*
X198369Y282791D01*
X198560Y282743D01*
X198632Y282731D01*
X198704Y282719D01*
X198764Y282707D01*
X198836D01*
X199064Y282731D01*
X199268Y282791D01*
X199459Y282863D01*
X199615Y282959D01*
X199759Y283055D01*
X199855Y283127D01*
X199915Y283186D01*
X199939Y283211D01*
X200023Y283306D01*
X200095Y283426D01*
X200227Y283666D01*
X200335Y283918D01*
X200419Y284170D01*
X200467Y284397D01*
X200491Y284505D01*
X200515Y284589D01*
X200527Y284661D01*
Y284709D01*
X200539Y284745D01*
Y284757D01*
X201689Y284649D01*
X201665Y284385D01*
X201618Y284146D01*
X201570Y283906D01*
X201498Y283690D01*
X201426Y283486D01*
X201354Y283306D01*
X201270Y283139D01*
X201198Y282995D01*
X201114Y282851D01*
X201042Y282743D01*
X200970Y282635D01*
X200910Y282551D01*
X200850Y282491D01*
X200814Y282443D01*
X200790Y282419D01*
X200778Y282407D01*
X200623Y282263D01*
X200467Y282143D01*
X200299Y282036D01*
X200131Y281940D01*
X199963Y281868D01*
X199807Y281796D01*
X199496Y281700D01*
X199352Y281676D01*
X199220Y281652D01*
X199112Y281628D01*
X199004Y281616D01*
X198920Y281604D01*
X198812D01*
X198560Y281616D01*
X198309Y281652D01*
X198081Y281712D01*
X197877Y281784D01*
X197673Y281868D01*
X197493Y281964D01*
X197325Y282071D01*
X197170Y282179D01*
X197038Y282275D01*
X196918Y282383D01*
X196822Y282479D01*
X196738Y282563D01*
X196666Y282635D01*
X196618Y282695D01*
X196594Y282731D01*
X196582Y282743D01*
X196438Y282959D01*
X196306Y283186D01*
X196199Y283414D01*
X196091Y283654D01*
X196019Y283882D01*
X195947Y284110D01*
X195887Y284337D01*
X195851Y284541D01*
X195815Y284745D01*
X195791Y284925D01*
X195767Y285081D01*
X195755Y285225D01*
X195743Y285333D01*
Y285416D01*
Y285476D01*
Y285488D01*
X195755Y285788D01*
X195779Y286064D01*
X195815Y286328D01*
X195875Y286579D01*
X195935Y286807D01*
X196007Y287011D01*
X196079Y287215D01*
X196163Y287383D01*
X196235Y287538D01*
X196318Y287682D01*
X196390Y287790D01*
X196450Y287886D01*
X196510Y287970D01*
X196546Y288018D01*
X196570Y288054D01*
X196582Y288066D01*
X196738Y288234D01*
X196906Y288378D01*
X197074Y288510D01*
X197242Y288617D01*
X197397Y288713D01*
X197565Y288797D01*
X197721Y288857D01*
X197865Y288905D01*
X198009Y288941D01*
X198141Y288977D01*
X198249Y289001D01*
X198345Y289013D01*
X198428Y289025D01*
X198536D01*
X198704Y289013D01*
X198872Y289001D01*
X199028Y288965D01*
X199184Y288917D01*
X199471Y288809D01*
X199723Y288677D01*
X199831Y288617D01*
X199939Y288545D01*
X200023Y288486D01*
X200095Y288438D01*
X200155Y288390D01*
X200203Y288366D01*
X200227Y288342D01*
X200239Y288330D01*
X199771Y291279D01*
X196163D01*
Y292562D01*
X200623D01*
X201498Y286939D01*
D02*
G37*
G36*
X206713Y292885D02*
X206964Y292861D01*
X207204Y292813D01*
X207420Y292766D01*
X207624Y292706D01*
X207816Y292634D01*
X207996Y292550D01*
X208151Y292478D01*
X208295Y292394D01*
X208415Y292310D01*
X208523Y292238D01*
X208607Y292178D01*
X208679Y292130D01*
X208727Y292082D01*
X208751Y292058D01*
X208763Y292046D01*
X208907Y291878D01*
X209039Y291710D01*
X209158Y291531D01*
X209254Y291351D01*
X209338Y291171D01*
X209410Y290991D01*
X209458Y290823D01*
X209506Y290655D01*
X209542Y290500D01*
X209566Y290356D01*
X209590Y290224D01*
X209602Y290104D01*
X209614Y290020D01*
Y289948D01*
Y289900D01*
Y289888D01*
X209602Y289613D01*
X209566Y289373D01*
X209518Y289145D01*
X209470Y288941D01*
X209422Y288785D01*
X209374Y288665D01*
X209350Y288617D01*
X209338Y288582D01*
X209326Y288570D01*
Y288557D01*
X209206Y288354D01*
X209063Y288162D01*
X208931Y288006D01*
X208799Y287862D01*
X208679Y287754D01*
X208571Y287670D01*
X208511Y287622D01*
X208487Y287598D01*
X208379Y287526D01*
X208259Y287454D01*
X207984Y287323D01*
X207684Y287191D01*
X207384Y287083D01*
X207240Y287035D01*
X207120Y286987D01*
X207001Y286939D01*
X206893Y286915D01*
X206809Y286879D01*
X206749Y286855D01*
X206701Y286843D01*
X206689D01*
X206437Y286771D01*
X206197Y286699D01*
X205993Y286627D01*
X205802Y286567D01*
X205634Y286507D01*
X205478Y286448D01*
X205346Y286399D01*
X205226Y286352D01*
X205130Y286316D01*
X205046Y286280D01*
X204986Y286256D01*
X204926Y286232D01*
X204890Y286208D01*
X204867Y286196D01*
X204842Y286184D01*
X204687Y286088D01*
X204555Y285992D01*
X204447Y285896D01*
X204351Y285800D01*
X204291Y285728D01*
X204231Y285656D01*
X204207Y285608D01*
X204195Y285596D01*
X204123Y285452D01*
X204075Y285308D01*
X204027Y285177D01*
X204003Y285045D01*
X203991Y284925D01*
X203979Y284841D01*
Y284781D01*
Y284757D01*
X203991Y284601D01*
X204003Y284457D01*
X204075Y284194D01*
X204159Y283966D01*
X204267Y283774D01*
X204375Y283618D01*
X204471Y283510D01*
X204543Y283438D01*
X204555Y283426D01*
X204567Y283414D01*
X204806Y283246D01*
X205070Y283127D01*
X205346Y283031D01*
X205610Y282971D01*
X205850Y282935D01*
X205945Y282923D01*
X206029D01*
X206113Y282911D01*
X206209D01*
X206485Y282923D01*
X206725Y282959D01*
X206952Y283007D01*
X207156Y283067D01*
X207312Y283115D01*
X207432Y283162D01*
X207480Y283186D01*
X207516Y283199D01*
X207528Y283211D01*
X207540D01*
X207744Y283330D01*
X207936Y283462D01*
X208092Y283594D01*
X208211Y283726D01*
X208319Y283834D01*
X208391Y283930D01*
X208439Y283990D01*
X208451Y284014D01*
X208559Y284217D01*
X208643Y284445D01*
X208715Y284685D01*
X208763Y284913D01*
X208799Y285117D01*
X208823Y285201D01*
Y285285D01*
X208835Y285345D01*
X208847Y285392D01*
Y285416D01*
Y285428D01*
X209962Y285320D01*
X209950Y285009D01*
X209902Y284709D01*
X209854Y284433D01*
X209782Y284170D01*
X209710Y283930D01*
X209626Y283702D01*
X209530Y283498D01*
X209434Y283318D01*
X209350Y283151D01*
X209254Y283007D01*
X209170Y282887D01*
X209098Y282779D01*
X209039Y282707D01*
X208979Y282647D01*
X208955Y282611D01*
X208943Y282599D01*
X208751Y282419D01*
X208547Y282275D01*
X208331Y282143D01*
X208116Y282024D01*
X207888Y281928D01*
X207672Y281844D01*
X207456Y281784D01*
X207252Y281724D01*
X207048Y281688D01*
X206869Y281652D01*
X206713Y281640D01*
X206569Y281616D01*
X206449D01*
X206365Y281604D01*
X206293D01*
X205910Y281616D01*
X205562Y281664D01*
X205250Y281724D01*
X205106Y281760D01*
X204986Y281808D01*
X204867Y281844D01*
X204771Y281880D01*
X204675Y281904D01*
X204603Y281940D01*
X204543Y281964D01*
X204507Y281988D01*
X204483Y282000D01*
X204471D01*
X204207Y282167D01*
X203967Y282359D01*
X203764Y282551D01*
X203584Y282743D01*
X203452Y282911D01*
X203356Y283055D01*
X203320Y283103D01*
X203296Y283139D01*
X203272Y283162D01*
Y283174D01*
X203128Y283474D01*
X203020Y283762D01*
X202936Y284050D01*
X202888Y284314D01*
X202864Y284433D01*
X202852Y284541D01*
X202840Y284637D01*
Y284721D01*
X202828Y284781D01*
Y284841D01*
Y284865D01*
Y284877D01*
X202852Y285225D01*
X202900Y285524D01*
X202960Y285800D01*
X203044Y286040D01*
X203080Y286148D01*
X203128Y286232D01*
X203164Y286316D01*
X203188Y286376D01*
X203224Y286423D01*
X203236Y286459D01*
X203260Y286483D01*
Y286495D01*
X203428Y286735D01*
X203632Y286951D01*
X203836Y287143D01*
X204039Y287299D01*
X204219Y287430D01*
X204291Y287479D01*
X204363Y287526D01*
X204411Y287550D01*
X204459Y287574D01*
X204483Y287598D01*
X204495D01*
X204603Y287646D01*
X204735Y287706D01*
X204867Y287766D01*
X205010Y287814D01*
X205322Y287922D01*
X205622Y288030D01*
X205766Y288066D01*
X205910Y288114D01*
X206029Y288150D01*
X206137Y288186D01*
X206233Y288210D01*
X206293Y288234D01*
X206341Y288246D01*
X206353D01*
X206593Y288318D01*
X206821Y288390D01*
X207013Y288450D01*
X207192Y288521D01*
X207360Y288582D01*
X207504Y288641D01*
X207624Y288701D01*
X207732Y288749D01*
X207816Y288797D01*
X207900Y288845D01*
X207960Y288881D01*
X208008Y288917D01*
X208043Y288941D01*
X208067Y288965D01*
X208092Y288977D01*
X208223Y289133D01*
X208307Y289301D01*
X208379Y289469D01*
X208427Y289636D01*
X208451Y289780D01*
X208463Y289900D01*
X208475Y289948D01*
Y289984D01*
Y289996D01*
Y290008D01*
X208463Y290140D01*
X208451Y290260D01*
X208391Y290488D01*
X208307Y290692D01*
X208211Y290859D01*
X208116Y290991D01*
X208032Y291087D01*
X207972Y291147D01*
X207948Y291171D01*
X207732Y291327D01*
X207480Y291435D01*
X207228Y291519D01*
X206977Y291567D01*
X206761Y291603D01*
X206665Y291615D01*
X206581D01*
X206509Y291627D01*
X206233D01*
X206065Y291603D01*
X205754Y291543D01*
X205490Y291459D01*
X205274Y291375D01*
X205106Y291279D01*
X205034Y291231D01*
X204974Y291195D01*
X204938Y291159D01*
X204902Y291135D01*
X204879Y291123D01*
Y291111D01*
X204783Y291003D01*
X204687Y290895D01*
X204543Y290644D01*
X204435Y290380D01*
X204351Y290128D01*
X204291Y289888D01*
X204267Y289792D01*
X204255Y289708D01*
X204243Y289636D01*
X204231Y289576D01*
Y289541D01*
Y289529D01*
X203092Y289636D01*
X203116Y289996D01*
X203176Y290332D01*
X203248Y290620D01*
X203332Y290871D01*
X203368Y290979D01*
X203416Y291075D01*
X203452Y291159D01*
X203476Y291231D01*
X203512Y291291D01*
X203524Y291327D01*
X203548Y291351D01*
Y291363D01*
X203716Y291627D01*
X203895Y291854D01*
X204099Y292046D01*
X204279Y292214D01*
X204447Y292334D01*
X204591Y292430D01*
X204639Y292466D01*
X204675Y292478D01*
X204699Y292502D01*
X204711D01*
X204998Y292634D01*
X205298Y292730D01*
X205586Y292801D01*
X205862Y292850D01*
X205982Y292861D01*
X206089Y292873D01*
X206197Y292885D01*
X206281Y292897D01*
X206449D01*
X206713Y292885D01*
D02*
G37*
G36*
X7628Y285632D02*
Y284397D01*
X3744D01*
Y281784D01*
X2653D01*
Y284397D01*
X1442D01*
Y285632D01*
X2653D01*
Y292706D01*
X3540D01*
X7628Y285632D01*
D02*
G37*
G36*
X12292Y292885D02*
X12544Y292861D01*
X12784Y292813D01*
X13000Y292766D01*
X13203Y292706D01*
X13395Y292634D01*
X13575Y292550D01*
X13731Y292478D01*
X13875Y292394D01*
X13995Y292310D01*
X14102Y292238D01*
X14186Y292178D01*
X14258Y292130D01*
X14306Y292082D01*
X14330Y292058D01*
X14342Y292046D01*
X14486Y291878D01*
X14618Y291710D01*
X14738Y291531D01*
X14834Y291351D01*
X14918Y291171D01*
X14990Y290991D01*
X15038Y290823D01*
X15086Y290655D01*
X15122Y290500D01*
X15145Y290356D01*
X15170Y290224D01*
X15181Y290104D01*
X15193Y290020D01*
Y289948D01*
Y289900D01*
Y289888D01*
X15181Y289613D01*
X15145Y289373D01*
X15098Y289145D01*
X15050Y288941D01*
X15002Y288785D01*
X14954Y288665D01*
X14930Y288617D01*
X14918Y288582D01*
X14906Y288570D01*
Y288557D01*
X14786Y288354D01*
X14642Y288162D01*
X14510Y288006D01*
X14378Y287862D01*
X14258Y287754D01*
X14150Y287670D01*
X14090Y287622D01*
X14066Y287598D01*
X13959Y287526D01*
X13839Y287454D01*
X13563Y287323D01*
X13263Y287191D01*
X12964Y287083D01*
X12820Y287035D01*
X12700Y286987D01*
X12580Y286939D01*
X12472Y286915D01*
X12388Y286879D01*
X12328Y286855D01*
X12280Y286843D01*
X12268D01*
X12016Y286771D01*
X11777Y286699D01*
X11573Y286627D01*
X11381Y286567D01*
X11213Y286507D01*
X11057Y286448D01*
X10925Y286399D01*
X10805Y286352D01*
X10710Y286316D01*
X10626Y286280D01*
X10566Y286256D01*
X10506Y286232D01*
X10470Y286208D01*
X10446Y286196D01*
X10422Y286184D01*
X10266Y286088D01*
X10134Y285992D01*
X10026Y285896D01*
X9930Y285800D01*
X9870Y285728D01*
X9811Y285656D01*
X9786Y285608D01*
X9775Y285596D01*
X9703Y285452D01*
X9655Y285308D01*
X9607Y285177D01*
X9583Y285045D01*
X9571Y284925D01*
X9559Y284841D01*
Y284781D01*
Y284757D01*
X9571Y284601D01*
X9583Y284457D01*
X9655Y284194D01*
X9739Y283966D01*
X9846Y283774D01*
X9954Y283618D01*
X10050Y283510D01*
X10122Y283438D01*
X10134Y283426D01*
X10146Y283414D01*
X10386Y283246D01*
X10650Y283127D01*
X10925Y283031D01*
X11189Y282971D01*
X11429Y282935D01*
X11525Y282923D01*
X11609D01*
X11693Y282911D01*
X11789D01*
X12064Y282923D01*
X12304Y282959D01*
X12532Y283007D01*
X12736Y283067D01*
X12892Y283115D01*
X13011Y283162D01*
X13059Y283186D01*
X13095Y283199D01*
X13107Y283211D01*
X13119D01*
X13323Y283330D01*
X13515Y283462D01*
X13671Y283594D01*
X13791Y283726D01*
X13899Y283834D01*
X13971Y283930D01*
X14018Y283990D01*
X14030Y284014D01*
X14138Y284217D01*
X14222Y284445D01*
X14294Y284685D01*
X14342Y284913D01*
X14378Y285117D01*
X14402Y285201D01*
Y285285D01*
X14414Y285345D01*
X14426Y285392D01*
Y285416D01*
Y285428D01*
X15541Y285320D01*
X15529Y285009D01*
X15481Y284709D01*
X15433Y284433D01*
X15361Y284170D01*
X15289Y283930D01*
X15205Y283702D01*
X15109Y283498D01*
X15014Y283318D01*
X14930Y283151D01*
X14834Y283007D01*
X14750Y282887D01*
X14678Y282779D01*
X14618Y282707D01*
X14558Y282647D01*
X14534Y282611D01*
X14522Y282599D01*
X14330Y282419D01*
X14126Y282275D01*
X13911Y282143D01*
X13695Y282024D01*
X13467Y281928D01*
X13251Y281844D01*
X13036Y281784D01*
X12832Y281724D01*
X12628Y281688D01*
X12448Y281652D01*
X12292Y281640D01*
X12148Y281616D01*
X12028D01*
X11945Y281604D01*
X11873D01*
X11489Y281616D01*
X11141Y281664D01*
X10829Y281724D01*
X10686Y281760D01*
X10566Y281808D01*
X10446Y281844D01*
X10350Y281880D01*
X10254Y281904D01*
X10182Y281940D01*
X10122Y281964D01*
X10086Y281988D01*
X10062Y282000D01*
X10050D01*
X9786Y282167D01*
X9547Y282359D01*
X9343Y282551D01*
X9163Y282743D01*
X9031Y282911D01*
X8935Y283055D01*
X8899Y283103D01*
X8875Y283139D01*
X8851Y283162D01*
Y283174D01*
X8708Y283474D01*
X8600Y283762D01*
X8516Y284050D01*
X8468Y284314D01*
X8444Y284433D01*
X8432Y284541D01*
X8420Y284637D01*
Y284721D01*
X8408Y284781D01*
Y284841D01*
Y284865D01*
Y284877D01*
X8432Y285225D01*
X8480Y285524D01*
X8540Y285800D01*
X8624Y286040D01*
X8659Y286148D01*
X8708Y286232D01*
X8744Y286316D01*
X8767Y286376D01*
X8803Y286423D01*
X8815Y286459D01*
X8839Y286483D01*
Y286495D01*
X9007Y286735D01*
X9211Y286951D01*
X9415Y287143D01*
X9619Y287299D01*
X9798Y287430D01*
X9870Y287479D01*
X9942Y287526D01*
X9990Y287550D01*
X10038Y287574D01*
X10062Y287598D01*
X10074D01*
X10182Y287646D01*
X10314Y287706D01*
X10446Y287766D01*
X10590Y287814D01*
X10901Y287922D01*
X11201Y288030D01*
X11345Y288066D01*
X11489Y288114D01*
X11609Y288150D01*
X11717Y288186D01*
X11813Y288210D01*
X11873Y288234D01*
X11920Y288246D01*
X11932D01*
X12172Y288318D01*
X12400Y288390D01*
X12592Y288450D01*
X12772Y288521D01*
X12939Y288582D01*
X13083Y288641D01*
X13203Y288701D01*
X13311Y288749D01*
X13395Y288797D01*
X13479Y288845D01*
X13539Y288881D01*
X13587Y288917D01*
X13623Y288941D01*
X13647Y288965D01*
X13671Y288977D01*
X13803Y289133D01*
X13887Y289301D01*
X13959Y289469D01*
X14007Y289636D01*
X14030Y289780D01*
X14043Y289900D01*
X14054Y289948D01*
Y289984D01*
Y289996D01*
Y290008D01*
X14043Y290140D01*
X14030Y290260D01*
X13971Y290488D01*
X13887Y290692D01*
X13791Y290859D01*
X13695Y290991D01*
X13611Y291087D01*
X13551Y291147D01*
X13527Y291171D01*
X13311Y291327D01*
X13059Y291435D01*
X12808Y291519D01*
X12556Y291567D01*
X12340Y291603D01*
X12244Y291615D01*
X12160D01*
X12088Y291627D01*
X11813D01*
X11645Y291603D01*
X11333Y291543D01*
X11069Y291459D01*
X10854Y291375D01*
X10686Y291279D01*
X10614Y291231D01*
X10554Y291195D01*
X10518Y291159D01*
X10482Y291135D01*
X10458Y291123D01*
Y291111D01*
X10362Y291003D01*
X10266Y290895D01*
X10122Y290644D01*
X10014Y290380D01*
X9930Y290128D01*
X9870Y289888D01*
X9846Y289792D01*
X9834Y289708D01*
X9822Y289636D01*
X9811Y289576D01*
Y289541D01*
Y289529D01*
X8672Y289636D01*
X8695Y289996D01*
X8755Y290332D01*
X8827Y290620D01*
X8911Y290871D01*
X8947Y290979D01*
X8995Y291075D01*
X9031Y291159D01*
X9055Y291231D01*
X9091Y291291D01*
X9103Y291327D01*
X9127Y291351D01*
Y291363D01*
X9295Y291627D01*
X9475Y291854D01*
X9679Y292046D01*
X9858Y292214D01*
X10026Y292334D01*
X10170Y292430D01*
X10218Y292466D01*
X10254Y292478D01*
X10278Y292502D01*
X10290D01*
X10578Y292634D01*
X10877Y292730D01*
X11165Y292801D01*
X11441Y292850D01*
X11561Y292861D01*
X11669Y292873D01*
X11777Y292885D01*
X11861Y292897D01*
X12028D01*
X12292Y292885D01*
D02*
G37*
G36*
X530746Y77280D02*
X530926Y77256D01*
X531106Y77220D01*
X531273Y77184D01*
X531573Y77064D01*
X531705Y77004D01*
X531837Y76932D01*
X531945Y76860D01*
X532041Y76800D01*
X532125Y76740D01*
X532197Y76680D01*
X532257Y76644D01*
X532293Y76609D01*
X532317Y76585D01*
X532328Y76572D01*
X532460Y76429D01*
X532580Y76273D01*
X532772Y75937D01*
X532940Y75589D01*
X533060Y75254D01*
X533108Y75086D01*
X533144Y74942D01*
X533180Y74810D01*
X533204Y74690D01*
X533228Y74594D01*
X533240Y74522D01*
X533252Y74475D01*
Y74462D01*
X532161Y74223D01*
X532101Y74570D01*
X532029Y74870D01*
X531945Y75122D01*
X531849Y75326D01*
X531765Y75493D01*
X531693Y75601D01*
X531645Y75673D01*
X531621Y75697D01*
X531441Y75865D01*
X531261Y75985D01*
X531082Y76069D01*
X530914Y76129D01*
X530770Y76165D01*
X530650Y76177D01*
X530602Y76189D01*
X530542D01*
X530326Y76165D01*
X530123Y76117D01*
X529943Y76045D01*
X529787Y75961D01*
X529667Y75865D01*
X529571Y75793D01*
X529523Y75745D01*
X529499Y75721D01*
X529355Y75529D01*
X529247Y75326D01*
X529175Y75122D01*
X529115Y74930D01*
X529092Y74750D01*
X529080Y74618D01*
X529068Y74558D01*
Y74522D01*
Y74499D01*
Y74486D01*
Y74331D01*
X529092Y74187D01*
X529151Y73935D01*
X529235Y73707D01*
X529319Y73515D01*
X529415Y73359D01*
X529499Y73252D01*
X529559Y73180D01*
X529571Y73168D01*
X529583Y73156D01*
X529787Y72988D01*
X530003Y72868D01*
X530219Y72784D01*
X530434Y72724D01*
X530614Y72688D01*
X530698Y72676D01*
X530770D01*
X530818Y72664D01*
X530902D01*
X531070Y72688D01*
X531202Y71501D01*
X531034Y71549D01*
X530890Y71597D01*
X530758Y71621D01*
X530650Y71633D01*
X530554Y71645D01*
X530494Y71657D01*
X530434D01*
X530302Y71645D01*
X530171Y71633D01*
X529931Y71561D01*
X529727Y71477D01*
X529547Y71369D01*
X529391Y71262D01*
X529283Y71166D01*
X529223Y71094D01*
X529199Y71082D01*
Y71070D01*
X529104Y70962D01*
X529032Y70842D01*
X528900Y70590D01*
X528804Y70326D01*
X528744Y70087D01*
X528708Y69871D01*
X528696Y69775D01*
Y69691D01*
X528684Y69631D01*
Y69583D01*
Y69547D01*
Y69535D01*
Y69355D01*
X528708Y69175D01*
X528768Y68852D01*
X528864Y68576D01*
X528960Y68336D01*
X529008Y68240D01*
X529056Y68144D01*
X529104Y68073D01*
X529151Y68012D01*
X529188Y67953D01*
X529211Y67917D01*
X529223Y67905D01*
X529235Y67893D01*
X529343Y67785D01*
X529451Y67689D01*
X529559Y67593D01*
X529667Y67521D01*
X529895Y67413D01*
X530099Y67341D01*
X530278Y67293D01*
X530350Y67281D01*
X530410Y67269D01*
X530470Y67257D01*
X530542D01*
X530674Y67269D01*
X530794Y67281D01*
X531010Y67353D01*
X531214Y67461D01*
X531393Y67593D01*
X531561Y67761D01*
X531705Y67941D01*
X531825Y68132D01*
X531921Y68336D01*
X532017Y68540D01*
X532089Y68732D01*
X532149Y68912D01*
X532197Y69079D01*
X532233Y69211D01*
X532257Y69319D01*
X532269Y69391D01*
Y69415D01*
X533360Y69235D01*
X533336Y68972D01*
X533288Y68732D01*
X533240Y68504D01*
X533168Y68288D01*
X533108Y68084D01*
X533024Y67905D01*
X532952Y67737D01*
X532868Y67581D01*
X532796Y67437D01*
X532712Y67317D01*
X532652Y67221D01*
X532580Y67137D01*
X532532Y67065D01*
X532496Y67017D01*
X532472Y66993D01*
X532460Y66982D01*
X532304Y66838D01*
X532149Y66706D01*
X531981Y66598D01*
X531813Y66502D01*
X531657Y66418D01*
X531489Y66358D01*
X531334Y66298D01*
X531190Y66262D01*
X531046Y66226D01*
X530926Y66202D01*
X530806Y66178D01*
X530710Y66166D01*
X530626Y66154D01*
X530518D01*
X530290Y66166D01*
X530075Y66190D01*
X529859Y66238D01*
X529667Y66298D01*
X529475Y66370D01*
X529307Y66454D01*
X529140Y66538D01*
X528996Y66634D01*
X528864Y66718D01*
X528744Y66802D01*
X528636Y66886D01*
X528552Y66958D01*
X528480Y67017D01*
X528432Y67065D01*
X528408Y67089D01*
X528396Y67101D01*
X528240Y67293D01*
X528108Y67485D01*
X527989Y67689D01*
X527881Y67893D01*
X527797Y68096D01*
X527725Y68300D01*
X527665Y68504D01*
X527617Y68696D01*
X527581Y68864D01*
X527557Y69032D01*
X527533Y69187D01*
X527521Y69307D01*
X527509Y69415D01*
Y69499D01*
Y69547D01*
Y69559D01*
X527521Y69823D01*
X527545Y70063D01*
X527581Y70278D01*
X527617Y70470D01*
X527653Y70626D01*
X527689Y70746D01*
X527701Y70782D01*
X527713Y70818D01*
X527725Y70830D01*
Y70842D01*
X527809Y71046D01*
X527905Y71226D01*
X528001Y71381D01*
X528084Y71513D01*
X528168Y71621D01*
X528228Y71693D01*
X528276Y71741D01*
X528288Y71753D01*
X528420Y71873D01*
X528576Y71981D01*
X528720Y72065D01*
X528864Y72125D01*
X528984Y72185D01*
X529080Y72221D01*
X529151Y72233D01*
X529164Y72245D01*
X529175D01*
X528972Y72376D01*
X528792Y72520D01*
X528636Y72676D01*
X528504Y72820D01*
X528408Y72940D01*
X528336Y73048D01*
X528288Y73120D01*
X528276Y73132D01*
Y73144D01*
X528168Y73372D01*
X528084Y73587D01*
X528036Y73815D01*
X527989Y74019D01*
X527965Y74199D01*
Y74271D01*
X527953Y74343D01*
Y74391D01*
Y74426D01*
Y74450D01*
Y74462D01*
X527965Y74690D01*
X527989Y74906D01*
X528024Y75110D01*
X528073Y75290D01*
X528132Y75469D01*
X528192Y75637D01*
X528264Y75793D01*
X528336Y75937D01*
X528408Y76057D01*
X528480Y76165D01*
X528540Y76261D01*
X528600Y76345D01*
X528648Y76405D01*
X528684Y76453D01*
X528708Y76477D01*
X528720Y76489D01*
X528864Y76632D01*
X529020Y76752D01*
X529164Y76860D01*
X529319Y76956D01*
X529475Y77028D01*
X529631Y77100D01*
X529919Y77196D01*
X530051Y77220D01*
X530171Y77244D01*
X530278Y77268D01*
X530374Y77280D01*
X530446Y77292D01*
X530554D01*
X530746Y77280D01*
D02*
G37*
G36*
X538395Y77436D02*
X538647Y77412D01*
X538886Y77364D01*
X539102Y77316D01*
X539306Y77256D01*
X539498Y77184D01*
X539678Y77100D01*
X539833Y77028D01*
X539977Y76944D01*
X540097Y76860D01*
X540205Y76788D01*
X540289Y76728D01*
X540361Y76680D01*
X540409Y76632D01*
X540433Y76609D01*
X540445Y76596D01*
X540589Y76429D01*
X540721Y76261D01*
X540841Y76081D01*
X540937Y75901D01*
X541020Y75721D01*
X541092Y75542D01*
X541140Y75374D01*
X541188Y75206D01*
X541224Y75050D01*
X541248Y74906D01*
X541272Y74774D01*
X541284Y74654D01*
X541296Y74570D01*
Y74499D01*
Y74450D01*
Y74439D01*
X541284Y74163D01*
X541248Y73923D01*
X541200Y73695D01*
X541152Y73491D01*
X541104Y73335D01*
X541056Y73216D01*
X541032Y73168D01*
X541020Y73132D01*
X541008Y73120D01*
Y73108D01*
X540888Y72904D01*
X540745Y72712D01*
X540613Y72556D01*
X540481Y72412D01*
X540361Y72305D01*
X540253Y72221D01*
X540193Y72173D01*
X540169Y72149D01*
X540061Y72077D01*
X539941Y72005D01*
X539666Y71873D01*
X539366Y71741D01*
X539066Y71633D01*
X538922Y71585D01*
X538802Y71537D01*
X538683Y71489D01*
X538575Y71465D01*
X538491Y71429D01*
X538431Y71405D01*
X538383Y71393D01*
X538371D01*
X538119Y71321D01*
X537879Y71249D01*
X537676Y71178D01*
X537484Y71118D01*
X537316Y71058D01*
X537160Y70998D01*
X537028Y70950D01*
X536908Y70902D01*
X536812Y70866D01*
X536728Y70830D01*
X536669Y70806D01*
X536609Y70782D01*
X536573Y70758D01*
X536549Y70746D01*
X536525Y70734D01*
X536369Y70638D01*
X536237Y70542D01*
X536129Y70446D01*
X536033Y70350D01*
X535973Y70278D01*
X535913Y70206D01*
X535889Y70159D01*
X535877Y70146D01*
X535805Y70003D01*
X535757Y69859D01*
X535709Y69727D01*
X535685Y69595D01*
X535673Y69475D01*
X535661Y69391D01*
Y69331D01*
Y69307D01*
X535673Y69151D01*
X535685Y69008D01*
X535757Y68744D01*
X535841Y68516D01*
X535949Y68324D01*
X536057Y68168D01*
X536153Y68060D01*
X536225Y67989D01*
X536237Y67976D01*
X536249Y67965D01*
X536489Y67797D01*
X536752Y67677D01*
X537028Y67581D01*
X537292Y67521D01*
X537532Y67485D01*
X537628Y67473D01*
X537711D01*
X537795Y67461D01*
X537891D01*
X538167Y67473D01*
X538407Y67509D01*
X538635Y67557D01*
X538838Y67617D01*
X538994Y67665D01*
X539114Y67713D01*
X539162Y67737D01*
X539198Y67749D01*
X539210Y67761D01*
X539222D01*
X539426Y67881D01*
X539618Y68012D01*
X539774Y68144D01*
X539893Y68276D01*
X540001Y68384D01*
X540073Y68480D01*
X540121Y68540D01*
X540133Y68564D01*
X540241Y68768D01*
X540325Y68996D01*
X540397Y69235D01*
X540445Y69463D01*
X540481Y69667D01*
X540505Y69751D01*
Y69835D01*
X540517Y69895D01*
X540529Y69943D01*
Y69967D01*
Y69979D01*
X541644Y69871D01*
X541632Y69559D01*
X541584Y69259D01*
X541536Y68984D01*
X541464Y68720D01*
X541392Y68480D01*
X541308Y68252D01*
X541212Y68049D01*
X541116Y67869D01*
X541032Y67701D01*
X540937Y67557D01*
X540853Y67437D01*
X540781Y67329D01*
X540721Y67257D01*
X540661Y67197D01*
X540637Y67161D01*
X540625Y67149D01*
X540433Y66969D01*
X540229Y66826D01*
X540013Y66694D01*
X539798Y66574D01*
X539570Y66478D01*
X539354Y66394D01*
X539138Y66334D01*
X538934Y66274D01*
X538731Y66238D01*
X538551Y66202D01*
X538395Y66190D01*
X538251Y66166D01*
X538131D01*
X538047Y66154D01*
X537975D01*
X537592Y66166D01*
X537244Y66214D01*
X536932Y66274D01*
X536788Y66310D01*
X536669Y66358D01*
X536549Y66394D01*
X536453Y66430D01*
X536357Y66454D01*
X536285Y66490D01*
X536225Y66514D01*
X536189Y66538D01*
X536165Y66550D01*
X536153D01*
X535889Y66718D01*
X535649Y66909D01*
X535446Y67101D01*
X535266Y67293D01*
X535134Y67461D01*
X535038Y67605D01*
X535002Y67653D01*
X534978Y67689D01*
X534954Y67713D01*
Y67725D01*
X534810Y68025D01*
X534702Y68312D01*
X534618Y68600D01*
X534570Y68864D01*
X534547Y68984D01*
X534534Y69092D01*
X534523Y69187D01*
Y69271D01*
X534510Y69331D01*
Y69391D01*
Y69415D01*
Y69427D01*
X534534Y69775D01*
X534582Y70075D01*
X534642Y70350D01*
X534726Y70590D01*
X534762Y70698D01*
X534810Y70782D01*
X534846Y70866D01*
X534870Y70926D01*
X534906Y70974D01*
X534918Y71010D01*
X534942Y71034D01*
Y71046D01*
X535110Y71286D01*
X535314Y71501D01*
X535518Y71693D01*
X535721Y71849D01*
X535901Y71981D01*
X535973Y72029D01*
X536045Y72077D01*
X536093Y72101D01*
X536141Y72125D01*
X536165Y72149D01*
X536177D01*
X536285Y72197D01*
X536417Y72256D01*
X536549Y72316D01*
X536692Y72364D01*
X537004Y72472D01*
X537304Y72580D01*
X537448Y72616D01*
X537592Y72664D01*
X537711Y72700D01*
X537819Y72736D01*
X537915Y72760D01*
X537975Y72784D01*
X538023Y72796D01*
X538035D01*
X538275Y72868D01*
X538503Y72940D01*
X538695Y73000D01*
X538874Y73072D01*
X539042Y73132D01*
X539186Y73192D01*
X539306Y73252D01*
X539414Y73300D01*
X539498Y73348D01*
X539582Y73396D01*
X539642Y73432D01*
X539690Y73467D01*
X539726Y73491D01*
X539750Y73515D01*
X539774Y73527D01*
X539905Y73683D01*
X539989Y73851D01*
X540061Y74019D01*
X540109Y74187D01*
X540133Y74331D01*
X540145Y74450D01*
X540157Y74499D01*
Y74534D01*
Y74546D01*
Y74558D01*
X540145Y74690D01*
X540133Y74810D01*
X540073Y75038D01*
X539989Y75242D01*
X539893Y75410D01*
X539798Y75542D01*
X539714Y75637D01*
X539654Y75697D01*
X539630Y75721D01*
X539414Y75877D01*
X539162Y75985D01*
X538910Y76069D01*
X538659Y76117D01*
X538443Y76153D01*
X538347Y76165D01*
X538263D01*
X538191Y76177D01*
X537915D01*
X537747Y76153D01*
X537436Y76093D01*
X537172Y76009D01*
X536956Y75925D01*
X536788Y75829D01*
X536716Y75781D01*
X536656Y75745D01*
X536620Y75709D01*
X536585Y75685D01*
X536561Y75673D01*
Y75661D01*
X536465Y75553D01*
X536369Y75446D01*
X536225Y75194D01*
X536117Y74930D01*
X536033Y74678D01*
X535973Y74439D01*
X535949Y74343D01*
X535937Y74259D01*
X535925Y74187D01*
X535913Y74127D01*
Y74091D01*
Y74079D01*
X534774Y74187D01*
X534798Y74546D01*
X534858Y74882D01*
X534930Y75170D01*
X535014Y75422D01*
X535050Y75529D01*
X535098Y75625D01*
X535134Y75709D01*
X535158Y75781D01*
X535194Y75841D01*
X535206Y75877D01*
X535230Y75901D01*
Y75913D01*
X535398Y76177D01*
X535578Y76405D01*
X535781Y76596D01*
X535961Y76764D01*
X536129Y76884D01*
X536273Y76980D01*
X536321Y77016D01*
X536357Y77028D01*
X536381Y77052D01*
X536393D01*
X536680Y77184D01*
X536980Y77280D01*
X537268Y77352D01*
X537544Y77400D01*
X537663Y77412D01*
X537771Y77424D01*
X537879Y77436D01*
X537963Y77448D01*
X538131D01*
X538395Y77436D01*
D02*
G37*
G36*
X333932Y79560D02*
X334147Y79536D01*
X334363Y79500D01*
X334555Y79452D01*
X334735Y79380D01*
X334903Y79320D01*
X335059Y79248D01*
X335191Y79176D01*
X335322Y79092D01*
X335430Y79020D01*
X335526Y78960D01*
X335598Y78900D01*
X335658Y78840D01*
X335706Y78804D01*
X335730Y78780D01*
X335742Y78769D01*
X335874Y78613D01*
X335994Y78445D01*
X336102Y78253D01*
X336198Y78073D01*
X336282Y77869D01*
X336353Y77677D01*
X336461Y77294D01*
X336509Y77114D01*
X336545Y76958D01*
X336569Y76802D01*
X336593Y76670D01*
X336605Y76563D01*
Y76491D01*
X336617Y76443D01*
Y76419D01*
X335490Y76275D01*
X335466Y76646D01*
X335418Y76970D01*
X335370Y77114D01*
X335334Y77246D01*
X335286Y77366D01*
X335238Y77486D01*
X335202Y77582D01*
X335155Y77666D01*
X335107Y77726D01*
X335071Y77785D01*
X335047Y77833D01*
X335023Y77869D01*
X334999Y77881D01*
Y77893D01*
X334903Y77989D01*
X334807Y78085D01*
X334591Y78229D01*
X334375Y78325D01*
X334184Y78397D01*
X334004Y78445D01*
X333920Y78457D01*
X333860D01*
X333800Y78469D01*
X333596D01*
X333464Y78445D01*
X333236Y78385D01*
X333033Y78301D01*
X332853Y78205D01*
X332709Y78109D01*
X332601Y78025D01*
X332541Y77965D01*
X332517Y77953D01*
Y77941D01*
X332349Y77737D01*
X332229Y77510D01*
X332145Y77282D01*
X332085Y77066D01*
X332049Y76874D01*
X332038Y76790D01*
Y76718D01*
X332025Y76659D01*
Y76610D01*
Y76586D01*
Y76575D01*
X332049Y76299D01*
X332097Y76023D01*
X332181Y75771D01*
X332265Y75532D01*
X332349Y75316D01*
X332397Y75232D01*
X332433Y75160D01*
X332457Y75100D01*
X332481Y75052D01*
X332505Y75028D01*
Y75016D01*
X332601Y74848D01*
X332733Y74668D01*
X332865Y74489D01*
X333021Y74297D01*
X333356Y73901D01*
X333692Y73517D01*
X333860Y73338D01*
X334016Y73170D01*
X334160Y73026D01*
X334279Y72894D01*
X334387Y72786D01*
X334459Y72714D01*
X334519Y72654D01*
X334531Y72642D01*
X334771Y72402D01*
X334987Y72163D01*
X335191Y71947D01*
X335370Y71731D01*
X335538Y71527D01*
X335682Y71335D01*
X335814Y71168D01*
X335934Y71000D01*
X336042Y70856D01*
X336126Y70724D01*
X336198Y70616D01*
X336258Y70520D01*
X336293Y70448D01*
X336329Y70400D01*
X336342Y70364D01*
X336353Y70352D01*
X336437Y70173D01*
X336509Y70005D01*
X336629Y69681D01*
X336713Y69381D01*
X336773Y69130D01*
X336785Y69010D01*
X336797Y68914D01*
X336809Y68830D01*
X336821Y68746D01*
Y68698D01*
Y68650D01*
Y68626D01*
Y68614D01*
X330899D01*
Y69897D01*
X335298D01*
X335155Y70160D01*
X335083Y70280D01*
X335011Y70388D01*
X334939Y70484D01*
X334891Y70556D01*
X334855Y70604D01*
X334843Y70616D01*
X334783Y70688D01*
X334699Y70784D01*
X334519Y70988D01*
X334315Y71216D01*
X334088Y71443D01*
X333884Y71659D01*
X333800Y71755D01*
X333716Y71827D01*
X333656Y71899D01*
X333608Y71947D01*
X333572Y71983D01*
X333560Y71995D01*
X333284Y72283D01*
X333033Y72558D01*
X332793Y72822D01*
X332589Y73062D01*
X332397Y73290D01*
X332229Y73505D01*
X332074Y73685D01*
X331942Y73865D01*
X331822Y74021D01*
X331726Y74153D01*
X331654Y74273D01*
X331582Y74369D01*
X331534Y74440D01*
X331498Y74489D01*
X331486Y74524D01*
X331474Y74536D01*
X331378Y74716D01*
X331282Y74896D01*
X331150Y75256D01*
X331042Y75592D01*
X330983Y75903D01*
X330959Y76035D01*
X330934Y76155D01*
X330923Y76263D01*
Y76359D01*
X330910Y76431D01*
Y76491D01*
Y76527D01*
Y76539D01*
X330923Y76754D01*
X330947Y76970D01*
X330970Y77174D01*
X331018Y77366D01*
X331138Y77726D01*
X331198Y77893D01*
X331258Y78037D01*
X331330Y78169D01*
X331390Y78289D01*
X331450Y78397D01*
X331510Y78481D01*
X331558Y78553D01*
X331582Y78613D01*
X331606Y78637D01*
X331618Y78649D01*
X331762Y78816D01*
X331906Y78948D01*
X332074Y79080D01*
X332241Y79188D01*
X332409Y79272D01*
X332589Y79344D01*
X332757Y79404D01*
X332925Y79452D01*
X333080Y79500D01*
X333224Y79524D01*
X333356Y79548D01*
X333476Y79560D01*
X333572Y79572D01*
X333704D01*
X333932Y79560D01*
D02*
G37*
G36*
X341724Y79716D02*
X341976Y79692D01*
X342216Y79644D01*
X342432Y79596D01*
X342636Y79536D01*
X342827Y79464D01*
X343007Y79380D01*
X343163Y79308D01*
X343307Y79224D01*
X343427Y79140D01*
X343535Y79068D01*
X343619Y79008D01*
X343691Y78960D01*
X343739Y78912D01*
X343763Y78888D01*
X343774Y78876D01*
X343918Y78709D01*
X344050Y78541D01*
X344170Y78361D01*
X344266Y78181D01*
X344350Y78001D01*
X344422Y77821D01*
X344470Y77653D01*
X344518Y77486D01*
X344554Y77330D01*
X344578Y77186D01*
X344602Y77054D01*
X344614Y76934D01*
X344626Y76850D01*
Y76778D01*
Y76730D01*
Y76718D01*
X344614Y76443D01*
X344578Y76203D01*
X344530Y75975D01*
X344482Y75771D01*
X344434Y75615D01*
X344386Y75496D01*
X344362Y75448D01*
X344350Y75412D01*
X344338Y75400D01*
Y75388D01*
X344218Y75184D01*
X344074Y74992D01*
X343942Y74836D01*
X343811Y74692D01*
X343691Y74584D01*
X343583Y74500D01*
X343523Y74453D01*
X343499Y74429D01*
X343391Y74357D01*
X343271Y74285D01*
X342995Y74153D01*
X342696Y74021D01*
X342396Y73913D01*
X342252Y73865D01*
X342132Y73817D01*
X342012Y73769D01*
X341904Y73745D01*
X341820Y73709D01*
X341760Y73685D01*
X341712Y73673D01*
X341701D01*
X341449Y73601D01*
X341209Y73529D01*
X341005Y73457D01*
X340813Y73397D01*
X340645Y73338D01*
X340490Y73278D01*
X340358Y73230D01*
X340238Y73182D01*
X340142Y73146D01*
X340058Y73110D01*
X339998Y73086D01*
X339938Y73062D01*
X339902Y73038D01*
X339878Y73026D01*
X339854Y73014D01*
X339698Y72918D01*
X339566Y72822D01*
X339459Y72726D01*
X339363Y72630D01*
X339303Y72558D01*
X339243Y72486D01*
X339219Y72438D01*
X339207Y72426D01*
X339135Y72283D01*
X339087Y72139D01*
X339039Y72007D01*
X339015Y71875D01*
X339003Y71755D01*
X338991Y71671D01*
Y71611D01*
Y71587D01*
X339003Y71431D01*
X339015Y71287D01*
X339087Y71024D01*
X339171Y70796D01*
X339279Y70604D01*
X339387Y70448D01*
X339482Y70340D01*
X339554Y70268D01*
X339566Y70257D01*
X339578Y70244D01*
X339818Y70077D01*
X340082Y69957D01*
X340358Y69861D01*
X340621Y69801D01*
X340861Y69765D01*
X340957Y69753D01*
X341041D01*
X341125Y69741D01*
X341221D01*
X341497Y69753D01*
X341736Y69789D01*
X341964Y69837D01*
X342168Y69897D01*
X342324Y69945D01*
X342444Y69993D01*
X342492Y70017D01*
X342528Y70029D01*
X342540Y70041D01*
X342552D01*
X342756Y70160D01*
X342947Y70292D01*
X343103Y70424D01*
X343223Y70556D01*
X343331Y70664D01*
X343403Y70760D01*
X343451Y70820D01*
X343463Y70844D01*
X343571Y71048D01*
X343655Y71276D01*
X343727Y71515D01*
X343774Y71743D01*
X343811Y71947D01*
X343834Y72031D01*
Y72115D01*
X343847Y72175D01*
X343858Y72223D01*
Y72247D01*
Y72259D01*
X344973Y72151D01*
X344961Y71839D01*
X344913Y71539D01*
X344865Y71263D01*
X344794Y71000D01*
X344722Y70760D01*
X344638Y70532D01*
X344542Y70328D01*
X344446Y70149D01*
X344362Y69981D01*
X344266Y69837D01*
X344182Y69717D01*
X344110Y69609D01*
X344050Y69537D01*
X343990Y69477D01*
X343966Y69441D01*
X343954Y69429D01*
X343763Y69249D01*
X343559Y69106D01*
X343343Y68974D01*
X343127Y68854D01*
X342899Y68758D01*
X342683Y68674D01*
X342468Y68614D01*
X342264Y68554D01*
X342060Y68518D01*
X341880Y68482D01*
X341724Y68470D01*
X341581Y68446D01*
X341461D01*
X341377Y68434D01*
X341305D01*
X340921Y68446D01*
X340574Y68494D01*
X340262Y68554D01*
X340118Y68590D01*
X339998Y68638D01*
X339878Y68674D01*
X339782Y68710D01*
X339686Y68734D01*
X339614Y68770D01*
X339554Y68794D01*
X339519Y68818D01*
X339495Y68830D01*
X339482D01*
X339219Y68998D01*
X338979Y69189D01*
X338775Y69381D01*
X338595Y69573D01*
X338464Y69741D01*
X338368Y69885D01*
X338332Y69933D01*
X338308Y69969D01*
X338284Y69993D01*
Y70005D01*
X338140Y70304D01*
X338032Y70592D01*
X337948Y70880D01*
X337900Y71144D01*
X337876Y71263D01*
X337864Y71371D01*
X337852Y71467D01*
Y71551D01*
X337840Y71611D01*
Y71671D01*
Y71695D01*
Y71707D01*
X337864Y72055D01*
X337912Y72354D01*
X337972Y72630D01*
X338056Y72870D01*
X338092Y72978D01*
X338140Y73062D01*
X338176Y73146D01*
X338200Y73206D01*
X338236Y73254D01*
X338248Y73290D01*
X338272Y73314D01*
Y73326D01*
X338439Y73565D01*
X338643Y73781D01*
X338847Y73973D01*
X339051Y74129D01*
X339231Y74261D01*
X339303Y74309D01*
X339375Y74357D01*
X339423Y74381D01*
X339470Y74405D01*
X339495Y74429D01*
X339506D01*
X339614Y74476D01*
X339746Y74536D01*
X339878Y74596D01*
X340022Y74644D01*
X340334Y74752D01*
X340634Y74860D01*
X340777Y74896D01*
X340921Y74944D01*
X341041Y74980D01*
X341149Y75016D01*
X341245Y75040D01*
X341305Y75064D01*
X341353Y75076D01*
X341365D01*
X341604Y75148D01*
X341832Y75220D01*
X342024Y75280D01*
X342204Y75352D01*
X342372Y75412D01*
X342516Y75472D01*
X342636Y75532D01*
X342743Y75580D01*
X342827Y75627D01*
X342911Y75675D01*
X342971Y75711D01*
X343019Y75747D01*
X343055Y75771D01*
X343079Y75795D01*
X343103Y75807D01*
X343235Y75963D01*
X343319Y76131D01*
X343391Y76299D01*
X343439Y76467D01*
X343463Y76610D01*
X343475Y76730D01*
X343487Y76778D01*
Y76814D01*
Y76826D01*
Y76838D01*
X343475Y76970D01*
X343463Y77090D01*
X343403Y77318D01*
X343319Y77522D01*
X343223Y77689D01*
X343127Y77821D01*
X343043Y77917D01*
X342983Y77977D01*
X342959Y78001D01*
X342743Y78157D01*
X342492Y78265D01*
X342240Y78349D01*
X341988Y78397D01*
X341772Y78433D01*
X341676Y78445D01*
X341593D01*
X341521Y78457D01*
X341245D01*
X341077Y78433D01*
X340765Y78373D01*
X340502Y78289D01*
X340286Y78205D01*
X340118Y78109D01*
X340046Y78061D01*
X339986Y78025D01*
X339950Y77989D01*
X339914Y77965D01*
X339890Y77953D01*
Y77941D01*
X339794Y77833D01*
X339698Y77726D01*
X339554Y77474D01*
X339447Y77210D01*
X339363Y76958D01*
X339303Y76718D01*
X339279Y76623D01*
X339267Y76539D01*
X339255Y76467D01*
X339243Y76407D01*
Y76371D01*
Y76359D01*
X338104Y76467D01*
X338128Y76826D01*
X338188Y77162D01*
X338260Y77450D01*
X338344Y77702D01*
X338380Y77809D01*
X338428Y77905D01*
X338464Y77989D01*
X338488Y78061D01*
X338523Y78121D01*
X338535Y78157D01*
X338559Y78181D01*
Y78193D01*
X338727Y78457D01*
X338907Y78685D01*
X339111Y78876D01*
X339291Y79044D01*
X339459Y79164D01*
X339602Y79260D01*
X339650Y79296D01*
X339686Y79308D01*
X339710Y79332D01*
X339722D01*
X340010Y79464D01*
X340310Y79560D01*
X340597Y79632D01*
X340873Y79680D01*
X340993Y79692D01*
X341101Y79704D01*
X341209Y79716D01*
X341293Y79728D01*
X341461D01*
X341724Y79716D01*
D02*
G37*
G36*
X136500Y79296D02*
X136644Y79032D01*
X136812Y78781D01*
X136968Y78565D01*
X137112Y78361D01*
X137184Y78289D01*
X137244Y78217D01*
X137280Y78157D01*
X137316Y78121D01*
X137340Y78097D01*
X137352Y78085D01*
X137615Y77810D01*
X137891Y77570D01*
X138167Y77354D01*
X138407Y77162D01*
X138622Y77018D01*
X138718Y76958D01*
X138790Y76910D01*
X138862Y76862D01*
X138910Y76838D01*
X138934Y76826D01*
X138946Y76814D01*
Y75532D01*
X138742Y75627D01*
X138539Y75735D01*
X138347Y75855D01*
X138167Y75963D01*
X138011Y76071D01*
X137891Y76155D01*
X137843Y76179D01*
X137807Y76203D01*
X137795Y76227D01*
X137783D01*
X137555Y76407D01*
X137352Y76575D01*
X137172Y76730D01*
X137028Y76862D01*
X136908Y76982D01*
X136824Y77066D01*
X136764Y77126D01*
X136752Y77150D01*
Y68614D01*
X135661D01*
Y79572D01*
X136381D01*
X136500Y79296D01*
D02*
G37*
G36*
X144821Y79716D02*
X145072Y79692D01*
X145312Y79644D01*
X145528Y79596D01*
X145732Y79536D01*
X145924Y79464D01*
X146103Y79380D01*
X146259Y79308D01*
X146403Y79224D01*
X146523Y79140D01*
X146631Y79068D01*
X146715Y79008D01*
X146787Y78960D01*
X146835Y78912D01*
X146859Y78889D01*
X146871Y78877D01*
X147015Y78709D01*
X147146Y78541D01*
X147266Y78361D01*
X147362Y78181D01*
X147446Y78001D01*
X147518Y77821D01*
X147566Y77654D01*
X147614Y77486D01*
X147650Y77330D01*
X147674Y77186D01*
X147698Y77054D01*
X147710Y76934D01*
X147722Y76850D01*
Y76778D01*
Y76730D01*
Y76719D01*
X147710Y76443D01*
X147674Y76203D01*
X147626Y75975D01*
X147578Y75771D01*
X147530Y75616D01*
X147482Y75496D01*
X147458Y75448D01*
X147446Y75412D01*
X147434Y75400D01*
Y75388D01*
X147314Y75184D01*
X147170Y74992D01*
X147038Y74836D01*
X146907Y74692D01*
X146787Y74584D01*
X146679Y74501D01*
X146619Y74453D01*
X146595Y74429D01*
X146487Y74357D01*
X146367Y74285D01*
X146091Y74153D01*
X145792Y74021D01*
X145492Y73913D01*
X145348Y73865D01*
X145228Y73817D01*
X145108Y73769D01*
X145000Y73745D01*
X144916Y73709D01*
X144857Y73685D01*
X144809Y73673D01*
X144797D01*
X144545Y73601D01*
X144305Y73530D01*
X144101Y73457D01*
X143909Y73398D01*
X143742Y73338D01*
X143586Y73278D01*
X143454Y73230D01*
X143334Y73182D01*
X143238Y73146D01*
X143154Y73110D01*
X143094Y73086D01*
X143034Y73062D01*
X142998Y73038D01*
X142974Y73026D01*
X142950Y73014D01*
X142795Y72918D01*
X142663Y72822D01*
X142555Y72726D01*
X142459Y72630D01*
X142399Y72558D01*
X142339Y72486D01*
X142315Y72439D01*
X142303Y72427D01*
X142231Y72283D01*
X142183Y72139D01*
X142135Y72007D01*
X142111Y71875D01*
X142099Y71755D01*
X142087Y71671D01*
Y71611D01*
Y71587D01*
X142099Y71431D01*
X142111Y71288D01*
X142183Y71024D01*
X142267Y70796D01*
X142375Y70604D01*
X142483Y70448D01*
X142579Y70340D01*
X142651Y70269D01*
X142663Y70257D01*
X142675Y70244D01*
X142914Y70077D01*
X143178Y69957D01*
X143454Y69861D01*
X143718Y69801D01*
X143957Y69765D01*
X144053Y69753D01*
X144137D01*
X144221Y69741D01*
X144317D01*
X144593Y69753D01*
X144833Y69789D01*
X145060Y69837D01*
X145264Y69897D01*
X145420Y69945D01*
X145540Y69993D01*
X145588Y70017D01*
X145624Y70029D01*
X145636Y70041D01*
X145648D01*
X145852Y70161D01*
X146043Y70293D01*
X146199Y70424D01*
X146319Y70556D01*
X146427Y70664D01*
X146499Y70760D01*
X146547Y70820D01*
X146559Y70844D01*
X146667Y71048D01*
X146751Y71276D01*
X146823Y71515D01*
X146871Y71743D01*
X146907Y71947D01*
X146931Y72031D01*
Y72115D01*
X146943Y72175D01*
X146955Y72223D01*
Y72247D01*
Y72259D01*
X148070Y72151D01*
X148058Y71839D01*
X148010Y71539D01*
X147962Y71264D01*
X147890Y71000D01*
X147818Y70760D01*
X147734Y70532D01*
X147638Y70328D01*
X147542Y70149D01*
X147458Y69981D01*
X147362Y69837D01*
X147278Y69717D01*
X147206Y69609D01*
X147146Y69537D01*
X147086Y69477D01*
X147063Y69441D01*
X147051Y69429D01*
X146859Y69250D01*
X146655Y69106D01*
X146439Y68974D01*
X146223Y68854D01*
X145996Y68758D01*
X145780Y68674D01*
X145564Y68614D01*
X145360Y68554D01*
X145156Y68518D01*
X144976Y68482D01*
X144821Y68470D01*
X144677Y68446D01*
X144557D01*
X144473Y68434D01*
X144401D01*
X144017Y68446D01*
X143670Y68494D01*
X143358Y68554D01*
X143214Y68590D01*
X143094Y68638D01*
X142974Y68674D01*
X142878Y68710D01*
X142782Y68734D01*
X142711Y68770D01*
X142651Y68794D01*
X142615Y68818D01*
X142591Y68830D01*
X142579D01*
X142315Y68998D01*
X142075Y69190D01*
X141871Y69381D01*
X141692Y69573D01*
X141560Y69741D01*
X141464Y69885D01*
X141428Y69933D01*
X141404Y69969D01*
X141380Y69993D01*
Y70005D01*
X141236Y70304D01*
X141128Y70592D01*
X141044Y70880D01*
X140996Y71144D01*
X140972Y71264D01*
X140960Y71371D01*
X140948Y71467D01*
Y71551D01*
X140936Y71611D01*
Y71671D01*
Y71695D01*
Y71707D01*
X140960Y72055D01*
X141008Y72355D01*
X141068Y72630D01*
X141152Y72870D01*
X141188Y72978D01*
X141236Y73062D01*
X141272Y73146D01*
X141296Y73206D01*
X141332Y73254D01*
X141344Y73290D01*
X141368Y73314D01*
Y73326D01*
X141536Y73565D01*
X141740Y73781D01*
X141943Y73973D01*
X142147Y74129D01*
X142327Y74261D01*
X142399Y74309D01*
X142471Y74357D01*
X142519Y74381D01*
X142567Y74405D01*
X142591Y74429D01*
X142603D01*
X142711Y74477D01*
X142842Y74536D01*
X142974Y74597D01*
X143118Y74644D01*
X143430Y74752D01*
X143730Y74860D01*
X143874Y74896D01*
X144017Y74944D01*
X144137Y74980D01*
X144245Y75016D01*
X144341Y75040D01*
X144401Y75064D01*
X144449Y75076D01*
X144461D01*
X144701Y75148D01*
X144929Y75220D01*
X145120Y75280D01*
X145300Y75352D01*
X145468Y75412D01*
X145612Y75472D01*
X145732Y75532D01*
X145840Y75580D01*
X145924Y75627D01*
X146007Y75676D01*
X146067Y75711D01*
X146115Y75747D01*
X146151Y75771D01*
X146175Y75795D01*
X146199Y75807D01*
X146331Y75963D01*
X146415Y76131D01*
X146487Y76299D01*
X146535Y76467D01*
X146559Y76611D01*
X146571Y76730D01*
X146583Y76778D01*
Y76814D01*
Y76826D01*
Y76838D01*
X146571Y76970D01*
X146559Y77090D01*
X146499Y77318D01*
X146415Y77522D01*
X146319Y77690D01*
X146223Y77821D01*
X146139Y77917D01*
X146079Y77977D01*
X146055Y78001D01*
X145840Y78157D01*
X145588Y78265D01*
X145336Y78349D01*
X145084Y78397D01*
X144868Y78433D01*
X144773Y78445D01*
X144689D01*
X144617Y78457D01*
X144341D01*
X144173Y78433D01*
X143862Y78373D01*
X143598Y78289D01*
X143382Y78205D01*
X143214Y78109D01*
X143142Y78061D01*
X143082Y78025D01*
X143046Y77989D01*
X143010Y77965D01*
X142986Y77953D01*
Y77941D01*
X142890Y77833D01*
X142795Y77726D01*
X142651Y77474D01*
X142543Y77210D01*
X142459Y76958D01*
X142399Y76719D01*
X142375Y76623D01*
X142363Y76539D01*
X142351Y76467D01*
X142339Y76407D01*
Y76371D01*
Y76359D01*
X141200Y76467D01*
X141224Y76826D01*
X141284Y77162D01*
X141356Y77450D01*
X141440Y77702D01*
X141476Y77810D01*
X141524Y77905D01*
X141560Y77989D01*
X141584Y78061D01*
X141620Y78121D01*
X141632Y78157D01*
X141656Y78181D01*
Y78193D01*
X141823Y78457D01*
X142003Y78685D01*
X142207Y78877D01*
X142387Y79044D01*
X142555Y79164D01*
X142699Y79260D01*
X142746Y79296D01*
X142782Y79308D01*
X142807Y79332D01*
X142818D01*
X143106Y79464D01*
X143406Y79560D01*
X143694Y79632D01*
X143969Y79680D01*
X144089Y79692D01*
X144197Y79704D01*
X144305Y79716D01*
X144389Y79728D01*
X144557D01*
X144821Y79716D01*
D02*
G37*
%LPC*%
G36*
X491321Y143103D02*
X491297D01*
X491081Y143079D01*
X490877Y143032D01*
X490698Y142948D01*
X490554Y142864D01*
X490422Y142768D01*
X490338Y142684D01*
X490278Y142636D01*
X490254Y142612D01*
X490110Y142420D01*
X490002Y142204D01*
X489918Y142001D01*
X489870Y141809D01*
X489834Y141629D01*
X489822Y141497D01*
X489810Y141437D01*
Y141401D01*
Y141377D01*
Y141365D01*
X489834Y141101D01*
X489882Y140862D01*
X489942Y140658D01*
X490026Y140478D01*
X490110Y140346D01*
X490170Y140238D01*
X490218Y140178D01*
X490242Y140154D01*
X490410Y139998D01*
X490590Y139878D01*
X490757Y139806D01*
X490925Y139747D01*
X491069Y139711D01*
X491177Y139699D01*
X491225Y139687D01*
X491285D01*
X491513Y139711D01*
X491717Y139759D01*
X491897Y139831D01*
X492040Y139926D01*
X492172Y140010D01*
X492268Y140082D01*
X492316Y140130D01*
X492340Y140154D01*
X492484Y140346D01*
X492580Y140562D01*
X492652Y140766D01*
X492712Y140981D01*
X492736Y141161D01*
X492748Y141233D01*
Y141305D01*
X492760Y141365D01*
Y141401D01*
Y141425D01*
Y141437D01*
X492736Y141689D01*
X492688Y141917D01*
X492628Y142120D01*
X492544Y142300D01*
X492460Y142432D01*
X492400Y142540D01*
X492352Y142600D01*
X492328Y142624D01*
X492160Y142780D01*
X491980Y142900D01*
X491813Y142984D01*
X491645Y143043D01*
X491513Y143079D01*
X491393Y143091D01*
X491321Y143103D01*
D02*
G37*
G36*
X491381Y138584D02*
X491309D01*
X491165Y138572D01*
X491033Y138560D01*
X490782Y138488D01*
X490566Y138392D01*
X490374Y138272D01*
X490218Y138152D01*
X490098Y138056D01*
X490026Y137984D01*
X490014Y137972D01*
X490002Y137960D01*
X489906Y137840D01*
X489822Y137720D01*
X489678Y137457D01*
X489583Y137181D01*
X489523Y136929D01*
X489475Y136701D01*
X489463Y136606D01*
Y136522D01*
X489451Y136450D01*
Y136402D01*
Y136366D01*
Y136354D01*
Y136174D01*
X489475Y135994D01*
X489535Y135682D01*
X489619Y135407D01*
X489715Y135179D01*
X489774Y135083D01*
X489822Y134999D01*
X489870Y134927D01*
X489906Y134867D01*
X489942Y134819D01*
X489966Y134783D01*
X489978Y134771D01*
X489990Y134759D01*
X490086Y134651D01*
X490194Y134567D01*
X490302Y134483D01*
X490410Y134424D01*
X490626Y134316D01*
X490829Y134244D01*
X491009Y134208D01*
X491093Y134196D01*
X491153Y134184D01*
X491213Y134172D01*
X491285D01*
X491429Y134184D01*
X491561Y134196D01*
X491800Y134268D01*
X492028Y134364D01*
X492220Y134483D01*
X492364Y134591D01*
X492484Y134687D01*
X492556Y134759D01*
X492568Y134771D01*
X492580Y134783D01*
X492676Y134903D01*
X492760Y135023D01*
X492892Y135287D01*
X492987Y135562D01*
X493047Y135814D01*
X493095Y136042D01*
X493107Y136138D01*
Y136222D01*
X493119Y136294D01*
Y136342D01*
Y136378D01*
Y136390D01*
X493107Y136569D01*
X493095Y136737D01*
X493035Y137049D01*
X492952Y137313D01*
X492856Y137541D01*
X492808Y137648D01*
X492760Y137732D01*
X492712Y137804D01*
X492676Y137864D01*
X492640Y137912D01*
X492616Y137948D01*
X492592Y137960D01*
Y137972D01*
X492496Y138080D01*
X492388Y138176D01*
X492280Y138260D01*
X492172Y138332D01*
X491956Y138440D01*
X491753Y138512D01*
X491573Y138548D01*
X491429Y138572D01*
X491381Y138584D01*
D02*
G37*
G36*
X99708Y139088D02*
X99636D01*
X99504Y139077D01*
X99372Y139065D01*
X99132Y138993D01*
X98929Y138885D01*
X98749Y138765D01*
X98593Y138645D01*
X98485Y138537D01*
X98425Y138465D01*
X98401Y138453D01*
Y138441D01*
X98305Y138321D01*
X98233Y138177D01*
X98101Y137890D01*
X98005Y137590D01*
X97945Y137302D01*
X97934Y137170D01*
X97909Y137050D01*
X97898Y136931D01*
Y136835D01*
X97886Y136751D01*
Y136691D01*
Y136655D01*
Y136643D01*
Y136427D01*
X97909Y136223D01*
X97934Y136031D01*
X97970Y135852D01*
X98005Y135684D01*
X98053Y135528D01*
X98089Y135396D01*
X98137Y135264D01*
X98185Y135156D01*
X98233Y135060D01*
X98281Y134976D01*
X98317Y134904D01*
X98353Y134857D01*
X98377Y134820D01*
X98389Y134797D01*
X98401Y134785D01*
X98497Y134665D01*
X98593Y134569D01*
X98701Y134473D01*
X98797Y134401D01*
X99001Y134281D01*
X99180Y134197D01*
X99336Y134149D01*
X99456Y134125D01*
X99504Y134113D01*
X99564D01*
X99696Y134125D01*
X99828Y134149D01*
X99960Y134173D01*
X100079Y134221D01*
X100295Y134341D01*
X100487Y134473D01*
X100643Y134593D01*
X100763Y134713D01*
X100799Y134761D01*
X100835Y134785D01*
X100847Y134809D01*
X100859Y134820D01*
X100955Y134964D01*
X101039Y135108D01*
X101182Y135420D01*
X101278Y135744D01*
X101338Y136043D01*
X101362Y136187D01*
X101386Y136319D01*
X101398Y136427D01*
Y136535D01*
X101410Y136607D01*
Y136679D01*
Y136715D01*
Y136727D01*
X101398Y136919D01*
X101386Y137110D01*
X101326Y137446D01*
X101290Y137602D01*
X101242Y137746D01*
X101194Y137878D01*
X101146Y137986D01*
X101099Y138094D01*
X101051Y138189D01*
X101003Y138261D01*
X100967Y138321D01*
X100931Y138381D01*
X100907Y138417D01*
X100883Y138429D01*
Y138441D01*
X100787Y138561D01*
X100679Y138657D01*
X100571Y138741D01*
X100463Y138813D01*
X100259Y138933D01*
X100056Y139005D01*
X99888Y139053D01*
X99756Y139077D01*
X99708Y139088D01*
D02*
G37*
G36*
X272189Y280123D02*
Y275207D01*
X275006D01*
X272189Y280123D01*
D02*
G37*
G36*
X404654Y287989D02*
X404655Y287976D01*
Y287988D01*
X404654Y287989D01*
D02*
G37*
G36*
X402772Y288252D02*
X402701D01*
X402569Y288240D01*
X402437Y288228D01*
X402197Y288156D01*
X401993Y288048D01*
X401813Y287929D01*
X401657Y287809D01*
X401550Y287701D01*
X401490Y287629D01*
X401466Y287617D01*
Y287605D01*
X401370Y287485D01*
X401298Y287341D01*
X401166Y287053D01*
X401070Y286754D01*
X401010Y286466D01*
X400998Y286334D01*
X400974Y286214D01*
X400962Y286094D01*
Y285998D01*
X400950Y285914D01*
Y285854D01*
Y285819D01*
Y285807D01*
Y285591D01*
X400974Y285387D01*
X400998Y285195D01*
X401034Y285015D01*
X401070Y284847D01*
X401118Y284692D01*
X401154Y284560D01*
X401202Y284428D01*
X401250Y284320D01*
X401298Y284224D01*
X401346Y284140D01*
X401382Y284068D01*
X401418Y284020D01*
X401442Y283984D01*
X401454Y283960D01*
X401466Y283948D01*
X401562Y283828D01*
X401657Y283732D01*
X401765Y283637D01*
X401861Y283565D01*
X402065Y283445D01*
X402245Y283361D01*
X402401Y283313D01*
X402521Y283289D01*
X402569Y283277D01*
X402629D01*
X402760Y283289D01*
X402892Y283313D01*
X403024Y283337D01*
X403144Y283385D01*
X403360Y283505D01*
X403552Y283637D01*
X403708Y283757D01*
X403827Y283876D01*
X403863Y283924D01*
X403899Y283948D01*
X403911Y283972D01*
X403923Y283984D01*
X404019Y284128D01*
X404103Y284272D01*
X404247Y284584D01*
X404343Y284907D01*
X404403Y285207D01*
X404427Y285351D01*
X404451Y285483D01*
X404463Y285591D01*
Y285699D01*
X404475Y285771D01*
Y285842D01*
Y285879D01*
Y285891D01*
X404463Y286082D01*
X404451Y286274D01*
X404391Y286610D01*
X404355Y286766D01*
X404307Y286910D01*
X404259Y287041D01*
X404211Y287149D01*
X404163Y287257D01*
X404115Y287353D01*
X404067Y287425D01*
X404031Y287485D01*
X403995Y287545D01*
X403971Y287581D01*
X403947Y287593D01*
Y287605D01*
X403851Y287725D01*
X403744Y287821D01*
X403636Y287905D01*
X403528Y287976D01*
X403324Y288096D01*
X403120Y288168D01*
X402952Y288216D01*
X402820Y288240D01*
X402772Y288252D01*
D02*
G37*
G36*
X3744Y290548D02*
Y285632D01*
X6561D01*
X3744Y290548D01*
D02*
G37*
%LPD*%
D11*
X378350Y405100D02*
G03*
X378350Y405100I-1000J0D01*
G01*
X183350D02*
G03*
X183350Y405100I-1000J0D01*
G01*
X-11650D02*
G03*
X-11650Y405100I-1000J0D01*
G01*
X378350Y197500D02*
G03*
X378350Y197500I-1000J0D01*
G01*
X183350Y197500D02*
G03*
X183350Y197500I-1000J0D01*
G01*
X-11650Y197496D02*
G03*
X-11650Y197496I-1000J0D01*
G01*
D12*
X430604Y104169D02*
G03*
X430604Y104169I-1000J0D01*
G01*
X234971Y104154D02*
G03*
X234971Y104154I-1000J0D01*
G01*
X39021Y104110D02*
G03*
X39021Y104110I-1000J0D01*
G01*
X40113Y311787D02*
G03*
X40113Y311787I-1000J0D01*
G01*
X235296Y311746D02*
G03*
X235296Y311746I-1000J0D01*
G01*
X434608Y311385D02*
G03*
X434608Y311385I-1000J0D01*
G01*
X505657Y80474D02*
X508197Y83014D01*
X310024Y80459D02*
X312564Y82999D01*
X114074Y80415D02*
X116614Y82956D01*
X115166Y288093D02*
X117706Y290633D01*
X310349Y288051D02*
X312889Y290591D01*
X509661Y287691D02*
X512201Y290231D01*
D14*
X512850Y407550D02*
G03*
X517850Y412550I0J5000D01*
G01*
X425600Y447550D02*
G03*
X408850Y430800I0J-16750D01*
G01*
X317850Y407550D02*
G03*
X322850Y412550I0J5000D01*
G01*
X230600Y447550D02*
G03*
X213850Y430800I0J-16750D01*
G01*
X122850Y407550D02*
G03*
X127850Y412550I0J5000D01*
G01*
X35600Y447550D02*
G03*
X18850Y430800I0J-16750D01*
G01*
X512850Y199950D02*
G03*
X517850Y204950I0J5000D01*
G01*
X425600Y239950D02*
G03*
X408850Y223200I0J-16750D01*
G01*
X317850Y199950D02*
G03*
X322850Y204950I0J5000D01*
G01*
X230600Y239950D02*
G03*
X213850Y223200I0J-16750D01*
G01*
X122850Y199946D02*
G03*
X127850Y204946I0J5000D01*
G01*
X35600Y239946D02*
G03*
X18850Y223197I0J-16750D01*
G01*
X425600Y447550D02*
X478890D01*
X517850Y412550D02*
Y415100D01*
X460500Y407550D02*
X512850D01*
X408850Y421100D02*
Y430800D01*
X230600Y447550D02*
X283890D01*
X322850Y412550D02*
Y415100D01*
X265500Y407550D02*
X317850D01*
X213850Y421100D02*
Y430800D01*
X35600Y447550D02*
X88890D01*
X127850Y412550D02*
Y415100D01*
X70500Y407550D02*
X122850D01*
X18850Y421100D02*
Y430800D01*
X425600Y239950D02*
X478890D01*
X517850Y204950D02*
Y207500D01*
X460500Y199950D02*
X512850D01*
X408850Y213500D02*
Y223200D01*
X230600Y239950D02*
X283890D01*
X322850Y204950D02*
Y207500D01*
X265500Y199950D02*
X317850D01*
X213850Y213500D02*
Y223200D01*
X35600Y239946D02*
X88890D01*
X127850Y204946D02*
Y207496D01*
X70500Y199946D02*
X122850D01*
X18850Y213496D02*
Y223197D01*
D108*
X453524Y81871D02*
X488068D01*
X453524Y112351D02*
X488068D01*
X257891Y81856D02*
X292435D01*
X257891Y112336D02*
X292435D01*
X61941Y81812D02*
X96485D01*
X61941Y112292D02*
X96485D01*
X63033Y289490D02*
X97577D01*
X63033Y319970D02*
X97577D01*
X258216Y289448D02*
X292760D01*
X258216Y319928D02*
X292760D01*
X457528Y289088D02*
X492072D01*
X457528Y319568D02*
X492072D01*
M02*
