G04*
G04 #@! TF.GenerationSoftware,Altium Limited,Altium Designer,25.4.2 (15)*
G04*
G04 Layer_Color=15238730*
%FSLAX44Y44*%
%MOMM*%
G71*
G04*
G04 #@! TF.SameCoordinates,99B82A19-3900-4842-934D-00B4288F025C*
G04*
G04*
G04 #@! TF.FilePolarity,Positive*
G04*
G01*
G75*
%ADD12C,0.1000*%
%ADD86C,0.1500*%
D12*
X621590Y567498D02*
Y577498D01*
X616590Y572498D02*
X626590D01*
X850682Y440549D02*
Y450549D01*
X845682Y445549D02*
X855682D01*
X838498Y414510D02*
X848498D01*
X843498Y409510D02*
Y419510D01*
X852391Y566136D02*
Y576136D01*
X847391Y571136D02*
X857391D01*
X920000Y615000D02*
Y625000D01*
X915000Y620000D02*
X925000D01*
X920000Y465000D02*
Y475000D01*
X915000Y470000D02*
X925000D01*
X845682Y594953D02*
X855682D01*
X850682Y589953D02*
Y599953D01*
X724979Y532171D02*
X734979D01*
X729979Y527171D02*
Y537171D01*
X707081Y532880D02*
X717081D01*
X712081Y527880D02*
Y537880D01*
X848625Y472560D02*
Y482560D01*
X843625Y477560D02*
X853625D01*
X757951Y508174D02*
Y518174D01*
X752951Y513174D02*
X762951D01*
X796975Y482467D02*
Y492467D01*
X791975Y487467D02*
X801975D01*
X796799Y463171D02*
Y473171D01*
X791799Y468171D02*
X801799D01*
X849110Y619510D02*
Y629510D01*
X844110Y624510D02*
X854110D01*
X620956Y543368D02*
Y553368D01*
X615956Y548368D02*
X625956D01*
X572060Y542018D02*
Y545828D01*
X568250Y542018D02*
X572060D01*
Y538208D02*
Y542018D01*
X575870D01*
X530663Y585013D02*
Y595013D01*
X525663Y590013D02*
X535663D01*
X531255Y563155D02*
Y573155D01*
X526255Y568155D02*
X536255D01*
X621590Y516698D02*
Y526698D01*
X616590Y521698D02*
X626590D01*
X579750Y581684D02*
X589750D01*
X584750Y576684D02*
Y586684D01*
X47825Y547654D02*
Y557654D01*
X42825Y552654D02*
X52825D01*
X47911Y571139D02*
Y581139D01*
X42911Y576139D02*
X52911D01*
X772315Y786583D02*
X782315D01*
X777315Y781583D02*
Y791583D01*
X50774Y497521D02*
Y507521D01*
X45774Y502521D02*
X55774D01*
X102882Y490841D02*
Y500841D01*
X97882Y495841D02*
X107882D01*
X211135Y804174D02*
Y814174D01*
X206135Y809174D02*
X216135D01*
X229283Y534125D02*
X239283D01*
X234283Y529125D02*
Y539125D01*
D86*
X87924Y690303D02*
X103164D01*
Y705543D01*
Y675063D02*
Y690303D01*
X103682Y690162D02*
X118922D01*
M02*
