G04*
G04 #@! TF.GenerationSoftware,Altium Limited,Altium Designer,25.4.2 (15)*
G04*
G04 Layer_Color=16711935*
%FSLAX44Y44*%
%MOMM*%
G71*
G04*
G04 #@! TF.SameCoordinates,99B82A19-3900-4842-934D-00B4288F025C*
G04*
G04*
G04 #@! TF.FilePolarity,Negative*
G04*
G01*
G75*
%ADD59C,1.6500*%
%ADD66C,3.5500*%
%ADD67C,1.8500*%
%ADD68C,4.1378*%
%ADD69C,1.6580*%
%ADD70C,1.5500*%
%ADD71R,1.5500X1.5500*%
%ADD72R,2.4500X3.2500*%
%ADD73R,1.6500X1.6500*%
%ADD74C,1.6740*%
G04:AMPARAMS|DCode=75|XSize=1mm|YSize=2.55mm|CornerRadius=0.5mm|HoleSize=0mm|Usage=FLASHONLY|Rotation=90.000|XOffset=0mm|YOffset=0mm|HoleType=Round|Shape=RoundedRectangle|*
%AMROUNDEDRECTD75*
21,1,1.0000,1.5500,0,0,90.0*
21,1,0.0000,2.5500,0,0,90.0*
1,1,1.0000,0.7750,0.0000*
1,1,1.0000,0.7750,0.0000*
1,1,1.0000,-0.7750,0.0000*
1,1,1.0000,-0.7750,0.0000*
%
%ADD75ROUNDEDRECTD75*%
G04:AMPARAMS|DCode=76|XSize=1.1mm|YSize=2.4mm|CornerRadius=0.55mm|HoleSize=0mm|Usage=FLASHONLY|Rotation=90.000|XOffset=0mm|YOffset=0mm|HoleType=Round|Shape=RoundedRectangle|*
%AMROUNDEDRECTD76*
21,1,1.1000,1.3000,0,0,90.0*
21,1,0.0000,2.4000,0,0,90.0*
1,1,1.1000,0.6500,0.0000*
1,1,1.1000,0.6500,0.0000*
1,1,1.1000,-0.6500,0.0000*
1,1,1.1000,-0.6500,0.0000*
%
%ADD76ROUNDEDRECTD76*%
%ADD77C,1.1500*%
%ADD78R,1.1500X1.1500*%
%ADD79C,0.9500*%
%ADD105R,1.7500X0.8128*%
%ADD107R,2.7000X2.6500*%
G36*
X904686Y844790D02*
X792217D01*
Y861300D01*
X904686D01*
Y844790D01*
D02*
G37*
D59*
X701501Y209389D02*
D03*
X676501D02*
D03*
X651501D02*
D03*
X701501Y354389D02*
D03*
D66*
X431600Y405400D02*
D03*
X495100Y430800D02*
D03*
X236600Y405400D02*
D03*
X300100Y430800D02*
D03*
X41600Y405400D02*
D03*
X105100Y430800D02*
D03*
X431600Y197800D02*
D03*
X495100Y223200D02*
D03*
X236600Y197800D02*
D03*
X300100Y223200D02*
D03*
X41600Y197796D02*
D03*
X105100Y223197D02*
D03*
D67*
X420000Y380000D02*
D03*
X520000D02*
D03*
X225000D02*
D03*
X325000D02*
D03*
X30000D02*
D03*
X130000D02*
D03*
X420000Y172400D02*
D03*
X520000D02*
D03*
X225000Y172400D02*
D03*
X325000D02*
D03*
X30000Y172397D02*
D03*
X130000D02*
D03*
D68*
X470000Y380000D02*
D03*
X275000D02*
D03*
X80000D02*
D03*
X470000Y172400D02*
D03*
X275000Y172400D02*
D03*
X80000Y172397D02*
D03*
D69*
X508100Y329200D02*
D03*
X431900Y329200D02*
D03*
X313100Y329200D02*
D03*
X236900Y329200D02*
D03*
X118100Y329200D02*
D03*
X41900Y329200D02*
D03*
X508100Y121600D02*
D03*
X431900Y121600D02*
D03*
X313100Y121600D02*
D03*
X236900Y121601D02*
D03*
X118100Y121596D02*
D03*
X41900Y121596D02*
D03*
D70*
X545000Y820000D02*
D03*
X570000D02*
D03*
X595000D02*
D03*
D71*
X620000D02*
D03*
D72*
X733501Y284389D02*
D03*
X619501D02*
D03*
D73*
X651501Y354389D02*
D03*
D74*
X920000Y1692D02*
D03*
X0Y0D02*
D03*
X920000Y830000D02*
D03*
X0D02*
D03*
D75*
X895950Y566000D02*
D03*
Y674000D02*
D03*
Y416000D02*
D03*
Y524000D02*
D03*
D76*
X928250Y566000D02*
D03*
Y674000D02*
D03*
Y416000D02*
D03*
Y524000D02*
D03*
D77*
X686980Y816280D02*
D03*
X699680D02*
D03*
X712380D02*
D03*
X725080D02*
D03*
X737780D02*
D03*
X750480D02*
D03*
X763180D02*
D03*
D78*
X775880D02*
D03*
D79*
X101518Y668962D02*
D03*
Y681530D02*
D03*
X114128D02*
D03*
Y668962D02*
D03*
D105*
X500260Y104604D02*
D03*
Y89618D02*
D03*
X441332Y104604D02*
D03*
Y89618D02*
D03*
X304627Y104589D02*
D03*
Y89603D02*
D03*
X245699Y104589D02*
D03*
Y89603D02*
D03*
X108677Y104545D02*
D03*
Y89559D02*
D03*
X49749Y104545D02*
D03*
Y89559D02*
D03*
X109769Y312223D02*
D03*
Y297237D02*
D03*
X50841Y312223D02*
D03*
Y297237D02*
D03*
X304952Y312181D02*
D03*
Y297195D02*
D03*
X246024Y312181D02*
D03*
Y297195D02*
D03*
X504264Y311821D02*
D03*
Y296835D02*
D03*
X445336Y311821D02*
D03*
Y296835D02*
D03*
D107*
X530600Y430800D02*
D03*
X396100Y405400D02*
D03*
X335600Y430800D02*
D03*
X201100Y405400D02*
D03*
X140600Y430800D02*
D03*
X6100Y405400D02*
D03*
X530600Y223200D02*
D03*
X396100Y197800D02*
D03*
X335600Y223200D02*
D03*
X201100Y197800D02*
D03*
X140600Y223197D02*
D03*
X6100Y197796D02*
D03*
M02*
