G04*
G04 #@! TF.GenerationSoftware,Altium Limited,Altium Designer,25.4.2 (15)*
G04*
G04 Layer_Color=16711935*
%FSLAX44Y44*%
%MOMM*%
G71*
G04*
G04 #@! TF.SameCoordinates,99B82A19-3900-4842-934D-00B4288F025C*
G04*
G04*
G04 #@! TF.FilePolarity,Positive*
G04*
G01*
G75*
%ADD111C,0.1016*%
%ADD112C,0.0508*%
G36*
X86488Y664220D02*
X78485D01*
X78507Y664197D01*
X78562Y664142D01*
X78640Y664042D01*
X78751Y663898D01*
X78884Y663731D01*
X79029Y663520D01*
X79184Y663287D01*
X79351Y663021D01*
Y663010D01*
X79373Y662987D01*
X79395Y662954D01*
X79417Y662899D01*
X79462Y662832D01*
X79495Y662754D01*
X79595Y662577D01*
X79695Y662377D01*
X79806Y662155D01*
X79906Y661922D01*
X79994Y661700D01*
X78784D01*
X78773Y661711D01*
X78762Y661744D01*
X78729Y661800D01*
X78696Y661878D01*
X78651Y661966D01*
X78585Y662077D01*
X78518Y662199D01*
X78451Y662321D01*
X78274Y662610D01*
X78063Y662921D01*
X77841Y663243D01*
X77586Y663542D01*
X77575Y663553D01*
X77552Y663576D01*
X77519Y663620D01*
X77464Y663676D01*
X77397Y663731D01*
X77330Y663809D01*
X77142Y663975D01*
X76942Y664164D01*
X76709Y664353D01*
X76465Y664519D01*
X76209Y664663D01*
Y665474D01*
X86488D01*
Y664220D01*
D02*
G37*
G36*
X82547Y658980D02*
X82692Y658969D01*
X82858Y658958D01*
X83047Y658947D01*
X83435Y658903D01*
X83846Y658847D01*
X84246Y658758D01*
X84434Y658703D01*
X84612Y658636D01*
X84623D01*
X84656Y658625D01*
X84701Y658603D01*
X84767Y658570D01*
X84845Y658525D01*
X84934Y658481D01*
X85134Y658348D01*
X85256Y658270D01*
X85367Y658181D01*
X85500Y658070D01*
X85622Y657959D01*
X85744Y657826D01*
X85866Y657693D01*
X85977Y657537D01*
X86088Y657371D01*
X86099Y657360D01*
X86110Y657327D01*
X86144Y657282D01*
X86177Y657205D01*
X86221Y657116D01*
X86266Y657005D01*
X86321Y656883D01*
X86366Y656727D01*
X86421Y656572D01*
X86477Y656394D01*
X86521Y656194D01*
X86566Y655984D01*
X86599Y655750D01*
X86632Y655506D01*
X86643Y655251D01*
X86654Y654985D01*
Y654840D01*
X86643Y654740D01*
Y654618D01*
X86632Y654485D01*
X86610Y654318D01*
X86588Y654152D01*
X86532Y653775D01*
X86443Y653375D01*
X86321Y652987D01*
X86255Y652798D01*
X86166Y652620D01*
X86155Y652609D01*
X86144Y652576D01*
X86110Y652531D01*
X86077Y652476D01*
X86022Y652398D01*
X85955Y652309D01*
X85888Y652221D01*
X85800Y652121D01*
X85600Y651899D01*
X85356Y651688D01*
X85067Y651488D01*
X84901Y651399D01*
X84734Y651322D01*
X84723D01*
X84690Y651311D01*
X84634Y651288D01*
X84556Y651266D01*
X84468Y651233D01*
X84346Y651199D01*
X84212Y651166D01*
X84057Y651133D01*
X83879Y651088D01*
X83691Y651055D01*
X83480Y651022D01*
X83247Y651000D01*
X83003Y650966D01*
X82736Y650955D01*
X82459Y650933D01*
X82159D01*
X76243D01*
Y652287D01*
X82159D01*
X82170D01*
X82214D01*
X82281D01*
X82381D01*
X82492Y652298D01*
X82614D01*
X82758Y652309D01*
X82903Y652320D01*
X83224Y652343D01*
X83546Y652387D01*
X83857Y652454D01*
X84001Y652487D01*
X84123Y652531D01*
X84135D01*
X84146Y652542D01*
X84179Y652554D01*
X84223Y652576D01*
X84346Y652642D01*
X84479Y652731D01*
X84645Y652842D01*
X84801Y652987D01*
X84956Y653164D01*
X85100Y653375D01*
Y653386D01*
X85111Y653408D01*
X85134Y653442D01*
X85156Y653486D01*
X85178Y653541D01*
X85200Y653619D01*
X85233Y653697D01*
X85267Y653786D01*
X85322Y654008D01*
X85378Y654263D01*
X85422Y654552D01*
X85433Y654862D01*
Y655007D01*
X85422Y655107D01*
X85411Y655229D01*
X85400Y655373D01*
X85378Y655528D01*
X85344Y655695D01*
X85267Y656039D01*
X85211Y656217D01*
X85145Y656394D01*
X85067Y656561D01*
X84978Y656716D01*
X84878Y656860D01*
X84756Y656994D01*
X84745Y657005D01*
X84723Y657027D01*
X84678Y657049D01*
X84623Y657094D01*
X84545Y657138D01*
X84445Y657193D01*
X84323Y657260D01*
X84179Y657315D01*
X84012Y657371D01*
X83824Y657438D01*
X83613Y657493D01*
X83380Y657537D01*
X83113Y657582D01*
X82825Y657615D01*
X82503Y657626D01*
X82159Y657637D01*
X76243D01*
Y658991D01*
X82159D01*
X82181D01*
X82226D01*
X82303D01*
X82414D01*
X82547Y658980D01*
D02*
G37*
G36*
X918086Y610992D02*
X918142D01*
X918218Y610978D01*
X918301Y610964D01*
X918391Y610950D01*
X918495Y610923D01*
X918606Y610888D01*
X918717Y610846D01*
X918835Y610798D01*
X918953Y610735D01*
X919078Y610666D01*
X919196Y610583D01*
X919314Y610493D01*
X919424Y610382D01*
X919431Y610375D01*
X919452Y610354D01*
X919480Y610319D01*
X919514Y610271D01*
X919556Y610215D01*
X919605Y610139D01*
X919660Y610056D01*
X919709Y609959D01*
X919764Y609855D01*
X919820Y609737D01*
X919868Y609612D01*
X919910Y609473D01*
X919945Y609328D01*
X919972Y609175D01*
X919993Y609016D01*
X920000Y608842D01*
Y608807D01*
X919993Y608759D01*
Y608703D01*
X919986Y608627D01*
X919972Y608544D01*
X919958Y608454D01*
X919938Y608350D01*
X919910Y608239D01*
X919875Y608128D01*
X919840Y608010D01*
X919792Y607892D01*
X919730Y607774D01*
X919667Y607663D01*
X919591Y607546D01*
X919501Y607441D01*
X919494Y607435D01*
X919480Y607421D01*
X919452Y607393D01*
X919410Y607351D01*
X919362Y607310D01*
X919300Y607261D01*
X919230Y607213D01*
X919147Y607157D01*
X919064Y607102D01*
X918960Y607046D01*
X918856Y606991D01*
X918738Y606942D01*
X918613Y606901D01*
X918481Y606859D01*
X918343Y606831D01*
X918197Y606810D01*
X918093Y607594D01*
X918100D01*
X918121Y607601D01*
X918155Y607608D01*
X918204Y607622D01*
X918260Y607636D01*
X918322Y607649D01*
X918467Y607698D01*
X918627Y607761D01*
X918786Y607837D01*
X918932Y607934D01*
X918995Y607989D01*
X919057Y608045D01*
Y608052D01*
X919071Y608059D01*
X919085Y608079D01*
X919105Y608100D01*
X919147Y608170D01*
X919202Y608267D01*
X919258Y608385D01*
X919300Y608516D01*
X919334Y608676D01*
X919348Y608842D01*
Y608898D01*
X919341Y608939D01*
X919334Y608981D01*
X919327Y609043D01*
X919300Y609168D01*
X919258Y609321D01*
X919189Y609480D01*
X919140Y609556D01*
X919092Y609633D01*
X919036Y609709D01*
X918967Y609785D01*
X918960Y609792D01*
X918946Y609799D01*
X918925Y609820D01*
X918897Y609848D01*
X918863Y609875D01*
X918814Y609903D01*
X918766Y609938D01*
X918703Y609979D01*
X918565Y610049D01*
X918405Y610104D01*
X918218Y610153D01*
X918121Y610160D01*
X918017Y610167D01*
X918010D01*
X917996D01*
X917961D01*
X917927Y610160D01*
X917878Y610153D01*
X917830Y610146D01*
X917705Y610125D01*
X917559Y610076D01*
X917413Y610014D01*
X917337Y609972D01*
X917268Y609924D01*
X917198Y609869D01*
X917129Y609806D01*
X917122Y609799D01*
X917115Y609792D01*
X917094Y609771D01*
X917074Y609744D01*
X917046Y609709D01*
X917018Y609667D01*
X916949Y609563D01*
X916887Y609432D01*
X916831Y609279D01*
X916789Y609106D01*
X916783Y609009D01*
X916776Y608912D01*
Y608870D01*
X916783Y608821D01*
Y608759D01*
X916796Y608676D01*
X916810Y608586D01*
X916831Y608475D01*
X916859Y608357D01*
X916172Y608440D01*
Y608454D01*
X916179Y608489D01*
X916186Y608530D01*
Y608620D01*
X916179Y608655D01*
Y608703D01*
X916172Y608752D01*
X916152Y608870D01*
X916124Y609009D01*
X916075Y609161D01*
X916013Y609321D01*
X915923Y609473D01*
Y609480D01*
X915909Y609494D01*
X915895Y609508D01*
X915874Y609536D01*
X915812Y609605D01*
X915722Y609681D01*
X915611Y609751D01*
X915472Y609820D01*
X915396Y609848D01*
X915305Y609861D01*
X915215Y609875D01*
X915118Y609882D01*
X915111D01*
X915098D01*
X915077D01*
X915042Y609875D01*
X914966Y609869D01*
X914862Y609848D01*
X914751Y609813D01*
X914633Y609757D01*
X914508Y609681D01*
X914453Y609640D01*
X914397Y609584D01*
X914383Y609570D01*
X914355Y609529D01*
X914307Y609466D01*
X914251Y609383D01*
X914203Y609272D01*
X914154Y609140D01*
X914127Y608995D01*
X914113Y608828D01*
Y608787D01*
X914120Y608752D01*
Y608710D01*
X914127Y608669D01*
X914147Y608558D01*
X914182Y608440D01*
X914238Y608308D01*
X914307Y608183D01*
X914404Y608059D01*
X914418Y608045D01*
X914460Y608010D01*
X914522Y607955D01*
X914619Y607899D01*
X914737Y607830D01*
X914889Y607767D01*
X915063Y607712D01*
X915264Y607670D01*
X915125Y606887D01*
X915118D01*
X915090Y606894D01*
X915049Y606901D01*
X914993Y606914D01*
X914931Y606935D01*
X914855Y606956D01*
X914772Y606984D01*
X914681Y607019D01*
X914480Y607109D01*
X914383Y607157D01*
X914279Y607220D01*
X914182Y607289D01*
X914085Y607365D01*
X913988Y607448D01*
X913905Y607539D01*
X913898Y607546D01*
X913884Y607559D01*
X913863Y607594D01*
X913835Y607629D01*
X913801Y607684D01*
X913766Y607740D01*
X913725Y607809D01*
X913683Y607892D01*
X913648Y607975D01*
X913607Y608073D01*
X913572Y608176D01*
X913537Y608288D01*
X913510Y608412D01*
X913489Y608537D01*
X913475Y608669D01*
X913468Y608807D01*
Y608898D01*
X913475Y608946D01*
X913482Y608995D01*
X913496Y609127D01*
X913523Y609272D01*
X913565Y609439D01*
X913621Y609605D01*
X913697Y609771D01*
Y609778D01*
X913704Y609792D01*
X913718Y609813D01*
X913738Y609848D01*
X913787Y609924D01*
X913856Y610021D01*
X913946Y610132D01*
X914050Y610243D01*
X914168Y610354D01*
X914307Y610451D01*
X914314D01*
X914321Y610458D01*
X914349Y610472D01*
X914376Y610486D01*
X914411Y610506D01*
X914453Y610527D01*
X914557Y610569D01*
X914681Y610610D01*
X914820Y610652D01*
X914973Y610680D01*
X915132Y610687D01*
X915139D01*
X915153D01*
X915174D01*
X915201D01*
X915285Y610673D01*
X915382Y610659D01*
X915500Y610631D01*
X915624Y610590D01*
X915756Y610534D01*
X915888Y610458D01*
X915895D01*
X915902Y610451D01*
X915943Y610416D01*
X916006Y610368D01*
X916082Y610291D01*
X916172Y610201D01*
X916262Y610083D01*
X916346Y609952D01*
X916429Y609799D01*
Y609806D01*
X916436Y609827D01*
X916443Y609855D01*
X916457Y609896D01*
X916470Y609938D01*
X916491Y609993D01*
X916547Y610125D01*
X916623Y610264D01*
X916713Y610409D01*
X916831Y610555D01*
X916977Y610680D01*
X916984Y610687D01*
X916997Y610694D01*
X917018Y610708D01*
X917053Y610728D01*
X917088Y610756D01*
X917136Y610784D01*
X917192Y610812D01*
X917261Y610839D01*
X917330Y610867D01*
X917406Y610895D01*
X917580Y610950D01*
X917781Y610985D01*
X917892Y610999D01*
X918003D01*
X918010D01*
X918038D01*
X918086Y610992D01*
D02*
G37*
G36*
X918051Y605736D02*
X918128D01*
X918218Y605729D01*
X918308Y605715D01*
X918509Y605694D01*
X918717Y605659D01*
X918918Y605611D01*
X919008Y605576D01*
X919099Y605541D01*
X919105D01*
X919119Y605535D01*
X919140Y605521D01*
X919168Y605507D01*
X919251Y605458D01*
X919348Y605389D01*
X919452Y605306D01*
X919563Y605202D01*
X919667Y605070D01*
X919764Y604924D01*
Y604917D01*
X919771Y604904D01*
X919785Y604883D01*
X919799Y604848D01*
X919820Y604813D01*
X919834Y604765D01*
X919854Y604709D01*
X919875Y604647D01*
X919924Y604501D01*
X919958Y604335D01*
X919986Y604148D01*
X919993Y603940D01*
Y603857D01*
X919986Y603801D01*
X919979Y603732D01*
X919965Y603648D01*
X919951Y603558D01*
X919931Y603461D01*
X919910Y603357D01*
X919875Y603253D01*
X919840Y603142D01*
X919792Y603038D01*
X919736Y602927D01*
X919674Y602830D01*
X919598Y602733D01*
X919514Y602643D01*
X919508Y602636D01*
X919494Y602622D01*
X919466Y602601D01*
X919424Y602574D01*
X919376Y602539D01*
X919314Y602504D01*
X919237Y602463D01*
X919154Y602421D01*
X919057Y602387D01*
X918953Y602345D01*
X918835Y602310D01*
X918703Y602276D01*
X918565Y602255D01*
X918412Y602234D01*
X918252Y602220D01*
X918079D01*
X917968Y602983D01*
X917975D01*
X918003D01*
X918038Y602990D01*
X918086D01*
X918148Y602997D01*
X918218Y603004D01*
X918370Y603024D01*
X918537Y603059D01*
X918703Y603108D01*
X918780Y603135D01*
X918856Y603170D01*
X918918Y603212D01*
X918974Y603253D01*
X918988Y603267D01*
X919015Y603302D01*
X919057Y603357D01*
X919105Y603433D01*
X919154Y603531D01*
X919196Y603648D01*
X919223Y603780D01*
X919237Y603933D01*
Y603988D01*
X919230Y604044D01*
X919216Y604120D01*
X919202Y604210D01*
X919175Y604300D01*
X919140Y604390D01*
X919092Y604481D01*
X919085Y604494D01*
X919064Y604522D01*
X919029Y604557D01*
X918988Y604612D01*
X918932Y604661D01*
X918863Y604716D01*
X918786Y604765D01*
X918696Y604807D01*
X918682Y604813D01*
X918648Y604820D01*
X918585Y604834D01*
X918502Y604855D01*
X918391Y604869D01*
X918252Y604883D01*
X918093Y604890D01*
X917996Y604897D01*
X917899D01*
X913489D01*
Y605743D01*
X917850D01*
X917857D01*
X917885D01*
X917927D01*
X917982D01*
X918051Y605736D01*
D02*
G37*
G36*
X919896Y456699D02*
X919882D01*
X919847D01*
X919792D01*
X919723Y456707D01*
X919639Y456713D01*
X919549Y456734D01*
X919452Y456755D01*
X919355Y456790D01*
X919348D01*
X919334Y456797D01*
X919314Y456804D01*
X919279Y456817D01*
X919244Y456838D01*
X919196Y456859D01*
X919085Y456914D01*
X918953Y456984D01*
X918807Y457074D01*
X918655Y457178D01*
X918502Y457303D01*
X918495Y457310D01*
X918481Y457317D01*
X918461Y457337D01*
X918426Y457372D01*
X918391Y457407D01*
X918343Y457455D01*
X918287Y457504D01*
X918225Y457566D01*
X918156Y457636D01*
X918086Y457712D01*
X918003Y457795D01*
X917920Y457892D01*
X917830Y457989D01*
X917739Y458100D01*
X917642Y458211D01*
X917538Y458336D01*
X917531Y458350D01*
X917497Y458385D01*
X917455Y458433D01*
X917393Y458502D01*
X917323Y458586D01*
X917240Y458683D01*
X917150Y458794D01*
X917046Y458905D01*
X916831Y459140D01*
X916602Y459369D01*
X916491Y459480D01*
X916380Y459584D01*
X916276Y459674D01*
X916179Y459751D01*
X916172Y459757D01*
X916158Y459764D01*
X916131Y459785D01*
X916096Y459806D01*
X916048Y459841D01*
X915999Y459868D01*
X915874Y459938D01*
X915729Y460007D01*
X915569Y460070D01*
X915403Y460111D01*
X915319Y460118D01*
X915236Y460125D01*
X915229D01*
X915215D01*
X915188D01*
X915160Y460118D01*
X915118D01*
X915070Y460104D01*
X914966Y460083D01*
X914841Y460042D01*
X914709Y459979D01*
X914640Y459945D01*
X914577Y459896D01*
X914515Y459848D01*
X914453Y459785D01*
X914446Y459778D01*
X914439Y459771D01*
X914425Y459751D01*
X914404Y459723D01*
X914376Y459688D01*
X914349Y459647D01*
X914286Y459549D01*
X914231Y459418D01*
X914175Y459272D01*
X914141Y459099D01*
X914127Y459002D01*
Y458849D01*
X914134Y458807D01*
Y458759D01*
X914147Y458703D01*
X914168Y458579D01*
X914210Y458433D01*
X914272Y458280D01*
X914314Y458204D01*
X914355Y458128D01*
X914411Y458059D01*
X914473Y457989D01*
X914480Y457982D01*
X914487Y457975D01*
X914508Y457962D01*
X914536Y457934D01*
X914570Y457913D01*
X914612Y457885D01*
X914661Y457851D01*
X914716Y457823D01*
X914779Y457788D01*
X914848Y457761D01*
X915014Y457705D01*
X915195Y457663D01*
X915299Y457656D01*
X915409Y457649D01*
X915326Y456845D01*
X915312D01*
X915285Y456852D01*
X915243Y456859D01*
X915181Y456866D01*
X915104Y456880D01*
X915014Y456901D01*
X914917Y456921D01*
X914813Y456956D01*
X914709Y456991D01*
X914591Y457032D01*
X914480Y457088D01*
X914369Y457143D01*
X914251Y457213D01*
X914147Y457289D01*
X914044Y457372D01*
X913953Y457469D01*
X913946Y457476D01*
X913933Y457497D01*
X913912Y457525D01*
X913877Y457566D01*
X913842Y457622D01*
X913801Y457691D01*
X913759Y457767D01*
X913711Y457858D01*
X913669Y457955D01*
X913627Y458066D01*
X913586Y458183D01*
X913551Y458315D01*
X913516Y458454D01*
X913496Y458600D01*
X913482Y458759D01*
X913475Y458925D01*
Y459016D01*
X913482Y459078D01*
X913489Y459154D01*
X913503Y459244D01*
X913516Y459348D01*
X913537Y459452D01*
X913565Y459570D01*
X913600Y459688D01*
X913641Y459813D01*
X913690Y459931D01*
X913752Y460056D01*
X913822Y460174D01*
X913898Y460285D01*
X913988Y460388D01*
X913995Y460395D01*
X914009Y460409D01*
X914044Y460437D01*
X914078Y460472D01*
X914127Y460513D01*
X914189Y460562D01*
X914258Y460610D01*
X914342Y460659D01*
X914425Y460708D01*
X914522Y460756D01*
X914626Y460805D01*
X914737Y460846D01*
X914862Y460881D01*
X914987Y460909D01*
X915118Y460922D01*
X915257Y460929D01*
X915264D01*
X915271D01*
X915292D01*
X915319D01*
X915396Y460922D01*
X915493Y460909D01*
X915611Y460888D01*
X915735Y460860D01*
X915874Y460825D01*
X916013Y460770D01*
X916020D01*
X916027Y460763D01*
X916048Y460756D01*
X916075Y460742D01*
X916152Y460701D01*
X916249Y460645D01*
X916367Y460569D01*
X916498Y460479D01*
X916637Y460375D01*
X916789Y460243D01*
X916796Y460236D01*
X916810Y460229D01*
X916831Y460201D01*
X916866Y460174D01*
X916907Y460132D01*
X916956Y460083D01*
X917018Y460028D01*
X917081Y459959D01*
X917157Y459875D01*
X917240Y459785D01*
X917337Y459688D01*
X917434Y459577D01*
X917545Y459459D01*
X917656Y459328D01*
X917781Y459182D01*
X917913Y459029D01*
X917920Y459022D01*
X917941Y459002D01*
X917968Y458960D01*
X918010Y458918D01*
X918058Y458856D01*
X918114Y458794D01*
X918239Y458648D01*
X918371Y458495D01*
X918509Y458350D01*
X918571Y458280D01*
X918627Y458218D01*
X918682Y458163D01*
X918724Y458121D01*
X918731Y458114D01*
X918759Y458086D01*
X918800Y458052D01*
X918856Y458003D01*
X918918Y457948D01*
X918988Y457892D01*
X919140Y457781D01*
Y460936D01*
X919896D01*
Y456699D01*
D02*
G37*
G36*
X918058Y455736D02*
X918135D01*
X918225Y455729D01*
X918315Y455715D01*
X918516Y455694D01*
X918724Y455659D01*
X918925Y455611D01*
X919015Y455576D01*
X919106Y455541D01*
X919112D01*
X919126Y455535D01*
X919147Y455521D01*
X919175Y455507D01*
X919258Y455458D01*
X919355Y455389D01*
X919459Y455306D01*
X919570Y455202D01*
X919674Y455070D01*
X919771Y454924D01*
Y454917D01*
X919778Y454904D01*
X919792Y454883D01*
X919806Y454848D01*
X919827Y454813D01*
X919840Y454765D01*
X919861Y454709D01*
X919882Y454647D01*
X919931Y454501D01*
X919965Y454335D01*
X919993Y454148D01*
X920000Y453940D01*
Y453857D01*
X919993Y453801D01*
X919986Y453732D01*
X919972Y453648D01*
X919958Y453558D01*
X919938Y453461D01*
X919917Y453357D01*
X919882Y453253D01*
X919847Y453142D01*
X919799Y453038D01*
X919743Y452927D01*
X919681Y452830D01*
X919605Y452733D01*
X919521Y452643D01*
X919515Y452636D01*
X919501Y452622D01*
X919473Y452601D01*
X919431Y452574D01*
X919383Y452539D01*
X919320Y452504D01*
X919244Y452463D01*
X919161Y452421D01*
X919064Y452386D01*
X918960Y452345D01*
X918842Y452310D01*
X918710Y452276D01*
X918571Y452255D01*
X918419Y452234D01*
X918260Y452220D01*
X918086D01*
X917975Y452983D01*
X917982D01*
X918010D01*
X918045Y452990D01*
X918093D01*
X918156Y452997D01*
X918225Y453004D01*
X918377Y453024D01*
X918544Y453059D01*
X918710Y453108D01*
X918786Y453135D01*
X918863Y453170D01*
X918925Y453212D01*
X918981Y453253D01*
X918995Y453267D01*
X919022Y453302D01*
X919064Y453357D01*
X919112Y453433D01*
X919161Y453531D01*
X919203Y453648D01*
X919230Y453780D01*
X919244Y453933D01*
Y453988D01*
X919237Y454044D01*
X919223Y454120D01*
X919210Y454210D01*
X919182Y454300D01*
X919147Y454390D01*
X919099Y454481D01*
X919092Y454494D01*
X919071Y454522D01*
X919036Y454557D01*
X918995Y454612D01*
X918939Y454661D01*
X918870Y454716D01*
X918793Y454765D01*
X918703Y454807D01*
X918689Y454813D01*
X918655Y454820D01*
X918592Y454834D01*
X918509Y454855D01*
X918398Y454869D01*
X918260Y454883D01*
X918100Y454890D01*
X918003Y454897D01*
X917906D01*
X913496D01*
Y455743D01*
X917857D01*
X917864D01*
X917892D01*
X917934D01*
X917989D01*
X918058Y455736D01*
D02*
G37*
D111*
X569521Y536516D02*
Y538209D01*
Y537363D01*
X574599D01*
Y536516D01*
Y538209D01*
X570367Y544134D02*
X569521Y543287D01*
Y541595D01*
X570367Y540748D01*
X573753D01*
X574599Y541595D01*
Y543287D01*
X573753Y544134D01*
X574599Y545827D02*
Y547519D01*
Y546673D01*
X569521D01*
X570367Y545827D01*
D112*
X778162Y787853D02*
X778585Y788276D01*
Y789122D01*
X778162Y789545D01*
X777738D01*
X777315Y789122D01*
Y788276D01*
X776892Y787853D01*
X776469D01*
X776046Y788276D01*
Y789122D01*
X776469Y789545D01*
X778585Y787006D02*
X776046D01*
Y785737D01*
X776469Y785313D01*
X776892D01*
X777315Y785737D01*
Y787006D01*
Y785737D01*
X777738Y785313D01*
X778162D01*
X778585Y785737D01*
Y787006D01*
X776046Y784467D02*
Y783621D01*
Y784044D01*
X778585D01*
X778162Y784467D01*
M02*
