G04*
G04 #@! TF.GenerationSoftware,Altium Limited,Altium Designer,25.4.2 (15)*
G04*
G04 Layer_Color=1265191*
%FSLAX44Y44*%
%MOMM*%
G71*
G04*
G04 #@! TF.SameCoordinates,99B82A19-3900-4842-934D-00B4288F025C*
G04*
G04*
G04 #@! TF.FilePolarity,Positive*
G04*
G01*
G75*
%ADD11C,0.2000*%
%ADD84C,0.2540*%
%ADD110C,0.0500*%
D11*
X602529Y562437D02*
Y582558D01*
Y562437D02*
X640650D01*
Y582558D01*
X602529D02*
X640650D01*
X833651Y435768D02*
Y455330D01*
Y435768D02*
X867713D01*
Y455330D01*
X833651D02*
X867713D01*
X833437Y395449D02*
X853559D01*
Y433570D01*
X833437D02*
X853559D01*
X833437Y395449D02*
Y433570D01*
X833331Y561076D02*
Y581197D01*
Y561076D02*
X871452D01*
Y581197D01*
X833331D02*
X871452D01*
X833651Y604734D02*
X867713D01*
X867713Y585172D02*
X867713Y604734D01*
X833651Y585172D02*
X867713D01*
X833651Y604734D02*
X833651Y585172D01*
X724229Y520880D02*
X735729D01*
Y543462D01*
X724229D02*
X735729D01*
X724229Y520880D02*
Y543462D01*
X706081Y520880D02*
X718081D01*
Y544880D01*
X706081D02*
X718081D01*
X706081Y520880D02*
Y544880D01*
X862625Y468060D02*
Y487060D01*
X834625D02*
X862625D01*
X834625Y468060D02*
Y487060D01*
Y468060D02*
X862625D01*
X769951Y507174D02*
Y519174D01*
X745951D02*
X769951D01*
X745951Y507174D02*
Y519174D01*
Y507174D02*
X769951D01*
X782184Y480156D02*
Y494777D01*
Y480156D02*
X811766D01*
Y494777D01*
X782184D02*
X811766D01*
X782008Y460860D02*
Y475482D01*
Y460860D02*
X811590D01*
Y475482D01*
X782008D02*
X811590D01*
X863110Y615010D02*
Y634010D01*
X835110D02*
X863110D01*
X835110Y615010D02*
Y634010D01*
Y615010D02*
X863110D01*
X603925Y538587D02*
Y558149D01*
Y538587D02*
X637987D01*
Y558149D01*
X603925D02*
X637987D01*
X544163Y582513D02*
Y597513D01*
X517163D02*
X544163D01*
X517163Y582513D02*
Y597513D01*
Y582513D02*
X544163D01*
X550316Y558094D02*
Y578215D01*
X512194D02*
X550316D01*
X512194Y558094D02*
Y578215D01*
Y558094D02*
X550316D01*
X602529Y511637D02*
Y531758D01*
Y511637D02*
X640650D01*
Y531758D01*
X602529D02*
X640650D01*
X577250Y568184D02*
X592250D01*
Y595184D01*
X577250D02*
X592250D01*
X577250Y568184D02*
Y595184D01*
X28765Y542593D02*
Y562715D01*
Y542593D02*
X66886D01*
Y562715D01*
X28765D02*
X66886D01*
X28850Y566078D02*
Y586200D01*
Y566078D02*
X66971D01*
Y586200D01*
X28850D02*
X66971D01*
X64274Y495021D02*
Y510021D01*
X37274D02*
X64274D01*
X37274Y495021D02*
Y510021D01*
Y495021D02*
X64274D01*
X83821Y485780D02*
Y505902D01*
Y485780D02*
X121943D01*
Y505902D01*
X83821D02*
X121943D01*
X230196Y799113D02*
Y819235D01*
X192074D02*
X230196D01*
X192074Y799113D02*
Y819235D01*
Y799113D02*
X230196D01*
X224223Y515064D02*
X244344D01*
X244344Y553186D01*
X224223D02*
X244344D01*
X224223Y515064D02*
Y553186D01*
D84*
X552550Y291100D02*
Y468900D01*
X387450Y291100D02*
Y468900D01*
X552550D01*
X387450Y291100D02*
X552550D01*
X357550D02*
Y468900D01*
X192450Y291100D02*
Y468900D01*
X357550D01*
X192450Y291100D02*
X357550D01*
X162550D02*
Y468900D01*
X-2550Y291100D02*
Y468900D01*
X162550D01*
X-2550Y291100D02*
X162550D01*
X552550Y83500D02*
Y261300D01*
X387450Y83500D02*
Y261300D01*
X552550D01*
X387450Y83500D02*
X552550D01*
X357550Y83500D02*
Y261300D01*
X192450Y83500D02*
Y261300D01*
X357550D01*
X192450Y83500D02*
X357550D01*
X162550Y83497D02*
Y261297D01*
X-2550Y83497D02*
Y261297D01*
X162550D01*
X-2550Y83497D02*
X162550D01*
D110*
X551310Y525018D02*
X592810D01*
Y559018D01*
X551310D02*
X592810D01*
X551310Y525018D02*
Y559018D01*
X770965Y803093D02*
X783665D01*
Y770073D02*
Y803093D01*
X770965Y770073D02*
X783665D01*
X770965D02*
Y803093D01*
M02*
