G04*
G04 #@! TF.GenerationSoftware,Altium Limited,Altium Designer,25.4.2 (15)*
G04*
G04 Layer_Color=13391121*
%FSLAX44Y44*%
%MOMM*%
G71*
G04*
G04 #@! TF.SameCoordinates,99B82A19-3900-4842-934D-00B4288F025C*
G04*
G04*
G04 #@! TF.FilePolarity,Positive*
G04*
G01*
G75*
%ADD11C,0.2000*%
%ADD12C,0.1000*%
D11*
X809150Y425303D02*
X821650D01*
Y408303D02*
Y425303D01*
X809150Y408303D02*
X821650D01*
X809150D02*
Y425303D01*
X802780Y596210D02*
X815280D01*
Y579210D02*
Y596210D01*
X802780Y579210D02*
X815280D01*
X802780D02*
Y596210D01*
D12*
X210466Y514873D02*
X210466Y564873D01*
X160466Y514873D02*
Y564873D01*
X210466Y564873D01*
X160466Y514873D02*
X210466D01*
X520469Y475715D02*
X537469D01*
X520469D02*
Y488215D01*
X537469D01*
Y475715D02*
Y488215D01*
X532469Y475715D02*
X537469Y480715D01*
X644500Y786000D02*
Y843500D01*
X520500Y786000D02*
X644500Y786000D01*
X520500Y786000D02*
Y843500D01*
X644500D01*
X128329Y813598D02*
X137329D01*
X128329Y830599D02*
X137329D01*
X128329Y813598D02*
Y830599D01*
X137329Y813598D02*
Y830599D01*
X148485Y813475D02*
X157485D01*
X148485Y830475D02*
X157485D01*
X148485Y813475D02*
Y830475D01*
X157485Y813475D02*
Y830475D01*
X614001Y351389D02*
X739001D01*
Y217389D02*
Y351389D01*
X614001Y217389D02*
X739001D01*
X614001D02*
Y351389D01*
X347601Y275080D02*
X352601Y280080D01*
Y275080D02*
Y287580D01*
X335601D02*
X352601D01*
X335601Y275080D02*
Y287580D01*
Y275080D02*
X352601D01*
X342058Y475747D02*
X347058Y480747D01*
Y475747D02*
Y488247D01*
X330058D02*
X347058D01*
X330058Y475747D02*
Y488247D01*
Y475747D02*
X347058D01*
X567371Y245003D02*
X572371Y240003D01*
X559871Y245003D02*
X572371D01*
X559871Y228003D02*
Y245003D01*
Y228003D02*
X572371D01*
Y245003D01*
X147603Y475133D02*
X152603Y480133D01*
Y475133D02*
Y487633D01*
X135603D02*
X152603D01*
X135603Y475133D02*
Y487633D01*
Y475133D02*
X152603D01*
X147318Y267749D02*
X152318Y272749D01*
Y267749D02*
Y280249D01*
X135318D02*
X152318D01*
X135318Y267749D02*
Y280249D01*
Y267749D02*
X152318D01*
X244046Y593540D02*
X260546D01*
X244046Y584040D02*
X260546D01*
X244046D02*
Y593540D01*
X260546Y584040D02*
Y593540D01*
X840221Y516614D02*
Y526115D01*
X856721Y516614D02*
Y526115D01*
X840221D02*
X856721D01*
X840221Y516614D02*
X856721D01*
X856572Y499472D02*
Y508972D01*
X840072Y499472D02*
Y508972D01*
Y499472D02*
X856572D01*
X840072Y508972D02*
X856572D01*
X837856Y656969D02*
Y666469D01*
X854355Y656969D02*
Y666469D01*
X837856D02*
X854355D01*
X837856Y656969D02*
X854355D01*
X854286Y640889D02*
Y650388D01*
X837786Y640889D02*
Y650388D01*
Y640889D02*
X854286D01*
X837786Y650388D02*
X854286D01*
X688638Y457853D02*
Y497853D01*
X728638D01*
Y457853D02*
Y497853D01*
X688638Y457853D02*
X728638D01*
X688638Y464353D02*
X695138Y457853D01*
X788031Y455631D02*
X805031D01*
X788031Y446632D02*
X805031D01*
X788031D02*
Y455631D01*
X805031Y446632D02*
Y455631D01*
X787257Y509385D02*
X804257D01*
X787257Y500385D02*
X804257D01*
X787257D02*
Y509385D01*
X804257Y500385D02*
Y509385D01*
X673323Y534890D02*
Y544390D01*
X689823Y534890D02*
Y544390D01*
X673323D02*
X689823D01*
X673323Y534890D02*
X689823D01*
X674532Y526835D02*
X690532D01*
X674532Y518835D02*
X690532D01*
X674532D02*
Y526835D01*
X690532Y518835D02*
Y526835D01*
X688032Y518835D02*
Y526835D01*
X677032Y518835D02*
Y526835D01*
X613108Y503579D02*
X629108D01*
X613108Y495579D02*
X629108D01*
X613108D02*
Y503579D01*
X629108Y495579D02*
Y503579D01*
X626608Y495579D02*
Y503579D01*
X615608Y495579D02*
Y503579D01*
X109064Y511804D02*
Y521304D01*
X92564Y511804D02*
Y521304D01*
Y511804D02*
X109064D01*
X92564Y521304D02*
X109064D01*
X33902Y513623D02*
Y538623D01*
X63902Y513623D02*
Y538623D01*
X33902Y513623D02*
X63902D01*
X33902Y538623D02*
X63902D01*
X196890Y821869D02*
Y846869D01*
X226890Y821869D02*
Y846869D01*
X196890Y821869D02*
X226890D01*
X196890Y846869D02*
X226890D01*
X138695Y508492D02*
X148195D01*
X138695Y524992D02*
X148195D01*
X138695Y508492D02*
Y524992D01*
X148195Y508492D02*
Y524992D01*
X136589Y544529D02*
Y561529D01*
X124089Y544529D02*
X136589D01*
X124089D02*
Y561529D01*
X136589D01*
X131589D02*
X136589Y556529D01*
X109018Y528381D02*
Y537881D01*
X92518Y528381D02*
Y537881D01*
Y528381D02*
X109018D01*
X92518Y537881D02*
X109018D01*
X94322Y544611D02*
Y564611D01*
X106822Y544611D02*
Y564611D01*
X94322D02*
X106822D01*
X94322Y544611D02*
X106822D01*
X645426Y392051D02*
X654926D01*
X645426Y375551D02*
X654926D01*
Y392051D01*
X645426Y375551D02*
Y392051D01*
X92850Y572071D02*
Y581571D01*
X109350Y572071D02*
Y581571D01*
X92850D02*
X109350D01*
X92850Y572071D02*
X109350D01*
M02*
