<svg width="100.10534462mm" height="90.09266716mm" viewBox="0 0 39411553 35469554"  version="1.1" xmlns="http://www.w3.org/2000/svg" xmlns:xlink="http://www.w3.org/1999/xlink">
<desc>
Origin 5260273 5184736 Bound 3917767 3916705 39411553 35469554
</desc>
<g fill-rule="evenodd" fill="rgb(255, 0, 255)" stroke="black" stroke-width="1" transform="translate(0, 35469554) scale(1, -1) translate(-3917767, -3916705)">
<path id="N" d="M 43329320.00 38917623.00 L 43329320.00 31434736.00 L 43309485.00 31414901.00 L 41077352.00 31414901.00 L 41077352.00 27773469.00 L 43309485.00 27773469.00 L 43329320.00 27753634.00 L 43329320.00 25726074.00 L 43309485.00 25706239.00 L 41077352.00 25706239.00 L 41077352.00 22064807.00 L 43309485.00 22064807.00 L 43329320.00 22044972.00 L 43329320.00 4385340.00 A 522334.30 522334.30 0 0 0 42860684.00 3916705.00 L 4386402.00 3916705.00 A 522308.41 522308.41 0 0 0 3917767.00 4385340.00 L 3917767.00 38917623.00 A 522308.41 522308.41 0 0 0 4386402.00 39386259.00 L 42860684.00 39386259.00 A 522375.99 522375.99 0 0 0 43329320.00 38917623.00  zM 5260269.07 5184751.58 m -672513.42 0 a 672513.42 672513.42 0 1 1 1345026.84 0a 672513.42 672513.42 0 1 1 -1345026.84 0M 6294133.00 14556390.00 L 5231141.00 14556390.00 L 5231141.00 13513082.00 L 6294133.00 13513082.00 L 6294133.00 14556390.00  zM 7160271.64 14034752.14 m -623062.86 0 a 623062.86 623062.86 0 1 1 1246125.73 0a 623062.86 623062.86 0 1 1 -1246125.73 0M 9660271.64 15034752.14 m -623062.86 0 a 623062.86 623062.86 0 1 1 1246125.73 0a 623062.86 623062.86 0 1 1 -1246125.73 0M 14046495.00 14556390.00 L 12983503.00 14556390.00 L 12983503.00 13513082.00 L 14046495.00 13513082.00 L 14046495.00 14556390.00  zM 14912633.64 14034752.14 m -623062.86 0 a 623062.86 623062.86 0 1 1 1246125.73 0a 623062.86 623062.86 0 1 1 -1246125.73 0M 17412633.64 15034752.14 m -623062.86 0 a 623062.86 623062.86 0 1 1 1246125.73 0a 623062.86 623062.86 0 1 1 -1246125.73 0M 19341771.00 15556390.00 L 18278779.00 15556390.00 L 18278779.00 14513082.00 L 19341771.00 14513082.00 L 19341771.00 15556390.00  zM 7162633.64 18884752.14 m -623062.86 0 a 623062.86 623062.86 0 1 1 1246125.73 0a 623062.86 623062.86 0 1 1 -1246125.73 0M 10364212.00 16862689.00 L 9911456.00 16862689.00 L 9911456.00 16606783.00 L 10364212.00 16606783.00 L 10364212.00 16862689.00  zM 11589409.00 15556390.00 L 10526417.00 15556390.00 L 10526417.00 14513082.00 L 11589409.00 14513082.00 L 11589409.00 15556390.00  zM 11309093.00 16862689.00 L 10856337.00 16862689.00 L 10856337.00 16606783.00 L 11309093.00 16606783.00 L 11309093.00 16862689.00  zM 14912633.64 18884752.14 m -623062.86 0 a 623062.86 623062.86 0 1 1 1246125.73 0a 623062.86 623062.86 0 1 1 -1246125.73 0M 18064212.00 16812689.00 L 17611456.00 16812689.00 L 17611456.00 16556783.00 L 18064212.00 16556783.00 L 18064212.00 16812689.00  zM 19009094.00 16812689.00 L 18556338.00 16812689.00 L 18556338.00 16556783.00 L 19009094.00 16556783.00 L 19009094.00 16812689.00  zM 6296495.00 19406390.00 L 5233503.00 19406390.00 L 5233503.00 18363082.00 L 6296495.00 18363082.00 L 6296495.00 19406390.00  zM 9662633.64 19884752.14 m -623062.86 0 a 623062.86 623062.86 0 1 1 1246125.73 0a 623062.86 623062.86 0 1 1 -1246125.73 0M 11591771.00 20406390.00 L 10528779.00 20406390.00 L 10528779.00 19363082.00 L 11591771.00 19363082.00 L 11591771.00 20406390.00  zM 14046496.00 19406391.00 L 12983504.00 19406391.00 L 12983504.00 18363083.00 L 14046496.00 18363083.00 L 14046496.00 19406391.00  zM 17412633.64 19884752.14 m -623062.86 0 a 623062.86 623062.86 0 1 1 1246125.73 0a 623062.86 623062.86 0 1 1 -1246125.73 0M 18064212.00 21712689.00 L 17611456.00 21712689.00 L 17611456.00 21456783.00 L 18064212.00 21456783.00 L 18064212.00 21712689.00  zM 19341771.00 20406390.00 L 18278779.00 20406390.00 L 18278779.00 19363082.00 L 19341771.00 19363082.00 L 19341771.00 20406390.00  zM 19009094.00 21712689.00 L 18556338.00 21712689.00 L 18556338.00 21456783.00 L 19009094.00 21456783.00 L 19009094.00 21712689.00  zM 10014212.00 22312689.00 L 9561456.00 22312689.00 L 9561456.00 22056783.00 L 10014212.00 22056783.00 L 10014212.00 22312689.00  zM 10959094.00 22312689.00 L 10506338.00 22312689.00 L 10506338.00 22056783.00 L 10959094.00 22056783.00 L 10959094.00 22312689.00  zM 8959234.13 32145023.07 m -150528.93 0 a 150528.93 150528.93 0 1 1 301057.86 0a 150528.93 150528.93 0 1 1 -301057.86 0M 9451906.13 32154271.07 m -150528.93 0 a 150528.93 150528.93 0 1 1 301057.86 0a 150528.93 150528.93 0 1 1 -301057.86 0M 8957410.13 32639487.07 m -150528.93 0 a 150528.93 150528.93 0 1 1 301057.86 0a 150528.93 150528.93 0 1 1 -301057.86 0M 9457442.13 32637631.07 m -150528.93 0 a 150528.93 150528.93 0 1 1 301057.86 0a 150528.93 150528.93 0 1 1 -301057.86 0M 5260269.07 38122366.58 m -672513.42 0 a 672513.42 672513.42 0 1 1 1345026.84 0a 672513.42 672513.42 0 1 1 -1345026.84 0M 22044133.00 14556390.00 L 20981141.00 14556390.00 L 20981141.00 13513082.00 L 22044133.00 13513082.00 L 22044133.00 14556390.00  zM 22910271.64 14034752.14 m -623062.86 0 a 623062.86 623062.86 0 1 1 1246125.73 0a 623062.86 623062.86 0 1 1 -1246125.73 0M 25410271.64 15034752.14 m -623062.86 0 a 623062.86 623062.86 0 1 1 1246125.73 0a 623062.86 623062.86 0 1 1 -1246125.73 0M 22907909.64 18884752.14 m -623062.86 0 a 623062.86 623062.86 0 1 1 1246125.73 0a 623062.86 623062.86 0 1 1 -1246125.73 0M 26064212.00 16812689.00 L 25611456.00 16812689.00 L 25611456.00 16556783.00 L 26064212.00 16556783.00 L 26064212.00 16812689.00  zM 27009094.00 16812689.00 L 26556338.00 16812689.00 L 26556338.00 16556783.00 L 27009094.00 16556783.00 L 27009094.00 16812689.00  zM 27339409.00 15556390.00 L 26276417.00 15556390.00 L 26276417.00 14513082.00 L 27339409.00 14513082.00 L 27339409.00 15556390.00  zM 36898463.00 12174500.00 L 35933895.00 12174500.00 L 35933895.00 10894972.00 L 36898463.00 10894972.00 L 36898463.00 12174500.00  zM 37676020.86 8581982.28 m -327604.72 0 a 327604.72 327604.72 0 1 1 655209.45 0a 327604.72 327604.72 0 1 1 -655209.45 0M 38660272.86 8581982.28 m -327604.72 0 a 327604.72 327604.72 0 1 1 655209.45 0a 327604.72 327604.72 0 1 1 -655209.45 0M 41983817.07 5184751.58 m -672513.42 0 a 672513.42 672513.42 0 1 1 1345026.84 0a 672513.42 672513.42 0 1 1 -1345026.84 0M 39644524.86 8581982.28 m -327604.72 0 a 327604.72 327604.72 0 1 1 655209.45 0a 327604.72 327604.72 0 1 1 -655209.45 0M 38000824.00 14615445.00 L 37351218.00 14615445.00 L 37351218.00 13965839.00 L 38000824.00 13965839.00 L 38000824.00 14615445.00  zM 39644524.86 14290643.28 m -327604.72 0 a 327604.72 327604.72 0 1 1 655209.45 0a 327604.72 327604.72 0 1 1 -655209.45 0M 41386651.00 12174500.00 L 40422083.00 12174500.00 L 40422083.00 10894972.00 L 41386651.00 10894972.00 L 41386651.00 12174500.00  zM 22041771.00 19406390.00 L 20978779.00 19406390.00 L 20978779.00 18363082.00 L 22041771.00 18363082.00 L 22041771.00 19406390.00  zM 25407909.64 19884752.14 m -623062.86 0 a 623062.86 623062.86 0 1 1 1246125.73 0a 623062.86 623062.86 0 1 1 -1246125.73 0M 27337047.00 20406390.00 L 26274055.00 20406390.00 L 26274055.00 19363082.00 L 27337047.00 19363082.00 L 27337047.00 20406390.00  zM 27009094.00 21612689.00 L 26556338.00 21612689.00 L 26556338.00 21356783.00 L 27009094.00 21356783.00 L 27009094.00 21612689.00  zM 26064212.00 21612689.00 L 25611456.00 21612689.00 L 25611456.00 21356783.00 L 26064212.00 21356783.00 L 26064212.00 21612689.00  zM 41311454.00 21960246.00 L 40701218.00 21960246.00 A 200706.53 200706.53 0 0 1 40701218.00 21558832.00 L 41311454.00 21558832.00 A 200706.53 200706.53 0 0 1 41311454.00 21960246.00  zM 41311454.00 26212214.00 L 40701218.00 26212214.00 A 200706.53 200706.53 0 0 1 40701218.00 25810800.00 L 41311454.00 25810800.00 A 200706.53 200706.53 0 0 1 41311454.00 26212214.00  zM 40927561.00 39027559.00 L 38627561.00 39027559.00 L 38627561.00 38377559.00 L 40927561.00 38377559.00 L 40927561.00 39027559.00  zM 42533895.00 21980316.00 L 42022083.00 21980316.00 A 220780.35 220780.35 0 1 1 42022083.00 21538762.00 L 42533895.00 21538762.00 A 220780.35 220780.35 0 1 1 42533895.00 21980316.00  zM 42533895.00 26232284.00 L 42022083.00 26232284.00 A 220780.35 220780.35 0 1 1 42022083.00 25790730.00 L 42533895.00 25790730.00 A 220780.35 220780.35 0 1 1 42533895.00 26232284.00  zM 41311454.00 27668908.00 L 40701218.00 27668908.00 A 200706.53 200706.53 0 0 1 40701218.00 27267494.00 L 41311454.00 27267494.00 A 200706.53 200706.53 0 0 1 41311454.00 27668908.00  zM 42533895.00 27688978.00 L 42022083.00 27688978.00 A 220780.35 220780.35 0 1 1 42022083.00 27247424.00 L 42533895.00 27247424.00 A 220780.35 220780.35 0 1 1 42533895.00 27688978.00  zM 41311454.00 31920876.00 L 40701218.00 31920876.00 A 200706.53 200706.53 0 0 1 40701218.00 31519462.00 L 41311454.00 31519462.00 A 200706.53 200706.53 0 0 1 41311454.00 31920876.00  zM 42533895.00 31940946.00 L 42022083.00 31940946.00 A 220780.35 220780.35 0 1 1 42022083.00 31499392.00 L 42533895.00 31499392.00 A 220780.35 220780.35 0 1 1 42533895.00 31940946.00  zM 41983817.07 38122366.58 m -672513.42 0 a 672513.42 672513.42 0 1 1 1345026.84 0a 672513.42 672513.42 0 1 1 -1345026.84 0"/>
</g>
</svg>
