<svg width="100.10534462mm" height="90.09266716mm" viewBox="0 0 39411553 35469554"  version="1.1" xmlns="http://www.w3.org/2000/svg" xmlns:xlink="http://www.w3.org/1999/xlink">
<desc>
Origin 5260273 5184736 Bound 3917767 3916705 39411553 35469554
</desc>
<g fill-rule="evenodd" fill="rgb(0, 0, 255)" stroke="black" stroke-width="1" transform="translate(0, 35469554) scale(1, -1) translate(-3917767, -3916705)">
<path id="N" d="M 37971296.00 13995367.00 L 37380746.00 13995367.00 L 37380746.00 14585917.00 L 37971296.00 14585917.00 L 37971296.00 13995367.00  zM 37676021.36 14290642.47 m -200706.53 0 a 200706.53 200706.53 0 1 1 401413.05 0a 200706.53 200706.53 0 1 1 -401413.05 0"/>
<path id="N" d="M 27307519.00 19392610.00 L 26303583.00 19392610.00 L 26303583.00 20376862.00 L 27307519.00 20376862.00 L 27307519.00 19392610.00  z"/>
<path id="N" d="M 26979566.00 21386311.00 L 26585866.00 21386311.00 L 26585866.00 21583161.00 L 26979566.00 21583161.00 L 26979566.00 21386311.00  z"/>
<path id="N" d="M 37676011.01 8581961.86 m -297844.08 0 a 297844.08 297844.08 0 1 1 595688.15 0a 297844.08 297844.08 0 1 1 -595688.15 0M 37676021.36 8581981.47 m -200706.53 0 a 200706.53 200706.53 0 1 1 401413.05 0a 200706.53 200706.53 0 1 1 -401413.05 0"/>
<path id="N" d="M 72927556.94 66527556.94 m -200709.51 0 a 200709.51 200709.51 0 1 1 401419.02 0a 200709.51 200709.51 0 1 1 -401419.02 0M 72927561.46 66527551.27 m -120431.73 0 a 120431.73 120431.73 0 1 1 240863.46 0a 120431.73 120431.73 0 1 1 -240863.46 0"/>
<path id="N" d="M 38660263.01 8581961.86 m -297844.08 0 a 297844.08 297844.08 0 1 1 595688.15 0a 297844.08 297844.08 0 1 1 -595688.15 0M 38660273.36 8581981.47 m -200706.53 0 a 200706.53 200706.53 0 1 1 401413.05 0a 200706.53 200706.53 0 1 1 -401413.05 0"/>
<path id="N" d="M 65227560.07 67530315.01 m -277967.15 0 a 277967.15 277967.15 0 1 1 555934.30 0a 277967.15 277967.15 0 1 1 -555934.30 0M 65227559.44 67530313.65 m -180637.35 0 a 180637.35 180637.35 0 1 1 361274.69 0a 180637.35 180637.35 0 1 1 -361274.69 0"/>
<path id="N" d="M 42533895.00 31499392.00 L 42022083.00 31499392.00 A 220780.35 220780.35 0 1 0 42022083.00 31940946.00 L 42533895.00 31940946.00 A 220772.76 220772.76 0 1 0 42533895.00 31499392.00  zM 42533894.00 31820522.00 L 42022084.00 31820522.00 A 100353.26 100353.26 0 0 1 42022084.00 31619816.00 L 42533894.00 31619816.00 A 100353.26 100353.26 0 0 1 42533894.00 31820522.00  z"/>
<path id="N" d="M 42533895.00 21538762.00 L 42022083.00 21538762.00 A 220780.35 220780.35 0 1 0 42022083.00 21980316.00 L 42533895.00 21980316.00 A 220772.76 220772.76 0 1 0 42533895.00 21538762.00  zM 42533894.00 21859892.00 L 42022084.00 21859892.00 A 100353.26 100353.26 0 0 1 42022084.00 21659186.00 L 42533894.00 21659186.00 A 100353.26 100353.26 0 0 1 42533894.00 21859892.00  z"/>
<path id="N" d="M 42533895.00 25790730.00 L 42022083.00 25790730.00 A 220780.35 220780.35 0 1 0 42022083.00 26232284.00 L 42533895.00 26232284.00 A 220772.76 220772.76 0 1 0 42533895.00 25790730.00  zM 42533894.00 26111860.00 L 42022084.00 26111860.00 A 100353.26 100353.26 0 0 1 42022084.00 25911154.00 L 42533894.00 25911154.00 A 100353.26 100353.26 0 0 1 42533894.00 26111860.00  z"/>
<path id="N" d="M 42533895.00 27247424.00 L 42022083.00 27247424.00 A 220780.35 220780.35 0 1 0 42022083.00 27688978.00 L 42533895.00 27688978.00 A 220772.76 220772.76 0 1 0 42533895.00 27247424.00  zM 42533894.00 27568554.00 L 42022084.00 27568554.00 A 100353.26 100353.26 0 0 1 42022084.00 27367848.00 L 42533894.00 27367848.00 A 100353.26 100353.26 0 0 1 42533894.00 27568554.00  z"/>
<path id="N" d="M 41311454.00 27267494.00 L 40701218.00 27267494.00 A 200706.53 200706.53 0 0 0 40701218.00 27668908.00 L 41311454.00 27668908.00 A 200709.51 200709.51 0 0 0 41311454.00 27267494.00  zM 41311454.00 27568554.00 L 40701218.00 27568554.00 A 100353.26 100353.26 0 0 1 40701218.00 27367848.00 L 41311454.00 27367848.00 A 100353.26 100353.26 0 0 1 41311454.00 27568554.00  z"/>
<path id="N" d="M 41311454.00 25810800.00 L 40701218.00 25810800.00 A 200706.53 200706.53 0 0 0 40701218.00 26212214.00 L 41311454.00 26212214.00 A 200709.51 200709.51 0 0 0 41311454.00 25810800.00  zM 41311454.00 26111860.00 L 40701218.00 26111860.00 A 100353.26 100353.26 0 1 1 40701218.00 25911154.00 L 41311454.00 25911154.00 A 100353.26 100353.26 0 0 1 41311454.00 26111860.00  z"/>
<path id="N" d="M 41311454.00 21558832.00 L 40701218.00 21558832.00 A 200706.53 200706.53 0 0 0 40701218.00 21960246.00 L 41311454.00 21960246.00 A 200709.51 200709.51 0 0 0 41311454.00 21558832.00  zM 41311454.00 21859892.00 L 40701218.00 21859892.00 A 100353.26 100353.26 0 1 1 40701218.00 21659186.00 L 41311454.00 21659186.00 A 100353.26 100353.26 0 0 1 41311454.00 21859892.00  z"/>
<path id="N" d="M 41311454.00 31519462.00 L 40701218.00 31519462.00 A 200706.53 200706.53 0 0 0 40701218.00 31920876.00 L 41311454.00 31920876.00 A 200709.51 200709.51 0 0 0 41311454.00 31519462.00  zM 41311454.00 31820522.00 L 40701218.00 31820522.00 A 100353.26 100353.26 0 1 1 40701218.00 31619816.00 L 41311454.00 31619816.00 A 100353.26 100353.26 0 0 1 41311454.00 31820522.00  z"/>
<path id="N" d="M 72927556.94 65527556.94 m -200709.51 0 a 200709.51 200709.51 0 1 1 401419.02 0a 200709.51 200709.51 0 1 1 -401419.02 0M 72927561.46 65527551.27 m -120431.73 0 a 120431.73 120431.73 0 1 1 240863.46 0a 120431.73 120431.73 0 1 1 -240863.46 0"/>
<path id="N" d="M 8959243.16 32145030.16 m -120412.98 0 a 120412.98 120412.98 0 1 1 240825.96 0a 120412.98 120412.98 0 1 1 -240825.96 0"/>
<path id="N" d="M 8957419.16 32639494.16 m -120412.98 0 a 120412.98 120412.98 0 1 1 240825.96 0a 120412.98 120412.98 0 1 1 -240825.96 0"/>
<path id="N" d="M 41357123.00 10924500.00 L 40451611.00 10924500.00 L 40451611.00 12144972.00 L 41357123.00 12144972.00 L 41357123.00 10924500.00  zM 41258697.00 12046547.00 L 40550037.00 12046547.00 L 40550037.00 11022925.00 L 41258697.00 11022925.00 L 41258697.00 12046547.00  z"/>
<path id="N" d="M 36868935.00 10924500.00 L 35963423.00 10924500.00 L 35963423.00 12144972.00 L 36868935.00 12144972.00 L 36868935.00 10924500.00  zM 36770509.00 12046547.00 L 36061849.00 12046547.00 L 36061849.00 11022925.00 L 36770509.00 11022925.00 L 36770509.00 12046547.00  z"/>
<path id="N" d="M 19312243.00 14542610.00 L 18308307.00 14542610.00 L 18308307.00 15526862.00 L 19312243.00 15526862.00 L 19312243.00 14542610.00  z"/>
<path id="N" d="M 18979566.00 16586311.00 L 18585866.00 16586311.00 L 18585866.00 16783161.00 L 18979566.00 16783161.00 L 18979566.00 16586311.00  z"/>
<path id="N" d="M 73124409.00 64830709.00 L 72730709.00 64830709.00 L 72730709.00 65224409.00 L 73124409.00 65224409.00 L 73124409.00 64830709.00  zM 72927561.46 65027551.27 m -120431.73 0 a 120431.73 120431.73 0 1 1 240863.46 0a 120431.73 120431.73 0 1 1 -240863.46 0"/>
<path id="N" d="M 72927556.94 67527556.94 m -200709.51 0 a 200709.51 200709.51 0 1 1 401419.02 0a 200709.51 200709.51 0 1 1 -401419.02 0M 72927561.46 67527551.27 m -120431.73 0 a 120431.73 120431.73 0 1 1 240863.46 0a 120431.73 120431.73 0 1 1 -240863.46 0"/>
<path id="N" d="M 72927556.94 67027556.94 m -200709.51 0 a 200709.51 200709.51 0 1 1 401419.02 0a 200709.51 200709.51 0 1 1 -401419.02 0M 72927561.46 67027551.27 m -120431.73 0 a 120431.73 120431.73 0 1 1 240863.46 0a 120431.73 120431.73 0 1 1 -240863.46 0"/>
<path id="N" d="M 27309881.00 14542610.00 L 26305945.00 14542610.00 L 26305945.00 15526862.00 L 27309881.00 15526862.00 L 27309881.00 14542610.00  z"/>
<path id="N" d="M 26979566.00 16586311.00 L 26585866.00 16586311.00 L 26585866.00 16783161.00 L 26979566.00 16783161.00 L 26979566.00 16586311.00  z"/>
<path id="N" d="M 65227560.07 65561811.01 m -277967.15 0 a 277967.15 277967.15 0 1 1 555934.30 0a 277967.15 277967.15 0 1 1 -555934.30 0M 65227559.44 65561809.65 m -180637.35 0 a 180637.35 180637.35 0 1 1 361274.69 0a 180637.35 180637.35 0 1 1 -361274.69 0"/>
<path id="N" d="M 11559881.00 14542610.00 L 10555945.00 14542610.00 L 10555945.00 15526862.00 L 11559881.00 15526862.00 L 11559881.00 14542610.00  z"/>
<path id="N" d="M 11279565.00 16636311.00 L 10885865.00 16636311.00 L 10885865.00 16833161.00 L 11279565.00 16833161.00 L 11279565.00 16636311.00  z"/>
<path id="N" d="M 39644515.01 14290622.86 m -297844.08 0 a 297844.08 297844.08 0 1 1 595688.15 0a 297844.08 297844.08 0 1 1 -595688.15 0M 39644525.36 14290642.47 m -200706.53 0 a 200706.53 200706.53 0 1 1 401413.05 0a 200706.53 200706.53 0 1 1 -401413.05 0"/>
<path id="N" d="M 26034684.00 16586311.00 L 25640984.00 16586311.00 L 25640984.00 16783161.00 L 26034684.00 16783161.00 L 26034684.00 16586311.00  z"/>
<path id="N" d="M 26034684.00 21386311.00 L 25640984.00 21386311.00 L 25640984.00 21583161.00 L 26034684.00 21583161.00 L 26034684.00 21386311.00  z"/>
<path id="N" d="M 6266967.00 18392610.00 L 5263031.00 18392610.00 L 5263031.00 19376862.00 L 6266967.00 19376862.00 L 6266967.00 18392610.00  z"/>
<path id="N" d="M 14016968.00 18392611.00 L 13013032.00 18392611.00 L 13013032.00 19376863.00 L 14016968.00 19376863.00 L 14016968.00 18392611.00  z"/>
<path id="N" d="M 22012243.00 18392610.00 L 21008307.00 18392610.00 L 21008307.00 19376862.00 L 22012243.00 19376862.00 L 22012243.00 18392610.00  z"/>
<path id="N" d="M 11562243.00 19392610.00 L 10558307.00 19392610.00 L 10558307.00 20376862.00 L 11562243.00 20376862.00 L 11562243.00 19392610.00  z"/>
<path id="N" d="M 10929566.00 22086311.00 L 10535866.00 22086311.00 L 10535866.00 22283161.00 L 10929566.00 22283161.00 L 10929566.00 22086311.00  z"/>
<path id="N" d="M 22014605.00 13542610.00 L 21010669.00 13542610.00 L 21010669.00 14526862.00 L 22014605.00 14526862.00 L 22014605.00 13542610.00  z"/>
<path id="N" d="M 14016967.00 13542610.00 L 13013031.00 13542610.00 L 13013031.00 14526862.00 L 14016967.00 14526862.00 L 14016967.00 13542610.00  z"/>
<path id="N" d="M 6264605.00 13542610.00 L 5260669.00 13542610.00 L 5260669.00 14526862.00 L 6264605.00 14526862.00 L 6264605.00 13542610.00  z"/>
<path id="N" d="M 18034684.00 16586311.00 L 17640984.00 16586311.00 L 17640984.00 16783161.00 L 18034684.00 16783161.00 L 18034684.00 16586311.00  z"/>
<path id="N" d="M 18034684.00 21486311.00 L 17640984.00 21486311.00 L 17640984.00 21683161.00 L 18034684.00 21683161.00 L 18034684.00 21486311.00  z"/>
<path id="N" d="M 65227560.07 66546063.01 m -277967.15 0 a 277967.15 277967.15 0 1 1 555934.30 0a 277967.15 277967.15 0 1 1 -555934.30 0M 65227559.44 66546061.65 m -180637.35 0 a 180637.35 180637.35 0 1 1 361274.69 0a 180637.35 180637.35 0 1 1 -361274.69 0"/>
<path id="N" d="M 72927556.94 66027556.94 m -200709.51 0 a 200709.51 200709.51 0 1 1 401419.02 0a 200709.51 200709.51 0 1 1 -401419.02 0M 72927561.46 66027551.27 m -120431.73 0 a 120431.73 120431.73 0 1 1 240863.46 0a 120431.73 120431.73 0 1 1 -240863.46 0"/>
<path id="N" d="M 65503149.00 64301969.00 L 64951969.00 64301969.00 L 64951969.00 64853149.00 L 65503149.00 64853149.00 L 65503149.00 64301969.00  zM 65227559.44 64577557.65 m -180637.35 0 a 180637.35 180637.35 0 1 1 361274.69 0a 180637.35 180637.35 0 1 1 -361274.69 0"/>
<path id="N" d="M 72927556.94 68027556.94 m -200709.51 0 a 200709.51 200709.51 0 1 1 401419.02 0a 200709.51 200709.51 0 1 1 -401419.02 0M 72927561.46 68027551.27 m -120431.73 0 a 120431.73 120431.73 0 1 1 240863.46 0a 120431.73 120431.73 0 1 1 -240863.46 0"/>
<path id="N" d="M 72927556.94 68527556.94 m -200709.51 0 a 200709.51 200709.51 0 1 1 401419.02 0a 200709.51 200709.51 0 1 1 -401419.02 0M 72927561.46 68527551.27 m -120431.73 0 a 120431.73 120431.73 0 1 1 240863.46 0a 120431.73 120431.73 0 1 1 -240863.46 0"/>
<path id="N" d="M 40060302.00 38945570.00 L 40091784.00 38940906.00 L 40125598.00 38931578.00 L 40150084.00 38919335.00 L 40178068.00 38897181.00 L 40197890.00 38873861.00 L 40218878.00 38838881.00 L 40229955.00 38803901.00 L 40236368.00 38755512.00 L 40236951.00 38716451.00 L 40232870.00 38683803.00 L 40225291.00 38655819.00 L 40210716.00 38622005.00 L 40192643.00 38592272.00 L 40173987.00 38572450.00 L 40151833.00 38556709.00 L 40115687.00 38540968.00 L 40082456.00 38532223.00 L 40045727.00 38527559.00 L 40010164.00 38529891.00 L 39969354.00 38540385.00 L 39937289.00 38554960.00 L 39905224.00 38577114.00 L 39890649.00 38593438.00 L 39874908.00 38617341.00 L 39863831.00 38642410.00 L 39852754.00 38680305.00 L 39846341.00 38732192.00 L 39848673.00 38771253.00 L 39854503.00 38802152.00 L 39867912.00 38840047.00 L 39891815.00 38880274.00 L 39910471.00 38900096.00 L 39933208.00 38916420.00 L 39968771.00 38932744.00 L 40002002.00 38941489.00 L 40038731.00 38946153.00 L 40060302.00 38945570.00  zM 40046310.00 38876776.00 L 40015411.00 38873861.00 L 39982763.00 38859869.00 A 90402.82 90402.82 0 0 1 39943119.00 38811480.00 L 39934374.00 38777083.00 L 39930293.00 38744435.00 L 39933208.00 38701876.00 L 39940204.00 38673309.00 L 39954196.00 38642410.00 L 39967605.00 38625503.00 L 39981014.00 38615592.00 L 40000836.00 38605681.00 L 40033484.00 38597519.00 L 40059136.00 38598685.00 L 40088869.00 38608013.00 L 40099946.00 38615009.00 L 40118602.00 38629001.00 L 40132594.00 38647074.00 L 40146003.00 38680888.00 L 40152999.00 38725779.00 L 40152416.00 38761342.00 L 40144254.00 38800986.00 L 40130262.00 38831302.00 L 40117436.00 38848209.00 L 40097614.00 38862201.00 L 40070796.00 38872695.00 L 40046310.00 38876776.00  z"/>
<path id="N" d="M 40627561.00 38535138.00 L 40407187.00 38536304.00 L 40380952.00 38539219.00 L 40361130.00 38545049.00 L 40337810.00 38556709.00 L 40316822.00 38576531.00 L 40305162.00 38594021.00 L 40295251.00 38617341.00 L 40290004.00 38651738.00 L 40292919.00 38676224.00 L 40299915.00 38695463.00 L 40309826.00 38712370.00 L 40326733.00 38729277.00 L 40345389.00 38740354.00 L 40366377.00 38749099.00 L 40357049.00 38754346.00 L 40341891.00 38766006.00 L 40328482.00 38780581.00 A 94234.01 94234.01 0 0 0 40311575.00 38855205.00 L 40316239.00 38869780.00 A 99100.88 99100.88 0 0 0 40391446.00 38933910.00 L 40439835.00 38937991.00 L 40627561.00 38938574.00 L 40627561.00 38535138.00  zM 40545941.00 38711204.00 L 40461406.00 38711204.00 L 40412434.00 38706540.00 L 40397859.00 38700127.00 L 40386782.00 38691382.00 A 57543.20 57543.20 0 0 1 40383867.00 38623754.00 L 40394944.00 38613843.00 L 40412434.00 38606264.00 L 40428758.00 38604515.00 L 40545941.00 38603349.00 L 40545941.00 38711204.00  zM 40545941.00 38871529.00 L 40443333.00 38870946.00 L 40423511.00 38868614.00 L 40407187.00 38862201.00 L 40396110.00 38851124.00 L 40390280.00 38836549.00 L 40389697.00 38818476.00 L 40394944.00 38802152.00 L 40401357.00 38793407.00 L 40411268.00 38786411.00 L 40432839.00 38779415.00 L 40545941.00 38778249.00 L 40545941.00 38871529.00  z"/>
<path id="N" d="M 9457451.16 32637638.16 m -120412.98 0 a 120412.98 120412.98 0 1 1 240825.96 0a 120412.98 120412.98 0 1 1 -240825.96 0"/>
<path id="N" d="M 9451915.16 32154278.16 m -120412.98 0 a 120412.98 120412.98 0 1 1 240825.96 0a 120412.98 120412.98 0 1 1 -240825.96 0"/>
<path id="N" d="M 39810778.00 38870363.00 L 39691263.00 38870363.00 L 39691263.00 38535138.00 L 39609643.00 38535138.00 L 39609643.00 38870363.00 L 39490711.00 38870363.00 L 39490711.00 38938574.00 L 39810778.00 38938574.00 L 39810778.00 38870363.00  z"/>
<path id="N" d="M 39644515.01 8581961.86 m -297844.08 0 a 297844.08 297844.08 0 1 1 595688.15 0a 297844.08 297844.08 0 1 1 -595688.15 0M 39644525.36 8581981.47 m -200706.53 0 a 200706.53 200706.53 0 1 1 401413.05 0a 200706.53 200706.53 0 1 1 -401413.05 0"/>
<path id="N" d="M 9984684.00 22086311.00 L 9590984.00 22086311.00 L 9590984.00 22283161.00 L 9984684.00 22283161.00 L 9984684.00 22086311.00  z"/>
<path id="N" d="M 10334684.00 16636311.00 L 9940984.00 16636311.00 L 9940984.00 16833161.00 L 10334684.00 16833161.00 L 10334684.00 16636311.00  z"/>
<path id="N" d="M 19312243.00 19392610.00 L 18308307.00 19392610.00 L 18308307.00 20376862.00 L 19312243.00 20376862.00 L 19312243.00 19392610.00  z"/>
<path id="N" d="M 18979566.00 21486311.00 L 18585866.00 21486311.00 L 18585866.00 21683161.00 L 18979566.00 21683161.00 L 18979566.00 21486311.00  z"/>
</g>
</svg>
