<svg width="100.10534462mm" height="90.09266716mm" viewBox="0 0 39411553 35469554"  version="1.1" xmlns="http://www.w3.org/2000/svg" xmlns:xlink="http://www.w3.org/1999/xlink">
<desc>
Origin 5260273 5184736 Bound 3917767 3916705 39411553 35469554
</desc>
<g fill-rule="evenodd" fill="rgb(255, 0, 0)" stroke="black" stroke-width="1" transform="translate(0, 35469554) scale(1, -1) translate(-3917767, -3916705)">
<path id="N" d="M 61477549.01 53627539.86 m -297844.08 0 a 297844.08 297844.08 0 1 1 595688.15 0a 297844.08 297844.08 0 1 1 -595688.15 0"/>
<path id="N" d="M 74212598.00 51992519.00 L 74074804.00 51992519.00 L 74074804.00 52327165.00 L 74212598.00 52327165.00 L 74212598.00 51992519.00  z"/>
<path id="N" d="M 37676011.01 8581961.86 m -297844.08 0 a 297844.08 297844.08 0 1 1 595688.15 0a 297844.08 297844.08 0 1 1 -595688.15 0M 37676021.36 8581981.47 m -200706.53 0 a 200706.53 200706.53 0 1 1 401413.05 0a 200706.53 200706.53 0 1 1 -401413.05 0"/>
<path id="N" d="M 11637438.00 36139461.00 L 11283108.00 36139461.00 L 11283108.00 36730011.00 L 11637438.00 36730011.00 L 11637438.00 36139461.00  z"/>
<path id="N" d="M 36589370.00 53615354.00 L 36199606.00 53615354.00 L 36199606.00 53733464.00 L 36589370.00 53733464.00 L 36589370.00 53615354.00  z"/>
<path id="N" d="M 13637438.00 29249697.00 L 13283108.00 29249697.00 L 13283108.00 29840247.00 L 13637438.00 29840247.00 L 13637438.00 29249697.00  z"/>
<path id="N" d="M 35955512.00 53615354.00 L 35565748.00 53615354.00 L 35565748.00 53733464.00 L 35955512.00 53733464.00 L 35955512.00 53615354.00  z"/>
<path id="N" d="M 40939406.00 29633555.00 L 40585076.00 29633555.00 L 40585076.00 29751665.00 L 40939406.00 29751665.00 L 40939406.00 29633555.00  z"/>
<path id="N" d="M 40939406.00 29239854.00 L 40585076.00 29239854.00 L 40585076.00 29357964.00 L 40939406.00 29357964.00 L 40939406.00 29239854.00  z"/>
<path id="N" d="M 72927556.94 66527556.94 m -200709.51 0 a 200709.51 200709.51 0 1 1 401419.02 0a 200709.51 200709.51 0 1 1 -401419.02 0M 72927561.46 66527551.27 m -120431.73 0 a 120431.73 120431.73 0 1 1 240863.46 0a 120431.73 120431.73 0 1 1 -240863.46 0"/>
<path id="N" d="M 9637438.00 29249697.00 L 9283108.00 29249697.00 L 9283108.00 29840247.00 L 9637438.00 29840247.00 L 9637438.00 29249697.00  z"/>
<path id="N" d="M 28555548.00 27108359.00 L 27964998.00 27108359.00 L 27964998.00 27462689.00 L 28555548.00 27462689.00 L 28555548.00 27108359.00  z"/>
<path id="N" d="M 28020115.00 8007177.00 L 27429565.00 8007177.00 L 27429565.00 8361507.00 L 28020115.00 8361507.00 L 28020115.00 8007177.00  z"/>
<path id="N" d="M 70927559.00 68652559.00 L 70727559.00 68452559.00 L 70527559.00 68652559.00 L 70527559.00 68802559.00 L 70927559.00 68802559.00 L 70927559.00 68652559.00  z"/>
<path id="N" d="M 28555548.00 28407571.00 L 27964998.00 28407571.00 L 27964998.00 28761901.00 L 28555548.00 28761901.00 L 28555548.00 28407571.00  z"/>
<path id="N" d="M 32405548.00 22557571.00 L 31814998.00 22557571.00 L 31814998.00 22911901.00 L 32405548.00 22911901.00 L 32405548.00 22557571.00  z"/>
<path id="N" d="M 22140981.00 31257177.00 L 21550431.00 31257177.00 L 21550431.00 31611507.00 L 22140981.00 31611507.00 L 22140981.00 31257177.00  z"/>
<path id="N" d="M 78772084.00 53425681.00 L 78382320.00 53425681.00 L 78382320.00 53543791.00 L 78772084.00 53543791.00 L 78772084.00 53425681.00  z"/>
<path id="N" d="M 36589370.00 53418504.00 L 36199606.00 53418504.00 L 36199606.00 53536614.00 L 36589370.00 53536614.00 L 36589370.00 53418504.00  z"/>
<path id="N" d="M 18694525.00 34690642.00 L 18241769.00 34690642.00 L 18241769.00 34926862.00 L 18694525.00 34926862.00 L 18694525.00 34690642.00  z"/>
<path id="N" d="M 84504724.00 53043701.00 L 84150394.00 53043701.00 L 84150394.00 53338977.00 L 84504724.00 53338977.00 L 84504724.00 53043701.00  z"/>
<path id="N" d="M 75462599.00 52730709.00 L 75127953.00 52730709.00 L 75127953.00 52868503.00 L 75462599.00 52868503.00 L 75462599.00 52730709.00  z"/>
<path id="N" d="M 18694525.00 33942610.00 L 18241769.00 33942610.00 L 18241769.00 34178830.00 L 18694525.00 34178830.00 L 18694525.00 33942610.00  z"/>
<path id="N" d="M 6226414.00 7857571.00 L 5635864.00 7857571.00 L 5635864.00 8211901.00 L 6226414.00 8211901.00 L 6226414.00 7857571.00  z"/>
<path id="N" d="M 21390981.00 8507177.00 L 20800431.00 8507177.00 L 20800431.00 8861507.00 L 21390981.00 8861507.00 L 21390981.00 8507177.00  z"/>
<path id="N" d="M 26090981.00 8007177.00 L 25500431.00 8007177.00 L 25500431.00 8361507.00 L 26090981.00 8361507.00 L 26090981.00 8007177.00  z"/>
<path id="N" d="M 11305548.00 7656783.00 L 10714998.00 7656783.00 L 10714998.00 8011113.00 L 11305548.00 8011113.00 L 11305548.00 7656783.00  z"/>
<path id="N" d="M 47858267.00 68350000.00 L 47267717.00 68350000.00 L 47267717.00 68704330.00 L 47858267.00 68704330.00 L 47858267.00 68350000.00  z"/>
<path id="N" d="M 30940981.00 31407177.00 L 30350431.00 31407177.00 L 30350431.00 31761507.00 L 30940981.00 31761507.00 L 30940981.00 31407177.00  z"/>
<path id="N" d="M 15340981.00 7857177.00 L 14750431.00 7857177.00 L 14750431.00 8211507.00 L 15340981.00 8211507.00 L 15340981.00 7857177.00  z"/>
<path id="N" d="M 51049737.00 68278321.00 L 50573991.00 68278321.00 L 50573991.00 68676797.00 L 51049737.00 68676797.00 L 51049737.00 68278321.00  z"/>
<path id="N" d="M 17787438.00 33581980.00 L 17433108.00 33581980.00 L 17433108.00 33896940.00 L 17787438.00 33896940.00 L 17787438.00 33581980.00  z"/>
<path id="N" d="M 45004724.00 52317323.00 L 44650394.00 52317323.00 L 44650394.00 52632283.00 L 45004724.00 52632283.00 L 45004724.00 52317323.00  z"/>
<path id="N" d="M 89404724.00 52317323.00 L 89050394.00 52317323.00 L 89050394.00 52632283.00 L 89404724.00 52632283.00 L 89404724.00 52317323.00  z"/>
<path id="N" d="M 93046500.00 53072398.00 L 92708618.00 53072398.00 L 92708618.00 53409508.00 L 93046500.00 53409508.00 L 93046500.00 53072398.00  z"/>
<path id="N" d="M 16859511.00 33615472.00 L 16461035.00 33615472.00 L 16461035.00 34091218.00 L 16859511.00 34091218.00 L 16859511.00 33615472.00  z"/>
<path id="N" d="M 90963412.00 53328321.00 L 90623990.00 53328321.00 L 90623990.00 53726797.00 L 90963412.00 53726797.00 L 90963412.00 53328321.00  z"/>
<path id="N" d="M 46713412.00 53328321.00 L 46373990.00 53328321.00 L 46373990.00 53726797.00 L 46713412.00 53726797.00 L 46713412.00 53328321.00  z"/>
<path id="N" d="M 38660263.01 8581961.86 m -297844.08 0 a 297844.08 297844.08 0 1 1 595688.15 0a 297844.08 297844.08 0 1 1 -595688.15 0M 38660273.36 8581981.47 m -200706.53 0 a 200706.53 200706.53 0 1 1 401413.05 0a 200706.53 200706.53 0 1 1 -401413.05 0"/>
<path id="N" d="M 65227560.07 67530315.01 m -277967.15 0 a 277967.15 277967.15 0 1 1 555934.30 0a 277967.15 277967.15 0 1 1 -555934.30 0M 65227559.44 67530313.65 m -180637.35 0 a 180637.35 180637.35 0 1 1 361274.69 0a 180637.35 180637.35 0 1 1 -361274.69 0"/>
<path id="N" d="M 42533895.00 21538762.00 L 42022083.00 21538762.00 A 220780.35 220780.35 0 1 0 42022083.00 21980316.00 L 42533895.00 21980316.00 A 220772.76 220772.76 0 1 0 42533895.00 21538762.00  zM 42533894.00 21859892.00 L 42022084.00 21859892.00 A 100353.26 100353.26 0 0 1 42022084.00 21659186.00 L 42533894.00 21659186.00 A 100353.26 100353.26 0 0 1 42533894.00 21859892.00  z"/>
<path id="N" d="M 41311454.00 21558832.00 L 40701218.00 21558832.00 A 200706.53 200706.53 0 0 0 40701218.00 21960246.00 L 41311454.00 21960246.00 A 200709.51 200709.51 0 0 0 41311454.00 21558832.00  zM 41311454.00 21859892.00 L 40701218.00 21859892.00 A 100353.26 100353.26 0 1 1 40701218.00 21659186.00 L 41311454.00 21659186.00 A 100353.26 100353.26 0 0 1 41311454.00 21859892.00  z"/>
<path id="N" d="M 42533895.00 25790730.00 L 42022083.00 25790730.00 A 220780.35 220780.35 0 1 0 42022083.00 26232284.00 L 42533895.00 26232284.00 A 220772.76 220772.76 0 1 0 42533895.00 25790730.00  zM 42533894.00 26111860.00 L 42022084.00 26111860.00 A 100353.26 100353.26 0 0 1 42022084.00 25911154.00 L 42533894.00 25911154.00 A 100353.26 100353.26 0 0 1 42533894.00 26111860.00  z"/>
<path id="N" d="M 41311454.00 25810800.00 L 40701218.00 25810800.00 A 200706.53 200706.53 0 0 0 40701218.00 26212214.00 L 41311454.00 26212214.00 A 200709.51 200709.51 0 0 0 41311454.00 25810800.00  zM 41311454.00 26111860.00 L 40701218.00 26111860.00 A 100353.26 100353.26 0 1 1 40701218.00 25911154.00 L 41311454.00 25911154.00 A 100353.26 100353.26 0 0 1 41311454.00 26111860.00  z"/>
<path id="N" d="M 41311454.00 27267494.00 L 40701218.00 27267494.00 A 200706.53 200706.53 0 0 0 40701218.00 27668908.00 L 41311454.00 27668908.00 A 200709.51 200709.51 0 0 0 41311454.00 27267494.00  zM 41311454.00 27568554.00 L 40701218.00 27568554.00 A 100353.26 100353.26 0 0 1 40701218.00 27367848.00 L 41311454.00 27367848.00 A 100353.26 100353.26 0 0 1 41311454.00 27568554.00  z"/>
<path id="N" d="M 42533895.00 31499392.00 L 42022083.00 31499392.00 A 220780.35 220780.35 0 1 0 42022083.00 31940946.00 L 42533895.00 31940946.00 A 220772.76 220772.76 0 1 0 42533895.00 31499392.00  zM 42533894.00 31820522.00 L 42022084.00 31820522.00 A 100353.26 100353.26 0 0 1 42022084.00 31619816.00 L 42533894.00 31619816.00 A 100353.26 100353.26 0 0 1 42533894.00 31820522.00  z"/>
<path id="N" d="M 42533895.00 27247424.00 L 42022083.00 27247424.00 A 220780.35 220780.35 0 1 0 42022083.00 27688978.00 L 42533895.00 27688978.00 A 220772.76 220772.76 0 1 0 42533895.00 27247424.00  zM 42533894.00 27568554.00 L 42022084.00 27568554.00 A 100353.26 100353.26 0 0 1 42022084.00 27367848.00 L 42533894.00 27367848.00 A 100353.26 100353.26 0 0 1 42533894.00 27568554.00  z"/>
<path id="N" d="M 41311454.00 31519462.00 L 40701218.00 31519462.00 A 200706.53 200706.53 0 0 0 40701218.00 31920876.00 L 41311454.00 31920876.00 A 200709.51 200709.51 0 0 0 41311454.00 31519462.00  zM 41311454.00 31820522.00 L 40701218.00 31820522.00 A 100353.26 100353.26 0 1 1 40701218.00 31619816.00 L 41311454.00 31619816.00 A 100353.26 100353.26 0 0 1 41311454.00 31820522.00  z"/>
<path id="N" d="M 72927556.94 65527556.94 m -200709.51 0 a 200709.51 200709.51 0 1 1 401419.02 0a 200709.51 200709.51 0 1 1 -401419.02 0M 72927561.46 65527551.27 m -120431.73 0 a 120431.73 120431.73 0 1 1 240863.46 0a 120431.73 120431.73 0 1 1 -240863.46 0"/>
<path id="N" d="M 8877595.00 32057521.78 L 8877595.00 31747728.00 L 8562635.00 31747728.00 L 8562635.00 32062688.00 L 8872198.48 32062688.00 A 116090.09 116090.09 0 0 0 8874082.00 32230175.00 A 120431.73 120431.73 0 1 0 8877595.00 32057521.78  z"/>
<path id="N" d="M 8877595.00 32550767.08 L 8877595.00 32239854.00 L 8562635.00 32239854.00 L 8562635.00 32554814.00 L 8871936.62 32554814.00 A 119690.47 119690.47 0 1 0 8877595.00 32550767.08  z"/>
<path id="N" d="M 36868935.00 10924500.00 L 35963423.00 10924500.00 L 35963423.00 12144972.00 L 36868935.00 12144972.00 L 36868935.00 10924500.00  zM 36770509.00 12046547.00 L 36061849.00 12046547.00 L 36061849.00 11022925.00 L 36770509.00 11022925.00 L 36770509.00 12046547.00  z"/>
<path id="N" d="M 41357123.00 10924500.00 L 40451611.00 10924500.00 L 40451611.00 12144972.00 L 41357123.00 12144972.00 L 41357123.00 10924500.00  zM 41258697.00 12046547.00 L 40550037.00 12046547.00 L 40550037.00 11022925.00 L 41258697.00 11022925.00 L 41258697.00 12046547.00  z"/>
<path id="N" d="M 40939406.00 22350090.00 L 40585076.00 22350090.00 L 40585076.00 22468200.00 L 40939406.00 22468200.00 L 40939406.00 22350090.00  z"/>
<path id="N" d="M 40939406.00 22546940.00 L 40585076.00 22546940.00 L 40585076.00 22665050.00 L 40939406.00 22665050.00 L 40939406.00 22546940.00  z"/>
<path id="N" d="M 40939406.00 30814658.00 L 40585076.00 30814658.00 L 40585076.00 30932768.00 L 40939406.00 30932768.00 L 40939406.00 30814658.00  z"/>
<path id="N" d="M 40939406.00 22153240.00 L 40585076.00 22153240.00 L 40585076.00 22271350.00 L 40939406.00 22271350.00 L 40939406.00 22153240.00  z"/>
<path id="N" d="M 40939406.00 25105996.00 L 40585076.00 25105996.00 L 40585076.00 25224106.00 L 40939406.00 25224106.00 L 40939406.00 25105996.00  z"/>
<path id="N" d="M 40939406.00 25499696.00 L 40585076.00 25499696.00 L 40585076.00 25617806.00 L 40939406.00 25617806.00 L 40939406.00 25499696.00  z"/>
<path id="N" d="M 40939406.00 25302846.00 L 40585076.00 25302846.00 L 40585076.00 25420956.00 L 40939406.00 25420956.00 L 40939406.00 25302846.00  z"/>
<path id="N" d="M 40939406.00 31011508.00 L 40585076.00 31011508.00 L 40585076.00 31129618.00 L 40939406.00 31129618.00 L 40939406.00 31011508.00  z"/>
<path id="N" d="M 40939406.00 28255602.00 L 40585076.00 28255602.00 L 40585076.00 28373712.00 L 40939406.00 28373712.00 L 40939406.00 28255602.00  z"/>
<path id="N" d="M 40939406.00 31208358.00 L 40585076.00 31208358.00 L 40585076.00 31326468.00 L 40939406.00 31326468.00 L 40939406.00 31208358.00  z"/>
<path id="N" d="M 40939406.00 27861902.00 L 40585076.00 27861902.00 L 40585076.00 27980012.00 L 40939406.00 27980012.00 L 40939406.00 27861902.00  z"/>
<path id="N" d="M 40939406.00 28058752.00 L 40585076.00 28058752.00 L 40585076.00 28176862.00 L 40939406.00 28176862.00 L 40939406.00 28058752.00  z"/>
<path id="N" d="M 35955512.00 53418504.00 L 35565748.00 53418504.00 L 35565748.00 53536614.00 L 35955512.00 53536614.00 L 35955512.00 53418504.00  z"/>
<path id="N" d="M 9369721.00 32239854.00 L 9054761.00 32239854.00 L 9054761.00 32554814.00 L 9369721.00 32554814.00 L 9369721.00 32239854.00  z"/>
<path id="N" d="M 9861847.00 32239854.00 L 9546887.00 32239854.00 L 9546887.00 32554814.00 L 9861847.00 32554814.00 L 9861847.00 32239854.00  z"/>
<path id="N" d="M 9369721.00 31747728.00 L 9054761.00 31747728.00 L 9054761.00 32062688.00 L 9369721.00 32062688.00 L 9369721.00 31747728.00  z"/>
<path id="N" d="M 76604724.00 53043701.00 L 76250394.00 53043701.00 L 76250394.00 53338977.00 L 76604724.00 53338977.00 L 76604724.00 53043701.00  z"/>
<path id="N" d="M 19637438.00 35977256.00 L 19283108.00 35977256.00 L 19283108.00 36292216.00 L 19637438.00 36292216.00 L 19637438.00 35977256.00  z"/>
<path id="N" d="M 18694525.00 34316626.00 L 18241769.00 34316626.00 L 18241769.00 34552846.00 L 18694525.00 34552846.00 L 18694525.00 34316626.00  z"/>
<path id="N" d="M 84504724.00 53516141.00 L 84150394.00 53516141.00 L 84150394.00 53811417.00 L 84504724.00 53811417.00 L 84504724.00 53516141.00  z"/>
<path id="N" d="M 9861847.00 31747728.00 L 9546887.00 31747728.00 L 9546887.00 32062688.00 L 9861847.00 32062688.00 L 9861847.00 31747728.00  z"/>
<path id="N" d="M 74980314.00 53527953.00 L 74842520.00 53527953.00 L 74842520.00 53862599.00 L 74980314.00 53862599.00 L 74980314.00 53527953.00  z"/>
<path id="N" d="M 73927165.00 52730709.00 L 73592519.00 52730709.00 L 73592519.00 52868503.00 L 73927165.00 52868503.00 L 73927165.00 52730709.00  z"/>
<path id="N" d="M 78138226.00 53425681.00 L 77748462.00 53425681.00 L 77748462.00 53543791.00 L 78138226.00 53543791.00 L 78138226.00 53425681.00  z"/>
<path id="N" d="M 21367753.00 32727256.00 L 21052793.00 32727256.00 L 21052793.00 33042216.00 L 21367753.00 33042216.00 L 21367753.00 32727256.00  z"/>
<path id="N" d="M 9369721.00 32731980.00 L 9054761.00 32731980.00 L 9054761.00 33046940.00 L 9369721.00 33046940.00 L 9369721.00 32731980.00  z"/>
<path id="N" d="M 9861847.00 32731980.00 L 9546887.00 32731980.00 L 9546887.00 33046940.00 L 9861847.00 33046940.00 L 9861847.00 32731980.00  z"/>
<path id="N" d="M 8877595.00 32731980.00 L 8562635.00 32731980.00 L 8562635.00 33046940.00 L 8877595.00 33046940.00 L 8877595.00 32731980.00  z"/>
<path id="N" d="M 17787438.00 34172532.00 L 17433108.00 34172532.00 L 17433108.00 34487492.00 L 17787438.00 34487492.00 L 17787438.00 34172532.00  z"/>
<path id="N" d="M 55581128.00 68278321.00 L 55105382.00 68278321.00 L 55105382.00 68676797.00 L 55581128.00 68676797.00 L 55581128.00 68278321.00  z"/>
<path id="N" d="M 51681128.00 68278321.00 L 51205382.00 68278321.00 L 51205382.00 68676797.00 L 51681128.00 68676797.00 L 51681128.00 68278321.00  z"/>
<path id="N" d="M 16859511.00 34246863.00 L 16461035.00 34246863.00 L 16461035.00 34722609.00 L 16859511.00 34722609.00 L 16859511.00 34246863.00  z"/>
<path id="N" d="M 61899737.00 48428321.00 L 61423991.00 48428321.00 L 61423991.00 48826797.00 L 61899737.00 48826797.00 L 61899737.00 48428321.00  z"/>
<path id="N" d="M 8155548.00 6558359.00 L 7564998.00 6558359.00 L 7564998.00 6912689.00 L 8155548.00 6912689.00 L 8155548.00 6558359.00  z"/>
<path id="N" d="M 30484682.00 27108359.00 L 29894132.00 27108359.00 L 29894132.00 27462689.00 L 30484682.00 27462689.00 L 30484682.00 27108359.00  z"/>
<path id="N" d="M 21463842.00 35435498.00 L 20988096.00 35435498.00 L 20988096.00 35833974.00 L 21463842.00 35833974.00 L 21463842.00 35435498.00  z"/>
<path id="N" d="M 60181128.00 68278321.00 L 59705382.00 68278321.00 L 59705382.00 68676797.00 L 60181128.00 68676797.00 L 60181128.00 68278321.00  z"/>
<path id="N" d="M 59314567.00 52994488.00 L 58940551.00 52994488.00 L 58940551.00 53329134.00 L 59314567.00 53329134.00 L 59314567.00 52994488.00  z"/>
<path id="N" d="M 93046500.00 53545610.00 L 92708618.00 53545610.00 L 92708618.00 53882720.00 L 93046500.00 53882720.00 L 93046500.00 53545610.00  z"/>
<path id="N" d="M 69780315.00 68350394.00 L 69465355.00 68350394.00 L 69465355.00 68704724.00 L 69780315.00 68704724.00 L 69780315.00 68350394.00  z"/>
<path id="N" d="M 65114567.00 52994488.00 L 64740551.00 52994488.00 L 64740551.00 53329134.00 L 65114567.00 53329134.00 L 65114567.00 52994488.00  z"/>
<path id="N" d="M 47481128.00 53328321.00 L 47141706.00 53328321.00 L 47141706.00 53726797.00 L 47481128.00 53726797.00 L 47481128.00 53328321.00  z"/>
<path id="N" d="M 59663412.00 48428321.00 L 59323990.00 48428321.00 L 59323990.00 48826797.00 L 59663412.00 48826797.00 L 59663412.00 48428321.00  z"/>
<path id="N" d="M 91731128.00 53328321.00 L 91391706.00 53328321.00 L 91391706.00 53726797.00 L 91731128.00 53726797.00 L 91731128.00 53328321.00  z"/>
<path id="N" d="M 34334682.00 21258359.00 L 33744132.00 21258359.00 L 33744132.00 21612689.00 L 34334682.00 21612689.00 L 34334682.00 21258359.00  z"/>
<path id="N" d="M 61565748.00 68042914.00 L 61250788.00 68042914.00 L 61250788.00 68712204.00 L 61565748.00 68712204.00 L 61565748.00 68042914.00  z"/>
<path id="N" d="M 56965748.00 68042914.00 L 56650788.00 68042914.00 L 56650788.00 68712204.00 L 56965748.00 68712204.00 L 56965748.00 68042914.00  z"/>
<path id="N" d="M 49787401.00 67050788.00 L 49196851.00 67050788.00 L 49196851.00 67405118.00 L 49787401.00 67405118.00 L 49787401.00 67050788.00  z"/>
<path id="N" d="M 74950787.00 52504331.00 L 74104331.00 52504331.00 L 74104331.00 53350787.00 L 74950787.00 53350787.00 L 74950787.00 52504331.00  z"/>
<path id="N" d="M 7137438.00 29249697.00 L 6783108.00 29249697.00 L 6783108.00 29840247.00 L 7137438.00 29840247.00 L 7137438.00 29249697.00  z"/>
<path id="N" d="M 32870115.00 30107965.00 L 32279565.00 30107965.00 L 32279565.00 30462295.00 L 32870115.00 30462295.00 L 32870115.00 30107965.00  z"/>
<path id="N" d="M 28020115.00 6707965.00 L 27429565.00 6707965.00 L 27429565.00 7062295.00 L 28020115.00 7062295.00 L 28020115.00 6707965.00  z"/>
<path id="N" d="M 23320115.00 7207965.00 L 22729565.00 7207965.00 L 22729565.00 7562295.00 L 23320115.00 7562295.00 L 23320115.00 7207965.00  z"/>
<path id="N" d="M 24070115.00 29957965.00 L 23479565.00 29957965.00 L 23479565.00 30312295.00 L 24070115.00 30312295.00 L 24070115.00 29957965.00  z"/>
<path id="N" d="M 17270115.00 6557965.00 L 16679565.00 6557965.00 L 16679565.00 6912295.00 L 17270115.00 6912295.00 L 17270115.00 6557965.00  z"/>
<path id="N" d="M 13234682.00 6357571.00 L 12644132.00 6357571.00 L 12644132.00 6711901.00 L 13234682.00 6711901.00 L 13234682.00 6357571.00  z"/>
<path id="N" d="M 7137438.00 36139461.00 L 6783108.00 36139461.00 L 6783108.00 36730011.00 L 7137438.00 36730011.00 L 7137438.00 36139461.00  z"/>
<path id="N" d="M 73124409.00 64830709.00 L 72730709.00 64830709.00 L 72730709.00 65224409.00 L 73124409.00 65224409.00 L 73124409.00 64830709.00  zM 72927561.46 65027551.27 m -120431.73 0 a 120431.73 120431.73 0 1 1 240863.46 0a 120431.73 120431.73 0 1 1 -240863.46 0"/>
<path id="N" d="M 70927559.00 67802559.00 L 70927559.00 67652559.00 L 70527559.00 67652559.00 L 70527559.00 67802559.00 L 70727559.00 68002559.00 L 70927559.00 67802559.00  z"/>
<path id="N" d="M 8155548.00 7857571.00 L 7564998.00 7857571.00 L 7564998.00 8211901.00 L 8155548.00 8211901.00 L 8155548.00 7857571.00  z"/>
<path id="N" d="M 15340981.00 6557965.00 L 14750431.00 6557965.00 L 14750431.00 6912295.00 L 15340981.00 6912295.00 L 15340981.00 6557965.00  z"/>
<path id="N" d="M 72927556.94 67027556.94 m -200709.51 0 a 200709.51 200709.51 0 1 1 401419.02 0a 200709.51 200709.51 0 1 1 -401419.02 0M 72927561.46 67027551.27 m -120431.73 0 a 120431.73 120431.73 0 1 1 240863.46 0a 120431.73 120431.73 0 1 1 -240863.46 0"/>
<path id="N" d="M 9137438.00 29249697.00 L 8783108.00 29249697.00 L 8783108.00 29840247.00 L 9137438.00 29840247.00 L 9137438.00 29249697.00  z"/>
<path id="N" d="M 13137438.00 29249697.00 L 12783108.00 29249697.00 L 12783108.00 29840247.00 L 13137438.00 29840247.00 L 13137438.00 29249697.00  z"/>
<path id="N" d="M 36589370.00 53221654.00 L 36199606.00 53221654.00 L 36199606.00 53339764.00 L 36589370.00 53339764.00 L 36589370.00 53221654.00  z"/>
<path id="N" d="M 75462599.00 52986615.00 L 75127953.00 52986615.00 L 75127953.00 53124409.00 L 75462599.00 53124409.00 L 75462599.00 52986615.00  z"/>
<path id="N" d="M 52435039.00 53365355.00 L 52120079.00 53365355.00 L 52120079.00 53680315.00 L 52435039.00 53680315.00 L 52435039.00 53365355.00  z"/>
<path id="N" d="M 40164567.00 53516142.00 L 39790551.00 53516142.00 L 39790551.00 53831102.00 L 40164567.00 53831102.00 L 40164567.00 53516142.00  z"/>
<path id="N" d="M 40939406.00 28846154.00 L 40585076.00 28846154.00 L 40585076.00 28964264.00 L 40939406.00 28964264.00 L 40939406.00 28846154.00  z"/>
<path id="N" d="M 69470234.00 53388163.00 L 69093658.00 53388163.00 L 69093658.00 53766955.00 L 69470234.00 53766955.00 L 69470234.00 53388163.00  z"/>
<path id="N" d="M 59314567.00 53525984.00 L 58940551.00 53525984.00 L 58940551.00 53860630.00 L 59314567.00 53860630.00 L 59314567.00 53525984.00  z"/>
<path id="N" d="M 74724409.00 51992519.00 L 74586615.00 51992519.00 L 74586615.00 52327165.00 L 74724409.00 52327165.00 L 74724409.00 51992519.00  z"/>
<path id="N" d="M 24070115.00 31257177.00 L 23479565.00 31257177.00 L 23479565.00 31611507.00 L 24070115.00 31611507.00 L 24070115.00 31257177.00  z"/>
<path id="N" d="M 30940981.00 30107965.00 L 30350431.00 30107965.00 L 30350431.00 30462295.00 L 30940981.00 30462295.00 L 30940981.00 30107965.00  z"/>
<path id="N" d="M 40939406.00 23137492.00 L 40585076.00 23137492.00 L 40585076.00 23255602.00 L 40939406.00 23255602.00 L 40939406.00 23137492.00  z"/>
<path id="N" d="M 83181102.00 53440551.00 L 82866142.00 53440551.00 L 82866142.00 53814567.00 L 83181102.00 53814567.00 L 83181102.00 53440551.00  z"/>
<path id="N" d="M 45401968.00 68329134.00 L 45008268.00 68329134.00 L 45008268.00 68525984.00 L 45401968.00 68525984.00 L 45401968.00 68329134.00  z"/>
<path id="N" d="M 42649999.00 68454725.00 L 42453149.00 68454725.00 L 42453149.00 68612205.00 L 42649999.00 68612205.00 L 42649999.00 68454725.00  z"/>
<path id="N" d="M 54949737.00 68278321.00 L 54473991.00 68278321.00 L 54473991.00 68676797.00 L 54949737.00 68676797.00 L 54949737.00 68278321.00  z"/>
<path id="N" d="M 58304330.00 68042914.00 L 57989370.00 68042914.00 L 57989370.00 68712204.00 L 58304330.00 68712204.00 L 58304330.00 68042914.00  z"/>
<path id="N" d="M 13637438.00 36139461.00 L 13283108.00 36139461.00 L 13283108.00 36730011.00 L 13637438.00 36730011.00 L 13637438.00 36139461.00  z"/>
<path id="N" d="M 42649999.00 68198819.00 L 42453149.00 68198819.00 L 42453149.00 68356299.00 L 42649999.00 68356299.00 L 42649999.00 68198819.00  z"/>
<path id="N" d="M 42459879.00 65897728.00 L 42144919.00 65897728.00 L 42144919.00 66271744.00 L 42459879.00 66271744.00 L 42459879.00 65897728.00  z"/>
<path id="N" d="M 12637438.00 29249697.00 L 12283108.00 29249697.00 L 12283108.00 29840247.00 L 12637438.00 29840247.00 L 12637438.00 29249697.00  z"/>
<path id="N" d="M 12137438.00 36139461.00 L 11783108.00 36139461.00 L 11783108.00 36730011.00 L 12137438.00 36730011.00 L 12137438.00 36139461.00  z"/>
<path id="N" d="M 34334682.00 22557571.00 L 33744132.00 22557571.00 L 33744132.00 22911901.00 L 34334682.00 22911901.00 L 34334682.00 22557571.00  z"/>
<path id="N" d="M 75462599.00 53242520.00 L 75127953.00 53242520.00 L 75127953.00 53380314.00 L 75462599.00 53380314.00 L 75462599.00 53242520.00  z"/>
<path id="N" d="M 49787401.00 68350000.00 L 49196851.00 68350000.00 L 49196851.00 68704330.00 L 49787401.00 68704330.00 L 49787401.00 68350000.00  z"/>
<path id="N" d="M 53481102.00 68390551.00 L 53166142.00 68390551.00 L 53166142.00 68764567.00 L 53481102.00 68764567.00 L 53481102.00 68390551.00  z"/>
<path id="N" d="M 46346850.00 68329134.00 L 45953150.00 68329134.00 L 45953150.00 68525984.00 L 46346850.00 68525984.00 L 46346850.00 68329134.00  z"/>
<path id="N" d="M 65227560.07 66546063.01 m -277967.15 0 a 277967.15 277967.15 0 1 1 555934.30 0a 277967.15 277967.15 0 1 1 -555934.30 0M 65227559.44 66546061.65 m -180637.35 0 a 180637.35 180637.35 0 1 1 361274.69 0a 180637.35 180637.35 0 1 1 -361274.69 0"/>
<path id="N" d="M 10637438.00 36139461.00 L 10283108.00 36139461.00 L 10283108.00 36730011.00 L 10637438.00 36730011.00 L 10637438.00 36139461.00  z"/>
<path id="N" d="M 72927556.94 66027556.94 m -200709.51 0 a 200709.51 200709.51 0 1 1 401419.02 0a 200709.51 200709.51 0 1 1 -401419.02 0M 72927561.46 66027551.27 m -120431.73 0 a 120431.73 120431.73 0 1 1 240863.46 0a 120431.73 120431.73 0 1 1 -240863.46 0"/>
<path id="N" d="M 10137438.00 29249697.00 L 9783108.00 29249697.00 L 9783108.00 29840247.00 L 10137438.00 29840247.00 L 10137438.00 29249697.00  z"/>
<path id="N" d="M 67470234.00 53388163.00 L 67093658.00 53388163.00 L 67093658.00 53766955.00 L 67470234.00 53766955.00 L 67470234.00 53388163.00  z"/>
<path id="N" d="M 65114567.00 53525984.00 L 64740551.00 53525984.00 L 64740551.00 53860630.00 L 65114567.00 53860630.00 L 65114567.00 53525984.00  z"/>
<path id="N" d="M 74468503.00 51992519.00 L 74330709.00 51992519.00 L 74330709.00 52327165.00 L 74468503.00 52327165.00 L 74468503.00 51992519.00  z"/>
<path id="N" d="M 72927556.94 68027556.94 m -200709.51 0 a 200709.51 200709.51 0 1 1 401419.02 0a 200709.51 200709.51 0 1 1 -401419.02 0M 72927561.46 68027551.27 m -120431.73 0 a 120431.73 120431.73 0 1 1 240863.46 0a 120431.73 120431.73 0 1 1 -240863.46 0"/>
<path id="N" d="M 8637438.00 29249697.00 L 8283108.00 29249697.00 L 8283108.00 29840247.00 L 8637438.00 29840247.00 L 8637438.00 29249697.00  z"/>
<path id="N" d="M 20777201.00 32727256.00 L 20462241.00 32727256.00 L 20462241.00 33042216.00 L 20777201.00 33042216.00 L 20777201.00 32727256.00  z"/>
<path id="N" d="M 20773521.00 33435498.00 L 20356705.00 33435498.00 L 20356705.00 33833974.00 L 20773521.00 33833974.00 L 20773521.00 33435498.00  z"/>
<path id="N" d="M 39409395.00 38943238.00 L 39452537.00 38932744.00 L 39488100.00 38916420.00 L 39510837.00 38900096.00 L 39529493.00 38880274.00 L 39553396.00 38840047.00 L 39566805.00 38802152.00 L 39572635.00 38771253.00 L 39574967.00 38732192.00 L 39570303.00 38691382.00 L 39562141.00 38655236.00 L 39546400.00 38617341.00 L 39530659.00 38593438.00 L 39516084.00 38577114.00 L 39484019.00 38554960.00 L 39451954.00 38540385.00 L 39411144.00 38529891.00 L 39379662.00 38527559.00 L 39348763.00 38530474.00 L 39305621.00 38540968.00 L 39269475.00 38556709.00 L 39258398.00 38564288.00 L 39236244.00 38582944.00 L 39215256.00 38612677.00 L 39200681.00 38643576.00 L 39188438.00 38683803.00 L 39184357.00 38716451.00 L 39184357.00 38749682.00 L 39191353.00 38803901.00 L 39201847.00 38837715.00 L 39217005.00 38865116.00 L 39239159.00 38893100.00 L 39271224.00 38919335.00 L 39293378.00 38930412.00 L 39329524.00 38940906.00 L 39361006.00 38945570.00 L 39409395.00 38943238.00  zM 39350512.00 38872695.00 L 39330690.00 38865699.00 L 39303872.00 38848209.00 L 39291046.00 38831302.00 L 39277054.00 38800986.00 L 39270641.00 38772419.00 L 39267726.00 38730443.00 L 39275305.00 38680888.00 L 39284633.00 38655236.00 L 39293961.00 38639495.00 L 39307953.00 38624337.00 L 39332439.00 38608013.00 L 39354010.00 38600434.00 L 39384326.00 38596936.00 L 39407646.00 38601600.00 L 39433881.00 38611511.00 L 39453703.00 38625503.00 L 39467112.00 38642410.00 L 39481104.00 38673309.00 L 39488100.00 38701876.00 L 39491015.00 38738605.00 L 39489266.00 38761925.00 L 39483436.00 38793990.00 L 39474691.00 38820225.00 L 39459533.00 38842962.00 L 39438545.00 38859869.00 L 39405897.00 38873861.00 L 39379662.00 38876776.00 L 39350512.00 38872695.00  z"/>
<path id="N" d="M 39809333.00 38937991.00 L 39861803.00 38933327.00 L 39886872.00 38923999.00 L 39905528.00 38911756.00 L 39924184.00 38891934.00 L 39934095.00 38876193.00 L 39944589.00 38847043.00 L 39948087.00 38813812.00 L 39946338.00 38792824.00 L 39938759.00 38761342.00 L 39928848.00 38742686.00 L 39907277.00 38717617.00 L 39886872.00 38704208.00 L 39857722.00 38692548.00 L 39817495.00 38688467.00 L 39720717.00 38687301.00 L 39720717.00 38535138.00 L 39639097.00 38535138.00 L 39639097.00 38938574.00 L 39809333.00 38937991.00  zM 39720717.00 38870363.00 L 39720717.00 38755512.00 L 39791260.00 38756095.00 L 39825657.00 38760176.00 L 39842564.00 38768921.00 L 39855390.00 38781747.00 A 56356.33 56356.33 0 0 1 39805252.00 38869197.00 L 39720717.00 38870363.00  z"/>
<path id="N" d="M 9451915.16 32154278.16 m -120412.98 0 a 120412.98 120412.98 0 1 1 240825.96 0a 120412.98 120412.98 0 1 1 -240825.96 0"/>
<path id="N" d="M 9457451.16 32637638.16 m -120412.98 0 a 120412.98 120412.98 0 1 1 240825.96 0a 120412.98 120412.98 0 1 1 -240825.96 0"/>
<path id="N" d="M 39147628.00 38870363.00 L 39028696.00 38870363.00 L 39028696.00 38535138.00 L 38947076.00 38535138.00 L 38947076.00 38870363.00 L 38827561.00 38870363.00 L 38827561.00 38938574.00 L 39147628.00 38938574.00 L 39147628.00 38870363.00  z"/>
<path id="N" d="M 19678777.00 33942610.00 L 19226021.00 33942610.00 L 19226021.00 34178830.00 L 19678777.00 34178830.00 L 19678777.00 33942610.00  z"/>
<path id="N" d="M 73927165.00 52474804.00 L 73592519.00 52474804.00 L 73592519.00 52612598.00 L 73927165.00 52612598.00 L 73927165.00 52474804.00  z"/>
<path id="N" d="M 40939406.00 23334342.00 L 40585076.00 23334342.00 L 40585076.00 23452452.00 L 40939406.00 23452452.00 L 40939406.00 23334342.00  z"/>
<path id="N" d="M 10137438.00 36139461.00 L 9783108.00 36139461.00 L 9783108.00 36730011.00 L 10137438.00 36730011.00 L 10137438.00 36139461.00  z"/>
<path id="N" d="M 47858267.00 67050788.00 L 47267717.00 67050788.00 L 47267717.00 67405118.00 L 47858267.00 67405118.00 L 47858267.00 67050788.00  z"/>
<path id="N" d="M 11305548.00 6357571.00 L 10714998.00 6357571.00 L 10714998.00 6711901.00 L 11305548.00 6711901.00 L 11305548.00 6357571.00  z"/>
<path id="N" d="M 40939406.00 30224106.00 L 40585076.00 30224106.00 L 40585076.00 30342216.00 L 40939406.00 30342216.00 L 40939406.00 30224106.00  z"/>
<path id="N" d="M 40939406.00 29043004.00 L 40585076.00 29043004.00 L 40585076.00 29161114.00 L 40939406.00 29161114.00 L 40939406.00 29043004.00  z"/>
<path id="N" d="M 40939406.00 24515444.00 L 40585076.00 24515444.00 L 40585076.00 24633554.00 L 40939406.00 24633554.00 L 40939406.00 24515444.00  z"/>
<path id="N" d="M 40939406.00 24318594.00 L 40585076.00 24318594.00 L 40585076.00 24436704.00 L 40939406.00 24436704.00 L 40939406.00 24318594.00  z"/>
<path id="N" d="M 80988976.00 53440551.00 L 80674016.00 53440551.00 L 80674016.00 53814567.00 L 80988976.00 53814567.00 L 80988976.00 53440551.00  z"/>
<path id="N" d="M 39644515.01 8581961.86 m -297844.08 0 a 297844.08 297844.08 0 1 1 595688.15 0a 297844.08 297844.08 0 1 1 -595688.15 0M 39644525.36 8581981.47 m -200706.53 0 a 200706.53 200706.53 0 1 1 401413.05 0a 200706.53 200706.53 0 1 1 -401413.05 0"/>
<path id="N" d="M 10637438.00 29249697.00 L 10283108.00 29249697.00 L 10283108.00 29840247.00 L 10637438.00 29840247.00 L 10637438.00 29249697.00  z"/>
<path id="N" d="M 9637438.00 36139461.00 L 9283108.00 36139461.00 L 9283108.00 36730011.00 L 9637438.00 36730011.00 L 9637438.00 36139461.00  z"/>
<path id="N" d="M 44131102.00 68390551.00 L 43816142.00 68390551.00 L 43816142.00 68764567.00 L 44131102.00 68764567.00 L 44131102.00 68390551.00  z"/>
<path id="N" d="M 41901968.00 68198819.00 L 41705118.00 68198819.00 L 41705118.00 68356299.00 L 41901968.00 68356299.00 L 41901968.00 68198819.00  z"/>
<path id="N" d="M 8137438.00 29249697.00 L 7783108.00 29249697.00 L 7783108.00 29840247.00 L 8137438.00 29840247.00 L 8137438.00 29249697.00  z"/>
<path id="N" d="M 59549737.00 68278321.00 L 59073991.00 68278321.00 L 59073991.00 68676797.00 L 59549737.00 68676797.00 L 59549737.00 68278321.00  z"/>
<path id="N" d="M 74981102.00 68390551.00 L 74666142.00 68390551.00 L 74666142.00 68764567.00 L 74981102.00 68764567.00 L 74981102.00 68390551.00  z"/>
<path id="N" d="M 62904330.00 68042914.00 L 62589370.00 68042914.00 L 62589370.00 68712204.00 L 62904330.00 68712204.00 L 62904330.00 68042914.00  z"/>
<path id="N" d="M 69189763.00 68350394.00 L 68874803.00 68350394.00 L 68874803.00 68704724.00 L 69189763.00 68704724.00 L 69189763.00 68350394.00  z"/>
<path id="N" d="M 41901968.00 67942914.00 L 41705118.00 67942914.00 L 41705118.00 68100394.00 L 41901968.00 68100394.00 L 41901968.00 67942914.00  z"/>
<path id="N" d="M 37971296.00 13995367.00 L 37380746.00 13995367.00 L 37380746.00 14585917.00 L 37971296.00 14585917.00 L 37971296.00 13995367.00  zM 37676021.36 14290642.47 m -200706.53 0 a 200706.53 200706.53 0 1 1 401413.05 0a 200706.53 200706.53 0 1 1 -401413.05 0"/>
<path id="N" d="M 18871690.00 33097728.00 L 18556730.00 33097728.00 L 18556730.00 33471744.00 L 18871690.00 33471744.00 L 18871690.00 33097728.00  z"/>
<path id="N" d="M 23320115.00 8507177.00 L 22729565.00 8507177.00 L 22729565.00 8861507.00 L 23320115.00 8861507.00 L 23320115.00 8507177.00  z"/>
<path id="N" d="M 26090981.00 6707965.00 L 25500431.00 6707965.00 L 25500431.00 7062295.00 L 26090981.00 7062295.00 L 26090981.00 6707965.00  z"/>
<path id="N" d="M 78138226.00 53622531.00 L 77748462.00 53622531.00 L 77748462.00 53740641.00 L 78138226.00 53740641.00 L 78138226.00 53622531.00  z"/>
<path id="N" d="M 40939406.00 23924893.00 L 40585076.00 23924893.00 L 40585076.00 24043003.00 L 40939406.00 24043003.00 L 40939406.00 23924893.00  z"/>
<path id="N" d="M 40939406.00 23531192.00 L 40585076.00 23531192.00 L 40585076.00 23649302.00 L 40939406.00 23649302.00 L 40939406.00 23531192.00  z"/>
<path id="N" d="M 40939406.00 28452453.00 L 40585076.00 28452453.00 L 40585076.00 28570563.00 L 40939406.00 28570563.00 L 40939406.00 28452453.00  z"/>
<path id="N" d="M 40939406.00 28649303.00 L 40585076.00 28649303.00 L 40585076.00 28767413.00 L 40939406.00 28767413.00 L 40939406.00 28649303.00  z"/>
<path id="N" d="M 43149645.00 53190906.00 L 42655591.00 53190906.00 L 42655591.00 53764212.00 L 43149645.00 53764212.00 L 43149645.00 53190906.00  z"/>
<path id="N" d="M 40939406.00 30617807.00 L 40585076.00 30617807.00 L 40585076.00 30735917.00 L 40939406.00 30735917.00 L 40939406.00 30617807.00  z"/>
<path id="N" d="M 40939406.00 30420957.00 L 40585076.00 30420957.00 L 40585076.00 30539067.00 L 40939406.00 30539067.00 L 40939406.00 30420957.00  z"/>
<path id="N" d="M 32870115.00 31407177.00 L 32279565.00 31407177.00 L 32279565.00 31761507.00 L 32870115.00 31761507.00 L 32870115.00 31407177.00  z"/>
<path id="N" d="M 32405548.00 21258359.00 L 31814998.00 21258359.00 L 31814998.00 21612689.00 L 32405548.00 21612689.00 L 32405548.00 21258359.00  z"/>
<path id="N" d="M 54814567.00 53024016.00 L 54440551.00 53024016.00 L 54440551.00 53338976.00 L 54814567.00 53338976.00 L 54814567.00 53024016.00  z"/>
<path id="N" d="M 52435039.00 52774803.00 L 52120079.00 52774803.00 L 52120079.00 53089763.00 L 52435039.00 53089763.00 L 52435039.00 52774803.00  z"/>
<path id="N" d="M 78772084.00 53622531.00 L 78382320.00 53622531.00 L 78382320.00 53740641.00 L 78772084.00 53740641.00 L 78772084.00 53622531.00  z"/>
<path id="N" d="M 68061460.00 53388163.00 L 67684884.00 53388163.00 L 67684884.00 53766955.00 L 68061460.00 53766955.00 L 68061460.00 53388163.00  z"/>
<path id="N" d="M 78138226.00 53228831.00 L 77748462.00 53228831.00 L 77748462.00 53346941.00 L 78138226.00 53346941.00 L 78138226.00 53228831.00  z"/>
<path id="N" d="M 40939406.00 23728043.00 L 40585076.00 23728043.00 L 40585076.00 23846153.00 L 40939406.00 23846153.00 L 40939406.00 23728043.00  z"/>
<path id="N" d="M 40939406.00 24121744.00 L 40585076.00 24121744.00 L 40585076.00 24239854.00 L 40939406.00 24239854.00 L 40939406.00 24121744.00  z"/>
<path id="N" d="M 72927556.94 67527556.94 m -200709.51 0 a 200709.51 200709.51 0 1 1 401419.02 0a 200709.51 200709.51 0 1 1 -401419.02 0M 72927561.46 67527551.27 m -120431.73 0 a 120431.73 120431.73 0 1 1 240863.46 0a 120431.73 120431.73 0 1 1 -240863.46 0"/>
<path id="N" d="M 7637438.00 36139461.00 L 7283108.00 36139461.00 L 7283108.00 36730011.00 L 7637438.00 36730011.00 L 7637438.00 36139461.00  z"/>
<path id="N" d="M 35955512.00 53221654.00 L 35565748.00 53221654.00 L 35565748.00 53339764.00 L 35955512.00 53339764.00 L 35955512.00 53221654.00  z"/>
<path id="N" d="M 40939406.00 29436705.00 L 40585076.00 29436705.00 L 40585076.00 29554815.00 L 40939406.00 29554815.00 L 40939406.00 29436705.00  z"/>
<path id="N" d="M 40939406.00 29830406.00 L 40585076.00 29830406.00 L 40585076.00 29948516.00 L 40939406.00 29948516.00 L 40939406.00 29830406.00  z"/>
<path id="N" d="M 65227560.07 65561811.01 m -277967.15 0 a 277967.15 277967.15 0 1 1 555934.30 0a 277967.15 277967.15 0 1 1 -555934.30 0M 65227559.44 65561809.65 m -180637.35 0 a 180637.35 180637.35 0 1 1 361274.69 0a 180637.35 180637.35 0 1 1 -361274.69 0"/>
<path id="N" d="M 11137438.00 36139461.00 L 10783108.00 36139461.00 L 10783108.00 36730011.00 L 11137438.00 36730011.00 L 11137438.00 36139461.00  z"/>
<path id="N" d="M 20832451.00 35435498.00 L 20356705.00 35435498.00 L 20356705.00 35833974.00 L 20832451.00 35833974.00 L 20832451.00 35435498.00  z"/>
<path id="N" d="M 20807300.00 34398083.00 L 20313246.00 34398083.00 L 20313246.00 34971389.00 L 20807300.00 34971389.00 L 20807300.00 34398083.00  z"/>
<path id="N" d="M 19678777.00 34690642.00 L 19226021.00 34690642.00 L 19226021.00 34926862.00 L 19678777.00 34926862.00 L 19678777.00 34690642.00  z"/>
<path id="N" d="M 19637438.00 35386704.00 L 19283108.00 35386704.00 L 19283108.00 35701664.00 L 19637438.00 35701664.00 L 19637438.00 35386704.00  z"/>
<path id="N" d="M 41967753.00 65897728.00 L 41652793.00 65897728.00 L 41652793.00 66271744.00 L 41967753.00 66271744.00 L 41967753.00 65897728.00  z"/>
<path id="N" d="M 41901968.00 68454725.00 L 41705118.00 68454725.00 L 41705118.00 68612205.00 L 41901968.00 68612205.00 L 41901968.00 68454725.00  z"/>
<path id="N" d="M 74724409.00 53527953.00 L 74586615.00 53527953.00 L 74586615.00 53862599.00 L 74724409.00 53862599.00 L 74724409.00 53527953.00  z"/>
<path id="N" d="M 40939406.00 30027256.00 L 40585076.00 30027256.00 L 40585076.00 30145366.00 L 40939406.00 30145366.00 L 40939406.00 30027256.00  z"/>
<path id="N" d="M 37964567.00 53024016.00 L 37590551.00 53024016.00 L 37590551.00 53338976.00 L 37964567.00 53338976.00 L 37964567.00 53024016.00  z"/>
<path id="N" d="M 39644515.01 14290622.86 m -297844.08 0 a 297844.08 297844.08 0 1 1 595688.15 0a 297844.08 297844.08 0 1 1 -595688.15 0M 39644525.36 14290642.47 m -200706.53 0 a 200706.53 200706.53 0 1 1 401413.05 0a 200706.53 200706.53 0 1 1 -401413.05 0"/>
<path id="N" d="M 11137438.00 29249697.00 L 10783108.00 29249697.00 L 10783108.00 29840247.00 L 11137438.00 29840247.00 L 11137438.00 29249697.00  z"/>
<path id="N" d="M 74212598.00 53527953.00 L 74074804.00 53527953.00 L 74074804.00 53862599.00 L 74212598.00 53862599.00 L 74212598.00 53527953.00  z"/>
<path id="N" d="M 43638976.00 68390551.00 L 43324016.00 68390551.00 L 43324016.00 68764567.00 L 43638976.00 68764567.00 L 43638976.00 68390551.00  z"/>
<path id="N" d="M 42649999.00 67942914.00 L 42453149.00 67942914.00 L 42453149.00 68100394.00 L 42649999.00 68100394.00 L 42649999.00 67942914.00  z"/>
<path id="N" d="M 71477549.01 53627539.86 m -297844.08 0 a 297844.08 297844.08 0 1 1 595688.15 0a 297844.08 297844.08 0 1 1 -595688.15 0"/>
<path id="N" d="M 74468503.00 53527953.00 L 74330709.00 53527953.00 L 74330709.00 53862599.00 L 74468503.00 53862599.00 L 74468503.00 53527953.00  z"/>
<path id="N" d="M 9137438.00 36139461.00 L 8783108.00 36139461.00 L 8783108.00 36730011.00 L 9137438.00 36730011.00 L 9137438.00 36139461.00  z"/>
<path id="N" d="M 12637438.00 36139461.00 L 12283108.00 36139461.00 L 12283108.00 36730011.00 L 12637438.00 36730011.00 L 12637438.00 36139461.00  z"/>
<path id="N" d="M 21390981.00 7207965.00 L 20800431.00 7207965.00 L 20800431.00 7562295.00 L 21390981.00 7562295.00 L 21390981.00 7207965.00  z"/>
<path id="N" d="M 17270115.00 7857177.00 L 16679565.00 7857177.00 L 16679565.00 8211507.00 L 17270115.00 8211507.00 L 17270115.00 7857177.00  z"/>
<path id="N" d="M 40939406.00 22743791.00 L 40585076.00 22743791.00 L 40585076.00 22861901.00 L 40939406.00 22861901.00 L 40939406.00 22743791.00  z"/>
<path id="N" d="M 40939406.00 24712295.00 L 40585076.00 24712295.00 L 40585076.00 24830405.00 L 40939406.00 24830405.00 L 40939406.00 24712295.00  z"/>
<path id="N" d="M 40939406.00 22940641.00 L 40585076.00 22940641.00 L 40585076.00 23058751.00 L 40939406.00 23058751.00 L 40939406.00 22940641.00  z"/>
<path id="N" d="M 40939406.00 24909145.00 L 40585076.00 24909145.00 L 40585076.00 25027255.00 L 40939406.00 25027255.00 L 40939406.00 24909145.00  z"/>
<path id="N" d="M 87549645.00 53190906.00 L 87055591.00 53190906.00 L 87055591.00 53764212.00 L 87549645.00 53764212.00 L 87549645.00 53190906.00  z"/>
<path id="N" d="M 12137438.00 29249697.00 L 11783108.00 29249697.00 L 11783108.00 29840247.00 L 12137438.00 29840247.00 L 12137438.00 29249697.00  z"/>
<path id="N" d="M 13137438.00 36139461.00 L 12783108.00 36139461.00 L 12783108.00 36730011.00 L 13137438.00 36730011.00 L 13137438.00 36139461.00  z"/>
<path id="N" d="M 67981102.00 68390551.00 L 67666142.00 68390551.00 L 67666142.00 68764567.00 L 67981102.00 68764567.00 L 67981102.00 68390551.00  z"/>
<path id="N" d="M 11637438.00 29249697.00 L 11283108.00 29249697.00 L 11283108.00 29840247.00 L 11637438.00 29840247.00 L 11637438.00 29249697.00  z"/>
<path id="N" d="M 78772084.00 53228831.00 L 78382320.00 53228831.00 L 78382320.00 53346941.00 L 78772084.00 53346941.00 L 78772084.00 53228831.00  z"/>
<path id="N" d="M 70061460.00 53388163.00 L 69684884.00 53388163.00 L 69684884.00 53766955.00 L 70061460.00 53766955.00 L 70061460.00 53388163.00  z"/>
<path id="N" d="M 22727549.01 34727539.86 m -297844.08 0 a 297844.08 297844.08 0 1 1 595688.15 0a 297844.08 297844.08 0 1 1 -595688.15 0"/>
<path id="N" d="M 65503149.00 64301969.00 L 64951969.00 64301969.00 L 64951969.00 64853149.00 L 65503149.00 64853149.00 L 65503149.00 64301969.00  zM 65227559.44 64577557.65 m -180637.35 0 a 180637.35 180637.35 0 1 1 361274.69 0a 180637.35 180637.35 0 1 1 -361274.69 0"/>
<path id="N" d="M 70927559.00 67977559.00 L 70727559.00 68177559.00 L 70527559.00 67977559.00 L 70527559.00 68477559.00 L 70727559.00 68277559.00 L 70927559.00 68477559.00 L 70927559.00 67977559.00  z"/>
<path id="N" d="M 74488976.00 68390551.00 L 74174016.00 68390551.00 L 74174016.00 68764567.00 L 74488976.00 68764567.00 L 74488976.00 68390551.00  z"/>
<path id="N" d="M 52988976.00 68390551.00 L 52674016.00 68390551.00 L 52674016.00 68764567.00 L 52988976.00 68764567.00 L 52988976.00 68390551.00  z"/>
<path id="N" d="M 67488976.00 68390551.00 L 67174016.00 68390551.00 L 67174016.00 68764567.00 L 67488976.00 68764567.00 L 67488976.00 68390551.00  z"/>
<path id="N" d="M 19363816.00 33097728.00 L 19048856.00 33097728.00 L 19048856.00 33471744.00 L 19363816.00 33471744.00 L 19363816.00 33097728.00  z"/>
<path id="N" d="M 21463841.00 33435498.00 L 21047025.00 33435498.00 L 21047025.00 33833974.00 L 21463841.00 33833974.00 L 21463841.00 33435498.00  z"/>
<path id="N" d="M 62531128.00 48428321.00 L 62055382.00 48428321.00 L 62055382.00 48826797.00 L 62531128.00 48826797.00 L 62531128.00 48428321.00  z"/>
<path id="N" d="M 54814567.00 53516142.00 L 54440551.00 53516142.00 L 54440551.00 53831102.00 L 54814567.00 53831102.00 L 54814567.00 53516142.00  z"/>
<path id="N" d="M 60431128.00 48428321.00 L 60091706.00 48428321.00 L 60091706.00 48826797.00 L 60431128.00 48826797.00 L 60431128.00 48428321.00  z"/>
<path id="N" d="M 74980314.00 51992519.00 L 74842520.00 51992519.00 L 74842520.00 52327165.00 L 74980314.00 52327165.00 L 74980314.00 51992519.00  z"/>
<path id="N" d="M 76604724.00 53516141.00 L 76250394.00 53516141.00 L 76250394.00 53811417.00 L 76604724.00 53811417.00 L 76604724.00 53516141.00  z"/>
<path id="N" d="M 73927165.00 53242520.00 L 73592519.00 53242520.00 L 73592519.00 53380314.00 L 73927165.00 53380314.00 L 73927165.00 53242520.00  z"/>
<path id="N" d="M 75462599.00 52474804.00 L 75127953.00 52474804.00 L 75127953.00 52612598.00 L 75462599.00 52612598.00 L 75462599.00 52474804.00  z"/>
<path id="N" d="M 7637438.00 29249697.00 L 7283108.00 29249697.00 L 7283108.00 29840247.00 L 7637438.00 29840247.00 L 7637438.00 29249697.00  z"/>
<path id="N" d="M 21457418.00 34398083.00 L 20963364.00 34398083.00 L 20963364.00 34971389.00 L 21457418.00 34971389.00 L 21457418.00 34398083.00  z"/>
<path id="N" d="M 72927556.94 68527556.94 m -200709.51 0 a 200709.51 200709.51 0 1 1 401419.02 0a 200709.51 200709.51 0 1 1 -401419.02 0M 72927561.46 68527551.27 m -120431.73 0 a 120431.73 120431.73 0 1 1 240863.46 0a 120431.73 120431.73 0 1 1 -240863.46 0"/>
<path id="N" d="M 8137438.00 36139461.00 L 7783108.00 36139461.00 L 7783108.00 36730011.00 L 8137438.00 36730011.00 L 8137438.00 36139461.00  z"/>
<path id="N" d="M 56877549.01 53627539.86 m -297844.08 0 a 297844.08 297844.08 0 1 1 595688.15 0a 297844.08 297844.08 0 1 1 -595688.15 0"/>
<path id="N" d="M 73927165.00 52986615.00 L 73592519.00 52986615.00 L 73592519.00 53124409.00 L 73927165.00 53124409.00 L 73927165.00 52986615.00  z"/>
<path id="N" d="M 8637438.00 36139461.00 L 8283108.00 36139461.00 L 8283108.00 36730011.00 L 8637438.00 36730011.00 L 8637438.00 36139461.00  z"/>
<path id="N" d="M 37964567.00 53516142.00 L 37590551.00 53516142.00 L 37590551.00 53831102.00 L 37964567.00 53831102.00 L 37964567.00 53516142.00  z"/>
<path id="N" d="M 42499527.00 53190906.00 L 42005473.00 53190906.00 L 42005473.00 53764212.00 L 42499527.00 53764212.00 L 42499527.00 53190906.00  z"/>
<path id="N" d="M 45004724.00 53222835.00 L 44650394.00 53222835.00 L 44650394.00 53537795.00 L 45004724.00 53537795.00 L 45004724.00 53222835.00  z"/>
<path id="N" d="M 40164567.00 53024016.00 L 39790551.00 53024016.00 L 39790551.00 53338976.00 L 40164567.00 53338976.00 L 40164567.00 53024016.00  z"/>
<path id="N" d="M 82688976.00 53440551.00 L 82374016.00 53440551.00 L 82374016.00 53814567.00 L 82688976.00 53814567.00 L 82688976.00 53440551.00  z"/>
<path id="N" d="M 86899527.00 53190906.00 L 86405473.00 53190906.00 L 86405473.00 53764212.00 L 86899527.00 53764212.00 L 86899527.00 53190906.00  z"/>
<path id="N" d="M 89404724.00 53222835.00 L 89050394.00 53222835.00 L 89050394.00 53537795.00 L 89404724.00 53537795.00 L 89404724.00 53222835.00  z"/>
<path id="N" d="M 81481102.00 53440551.00 L 81166142.00 53440551.00 L 81166142.00 53814567.00 L 81481102.00 53814567.00 L 81481102.00 53440551.00  z"/>
<path id="N" d="M 6226414.00 6558359.00 L 5635864.00 6558359.00 L 5635864.00 6912689.00 L 6226414.00 6912689.00 L 6226414.00 6558359.00  z"/>
<path id="N" d="M 13234682.00 7656783.00 L 12644132.00 7656783.00 L 12644132.00 8011113.00 L 13234682.00 8011113.00 L 13234682.00 7656783.00  z"/>
<path id="N" d="M 30484682.00 28407571.00 L 29894132.00 28407571.00 L 29894132.00 28761901.00 L 30484682.00 28761901.00 L 30484682.00 28407571.00  z"/>
<path id="N" d="M 22140981.00 29957965.00 L 21550431.00 29957965.00 L 21550431.00 30312295.00 L 22140981.00 30312295.00 L 22140981.00 29957965.00  z"/>
</g>
</svg>
