<svg width="100.10534462mm" height="90.09266716mm" viewBox="0 0 39411553 35469554"  version="1.1" xmlns="http://www.w3.org/2000/svg" xmlns:xlink="http://www.w3.org/1999/xlink">
<desc>
Origin 5260273 5184736 Bound 3917767 3916705 39411553 35469554
</desc>
<g fill-rule="evenodd" fill="rgb(128, 128, 0)" stroke="black" stroke-width="1" transform="translate(0, 35469554) scale(1, -1) translate(-3917767, -3916705)">
<path id="N" d="M 18327441.00 14435760.00 L 18335367.00 14416626.00 L 18335366.00 14316232.00 L 18337652.00 14316232.00 A 226199.07 226199.07 0 0 0 18111456.00 14090036.00 L 18111456.00 14092322.00 L 16050432.00 14092322.00 L 16047642.06 14093477.69 A 516332.53 516332.53 0 0 1 15681529.00 13941041.00 A 521694.55 521694.55 0 0 1 15529092.31 13574927.94 L 15530248.00 13572138.00 L 15532534.00 13572138.00 A 226199.07 226199.07 0 0 0 15306338.00 13345942.00 L 15306338.00 13348228.00 L 15287204.00 13356154.00 L 15279278.00 13375288.00 L 15287204.00 13394422.00 L 15306338.00 13402019.00 A 170120.12 170120.12 0 0 1 15476128.00 13572138.00 L 15473250.00 13572138.00 A 577176.27 577176.27 0 0 0 16050432.00 14149320.00 L 16050432.00 14146442.00 L 18111992.57 14146219.73 A 169419.11 169419.11 0 0 1 18281246.00 14316232.00 L 18281247.00 14416626.00 L 18289173.00 14435760.00 L 18308307.00 14443686.00 L 18327441.00 14435760.00  z"/>
<path id="N" d="M 26322717.00 19285761.00 L 26330643.00 19266627.00 L 26330643.00 19166232.00 L 26332928.00 19166232.00 A 226199.07 226199.07 0 0 0 26106732.00 18940036.00 L 26106732.00 18942322.00 L 24045709.00 18942322.00 L 24042919.06 18943477.69 A 516325.25 516325.25 0 0 1 23676806.00 18791041.00 A 521694.55 521694.55 0 0 1 23524369.07 18424926.10 L 23525524.00 18422138.00 L 23527810.00 18422138.00 A 226199.07 226199.07 0 0 0 23301614.00 18195942.00 L 23301614.00 18198228.00 L 23282480.00 18206154.00 L 23274554.00 18225288.00 L 23282480.00 18244422.00 L 23301614.00 18252019.00 A 170120.12 170120.12 0 0 1 23471405.00 18422138.00 L 23468527.00 18422138.00 A 577176.27 577176.27 0 0 0 24045709.00 18999320.00 L 24045709.00 18996442.00 L 26107268.57 18996219.73 A 169419.11 169419.11 0 0 1 26276523.00 19166234.41 L 26276523.00 19266627.00 L 26284449.00 19285761.00 L 26303583.00 19293687.00 L 26322717.00 19285761.00  z"/>
<path id="N" d="M 10577440.00 19285760.00 L 10585366.00 19266626.00 L 10585367.00 19166232.00 L 10587652.00 19166232.00 A 226199.07 226199.07 0 0 0 10361456.00 18940036.00 L 10361456.00 18942322.00 L 8300433.00 18942322.00 L 8297643.06 18943477.69 A 516325.25 516325.25 0 0 1 7931530.00 18791041.00 A 521694.55 521694.55 0 0 1 7779093.07 18424926.10 L 7780248.00 18422138.00 L 7782534.00 18422138.00 A 226199.07 226199.07 0 0 0 7556338.00 18195942.00 L 7556338.00 18198228.00 L 7537204.00 18206154.00 L 7529278.00 18225288.00 L 7537204.00 18244422.00 L 7556338.00 18252019.00 A 170120.12 170120.12 0 0 1 7726129.00 18422138.00 L 7723251.00 18422138.00 A 577176.27 577176.27 0 0 0 8300433.00 18999320.00 L 8300433.00 18996442.00 L 10361992.57 18996219.73 A 169419.11 169419.11 0 0 1 10531247.00 19166234.41 L 10531246.00 19266626.00 L 10539172.00 19285760.00 L 10558306.00 19293686.00 L 10577440.00 19285760.00  z"/>
<path id="N" d="M 18327440.00 19285760.00 L 18335366.00 19266626.00 L 18335366.00 19166232.00 L 18337652.00 19166232.00 A 226199.07 226199.07 0 0 0 18111456.00 18940036.00 L 18111456.00 18942322.00 L 16050432.00 18942322.00 L 16047642.06 18943477.69 A 516332.53 516332.53 0 0 1 15681529.00 18791041.00 A 521694.55 521694.55 0 0 1 15529092.07 18424926.10 L 15530247.00 18422138.00 L 15532533.00 18422138.00 A 226199.07 226199.07 0 0 0 15306337.00 18195942.00 L 15306337.00 18198228.00 L 15287203.00 18206154.00 L 15279277.00 18225288.00 L 15287203.00 18244422.00 L 15306337.00 18252019.00 A 170120.12 170120.12 0 0 1 15476128.00 18422138.00 L 15473250.00 18422138.00 A 577176.27 577176.27 0 0 0 16050432.00 18999320.00 L 16050432.00 18996442.00 L 18111992.57 18996219.73 A 169419.11 169419.11 0 0 1 18281246.00 19166232.00 L 18281246.00 19266626.00 L 18289172.00 19285760.00 L 18308306.00 19293686.00 L 18327440.00 19285760.00  z"/>
<path id="N" d="M 26325079.00 14435761.00 L 26333005.00 14416627.00 L 26333005.00 14316232.00 L 26335290.00 14316232.00 A 226199.07 226199.07 0 0 0 26109094.00 14090036.00 L 26109094.00 14092322.00 L 24048070.00 14092321.00 L 24045278.47 14093477.35 A 516320.25 516320.25 0 0 1 23679168.00 13941041.00 A 521694.55 521694.55 0 0 1 23526731.07 13574926.10 L 23527886.00 13572138.00 L 23530172.00 13572138.00 A 226199.07 226199.07 0 0 0 23303976.00 13345942.00 L 23303976.00 13348228.00 L 23284842.00 13356154.00 L 23276916.00 13375288.00 L 23284842.00 13394422.00 L 23303976.00 13402019.00 A 170120.12 170120.12 0 0 1 23473767.00 13572138.00 L 23470889.00 13572138.00 A 577176.27 577176.27 0 0 0 24048071.00 14149320.00 L 24048073.41 14146441.00 L 26109630.57 14146219.73 A 169419.11 169419.11 0 0 1 26278885.00 14316234.41 L 26278885.00 14416627.00 L 26286811.00 14435761.00 L 26305945.00 14443687.00 L 26325079.00 14435761.00  z"/>
<path id="N" d="M 10575078.00 14435761.00 L 10583004.00 14416627.00 L 10583004.00 14316232.00 L 10585290.00 14316232.00 A 226199.07 226199.07 0 0 0 10359094.00 14090036.00 L 10359094.00 14092322.00 L 8298070.00 14092321.00 L 8295278.47 14093477.35 A 516320.25 516320.25 0 0 1 7929168.00 13941041.00 A 521694.55 521694.55 0 0 1 7776731.07 13574926.10 L 7777886.00 13572138.00 L 7780172.00 13572138.00 A 226199.07 226199.07 0 0 0 7553976.00 13345942.00 L 7553976.00 13348228.00 L 7534842.00 13356154.00 L 7526916.00 13375288.00 L 7534842.00 13394422.00 L 7553976.00 13402019.00 A 170120.12 170120.12 0 0 1 7723767.00 13572138.00 L 7720889.00 13572138.00 A 577176.27 577176.27 0 0 0 8298071.00 14149320.00 L 8298073.41 14146441.00 L 10359631.24 14146219.87 A 169418.23 169418.23 0 0 1 10528884.00 14316232.00 L 10528884.00 14416627.00 L 10536810.00 14435761.00 L 10555944.00 14443687.00 L 10575078.00 14435761.00  z"/>
<path id="N" d="M 24814427.00 16934639.00 L 24814427.00 16634736.00 L 24809606.10 16623096.92 L 24808713.00 16610533.00 L 24801985.24 16604697.92 L 24798576.00 16596467.00 L 24786936.49 16591645.92 L 24777421.00 16583393.00 L 24768536.29 16584024.57 L 24760307.00 16580616.00 L 24748667.92 16585436.90 L 24736104.00 16586330.00 L 24547595.06 16680584.00 L 24482822.00 16680584.00 L 24414556.00 16612318.00 L 24414556.00 16457219.00 L 24482822.00 16388953.00 L 24637921.00 16388953.00 L 24722038.00 16473070.00 A 54121.84 54121.84 0 1 0 24798576.00 16396532.00 L 24698608.00 16296564.00 L 24660336.59 16280713.00 L 24460404.00 16280713.00 L 24422135.00 16296564.00 L 24322167.00 16396532.00 L 24306316.00 16434803.41 L 24306316.00 16634736.00 L 24322167.00 16673005.00 L 24422135.00 16772973.00 L 24460406.41 16788824.00 L 24560372.00 16788824.00 L 24572010.93 16784003.16 L 24584576.00 16783110.00 L 24706187.00 16722303.89 L 24706187.00 16880519.00 L 24360436.00 16880519.00 A 54118.70 54118.70 0 0 0 24360436.00 16988759.00 L 24760307.00 16988759.00 L 24798576.00 16972908.00 L 24814427.00 16934639.00  z"/>
<path id="N" d="M 13366789.00 21484639.00 L 13366789.00 21184736.00 L 13361968.10 21173096.92 L 13361075.00 21160533.00 L 13354347.24 21154697.92 L 13350938.00 21146467.00 L 13339298.49 21141645.92 L 13329783.00 21133393.00 L 13320898.29 21134024.57 L 13312669.00 21130616.00 L 13301029.92 21135436.90 L 13288466.00 21136330.00 L 13099957.06 21230584.00 L 13035184.00 21230584.00 L 12966918.00 21162318.00 L 12966918.00 21007219.00 L 13035184.00 20938953.00 L 13190283.00 20938953.00 L 13274400.00 21023070.00 A 54121.84 54121.84 0 1 0 13350938.00 20946532.00 L 13250970.00 20846564.00 L 13212698.59 20830713.00 L 13012766.00 20830713.00 L 12974497.00 20846564.00 L 12874529.00 20946532.00 L 12858678.00 20984803.41 L 12858678.00 21184736.00 L 12874529.00 21223005.00 L 12974497.00 21322973.00 L 13012768.41 21338824.00 L 13112734.00 21338824.00 L 13124372.93 21334003.16 L 13136938.00 21333110.00 L 13258549.00 21272303.89 L 13258549.00 21430519.00 L 12912798.00 21430519.00 A 54118.70 54118.70 0 0 0 12912798.00 21538759.00 L 13312669.00 21538759.00 L 13350938.00 21522908.00 L 13366789.00 21484639.00  z"/>
<path id="N" d="M 10287965.41 17888759.00 L 10487898.00 17888759.00 L 10526167.00 17872908.00 L 10626135.00 17772940.00 A 54119.43 54119.43 0 0 0 10549597.00 17696402.00 L 10465480.00 17780519.00 L 10310381.00 17780519.00 L 10242115.00 17712253.00 L 10242115.00 17657122.00 L 10310381.00 17588856.00 L 10387931.00 17588856.00 A 54118.70 54118.70 0 0 0 10387931.00 17480616.00 L 10310381.00 17480616.00 L 10242115.00 17412350.00 L 10242115.00 17357219.00 L 10310381.00 17288953.00 L 10465480.00 17288953.00 L 10549597.00 17373070.00 A 54121.84 54121.84 0 0 0 10626135.00 17296532.00 L 10526167.00 17196564.00 L 10487895.59 17180713.00 L 10287963.00 17180713.00 L 10249694.00 17196564.00 L 10149726.00 17296532.00 L 10133875.00 17334803.41 L 10133875.00 17434768.00 L 10149726.00 17473037.00 L 10211425.00 17534736.00 L 10149726.00 17596435.00 L 10133875.00 17634706.41 L 10133875.00 17734671.00 L 10149726.00 17772940.00 L 10249694.00 17872908.00 L 10287965.41 17888759.00  z"/>
<path id="N" d="M 21660406.41 16688759.00 L 21860339.00 16688759.00 L 21898608.00 16672908.00 L 21998576.00 16572940.00 A 54119.43 54119.43 0 0 0 21922038.00 16496402.00 L 21837921.00 16580519.00 L 21682822.00 16580519.00 L 21614556.00 16512253.00 L 21614556.00 16457122.00 L 21682822.00 16388856.00 L 21760372.00 16388856.00 A 54118.70 54118.70 0 0 0 21760372.00 16280616.00 L 21682822.00 16280616.00 L 21614556.00 16212350.00 L 21614556.00 16157219.00 L 21682822.00 16088953.00 L 21837921.00 16088953.00 L 21922038.00 16173070.00 A 54121.84 54121.84 0 0 0 21998576.00 16096532.00 L 21898608.00 15996564.00 L 21860336.59 15980713.00 L 21660404.00 15980713.00 L 21622135.00 15996564.00 L 21522167.00 16096532.00 L 21506316.00 16134803.41 L 21506316.00 16234768.00 L 21522167.00 16273037.00 L 21583866.00 16334736.00 L 21522167.00 16396435.00 L 21506316.00 16434706.41 L 21506316.00 16534671.00 L 21522167.00 16572940.00 L 21622135.00 16672908.00 L 21660406.41 16688759.00  z"/>
<path id="N" d="M 25760406.41 22688759.00 L 25960339.00 22688759.00 L 25998608.00 22672908.00 L 26098576.00 22572940.00 L 26114427.00 22534668.59 L 26114427.00 22434704.00 L 26098576.00 22396435.00 L 26036877.00 22334736.00 L 26098576.00 22273037.00 L 26114427.00 22234765.59 L 26114427.00 22134801.00 L 26098576.00 22096532.00 L 25998608.00 21996564.00 L 25960336.59 21980713.00 L 25760404.00 21980713.00 L 25722135.00 21996564.00 L 25622167.00 22096532.00 L 25606316.00 22134803.41 L 25606316.00 22234768.00 L 25622167.00 22273037.00 L 25683866.00 22334736.00 L 25622167.00 22396435.00 L 25606316.00 22434706.41 L 25606316.00 22534671.00 L 25622167.00 22572940.00 L 25722135.00 22672908.00 L 25760406.41 22688759.00  zM 25937921.00 22280616.00 L 25782822.00 22280616.00 L 25714556.00 22212350.00 L 25714556.00 22157219.00 L 25782822.00 22088953.00 L 25937921.00 22088953.00 L 26006187.00 22157219.00 L 26006187.00 22212350.00 L 25937921.00 22280616.00  zM 25937921.00 22580519.00 L 25782822.00 22580519.00 L 25714556.00 22512253.00 L 25714556.00 22457122.00 L 25782822.00 22388856.00 L 25937921.00 22388856.00 L 26006187.00 22457122.00 L 26006187.00 22512253.00 L 25937921.00 22580519.00  z"/>
<path id="N" d="M 6050776.00 21472908.00 L 6150744.00 21372940.00 L 6166595.00 21334671.00 L 6166596.00 21234704.00 L 6150744.00 21196435.00 L 6050776.00 21096467.00 L 6012507.00 21080616.00 L 5834990.00 21080616.00 L 5766724.00 21012350.00 L 5766724.00 20957219.00 L 5834990.00 20888953.00 L 5990089.00 20888953.00 L 6074206.00 20973070.00 A 54121.84 54121.84 0 0 0 6150744.00 20896532.00 L 6050776.00 20796564.00 L 6012504.59 20780713.00 L 5812572.00 20780713.00 L 5774303.00 20796564.00 L 5674335.00 20896532.00 L 5658484.00 20934803.41 L 5658484.00 21034768.00 L 5674335.00 21073037.00 L 5774303.00 21173005.00 L 5812574.41 21188856.00 L 5990089.00 21188856.00 L 6058355.00 21257122.00 L 6058355.00 21312253.00 L 5990089.00 21380519.00 L 5834990.00 21380519.00 L 5750873.00 21296402.00 A 54119.43 54119.43 0 0 0 5674335.00 21372940.00 L 5774303.00 21472908.00 L 5812572.00 21488759.00 L 6012507.00 21488760.00 L 6050776.00 21472908.00  z"/>
<path id="N" d="M 21848414.00 21472908.00 L 21948382.00 21372940.00 L 21964233.00 21334671.00 L 21964234.00 21234704.00 L 21948382.00 21196435.00 L 21848414.00 21096467.00 L 21810145.00 21080616.00 L 21632628.00 21080616.00 L 21564362.00 21012350.00 L 21564362.00 20957219.00 L 21632628.00 20888953.00 L 21787727.00 20888953.00 L 21871844.00 20973070.00 A 54121.84 54121.84 0 0 0 21948382.00 20896532.00 L 21848414.00 20796564.00 L 21810142.59 20780713.00 L 21610210.00 20780713.00 L 21571941.00 20796564.00 L 21471973.00 20896532.00 L 21456122.00 20934803.41 L 21456122.00 21034768.00 L 21471973.00 21073037.00 L 21571941.00 21173005.00 L 21610212.41 21188856.00 L 21787727.00 21188856.00 L 21855993.00 21257122.00 L 21855993.00 21312253.00 L 21787727.00 21380519.00 L 21632628.00 21380519.00 L 21548511.00 21296402.00 A 54119.43 54119.43 0 0 0 21471973.00 21372940.00 L 21571941.00 21472908.00 L 21610210.00 21488759.00 L 21810145.00 21488760.00 L 21848414.00 21472908.00  z"/>
<path id="N" d="M 22498414.00 16672908.00 L 22598382.00 16572940.00 L 22614233.00 16534671.00 L 22614234.00 16434704.00 L 22598382.00 16396435.00 L 22498414.00 16296467.00 L 22460145.00 16280616.00 L 22282628.00 16280616.00 L 22214362.00 16212350.00 L 22214362.00 16157219.00 L 22282628.00 16088953.00 L 22437727.00 16088953.00 L 22521844.00 16173070.00 A 54121.84 54121.84 0 0 0 22598382.00 16096532.00 L 22498414.00 15996564.00 L 22460142.59 15980713.00 L 22260210.00 15980713.00 L 22221941.00 15996564.00 L 22121973.00 16096532.00 L 22106122.00 16134803.41 L 22106122.00 16234768.00 L 22121973.00 16273037.00 L 22221941.00 16373005.00 L 22260212.41 16388856.00 L 22437727.00 16388856.00 L 22505993.00 16457122.00 L 22505993.00 16512253.00 L 22437727.00 16580519.00 L 22282628.00 16580519.00 L 22198511.00 16496402.00 A 54119.43 54119.43 0 0 0 22121973.00 16572940.00 L 22221941.00 16672908.00 L 22260210.00 16688759.00 L 22460145.00 16688760.00 L 22498414.00 16672908.00  z"/>
<path id="N" d="M 13850776.00 21522908.00 L 13950744.00 21422940.00 L 13966595.00 21384671.00 L 13966596.00 21284704.00 L 13950744.00 21246435.00 L 13850776.00 21146467.00 L 13812507.00 21130616.00 L 13634990.00 21130616.00 L 13566724.00 21062350.00 L 13566724.00 21007219.00 L 13634990.00 20938953.00 L 13790089.00 20938953.00 L 13874206.00 21023070.00 A 54121.84 54121.84 0 1 0 13950744.00 20946532.00 L 13850776.00 20846564.00 L 13812504.59 20830713.00 L 13612572.00 20830713.00 L 13574303.00 20846564.00 L 13474335.00 20946532.00 L 13458484.00 20984803.41 L 13458484.00 21084768.00 L 13474335.00 21123037.00 L 13574303.00 21223005.00 L 13612574.41 21238856.00 L 13790089.00 21238856.00 L 13858355.00 21307122.00 L 13858355.00 21362253.00 L 13790089.00 21430519.00 L 13634990.00 21430519.00 L 13550873.00 21346402.00 A 54119.43 54119.43 0 0 0 13474335.00 21422940.00 L 13574303.00 21522908.00 L 13612572.00 21538759.00 L 13812507.00 21538760.00 L 13850776.00 21522908.00  z"/>
<path id="N" d="M 6248446.00 16872908.00 L 6348414.00 16772940.00 L 6364265.00 16734671.00 L 6364266.00 16634704.00 L 6348414.00 16596435.00 L 6248446.00 16496467.00 L 6210177.00 16480616.00 L 6032660.00 16480616.00 L 5964394.00 16412350.00 L 5964394.00 16357219.00 L 6032660.00 16288953.00 L 6187759.00 16288953.00 L 6271876.00 16373070.00 A 54121.84 54121.84 0 0 0 6348414.00 16296532.00 L 6248446.00 16196564.00 L 6210174.59 16180713.00 L 6010242.00 16180713.00 L 5971973.00 16196564.00 L 5872005.00 16296532.00 L 5856154.00 16334803.41 L 5856154.00 16434768.00 L 5872005.00 16473037.00 L 5971973.00 16573005.00 L 6010244.41 16588856.00 L 6187759.00 16588856.00 L 6256025.00 16657122.00 L 6256025.00 16712253.00 L 6187759.00 16780519.00 L 6032660.00 16780519.00 L 5948543.00 16696402.00 A 54119.43 54119.43 0 0 0 5872005.00 16772940.00 L 5971973.00 16872908.00 L 6010242.00 16888759.00 L 6210177.00 16888760.00 L 6248446.00 16872908.00  z"/>
<path id="N" d="M 14450775.00 16672908.00 L 14550743.00 16572940.00 L 14566594.00 16534671.00 L 14566595.00 16434704.00 L 14550743.00 16396435.00 L 14450775.00 16296467.00 L 14412506.00 16280616.00 L 14234989.00 16280616.00 L 14166723.00 16212350.00 L 14166723.00 16157219.00 L 14234989.00 16088953.00 L 14390088.00 16088953.00 L 14474205.00 16173070.00 A 54121.84 54121.84 0 0 0 14550743.00 16096532.00 L 14450775.00 15996564.00 L 14412503.59 15980713.00 L 14212571.00 15980713.00 L 14174302.00 15996564.00 L 14074334.00 16096532.00 L 14058483.00 16134803.41 L 14058483.00 16234768.00 L 14074334.00 16273037.00 L 14174302.00 16373005.00 L 14212573.41 16388856.00 L 14390088.00 16388856.00 L 14458354.00 16457122.00 L 14458354.00 16512253.00 L 14390088.00 16580519.00 L 14234989.00 16580519.00 L 14150872.00 16496402.00 A 54119.43 54119.43 0 0 0 14074334.00 16572940.00 L 14174302.00 16672908.00 L 14212571.00 16688759.00 L 14412506.00 16688760.00 L 14450775.00 16672908.00  z"/>
<path id="N" d="M 20934639.00 21483045.00 L 21134575.00 21383078.00 L 21140411.14 21376349.02 L 21148641.00 21372940.00 L 21348576.00 21173005.00 L 21364427.00 21134733.59 L 21364428.00 20934801.00 L 21348576.00 20896532.00 L 21248608.00 20796564.00 L 21210339.00 20780713.00 L 21010404.00 20780712.00 L 20972135.00 20796564.00 L 20872167.00 20896532.00 L 20856316.00 20934801.00 L 20856315.00 21034768.00 L 20872167.00 21073037.00 L 20972135.00 21173005.00 L 21010404.00 21188856.00 L 21179649.54 21188856.00 L 21078311.06 21290193.97 L 20886233.00 21386233.00 A 54118.07 54118.07 0 0 0 20934639.00 21483045.00  zM 21256187.00 21080616.00 L 21032822.00 21080616.00 L 20964556.00 21012350.00 L 20964556.00 20957219.00 L 21032822.00 20888953.00 L 21187921.00 20888953.00 L 21256187.00 20957219.00 L 21256187.00 21080616.00  z"/>
<path id="N" d="M 9884639.00 23383045.00 L 10084575.00 23283078.00 L 10090411.14 23276349.02 L 10098641.00 23272940.00 L 10298576.00 23073005.00 L 10314427.00 23034733.59 L 10314428.00 22834801.00 L 10298576.00 22796532.00 L 10198608.00 22696564.00 L 10160339.00 22680713.00 L 9960404.00 22680712.00 L 9922135.00 22696564.00 L 9822167.00 22796532.00 L 9806316.00 22834801.00 L 9806315.00 22934768.00 L 9822167.00 22973037.00 L 9922135.00 23073005.00 L 9960404.00 23088856.00 L 10129649.54 23088856.00 L 10028311.06 23190193.97 L 9836233.00 23286233.00 A 54118.07 54118.07 0 0 0 9884639.00 23383045.00  zM 10206187.00 22980616.00 L 9982822.00 22980616.00 L 9914556.00 22912350.00 L 9914556.00 22857219.00 L 9982822.00 22788953.00 L 10137921.00 22788953.00 L 10206187.00 22857219.00 L 10206187.00 22980616.00  z"/>
<path id="N" d="M 14676417.00 15721245.00 L 17018936.00 15721245.00 L 17038070.00 15713319.00 L 17045996.00 15694185.00 L 17038070.00 15675051.00 L 17018936.00 15667125.00 L 14676210.26 15667210.64 A 631942.99 631942.99 0 0 1 14044028.00 15034736.00 L 14044028.00 14652846.00 L 14036102.00 14633712.00 L 14016968.00 14625786.00 L 13997834.00 14633712.00 L 13989908.00 14652846.00 L 13989908.00 15034736.00 L 13988656.00 15034736.00 A 687744.53 687744.53 0 0 0 14676417.00 15722497.00 L 14676417.00 15721245.00  z"/>
<path id="N" d="M 14676419.41 20571244.00 L 17018937.00 20571244.00 L 17038071.00 20563318.00 L 17045997.00 20544184.00 L 17038071.00 20525050.00 L 17018937.00 20517124.00 L 14676209.12 20517210.53 A 631940.06 631940.06 0 0 1 14044028.00 19884736.00 L 14044028.00 19502846.00 L 14036102.00 19483712.00 L 14016968.00 19475786.00 L 13997834.00 19483712.00 L 13989908.00 19502846.00 L 13989908.00 19884736.00 L 13988656.00 19884736.00 A 687744.53 687744.53 0 0 0 14676417.00 20572497.00 L 14676419.41 20571244.00  z"/>
<path id="N" d="M 22674057.41 15721244.00 L 25016574.00 15721244.00 L 25035708.00 15713318.00 L 25043634.00 15694184.00 L 25035708.00 15675050.00 L 25016574.00 15667124.00 L 22673846.31 15667210.45 A 631937.99 631937.99 0 0 1 22041666.00 15034735.00 L 22041666.00 14652845.00 L 22033740.00 14633711.00 L 22014606.00 14625785.00 L 21995472.00 14633711.00 L 21987546.00 14652845.00 L 21987546.00 15034736.00 L 21986294.00 15034736.00 A 687744.53 687744.53 0 0 0 22674055.00 15722497.00 L 22674057.41 15721244.00  z"/>
<path id="N" d="M 6926419.41 20571244.00 L 9268936.00 20571244.00 L 9288070.00 20563318.00 L 9295996.00 20544184.00 L 9288070.00 20525050.00 L 9268936.00 20517124.00 L 6926208.31 20517210.45 A 631937.99 631937.99 0 0 1 6294027.00 19884733.59 L 6294027.00 19502846.00 L 6286101.00 19483712.00 L 6266967.00 19475786.00 L 6247833.00 19483712.00 L 6239907.00 19502846.00 L 6239907.00 19884736.00 L 6238656.00 19884736.00 A 687744.53 687744.53 0 0 0 6926417.00 20572497.00 L 6926419.41 20571244.00  z"/>
<path id="N" d="M 22671695.41 20571244.00 L 25014212.00 20571244.00 L 25033346.00 20563318.00 L 25041272.00 20544184.00 L 25033346.00 20525050.00 L 25014212.00 20517124.00 L 22671484.31 20517210.45 A 631937.99 631937.99 0 0 1 22039303.00 19884733.59 L 22039303.00 19502846.00 L 22031377.00 19483712.00 L 22012243.00 19475786.00 L 21993109.00 19483712.00 L 21985183.00 19502846.00 L 21985183.00 19884736.00 L 21983932.00 19884736.00 A 687744.53 687744.53 0 0 0 22671693.00 20572497.00 L 22671695.41 20571244.00  z"/>
<path id="N" d="M 6924055.00 15721245.00 L 9266574.00 15721245.00 L 9285708.00 15713319.00 L 9293634.00 15694185.00 L 9285708.00 15675051.00 L 9266574.00 15667125.00 L 6923848.26 15667210.64 A 631942.99 631942.99 0 0 1 6291666.00 15034735.00 L 6291666.00 14652845.00 L 6283740.00 14633711.00 L 6264606.00 14625785.00 L 6245472.00 14633711.00 L 6237546.00 14652845.00 L 6237546.00 15034736.00 L 6236294.00 15034736.00 A 687744.53 687744.53 0 0 0 6924055.00 15722497.00 L 6924055.00 15721245.00  z"/>
<path id="N" d="M 13850969.00 16672908.00 L 13950937.00 16572940.00 A 54121.84 54121.84 0 0 0 13874399.00 16496402.00 L 13790282.00 16580519.00 L 13635183.00 16580519.00 L 13566917.00 16512253.00 L 13566917.00 16457122.00 L 13950937.00 16073102.00 A 54119.43 54119.43 0 0 0 13912665.59 15980713.00 L 13512797.00 15980713.00 A 54118.70 54118.70 0 0 0 13512797.00 16088953.00 L 13782010.00 16088953.00 L 13474528.00 16396435.00 L 13458677.00 16434706.41 L 13458676.00 16534671.00 L 13474528.00 16572940.00 L 13574496.00 16672908.00 L 13612765.00 16688759.00 L 13812700.00 16688760.00 L 13850969.00 16672908.00  z"/>
<path id="N" d="M 17898673.00 17822908.00 L 18198576.00 17523005.00 A 54119.43 54119.43 0 0 0 18160304.59 17430616.00 L 17914524.00 17430616.00 L 17914524.00 17184833.00 A 54118.70 54118.70 0 0 0 17806284.00 17184833.00 L 17806284.00 17430616.00 L 17760436.00 17430616.00 A 54118.70 54118.70 0 0 0 17760436.00 17538856.00 L 17806284.00 17538856.00 L 17806283.00 17784639.00 A 54122.11 54122.11 0 0 0 17898673.00 17822908.00  zM 17914524.00 17653981.00 L 17914524.00 17538856.00 L 18029649.00 17538856.00 L 17914524.00 17653981.00  z"/>
<path id="N" d="M 5251035.00 21472908.00 L 5550938.00 21173005.00 A 54119.43 54119.43 0 0 0 5512666.59 21080616.00 L 5266886.00 21080616.00 L 5266886.00 20834833.00 A 54118.70 54118.70 0 0 0 5158646.00 20834833.00 L 5158646.00 21080616.00 L 5112798.00 21080616.00 A 54118.70 54118.70 0 0 0 5112798.00 21188856.00 L 5158646.00 21188856.00 L 5158645.00 21434639.00 A 54122.11 54122.11 0 0 0 5251035.00 21472908.00  zM 5266886.00 21303981.00 L 5266886.00 21188856.00 L 5382011.00 21188856.00 L 5266886.00 21303981.00  z"/>
<path id="N" d="M 5648640.00 16872908.00 L 5748608.00 16772940.00 A 54121.84 54121.84 0 1 0 5664491.00 16703981.00 L 5664491.00 16288953.00 L 5710339.00 16288953.00 A 54118.70 54118.70 0 0 0 5710339.00 16180713.00 L 5510404.00 16180713.00 A 54118.70 54118.70 0 0 0 5510404.00 16288953.00 L 5556251.00 16288953.00 L 5556250.00 16834639.00 A 54122.11 54122.11 0 0 0 5648640.00 16872908.00  z"/>
<path id="N" d="M 25414233.00 16934639.00 L 25414233.00 16334833.00 L 25398382.00 16296564.00 L 25360113.00 16280713.00 L 25060210.00 16280712.00 L 25021941.00 16296564.00 L 24921973.00 16396532.00 L 24906122.00 16434801.00 L 24906121.00 16834671.00 L 24921973.00 16872940.00 L 25021941.00 16972908.00 L 25060210.00 16988759.00 L 25360113.00 16988759.00 L 25398382.00 16972908.00 L 25414233.00 16934639.00  zM 25305993.00 16880519.00 L 25082628.00 16880519.00 L 25014362.00 16812253.00 L 25014362.00 16457219.00 L 25082628.00 16388953.00 L 25305993.00 16388953.00 L 25305993.00 16880519.00  z"/>
<path id="N" d="M 11241792.00 17834639.00 L 11241792.00 17234833.00 L 11225941.00 17196564.00 L 11187672.00 17180713.00 L 10887769.00 17180712.00 L 10849500.00 17196564.00 L 10749532.00 17296532.00 L 10733681.00 17334801.00 L 10733680.00 17734671.00 L 10749532.00 17772940.00 L 10849500.00 17872908.00 L 10887769.00 17888759.00 L 11187672.00 17888759.00 L 11225941.00 17872908.00 L 11241792.00 17834639.00  zM 11133552.00 17780519.00 L 10910187.00 17780519.00 L 10841921.00 17712253.00 L 10841921.00 17357219.00 L 10910187.00 17288953.00 L 11133552.00 17288953.00 L 11133552.00 17780519.00  z"/>
<path id="N" d="M 18814233.00 17784639.00 L 18814233.00 17184833.00 L 18798382.00 17146564.00 L 18760113.00 17130713.00 L 18460210.00 17130712.00 L 18421941.00 17146564.00 L 18321973.00 17246532.00 L 18306122.00 17284801.00 L 18306121.00 17684671.00 L 18321973.00 17722940.00 L 18421941.00 17822908.00 L 18460210.00 17838759.00 L 18760113.00 17838759.00 L 18798382.00 17822908.00 L 18814233.00 17784639.00  zM 18705993.00 17730519.00 L 18482628.00 17730519.00 L 18414362.00 17662253.00 L 18414362.00 17307219.00 L 18482628.00 17238953.00 L 18705993.00 17238953.00 L 18705993.00 17730519.00  z"/>
<path id="N" d="M 17945705.00 22870292.00 L 17599954.00 22870292.00 L 17599954.00 22846862.00 L 17983974.00 22462843.00 L 17999825.00 22424574.00 L 17999825.00 22324606.00 A 54118.70 54118.70 0 1 0 17891585.00 22324606.00 L 17891585.00 22402156.92 L 17507565.00 22786175.00 L 17491714.00 22824446.41 L 17491714.00 22924412.00 L 17507565.00 22962681.00 L 17545834.00 22978532.00 L 17945705.00 22978532.00 A 54121.84 54121.84 0 0 0 17945705.00 22870292.00  z"/>
<path id="N" d="M 10914233.00 23334639.00 L 10914233.00 22734833.00 L 10898382.00 22696564.00 L 10860113.00 22680713.00 L 10560210.00 22680712.00 L 10521941.00 22696564.00 L 10421973.00 22796532.00 L 10406122.00 22834801.00 L 10406121.00 23234671.00 L 10421973.00 23272940.00 L 10521941.00 23372908.00 L 10560210.00 23388759.00 L 10860113.00 23388759.00 L 10898382.00 23372908.00 L 10914233.00 23334639.00  zM 10805993.00 23280519.00 L 10582628.00 23280519.00 L 10514362.00 23212253.00 L 10514362.00 22857219.00 L 10582628.00 22788953.00 L 10805993.00 22788953.00 L 10805993.00 23280519.00  z"/>
<path id="N" d="M 18599631.00 22924412.00 L 18599631.00 22324606.00 L 18583780.00 22286337.00 L 18545511.00 22270486.00 L 18245608.00 22270485.00 L 18207339.00 22286337.00 L 18107371.00 22386305.00 L 18091520.00 22424574.00 L 18091519.00 22824444.00 L 18107371.00 22862713.00 L 18207339.00 22962681.00 L 18245608.00 22978532.00 L 18545511.00 22978532.00 L 18583780.00 22962681.00 L 18599631.00 22924412.00  zM 18491391.00 22870292.00 L 18268026.00 22870292.00 L 18199760.00 22802026.00 L 18199760.00 22446992.00 L 18268026.00 22378726.00 L 18491391.00 22378726.00 L 18491391.00 22870292.00  z"/>
<path id="N" d="M 26714233.00 22634639.00 L 26714233.00 22034833.00 L 26698382.00 21996564.00 L 26660113.00 21980713.00 L 26360210.00 21980712.00 L 26321941.00 21996564.00 L 26221973.00 22096532.00 L 26206122.00 22134801.00 L 26206121.00 22534671.00 L 26221973.00 22572940.00 L 26321941.00 22672908.00 L 26360210.00 22688759.00 L 26660113.00 22688759.00 L 26698382.00 22672908.00 L 26714233.00 22634639.00  zM 26605993.00 22580519.00 L 26382628.00 22580519.00 L 26314362.00 22512253.00 L 26314362.00 22157219.00 L 26382628.00 22088953.00 L 26605993.00 22088953.00 L 26605993.00 22580519.00  z"/>
<path id="N" d="M 20772088.92 18872927.92 m -80279.37 0 a 80279.37 80279.37 0 1 1 160558.73 0a 80279.37 80279.37 0 1 1 -160558.73 0"/>
<path id="N" d="M 5026812.92 18872927.92 m -80279.37 0 a 80279.37 80279.37 0 1 1 160558.73 0a 80279.37 80279.37 0 1 1 -160558.73 0"/>
<path id="N" d="M 12776812.92 14022927.92 m -80279.37 0 a 80279.37 80279.37 0 1 1 160558.73 0a 80279.37 80279.37 0 1 1 -160558.73 0"/>
<path id="N" d="M 20774450.92 14022927.92 m -80279.37 0 a 80279.37 80279.37 0 1 1 160558.73 0a 80279.37 80279.37 0 1 1 -160558.73 0"/>
<path id="N" d="M 12776812.92 18872928.92 m -80279.37 0 a 80279.37 80279.37 0 1 1 160558.73 0a 80279.37 80279.37 0 1 1 -160558.73 0"/>
<path id="N" d="M 5024450.92 14022927.92 m -80279.37 0 a 80279.37 80279.37 0 1 1 160558.73 0a 80279.37 80279.37 0 1 1 -160558.73 0"/>
<path id="N" d="M 26675054.00 16468806.00 L 26687535.00 16438673.00 L 26675054.00 16408540.00 L 26644921.00 16396059.00 L 25640984.00 16396059.00 L 25610851.00 16408540.00 L 25598370.00 16438673.00 L 25610851.00 16468806.00 L 25640984.00 16481287.00 L 26644921.00 16481287.00 L 26675054.00 16468806.00  z"/>
<path id="N" d="M 18675054.00 21368806.00 L 18687535.00 21338673.00 L 18675054.00 21308540.00 L 18644921.00 21296059.00 L 17640984.00 21296059.00 L 17610851.00 21308540.00 L 17598370.00 21338673.00 L 17610851.00 21368806.00 L 17640984.00 21381287.00 L 18644921.00 21381287.00 L 18675054.00 21368806.00  z"/>
<path id="N" d="M 26675054.00 21268806.00 L 26687535.00 21238673.00 L 26675054.00 21208540.00 L 26644921.00 21196059.00 L 25640984.00 21196059.00 L 25610851.00 21208540.00 L 25598370.00 21238673.00 L 25610851.00 21268806.00 L 25640984.00 21281287.00 L 26644921.00 21281287.00 L 26675054.00 21268806.00  z"/>
<path id="N" d="M 18675054.00 16468806.00 L 18687535.00 16438673.00 L 18675054.00 16408540.00 L 18644921.00 16396059.00 L 17640984.00 16396059.00 L 17610851.00 16408540.00 L 17598370.00 16438673.00 L 17610851.00 16468806.00 L 17640984.00 16481287.00 L 18644921.00 16481287.00 L 18675054.00 16468806.00  z"/>
<path id="N" d="M 10975054.00 16518806.00 L 10987535.00 16488673.00 L 10975054.00 16458540.00 L 10944921.00 16446059.00 L 9940984.00 16446059.00 L 9910851.00 16458540.00 L 9898370.00 16488673.00 L 9910851.00 16518806.00 L 9940984.00 16531287.00 L 10944921.00 16531287.00 L 10975054.00 16518806.00  z"/>
<path id="N" d="M 10625054.00 21968806.00 L 10637535.00 21938673.00 L 10625054.00 21908540.00 L 10594921.00 21896059.00 L 9590984.00 21896059.00 L 9560851.00 21908540.00 L 9548370.00 21938673.00 L 9560851.00 21968806.00 L 9590984.00 21981287.00 L 10594921.00 21981287.00 L 10625054.00 21968806.00  z"/>
<path id="N" d="M 18675054.00 16960932.00 L 18687535.00 16930799.00 L 18675054.00 16900666.00 L 18644921.00 16888185.00 L 17975629.00 16888185.00 L 17945496.00 16900666.00 L 17933015.00 16930799.00 L 17945496.00 16960932.00 L 17975629.00 16973413.00 L 18644921.00 16973413.00 L 18675054.00 16960932.00  z"/>
<path id="N" d="M 26675054.00 16960932.00 L 26687535.00 16930799.00 L 26675054.00 16900666.00 L 26644921.00 16888185.00 L 25975629.00 16888185.00 L 25945496.00 16900666.00 L 25933015.00 16930799.00 L 25945496.00 16960932.00 L 25975629.00 16973413.00 L 26644921.00 16973413.00 L 26675054.00 16960932.00  z"/>
<path id="N" d="M 26675054.00 21760932.00 L 26687535.00 21730799.00 L 26675054.00 21700666.00 L 26644921.00 21688185.00 L 25975629.00 21688185.00 L 25945496.00 21700666.00 L 25933015.00 21730799.00 L 25945496.00 21760932.00 L 25975629.00 21773413.00 L 26644921.00 21773413.00 L 26675054.00 21760932.00  z"/>
<path id="N" d="M 18675054.00 21860932.00 L 18687535.00 21830799.00 L 18675054.00 21800666.00 L 18644921.00 21788185.00 L 17975629.00 21788185.00 L 17945496.00 21800666.00 L 17933015.00 21830799.00 L 17945496.00 21860932.00 L 17975629.00 21873413.00 L 18644921.00 21873413.00 L 18675054.00 21860932.00  z"/>
<path id="N" d="M 10975054.00 17010932.00 L 10987535.00 16980799.00 L 10975054.00 16950666.00 L 10944921.00 16938185.00 L 10275629.00 16938185.00 L 10245496.00 16950666.00 L 10233015.00 16980799.00 L 10245496.00 17010932.00 L 10275629.00 17023413.00 L 10944921.00 17023413.00 L 10975054.00 17010932.00  z"/>
<path id="N" d="M 10625054.00 22460932.00 L 10637535.00 22430799.00 L 10625054.00 22400666.00 L 10594921.00 22388185.00 L 9925629.00 22388185.00 L 9895496.00 22400666.00 L 9883015.00 22430799.00 L 9895496.00 22460932.00 L 9925629.00 22473413.00 L 10594921.00 22473413.00 L 10625054.00 22460932.00  z"/>
</g>
</svg>
