<svg width="100.10534462mm" height="90.09266716mm" viewBox="0 0 39411553 35469554"  version="1.1" xmlns="http://www.w3.org/2000/svg" xmlns:xlink="http://www.w3.org/1999/xlink">
<desc>
Origin 5260273 5184736 Bound 3917767 3916705 39411553 35469554
</desc>
<g fill-rule="evenodd" fill="rgb(128, 0, 128)" stroke="black" stroke-width="1" transform="translate(0, 35469554) scale(1, -1) translate(-3917767, -3916705)">
<path id="N" d="M 43329320.00 38917623.00 L 43329320.00 31434736.00 L 43309485.00 31414901.00 L 41077352.00 31414901.00 L 41077352.00 27773469.00 L 43309485.00 27773469.00 L 43329320.00 27753634.00 L 43329320.00 25726074.00 L 43309485.00 25706239.00 L 41077352.00 25706239.00 L 41077352.00 22064807.00 L 43309485.00 22064807.00 L 43329320.00 22044972.00 L 43329320.00 4385340.00 A 522334.30 522334.30 0 0 0 42860684.00 3916705.00 L 4386402.00 3916705.00 A 522308.41 522308.41 0 0 0 3917767.00 4385340.00 L 3917767.00 38917623.00 A 522308.41 522308.41 0 0 0 4386402.00 39386259.00 L 42860684.00 39386259.00 A 522375.99 522375.99 0 0 0 43329320.00 38917623.00  zM 5260269.07 5184751.58 m -672513.42 0 a 672513.42 672513.42 0 1 1 1345026.84 0a 672513.42 672513.42 0 1 1 -1345026.84 0M 6255942.00 6942217.00 L 5606336.00 6942217.00 L 5606336.00 6528831.00 L 6255942.00 6528831.00 L 6255942.00 6942217.00  zM 8185076.00 6942217.00 L 7535470.00 6942217.00 L 7535470.00 6528831.00 L 8185076.00 6528831.00 L 8185076.00 6942217.00  zM 11335076.00 6741429.00 L 10685470.00 6741429.00 L 10685470.00 6328043.00 L 11335076.00 6328043.00 L 11335076.00 6741429.00  zM 11335076.00 8040641.00 L 10685470.00 8040641.00 L 10685470.00 7627255.00 L 11335076.00 7627255.00 L 11335076.00 8040641.00  zM 6255942.00 8241429.00 L 5606336.00 8241429.00 L 5606336.00 7828043.00 L 6255942.00 7828043.00 L 6255942.00 8241429.00  zM 8185076.00 8241429.00 L 7535470.00 8241429.00 L 7535470.00 7828043.00 L 8185076.00 7828043.00 L 8185076.00 8241429.00  zM 13264210.00 8040641.00 L 12614604.00 8040641.00 L 12614604.00 7627255.00 L 13264210.00 7627255.00 L 13264210.00 8040641.00  zM 7160271.64 14034752.14 m -623062.86 0 a 623062.86 623062.86 0 1 1 1246125.73 0a 623062.86 623062.86 0 1 1 -1246125.73 0M 9660271.64 15034752.14 m -623062.86 0 a 623062.86 623062.86 0 1 1 1246125.73 0a 623062.86 623062.86 0 1 1 -1246125.73 0M 13264210.00 6741429.00 L 12614604.00 6741429.00 L 12614604.00 6328043.00 L 13264210.00 6328043.00 L 13264210.00 6741429.00  zM 15370509.00 6941823.00 L 14720903.00 6941823.00 L 14720903.00 6528437.00 L 15370509.00 6528437.00 L 15370509.00 6941823.00  zM 17299643.00 6941823.00 L 16650037.00 6941823.00 L 16650037.00 6528437.00 L 17299643.00 6528437.00 L 17299643.00 6941823.00  zM 17299643.00 8241035.00 L 16650037.00 8241035.00 L 16650037.00 7827649.00 L 17299643.00 7827649.00 L 17299643.00 8241035.00  zM 21420509.00 7591823.00 L 20770903.00 7591823.00 L 20770903.00 7178437.00 L 21420509.00 7178437.00 L 21420509.00 7591823.00  zM 15370509.00 8241035.00 L 14720903.00 8241035.00 L 14720903.00 7827649.00 L 15370509.00 7827649.00 L 15370509.00 8241035.00  zM 14912633.64 14034752.14 m -623062.86 0 a 623062.86 623062.86 0 1 1 1246125.73 0a 623062.86 623062.86 0 1 1 -1246125.73 0M 21420509.00 8891035.00 L 20770903.00 8891035.00 L 20770903.00 8477649.00 L 21420509.00 8477649.00 L 21420509.00 8891035.00  zM 17412633.64 15034752.14 m -623062.86 0 a 623062.86 623062.86 0 1 1 1246125.73 0a 623062.86 623062.86 0 1 1 -1246125.73 0M 22907909.64 18884752.14 m -623062.86 0 a 623062.86 623062.86 0 1 1 1246125.73 0a 623062.86 623062.86 0 1 1 -1246125.73 0M 7162633.64 18884752.14 m -623062.86 0 a 623062.86 623062.86 0 1 1 1246125.73 0a 623062.86 623062.86 0 1 1 -1246125.73 0M 9662633.64 19884752.14 m -623062.86 0 a 623062.86 623062.86 0 1 1 1246125.73 0a 623062.86 623062.86 0 1 1 -1246125.73 0M 8666966.00 29869775.00 L 8253580.00 29869775.00 L 8253580.00 29220169.00 L 8666966.00 29220169.00 L 8666966.00 29869775.00  zM 7166966.00 29869775.00 L 6753580.00 29869775.00 L 6753580.00 29220169.00 L 7166966.00 29220169.00 L 7166966.00 29869775.00  zM 7666966.00 29869775.00 L 7253580.00 29869775.00 L 7253580.00 29220169.00 L 7666966.00 29220169.00 L 7666966.00 29869775.00  zM 8166966.00 29869775.00 L 7753580.00 29869775.00 L 7753580.00 29220169.00 L 8166966.00 29220169.00 L 8166966.00 29869775.00  zM 9166966.00 29869775.00 L 8753580.00 29869775.00 L 8753580.00 29220169.00 L 9166966.00 29220169.00 L 9166966.00 29869775.00  zM 9666966.00 29869775.00 L 9253580.00 29869775.00 L 9253580.00 29220169.00 L 9666966.00 29220169.00 L 9666966.00 29869775.00  zM 10166966.00 29869775.00 L 9753580.00 29869775.00 L 9753580.00 29220169.00 L 10166966.00 29220169.00 L 10166966.00 29869775.00  zM 10666966.00 29869775.00 L 10253580.00 29869775.00 L 10253580.00 29220169.00 L 10666966.00 29220169.00 L 10666966.00 29869775.00  zM 14912633.64 18884752.14 m -623062.86 0 a 623062.86 623062.86 0 1 1 1246125.73 0a 623062.86 623062.86 0 1 1 -1246125.73 0M 17412633.64 19884752.14 m -623062.86 0 a 623062.86 623062.86 0 1 1 1246125.73 0a 623062.86 623062.86 0 1 1 -1246125.73 0M 12166966.00 29869775.00 L 11753580.00 29869775.00 L 11753580.00 29220169.00 L 12166966.00 29220169.00 L 12166966.00 29869775.00  zM 11666966.00 29869775.00 L 11253580.00 29869775.00 L 11253580.00 29220169.00 L 11666966.00 29220169.00 L 11666966.00 29869775.00  zM 13166966.00 29869775.00 L 12753580.00 29869775.00 L 12753580.00 29220169.00 L 13166966.00 29220169.00 L 13166966.00 29869775.00  zM 11166966.00 29869775.00 L 10753580.00 29869775.00 L 10753580.00 29220169.00 L 11166966.00 29220169.00 L 11166966.00 29869775.00  zM 12666966.00 29869775.00 L 12253580.00 29869775.00 L 12253580.00 29220169.00 L 12666966.00 29220169.00 L 12666966.00 29869775.00  zM 13666966.00 29869775.00 L 13253580.00 29869775.00 L 13253580.00 29220169.00 L 13666966.00 29220169.00 L 13666966.00 29869775.00  zM 22170509.00 30341823.00 L 21520903.00 30341823.00 L 21520903.00 29928437.00 L 22170509.00 29928437.00 L 22170509.00 30341823.00  zM 9891375.00 33076468.00 L 9517359.00 33076468.00 L 9517359.00 32775157.85 L 9515048.00 32776702.00 L 9457443.00 32788160.00 L 9399249.00 32776308.44 L 9399249.00 33076468.00 L 9025233.00 33076468.00 L 9025233.00 32771731.25 L 9015016.00 32778558.00 L 8957411.00 32790016.00 L 8907123.00 32780013.40 L 8907123.00 33076468.00 L 8533107.00 33076468.00 L 8533107.00 32702452.00 L 8821921.09 32702452.00 L 8818339.00 32697091.00 L 8806881.00 32639486.00 L 8817849.49 32584342.00 L 8533107.00 32584342.00 L 8533107.00 32210326.00 L 8825307.28 32210326.00 L 8820163.00 32202627.00 L 8808705.00 32145022.00 L 8819208.45 32092216.00 L 8533107.00 32092216.00 L 8533107.00 31718200.00 L 8907123.00 31718200.00 L 8907123.00 32004857.41 L 8959235.00 31994492.00 L 9016840.00 32005950.00 L 9025233.00 32011557.99 L 9025233.00 31718200.00 L 9399249.00 31718200.00 L 9399249.00 32014214.01 L 9451907.00 32003740.00 L 9509512.00 32015198.00 L 9517359.00 32020441.17 L 9517359.00 31718200.00 L 9891375.00 31718200.00 L 9891375.00 32092216.00 L 9588006.29 32092216.00 L 9590979.00 32096665.00 L 9602437.00 32154270.00 L 9591287.11 32210326.00 L 9891375.00 32210326.00 L 9891375.00 32584342.00 L 9597373.68 32584342.00 L 9607973.00 32637630.00 L 9596515.00 32695235.00 L 9591692.78 32702452.00 L 9891375.00 32702452.00 L 9891375.00 33076468.00  zM 9166966.00 36759539.00 L 8753580.00 36759539.00 L 8753580.00 36109933.00 L 9166966.00 36109933.00 L 9166966.00 36759539.00  zM 7166966.00 36759539.00 L 6753580.00 36759539.00 L 6753580.00 36109933.00 L 7166966.00 36109933.00 L 7166966.00 36759539.00  zM 8166966.00 36759539.00 L 7753580.00 36759539.00 L 7753580.00 36109933.00 L 8166966.00 36109933.00 L 8166966.00 36759539.00  zM 8666966.00 36759539.00 L 8253580.00 36759539.00 L 8253580.00 36109933.00 L 8666966.00 36109933.00 L 8666966.00 36759539.00  zM 5260269.07 38122366.58 m -672513.42 0 a 672513.42 672513.42 0 1 1 1345026.84 0a 672513.42 672513.42 0 1 1 -1345026.84 0M 7666966.00 36759539.00 L 7253580.00 36759539.00 L 7253580.00 36109933.00 L 7666966.00 36109933.00 L 7666966.00 36759539.00  zM 9666966.00 36759539.00 L 9253580.00 36759539.00 L 9253580.00 36109933.00 L 9666966.00 36109933.00 L 9666966.00 36759539.00  zM 10166966.00 36759539.00 L 9753580.00 36759539.00 L 9753580.00 36109933.00 L 10166966.00 36109933.00 L 10166966.00 36759539.00  zM 10666966.00 36759539.00 L 10253580.00 36759539.00 L 10253580.00 36109933.00 L 10666966.00 36109933.00 L 10666966.00 36759539.00  zM 11166966.00 36759539.00 L 10753580.00 36759539.00 L 10753580.00 36109933.00 L 11166966.00 36109933.00 L 11166966.00 36759539.00  zM 11666966.00 36759539.00 L 11253580.00 36759539.00 L 11253580.00 36109933.00 L 11666966.00 36109933.00 L 11666966.00 36759539.00  zM 12166966.00 36759539.00 L 11753580.00 36759539.00 L 11753580.00 36109933.00 L 12166966.00 36109933.00 L 12166966.00 36759539.00  zM 12666966.00 36759539.00 L 12253580.00 36759539.00 L 12253580.00 36109933.00 L 12666966.00 36109933.00 L 12666966.00 36759539.00  zM 13166966.00 36759539.00 L 12753580.00 36759539.00 L 12753580.00 36109933.00 L 13166966.00 36109933.00 L 13166966.00 36759539.00  zM 13666966.00 36759539.00 L 13253580.00 36759539.00 L 13253580.00 36109933.00 L 13666966.00 36109933.00 L 13666966.00 36759539.00  zM 16859511.00 34722609.00 L 16461035.00 34722609.00 L 16461035.00 34246863.00 L 16859511.00 34246863.00 L 16859511.00 34722609.00  zM 16859511.00 34091218.00 L 16461035.00 34091218.00 L 16461035.00 33615472.00 L 16859511.00 33615472.00 L 16859511.00 34091218.00  zM 17787438.00 33896940.00 L 17433108.00 33896940.00 L 17433108.00 33581980.00 L 17787438.00 33581980.00 L 17787438.00 33896940.00  zM 17787438.00 34487492.00 L 17433108.00 34487492.00 L 17433108.00 34172532.00 L 17787438.00 34172532.00 L 17787438.00 34487492.00  zM 18901218.00 33501272.00 L 18527202.00 33501272.00 L 18527202.00 33068200.00 L 18901218.00 33068200.00 L 18901218.00 33501272.00  zM 18724053.00 34208358.00 L 18212241.00 34208358.00 L 18212241.00 33913082.00 L 18724053.00 33913082.00 L 18724053.00 34208358.00  zM 19393344.00 33501272.00 L 19019328.00 33501272.00 L 19019328.00 33068200.00 L 19393344.00 33068200.00 L 19393344.00 33501272.00  zM 18724053.00 34582374.00 L 18212241.00 34582374.00 L 18212241.00 34287098.00 L 18724053.00 34287098.00 L 18724053.00 34582374.00  zM 19708305.00 34208358.00 L 19196493.00 34208358.00 L 19196493.00 33913082.00 L 19708305.00 33913082.00 L 19708305.00 34208358.00  zM 22170509.00 31641035.00 L 21520903.00 31641035.00 L 21520903.00 31227649.00 L 22170509.00 31227649.00 L 22170509.00 31641035.00  zM 21397281.00 33071744.00 L 21023265.00 33071744.00 L 21023265.00 32697728.00 L 21397281.00 32697728.00 L 21397281.00 33071744.00  zM 20806729.00 33071744.00 L 20432713.00 33071744.00 L 20432713.00 32697728.00 L 20806729.00 32697728.00 L 20806729.00 33071744.00  zM 20773521.00 33833974.00 L 20356705.00 33833974.00 L 20356705.00 33435498.00 L 20773521.00 33435498.00 L 20773521.00 33833974.00  zM 21463841.00 33833974.00 L 21047025.00 33833974.00 L 21047025.00 33435498.00 L 21463841.00 33435498.00 L 21463841.00 33833974.00  zM 18724053.00 34956390.00 L 18212241.00 34956390.00 L 18212241.00 34661114.00 L 18724053.00 34661114.00 L 18724053.00 34956390.00  zM 19708305.00 34956390.00 L 19196493.00 34956390.00 L 19196493.00 34661114.00 L 19708305.00 34661114.00 L 19708305.00 34956390.00  zM 19637438.00 35701664.00 L 19283108.00 35701664.00 L 19283108.00 35386704.00 L 19637438.00 35386704.00 L 19637438.00 35701664.00  zM 20807300.00 34971389.00 L 20313246.00 34971389.00 L 20313246.00 34398083.00 L 20807300.00 34398083.00 L 20807300.00 34971389.00  zM 19637438.00 36292216.00 L 19283108.00 36292216.00 L 19283108.00 35977256.00 L 19637438.00 35977256.00 L 19637438.00 36292216.00  zM 21457418.00 34971389.00 L 20963364.00 34971389.00 L 20963364.00 34398083.00 L 21457418.00 34398083.00 L 21457418.00 34971389.00  zM 20832451.00 35833974.00 L 20356705.00 35833974.00 L 20356705.00 35435498.00 L 20832451.00 35435498.00 L 20832451.00 35833974.00  zM 21463842.00 35833974.00 L 20988096.00 35833974.00 L 20988096.00 35435498.00 L 21463842.00 35435498.00 L 21463842.00 35833974.00  zM 22727558.86 34727560.28 m -327604.72 0 a 327604.72 327604.72 0 1 1 655209.45 0a 327604.72 327604.72 0 1 1 -655209.45 0M 23349643.00 7591823.00 L 22700037.00 7591823.00 L 22700037.00 7178437.00 L 23349643.00 7178437.00 L 23349643.00 7591823.00  zM 26120509.00 7091823.00 L 25470903.00 7091823.00 L 25470903.00 6678437.00 L 26120509.00 6678437.00 L 26120509.00 7091823.00  zM 26120509.00 8391035.00 L 25470903.00 8391035.00 L 25470903.00 7977649.00 L 26120509.00 7977649.00 L 26120509.00 8391035.00  zM 28049643.00 7091823.00 L 27400037.00 7091823.00 L 27400037.00 6678437.00 L 28049643.00 6678437.00 L 28049643.00 7091823.00  zM 28049643.00 8391035.00 L 27400037.00 8391035.00 L 27400037.00 7977649.00 L 28049643.00 7977649.00 L 28049643.00 8391035.00  zM 23349643.00 8891035.00 L 22700037.00 8891035.00 L 22700037.00 8477649.00 L 23349643.00 8477649.00 L 23349643.00 8891035.00  zM 22910271.64 14034752.14 m -623062.86 0 a 623062.86 623062.86 0 1 1 1246125.73 0a 623062.86 623062.86 0 1 1 -1246125.73 0M 25410271.64 15034752.14 m -623062.86 0 a 623062.86 623062.86 0 1 1 1246125.73 0a 623062.86 623062.86 0 1 1 -1246125.73 0M 25407909.64 19884752.14 m -623062.86 0 a 623062.86 623062.86 0 1 1 1246125.73 0a 623062.86 623062.86 0 1 1 -1246125.73 0M 32435076.00 21642217.00 L 31785470.00 21642217.00 L 31785470.00 21228831.00 L 32435076.00 21228831.00 L 32435076.00 21642217.00  zM 37676020.86 8581982.28 m -327604.72 0 a 327604.72 327604.72 0 1 1 655209.45 0a 327604.72 327604.72 0 1 1 -655209.45 0M 38660272.86 8581982.28 m -327604.72 0 a 327604.72 327604.72 0 1 1 655209.45 0a 327604.72 327604.72 0 1 1 -655209.45 0M 39644524.86 8581982.28 m -327604.72 0 a 327604.72 327604.72 0 1 1 655209.45 0a 327604.72 327604.72 0 1 1 -655209.45 0M 36898463.00 12174500.00 L 35933895.00 12174500.00 L 35933895.00 10894972.00 L 36898463.00 10894972.00 L 36898463.00 12174500.00  zM 38000824.00 14615445.00 L 37351218.00 14615445.00 L 37351218.00 13965839.00 L 38000824.00 13965839.00 L 38000824.00 14615445.00  zM 32435076.00 22941429.00 L 31785470.00 22941429.00 L 31785470.00 22528043.00 L 32435076.00 22528043.00 L 32435076.00 22941429.00  zM 34364210.00 22941429.00 L 33714604.00 22941429.00 L 33714604.00 22528043.00 L 34364210.00 22528043.00 L 34364210.00 22941429.00  zM 34364210.00 21642217.00 L 33714604.00 21642217.00 L 33714604.00 21228831.00 L 34364210.00 21228831.00 L 34364210.00 21642217.00  zM 39644524.86 14290643.28 m -327604.72 0 a 327604.72 327604.72 0 1 1 655209.45 0a 327604.72 327604.72 0 1 1 -655209.45 0M 40939406.00 22271350.00 L 40585076.00 22271350.00 L 40585076.00 22153240.00 L 40939406.00 22153240.00 L 40939406.00 22271350.00  zM 41983817.07 5184751.58 m -672513.42 0 a 672513.42 672513.42 0 1 1 1345026.84 0a 672513.42 672513.42 0 1 1 -1345026.84 0M 41386651.00 12174500.00 L 40422083.00 12174500.00 L 40422083.00 10894972.00 L 41386651.00 10894972.00 L 41386651.00 12174500.00  zM 42533895.00 21980316.00 L 42022083.00 21980316.00 A 220780.35 220780.35 0 1 1 42022083.00 21538762.00 L 42533895.00 21538762.00 A 220780.35 220780.35 0 1 1 42533895.00 21980316.00  zM 40939406.00 22468200.00 L 40585076.00 22468200.00 L 40585076.00 22350090.00 L 40939406.00 22350090.00 L 40939406.00 22468200.00  zM 41311454.00 21960246.00 L 40701218.00 21960246.00 A 200706.53 200706.53 0 0 1 40701218.00 21558832.00 L 41311454.00 21558832.00 A 200706.53 200706.53 0 0 1 41311454.00 21960246.00  zM 40939406.00 22665050.00 L 40585076.00 22665050.00 L 40585076.00 22546940.00 L 40939406.00 22546940.00 L 40939406.00 22665050.00  zM 40939406.00 22861901.00 L 40585076.00 22861901.00 L 40585076.00 22743791.00 L 40939406.00 22743791.00 L 40939406.00 22861901.00  zM 40939406.00 23058751.00 L 40585076.00 23058751.00 L 40585076.00 22940641.00 L 40939406.00 22940641.00 L 40939406.00 23058751.00  zM 40939406.00 23255602.00 L 40585076.00 23255602.00 L 40585076.00 23137492.00 L 40939406.00 23137492.00 L 40939406.00 23255602.00  zM 40939406.00 23452452.00 L 40585076.00 23452452.00 L 40585076.00 23334342.00 L 40939406.00 23334342.00 L 40939406.00 23452452.00  zM 40939406.00 23649302.00 L 40585076.00 23649302.00 L 40585076.00 23531192.00 L 40939406.00 23531192.00 L 40939406.00 23649302.00  zM 40939406.00 23846153.00 L 40585076.00 23846153.00 L 40585076.00 23728043.00 L 40939406.00 23728043.00 L 40939406.00 23846153.00  zM 40939406.00 24043003.00 L 40585076.00 24043003.00 L 40585076.00 23924893.00 L 40939406.00 23924893.00 L 40939406.00 24043003.00  zM 40939406.00 24239854.00 L 40585076.00 24239854.00 L 40585076.00 24121744.00 L 40939406.00 24121744.00 L 40939406.00 24239854.00  zM 40939406.00 24436704.00 L 40585076.00 24436704.00 L 40585076.00 24318594.00 L 40939406.00 24318594.00 L 40939406.00 24436704.00  zM 40939406.00 24633554.00 L 40585076.00 24633554.00 L 40585076.00 24515444.00 L 40939406.00 24515444.00 L 40939406.00 24633554.00  zM 40939406.00 24830405.00 L 40585076.00 24830405.00 L 40585076.00 24712295.00 L 40939406.00 24712295.00 L 40939406.00 24830405.00  zM 40939406.00 25027255.00 L 40585076.00 25027255.00 L 40585076.00 24909145.00 L 40939406.00 24909145.00 L 40939406.00 25027255.00  zM 40939406.00 25224106.00 L 40585076.00 25224106.00 L 40585076.00 25105996.00 L 40939406.00 25105996.00 L 40939406.00 25224106.00  zM 24099643.00 30341823.00 L 23450037.00 30341823.00 L 23450037.00 29928437.00 L 24099643.00 29928437.00 L 24099643.00 30341823.00  zM 24099643.00 31641035.00 L 23450037.00 31641035.00 L 23450037.00 31227649.00 L 24099643.00 31227649.00 L 24099643.00 31641035.00  zM 28585076.00 28791429.00 L 27935470.00 28791429.00 L 27935470.00 28378043.00 L 28585076.00 28378043.00 L 28585076.00 28791429.00  zM 28585076.00 27492217.00 L 27935470.00 27492217.00 L 27935470.00 27078831.00 L 28585076.00 27078831.00 L 28585076.00 27492217.00  zM 30514210.00 28791429.00 L 29864604.00 28791429.00 L 29864604.00 28378043.00 L 30514210.00 28378043.00 L 30514210.00 28791429.00  zM 30514210.00 27492217.00 L 29864604.00 27492217.00 L 29864604.00 27078831.00 L 30514210.00 27078831.00 L 30514210.00 27492217.00  zM 30970509.00 30491823.00 L 30320903.00 30491823.00 L 30320903.00 30078437.00 L 30970509.00 30078437.00 L 30970509.00 30491823.00  zM 32899643.00 30491823.00 L 32250037.00 30491823.00 L 32250037.00 30078437.00 L 32899643.00 30078437.00 L 32899643.00 30491823.00  zM 30970509.00 31791035.00 L 30320903.00 31791035.00 L 30320903.00 31377649.00 L 30970509.00 31377649.00 L 30970509.00 31791035.00  zM 32899643.00 31791035.00 L 32250037.00 31791035.00 L 32250037.00 31377649.00 L 32899643.00 31377649.00 L 32899643.00 31791035.00  zM 40939406.00 25420956.00 L 40585076.00 25420956.00 L 40585076.00 25302846.00 L 40939406.00 25302846.00 L 40939406.00 25420956.00  zM 40939406.00 25617806.00 L 40585076.00 25617806.00 L 40585076.00 25499696.00 L 40939406.00 25499696.00 L 40939406.00 25617806.00  zM 40939406.00 27980012.00 L 40585076.00 27980012.00 L 40585076.00 27861902.00 L 40939406.00 27861902.00 L 40939406.00 27980012.00  zM 40939406.00 29161114.00 L 40585076.00 29161114.00 L 40585076.00 29043004.00 L 40939406.00 29043004.00 L 40939406.00 29161114.00  zM 40939406.00 29554815.00 L 40585076.00 29554815.00 L 40585076.00 29436705.00 L 40939406.00 29436705.00 L 40939406.00 29554815.00  zM 40939406.00 29948516.00 L 40585076.00 29948516.00 L 40585076.00 29830406.00 L 40939406.00 29830406.00 L 40939406.00 29948516.00  zM 40939406.00 30145366.00 L 40585076.00 30145366.00 L 40585076.00 30027256.00 L 40939406.00 30027256.00 L 40939406.00 30145366.00  zM 40939406.00 31326468.00 L 40585076.00 31326468.00 L 40585076.00 31208358.00 L 40939406.00 31208358.00 L 40939406.00 31326468.00  zM 40927561.00 39027559.00 L 38627561.00 39027559.00 L 38627561.00 38377559.00 L 40927561.00 38377559.00 L 40927561.00 39027559.00  zM 41311454.00 26212214.00 L 40701218.00 26212214.00 A 200706.53 200706.53 0 0 1 40701218.00 25810800.00 L 41311454.00 25810800.00 A 200706.53 200706.53 0 0 1 41311454.00 26212214.00  zM 42533895.00 26232284.00 L 42022083.00 26232284.00 A 220780.35 220780.35 0 1 1 42022083.00 25790730.00 L 42533895.00 25790730.00 A 220780.35 220780.35 0 1 1 42533895.00 26232284.00  zM 42533895.00 27688978.00 L 42022083.00 27688978.00 A 220780.35 220780.35 0 1 1 42022083.00 27247424.00 L 42533895.00 27247424.00 A 220780.35 220780.35 0 1 1 42533895.00 27688978.00  zM 40939406.00 28176862.00 L 40585076.00 28176862.00 L 40585076.00 28058752.00 L 40939406.00 28058752.00 L 40939406.00 28176862.00  zM 41311454.00 27668908.00 L 40701218.00 27668908.00 A 200706.53 200706.53 0 0 1 40701218.00 27267494.00 L 41311454.00 27267494.00 A 200706.53 200706.53 0 0 1 41311454.00 27668908.00  zM 40939406.00 28373712.00 L 40585076.00 28373712.00 L 40585076.00 28255602.00 L 40939406.00 28255602.00 L 40939406.00 28373712.00  zM 40939406.00 28570563.00 L 40585076.00 28570563.00 L 40585076.00 28452453.00 L 40939406.00 28452453.00 L 40939406.00 28570563.00  zM 40939406.00 28767413.00 L 40585076.00 28767413.00 L 40585076.00 28649303.00 L 40939406.00 28649303.00 L 40939406.00 28767413.00  zM 40939406.00 28964264.00 L 40585076.00 28964264.00 L 40585076.00 28846154.00 L 40939406.00 28846154.00 L 40939406.00 28964264.00  zM 40939406.00 29357964.00 L 40585076.00 29357964.00 L 40585076.00 29239854.00 L 40939406.00 29239854.00 L 40939406.00 29357964.00  zM 40939406.00 29751665.00 L 40585076.00 29751665.00 L 40585076.00 29633555.00 L 40939406.00 29633555.00 L 40939406.00 29751665.00  zM 40939406.00 30342216.00 L 40585076.00 30342216.00 L 40585076.00 30224106.00 L 40939406.00 30224106.00 L 40939406.00 30342216.00  zM 40939406.00 30539067.00 L 40585076.00 30539067.00 L 40585076.00 30420957.00 L 40939406.00 30420957.00 L 40939406.00 30539067.00  zM 40939406.00 30735917.00 L 40585076.00 30735917.00 L 40585076.00 30617807.00 L 40939406.00 30617807.00 L 40939406.00 30735917.00  zM 40939406.00 30932768.00 L 40585076.00 30932768.00 L 40585076.00 30814658.00 L 40939406.00 30814658.00 L 40939406.00 30932768.00  zM 40939406.00 31129618.00 L 40585076.00 31129618.00 L 40585076.00 31011508.00 L 40939406.00 31011508.00 L 40939406.00 31129618.00  zM 42533895.00 31940946.00 L 42022083.00 31940946.00 A 220780.35 220780.35 0 1 1 42022083.00 31499392.00 L 42533895.00 31499392.00 A 220780.35 220780.35 0 1 1 42533895.00 31940946.00  zM 41311454.00 31920876.00 L 40701218.00 31920876.00 A 200706.53 200706.53 0 0 1 40701218.00 31519462.00 L 41311454.00 31519462.00 A 200706.53 200706.53 0 0 1 41311454.00 31920876.00  zM 41983817.07 38122366.58 m -672513.42 0 a 672513.42 672513.42 0 1 1 1345026.84 0a 672513.42 672513.42 0 1 1 -1345026.84 0"/>
<path id="N" d="M 9318371.00 32695235.00 L 9306913.00 32637630.00 L 9317512.32 32584342.00 L 9096972.51 32584342.00 L 9107941.00 32639486.00 L 9096483.00 32697091.00 L 9092900.91 32702452.00 L 9323193.22 32702452.00 L 9318371.00 32695235.00  z"/>
<path id="N" d="M 9025233.00 32278486.01 L 9016840.00 32284094.00 L 8959235.00 32295552.00 L 8907123.00 32285186.59 L 8907123.00 32498958.60 L 8957411.00 32488956.00 L 9015016.00 32500414.00 L 9025233.00 32507240.75 L 9025233.00 32278486.01  z"/>
<path id="N" d="M 9517359.00 32288098.83 L 9509512.00 32293342.00 L 9451907.00 32304800.00 L 9399249.00 32294325.99 L 9399838.00 32498558.00 L 9457443.00 32487100.00 L 9515048.00 32498558.00 L 9517359.00 32500102.15 L 9517359.00 32288098.83  z"/>
<path id="N" d="M 9312835.00 32096665.00 L 9315807.71 32092216.00 L 9099261.55 32092216.00 L 9109765.00 32145022.00 L 9098307.00 32202627.00 L 9093162.72 32210326.00 L 9312526.89 32210326.00 L 9301377.00 32154270.00 L 9312835.00 32096665.00  z"/>
</g>
</svg>
