<svg width="90.10193816mm" height="80.07736588mm" viewBox="0 0 35473204 31526522"  version="1.1" xmlns="http://www.w3.org/2000/svg" xmlns:xlink="http://www.w3.org/1999/xlink">
<desc>
Origin 10000002 18350000 Bound 9930167 3280165 35473204 31526522
</desc>
<g fill-rule="evenodd" fill="rgb(128, 128, 0)" stroke="black" stroke-width="1" transform="translate(0, 31526522) scale(1, -1) translate(-9930167, -3280165)">
<path id="N" d="M 32164806.00 8451025.00 L 32172732.00 8431891.00 L 32172732.00 8331496.00 L 32175017.00 8331496.00 A 226199.07 226199.07 0 0 0 31948821.00 8105300.00 L 31948821.00 8107586.00 L 29887797.00 8107585.00 L 29885005.47 8108741.35 A 516327.53 516327.53 0 0 1 29518895.00 7956305.00 A 521694.55 521694.55 0 0 1 29366458.07 7590190.10 L 29367613.00 7587402.00 L 29369899.00 7587402.00 A 226199.07 226199.07 0 0 0 29143703.00 7361206.00 L 29143703.00 7363492.00 L 29124569.00 7371418.00 L 29116643.00 7390552.00 L 29124569.00 7409686.00 L 29143703.00 7417283.00 A 170120.12 170120.12 0 0 1 29313494.00 7587402.00 L 29310616.00 7587402.00 A 577176.27 577176.27 0 0 0 29887798.00 8164584.00 L 29887800.41 8161705.00 L 31949357.57 8161483.73 A 169419.11 169419.11 0 0 1 32118612.00 8331498.41 L 32118612.00 8431891.00 L 32126538.00 8451025.00 L 32145672.00 8458951.00 L 32164806.00 8451025.00  z"/>
<path id="N" d="M 24167167.00 13301024.00 L 24175093.00 13281890.00 L 24175093.00 13181496.00 L 24177379.00 13181496.00 A 226199.07 226199.07 0 0 0 23951183.00 12955300.00 L 23951183.00 12957586.00 L 21890159.00 12957586.00 L 21887369.06 12958741.69 A 516325.25 516325.25 0 0 1 21521256.00 12806305.00 A 521694.55 521694.55 0 0 1 21368819.07 12440190.10 L 21369974.00 12437402.00 L 21372260.00 12437402.00 A 226199.07 226199.07 0 0 0 21146064.00 12211206.00 L 21146064.00 12213492.00 L 21126930.00 12221418.00 L 21119004.00 12240552.00 L 21126930.00 12259686.00 L 21146064.00 12267283.00 A 170120.12 170120.12 0 0 1 21315855.00 12437402.00 L 21312977.00 12437402.00 A 577176.27 577176.27 0 0 0 21890159.00 13014584.00 L 21890159.00 13011706.00 L 23951719.57 13011483.73 A 169419.11 169419.11 0 0 1 24120973.00 13181496.00 L 24120973.00 13281890.00 L 24128899.00 13301024.00 L 24148033.00 13308950.00 L 24167167.00 13301024.00  z"/>
<path id="N" d="M 16417167.00 13301024.00 L 16425093.00 13281890.00 L 16425094.00 13181496.00 L 16427379.00 13181496.00 A 226199.07 226199.07 0 0 0 16201183.00 12955300.00 L 16201183.00 12957586.00 L 14140160.00 12957586.00 L 14137370.06 12958741.69 A 516332.53 516332.53 0 0 1 13771257.00 12806305.00 A 521694.55 521694.55 0 0 1 13618820.07 12440190.10 L 13619975.00 12437402.00 L 13622261.00 12437402.00 A 226199.07 226199.07 0 0 0 13396065.00 12211206.00 L 13396065.00 12213492.00 L 13376931.00 12221418.00 L 13369005.00 12240552.00 L 13376931.00 12259686.00 L 13396065.00 12267283.00 A 170120.12 170120.12 0 0 1 13565856.00 12437402.00 L 13562978.00 12437402.00 A 577176.27 577176.27 0 0 0 14140160.00 13014584.00 L 14140160.00 13011706.00 L 16201719.57 13011483.73 A 169419.11 169419.11 0 0 1 16370974.00 13181498.41 L 16370973.00 13281890.00 L 16378899.00 13301024.00 L 16398033.00 13308950.00 L 16417167.00 13301024.00  z"/>
<path id="N" d="M 32162444.00 13301025.00 L 32170370.00 13281891.00 L 32170370.00 13181496.00 L 32172655.00 13181496.00 A 226199.07 226199.07 0 0 0 31946459.00 12955300.00 L 31946459.00 12957586.00 L 29885436.00 12957586.00 L 29882646.06 12958741.69 A 516332.53 516332.53 0 0 1 29516533.00 12806305.00 A 521694.55 521694.55 0 0 1 29364096.07 12440190.10 L 29365251.00 12437402.00 L 29367537.00 12437402.00 A 226199.07 226199.07 0 0 0 29141341.00 12211206.00 L 29141341.00 12213492.00 L 29122207.00 12221418.00 L 29114281.00 12240552.00 L 29122207.00 12259686.00 L 29141341.00 12267283.00 A 170120.12 170120.12 0 0 1 29311132.00 12437402.00 L 29308254.00 12437402.00 A 577176.27 577176.27 0 0 0 29885436.00 13014584.00 L 29885436.00 13011706.00 L 31946995.57 13011483.73 A 169419.11 169419.11 0 0 1 32116250.00 13181498.41 L 32116250.00 13281891.00 L 32124176.00 13301025.00 L 32143310.00 13308951.00 L 32162444.00 13301025.00  z"/>
<path id="N" d="M 24167168.00 8451024.00 L 24175094.00 8431890.00 L 24175093.00 8331496.00 L 24177379.00 8331496.00 A 226199.07 226199.07 0 0 0 23951183.00 8105300.00 L 23951183.00 8107586.00 L 21890159.00 8107586.00 L 21887369.06 8108741.69 A 516325.25 516325.25 0 0 1 21521256.00 7956305.00 A 521694.55 521694.55 0 0 1 21368819.31 7590191.94 L 21369975.00 7587402.00 L 21372261.00 7587402.00 A 226199.07 226199.07 0 0 0 21146065.00 7361206.00 L 21146065.00 7363492.00 L 21126931.00 7371418.00 L 21119005.00 7390552.00 L 21126931.00 7409686.00 L 21146065.00 7417283.00 A 170120.12 170120.12 0 0 1 21315855.00 7587402.00 L 21312977.00 7587402.00 A 577176.27 577176.27 0 0 0 21890159.00 8164584.00 L 21890159.00 8161706.00 L 23951719.57 8161483.73 A 169419.11 169419.11 0 0 1 24120973.00 8331496.00 L 24120974.00 8431890.00 L 24128900.00 8451024.00 L 24148034.00 8458950.00 L 24167168.00 8451024.00  z"/>
<path id="N" d="M 16414805.00 8451025.00 L 16422731.00 8431891.00 L 16422731.00 8331496.00 L 16425017.00 8331496.00 A 226199.07 226199.07 0 0 0 16198821.00 8105300.00 L 16198821.00 8107586.00 L 14137797.00 8107585.00 L 14135005.47 8108741.35 A 516327.53 516327.53 0 0 1 13768895.00 7956305.00 A 521694.55 521694.55 0 0 1 13616458.07 7590190.10 L 13617613.00 7587402.00 L 13619899.00 7587402.00 A 226199.07 226199.07 0 0 0 13393703.00 7361206.00 L 13393703.00 7363492.00 L 13374569.00 7371418.00 L 13366643.00 7390552.00 L 13374569.00 7409686.00 L 13393703.00 7417283.00 A 170120.12 170120.12 0 0 1 13563494.00 7587402.00 L 13560616.00 7587402.00 A 577176.27 577176.27 0 0 0 14137798.00 8164584.00 L 14137800.41 8161705.00 L 16199358.24 8161483.87 A 169418.23 169418.23 0 0 1 16368611.00 8331496.00 L 16368611.00 8431891.00 L 16376537.00 8451025.00 L 16395671.00 8458951.00 L 16414805.00 8451025.00  z"/>
<path id="N" d="M 30654154.00 10949903.00 L 30654154.00 10650000.00 L 30649333.10 10638360.92 L 30648440.00 10625797.00 L 30641712.24 10619961.92 L 30638303.00 10611731.00 L 30626663.49 10606909.92 L 30617148.00 10598657.00 L 30608263.29 10599288.57 L 30600034.00 10595880.00 L 30588394.92 10600700.90 L 30575831.00 10601594.00 L 30387322.06 10695848.00 L 30322549.00 10695848.00 L 30254283.00 10627582.00 L 30254283.00 10472483.00 L 30322549.00 10404217.00 L 30477648.00 10404217.00 L 30561765.00 10488334.00 A 54121.84 54121.84 0 0 0 30638303.00 10411796.00 L 30538335.00 10311828.00 L 30500063.59 10295977.00 L 30300131.00 10295977.00 L 30261862.00 10311828.00 L 30161894.00 10411796.00 L 30146043.00 10450067.41 L 30146043.00 10650000.00 L 30161894.00 10688269.00 L 30261862.00 10788237.00 L 30300133.41 10804088.00 L 30400099.00 10804088.00 L 30411737.93 10799267.16 L 30424303.00 10798374.00 L 30545914.00 10737567.89 L 30545914.00 10895783.00 L 30200163.00 10895783.00 A 54118.70 54118.70 0 0 0 30200163.00 11004023.00 L 30600034.00 11004023.00 L 30638303.00 10988172.00 L 30654154.00 10949903.00  z"/>
<path id="N" d="M 19206516.00 15499903.00 L 19206516.00 15200000.00 L 19201695.10 15188360.92 L 19200802.00 15175797.00 L 19194074.24 15169961.92 L 19190665.00 15161731.00 L 19179025.49 15156909.92 L 19169510.00 15148657.00 L 19160625.29 15149288.57 L 19152396.00 15145880.00 L 19140756.92 15150700.90 L 19128193.00 15151594.00 L 18939684.06 15245848.00 L 18874911.00 15245848.00 L 18806645.00 15177582.00 L 18806645.00 15022483.00 L 18874911.00 14954217.00 L 19030010.00 14954217.00 L 19114127.00 15038334.00 A 54121.84 54121.84 0 0 0 19190665.00 14961796.00 L 19090697.00 14861828.00 L 19052425.59 14845977.00 L 18852493.00 14845977.00 L 18814224.00 14861828.00 L 18714256.00 14961796.00 L 18698405.00 15000067.41 L 18698405.00 15200000.00 L 18714256.00 15238269.00 L 18814224.00 15338237.00 L 18852495.41 15354088.00 L 18952461.00 15354088.00 L 18964099.93 15349267.16 L 18976665.00 15348374.00 L 19098276.00 15287567.89 L 19098276.00 15445783.00 L 18752525.00 15445783.00 A 54118.70 54118.70 0 1 0 18752525.00 15554023.00 L 19152396.00 15554023.00 L 19190665.00 15538172.00 L 19206516.00 15499903.00  z"/>
<path id="N" d="M 16127692.41 11904023.00 L 16327625.00 11904023.00 L 16365894.00 11888172.00 L 16465862.00 11788204.00 A 54119.43 54119.43 0 1 0 16389324.00 11711666.00 L 16305207.00 11795783.00 L 16150108.00 11795783.00 L 16081842.00 11727517.00 L 16081842.00 11672386.00 L 16150108.00 11604120.00 L 16227658.00 11604120.00 A 54118.70 54118.70 0 0 0 16227658.00 11495880.00 L 16150108.00 11495880.00 L 16081842.00 11427614.00 L 16081842.00 11372483.00 L 16150108.00 11304217.00 L 16305207.00 11304217.00 L 16389324.00 11388334.00 A 54121.84 54121.84 0 0 0 16465862.00 11311796.00 L 16365894.00 11211828.00 L 16327622.59 11195977.00 L 16127690.00 11195977.00 L 16089421.00 11211828.00 L 15989453.00 11311796.00 L 15973602.00 11350067.41 L 15973602.00 11450032.00 L 15989453.00 11488301.00 L 16051152.00 11550000.00 L 15989453.00 11611699.00 L 15973602.00 11649970.41 L 15973602.00 11749935.00 L 15989453.00 11788204.00 L 16089421.00 11888172.00 L 16127692.41 11904023.00  z"/>
<path id="N" d="M 27500133.41 10704023.00 L 27700066.00 10704023.00 L 27738335.00 10688172.00 L 27838303.00 10588204.00 A 54119.43 54119.43 0 1 0 27761765.00 10511666.00 L 27677648.00 10595783.00 L 27522549.00 10595783.00 L 27454283.00 10527517.00 L 27454283.00 10472386.00 L 27522549.00 10404120.00 L 27600099.00 10404120.00 A 54118.70 54118.70 0 0 0 27600099.00 10295880.00 L 27522549.00 10295880.00 L 27454283.00 10227614.00 L 27454283.00 10172483.00 L 27522549.00 10104217.00 L 27677648.00 10104217.00 L 27761765.00 10188334.00 A 54121.84 54121.84 0 1 0 27838303.00 10111796.00 L 27738335.00 10011828.00 L 27700063.59 9995977.00 L 27500131.00 9995977.00 L 27461862.00 10011828.00 L 27361894.00 10111796.00 L 27346043.00 10150067.41 L 27346043.00 10250032.00 L 27361894.00 10288301.00 L 27423593.00 10350000.00 L 27361894.00 10411699.00 L 27346043.00 10449970.41 L 27346043.00 10549935.00 L 27361894.00 10588204.00 L 27461862.00 10688172.00 L 27500133.41 10704023.00  z"/>
<path id="N" d="M 31600133.41 16704023.00 L 31800066.00 16704023.00 L 31838335.00 16688172.00 L 31938303.00 16588204.00 L 31954154.00 16549932.59 L 31954154.00 16449968.00 L 31938303.00 16411699.00 L 31876604.00 16350000.00 L 31938303.00 16288301.00 L 31954154.00 16250029.59 L 31954154.00 16150065.00 L 31938303.00 16111796.00 L 31838335.00 16011828.00 L 31800063.59 15995977.00 L 31600131.00 15995977.00 L 31561862.00 16011828.00 L 31461894.00 16111796.00 L 31446043.00 16150067.41 L 31446043.00 16250032.00 L 31461894.00 16288301.00 L 31523593.00 16350000.00 L 31461894.00 16411699.00 L 31446043.00 16449970.41 L 31446043.00 16549935.00 L 31461894.00 16588204.00 L 31561862.00 16688172.00 L 31600133.41 16704023.00  zM 31777648.00 16295880.00 L 31622549.00 16295880.00 L 31554283.00 16227614.00 L 31554283.00 16172483.00 L 31622549.00 16104217.00 L 31777648.00 16104217.00 L 31845914.00 16172483.00 L 31845914.00 16227614.00 L 31777648.00 16295880.00  zM 31777648.00 16595783.00 L 31622549.00 16595783.00 L 31554283.00 16527517.00 L 31554283.00 16472386.00 L 31622549.00 16404120.00 L 31777648.00 16404120.00 L 31845914.00 16472386.00 L 31845914.00 16527517.00 L 31777648.00 16595783.00  z"/>
<path id="N" d="M 11890503.00 15488172.00 L 11990471.00 15388204.00 L 12006322.00 15349935.00 L 12006323.00 15249968.00 L 11990471.00 15211699.00 L 11890503.00 15111731.00 L 11852234.00 15095880.00 L 11674717.00 15095880.00 L 11606451.00 15027614.00 L 11606451.00 14972483.00 L 11674717.00 14904217.00 L 11829816.00 14904217.00 L 11913933.00 14988334.00 A 54121.84 54121.84 0 0 0 11990471.00 14911796.00 L 11890503.00 14811828.00 L 11852231.59 14795977.00 L 11652299.00 14795977.00 L 11614030.00 14811828.00 L 11514062.00 14911796.00 L 11498211.00 14950067.41 L 11498211.00 15050032.00 L 11514062.00 15088301.00 L 11614030.00 15188269.00 L 11652301.41 15204120.00 L 11829816.00 15204120.00 L 11898082.00 15272386.00 L 11898082.00 15327517.00 L 11829816.00 15395783.00 L 11674717.00 15395783.00 L 11590600.00 15311666.00 A 54119.43 54119.43 0 0 0 11514062.00 15388204.00 L 11614030.00 15488172.00 L 11652299.00 15504023.00 L 11852234.00 15504024.00 L 11890503.00 15488172.00  z"/>
<path id="N" d="M 27688141.00 15488172.00 L 27788109.00 15388204.00 L 27803960.00 15349935.00 L 27803961.00 15249968.00 L 27788109.00 15211699.00 L 27688141.00 15111731.00 L 27649872.00 15095880.00 L 27472355.00 15095880.00 L 27404089.00 15027614.00 L 27404089.00 14972483.00 L 27472355.00 14904217.00 L 27627454.00 14904217.00 L 27711571.00 14988334.00 A 54121.84 54121.84 0 0 0 27788109.00 14911796.00 L 27688141.00 14811828.00 L 27649869.59 14795977.00 L 27449937.00 14795977.00 L 27411668.00 14811828.00 L 27311700.00 14911796.00 L 27295849.00 14950067.41 L 27295849.00 15050032.00 L 27311700.00 15088301.00 L 27411668.00 15188269.00 L 27449939.41 15204120.00 L 27627454.00 15204120.00 L 27695720.00 15272386.00 L 27695720.00 15327517.00 L 27627454.00 15395783.00 L 27472355.00 15395783.00 L 27388238.00 15311666.00 A 54119.43 54119.43 0 0 0 27311700.00 15388204.00 L 27411668.00 15488172.00 L 27449937.00 15504023.00 L 27649872.00 15504024.00 L 27688141.00 15488172.00  z"/>
<path id="N" d="M 28338141.00 10688172.00 L 28438109.00 10588204.00 L 28453960.00 10549935.00 L 28453961.00 10449968.00 L 28438109.00 10411699.00 L 28338141.00 10311731.00 L 28299872.00 10295880.00 L 28122355.00 10295880.00 L 28054089.00 10227614.00 L 28054089.00 10172483.00 L 28122355.00 10104217.00 L 28277454.00 10104217.00 L 28361571.00 10188334.00 A 54121.84 54121.84 0 0 0 28438109.00 10111796.00 L 28338141.00 10011828.00 L 28299869.59 9995977.00 L 28099937.00 9995977.00 L 28061668.00 10011828.00 L 27961700.00 10111796.00 L 27945849.00 10150067.41 L 27945849.00 10250032.00 L 27961700.00 10288301.00 L 28061668.00 10388269.00 L 28099939.41 10404120.00 L 28277454.00 10404120.00 L 28345720.00 10472386.00 L 28345720.00 10527517.00 L 28277454.00 10595783.00 L 28122355.00 10595783.00 L 28038238.00 10511666.00 A 54119.43 54119.43 0 0 0 27961700.00 10588204.00 L 28061668.00 10688172.00 L 28099937.00 10704023.00 L 28299872.00 10704024.00 L 28338141.00 10688172.00  z"/>
<path id="N" d="M 19690503.00 15538172.00 L 19790471.00 15438204.00 L 19806322.00 15399935.00 L 19806323.00 15299968.00 L 19790471.00 15261699.00 L 19690503.00 15161731.00 L 19652234.00 15145880.00 L 19474717.00 15145880.00 L 19406451.00 15077614.00 L 19406451.00 15022483.00 L 19474717.00 14954217.00 L 19629816.00 14954217.00 L 19713933.00 15038334.00 A 54121.84 54121.84 0 0 0 19790471.00 14961796.00 L 19690503.00 14861828.00 L 19652231.59 14845977.00 L 19452299.00 14845977.00 L 19414030.00 14861828.00 L 19314062.00 14961796.00 L 19298211.00 15000067.41 L 19298211.00 15100032.00 L 19314062.00 15138301.00 L 19414030.00 15238269.00 L 19452301.41 15254120.00 L 19629816.00 15254120.00 L 19698082.00 15322386.00 L 19698082.00 15377517.00 L 19629816.00 15445783.00 L 19474717.00 15445783.00 L 19390600.00 15361666.00 A 54119.43 54119.43 0 1 0 19314062.00 15438204.00 L 19414030.00 15538172.00 L 19452299.00 15554023.00 L 19652234.00 15554024.00 L 19690503.00 15538172.00  z"/>
<path id="N" d="M 12088173.00 10888172.00 L 12188141.00 10788204.00 L 12203992.00 10749935.00 L 12203993.00 10649968.00 L 12188141.00 10611699.00 L 12088173.00 10511731.00 L 12049904.00 10495880.00 L 11872387.00 10495880.00 L 11804121.00 10427614.00 L 11804121.00 10372483.00 L 11872387.00 10304217.00 L 12027486.00 10304217.00 L 12111603.00 10388334.00 A 54121.84 54121.84 0 0 0 12188141.00 10311796.00 L 12088173.00 10211828.00 L 12049901.59 10195977.00 L 11849969.00 10195977.00 L 11811700.00 10211828.00 L 11711732.00 10311796.00 L 11695881.00 10350067.41 L 11695881.00 10450032.00 L 11711732.00 10488301.00 L 11811700.00 10588269.00 L 11849971.41 10604120.00 L 12027486.00 10604120.00 L 12095752.00 10672386.00 L 12095752.00 10727517.00 L 12027486.00 10795783.00 L 11872387.00 10795783.00 L 11788270.00 10711666.00 A 54119.43 54119.43 0 0 0 11711732.00 10788204.00 L 11811700.00 10888172.00 L 11849969.00 10904023.00 L 12049904.00 10904024.00 L 12088173.00 10888172.00  z"/>
<path id="N" d="M 20290502.00 10688172.00 L 20390470.00 10588204.00 L 20406321.00 10549935.00 L 20406322.00 10449968.00 L 20390470.00 10411699.00 L 20290502.00 10311731.00 L 20252233.00 10295880.00 L 20074716.00 10295880.00 L 20006450.00 10227614.00 L 20006450.00 10172483.00 L 20074716.00 10104217.00 L 20229815.00 10104217.00 L 20313932.00 10188334.00 A 54121.84 54121.84 0 0 0 20390470.00 10111796.00 L 20290502.00 10011828.00 L 20252230.59 9995977.00 L 20052298.00 9995977.00 L 20014029.00 10011828.00 L 19914061.00 10111796.00 L 19898210.00 10150067.41 L 19898210.00 10250032.00 L 19914061.00 10288301.00 L 20014029.00 10388269.00 L 20052300.41 10404120.00 L 20229815.00 10404120.00 L 20298081.00 10472386.00 L 20298081.00 10527517.00 L 20229815.00 10595783.00 L 20074716.00 10595783.00 L 19990599.00 10511666.00 A 54119.43 54119.43 0 0 0 19914061.00 10588204.00 L 20014029.00 10688172.00 L 20052298.00 10704023.00 L 20252233.00 10704024.00 L 20290502.00 10688172.00  z"/>
<path id="N" d="M 26774366.00 15498309.00 L 26974302.00 15398342.00 L 26980138.14 15391613.02 L 26988368.00 15388204.00 L 27188303.00 15188269.00 L 27204154.00 15149997.59 L 27204155.00 14950065.00 L 27188303.00 14911796.00 L 27088335.00 14811828.00 L 27050066.00 14795977.00 L 26850131.00 14795976.00 L 26811862.00 14811828.00 L 26711894.00 14911796.00 L 26696043.00 14950065.00 L 26696042.00 15050032.00 L 26711894.00 15088301.00 L 26811862.00 15188269.00 L 26850131.00 15204120.00 L 27019376.54 15204120.00 L 26918038.06 15305457.97 L 26725960.00 15401497.00 A 54118.07 54118.07 0 0 0 26774366.00 15498309.00  zM 27095914.00 15095880.00 L 26872549.00 15095880.00 L 26804283.00 15027614.00 L 26804283.00 14972483.00 L 26872549.00 14904217.00 L 27027648.00 14904217.00 L 27095914.00 14972483.00 L 27095914.00 15095880.00  z"/>
<path id="N" d="M 15724366.00 17398309.00 L 15924302.00 17298342.00 L 15930138.14 17291613.02 L 15938368.00 17288204.00 L 16138303.00 17088269.00 L 16154154.00 17049997.59 L 16154155.00 16850065.00 L 16138303.00 16811796.00 L 16038335.00 16711828.00 L 16000066.00 16695977.00 L 15800131.00 16695976.00 L 15761862.00 16711828.00 L 15661894.00 16811796.00 L 15646043.00 16850065.00 L 15646042.00 16950032.00 L 15661894.00 16988301.00 L 15761862.00 17088269.00 L 15800131.00 17104120.00 L 15969376.54 17104120.00 L 15868038.06 17205457.97 L 15675960.00 17301497.00 A 54118.07 54118.07 0 1 0 15724366.00 17398309.00  zM 16045914.00 16995880.00 L 15822549.00 16995880.00 L 15754283.00 16927614.00 L 15754283.00 16872483.00 L 15822549.00 16804217.00 L 15977648.00 16804217.00 L 16045914.00 16872483.00 L 16045914.00 16995880.00  z"/>
<path id="N" d="M 20516144.00 9736509.00 L 22858663.00 9736509.00 L 22877797.00 9728583.00 L 22885723.00 9709449.00 L 22877797.00 9690315.00 L 22858663.00 9682389.00 L 20515937.26 9682474.64 A 631942.99 631942.99 0 0 1 19883755.00 9050000.00 L 19883755.00 8668110.00 L 19875829.00 8648976.00 L 19856695.00 8641050.00 L 19837561.00 8648976.00 L 19829635.00 8668110.00 L 19829635.00 9050000.00 L 19828383.00 9050000.00 A 687744.53 687744.53 0 0 0 20516144.00 9737761.00 L 20516144.00 9736509.00  z"/>
<path id="N" d="M 20516146.41 14586508.00 L 22858664.00 14586508.00 L 22877798.00 14578582.00 L 22885724.00 14559448.00 L 22877798.00 14540314.00 L 22858664.00 14532388.00 L 20515936.12 14532474.53 A 631940.06 631940.06 0 0 1 19883755.00 13900000.00 L 19883755.00 13518110.00 L 19875829.00 13498976.00 L 19856695.00 13491050.00 L 19837561.00 13498976.00 L 19829635.00 13518110.00 L 19829635.00 13900000.00 L 19828383.00 13900000.00 A 687744.53 687744.53 0 0 0 20516144.00 14587761.00 L 20516146.41 14586508.00  z"/>
<path id="N" d="M 28513784.41 9736508.00 L 30856301.00 9736508.00 L 30875435.00 9728582.00 L 30883361.00 9709448.00 L 30875435.00 9690314.00 L 30856301.00 9682388.00 L 28513573.31 9682474.45 A 631937.99 631937.99 0 0 1 27881393.00 9049999.00 L 27881393.00 8668109.00 L 27873467.00 8648975.00 L 27854333.00 8641049.00 L 27835199.00 8648975.00 L 27827273.00 8668109.00 L 27827273.00 9050000.00 L 27826021.00 9050000.00 A 687744.53 687744.53 0 0 0 28513782.00 9737761.00 L 28513784.41 9736508.00  z"/>
<path id="N" d="M 12766146.41 14586508.00 L 15108663.00 14586508.00 L 15127797.00 14578582.00 L 15135723.00 14559448.00 L 15127797.00 14540314.00 L 15108663.00 14532388.00 L 12765935.31 14532474.45 A 631937.99 631937.99 0 0 1 12133754.00 13899997.59 L 12133754.00 13518110.00 L 12125828.00 13498976.00 L 12106694.00 13491050.00 L 12087560.00 13498976.00 L 12079634.00 13518110.00 L 12079634.00 13900000.00 L 12078383.00 13900000.00 A 687744.53 687744.53 0 0 0 12766144.00 14587761.00 L 12766146.41 14586508.00  z"/>
<path id="N" d="M 28511422.41 14586508.00 L 30853939.00 14586508.00 L 30873073.00 14578582.00 L 30880999.00 14559448.00 L 30873073.00 14540314.00 L 30853939.00 14532388.00 L 28511211.31 14532474.45 A 631937.99 631937.99 0 0 1 27879030.00 13899997.59 L 27879030.00 13518110.00 L 27871104.00 13498976.00 L 27851970.00 13491050.00 L 27832836.00 13498976.00 L 27824910.00 13518110.00 L 27824910.00 13900000.00 L 27823659.00 13900000.00 A 687744.53 687744.53 0 0 0 28511420.00 14587761.00 L 28511422.41 14586508.00  z"/>
<path id="N" d="M 12763782.00 9736509.00 L 15106301.00 9736509.00 L 15125435.00 9728583.00 L 15133361.00 9709449.00 L 15125435.00 9690315.00 L 15106301.00 9682389.00 L 12763575.26 9682474.64 A 631942.99 631942.99 0 0 1 12131393.00 9049999.00 L 12131393.00 8668109.00 L 12123467.00 8648975.00 L 12104333.00 8641049.00 L 12085199.00 8648975.00 L 12077273.00 8668109.00 L 12077273.00 9050000.00 L 12076021.00 9050000.00 A 687744.53 687744.53 0 0 0 12763782.00 9737761.00 L 12763782.00 9736509.00  z"/>
<path id="N" d="M 19690696.00 10688172.00 L 19790664.00 10588204.00 A 54121.84 54121.84 0 0 0 19714126.00 10511666.00 L 19630009.00 10595783.00 L 19474910.00 10595783.00 L 19406644.00 10527517.00 L 19406644.00 10472386.00 L 19790664.00 10088366.00 A 54119.43 54119.43 0 0 0 19752392.59 9995977.00 L 19352524.00 9995977.00 A 54118.70 54118.70 0 0 0 19352524.00 10104217.00 L 19621737.00 10104217.00 L 19314255.00 10411699.00 L 19298404.00 10449970.41 L 19298403.00 10549935.00 L 19314255.00 10588204.00 L 19414223.00 10688172.00 L 19452492.00 10704023.00 L 19652427.00 10704024.00 L 19690696.00 10688172.00  z"/>
<path id="N" d="M 23738400.00 11838172.00 L 24038303.00 11538269.00 A 54119.43 54119.43 0 0 0 24000031.59 11445880.00 L 23754251.00 11445880.00 L 23754251.00 11200097.00 A 54118.70 54118.70 0 0 0 23646011.00 11200097.00 L 23646011.00 11445880.00 L 23600163.00 11445880.00 A 54118.70 54118.70 0 1 0 23600163.00 11554120.00 L 23646011.00 11554120.00 L 23646010.00 11799903.00 A 54122.11 54122.11 0 0 0 23738400.00 11838172.00  zM 23754251.00 11669245.00 L 23754251.00 11554120.00 L 23869376.00 11554120.00 L 23754251.00 11669245.00  z"/>
<path id="N" d="M 11090762.00 15488172.00 L 11390665.00 15188269.00 A 54119.43 54119.43 0 0 0 11352393.59 15095880.00 L 11106613.00 15095880.00 L 11106613.00 14850097.00 A 54118.70 54118.70 0 0 0 10998373.00 14850097.00 L 10998373.00 15095880.00 L 10952525.00 15095880.00 A 54118.70 54118.70 0 1 0 10952525.00 15204120.00 L 10998373.00 15204120.00 L 10998372.00 15449903.00 A 54122.11 54122.11 0 0 0 11090762.00 15488172.00  zM 11106613.00 15319245.00 L 11106613.00 15204120.00 L 11221738.00 15204120.00 L 11106613.00 15319245.00  z"/>
<path id="N" d="M 11488367.00 10888172.00 L 11588335.00 10788204.00 A 54121.84 54121.84 0 1 0 11504218.00 10719245.00 L 11504218.00 10304217.00 L 11550066.00 10304217.00 A 54118.70 54118.70 0 0 0 11550066.00 10195977.00 L 11350131.00 10195977.00 A 54118.70 54118.70 0 1 0 11350131.00 10304217.00 L 11395978.00 10304217.00 L 11395977.00 10849903.00 A 54122.11 54122.11 0 0 0 11488367.00 10888172.00  z"/>
<path id="N" d="M 31253960.00 10949903.00 L 31253960.00 10350097.00 L 31238109.00 10311828.00 L 31199840.00 10295977.00 L 30899937.00 10295976.00 L 30861668.00 10311828.00 L 30761700.00 10411796.00 L 30745849.00 10450065.00 L 30745848.00 10849935.00 L 30761700.00 10888204.00 L 30861668.00 10988172.00 L 30899937.00 11004023.00 L 31199840.00 11004023.00 L 31238109.00 10988172.00 L 31253960.00 10949903.00  zM 31145720.00 10895783.00 L 30922355.00 10895783.00 L 30854089.00 10827517.00 L 30854089.00 10472483.00 L 30922355.00 10404217.00 L 31145720.00 10404217.00 L 31145720.00 10895783.00  z"/>
<path id="N" d="M 17081519.00 11849903.00 L 17081519.00 11250097.00 L 17065668.00 11211828.00 L 17027399.00 11195977.00 L 16727496.00 11195976.00 L 16689227.00 11211828.00 L 16589259.00 11311796.00 L 16573408.00 11350065.00 L 16573407.00 11749935.00 L 16589259.00 11788204.00 L 16689227.00 11888172.00 L 16727496.00 11904023.00 L 17027399.00 11904023.00 L 17065668.00 11888172.00 L 17081519.00 11849903.00  zM 16973279.00 11795783.00 L 16749914.00 11795783.00 L 16681648.00 11727517.00 L 16681648.00 11372483.00 L 16749914.00 11304217.00 L 16973279.00 11304217.00 L 16973279.00 11795783.00  z"/>
<path id="N" d="M 24653960.00 11799903.00 L 24653960.00 11200097.00 L 24638109.00 11161828.00 L 24599840.00 11145977.00 L 24299937.00 11145976.00 L 24261668.00 11161828.00 L 24161700.00 11261796.00 L 24145849.00 11300065.00 L 24145848.00 11699935.00 L 24161700.00 11738204.00 L 24261668.00 11838172.00 L 24299937.00 11854023.00 L 24599840.00 11854023.00 L 24638109.00 11838172.00 L 24653960.00 11799903.00  zM 24545720.00 11745783.00 L 24322355.00 11745783.00 L 24254089.00 11677517.00 L 24254089.00 11322483.00 L 24322355.00 11254217.00 L 24545720.00 11254217.00 L 24545720.00 11745783.00  z"/>
<path id="N" d="M 23785432.00 16885556.00 L 23439681.00 16885556.00 L 23439681.00 16862126.00 L 23823701.00 16478107.00 L 23839552.00 16439838.00 L 23839552.00 16339870.00 A 54118.70 54118.70 0 0 0 23731312.00 16339870.00 L 23731312.00 16417420.92 L 23347292.00 16801439.00 L 23331441.00 16839710.41 L 23331441.00 16939676.00 L 23347292.00 16977945.00 L 23385561.00 16993796.00 L 23785432.00 16993796.00 A 54121.84 54121.84 0 1 0 23785432.00 16885556.00  z"/>
<path id="N" d="M 16753960.00 17349903.00 L 16753960.00 16750097.00 L 16738109.00 16711828.00 L 16699840.00 16695977.00 L 16399937.00 16695976.00 L 16361668.00 16711828.00 L 16261700.00 16811796.00 L 16245849.00 16850065.00 L 16245848.00 17249935.00 L 16261700.00 17288204.00 L 16361668.00 17388172.00 L 16399937.00 17404023.00 L 16699840.00 17404023.00 L 16738109.00 17388172.00 L 16753960.00 17349903.00  zM 16645720.00 17295783.00 L 16422355.00 17295783.00 L 16354089.00 17227517.00 L 16354089.00 16872483.00 L 16422355.00 16804217.00 L 16645720.00 16804217.00 L 16645720.00 17295783.00  z"/>
<path id="N" d="M 24439358.00 16939676.00 L 24439358.00 16339870.00 L 24423507.00 16301601.00 L 24385238.00 16285750.00 L 24085335.00 16285749.00 L 24047066.00 16301601.00 L 23947098.00 16401569.00 L 23931247.00 16439838.00 L 23931246.00 16839708.00 L 23947098.00 16877977.00 L 24047066.00 16977945.00 L 24085335.00 16993796.00 L 24385238.00 16993796.00 L 24423507.00 16977945.00 L 24439358.00 16939676.00  zM 24331118.00 16885556.00 L 24107753.00 16885556.00 L 24039487.00 16817290.00 L 24039487.00 16462256.00 L 24107753.00 16393990.00 L 24331118.00 16393990.00 L 24331118.00 16885556.00  z"/>
<path id="N" d="M 32553960.00 16649903.00 L 32553960.00 16050097.00 L 32538109.00 16011828.00 L 32499840.00 15995977.00 L 32199937.00 15995976.00 L 32161668.00 16011828.00 L 32061700.00 16111796.00 L 32045849.00 16150065.00 L 32045848.00 16549935.00 L 32061700.00 16588204.00 L 32161668.00 16688172.00 L 32199937.00 16704023.00 L 32499840.00 16704023.00 L 32538109.00 16688172.00 L 32553960.00 16649903.00  zM 32445720.00 16595783.00 L 32222355.00 16595783.00 L 32154089.00 16527517.00 L 32154089.00 16172483.00 L 32222355.00 16104217.00 L 32445720.00 16104217.00 L 32445720.00 16595783.00  z"/>
<path id="N" d="M 26611815.92 12888191.92 m -80279.37 0 a 80279.37 80279.37 0 1 1 160558.73 0a 80279.37 80279.37 0 1 1 -160558.73 0"/>
<path id="N" d="M 10866539.92 12888191.92 m -80279.37 0 a 80279.37 80279.37 0 1 1 160558.73 0a 80279.37 80279.37 0 1 1 -160558.73 0"/>
<path id="N" d="M 18616539.92 8038191.92 m -80279.37 0 a 80279.37 80279.37 0 1 1 160558.73 0a 80279.37 80279.37 0 1 1 -160558.73 0"/>
<path id="N" d="M 26614177.92 8038191.92 m -80279.37 0 a 80279.37 80279.37 0 1 1 160558.73 0a 80279.37 80279.37 0 1 1 -160558.73 0"/>
<path id="N" d="M 18616539.92 12888192.92 m -80279.37 0 a 80279.37 80279.37 0 1 1 160558.73 0a 80279.37 80279.37 0 1 1 -160558.73 0"/>
<path id="N" d="M 10864177.92 8038191.92 m -80279.37 0 a 80279.37 80279.37 0 1 1 160558.73 0a 80279.37 80279.37 0 1 1 -160558.73 0"/>
<path id="N" d="M 32514781.00 10484070.00 L 32527262.00 10453937.00 L 32514781.00 10423804.00 L 32484648.00 10411323.00 L 31480711.00 10411323.00 L 31450578.00 10423804.00 L 31438097.00 10453937.00 L 31450578.00 10484070.00 L 31480711.00 10496551.00 L 32484648.00 10496551.00 L 32514781.00 10484070.00  z"/>
<path id="N" d="M 24514781.00 15384070.00 L 24527262.00 15353937.00 L 24514781.00 15323804.00 L 24484648.00 15311323.00 L 23480711.00 15311323.00 L 23450578.00 15323804.00 L 23438097.00 15353937.00 L 23450578.00 15384070.00 L 23480711.00 15396551.00 L 24484648.00 15396551.00 L 24514781.00 15384070.00  z"/>
<path id="N" d="M 32514781.00 15284070.00 L 32527262.00 15253937.00 L 32514781.00 15223804.00 L 32484648.00 15211323.00 L 31480711.00 15211323.00 L 31450578.00 15223804.00 L 31438097.00 15253937.00 L 31450578.00 15284070.00 L 31480711.00 15296551.00 L 32484648.00 15296551.00 L 32514781.00 15284070.00  z"/>
<path id="N" d="M 24514781.00 10484070.00 L 24527262.00 10453937.00 L 24514781.00 10423804.00 L 24484648.00 10411323.00 L 23480711.00 10411323.00 L 23450578.00 10423804.00 L 23438097.00 10453937.00 L 23450578.00 10484070.00 L 23480711.00 10496551.00 L 24484648.00 10496551.00 L 24514781.00 10484070.00  z"/>
<path id="N" d="M 16814781.00 10534070.00 L 16827262.00 10503937.00 L 16814781.00 10473804.00 L 16784648.00 10461323.00 L 15780711.00 10461323.00 L 15750578.00 10473804.00 L 15738097.00 10503937.00 L 15750578.00 10534070.00 L 15780711.00 10546551.00 L 16784648.00 10546551.00 L 16814781.00 10534070.00  z"/>
<path id="N" d="M 16464781.00 15984070.00 L 16477262.00 15953937.00 L 16464781.00 15923804.00 L 16434648.00 15911323.00 L 15430711.00 15911323.00 L 15400578.00 15923804.00 L 15388097.00 15953937.00 L 15400578.00 15984070.00 L 15430711.00 15996551.00 L 16434648.00 15996551.00 L 16464781.00 15984070.00  z"/>
<path id="N" d="M 24514781.00 10976196.00 L 24527262.00 10946063.00 L 24514781.00 10915930.00 L 24484648.00 10903449.00 L 23815356.00 10903449.00 L 23785223.00 10915930.00 L 23772742.00 10946063.00 L 23785223.00 10976196.00 L 23815356.00 10988677.00 L 24484648.00 10988677.00 L 24514781.00 10976196.00  z"/>
<path id="N" d="M 32514781.00 10976196.00 L 32527262.00 10946063.00 L 32514781.00 10915930.00 L 32484648.00 10903449.00 L 31815356.00 10903449.00 L 31785223.00 10915930.00 L 31772742.00 10946063.00 L 31785223.00 10976196.00 L 31815356.00 10988677.00 L 32484648.00 10988677.00 L 32514781.00 10976196.00  z"/>
<path id="N" d="M 32514781.00 15776196.00 L 32527262.00 15746063.00 L 32514781.00 15715930.00 L 32484648.00 15703449.00 L 31815356.00 15703449.00 L 31785223.00 15715930.00 L 31772742.00 15746063.00 L 31785223.00 15776196.00 L 31815356.00 15788677.00 L 32484648.00 15788677.00 L 32514781.00 15776196.00  z"/>
<path id="N" d="M 24514781.00 15876196.00 L 24527262.00 15846063.00 L 24514781.00 15815930.00 L 24484648.00 15803449.00 L 23815356.00 15803449.00 L 23785223.00 15815930.00 L 23772742.00 15846063.00 L 23785223.00 15876196.00 L 23815356.00 15888677.00 L 24484648.00 15888677.00 L 24514781.00 15876196.00  z"/>
<path id="N" d="M 16814781.00 11026196.00 L 16827262.00 10996063.00 L 16814781.00 10965930.00 L 16784648.00 10953449.00 L 16115356.00 10953449.00 L 16085223.00 10965930.00 L 16072742.00 10996063.00 L 16085223.00 11026196.00 L 16115356.00 11038677.00 L 16784648.00 11038677.00 L 16814781.00 11026196.00  z"/>
<path id="N" d="M 16464781.00 16476196.00 L 16477262.00 16446063.00 L 16464781.00 16415930.00 L 16434648.00 16403449.00 L 15765356.00 16403449.00 L 15735223.00 16415930.00 L 15722742.00 16446063.00 L 15735223.00 16476196.00 L 15765356.00 16488677.00 L 16434648.00 16488677.00 L 16464781.00 16476196.00  z"/>
</g>
</svg>
