<svg width="90.10193816mm" height="80.07736588mm" viewBox="0 0 35473204 31526522"  version="1.1" xmlns="http://www.w3.org/2000/svg" xmlns:xlink="http://www.w3.org/1999/xlink">
<desc>
Origin 10000002 18350000 Bound 9930167 3280165 35473204 31526522
</desc>
<g fill-rule="evenodd" fill="rgb(255, 0, 255)" stroke="black" stroke-width="1" transform="translate(0, 31526522) scale(1, -1) translate(-9930167, -3280165)">
<path id="N" d="M 45403371.00 34338051.00 L 45403371.00 29916605.00 L 45381498.00 29894732.00 L 43149365.00 29894732.00 L 43149365.00 26253300.00 L 45381498.00 26253300.00 L 45401333.00 26233465.00 L 45401333.00 22964567.00 L 45381498.00 22944732.00 L 43149365.00 22944732.00 L 43149365.00 19303300.00 L 45381498.00 19303300.00 L 45401333.00 19283465.00 L 45401333.00 3748800.00 A 522334.30 522334.30 0 0 0 44932697.00 3280165.00 L 10398802.00 3280165.00 A 522308.41 522308.41 0 0 0 9930167.00 3748800.00 L 9930167.00 34338051.00 A 522308.41 522308.41 0 0 0 10398802.00 34806687.00 L 44934735.00 34806687.00 A 522375.99 522375.99 0 0 0 45403371.00 34338051.00  zM 12133860.00 8571654.00 L 11070868.00 8571654.00 L 11070868.00 7528346.00 L 12133860.00 7528346.00 L 12133860.00 8571654.00  zM 12999998.64 8050016.14 m -623062.86 0 a 623062.86 623062.86 0 1 1 1246125.73 0a 623062.86 623062.86 0 1 1 -1246125.73 0M 12136222.00 13421654.00 L 11073230.00 13421654.00 L 11073230.00 12378346.00 L 12136222.00 12378346.00 L 12136222.00 13421654.00  zM 15499998.64 9050016.14 m -623062.86 0 a 623062.86 623062.86 0 1 1 1246125.73 0a 623062.86 623062.86 0 1 1 -1246125.73 0M 17429136.00 9571654.00 L 16366144.00 9571654.00 L 16366144.00 8528346.00 L 17429136.00 8528346.00 L 17429136.00 9571654.00  zM 16203939.00 10877953.00 L 15751183.00 10877953.00 L 15751183.00 10622047.00 L 16203939.00 10622047.00 L 16203939.00 10877953.00  zM 17148820.00 10877953.00 L 16696064.00 10877953.00 L 16696064.00 10622047.00 L 17148820.00 10622047.00 L 17148820.00 10877953.00  zM 19886222.00 8571654.00 L 18823230.00 8571654.00 L 18823230.00 7528346.00 L 19886222.00 7528346.00 L 19886222.00 8571654.00  zM 20752360.64 8050016.14 m -623062.86 0 a 623062.86 623062.86 0 1 1 1246125.73 0a 623062.86 623062.86 0 1 1 -1246125.73 0M 23252360.64 9050016.14 m -623062.86 0 a 623062.86 623062.86 0 1 1 1246125.73 0a 623062.86 623062.86 0 1 1 -1246125.73 0M 20752360.64 12900016.14 m -623062.86 0 a 623062.86 623062.86 0 1 1 1246125.73 0a 623062.86 623062.86 0 1 1 -1246125.73 0M 25181498.00 9571654.00 L 24118506.00 9571654.00 L 24118506.00 8528346.00 L 25181498.00 8528346.00 L 25181498.00 9571654.00  zM 23903939.00 10827953.00 L 23451183.00 10827953.00 L 23451183.00 10572047.00 L 23903939.00 10572047.00 L 23903939.00 10827953.00  zM 24848821.00 10827953.00 L 24396065.00 10827953.00 L 24396065.00 10572047.00 L 24848821.00 10572047.00 L 24848821.00 10827953.00  zM 13002360.64 12900016.14 m -623062.86 0 a 623062.86 623062.86 0 1 1 1246125.73 0a 623062.86 623062.86 0 1 1 -1246125.73 0M 15502360.64 13900016.14 m -623062.86 0 a 623062.86 623062.86 0 1 1 1246125.73 0a 623062.86 623062.86 0 1 1 -1246125.73 0M 17431498.00 14421654.00 L 16368506.00 14421654.00 L 16368506.00 13378346.00 L 17431498.00 13378346.00 L 17431498.00 14421654.00  zM 19886223.00 13421655.00 L 18823231.00 13421655.00 L 18823231.00 12378347.00 L 19886223.00 12378347.00 L 19886223.00 13421655.00  zM 23252360.64 13900016.14 m -623062.86 0 a 623062.86 623062.86 0 1 1 1246125.73 0a 623062.86 623062.86 0 1 1 -1246125.73 0M 23903939.00 15727953.00 L 23451183.00 15727953.00 L 23451183.00 15472047.00 L 23903939.00 15472047.00 L 23903939.00 15727953.00  zM 25181498.00 14421654.00 L 24118506.00 14421654.00 L 24118506.00 13378346.00 L 25181498.00 13378346.00 L 25181498.00 14421654.00  zM 15853939.00 16327953.00 L 15401183.00 16327953.00 L 15401183.00 16072047.00 L 15853939.00 16072047.00 L 15853939.00 16327953.00  zM 12548963.13 27750051.07 m -150528.93 0 a 150528.93 150528.93 0 1 1 301057.86 0a 150528.93 150528.93 0 1 1 -301057.86 0M 16798821.00 16327953.00 L 16346065.00 16327953.00 L 16346065.00 16072047.00 L 16798821.00 16072047.00 L 16798821.00 16327953.00  zM 24848821.00 15727953.00 L 24396065.00 15727953.00 L 24396065.00 15472047.00 L 24848821.00 15472047.00 L 24848821.00 15727953.00  zM 12547139.13 28244515.07 m -150528.93 0 a 150528.93 150528.93 0 1 1 301057.86 0a 150528.93 150528.93 0 1 1 -301057.86 0M 13041635.13 27759299.07 m -150528.93 0 a 150528.93 150528.93 0 1 1 301057.86 0a 150528.93 150528.93 0 1 1 -301057.86 0M 13047171.13 28242659.07 m -150528.93 0 a 150528.93 150528.93 0 1 1 301057.86 0a 150528.93 150528.93 0 1 1 -301057.86 0M 27883860.00 8571654.00 L 26820868.00 8571654.00 L 26820868.00 7528346.00 L 27883860.00 7528346.00 L 27883860.00 8571654.00  zM 28749998.64 8050016.14 m -623062.86 0 a 623062.86 623062.86 0 1 1 1246125.73 0a 623062.86 623062.86 0 1 1 -1246125.73 0M 27881498.00 13421654.00 L 26818506.00 13421654.00 L 26818506.00 12378346.00 L 27881498.00 12378346.00 L 27881498.00 13421654.00  zM 31249998.64 9050016.14 m -623062.86 0 a 623062.86 623062.86 0 1 1 1246125.73 0a 623062.86 623062.86 0 1 1 -1246125.73 0M 33179136.00 9571654.00 L 32116144.00 9571654.00 L 32116144.00 8528346.00 L 33179136.00 8528346.00 L 33179136.00 9571654.00  zM 31903939.00 10827953.00 L 31451183.00 10827953.00 L 31451183.00 10572047.00 L 31903939.00 10572047.00 L 31903939.00 10827953.00  zM 32848821.00 10827953.00 L 32396065.00 10827953.00 L 32396065.00 10572047.00 L 32848821.00 10572047.00 L 32848821.00 10827953.00  zM 40559843.86 4697246.28 m -327604.72 0 a 327604.72 327604.72 0 1 1 655209.45 0a 327604.72 327604.72 0 1 1 -655209.45 0M 39782286.00 8289764.00 L 38817718.00 8289764.00 L 38817718.00 7010236.00 L 39782286.00 7010236.00 L 39782286.00 8289764.00  zM 41544095.86 4697246.28 m -327604.72 0 a 327604.72 327604.72 0 1 1 655209.45 0a 327604.72 327604.72 0 1 1 -655209.45 0M 42528347.86 4697246.28 m -327604.72 0 a 327604.72 327604.72 0 1 1 655209.45 0a 327604.72 327604.72 0 1 1 -655209.45 0M 40884647.00 10730709.00 L 40235041.00 10730709.00 L 40235041.00 10081103.00 L 40884647.00 10081103.00 L 40884647.00 10730709.00  zM 42528347.86 10405907.28 m -327604.72 0 a 327604.72 327604.72 0 1 1 655209.45 0a 327604.72 327604.72 0 1 1 -655209.45 0M 44270474.00 8289764.00 L 43305906.00 8289764.00 L 43305906.00 7010236.00 L 44270474.00 7010236.00 L 44270474.00 8289764.00  zM 28747636.64 12900016.14 m -623062.86 0 a 623062.86 623062.86 0 1 1 1246125.73 0a 623062.86 623062.86 0 1 1 -1246125.73 0M 31247636.64 13900016.14 m -623062.86 0 a 623062.86 623062.86 0 1 1 1246125.73 0a 623062.86 623062.86 0 1 1 -1246125.73 0M 31903939.00 15627953.00 L 31451183.00 15627953.00 L 31451183.00 15372047.00 L 31903939.00 15372047.00 L 31903939.00 15627953.00  zM 32848821.00 15627953.00 L 32396065.00 15627953.00 L 32396065.00 15372047.00 L 32848821.00 15372047.00 L 32848821.00 15627953.00  zM 33176774.00 14421654.00 L 32113782.00 14421654.00 L 32113782.00 13378346.00 L 33176774.00 13378346.00 L 33176774.00 14421654.00  zM 43383467.00 19198739.00 L 42773231.00 19198739.00 A 200706.53 200706.53 0 1 1 42773231.00 18797325.00 L 43383467.00 18797325.00 A 200706.53 200706.53 0 0 1 43383467.00 19198739.00  zM 44605908.00 19218809.00 L 44094096.00 19218809.00 A 220780.35 220780.35 0 0 1 44094096.00 18777255.00 L 44605908.00 18777255.00 A 220780.35 220780.35 0 0 1 44605908.00 19218809.00  zM 43383467.00 23450707.00 L 42773231.00 23450707.00 A 200706.53 200706.53 0 1 1 42773231.00 23049293.00 L 43383467.00 23049293.00 A 200706.53 200706.53 0 0 1 43383467.00 23450707.00  zM 44605908.00 23470777.00 L 44094096.00 23470777.00 A 220780.35 220780.35 0 0 1 44094096.00 23029223.00 L 44605908.00 23029223.00 A 220780.35 220780.35 0 0 1 44605908.00 23470777.00  zM 43383467.00 26148739.00 L 42773231.00 26148739.00 A 200706.53 200706.53 0 1 1 42773231.00 25747325.00 L 43383467.00 25747325.00 A 200706.53 200706.53 0 0 1 43383467.00 26148739.00  zM 44605908.00 26168809.00 L 44094096.00 26168809.00 A 220780.35 220780.35 0 0 1 44094096.00 25727255.00 L 44605908.00 25727255.00 A 220780.35 220780.35 0 0 1 44605908.00 26168809.00  zM 43383467.00 30400707.00 L 42773231.00 30400707.00 A 200706.53 200706.53 0 1 1 42773231.00 29999293.00 L 43383467.00 29999293.00 A 200706.53 200706.53 0 0 1 43383467.00 30400707.00  zM 44605908.00 30420777.00 L 44094096.00 30420777.00 A 220780.35 220780.35 0 0 1 44094096.00 29979223.00 L 44605908.00 29979223.00 A 220780.35 220780.35 0 0 1 44605908.00 30420777.00  zM 44400002.00 34500000.00 L 42100002.00 34500000.00 L 42100002.00 33850000.00 L 44400002.00 33850000.00 L 44400002.00 34500000.00  z"/>
</g>
</svg>
