<svg width="90.10193816mm" height="80.07736588mm" viewBox="0 0 35473204 31526522"  version="1.1" xmlns="http://www.w3.org/2000/svg" xmlns:xlink="http://www.w3.org/1999/xlink">
<desc>
Origin 10000002 18350000 Bound 9930167 3280165 35473204 31526522
</desc>
<g fill-rule="evenodd" fill="rgb(0, 0, 255)" stroke="black" stroke-width="1" transform="translate(0, 31526522) scale(1, -1) translate(-9930167, -3280165)">
<path id="N" d="M 40855119.00 10110631.00 L 40264569.00 10110631.00 L 40264569.00 10701181.00 L 40855119.00 10701181.00 L 40855119.00 10110631.00  zM 40559844.36 10405906.47 m -200706.53 0 a 200706.53 200706.53 0 1 1 401413.05 0a 200706.53 200706.53 0 1 1 -401413.05 0"/>
<path id="N" d="M 33147246.00 13407874.00 L 32143310.00 13407874.00 L 32143310.00 14392126.00 L 33147246.00 14392126.00 L 33147246.00 13407874.00  z"/>
<path id="N" d="M 32819293.00 15401575.00 L 32425593.00 15401575.00 L 32425593.00 15598425.00 L 32819293.00 15598425.00 L 32819293.00 15401575.00  z"/>
<path id="N" d="M 40559841.35 4697238.57 m -297829.90 0 a 297829.90 297829.90 0 1 1 595659.80 0a 297829.90 297829.90 0 1 1 -595659.80 0M 40559844.36 4697245.47 m -200706.53 0 a 200706.53 200706.53 0 1 1 401413.05 0a 200706.53 200706.53 0 1 1 -401413.05 0"/>
<path id="N" d="M 68399997.94 61999997.94 m -200709.51 0 a 200709.51 200709.51 0 1 1 401419.02 0a 200709.51 200709.51 0 1 1 -401419.02 0M 68400002.46 61999992.27 m -120431.73 0 a 120431.73 120431.73 0 1 1 240863.46 0a 120431.73 120431.73 0 1 1 -240863.46 0"/>
<path id="N" d="M 41544093.35 4697238.57 m -297829.90 0 a 297829.90 297829.90 0 1 1 595659.80 0a 297829.90 297829.90 0 1 1 -595659.80 0M 41544096.36 4697245.47 m -200706.53 0 a 200706.53 200706.53 0 1 1 401413.05 0a 200706.53 200706.53 0 1 1 -401413.05 0"/>
<path id="N" d="M 60700001.07 63002756.01 m -277967.15 0 a 277967.15 277967.15 0 1 1 555934.30 0a 277967.15 277967.15 0 1 1 -555934.30 0M 60700000.44 63002754.65 m -180637.35 0 a 180637.35 180637.35 0 1 1 361274.69 0a 180637.35 180637.35 0 1 1 -361274.69 0"/>
<path id="N" d="M 44605908.00 29979223.00 L 44094096.00 29979223.00 A 220780.35 220780.35 0 0 0 44094096.00 30420777.00 L 44605908.00 30420777.00 A 220772.76 220772.76 0 0 0 44605908.00 29979223.00  zM 44605907.00 30300353.00 L 44094097.00 30300353.00 A 100353.26 100353.26 0 0 1 44094097.00 30099647.00 L 44605907.00 30099647.00 A 100353.26 100353.26 0 0 1 44605907.00 30300353.00  z"/>
<path id="N" d="M 44605908.00 18777255.00 L 44094096.00 18777255.00 A 220780.35 220780.35 0 0 0 44094096.00 19218809.00 L 44605908.00 19218809.00 A 220772.76 220772.76 0 0 0 44605908.00 18777255.00  zM 44605907.00 19098385.00 L 44094097.00 19098385.00 A 100353.26 100353.26 0 0 1 44094097.00 18897679.00 L 44605907.00 18897679.00 A 100353.26 100353.26 0 0 1 44605907.00 19098385.00  z"/>
<path id="N" d="M 44605908.00 23029223.00 L 44094096.00 23029223.00 A 220780.35 220780.35 0 0 0 44094096.00 23470777.00 L 44605908.00 23470777.00 A 220772.76 220772.76 0 0 0 44605908.00 23029223.00  zM 44605907.00 23350353.00 L 44094097.00 23350353.00 A 100353.26 100353.26 0 0 1 44094097.00 23149647.00 L 44605907.00 23149647.00 A 100353.26 100353.26 0 0 1 44605907.00 23350353.00  z"/>
<path id="N" d="M 44605908.00 25727255.00 L 44094096.00 25727255.00 A 220780.35 220780.35 0 0 0 44094096.00 26168809.00 L 44605908.00 26168809.00 A 220772.76 220772.76 0 0 0 44605908.00 25727255.00  zM 44605907.00 26048385.00 L 44094097.00 26048385.00 A 100353.26 100353.26 0 0 1 44094097.00 25847679.00 L 44605907.00 25847679.00 A 100353.26 100353.26 0 0 1 44605907.00 26048385.00  z"/>
<path id="N" d="M 43383467.00 25747325.00 L 42773231.00 25747325.00 A 200706.53 200706.53 0 1 0 42773231.00 26148739.00 L 43383467.00 26148739.00 A 200709.51 200709.51 0 0 0 43383467.00 25747325.00  zM 43383467.00 26048385.00 L 42773231.00 26048385.00 A 100353.26 100353.26 0 1 1 42773231.00 25847679.00 L 43383467.00 25847679.00 A 100353.26 100353.26 0 0 1 43383467.00 26048385.00  z"/>
<path id="N" d="M 43383467.00 23049293.00 L 42773231.00 23049293.00 A 200706.53 200706.53 0 1 0 42773231.00 23450707.00 L 43383467.00 23450707.00 A 200709.51 200709.51 0 0 0 43383467.00 23049293.00  zM 43383467.00 23350353.00 L 42773231.00 23350353.00 A 100353.26 100353.26 0 1 1 42773231.00 23149647.00 L 43383467.00 23149647.00 A 100353.26 100353.26 0 0 1 43383467.00 23350353.00  z"/>
<path id="N" d="M 43383467.00 18797325.00 L 42773231.00 18797325.00 A 200706.53 200706.53 0 1 0 42773231.00 19198739.00 L 43383467.00 19198739.00 A 200709.51 200709.51 0 0 0 43383467.00 18797325.00  zM 43383467.00 19098385.00 L 42773231.00 19098385.00 A 100353.26 100353.26 0 1 1 42773231.00 18897679.00 L 43383467.00 18897679.00 A 100353.26 100353.26 0 0 1 43383467.00 19098385.00  z"/>
<path id="N" d="M 43383467.00 29999293.00 L 42773231.00 29999293.00 A 200706.53 200706.53 0 1 0 42773231.00 30400707.00 L 43383467.00 30400707.00 A 200709.51 200709.51 0 0 0 43383467.00 29999293.00  zM 43383467.00 30300353.00 L 42773231.00 30300353.00 A 100353.26 100353.26 0 0 1 42773231.00 30099647.00 L 43383467.00 30099647.00 A 100353.26 100353.26 0 0 1 43383467.00 30300353.00  z"/>
<path id="N" d="M 68399997.94 60999997.94 m -200709.51 0 a 200709.51 200709.51 0 1 1 401419.02 0a 200709.51 200709.51 0 1 1 -401419.02 0M 68400002.46 60999992.27 m -120431.73 0 a 120431.73 120431.73 0 1 1 240863.46 0a 120431.73 120431.73 0 1 1 -240863.46 0"/>
<path id="N" d="M 12548972.16 27750058.16 m -120412.98 0 a 120412.98 120412.98 0 1 1 240825.96 0a 120412.98 120412.98 0 1 1 -240825.96 0"/>
<path id="N" d="M 12547148.16 28244522.16 m -120412.98 0 a 120412.98 120412.98 0 1 1 240825.96 0a 120412.98 120412.98 0 1 1 -240825.96 0"/>
<path id="N" d="M 44240946.00 7039764.00 L 43335434.00 7039764.00 L 43335434.00 8260236.00 L 44240946.00 8260236.00 L 44240946.00 7039764.00  zM 44142520.00 8161811.00 L 43433860.00 8161811.00 L 43433860.00 7138189.00 L 44142520.00 7138189.00 L 44142520.00 8161811.00  z"/>
<path id="N" d="M 39752758.00 7039764.00 L 38847246.00 7039764.00 L 38847246.00 8260236.00 L 39752758.00 8260236.00 L 39752758.00 7039764.00  zM 39654332.00 8161811.00 L 38945672.00 8161811.00 L 38945672.00 7138189.00 L 39654332.00 7138189.00 L 39654332.00 8161811.00  z"/>
<path id="N" d="M 25151970.00 8557874.00 L 24148034.00 8557874.00 L 24148034.00 9542126.00 L 25151970.00 9542126.00 L 25151970.00 8557874.00  z"/>
<path id="N" d="M 24819293.00 10601575.00 L 24425593.00 10601575.00 L 24425593.00 10798425.00 L 24819293.00 10798425.00 L 24819293.00 10601575.00  z"/>
<path id="N" d="M 68596850.00 60303150.00 L 68203150.00 60303150.00 L 68203150.00 60696850.00 L 68596850.00 60696850.00 L 68596850.00 60303150.00  zM 68400002.46 60499992.27 m -120431.73 0 a 120431.73 120431.73 0 1 1 240863.46 0a 120431.73 120431.73 0 1 1 -240863.46 0"/>
<path id="N" d="M 68399997.94 62999997.94 m -200709.51 0 a 200709.51 200709.51 0 1 1 401419.02 0a 200709.51 200709.51 0 1 1 -401419.02 0M 68400002.46 62999992.27 m -120431.73 0 a 120431.73 120431.73 0 1 1 240863.46 0a 120431.73 120431.73 0 1 1 -240863.46 0"/>
<path id="N" d="M 68399997.94 62499997.94 m -200709.51 0 a 200709.51 200709.51 0 1 1 401419.02 0a 200709.51 200709.51 0 1 1 -401419.02 0M 68400002.46 62499992.27 m -120431.73 0 a 120431.73 120431.73 0 1 1 240863.46 0a 120431.73 120431.73 0 1 1 -240863.46 0"/>
<path id="N" d="M 33149608.00 8557874.00 L 32145672.00 8557874.00 L 32145672.00 9542126.00 L 33149608.00 9542126.00 L 33149608.00 8557874.00  z"/>
<path id="N" d="M 32819293.00 10601575.00 L 32425593.00 10601575.00 L 32425593.00 10798425.00 L 32819293.00 10798425.00 L 32819293.00 10601575.00  z"/>
<path id="N" d="M 60700001.07 61034252.01 m -277967.15 0 a 277967.15 277967.15 0 1 1 555934.30 0a 277967.15 277967.15 0 1 1 -555934.30 0M 60700000.44 61034250.65 m -180637.35 0 a 180637.35 180637.35 0 1 1 361274.69 0a 180637.35 180637.35 0 1 1 -361274.69 0"/>
<path id="N" d="M 17399608.00 8557874.00 L 16395672.00 8557874.00 L 16395672.00 9542126.00 L 17399608.00 9542126.00 L 17399608.00 8557874.00  z"/>
<path id="N" d="M 17119292.00 10651575.00 L 16725592.00 10651575.00 L 16725592.00 10848425.00 L 17119292.00 10848425.00 L 17119292.00 10651575.00  z"/>
<path id="N" d="M 42528345.35 10405899.57 m -297829.90 0 a 297829.90 297829.90 0 1 1 595659.80 0a 297829.90 297829.90 0 1 1 -595659.80 0M 42528348.36 10405906.47 m -200706.53 0 a 200706.53 200706.53 0 1 1 401413.05 0a 200706.53 200706.53 0 1 1 -401413.05 0"/>
<path id="N" d="M 31874411.00 10601575.00 L 31480711.00 10601575.00 L 31480711.00 10798425.00 L 31874411.00 10798425.00 L 31874411.00 10601575.00  z"/>
<path id="N" d="M 31874411.00 15401575.00 L 31480711.00 15401575.00 L 31480711.00 15598425.00 L 31874411.00 15598425.00 L 31874411.00 15401575.00  z"/>
<path id="N" d="M 12106694.00 12407874.00 L 11102758.00 12407874.00 L 11102758.00 13392126.00 L 12106694.00 13392126.00 L 12106694.00 12407874.00  z"/>
<path id="N" d="M 19856695.00 12407875.00 L 18852759.00 12407875.00 L 18852759.00 13392127.00 L 19856695.00 13392127.00 L 19856695.00 12407875.00  z"/>
<path id="N" d="M 27851970.00 12407874.00 L 26848034.00 12407874.00 L 26848034.00 13392126.00 L 27851970.00 13392126.00 L 27851970.00 12407874.00  z"/>
<path id="N" d="M 17401970.00 13407874.00 L 16398034.00 13407874.00 L 16398034.00 14392126.00 L 17401970.00 14392126.00 L 17401970.00 13407874.00  z"/>
<path id="N" d="M 16769293.00 16101575.00 L 16375593.00 16101575.00 L 16375593.00 16298425.00 L 16769293.00 16298425.00 L 16769293.00 16101575.00  z"/>
<path id="N" d="M 27854332.00 7557874.00 L 26850396.00 7557874.00 L 26850396.00 8542126.00 L 27854332.00 8542126.00 L 27854332.00 7557874.00  z"/>
<path id="N" d="M 19856694.00 7557874.00 L 18852758.00 7557874.00 L 18852758.00 8542126.00 L 19856694.00 8542126.00 L 19856694.00 7557874.00  z"/>
<path id="N" d="M 12104332.00 7557874.00 L 11100396.00 7557874.00 L 11100396.00 8542126.00 L 12104332.00 8542126.00 L 12104332.00 7557874.00  z"/>
<path id="N" d="M 23874411.00 10601575.00 L 23480711.00 10601575.00 L 23480711.00 10798425.00 L 23874411.00 10798425.00 L 23874411.00 10601575.00  z"/>
<path id="N" d="M 23874411.00 15501575.00 L 23480711.00 15501575.00 L 23480711.00 15698425.00 L 23874411.00 15698425.00 L 23874411.00 15501575.00  z"/>
<path id="N" d="M 60700001.07 62018504.01 m -277967.15 0 a 277967.15 277967.15 0 1 1 555934.30 0a 277967.15 277967.15 0 1 1 -555934.30 0M 60700000.44 62018502.65 m -180637.35 0 a 180637.35 180637.35 0 1 1 361274.69 0a 180637.35 180637.35 0 1 1 -361274.69 0"/>
<path id="N" d="M 68399997.94 61499997.94 m -200709.51 0 a 200709.51 200709.51 0 1 1 401419.02 0a 200709.51 200709.51 0 1 1 -401419.02 0M 68400002.46 61499992.27 m -120431.73 0 a 120431.73 120431.73 0 1 1 240863.46 0a 120431.73 120431.73 0 1 1 -240863.46 0"/>
<path id="N" d="M 60975590.00 59774410.00 L 60424410.00 59774410.00 L 60424410.00 60325590.00 L 60975590.00 60325590.00 L 60975590.00 59774410.00  zM 60700000.44 60049998.65 m -180637.35 0 a 180637.35 180637.35 0 1 1 361274.69 0a 180637.35 180637.35 0 1 1 -361274.69 0"/>
<path id="N" d="M 68399997.94 63499997.94 m -200709.51 0 a 200709.51 200709.51 0 1 1 401419.02 0a 200709.51 200709.51 0 1 1 -401419.02 0M 68400002.46 63499992.27 m -120431.73 0 a 120431.73 120431.73 0 1 1 240863.46 0a 120431.73 120431.73 0 1 1 -240863.46 0"/>
<path id="N" d="M 68399997.94 63999997.94 m -200709.51 0 a 200709.51 200709.51 0 1 1 401419.02 0a 200709.51 200709.51 0 1 1 -401419.02 0M 68400002.46 63999992.27 m -120431.73 0 a 120431.73 120431.73 0 1 1 240863.46 0a 120431.73 120431.73 0 1 1 -240863.46 0"/>
<path id="N" d="M 43532743.00 34418011.00 L 43564225.00 34413347.00 L 43598039.00 34404019.00 L 43622525.00 34391776.00 L 43650509.00 34369622.00 L 43670331.00 34346302.00 L 43691319.00 34311322.00 L 43702396.00 34276342.00 L 43708809.00 34227953.00 L 43709392.00 34188892.00 L 43705311.00 34156244.00 L 43697732.00 34128260.00 L 43683157.00 34094446.00 L 43665084.00 34064713.00 L 43646428.00 34044891.00 L 43624274.00 34029150.00 L 43588128.00 34013409.00 L 43554897.00 34004664.00 L 43518168.00 34000000.00 L 43482605.00 34002332.00 L 43441795.00 34012826.00 L 43409730.00 34027401.00 L 43377665.00 34049555.00 L 43363090.00 34065879.00 L 43347349.00 34089782.00 L 43336272.00 34114851.00 L 43325195.00 34152746.00 L 43318782.00 34204633.00 L 43321114.00 34243694.00 L 43326944.00 34274593.00 L 43340353.00 34312488.00 L 43364256.00 34352715.00 L 43382912.00 34372537.00 L 43405649.00 34388861.00 L 43441212.00 34405185.00 L 43474443.00 34413930.00 L 43511172.00 34418594.00 L 43532743.00 34418011.00  zM 43518751.00 34349217.00 L 43487852.00 34346302.00 L 43455204.00 34332310.00 A 90402.82 90402.82 0 0 1 43415560.00 34283921.00 L 43406815.00 34249524.00 L 43402734.00 34216876.00 L 43405649.00 34174317.00 L 43412645.00 34145750.00 L 43426637.00 34114851.00 L 43440046.00 34097944.00 L 43453455.00 34088033.00 L 43473277.00 34078122.00 L 43505925.00 34069960.00 L 43531577.00 34071126.00 L 43561310.00 34080454.00 L 43572387.00 34087450.00 L 43591043.00 34101442.00 L 43605035.00 34119515.00 L 43618444.00 34153329.00 L 43625440.00 34198220.00 L 43624857.00 34233783.00 L 43616695.00 34273427.00 L 43602703.00 34303743.00 L 43589877.00 34320650.00 L 43570055.00 34334642.00 L 43543237.00 34345136.00 L 43518751.00 34349217.00  z"/>
<path id="N" d="M 44100002.00 34007579.00 L 43879628.00 34008745.00 L 43853393.00 34011660.00 L 43833571.00 34017490.00 L 43810251.00 34029150.00 L 43789263.00 34048972.00 L 43777603.00 34066462.00 L 43767692.00 34089782.00 L 43762445.00 34124179.00 L 43765360.00 34148665.00 L 43772356.00 34167904.00 L 43782267.00 34184811.00 L 43799174.00 34201718.00 L 43817830.00 34212795.00 L 43838818.00 34221540.00 L 43829490.00 34226787.00 L 43814332.00 34238447.00 L 43800923.00 34253022.00 A 94234.01 94234.01 0 0 0 43784016.00 34327646.00 L 43788680.00 34342221.00 A 99100.88 99100.88 0 0 0 43863887.00 34406351.00 L 43912276.00 34410432.00 L 44100002.00 34411015.00 L 44100002.00 34007579.00  zM 44018382.00 34183645.00 L 43933847.00 34183645.00 L 43884875.00 34178981.00 L 43870300.00 34172568.00 L 43859223.00 34163823.00 A 57543.20 57543.20 0 0 1 43856308.00 34096195.00 L 43867385.00 34086284.00 L 43884875.00 34078705.00 L 43901199.00 34076956.00 L 44018382.00 34075790.00 L 44018382.00 34183645.00  zM 44018382.00 34343970.00 L 43915774.00 34343387.00 L 43895952.00 34341055.00 L 43879628.00 34334642.00 L 43868551.00 34323565.00 L 43862721.00 34308990.00 L 43862138.00 34290917.00 L 43867385.00 34274593.00 L 43873798.00 34265848.00 L 43883709.00 34258852.00 L 43905280.00 34251856.00 L 44018382.00 34250690.00 L 44018382.00 34343970.00  z"/>
<path id="N" d="M 13047180.16 28242666.16 m -120412.98 0 a 120412.98 120412.98 0 1 1 240825.96 0a 120412.98 120412.98 0 1 1 -240825.96 0"/>
<path id="N" d="M 13041644.16 27759306.16 m -120412.98 0 a 120412.98 120412.98 0 1 1 240825.96 0a 120412.98 120412.98 0 1 1 -240825.96 0"/>
<path id="N" d="M 43283219.00 34342804.00 L 43163704.00 34342804.00 L 43163704.00 34007579.00 L 43082084.00 34007579.00 L 43082084.00 34342804.00 L 42963152.00 34342804.00 L 42963152.00 34411015.00 L 43283219.00 34411015.00 L 43283219.00 34342804.00  z"/>
<path id="N" d="M 42528345.35 4697238.57 m -297829.90 0 a 297829.90 297829.90 0 1 1 595659.80 0a 297829.90 297829.90 0 1 1 -595659.80 0M 42528348.36 4697245.47 m -200706.53 0 a 200706.53 200706.53 0 1 1 401413.05 0a 200706.53 200706.53 0 1 1 -401413.05 0"/>
<path id="N" d="M 15824411.00 16101575.00 L 15430711.00 16101575.00 L 15430711.00 16298425.00 L 15824411.00 16298425.00 L 15824411.00 16101575.00  z"/>
<path id="N" d="M 16174411.00 10651575.00 L 15780711.00 10651575.00 L 15780711.00 10848425.00 L 16174411.00 10848425.00 L 16174411.00 10651575.00  z"/>
<path id="N" d="M 25151970.00 13407874.00 L 24148034.00 13407874.00 L 24148034.00 14392126.00 L 25151970.00 14392126.00 L 25151970.00 13407874.00  z"/>
<path id="N" d="M 24819293.00 15501575.00 L 24425593.00 15501575.00 L 24425593.00 15698425.00 L 24819293.00 15698425.00 L 24819293.00 15501575.00  z"/>
</g>
</svg>
