<svg width="90.10193816mm" height="80.07736588mm" viewBox="0 0 35473204 31526522"  version="1.1" xmlns="http://www.w3.org/2000/svg" xmlns:xlink="http://www.w3.org/1999/xlink">
<desc>
Origin 10000002 18350000 Bound 9930167 3280165 35473204 31526522
</desc>
<g fill-rule="evenodd" fill="rgb(255, 0, 0)" stroke="black" stroke-width="1" transform="translate(0, 31526522) scale(1, -1) translate(-9930167, -3280165)">
<path id="N" d="M 56949997.35 49099993.57 m -297829.90 0 a 297829.90 297829.90 0 1 1 595659.80 0a 297829.90 297829.90 0 1 1 -595659.80 0"/>
<path id="N" d="M 69685039.00 47464960.00 L 69547245.00 47464960.00 L 69547245.00 47799606.00 L 69685039.00 47799606.00 L 69685039.00 47464960.00  z"/>
<path id="N" d="M 40559841.35 4697238.57 m -297829.90 0 a 297829.90 297829.90 0 1 1 595659.80 0a 297829.90 297829.90 0 1 1 -595659.80 0M 40559844.36 4697245.47 m -200706.53 0 a 200706.53 200706.53 0 1 1 401413.05 0a 200706.53 200706.53 0 1 1 -401413.05 0"/>
<path id="N" d="M 15227167.00 31744489.00 L 14872837.00 31744489.00 L 14872837.00 32335039.00 L 15227167.00 32335039.00 L 15227167.00 31744489.00  z"/>
<path id="N" d="M 32061811.00 49087795.00 L 31672047.00 49087795.00 L 31672047.00 49205905.00 L 32061811.00 49205905.00 L 32061811.00 49087795.00  z"/>
<path id="N" d="M 17227167.00 24854725.00 L 16872837.00 24854725.00 L 16872837.00 25445275.00 L 17227167.00 25445275.00 L 17227167.00 24854725.00  z"/>
<path id="N" d="M 31427953.00 49087795.00 L 31038189.00 49087795.00 L 31038189.00 49205905.00 L 31427953.00 49205905.00 L 31427953.00 49087795.00  z"/>
<path id="N" d="M 43011419.00 27719685.00 L 42657089.00 27719685.00 L 42657089.00 27837795.00 L 43011419.00 27837795.00 L 43011419.00 27719685.00  z"/>
<path id="N" d="M 43011419.00 28113386.00 L 42657089.00 28113386.00 L 42657089.00 28231496.00 L 43011419.00 28231496.00 L 43011419.00 28113386.00  z"/>
<path id="N" d="M 68399997.94 61999997.94 m -200709.51 0 a 200709.51 200709.51 0 1 1 401419.02 0a 200709.51 200709.51 0 1 1 -401419.02 0M 68400002.46 61999992.27 m -120431.73 0 a 120431.73 120431.73 0 1 1 240863.46 0a 120431.73 120431.73 0 1 1 -240863.46 0"/>
<path id="N" d="M 13227167.00 24854725.00 L 12872837.00 24854725.00 L 12872837.00 25445275.00 L 13227167.00 25445275.00 L 13227167.00 24854725.00  z"/>
<path id="N" d="M 76680708.00 42073229.00 L 76090158.00 42073229.00 L 76090158.00 42427559.00 L 76680708.00 42427559.00 L 76680708.00 42073229.00  z"/>
<path id="N" d="M 75209842.00 43372441.00 L 74619292.00 43372441.00 L 74619292.00 43726771.00 L 75209842.00 43726771.00 L 75209842.00 43372441.00  z"/>
<path id="N" d="M 66400000.00 64125000.00 L 66200000.00 63925000.00 L 66000000.00 64125000.00 L 66000000.00 64275000.00 L 66400000.00 64275000.00 L 66400000.00 64125000.00  z"/>
<path id="N" d="M 73280708.00 43372441.00 L 72690158.00 43372441.00 L 72690158.00 43726771.00 L 73280708.00 43726771.00 L 73280708.00 43372441.00  z"/>
<path id="N" d="M 95830708.00 43372441.00 L 95240158.00 43372441.00 L 95240158.00 43726771.00 L 95830708.00 43726771.00 L 95830708.00 43372441.00  z"/>
<path id="N" d="M 43330708.00 63822441.00 L 42740158.00 63822441.00 L 42740158.00 64176771.00 L 43330708.00 64176771.00 L 43330708.00 63822441.00  z"/>
<path id="N" d="M 31730710.00 5272441.00 L 31140160.00 5272441.00 L 31140160.00 5626771.00 L 31730710.00 5626771.00 L 31730710.00 5272441.00  z"/>
<path id="N" d="M 99230708.00 43372441.00 L 98640158.00 43372441.00 L 98640158.00 43726771.00 L 99230708.00 43726771.00 L 99230708.00 43372441.00  z"/>
<path id="N" d="M 44580708.00 43372441.00 L 43990158.00 43372441.00 L 43990158.00 43726771.00 L 44580708.00 43726771.00 L 44580708.00 43372441.00  z"/>
<path id="N" d="M 76680708.00 43372441.00 L 76090158.00 43372441.00 L 76090158.00 43726771.00 L 76680708.00 43726771.00 L 76680708.00 43372441.00  z"/>
<path id="N" d="M 102580708.00 43372441.00 L 101990158.00 43372441.00 L 101990158.00 43726771.00 L 102580708.00 43726771.00 L 102580708.00 43372441.00  z"/>
<path id="N" d="M 69880708.00 43372441.00 L 69290158.00 43372441.00 L 69290158.00 43726771.00 L 69880708.00 43726771.00 L 69880708.00 43372441.00  z"/>
<path id="N" d="M 30930710.00 1505906.00 L 30340160.00 1505906.00 L 30340160.00 1860236.00 L 30930710.00 1860236.00 L 30930710.00 1505906.00  z"/>
<path id="N" d="M 75161811.00 48890945.00 L 74772047.00 48890945.00 L 74772047.00 49009055.00 L 75161811.00 49009055.00 L 75161811.00 48890945.00  z"/>
<path id="N" d="M 32061811.00 48890945.00 L 31672047.00 48890945.00 L 31672047.00 49009055.00 L 32061811.00 49009055.00 L 32061811.00 48890945.00  z"/>
<path id="N" d="M 89984252.00 15557874.00 L 89531496.00 15557874.00 L 89531496.00 15794094.00 L 89984252.00 15794094.00 L 89984252.00 15557874.00  z"/>
<path id="N" d="M 89984252.00 16305906.00 L 89531496.00 16305906.00 L 89531496.00 16542126.00 L 89984252.00 16542126.00 L 89984252.00 16305906.00  z"/>
<path id="N" d="M 70935040.00 48203150.00 L 70600394.00 48203150.00 L 70600394.00 48340944.00 L 70935040.00 48340944.00 L 70935040.00 48203150.00  z"/>
<path id="N" d="M 79977165.00 48516142.00 L 79622835.00 48516142.00 L 79622835.00 48811418.00 L 79977165.00 48811418.00 L 79977165.00 48516142.00  z"/>
<path id="N" d="M 88212204.00 16172835.00 L 87897244.00 16172835.00 L 87897244.00 16527165.00 L 88212204.00 16527165.00 L 88212204.00 16172835.00  z"/>
<path id="N" d="M 59753569.00 43300762.00 L 59277823.00 43300762.00 L 59277823.00 43699238.00 L 59753569.00 43699238.00 L 59753569.00 43300762.00  z"/>
<path id="N" d="M 84372178.00 16100762.00 L 83896432.00 16100762.00 L 83896432.00 16499238.00 L 84372178.00 16499238.00 L 84372178.00 16100762.00  z"/>
<path id="N" d="M 82703569.00 43300762.00 L 82227823.00 43300762.00 L 82227823.00 43699238.00 L 82703569.00 43699238.00 L 82703569.00 43300762.00  z"/>
<path id="N" d="M 84903569.00 43300762.00 L 84427823.00 43300762.00 L 84427823.00 43699238.00 L 84903569.00 43699238.00 L 84903569.00 43300762.00  z"/>
<path id="N" d="M 57553569.00 43300762.00 L 57077823.00 43300762.00 L 57077823.00 43699238.00 L 57553569.00 43699238.00 L 57553569.00 43300762.00  z"/>
<path id="N" d="M 61953569.00 43300762.00 L 61477823.00 43300762.00 L 61477823.00 43699238.00 L 61953569.00 43699238.00 L 61953569.00 43300762.00  z"/>
<path id="N" d="M 80503569.00 43300762.00 L 80027823.00 43300762.00 L 80027823.00 43699238.00 L 80503569.00 43699238.00 L 80503569.00 43300762.00  z"/>
<path id="N" d="M 46522178.00 63750762.00 L 46046432.00 63750762.00 L 46046432.00 64149238.00 L 46522178.00 64149238.00 L 46522178.00 63750762.00  z"/>
<path id="N" d="M 88518941.00 48544839.00 L 88181059.00 48544839.00 L 88181059.00 48881949.00 L 88518941.00 48881949.00 L 88518941.00 48544839.00  z"/>
<path id="N" d="M 86435853.00 48800762.00 L 86096431.00 48800762.00 L 86096431.00 49199238.00 L 86435853.00 49199238.00 L 86435853.00 48800762.00  z"/>
<path id="N" d="M 40477165.00 47789764.00 L 40122835.00 47789764.00 L 40122835.00 48104724.00 L 40477165.00 48104724.00 L 40477165.00 47789764.00  z"/>
<path id="N" d="M 84877165.00 47789764.00 L 84522835.00 47789764.00 L 84522835.00 48104724.00 L 84877165.00 48104724.00 L 84877165.00 47789764.00  z"/>
<path id="N" d="M 110072178.00 43300762.00 L 109596432.00 43300762.00 L 109596432.00 43699238.00 L 110072178.00 43699238.00 L 110072178.00 43300762.00  z"/>
<path id="N" d="M 105772178.00 43300762.00 L 105296432.00 43300762.00 L 105296432.00 43699238.00 L 105772178.00 43699238.00 L 105772178.00 43300762.00  z"/>
<path id="N" d="M 42185853.00 48800762.00 L 41846431.00 48800762.00 L 41846431.00 49199238.00 L 42185853.00 49199238.00 L 42185853.00 48800762.00  z"/>
<path id="N" d="M 107872178.00 43300762.00 L 107396432.00 43300762.00 L 107396432.00 43699238.00 L 107872178.00 43699238.00 L 107872178.00 43300762.00  z"/>
<path id="N" d="M 60700001.07 63002756.01 m -277967.15 0 a 277967.15 277967.15 0 1 1 555934.30 0a 277967.15 277967.15 0 1 1 -555934.30 0M 60700000.44 63002754.65 m -180637.35 0 a 180637.35 180637.35 0 1 1 361274.69 0a 180637.35 180637.35 0 1 1 -361274.69 0"/>
<path id="N" d="M 41544093.35 4697238.57 m -297829.90 0 a 297829.90 297829.90 0 1 1 595659.80 0a 297829.90 297829.90 0 1 1 -595659.80 0M 41544096.36 4697245.47 m -200706.53 0 a 200706.53 200706.53 0 1 1 401413.05 0a 200706.53 200706.53 0 1 1 -401413.05 0"/>
<path id="N" d="M 43383467.00 23049293.00 L 42773231.00 23049293.00 A 200706.53 200706.53 0 1 0 42773231.00 23450707.00 L 43383467.00 23450707.00 A 200709.51 200709.51 0 0 0 43383467.00 23049293.00  zM 43383467.00 23350353.00 L 42773231.00 23350353.00 A 100353.26 100353.26 0 1 1 42773231.00 23149647.00 L 43383467.00 23149647.00 A 100353.26 100353.26 0 0 1 43383467.00 23350353.00  z"/>
<path id="N" d="M 43383467.00 25747325.00 L 42773231.00 25747325.00 A 200706.53 200706.53 0 1 0 42773231.00 26148739.00 L 43383467.00 26148739.00 A 200709.51 200709.51 0 0 0 43383467.00 25747325.00  zM 43383467.00 26048385.00 L 42773231.00 26048385.00 A 100353.26 100353.26 0 1 1 42773231.00 25847679.00 L 43383467.00 25847679.00 A 100353.26 100353.26 0 0 1 43383467.00 26048385.00  z"/>
<path id="N" d="M 43383467.00 29999293.00 L 42773231.00 29999293.00 A 200706.53 200706.53 0 1 0 42773231.00 30400707.00 L 43383467.00 30400707.00 A 200709.51 200709.51 0 0 0 43383467.00 29999293.00  zM 43383467.00 30300353.00 L 42773231.00 30300353.00 A 100353.26 100353.26 0 0 1 42773231.00 30099647.00 L 43383467.00 30099647.00 A 100353.26 100353.26 0 0 1 43383467.00 30300353.00  z"/>
<path id="N" d="M 44605908.00 25727255.00 L 44094096.00 25727255.00 A 220780.35 220780.35 0 0 0 44094096.00 26168809.00 L 44605908.00 26168809.00 A 220772.76 220772.76 0 0 0 44605908.00 25727255.00  zM 44605907.00 26048385.00 L 44094097.00 26048385.00 A 100353.26 100353.26 0 0 1 44094097.00 25847679.00 L 44605907.00 25847679.00 A 100353.26 100353.26 0 0 1 44605907.00 26048385.00  z"/>
<path id="N" d="M 44605908.00 23029223.00 L 44094096.00 23029223.00 A 220780.35 220780.35 0 0 0 44094096.00 23470777.00 L 44605908.00 23470777.00 A 220772.76 220772.76 0 0 0 44605908.00 23029223.00  zM 44605907.00 23350353.00 L 44094097.00 23350353.00 A 100353.26 100353.26 0 0 1 44094097.00 23149647.00 L 44605907.00 23149647.00 A 100353.26 100353.26 0 0 1 44605907.00 23350353.00  z"/>
<path id="N" d="M 44605908.00 18777255.00 L 44094096.00 18777255.00 A 220780.35 220780.35 0 0 0 44094096.00 19218809.00 L 44605908.00 19218809.00 A 220772.76 220772.76 0 0 0 44605908.00 18777255.00  zM 44605907.00 19098385.00 L 44094097.00 19098385.00 A 100353.26 100353.26 0 0 1 44094097.00 18897679.00 L 44605907.00 18897679.00 A 100353.26 100353.26 0 0 1 44605907.00 19098385.00  z"/>
<path id="N" d="M 43383467.00 18797325.00 L 42773231.00 18797325.00 A 200706.53 200706.53 0 1 0 42773231.00 19198739.00 L 43383467.00 19198739.00 A 200709.51 200709.51 0 0 0 43383467.00 18797325.00  zM 43383467.00 19098385.00 L 42773231.00 19098385.00 A 100353.26 100353.26 0 1 1 42773231.00 18897679.00 L 43383467.00 18897679.00 A 100353.26 100353.26 0 0 1 43383467.00 19098385.00  z"/>
<path id="N" d="M 44605908.00 29979223.00 L 44094096.00 29979223.00 A 220780.35 220780.35 0 0 0 44094096.00 30420777.00 L 44605908.00 30420777.00 A 220772.76 220772.76 0 0 0 44605908.00 29979223.00  zM 44605907.00 30300353.00 L 44094097.00 30300353.00 A 100353.26 100353.26 0 0 1 44094097.00 30099647.00 L 44605907.00 30099647.00 A 100353.26 100353.26 0 0 1 44605907.00 30300353.00  z"/>
<path id="N" d="M 68399997.94 60999997.94 m -200709.51 0 a 200709.51 200709.51 0 1 1 401419.02 0a 200709.51 200709.51 0 1 1 -401419.02 0M 68400002.46 60999992.27 m -120431.73 0 a 120431.73 120431.73 0 1 1 240863.46 0a 120431.73 120431.73 0 1 1 -240863.46 0"/>
<path id="N" d="M 12467324.00 27662549.78 L 12467324.00 27352756.00 L 12152364.00 27352756.00 L 12152364.00 27667716.00 L 12461927.48 27667716.00 A 116090.09 116090.09 0 0 0 12463811.00 27835203.00 A 120431.73 120431.73 0 1 0 12467324.00 27662549.78  z"/>
<path id="N" d="M 12467324.00 28155795.08 L 12467324.00 27844882.00 L 12152364.00 27844882.00 L 12152364.00 28159842.00 L 12461665.62 28159842.00 A 119690.47 119690.47 0 1 0 12467324.00 28155795.08  z"/>
<path id="N" d="M 39752758.00 7039764.00 L 38847246.00 7039764.00 L 38847246.00 8260236.00 L 39752758.00 8260236.00 L 39752758.00 7039764.00  zM 39654332.00 8161811.00 L 38945672.00 8161811.00 L 38945672.00 7138189.00 L 39654332.00 7138189.00 L 39654332.00 8161811.00  z"/>
<path id="N" d="M 44240946.00 7039764.00 L 43335434.00 7039764.00 L 43335434.00 8260236.00 L 44240946.00 8260236.00 L 44240946.00 7039764.00  zM 44142520.00 8161811.00 L 43433860.00 8161811.00 L 43433860.00 7138189.00 L 44142520.00 7138189.00 L 44142520.00 8161811.00  z"/>
<path id="N" d="M 43011419.00 26538583.00 L 42657089.00 26538583.00 L 42657089.00 26656693.00 L 43011419.00 26656693.00 L 43011419.00 26538583.00  z"/>
<path id="N" d="M 43011419.00 26341733.00 L 42657089.00 26341733.00 L 42657089.00 26459843.00 L 43011419.00 26459843.00 L 43011419.00 26341733.00  z"/>
<path id="N" d="M 43011419.00 26735433.00 L 42657089.00 26735433.00 L 42657089.00 26853543.00 L 43011419.00 26853543.00 L 43011419.00 26735433.00  z"/>
<path id="N" d="M 43011419.00 29294489.00 L 42657089.00 29294489.00 L 42657089.00 29412599.00 L 43011419.00 29412599.00 L 43011419.00 29294489.00  z"/>
<path id="N" d="M 43011419.00 19785433.00 L 42657089.00 19785433.00 L 42657089.00 19903543.00 L 43011419.00 19903543.00 L 43011419.00 19785433.00  z"/>
<path id="N" d="M 43011419.00 29688189.00 L 42657089.00 29688189.00 L 42657089.00 29806299.00 L 43011419.00 29806299.00 L 43011419.00 29688189.00  z"/>
<path id="N" d="M 43011419.00 29491339.00 L 42657089.00 29491339.00 L 42657089.00 29609449.00 L 43011419.00 29609449.00 L 43011419.00 29491339.00  z"/>
<path id="N" d="M 43011419.00 19588583.00 L 42657089.00 19588583.00 L 42657089.00 19706693.00 L 43011419.00 19706693.00 L 43011419.00 19588583.00  z"/>
<path id="N" d="M 13451576.00 28337008.00 L 13136616.00 28337008.00 L 13136616.00 28651968.00 L 13451576.00 28651968.00 L 13451576.00 28337008.00  z"/>
<path id="N" d="M 12959450.00 27352756.00 L 12644490.00 27352756.00 L 12644490.00 27667716.00 L 12959450.00 27667716.00 L 12959450.00 27352756.00  z"/>
<path id="N" d="M 79102756.00 16342520.00 L 78787796.00 16342520.00 L 78787796.00 16657480.00 L 79102756.00 16657480.00 L 79102756.00 16342520.00  z"/>
<path id="N" d="M 12959450.00 27844882.00 L 12644490.00 27844882.00 L 12644490.00 28159842.00 L 12959450.00 28159842.00 L 12959450.00 27844882.00  z"/>
<path id="N" d="M 12959450.00 28337008.00 L 12644490.00 28337008.00 L 12644490.00 28651968.00 L 12959450.00 28651968.00 L 12959450.00 28337008.00  z"/>
<path id="N" d="M 12467324.00 28337008.00 L 12152364.00 28337008.00 L 12152364.00 28651968.00 L 12467324.00 28651968.00 L 12467324.00 28337008.00  z"/>
<path id="N" d="M 13451576.00 27352756.00 L 13136616.00 27352756.00 L 13136616.00 27667716.00 L 13451576.00 27667716.00 L 13451576.00 27352756.00  z"/>
<path id="N" d="M 13451576.00 27844882.00 L 13136616.00 27844882.00 L 13136616.00 28159842.00 L 13451576.00 28159842.00 L 13451576.00 27844882.00  z"/>
<path id="N" d="M 43011419.00 22541339.00 L 42657089.00 22541339.00 L 42657089.00 22659449.00 L 43011419.00 22659449.00 L 43011419.00 22541339.00  z"/>
<path id="N" d="M 43011419.00 22344489.00 L 42657089.00 22344489.00 L 42657089.00 22462599.00 L 43011419.00 22462599.00 L 43011419.00 22344489.00  z"/>
<path id="N" d="M 43011419.00 19391733.00 L 42657089.00 19391733.00 L 42657089.00 19509843.00 L 43011419.00 19509843.00 L 43011419.00 19391733.00  z"/>
<path id="N" d="M 43011419.00 22738189.00 L 42657089.00 22738189.00 L 42657089.00 22856299.00 L 43011419.00 22856299.00 L 43011419.00 22738189.00  z"/>
<path id="N" d="M 69399606.00 48203150.00 L 69064960.00 48203150.00 L 69064960.00 48340944.00 L 69399606.00 48340944.00 L 69399606.00 48203150.00  z"/>
<path id="N" d="M 70452755.00 49000394.00 L 70314961.00 49000394.00 L 70314961.00 49335040.00 L 70452755.00 49335040.00 L 70452755.00 49000394.00  z"/>
<path id="N" d="M 31427953.00 48890945.00 L 31038189.00 48890945.00 L 31038189.00 49009055.00 L 31427953.00 49009055.00 L 31427953.00 48890945.00  z"/>
<path id="N" d="M 74527953.00 48890945.00 L 74138189.00 48890945.00 L 74138189.00 49009055.00 L 74527953.00 49009055.00 L 74527953.00 48890945.00  z"/>
<path id="N" d="M 72077165.00 48516142.00 L 71722835.00 48516142.00 L 71722835.00 48811418.00 L 72077165.00 48811418.00 L 72077165.00 48516142.00  z"/>
<path id="N" d="M 10727167.00 24854725.00 L 10372837.00 24854725.00 L 10372837.00 25445275.00 L 10727167.00 25445275.00 L 10727167.00 24854725.00  z"/>
<path id="N" d="M 45259842.00 62523229.00 L 44669292.00 62523229.00 L 44669292.00 62877559.00 L 45259842.00 62877559.00 L 45259842.00 62523229.00  z"/>
<path id="N" d="M 46509842.00 42073229.00 L 45919292.00 42073229.00 L 45919292.00 42427559.00 L 46509842.00 42427559.00 L 46509842.00 42073229.00  z"/>
<path id="N" d="M 104509842.00 42073229.00 L 103919292.00 42073229.00 L 103919292.00 42427559.00 L 104509842.00 42427559.00 L 104509842.00 42073229.00  z"/>
<path id="N" d="M 70423228.00 47976772.00 L 69576772.00 47976772.00 L 69576772.00 48823228.00 L 70423228.00 48823228.00 L 70423228.00 47976772.00  z"/>
<path id="N" d="M 57038189.00 63515355.00 L 56723229.00 63515355.00 L 56723229.00 64184645.00 L 57038189.00 64184645.00 L 57038189.00 63515355.00  z"/>
<path id="N" d="M 52438189.00 63515355.00 L 52123229.00 63515355.00 L 52123229.00 64184645.00 L 52438189.00 64184645.00 L 52438189.00 63515355.00  z"/>
<path id="N" d="M 71809842.00 42073229.00 L 71219292.00 42073229.00 L 71219292.00 42427559.00 L 71809842.00 42427559.00 L 71809842.00 42073229.00  z"/>
<path id="N" d="M 83235853.00 23500762.00 L 82896431.00 23500762.00 L 82896431.00 23899238.00 L 83235853.00 23899238.00 L 83235853.00 23500762.00  z"/>
<path id="N" d="M 47153569.00 63750762.00 L 46677823.00 63750762.00 L 46677823.00 64149238.00 L 47153569.00 64149238.00 L 47153569.00 63750762.00  z"/>
<path id="N" d="M 42953569.00 48800762.00 L 42614147.00 48800762.00 L 42614147.00 49199238.00 L 42953569.00 49199238.00 L 42953569.00 48800762.00  z"/>
<path id="N" d="M 87203569.00 48800762.00 L 86864147.00 48800762.00 L 86864147.00 49199238.00 L 87203569.00 49199238.00 L 87203569.00 48800762.00  z"/>
<path id="N" d="M 79872178.00 43300762.00 L 79396432.00 43300762.00 L 79396432.00 43699238.00 L 79872178.00 43699238.00 L 79872178.00 43300762.00  z"/>
<path id="N" d="M 85472178.00 23500762.00 L 84996432.00 23500762.00 L 84996432.00 23899238.00 L 85472178.00 23899238.00 L 85472178.00 23500762.00  z"/>
<path id="N" d="M 51053569.00 63750762.00 L 50577823.00 63750762.00 L 50577823.00 64149238.00 L 51053569.00 64149238.00 L 51053569.00 63750762.00  z"/>
<path id="N" d="M 55653569.00 63750762.00 L 55177823.00 63750762.00 L 55177823.00 64149238.00 L 55653569.00 64149238.00 L 55653569.00 63750762.00  z"/>
<path id="N" d="M 88802756.00 16172835.00 L 88487796.00 16172835.00 L 88487796.00 16527165.00 L 88802756.00 16527165.00 L 88802756.00 16172835.00  z"/>
<path id="N" d="M 80902756.00 16172835.00 L 80587796.00 16172835.00 L 80587796.00 16527165.00 L 80902756.00 16527165.00 L 80902756.00 16172835.00  z"/>
<path id="N" d="M 79977165.00 48988582.00 L 79622835.00 48988582.00 L 79622835.00 49283858.00 L 79977165.00 49283858.00 L 79977165.00 48988582.00  z"/>
<path id="N" d="M 89984252.00 15931890.00 L 89531496.00 15931890.00 L 89531496.00 16168110.00 L 89984252.00 16168110.00 L 89984252.00 15931890.00  z"/>
<path id="N" d="M 60587008.00 48466929.00 L 60212992.00 48466929.00 L 60212992.00 48801575.00 L 60587008.00 48801575.00 L 60587008.00 48466929.00  z"/>
<path id="N" d="M 54787008.00 48466929.00 L 54412992.00 48466929.00 L 54412992.00 48801575.00 L 54787008.00 48801575.00 L 54787008.00 48466929.00  z"/>
<path id="N" d="M 65252756.00 63822835.00 L 64937796.00 63822835.00 L 64937796.00 64177165.00 L 65252756.00 64177165.00 L 65252756.00 63822835.00  z"/>
<path id="N" d="M 88518941.00 49018051.00 L 88181059.00 49018051.00 L 88181059.00 49355161.00 L 88518941.00 49355161.00 L 88518941.00 49018051.00  z"/>
<path id="N" d="M 82072178.00 43300762.00 L 81596432.00 43300762.00 L 81596432.00 43699238.00 L 82072178.00 43699238.00 L 82072178.00 43300762.00  z"/>
<path id="N" d="M 78609842.00 42073229.00 L 78019292.00 42073229.00 L 78019292.00 42427559.00 L 78609842.00 42427559.00 L 78609842.00 42073229.00  z"/>
<path id="N" d="M 101159842.00 42073229.00 L 100569292.00 42073229.00 L 100569292.00 42427559.00 L 101159842.00 42427559.00 L 101159842.00 42073229.00  z"/>
<path id="N" d="M 59122178.00 43300762.00 L 58646432.00 43300762.00 L 58646432.00 43699238.00 L 59122178.00 43699238.00 L 59122178.00 43300762.00  z"/>
<path id="N" d="M 75209842.00 42073229.00 L 74619292.00 42073229.00 L 74619292.00 42427559.00 L 75209842.00 42427559.00 L 75209842.00 42073229.00  z"/>
<path id="N" d="M 32859844.00 206694.00 L 32269294.00 206694.00 L 32269294.00 561024.00 L 32859844.00 561024.00 L 32859844.00 206694.00  z"/>
<path id="N" d="M 10727167.00 31744489.00 L 10372837.00 31744489.00 L 10372837.00 32335039.00 L 10727167.00 32335039.00 L 10727167.00 31744489.00  z"/>
<path id="N" d="M 97759842.00 42073229.00 L 97169292.00 42073229.00 L 97169292.00 42427559.00 L 97759842.00 42427559.00 L 97759842.00 42073229.00  z"/>
<path id="N" d="M 33659844.00 3973229.00 L 33069294.00 3973229.00 L 33069294.00 4327559.00 L 33659844.00 4327559.00 L 33659844.00 3973229.00  z"/>
<path id="N" d="M 85003569.00 16100762.00 L 84527823.00 16100762.00 L 84527823.00 16499238.00 L 85003569.00 16499238.00 L 85003569.00 16100762.00  z"/>
<path id="N" d="M 84272178.00 43300762.00 L 83796432.00 43300762.00 L 83796432.00 43699238.00 L 84272178.00 43699238.00 L 84272178.00 43300762.00  z"/>
<path id="N" d="M 110703569.00 43300762.00 L 110227823.00 43300762.00 L 110227823.00 43699238.00 L 110703569.00 43699238.00 L 110703569.00 43300762.00  z"/>
<path id="N" d="M 87053569.00 16100762.00 L 86577823.00 16100762.00 L 86577823.00 16499238.00 L 87053569.00 16499238.00 L 87053569.00 16100762.00  z"/>
<path id="N" d="M 61322178.00 43300762.00 L 60846432.00 43300762.00 L 60846432.00 43699238.00 L 61322178.00 43699238.00 L 61322178.00 43300762.00  z"/>
<path id="N" d="M 56922178.00 43300762.00 L 56446432.00 43300762.00 L 56446432.00 43699238.00 L 56922178.00 43699238.00 L 56922178.00 43300762.00  z"/>
<path id="N" d="M 106403569.00 43300762.00 L 105927823.00 43300762.00 L 105927823.00 43699238.00 L 106403569.00 43699238.00 L 106403569.00 43300762.00  z"/>
<path id="N" d="M 108503569.00 43300762.00 L 108027823.00 43300762.00 L 108027823.00 43699238.00 L 108503569.00 43699238.00 L 108503569.00 43300762.00  z"/>
<path id="N" d="M 68596850.00 60303150.00 L 68203150.00 60303150.00 L 68203150.00 60696850.00 L 68596850.00 60696850.00 L 68596850.00 60303150.00  zM 68400002.46 60499992.27 m -120431.73 0 a 120431.73 120431.73 0 1 1 240863.46 0a 120431.73 120431.73 0 1 1 -240863.46 0"/>
<path id="N" d="M 66400000.00 63275000.00 L 66400000.00 63125000.00 L 66000000.00 63125000.00 L 66000000.00 63275000.00 L 66200000.00 63475000.00 L 66400000.00 63275000.00  z"/>
<path id="N" d="M 35637008.00 48988583.00 L 35262992.00 48988583.00 L 35262992.00 49303543.00 L 35637008.00 49303543.00 L 35637008.00 48988583.00  z"/>
<path id="N" d="M 43011419.00 27325985.00 L 42657089.00 27325985.00 L 42657089.00 27444095.00 L 43011419.00 27444095.00 L 43011419.00 27325985.00  z"/>
<path id="N" d="M 68399997.94 62499997.94 m -200709.51 0 a 200709.51 200709.51 0 1 1 401419.02 0a 200709.51 200709.51 0 1 1 -401419.02 0M 68400002.46 62499992.27 m -120431.73 0 a 120431.73 120431.73 0 1 1 240863.46 0a 120431.73 120431.73 0 1 1 -240863.46 0"/>
<path id="N" d="M 12727167.00 24854725.00 L 12372837.00 24854725.00 L 12372837.00 25445275.00 L 12727167.00 25445275.00 L 12727167.00 24854725.00  z"/>
<path id="N" d="M 32061811.00 48694095.00 L 31672047.00 48694095.00 L 31672047.00 48812205.00 L 32061811.00 48812205.00 L 32061811.00 48694095.00  z"/>
<path id="N" d="M 16727167.00 24854725.00 L 16372837.00 24854725.00 L 16372837.00 25445275.00 L 16727167.00 25445275.00 L 16727167.00 24854725.00  z"/>
<path id="N" d="M 32859844.00 1505906.00 L 32269294.00 1505906.00 L 32269294.00 1860236.00 L 32859844.00 1860236.00 L 32859844.00 1505906.00  z"/>
<path id="N" d="M 44580708.00 42073229.00 L 43990158.00 42073229.00 L 43990158.00 42427559.00 L 44580708.00 42427559.00 L 44580708.00 42073229.00  z"/>
<path id="N" d="M 70935040.00 48459056.00 L 70600394.00 48459056.00 L 70600394.00 48596850.00 L 70935040.00 48596850.00 L 70935040.00 48459056.00  z"/>
<path id="N" d="M 47907480.00 48837796.00 L 47592520.00 48837796.00 L 47592520.00 49152756.00 L 47907480.00 49152756.00 L 47907480.00 48837796.00  z"/>
<path id="N" d="M 70196850.00 47464960.00 L 70059056.00 47464960.00 L 70059056.00 47799606.00 L 70196850.00 47799606.00 L 70196850.00 47464960.00  z"/>
<path id="N" d="M 54787008.00 48998425.00 L 54412992.00 48998425.00 L 54412992.00 49333071.00 L 54787008.00 49333071.00 L 54787008.00 48998425.00  z"/>
<path id="N" d="M 64942675.00 48860604.00 L 64566099.00 48860604.00 L 64566099.00 49239396.00 L 64942675.00 49239396.00 L 64942675.00 48860604.00  z"/>
<path id="N" d="M 99230708.00 42073229.00 L 98640158.00 42073229.00 L 98640158.00 42427559.00 L 99230708.00 42427559.00 L 99230708.00 42073229.00  z"/>
<path id="N" d="M 97759842.00 43372441.00 L 97169292.00 43372441.00 L 97169292.00 43726771.00 L 97759842.00 43726771.00 L 97759842.00 43372441.00  z"/>
<path id="N" d="M 38122440.00 63671260.00 L 37925590.00 63671260.00 L 37925590.00 63828740.00 L 38122440.00 63828740.00 L 38122440.00 63671260.00  z"/>
<path id="N" d="M 79053543.00 13212992.00 L 78738583.00 13212992.00 L 78738583.00 13587008.00 L 79053543.00 13587008.00 L 79053543.00 13212992.00  z"/>
<path id="N" d="M 53776771.00 63515355.00 L 53461811.00 63515355.00 L 53461811.00 64184645.00 L 53776771.00 64184645.00 L 53776771.00 63515355.00  z"/>
<path id="N" d="M 50422178.00 63750762.00 L 49946432.00 63750762.00 L 49946432.00 64149238.00 L 50422178.00 64149238.00 L 50422178.00 63750762.00  z"/>
<path id="N" d="M 17227167.00 31744489.00 L 16872837.00 31744489.00 L 16872837.00 32335039.00 L 17227167.00 32335039.00 L 17227167.00 31744489.00  z"/>
<path id="N" d="M 38122440.00 63927166.00 L 37925590.00 63927166.00 L 37925590.00 64084646.00 L 38122440.00 64084646.00 L 38122440.00 63927166.00  z"/>
<path id="N" d="M 40874409.00 63801575.00 L 40480709.00 63801575.00 L 40480709.00 63998425.00 L 40874409.00 63998425.00 L 40874409.00 63801575.00  z"/>
<path id="N" d="M 43011419.00 20375985.00 L 42657089.00 20375985.00 L 42657089.00 20494095.00 L 43011419.00 20494095.00 L 43011419.00 20375985.00  z"/>
<path id="N" d="M 78653543.00 48912992.00 L 78338583.00 48912992.00 L 78338583.00 49287008.00 L 78653543.00 49287008.00 L 78653543.00 48912992.00  z"/>
<path id="N" d="M 16227167.00 24854725.00 L 15872837.00 24854725.00 L 15872837.00 25445275.00 L 16227167.00 25445275.00 L 16227167.00 24854725.00  z"/>
<path id="N" d="M 15727167.00 31744489.00 L 15372837.00 31744489.00 L 15372837.00 32335039.00 L 15727167.00 32335039.00 L 15727167.00 31744489.00  z"/>
<path id="N" d="M 104509842.00 43372441.00 L 103919292.00 43372441.00 L 103919292.00 43726771.00 L 104509842.00 43726771.00 L 104509842.00 43372441.00  z"/>
<path id="N" d="M 70935040.00 48714961.00 L 70600394.00 48714961.00 L 70600394.00 48852755.00 L 70935040.00 48852755.00 L 70935040.00 48714961.00  z"/>
<path id="N" d="M 48953543.00 63862992.00 L 48638583.00 63862992.00 L 48638583.00 64237008.00 L 48953543.00 64237008.00 L 48953543.00 63862992.00  z"/>
<path id="N" d="M 41819291.00 63801575.00 L 41425591.00 63801575.00 L 41425591.00 63998425.00 L 41819291.00 63998425.00 L 41819291.00 63801575.00  z"/>
<path id="N" d="M 45259842.00 63822441.00 L 44669292.00 63822441.00 L 44669292.00 64176771.00 L 45259842.00 64176771.00 L 45259842.00 63822441.00  z"/>
<path id="N" d="M 60700001.07 62018504.01 m -277967.15 0 a 277967.15 277967.15 0 1 1 555934.30 0a 277967.15 277967.15 0 1 1 -555934.30 0M 60700000.44 62018502.65 m -180637.35 0 a 180637.35 180637.35 0 1 1 361274.69 0a 180637.35 180637.35 0 1 1 -361274.69 0"/>
<path id="N" d="M 14227167.00 31744489.00 L 13872837.00 31744489.00 L 13872837.00 32335039.00 L 14227167.00 32335039.00 L 14227167.00 31744489.00  z"/>
<path id="N" d="M 68399997.94 61499997.94 m -200709.51 0 a 200709.51 200709.51 0 1 1 401419.02 0a 200709.51 200709.51 0 1 1 -401419.02 0M 68400002.46 61499992.27 m -120431.73 0 a 120431.73 120431.73 0 1 1 240863.46 0a 120431.73 120431.73 0 1 1 -240863.46 0"/>
<path id="N" d="M 13727167.00 24854725.00 L 13372837.00 24854725.00 L 13372837.00 25445275.00 L 13727167.00 25445275.00 L 13727167.00 24854725.00  z"/>
<path id="N" d="M 62942675.00 48860604.00 L 62566099.00 48860604.00 L 62566099.00 49239396.00 L 62942675.00 49239396.00 L 62942675.00 48860604.00  z"/>
<path id="N" d="M 60587008.00 48998425.00 L 60212992.00 48998425.00 L 60212992.00 49333071.00 L 60587008.00 49333071.00 L 60587008.00 48998425.00  z"/>
<path id="N" d="M 69940944.00 47464960.00 L 69803150.00 47464960.00 L 69803150.00 47799606.00 L 69940944.00 47799606.00 L 69940944.00 47464960.00  z"/>
<path id="N" d="M 68399997.94 63499997.94 m -200709.51 0 a 200709.51 200709.51 0 1 1 401419.02 0a 200709.51 200709.51 0 1 1 -401419.02 0M 68400002.46 63499992.27 m -120431.73 0 a 120431.73 120431.73 0 1 1 240863.46 0a 120431.73 120431.73 0 1 1 -240863.46 0"/>
<path id="N" d="M 12227167.00 24854725.00 L 11872837.00 24854725.00 L 11872837.00 25445275.00 L 12227167.00 25445275.00 L 12227167.00 24854725.00  z"/>
<path id="N" d="M 82213248.00 16100762.00 L 81796432.00 16100762.00 L 81796432.00 16499238.00 L 82213248.00 16499238.00 L 82213248.00 16100762.00  z"/>
<path id="N" d="M 78512204.00 16342520.00 L 78197244.00 16342520.00 L 78197244.00 16657480.00 L 78512204.00 16657480.00 L 78512204.00 16342520.00  z"/>
<path id="N" d="M 42881836.00 34415679.00 L 42924978.00 34405185.00 L 42960541.00 34388861.00 L 42983278.00 34372537.00 L 43001934.00 34352715.00 L 43025837.00 34312488.00 L 43039246.00 34274593.00 L 43045076.00 34243694.00 L 43047408.00 34204633.00 L 43042744.00 34163823.00 L 43034582.00 34127677.00 L 43018841.00 34089782.00 L 43003100.00 34065879.00 L 42988525.00 34049555.00 L 42956460.00 34027401.00 L 42924395.00 34012826.00 L 42883585.00 34002332.00 L 42852103.00 34000000.00 L 42821204.00 34002915.00 L 42778062.00 34013409.00 L 42741916.00 34029150.00 L 42730839.00 34036729.00 L 42708685.00 34055385.00 L 42687697.00 34085118.00 L 42673122.00 34116017.00 L 42660879.00 34156244.00 L 42656798.00 34188892.00 L 42656798.00 34222123.00 L 42663794.00 34276342.00 L 42674288.00 34310156.00 L 42689446.00 34337557.00 L 42711600.00 34365541.00 L 42743665.00 34391776.00 L 42765819.00 34402853.00 L 42801965.00 34413347.00 L 42833447.00 34418011.00 L 42881836.00 34415679.00  zM 42822953.00 34345136.00 L 42803131.00 34338140.00 L 42776313.00 34320650.00 L 42763487.00 34303743.00 L 42749495.00 34273427.00 L 42743082.00 34244860.00 L 42740167.00 34202884.00 L 42747746.00 34153329.00 L 42757074.00 34127677.00 L 42766402.00 34111936.00 L 42780394.00 34096778.00 L 42804880.00 34080454.00 L 42826451.00 34072875.00 L 42856767.00 34069377.00 L 42880087.00 34074041.00 L 42906322.00 34083952.00 L 42926144.00 34097944.00 L 42939553.00 34114851.00 L 42953545.00 34145750.00 L 42960541.00 34174317.00 L 42963456.00 34211046.00 L 42961707.00 34234366.00 L 42955877.00 34266431.00 L 42947132.00 34292666.00 L 42931974.00 34315403.00 L 42910986.00 34332310.00 L 42878338.00 34346302.00 L 42852103.00 34349217.00 L 42822953.00 34345136.00  z"/>
<path id="N" d="M 43281774.00 34410432.00 L 43334244.00 34405768.00 L 43359313.00 34396440.00 L 43377969.00 34384197.00 L 43396625.00 34364375.00 L 43406536.00 34348634.00 L 43417030.00 34319484.00 L 43420528.00 34286253.00 L 43418779.00 34265265.00 L 43411200.00 34233783.00 L 43401289.00 34215127.00 L 43379718.00 34190058.00 L 43359313.00 34176649.00 L 43330163.00 34164989.00 L 43289936.00 34160908.00 L 43193158.00 34159742.00 L 43193158.00 34007579.00 L 43111538.00 34007579.00 L 43111538.00 34411015.00 L 43281774.00 34410432.00  zM 43193158.00 34342804.00 L 43193158.00 34227953.00 L 43263701.00 34228536.00 L 43298098.00 34232617.00 L 43315005.00 34241362.00 L 43327831.00 34254188.00 A 56356.33 56356.33 0 0 1 43277693.00 34341638.00 L 43193158.00 34342804.00  z"/>
<path id="N" d="M 13047180.16 28242666.16 m -120412.98 0 a 120412.98 120412.98 0 1 1 240825.96 0a 120412.98 120412.98 0 1 1 -240825.96 0"/>
<path id="N" d="M 13041644.16 27759306.16 m -120412.98 0 a 120412.98 120412.98 0 1 1 240825.96 0a 120412.98 120412.98 0 1 1 -240825.96 0"/>
<path id="N" d="M 42620069.00 34342804.00 L 42501137.00 34342804.00 L 42501137.00 34007579.00 L 42419517.00 34007579.00 L 42419517.00 34342804.00 L 42300002.00 34342804.00 L 42300002.00 34411015.00 L 42620069.00 34411015.00 L 42620069.00 34342804.00  z"/>
<path id="N" d="M 43330708.00 62523229.00 L 42740158.00 62523229.00 L 42740158.00 62877559.00 L 43330708.00 62877559.00 L 43330708.00 62523229.00  z"/>
<path id="N" d="M 13727167.00 31744489.00 L 13372837.00 31744489.00 L 13372837.00 32335039.00 L 13727167.00 32335039.00 L 13727167.00 31744489.00  z"/>
<path id="N" d="M 31730710.00 3973229.00 L 31140160.00 3973229.00 L 31140160.00 4327559.00 L 31730710.00 4327559.00 L 31730710.00 3973229.00  z"/>
<path id="N" d="M 43011419.00 20572835.00 L 42657089.00 20572835.00 L 42657089.00 20690945.00 L 43011419.00 20690945.00 L 43011419.00 20572835.00  z"/>
<path id="N" d="M 43011419.00 28703937.00 L 42657089.00 28703937.00 L 42657089.00 28822047.00 L 43011419.00 28822047.00 L 43011419.00 28703937.00  z"/>
<path id="N" d="M 43011419.00 27522835.00 L 42657089.00 27522835.00 L 42657089.00 27640945.00 L 43011419.00 27640945.00 L 43011419.00 27522835.00  z"/>
<path id="N" d="M 43011419.00 21753937.00 L 42657089.00 21753937.00 L 42657089.00 21872047.00 L 43011419.00 21872047.00 L 43011419.00 21753937.00  z"/>
<path id="N" d="M 90968504.00 15557874.00 L 90515748.00 15557874.00 L 90515748.00 15794094.00 L 90968504.00 15794094.00 L 90968504.00 15557874.00  z"/>
<path id="N" d="M 69399606.00 47947245.00 L 69064960.00 47947245.00 L 69064960.00 48085039.00 L 69399606.00 48085039.00 L 69399606.00 47947245.00  z"/>
<path id="N" d="M 76461417.00 48912992.00 L 76146457.00 48912992.00 L 76146457.00 49287008.00 L 76461417.00 49287008.00 L 76461417.00 48912992.00  z"/>
<path id="N" d="M 43011419.00 21557087.00 L 42657089.00 21557087.00 L 42657089.00 21675197.00 L 43011419.00 21675197.00 L 43011419.00 21557087.00  z"/>
<path id="N" d="M 42528345.35 4697238.57 m -297829.90 0 a 297829.90 297829.90 0 1 1 595659.80 0a 297829.90 297829.90 0 1 1 -595659.80 0M 42528348.36 4697245.47 m -200706.53 0 a 200706.53 200706.53 0 1 1 401413.05 0a 200706.53 200706.53 0 1 1 -401413.05 0"/>
<path id="N" d="M 14227167.00 24854725.00 L 13872837.00 24854725.00 L 13872837.00 25445275.00 L 14227167.00 25445275.00 L 14227167.00 24854725.00  z"/>
<path id="N" d="M 39603543.00 63862992.00 L 39288583.00 63862992.00 L 39288583.00 64237008.00 L 39603543.00 64237008.00 L 39603543.00 63862992.00  z"/>
<path id="N" d="M 37374409.00 63671260.00 L 37177559.00 63671260.00 L 37177559.00 63828740.00 L 37374409.00 63828740.00 L 37374409.00 63671260.00  z"/>
<path id="N" d="M 13227167.00 31744489.00 L 12872837.00 31744489.00 L 12872837.00 32335039.00 L 13227167.00 32335039.00 L 13227167.00 31744489.00  z"/>
<path id="N" d="M 58376771.00 63515355.00 L 58061811.00 63515355.00 L 58061811.00 64184645.00 L 58376771.00 64184645.00 L 58376771.00 63515355.00  z"/>
<path id="N" d="M 11727167.00 24854725.00 L 11372837.00 24854725.00 L 11372837.00 25445275.00 L 11727167.00 25445275.00 L 11727167.00 24854725.00  z"/>
<path id="N" d="M 37374409.00 63415355.00 L 37177559.00 63415355.00 L 37177559.00 63572835.00 L 37374409.00 63572835.00 L 37374409.00 63415355.00  z"/>
<path id="N" d="M 55022178.00 63750762.00 L 54546432.00 63750762.00 L 54546432.00 64149238.00 L 55022178.00 64149238.00 L 55022178.00 63750762.00  z"/>
<path id="N" d="M 70453543.00 63862992.00 L 70138583.00 63862992.00 L 70138583.00 64237008.00 L 70453543.00 64237008.00 L 70453543.00 63862992.00  z"/>
<path id="N" d="M 64662204.00 63822835.00 L 64347244.00 63822835.00 L 64347244.00 64177165.00 L 64662204.00 64177165.00 L 64662204.00 63822835.00  z"/>
<path id="N" d="M 40855119.00 10110631.00 L 40264569.00 10110631.00 L 40264569.00 10701181.00 L 40855119.00 10701181.00 L 40855119.00 10110631.00  zM 40559844.36 10405906.47 m -200706.53 0 a 200706.53 200706.53 0 1 1 401413.05 0a 200706.53 200706.53 0 1 1 -401413.05 0"/>
<path id="N" d="M 80753543.00 13212992.00 L 80438583.00 13212992.00 L 80438583.00 13587008.00 L 80753543.00 13587008.00 L 80753543.00 13212992.00  z"/>
<path id="N" d="M 73280708.00 42073229.00 L 72690158.00 42073229.00 L 72690158.00 42427559.00 L 73280708.00 42427559.00 L 73280708.00 42073229.00  z"/>
<path id="N" d="M 71809842.00 43372441.00 L 71219292.00 43372441.00 L 71219292.00 43726771.00 L 71809842.00 43726771.00 L 71809842.00 43372441.00  z"/>
<path id="N" d="M 74527953.00 49087795.00 L 74138189.00 49087795.00 L 74138189.00 49205905.00 L 74527953.00 49205905.00 L 74527953.00 49087795.00  z"/>
<path id="N" d="M 43011419.00 21163386.00 L 42657089.00 21163386.00 L 42657089.00 21281496.00 L 43011419.00 21281496.00 L 43011419.00 21163386.00  z"/>
<path id="N" d="M 43011419.00 20769685.00 L 42657089.00 20769685.00 L 42657089.00 20887795.00 L 43011419.00 20887795.00 L 43011419.00 20769685.00  z"/>
<path id="N" d="M 43011419.00 27129134.00 L 42657089.00 27129134.00 L 42657089.00 27247244.00 L 43011419.00 27247244.00 L 43011419.00 27129134.00  z"/>
<path id="N" d="M 43011419.00 29097638.00 L 42657089.00 29097638.00 L 42657089.00 29215748.00 L 43011419.00 29215748.00 L 43011419.00 29097638.00  z"/>
<path id="N" d="M 38622086.00 48663347.00 L 38128032.00 48663347.00 L 38128032.00 49236653.00 L 38622086.00 49236653.00 L 38622086.00 48663347.00  z"/>
<path id="N" d="M 43011419.00 26932284.00 L 42657089.00 26932284.00 L 42657089.00 27050394.00 L 43011419.00 27050394.00 L 43011419.00 26932284.00  z"/>
<path id="N" d="M 43011419.00 28900788.00 L 42657089.00 28900788.00 L 42657089.00 29018898.00 L 43011419.00 29018898.00 L 43011419.00 28900788.00  z"/>
<path id="N" d="M 102580708.00 42073229.00 L 101990158.00 42073229.00 L 101990158.00 42427559.00 L 102580708.00 42427559.00 L 102580708.00 42073229.00  z"/>
<path id="N" d="M 101159842.00 43372441.00 L 100569292.00 43372441.00 L 100569292.00 43726771.00 L 101159842.00 43726771.00 L 101159842.00 43372441.00  z"/>
<path id="N" d="M 47907480.00 48247244.00 L 47592520.00 48247244.00 L 47592520.00 48562204.00 L 47907480.00 48562204.00 L 47907480.00 48247244.00  z"/>
<path id="N" d="M 50287008.00 48496457.00 L 49912992.00 48496457.00 L 49912992.00 48811417.00 L 50287008.00 48811417.00 L 50287008.00 48496457.00  z"/>
<path id="N" d="M 75161811.00 49087795.00 L 74772047.00 49087795.00 L 74772047.00 49205905.00 L 75161811.00 49205905.00 L 75161811.00 49087795.00  z"/>
<path id="N" d="M 63533901.00 48860604.00 L 63157325.00 48860604.00 L 63157325.00 49239396.00 L 63533901.00 49239396.00 L 63533901.00 48860604.00  z"/>
<path id="N" d="M 43011419.00 20966536.00 L 42657089.00 20966536.00 L 42657089.00 21084646.00 L 43011419.00 21084646.00 L 43011419.00 20966536.00  z"/>
<path id="N" d="M 43011419.00 21360237.00 L 42657089.00 21360237.00 L 42657089.00 21478347.00 L 43011419.00 21478347.00 L 43011419.00 21360237.00  z"/>
<path id="N" d="M 74527953.00 48694095.00 L 74138189.00 48694095.00 L 74138189.00 48812205.00 L 74527953.00 48812205.00 L 74527953.00 48694095.00  z"/>
<path id="N" d="M 68399997.94 62999997.94 m -200709.51 0 a 200709.51 200709.51 0 1 1 401419.02 0a 200709.51 200709.51 0 1 1 -401419.02 0M 68400002.46 62999992.27 m -120431.73 0 a 120431.73 120431.73 0 1 1 240863.46 0a 120431.73 120431.73 0 1 1 -240863.46 0"/>
<path id="N" d="M 11227167.00 31744489.00 L 10872837.00 31744489.00 L 10872837.00 32335039.00 L 11227167.00 32335039.00 L 11227167.00 31744489.00  z"/>
<path id="N" d="M 31427953.00 48694095.00 L 31038189.00 48694095.00 L 31038189.00 48812205.00 L 31427953.00 48812205.00 L 31427953.00 48694095.00  z"/>
<path id="N" d="M 43011419.00 27916536.00 L 42657089.00 27916536.00 L 42657089.00 28034646.00 L 43011419.00 28034646.00 L 43011419.00 27916536.00  z"/>
<path id="N" d="M 43011419.00 28310237.00 L 42657089.00 28310237.00 L 42657089.00 28428347.00 L 43011419.00 28428347.00 L 43011419.00 28310237.00  z"/>
<path id="N" d="M 60700001.07 61034252.01 m -277967.15 0 a 277967.15 277967.15 0 1 1 555934.30 0a 277967.15 277967.15 0 1 1 -555934.30 0M 60700000.44 61034250.65 m -180637.35 0 a 180637.35 180637.35 0 1 1 361274.69 0a 180637.35 180637.35 0 1 1 -361274.69 0"/>
<path id="N" d="M 14727167.00 31744489.00 L 14372837.00 31744489.00 L 14372837.00 32335039.00 L 14727167.00 32335039.00 L 14727167.00 31744489.00  z"/>
<path id="N" d="M 92221968.00 15963347.00 L 91727914.00 15963347.00 L 91727914.00 16536653.00 L 92221968.00 16536653.00 L 92221968.00 15963347.00  z"/>
<path id="N" d="M 80312204.00 16172835.00 L 79997244.00 16172835.00 L 79997244.00 16527165.00 L 80312204.00 16527165.00 L 80312204.00 16172835.00  z"/>
<path id="N" d="M 86422178.00 16100762.00 L 85946432.00 16100762.00 L 85946432.00 16499238.00 L 86422178.00 16499238.00 L 86422178.00 16100762.00  z"/>
<path id="N" d="M 90968504.00 16305906.00 L 90515748.00 16305906.00 L 90515748.00 16542126.00 L 90968504.00 16542126.00 L 90968504.00 16305906.00  z"/>
<path id="N" d="M 70196850.00 49000394.00 L 70059056.00 49000394.00 L 70059056.00 49335040.00 L 70196850.00 49335040.00 L 70196850.00 49000394.00  z"/>
<path id="N" d="M 78561417.00 13212992.00 L 78246457.00 13212992.00 L 78246457.00 13587008.00 L 78561417.00 13587008.00 L 78561417.00 13212992.00  z"/>
<path id="N" d="M 37374409.00 63927166.00 L 37177559.00 63927166.00 L 37177559.00 64084646.00 L 37374409.00 64084646.00 L 37374409.00 63927166.00  z"/>
<path id="N" d="M 69880708.00 42073229.00 L 69290158.00 42073229.00 L 69290158.00 42427559.00 L 69880708.00 42427559.00 L 69880708.00 42073229.00  z"/>
<path id="N" d="M 46509842.00 43372441.00 L 45919292.00 43372441.00 L 45919292.00 43726771.00 L 46509842.00 43726771.00 L 46509842.00 43372441.00  z"/>
<path id="N" d="M 42528345.35 10405899.57 m -297829.90 0 a 297829.90 297829.90 0 1 1 595659.80 0a 297829.90 297829.90 0 1 1 -595659.80 0M 42528348.36 10405906.47 m -200706.53 0 a 200706.53 200706.53 0 1 1 401413.05 0a 200706.53 200706.53 0 1 1 -401413.05 0"/>
<path id="N" d="M 14727167.00 24854725.00 L 14372837.00 24854725.00 L 14372837.00 25445275.00 L 14727167.00 25445275.00 L 14727167.00 24854725.00  z"/>
<path id="N" d="M 43011419.00 28507087.00 L 42657089.00 28507087.00 L 42657089.00 28625197.00 L 43011419.00 28625197.00 L 43011419.00 28507087.00  z"/>
<path id="N" d="M 33437008.00 48496457.00 L 33062992.00 48496457.00 L 33062992.00 48811417.00 L 33437008.00 48811417.00 L 33437008.00 48496457.00  z"/>
<path id="N" d="M 66949997.35 49099993.57 m -297829.90 0 a 297829.90 297829.90 0 1 1 595659.80 0a 297829.90 297829.90 0 1 1 -595659.80 0"/>
<path id="N" d="M 12727167.00 31744489.00 L 12372837.00 31744489.00 L 12372837.00 32335039.00 L 12727167.00 32335039.00 L 12727167.00 31744489.00  z"/>
<path id="N" d="M 69940944.00 49000394.00 L 69803150.00 49000394.00 L 69803150.00 49335040.00 L 69940944.00 49335040.00 L 69940944.00 49000394.00  z"/>
<path id="N" d="M 43011419.00 21950788.00 L 42657089.00 21950788.00 L 42657089.00 22068898.00 L 43011419.00 22068898.00 L 43011419.00 21950788.00  z"/>
<path id="N" d="M 43011419.00 22147638.00 L 42657089.00 22147638.00 L 42657089.00 22265748.00 L 43011419.00 22265748.00 L 43011419.00 22147638.00  z"/>
<path id="N" d="M 43011419.00 20179134.00 L 42657089.00 20179134.00 L 42657089.00 20297244.00 L 43011419.00 20297244.00 L 43011419.00 20179134.00  z"/>
<path id="N" d="M 43011419.00 19982284.00 L 42657089.00 19982284.00 L 42657089.00 20100394.00 L 43011419.00 20100394.00 L 43011419.00 19982284.00  z"/>
<path id="N" d="M 83022086.00 48663347.00 L 82528032.00 48663347.00 L 82528032.00 49236653.00 L 83022086.00 49236653.00 L 83022086.00 48663347.00  z"/>
<path id="N" d="M 16227167.00 31744489.00 L 15872837.00 31744489.00 L 15872837.00 32335039.00 L 16227167.00 32335039.00 L 16227167.00 31744489.00  z"/>
<path id="N" d="M 39111417.00 63862992.00 L 38796457.00 63862992.00 L 38796457.00 64237008.00 L 39111417.00 64237008.00 L 39111417.00 63862992.00  z"/>
<path id="N" d="M 38122440.00 63415355.00 L 37925590.00 63415355.00 L 37925590.00 63572835.00 L 38122440.00 63572835.00 L 38122440.00 63415355.00  z"/>
<path id="N" d="M 69685039.00 49000394.00 L 69547245.00 49000394.00 L 69547245.00 49335040.00 L 69685039.00 49335040.00 L 69685039.00 49000394.00  z"/>
<path id="N" d="M 15727167.00 24854725.00 L 15372837.00 24854725.00 L 15372837.00 25445275.00 L 15727167.00 25445275.00 L 15727167.00 24854725.00  z"/>
<path id="N" d="M 16727167.00 31744489.00 L 16372837.00 31744489.00 L 16372837.00 32335039.00 L 16727167.00 32335039.00 L 16727167.00 31744489.00  z"/>
<path id="N" d="M 63453543.00 63862992.00 L 63138583.00 63862992.00 L 63138583.00 64237008.00 L 63453543.00 64237008.00 L 63453543.00 63862992.00  z"/>
<path id="N" d="M 15227167.00 24854725.00 L 14872837.00 24854725.00 L 14872837.00 25445275.00 L 15227167.00 25445275.00 L 15227167.00 24854725.00  z"/>
<path id="N" d="M 75161811.00 48694095.00 L 74772047.00 48694095.00 L 74772047.00 48812205.00 L 75161811.00 48812205.00 L 75161811.00 48694095.00  z"/>
<path id="N" d="M 65533901.00 48860604.00 L 65157325.00 48860604.00 L 65157325.00 49239396.00 L 65533901.00 49239396.00 L 65533901.00 48860604.00  z"/>
<path id="N" d="M 94049997.35 16399993.57 m -297829.90 0 a 297829.90 297829.90 0 1 1 595659.80 0a 297829.90 297829.90 0 1 1 -595659.80 0"/>
<path id="N" d="M 60975590.00 59774410.00 L 60424410.00 59774410.00 L 60424410.00 60325590.00 L 60975590.00 60325590.00 L 60975590.00 59774410.00  zM 60700000.44 60049998.65 m -180637.35 0 a 180637.35 180637.35 0 1 1 361274.69 0a 180637.35 180637.35 0 1 1 -361274.69 0"/>
<path id="N" d="M 66400000.00 63450000.00 L 66200000.00 63650000.00 L 66000000.00 63450000.00 L 66000000.00 63950000.00 L 66200000.00 63750000.00 L 66400000.00 63950000.00 L 66400000.00 63450000.00  z"/>
<path id="N" d="M 50287008.00 48988583.00 L 49912992.00 48988583.00 L 49912992.00 49303543.00 L 50287008.00 49303543.00 L 50287008.00 48988583.00  z"/>
<path id="N" d="M 84003569.00 23500762.00 L 83664147.00 23500762.00 L 83664147.00 23899238.00 L 84003569.00 23899238.00 L 84003569.00 23500762.00  z"/>
<path id="N" d="M 69961417.00 63862992.00 L 69646457.00 63862992.00 L 69646457.00 64237008.00 L 69961417.00 64237008.00 L 69961417.00 63862992.00  z"/>
<path id="N" d="M 48461417.00 63862992.00 L 48146457.00 63862992.00 L 48146457.00 64237008.00 L 48461417.00 64237008.00 L 48461417.00 63862992.00  z"/>
<path id="N" d="M 11227167.00 24854725.00 L 10872837.00 24854725.00 L 10872837.00 25445275.00 L 11227167.00 25445275.00 L 11227167.00 24854725.00  z"/>
<path id="N" d="M 92872086.00 15963347.00 L 92378032.00 15963347.00 L 92378032.00 16536653.00 L 92872086.00 16536653.00 L 92872086.00 15963347.00  z"/>
<path id="N" d="M 82903568.00 16100762.00 L 82486752.00 16100762.00 L 82486752.00 16499238.00 L 82903568.00 16499238.00 L 82903568.00 16100762.00  z"/>
<path id="N" d="M 86103569.00 23500762.00 L 85627823.00 23500762.00 L 85627823.00 23899238.00 L 86103569.00 23899238.00 L 86103569.00 23500762.00  z"/>
<path id="N" d="M 69399606.00 48714961.00 L 69064960.00 48714961.00 L 69064960.00 48852755.00 L 69399606.00 48852755.00 L 69399606.00 48714961.00  z"/>
<path id="N" d="M 70935040.00 47947245.00 L 70600394.00 47947245.00 L 70600394.00 48085039.00 L 70935040.00 48085039.00 L 70935040.00 47947245.00  z"/>
<path id="N" d="M 62961417.00 63862992.00 L 62646457.00 63862992.00 L 62646457.00 64237008.00 L 62961417.00 64237008.00 L 62961417.00 63862992.00  z"/>
<path id="N" d="M 80261417.00 13212992.00 L 79946457.00 13212992.00 L 79946457.00 13587008.00 L 80261417.00 13587008.00 L 80261417.00 13212992.00  z"/>
<path id="N" d="M 70452755.00 47464960.00 L 70314961.00 47464960.00 L 70314961.00 47799606.00 L 70452755.00 47799606.00 L 70452755.00 47464960.00  z"/>
<path id="N" d="M 72077165.00 48988582.00 L 71722835.00 48988582.00 L 71722835.00 49283858.00 L 72077165.00 49283858.00 L 72077165.00 48988582.00  z"/>
<path id="N" d="M 68399997.94 63999997.94 m -200709.51 0 a 200709.51 200709.51 0 1 1 401419.02 0a 200709.51 200709.51 0 1 1 -401419.02 0M 68400002.46 63999992.27 m -120431.73 0 a 120431.73 120431.73 0 1 1 240863.46 0a 120431.73 120431.73 0 1 1 -240863.46 0"/>
<path id="N" d="M 11727167.00 31744489.00 L 11372837.00 31744489.00 L 11372837.00 32335039.00 L 11727167.00 32335039.00 L 11727167.00 31744489.00  z"/>
<path id="N" d="M 52349997.35 49099993.57 m -297829.90 0 a 297829.90 297829.90 0 1 1 595659.80 0a 297829.90 297829.90 0 1 1 -595659.80 0"/>
<path id="N" d="M 12227167.00 31744489.00 L 11872837.00 31744489.00 L 11872837.00 32335039.00 L 12227167.00 32335039.00 L 12227167.00 31744489.00  z"/>
<path id="N" d="M 69399606.00 48459056.00 L 69064960.00 48459056.00 L 69064960.00 48596850.00 L 69399606.00 48596850.00 L 69399606.00 48459056.00  z"/>
<path id="N" d="M 40477165.00 48695276.00 L 40122835.00 48695276.00 L 40122835.00 49010236.00 L 40477165.00 49010236.00 L 40477165.00 48695276.00  z"/>
<path id="N" d="M 33437008.00 48988583.00 L 33062992.00 48988583.00 L 33062992.00 49303543.00 L 33437008.00 49303543.00 L 33437008.00 48988583.00  z"/>
<path id="N" d="M 35637008.00 48496457.00 L 35262992.00 48496457.00 L 35262992.00 48811417.00 L 35637008.00 48811417.00 L 35637008.00 48496457.00  z"/>
<path id="N" d="M 37971968.00 48663347.00 L 37477914.00 48663347.00 L 37477914.00 49236653.00 L 37971968.00 49236653.00 L 37971968.00 48663347.00  z"/>
<path id="N" d="M 82371968.00 48663347.00 L 81877914.00 48663347.00 L 81877914.00 49236653.00 L 82371968.00 49236653.00 L 82371968.00 48663347.00  z"/>
<path id="N" d="M 78161417.00 48912992.00 L 77846457.00 48912992.00 L 77846457.00 49287008.00 L 78161417.00 49287008.00 L 78161417.00 48912992.00  z"/>
<path id="N" d="M 84877165.00 48695276.00 L 84522835.00 48695276.00 L 84522835.00 49010236.00 L 84877165.00 49010236.00 L 84877165.00 48695276.00  z"/>
<path id="N" d="M 76953543.00 48912992.00 L 76638583.00 48912992.00 L 76638583.00 49287008.00 L 76953543.00 49287008.00 L 76953543.00 48912992.00  z"/>
<path id="N" d="M 30930710.00 206694.00 L 30340160.00 206694.00 L 30340160.00 561024.00 L 30930710.00 561024.00 L 30930710.00 206694.00  z"/>
<path id="N" d="M 33659844.00 5272441.00 L 33069294.00 5272441.00 L 33069294.00 5626771.00 L 33659844.00 5626771.00 L 33659844.00 5272441.00  z"/>
<path id="N" d="M 95830708.00 42073229.00 L 95240158.00 42073229.00 L 95240158.00 42427559.00 L 95830708.00 42427559.00 L 95830708.00 42073229.00  z"/>
<path id="N" d="M 78609842.00 43372441.00 L 78019292.00 43372441.00 L 78019292.00 43726771.00 L 78609842.00 43726771.00 L 78609842.00 43372441.00  z"/>
</g>
</svg>
