<svg width="90.10193816mm" height="80.07736588mm" viewBox="0 0 35473204 31526522"  version="1.1" xmlns="http://www.w3.org/2000/svg" xmlns:xlink="http://www.w3.org/1999/xlink">
<desc>
Origin 10000002 18350000 Bound 9930167 3280165 35473204 31526522
</desc>
<g fill-rule="evenodd" fill="rgb(128, 0, 128)" stroke="black" stroke-width="1" transform="translate(0, 31526522) scale(1, -1) translate(-9930167, -3280165)">
<path id="N" d="M 45403371.00 34338051.00 L 45403371.00 29916605.00 L 45381498.00 29894732.00 L 43149365.00 29894732.00 L 43149365.00 26253300.00 L 45381498.00 26253300.00 L 45401333.00 26233465.00 L 45401333.00 22964567.00 L 45381498.00 22944732.00 L 43149365.00 22944732.00 L 43149365.00 19303300.00 L 45381498.00 19303300.00 L 45401333.00 19283465.00 L 45401333.00 3748800.00 A 522334.30 522334.30 0 0 0 44932697.00 3280165.00 L 10398802.00 3280165.00 A 522308.41 522308.41 0 0 0 9930167.00 3748800.00 L 9930167.00 34338051.00 A 522308.41 522308.41 0 0 0 10398802.00 34806687.00 L 44934735.00 34806687.00 A 522375.99 522375.99 0 0 0 45403371.00 34338051.00  zM 12999998.64 8050016.14 m -623062.86 0 a 623062.86 623062.86 0 1 1 1246125.73 0a 623062.86 623062.86 0 1 1 -1246125.73 0M 15499998.64 9050016.14 m -623062.86 0 a 623062.86 623062.86 0 1 1 1246125.73 0a 623062.86 623062.86 0 1 1 -1246125.73 0M 13002360.64 12900016.14 m -623062.86 0 a 623062.86 623062.86 0 1 1 1246125.73 0a 623062.86 623062.86 0 1 1 -1246125.73 0M 15502360.64 13900016.14 m -623062.86 0 a 623062.86 623062.86 0 1 1 1246125.73 0a 623062.86 623062.86 0 1 1 -1246125.73 0M 10756695.00 25474803.00 L 10343309.00 25474803.00 L 10343309.00 24825197.00 L 10756695.00 24825197.00 L 10756695.00 25474803.00  zM 13256695.00 25474803.00 L 12843309.00 25474803.00 L 12843309.00 24825197.00 L 13256695.00 24825197.00 L 13256695.00 25474803.00  zM 14756695.00 25474803.00 L 14343309.00 25474803.00 L 14343309.00 24825197.00 L 14756695.00 24825197.00 L 14756695.00 25474803.00  zM 11256695.00 25474803.00 L 10843309.00 25474803.00 L 10843309.00 24825197.00 L 11256695.00 24825197.00 L 11256695.00 25474803.00  zM 12256695.00 25474803.00 L 11843309.00 25474803.00 L 11843309.00 24825197.00 L 12256695.00 24825197.00 L 12256695.00 25474803.00  zM 12756695.00 25474803.00 L 12343309.00 25474803.00 L 12343309.00 24825197.00 L 12756695.00 24825197.00 L 12756695.00 25474803.00  zM 13756695.00 25474803.00 L 13343309.00 25474803.00 L 13343309.00 24825197.00 L 13756695.00 24825197.00 L 13756695.00 25474803.00  zM 14256695.00 25474803.00 L 13843309.00 25474803.00 L 13843309.00 24825197.00 L 14256695.00 24825197.00 L 14256695.00 25474803.00  zM 15256695.00 25474803.00 L 14843309.00 25474803.00 L 14843309.00 24825197.00 L 15256695.00 24825197.00 L 15256695.00 25474803.00  zM 11756695.00 25474803.00 L 11343309.00 25474803.00 L 11343309.00 24825197.00 L 11756695.00 24825197.00 L 11756695.00 25474803.00  zM 13481104.00 28681496.00 L 13107088.00 28681496.00 L 13107088.00 28380185.85 L 13104777.00 28381730.00 L 13047172.00 28393188.00 L 12988978.00 28381336.44 L 12988978.00 28681496.00 L 12614962.00 28681496.00 L 12614962.00 28376759.25 L 12604745.00 28383586.00 L 12547140.00 28395044.00 L 12496852.00 28385041.40 L 12496852.00 28681496.00 L 12122836.00 28681496.00 L 12122836.00 28307480.00 L 12411650.09 28307480.00 L 12408068.00 28302119.00 L 12396610.00 28244514.00 L 12407578.49 28189370.00 L 12122836.00 28189370.00 L 12122836.00 27815354.00 L 12415036.28 27815354.00 L 12409892.00 27807655.00 L 12398434.00 27750050.00 L 12408937.45 27697244.00 L 12122836.00 27697244.00 L 12122836.00 27323228.00 L 12496852.00 27323228.00 L 12496852.00 27609885.41 L 12548964.00 27599520.00 L 12606569.00 27610978.00 L 12614962.00 27616585.99 L 12614962.00 27323228.00 L 12988978.00 27323228.00 L 12988978.00 27619242.01 L 13041636.00 27608768.00 L 13099241.00 27620226.00 L 13107088.00 27625469.17 L 13107088.00 27323228.00 L 13481104.00 27323228.00 L 13481104.00 27697244.00 L 13177735.29 27697244.00 L 13180708.00 27701693.00 L 13192166.00 27759298.00 L 13181016.11 27815354.00 L 13481104.00 27815354.00 L 13481104.00 28189370.00 L 13187102.68 28189370.00 L 13197702.00 28242658.00 L 13186244.00 28300263.00 L 13181421.78 28307480.00 L 13481104.00 28307480.00 L 13481104.00 28681496.00  zM 12256695.00 32364567.00 L 11843309.00 32364567.00 L 11843309.00 31714961.00 L 12256695.00 31714961.00 L 12256695.00 32364567.00  zM 11256695.00 32364567.00 L 10843309.00 32364567.00 L 10843309.00 31714961.00 L 11256695.00 31714961.00 L 11256695.00 32364567.00  zM 13256695.00 32364567.00 L 12843309.00 32364567.00 L 12843309.00 31714961.00 L 13256695.00 31714961.00 L 13256695.00 32364567.00  zM 14256695.00 32364567.00 L 13843309.00 32364567.00 L 13843309.00 31714961.00 L 14256695.00 31714961.00 L 14256695.00 32364567.00  zM 10756695.00 32364567.00 L 10343309.00 32364567.00 L 10343309.00 31714961.00 L 10756695.00 31714961.00 L 10756695.00 32364567.00  zM 11756695.00 32364567.00 L 11343309.00 32364567.00 L 11343309.00 31714961.00 L 11756695.00 31714961.00 L 11756695.00 32364567.00  zM 12756695.00 32364567.00 L 12343309.00 32364567.00 L 12343309.00 31714961.00 L 12756695.00 31714961.00 L 12756695.00 32364567.00  zM 13756695.00 32364567.00 L 13343309.00 32364567.00 L 13343309.00 31714961.00 L 13756695.00 31714961.00 L 13756695.00 32364567.00  zM 14756695.00 32364567.00 L 14343309.00 32364567.00 L 14343309.00 31714961.00 L 14756695.00 31714961.00 L 14756695.00 32364567.00  zM 15256695.00 32364567.00 L 14843309.00 32364567.00 L 14843309.00 31714961.00 L 15256695.00 31714961.00 L 15256695.00 32364567.00  zM 20752360.64 8050016.14 m -623062.86 0 a 623062.86 623062.86 0 1 1 1246125.73 0a 623062.86 623062.86 0 1 1 -1246125.73 0M 23252360.64 9050016.14 m -623062.86 0 a 623062.86 623062.86 0 1 1 1246125.73 0a 623062.86 623062.86 0 1 1 -1246125.73 0M 28749998.64 8050016.14 m -623062.86 0 a 623062.86 623062.86 0 1 1 1246125.73 0a 623062.86 623062.86 0 1 1 -1246125.73 0M 31760238.00 4357087.00 L 31110632.00 4357087.00 L 31110632.00 3943701.00 L 31760238.00 3943701.00 L 31760238.00 4357087.00  zM 31760238.00 5656299.00 L 31110632.00 5656299.00 L 31110632.00 5242913.00 L 31760238.00 5242913.00 L 31760238.00 5656299.00  zM 31249998.64 9050016.14 m -623062.86 0 a 623062.86 623062.86 0 1 1 1246125.73 0a 623062.86 623062.86 0 1 1 -1246125.73 0M 33689372.00 4357087.00 L 33039766.00 4357087.00 L 33039766.00 3943701.00 L 33689372.00 3943701.00 L 33689372.00 4357087.00  zM 33689372.00 5656299.00 L 33039766.00 5656299.00 L 33039766.00 5242913.00 L 33689372.00 5242913.00 L 33689372.00 5656299.00  zM 39782286.00 8289764.00 L 38817718.00 8289764.00 L 38817718.00 7010236.00 L 39782286.00 7010236.00 L 39782286.00 8289764.00  zM 40559843.86 4697246.28 m -327604.72 0 a 327604.72 327604.72 0 1 1 655209.45 0a 327604.72 327604.72 0 1 1 -655209.45 0M 41544095.86 4697246.28 m -327604.72 0 a 327604.72 327604.72 0 1 1 655209.45 0a 327604.72 327604.72 0 1 1 -655209.45 0M 40884647.00 10730709.00 L 40235041.00 10730709.00 L 40235041.00 10081103.00 L 40884647.00 10081103.00 L 40884647.00 10730709.00  zM 20752360.64 12900016.14 m -623062.86 0 a 623062.86 623062.86 0 1 1 1246125.73 0a 623062.86 623062.86 0 1 1 -1246125.73 0M 15756695.00 25474803.00 L 15343309.00 25474803.00 L 15343309.00 24825197.00 L 15756695.00 24825197.00 L 15756695.00 25474803.00  zM 17256695.00 25474803.00 L 16843309.00 25474803.00 L 16843309.00 24825197.00 L 17256695.00 24825197.00 L 17256695.00 25474803.00  zM 23252360.64 13900016.14 m -623062.86 0 a 623062.86 623062.86 0 1 1 1246125.73 0a 623062.86 623062.86 0 1 1 -1246125.73 0M 28747636.64 12900016.14 m -623062.86 0 a 623062.86 623062.86 0 1 1 1246125.73 0a 623062.86 623062.86 0 1 1 -1246125.73 0M 31247636.64 13900016.14 m -623062.86 0 a 623062.86 623062.86 0 1 1 1246125.73 0a 623062.86 623062.86 0 1 1 -1246125.73 0M 16256695.00 25474803.00 L 15843309.00 25474803.00 L 15843309.00 24825197.00 L 16256695.00 24825197.00 L 16256695.00 25474803.00  zM 16756695.00 25474803.00 L 16343309.00 25474803.00 L 16343309.00 24825197.00 L 16756695.00 24825197.00 L 16756695.00 25474803.00  zM 16256695.00 32364567.00 L 15843309.00 32364567.00 L 15843309.00 31714961.00 L 16256695.00 31714961.00 L 16256695.00 32364567.00  zM 15756695.00 32364567.00 L 15343309.00 32364567.00 L 15343309.00 31714961.00 L 15756695.00 31714961.00 L 15756695.00 32364567.00  zM 16756695.00 32364567.00 L 16343309.00 32364567.00 L 16343309.00 31714961.00 L 16756695.00 31714961.00 L 16756695.00 32364567.00  zM 17256695.00 32364567.00 L 16843309.00 32364567.00 L 16843309.00 31714961.00 L 17256695.00 31714961.00 L 17256695.00 32364567.00  zM 42528347.86 4697246.28 m -327604.72 0 a 327604.72 327604.72 0 1 1 655209.45 0a 327604.72 327604.72 0 1 1 -655209.45 0M 44270474.00 8289764.00 L 43305906.00 8289764.00 L 43305906.00 7010236.00 L 44270474.00 7010236.00 L 44270474.00 8289764.00  zM 42528347.86 10405907.28 m -327604.72 0 a 327604.72 327604.72 0 1 1 655209.45 0a 327604.72 327604.72 0 1 1 -655209.45 0M 43011419.00 19509843.00 L 42657089.00 19509843.00 L 42657089.00 19391733.00 L 43011419.00 19391733.00 L 43011419.00 19509843.00  zM 43383467.00 19198739.00 L 42773231.00 19198739.00 A 200706.53 200706.53 0 1 1 42773231.00 18797325.00 L 43383467.00 18797325.00 A 200706.53 200706.53 0 0 1 43383467.00 19198739.00  zM 44605908.00 19218809.00 L 44094096.00 19218809.00 A 220780.35 220780.35 0 0 1 44094096.00 18777255.00 L 44605908.00 18777255.00 A 220780.35 220780.35 0 0 1 44605908.00 19218809.00  zM 43011419.00 19706693.00 L 42657089.00 19706693.00 L 42657089.00 19588583.00 L 43011419.00 19588583.00 L 43011419.00 19706693.00  zM 43011419.00 19903543.00 L 42657089.00 19903543.00 L 42657089.00 19785433.00 L 43011419.00 19785433.00 L 43011419.00 19903543.00  zM 43011419.00 20100394.00 L 42657089.00 20100394.00 L 42657089.00 19982284.00 L 43011419.00 19982284.00 L 43011419.00 20100394.00  zM 43011419.00 20297244.00 L 42657089.00 20297244.00 L 42657089.00 20179134.00 L 43011419.00 20179134.00 L 43011419.00 20297244.00  zM 43011419.00 20494095.00 L 42657089.00 20494095.00 L 42657089.00 20375985.00 L 43011419.00 20375985.00 L 43011419.00 20494095.00  zM 43011419.00 20690945.00 L 42657089.00 20690945.00 L 42657089.00 20572835.00 L 43011419.00 20572835.00 L 43011419.00 20690945.00  zM 43011419.00 20887795.00 L 42657089.00 20887795.00 L 42657089.00 20769685.00 L 43011419.00 20769685.00 L 43011419.00 20887795.00  zM 43011419.00 21084646.00 L 42657089.00 21084646.00 L 42657089.00 20966536.00 L 43011419.00 20966536.00 L 43011419.00 21084646.00  zM 43011419.00 21281496.00 L 42657089.00 21281496.00 L 42657089.00 21163386.00 L 43011419.00 21163386.00 L 43011419.00 21281496.00  zM 43011419.00 21478347.00 L 42657089.00 21478347.00 L 42657089.00 21360237.00 L 43011419.00 21360237.00 L 43011419.00 21478347.00  zM 43011419.00 21675197.00 L 42657089.00 21675197.00 L 42657089.00 21557087.00 L 43011419.00 21557087.00 L 43011419.00 21675197.00  zM 43011419.00 21872047.00 L 42657089.00 21872047.00 L 42657089.00 21753937.00 L 43011419.00 21753937.00 L 43011419.00 21872047.00  zM 43011419.00 22265748.00 L 42657089.00 22265748.00 L 42657089.00 22147638.00 L 43011419.00 22147638.00 L 43011419.00 22265748.00  zM 43011419.00 22462599.00 L 42657089.00 22462599.00 L 42657089.00 22344489.00 L 43011419.00 22344489.00 L 43011419.00 22462599.00  zM 43011419.00 22856299.00 L 42657089.00 22856299.00 L 42657089.00 22738189.00 L 43011419.00 22738189.00 L 43011419.00 22856299.00  zM 43011419.00 22068898.00 L 42657089.00 22068898.00 L 42657089.00 21950788.00 L 43011419.00 21950788.00 L 43011419.00 22068898.00  zM 43011419.00 22659449.00 L 42657089.00 22659449.00 L 42657089.00 22541339.00 L 43011419.00 22541339.00 L 43011419.00 22659449.00  zM 44605908.00 23470777.00 L 44094096.00 23470777.00 A 220780.35 220780.35 0 0 1 44094096.00 23029223.00 L 44605908.00 23029223.00 A 220780.35 220780.35 0 0 1 44605908.00 23470777.00  zM 43383467.00 23450707.00 L 42773231.00 23450707.00 A 200706.53 200706.53 0 1 1 42773231.00 23049293.00 L 43383467.00 23049293.00 A 200706.53 200706.53 0 0 1 43383467.00 23450707.00  zM 43383467.00 26148739.00 L 42773231.00 26148739.00 A 200706.53 200706.53 0 1 1 42773231.00 25747325.00 L 43383467.00 25747325.00 A 200706.53 200706.53 0 0 1 43383467.00 26148739.00  zM 44605908.00 26168809.00 L 44094096.00 26168809.00 A 220780.35 220780.35 0 0 1 44094096.00 25727255.00 L 44605908.00 25727255.00 A 220780.35 220780.35 0 0 1 44605908.00 26168809.00  zM 43011419.00 26459843.00 L 42657089.00 26459843.00 L 42657089.00 26341733.00 L 43011419.00 26341733.00 L 43011419.00 26459843.00  zM 43011419.00 26656693.00 L 42657089.00 26656693.00 L 42657089.00 26538583.00 L 43011419.00 26538583.00 L 43011419.00 26656693.00  zM 43011419.00 26853543.00 L 42657089.00 26853543.00 L 42657089.00 26735433.00 L 43011419.00 26735433.00 L 43011419.00 26853543.00  zM 43011419.00 27050394.00 L 42657089.00 27050394.00 L 42657089.00 26932284.00 L 43011419.00 26932284.00 L 43011419.00 27050394.00  zM 43011419.00 27247244.00 L 42657089.00 27247244.00 L 42657089.00 27129134.00 L 43011419.00 27129134.00 L 43011419.00 27247244.00  zM 43011419.00 27444095.00 L 42657089.00 27444095.00 L 42657089.00 27325985.00 L 43011419.00 27325985.00 L 43011419.00 27444095.00  zM 43011419.00 27640945.00 L 42657089.00 27640945.00 L 42657089.00 27522835.00 L 43011419.00 27522835.00 L 43011419.00 27640945.00  zM 43011419.00 27837795.00 L 42657089.00 27837795.00 L 42657089.00 27719685.00 L 43011419.00 27719685.00 L 43011419.00 27837795.00  zM 43011419.00 28034646.00 L 42657089.00 28034646.00 L 42657089.00 27916536.00 L 43011419.00 27916536.00 L 43011419.00 28034646.00  zM 43011419.00 28231496.00 L 42657089.00 28231496.00 L 42657089.00 28113386.00 L 43011419.00 28113386.00 L 43011419.00 28231496.00  zM 43011419.00 28428347.00 L 42657089.00 28428347.00 L 42657089.00 28310237.00 L 43011419.00 28310237.00 L 43011419.00 28428347.00  zM 43011419.00 28625197.00 L 42657089.00 28625197.00 L 42657089.00 28507087.00 L 43011419.00 28507087.00 L 43011419.00 28625197.00  zM 43011419.00 28822047.00 L 42657089.00 28822047.00 L 42657089.00 28703937.00 L 43011419.00 28703937.00 L 43011419.00 28822047.00  zM 43011419.00 29018898.00 L 42657089.00 29018898.00 L 42657089.00 28900788.00 L 43011419.00 28900788.00 L 43011419.00 29018898.00  zM 43011419.00 29215748.00 L 42657089.00 29215748.00 L 42657089.00 29097638.00 L 43011419.00 29097638.00 L 43011419.00 29215748.00  zM 43011419.00 29412599.00 L 42657089.00 29412599.00 L 42657089.00 29294489.00 L 43011419.00 29294489.00 L 43011419.00 29412599.00  zM 43011419.00 29609449.00 L 42657089.00 29609449.00 L 42657089.00 29491339.00 L 43011419.00 29491339.00 L 43011419.00 29609449.00  zM 43011419.00 29806299.00 L 42657089.00 29806299.00 L 42657089.00 29688189.00 L 43011419.00 29688189.00 L 43011419.00 29806299.00  zM 43383467.00 30400707.00 L 42773231.00 30400707.00 A 200706.53 200706.53 0 1 1 42773231.00 29999293.00 L 43383467.00 29999293.00 A 200706.53 200706.53 0 0 1 43383467.00 30400707.00  zM 44605908.00 30420777.00 L 44094096.00 30420777.00 A 220780.35 220780.35 0 0 1 44094096.00 29979223.00 L 44605908.00 29979223.00 A 220780.35 220780.35 0 0 1 44605908.00 30420777.00  zM 44400002.00 34500000.00 L 42100002.00 34500000.00 L 42100002.00 33850000.00 L 44400002.00 33850000.00 L 44400002.00 34500000.00  z"/>
<path id="N" d="M 12908100.00 28300263.00 L 12896642.00 28242658.00 L 12907241.32 28189370.00 L 12686701.51 28189370.00 L 12697670.00 28244514.00 L 12686212.00 28302119.00 L 12682629.91 28307480.00 L 12912922.22 28307480.00 L 12908100.00 28300263.00  z"/>
<path id="N" d="M 12614962.00 27883514.01 L 12606569.00 27889122.00 L 12548964.00 27900580.00 L 12496852.00 27890214.59 L 12496852.00 28103986.60 L 12547140.00 28093984.00 L 12604745.00 28105442.00 L 12614962.00 28112268.75 L 12614962.00 27883514.01  z"/>
<path id="N" d="M 13107088.00 27893126.83 L 13099241.00 27898370.00 L 13041636.00 27909828.00 L 12988978.00 27899353.99 L 12989567.00 28103586.00 L 13047172.00 28092128.00 L 13104777.00 28103586.00 L 13107088.00 28105130.15 L 13107088.00 27893126.83  z"/>
<path id="N" d="M 12902564.00 27701693.00 L 12905536.71 27697244.00 L 12688990.55 27697244.00 L 12699494.00 27750050.00 L 12688036.00 27807655.00 L 12682891.72 27815354.00 L 12902255.89 27815354.00 L 12891106.00 27759298.00 L 12902564.00 27701693.00  z"/>
</g>
</svg>
